<?xml version="1.0" encoding="UTF-8"?> <svg xmlns="http://www.w3.org/2000/svg" xmlns:xlink="http://www.w3.org/1999/xlink" version="1.1" id="Layer_1" x="0px" y="0px" viewBox="0 0 1000 1000" style="enable-background:new 0 0 1000 1000;" xml:space="preserve"> <path style="fill:#FFFFFF;" d="M62.6,156.3c0.4-0.8,1-1.5,1-2.3c1.9-18.9,10.4-34.7,22.6-48.7C98.7,91,113.6,79.9,131,72.1 c9-4,18.5-6.2,28.3-7.3c11.6-1.3,23.2-1.2,34.8-0.5c18.2,1.2,36,4.4,53,11.5c12.2,5.1,20.7,13.8,25.2,26.2c3,8.1,4,16.5,4,25.1 c0,0.6,0,1.2,0,1.8c3.1,0,6,0.2,8.9,0c20.7-1.5,41.2-0.1,61.2,6c3.1,0.9,6,2.2,9.1,3.3c15-9.6,31.7-10.6,48.8-9.3 c10.5,0.8,20.7,2.6,30.8,5.4c2.3,0.7,3.7-0.3,5.2-1.6c12.3-9.9,26.1-17,41.4-21.1c15.6-4.3,31.4-5.3,47.5-3.7 c8,0.8,15.7,2.5,23.5,4.3c2.7,0.6,5.8,0,8.7-0.4c24-2.8,46.1,2.7,66.2,16c0.6,0.4,1.3,0.8,1.9,1.3c0.5-0.1,0.9,0,1.2-0.2 c10.6-5,21.8-7.6,33.5-8.6c9.7-0.8,19.3-0.6,28.9,0.8c1.6,0.2,3.3-0.1,4.9-0.5c13.2-3.5,26.7-4.6,40.2-3.7 c9.7,0.7,19.2,2.2,28.4,5.4c2.1,0.7,3.9,0.6,5.9-0.4c4.3-2.3,9-3.1,13.7-3.6c11.1-1.3,22.1-0.4,33.1,1.2c8.7,1.3,17.2,3.2,25.8,4.7 c1.1,0.2,2.3,0.2,3.5,0.1c14.1-0.5,28.1,0,41.8,3.9c7.1,2,14,4.5,20.3,8.4c16.7,10.4,25.2,25.4,26.4,45.1 c0.9,14.6-3.2,27.5-11.6,39.2c-1.4,2-2.7,4.1-4.2,6c-7.2,9.6-15.1,18.7-24.9,25.8c-2,1.4-4.2,2.6-6.3,3.7c-2.9,1.4-5.8,1.7-9,0.9 c-6.5-1.6-13-3-20.1-4.6c0,1.5,0,2.6,0,3.7c0.2,13.8-0.1,27.6-3.1,41.2c-0.9,3.9-2.6,7.9-4.6,11.4c-2.7,4.6-6.7,8-12,9.9 c-8.1,2.8-16.4,4.4-24.9,5c-14.9,1.1-29.3-1.1-43.5-4.9c-0.7-0.2-1.4-0.5-2.7-1c1.7-1,3-1.7,4.2-2.4c0-0.1,0-0.2-0.1-0.4 c-0.8,0.1-1.6,0.2-2.3,0.4c-10.4,3.5-21.1,5.8-32.1,6.3c-11.6,0.5-23.2-0.6-34.5-3.4c-3.1-0.8-6-0.6-9,0.3 c-12.4,3.6-25.1,6-38.1,5.7c-12.5-0.3-24.3-2.8-34.1-11.9c-0.9,1.7-1.7,3.3-2.6,4.8c-12.4,22-30.6,36.9-54.5,45 c-12.2,4.1-24.6,6.7-37.4,7.2c-6.4,0.3-12.9,0.7-19.3,0.4c-21.2-0.7-41.7-4.8-60.7-14.6c-9.1-4.7-17.5-10.4-24.4-18.2 c-1.1-1.3-2.4-1.7-4.1-1.7c-18.7-0.3-37.4-0.3-56.1-1.2c-8.8-0.4-17.1,1.3-25.7,2.3c-17.3,1.9-34.5,2.1-51.5-1.9 c-13.4-3.2-25.6-8.6-35.1-19.1c-6.6,2.1-13,4.3-19.6,6.2c-14.4,4.1-29.1,6.8-44.1,7.7c-13.7,0.9-27.4,0.9-40.8-1.7 c-14.1-2.8-28.2-6.2-41-13.2c-7.8-4.3-14.8-9.4-20.5-16.2c-9.2-11-11.4-23.7-9.1-37.4c1.7-9.9,5.6-19,11.2-27.6 c-1.9-2.9-3.8-5.8-5.6-8.7c-9.2-15-15.9-31-18.7-48.4c-0.4-2.3-0.5-4.6-0.9-6.9c-0.2-0.9-0.7-1.8-1-2.7 C62.6,163,62.6,159.6,62.6,156.3z M123.9,224.7c-4.7,7-9.1,13.6-13.6,20.3c-4.6,6.9-9.2,13.7-13.7,20.6c-4.2,6.5-2.5,11.5,2.9,16.3 c0.7,0.6,1.4,1.1,2.1,1.7c17.8,13.2,38,20.1,59.8,22c18.9,1.7,36.9-2.2,54-10.3c9.2-4.4,17.6-10.1,25.2-17.1 c7.3-6.7,13.5-14.3,18.1-22.9c3.2-6.1,5.6-12.6,8.4-18.9c0.1,0.9,0.3,1.8,0.2,2.8c-0.3,12.7,2.4,24.8,7.3,36.5 c4.8,11.4,12.1,20.7,22.9,26.9c10.7,6.2,22.1,9.3,34.6,9.4c10.6,0.1,20.4-2.1,29.9-6.5c1.7-0.8,2.8-0.3,4.3,0.4 c2.5,1.2,5.2,2.8,7.9,2.8c15.6,0.3,31.2,0.4,46.8,0c7.2-0.2,12.6-4.7,13.3-13.4c0.1-0.9,0.2-1.8,0.4-3.6c3.4,7.6,7.3,13.9,12.1,19.5 c8.7,10.1,19.1,17.9,31.4,23.2c13.5,5.9,27.6,9,42.4,9.1c6.5,0,12.8-0.4,19.2-1.5c9.5-1.6,18.5-4.7,26.8-9.5 c9.4-5.4,16.9-13,23.7-21.4c7.5-9.4,10.9-20.7,14.2-31.9c1-3.4,1.1-7.1,1.7-10.7c0.3-2,0.6-3.9,1.1-6.7c10.6,16.9,24.8,28,42.9,34.2 c18.6,6.4,36.3,3.2,53.7-4.5c4.1,4.1,9.1,5.2,14.6,4.8c11.6-0.8,23.2-1.4,34.8-1.7c4.9-0.1,9.4-1,13.7-3.6c3.8,3.4,8.3,4.3,13.2,4.6 c6.8,0.4,13.6,0.9,20.4,1.4c6.8,0.5,13.6,1.2,20.4,1.3c9.6,0.1,14.2-5.5,15.2-13.3c1.1-9.1,2.2-18.1,3-27.2c0.8-8.7,1.3-17.4,3.4-26 c1.1-4.5,2.6-9,5.6-12.6c0.9-1,2-2.2,3.2-2.6c4.2-1.4,8.6-1.5,12.9-0.5c3.4,0.8,5.3,3.3,7.5,5.8c4.9,5.5,10,6.6,15.9,2.1 c1.8-1.4,3.3-3.3,4.6-5.2c2.1-3.1,3.8-6.4,5.8-9.6c4.6-7.6,9.1-15.3,13.9-22.8c3.3-5.1,2.5-9.7-0.7-14.3c-0.4-0.5-0.7-1.1-1.2-1.5 c-3.5-3.6-6.9-7.3-10.7-10.6c-7.1-6.1-15.8-9.4-24.8-11.3c-8.2-1.7-16.7-1.1-24.7,2c-2.1,0.8-3.6,0.6-5.3-0.8 c-2.7-2.3-6-3.4-9.6-3.8c-14.3-1.5-28.6-3.1-43-4.5c-8.3-0.8-15.7,3.5-16.7,13.2c-0.6,5.9-1,11.8-1.6,17.7 c-1.5,15.4-3.1,30.7-4.7,46.1c-0.4,3.7-0.9,7.3-1.4,11c-0.3,0-0.5,0-0.8,0c-0.2-1.9-0.5-3.8-0.6-5.7c-0.6-6.4-1.1-12.8-1.7-19.2 c-1-10-2-20-2.9-30c-0.7-7.2-1.1-14.4-2.1-21.5c-1.1-7.8-5.6-13.8-15.9-13.4c-11.9,0.5-23.7,1.2-35.5,1.7c-3.9,0.2-7.4,1.1-10.4,3.5 c-1.1,0.9-2.2,1-3.5,0.5c-12.8-4.8-25.7-4.6-38.7-1.1c-10.4,2.8-20.2,7-28.8,13.7c-5.1,4-10.1,8-13.8,13.4c-0.8,1.2-1.9,2.2-2.9,3.2 c-0.3-0.1-0.5-0.3-0.8-0.4c0-1.2,0-2.5,0-3.7c0.1-7.5,0.5-15,0.3-22.4c-0.2-8.3-5.9-13.9-14.3-14.3c-8-0.4-16-0.2-24-0.3 c-1.7,0-3.3-0.4-5-0.3c-5.1,0.1-10.6-1.5-15.2,1.2c-4.1,2.4-7.6,2.1-11.9,0.7c-8.9-3-18.2-4.7-27.6-5c-4.4-0.1-8.8-0.4-13.2,0 c-10.9,1.1-21.1,4.9-30.6,10.3c-12,6.9-22.3,15.7-29.6,27.7c-1,1.7-2.1,3.4-4,5c0-1.5,0-2.4,0-3.3c0.2-7.8-5.7-14.2-14.1-14.2 c-14.8-0.1-29.7-0.1-44.5,0c-7.8,0-13.5,5-14.5,12.8c-0.2,1.7-0.2,3.3-0.2,5c-0.1,17.6-0.1,35.1-0.2,52.7c0,2.7-0.2,5.5-1,8 c-1.5,5.3-4,6.9-8.4,7.2c-2.3,0.1-4.6-0.2-6.9-0.5c-2.1-0.2-3.3-1.5-3.5-3.5c-0.2-2.3-0.4-4.6-0.4-6.9c0-20,0-40,0.2-60 c0.1-8.9-6.3-15.2-14.9-15c-14.2,0.2-28.4,0.2-42.6,0c-8.9-0.2-15.2,6.1-15.3,15.2c0,5.2-0.1,10.3-0.1,15.5c0,6,0,12,0,18 c-0.3,0.1-0.7,0.1-1,0.2c-1.4-6.7-4.3-12.9-7.6-18.7c-3.4-5.9-7.6-11.1-13.2-14.9c-5.6-3.8-11.4-7.3-17.2-10.9 c5.2-9.6,10.4-19.2,15.5-28.9c2.4-4.4,4.5-9,7-13.3c2.3-4,1.1-7.5-1.2-10.8c-1.1-1.6-2.8-3.1-4.4-4.2c-14-9.4-29.5-15.3-46.1-17.9 c-12-1.9-24.1-1.6-36.2,0.4c-6.7,1.1-13,4.3-19.9,4.3c-0.2,0-0.5,0.2-0.7,0.3c-3.2,1.6-6.7,2.8-9.7,4.7c-6.6,4.4-13.6,8.3-19.6,13.6 c-7.8,6.9-14.4,14.8-19.4,23.9c-8,14.6-11.4,30-7.4,46.6c4.5,18.4,14.6,32.7,31,42.6C119.7,221.9,121.6,223.2,123.9,224.7z"></path> <path style="fill:#FFFFFF;" d="M352.3,936.2c-2.6-0.5-5.2-0.9-7.8-1.4c-14.8-2.7-29.8-5.1-43.4-12c-10-5-18.9-11.6-27.4-18.7 c-0.7-0.6-1.3-1.1-2.4-1.9c-0.9,3.6-1.7,6.8-2.5,10c-0.2,0.9-0.4,1.8-0.8,2.6c-4,7-9.6,12.4-16.7,16.1c-1.6,0.8-3.5,0.9-5.2,1.4 c-9.8,3.1-19.9,2.8-29.9,2.8c-12.1-0.1-24.3-0.2-36.4-0.5c-11.2-0.3-22.4-1.4-33.2-4.5c-0.9-0.2-1.8-0.5-2.5-0.9 c-7.2-3.9-12.7-9.5-17-16.5c-0.3-0.4-0.5-0.9-0.6-1.4c-1.9-8.3-4.6-16.3-4.9-25c-0.3-10.2-1.4-20.3-2-30.5 c-0.7-11.1-1.2-22.1-1.8-33.2c-0.7-12.4-1.3-24.7-1.9-37.1c-0.2-4-0.3-8-0.4-12c-0.3-27.6-0.7-55.2-0.7-82.8c0-4.2,1.5-8.3,2.4-12.5 c1.5-7.6,6.2-13.1,12.1-17.7c4.4-3.4,9.3-5.2,14.7-6.5c8.3-2,16.7-3,25.2-3.1c8.6-0.1,17.3-0.6,25.9-0.3c14.2,0.4,28.3,1.1,42.4,2.3 c6.2,0.5,12.5,2,18.4,4c3.8,1.3,7.3,4,10.2,6.8c3.1,3,5.4,6.8,8.2,10.6c1.5-1.1,3.5-2.4,5.4-3.9c14.7-11.6,31.6-18.1,49.9-21.7 c9.4-1.8,18.8-3.5,28.3-3.7c10.7-0.2,21.3,1.5,31.7,4c9.3,2.2,18.7,4,27.2,8.5c15.7,8.2,30.1,18,40.4,32.9c0.5,0.7,1.1,1.4,1.7,2.1 c0.2,0.2,0.4,0.3,1.4,1.3c0.4-0.8,0.7-1.6,1.2-2.3c6.8-9.6,15.5-17.2,25.1-23.8c9-6.2,18.3-11.7,28.9-14.6c11.4-3.1,22.9-6,34.7-7.4 c15.6-1.8,30.8,0.4,45.9,4.1c8.5,2.1,17.1,4,24.9,8.2c15.3,8.3,29.5,18.1,39.6,32.7c0.6,0.8,1.3,1.6,2.7,3.3c0.4-1,0.6-1.8,1.1-2.4 c6.9-9.9,15.9-17.5,25.7-24.4c12-8.5,25.1-14.1,39.4-17.1c9.2-1.9,18.3-4.1,27.8-4.8c14.5-1.1,28.5,1.3,42.4,4.5 c10.6,2.4,21,5.5,30.3,11.3c11.1,6.9,21.9,14.1,30,24.7c7.5,9.7,15.2,19.3,19.2,31.2c6.1,18.1,11,36.5,10.7,55.9 c-0.2,10,0.1,20.1-0.4,30.1c-0.4,7-1.3,14.1-2.8,21c-2.7,12.9-5.5,25.7-10.7,37.9c-6,14.1-14.6,26.5-25,37.5 c-12.2,12.9-26.5,23.1-43.6,28.5c-11.4,3.6-23.1,6.2-35.1,7.4c-0.6,0.1-1.1,0.4-1.7,0.7c-4.1,0-8.3,0-12.4,0 c-0.3-0.2-0.6-0.6-0.9-0.6c-9.2-0.7-18-3-26.9-4.9c-13-2.8-24.9-8-35.9-15.5c-11.8-8-22-17.4-30-29.2c-0.8-1.1-1.7-2.2-2.8-3.5 c-1.9,2.6-3.8,4.9-5.5,7.3c-10.5,15.1-24.9,25.6-41,34c-12.5,6.5-26.4,8.3-40.1,11.1c-2.5,0.5-5,0.9-7.4,1.4c-4.1,0-8.3,0-12.4,0 c-0.3-0.2-0.6-0.5-0.9-0.6c-7.7-1.4-15.5-2.6-23.2-4.1c-9-1.8-17.9-3.9-26.1-8.3c-16.4-8.6-31.2-19.2-41.9-34.7 c-1.4-2-2.9-3.8-4.7-6.1c-1.7,2.2-3,4-4.4,5.8c-4.6,6.2-9.3,12.4-15.3,17.4c-10.3,8.4-20.9,16.4-33.6,21.1c-10.7,3.9-21.9,5.9-33,8 c-2.5,0.5-5,1-7.4,1.4C360.6,936.2,356.4,936.2,352.3,936.2z M458.2,820.6c0.5,1.5,0.7,2.2,0.9,2.9c1.4,5.8,2.4,11.6,4.1,17.3 c8.3,28.2,24.7,50.2,51.6,63c21.5,10.3,44.3,13,67.9,8c18-3.8,33.4-12,46.4-24.9c14.6-14.6,24-32.1,29.2-52 c1.2-4.6,2.3-9.2,3.5-14.5c0.5,1.5,0.8,2.3,1,3.1c0.9,3.8,1.6,7.6,2.5,11.3c3.8,16.3,10.8,31.2,21.5,44.1 c12.7,15.3,28.6,25.8,48,30.9c17.2,4.6,34.4,5.6,52,1.8c24.9-5.4,44-18.9,58.3-39.7c15-21.7,20.9-46.3,22.3-72.2 c0.3-6.6-0.4-13.2-0.1-19.7c0.9-15-0.6-29.6-4.7-44c-8.7-30.2-27.3-51.9-56.9-63c-27-10.1-54.5-9.9-81.4,0.2 c-31.7,11.8-51.3,34.9-59.7,67.6c-0.7,2.5-1.2,5.1-1.8,7.7c-0.3,0-0.5,0-0.8,0c-0.5-2-1-3.9-1.4-5.9c-3.7-17.6-11.4-33.1-23.6-46.3 c-19.1-20.6-43.7-28.9-71.1-30.3c-13-0.7-25.8,1.2-38.2,4.9c-34.4,10.4-56.3,33.1-66.2,67.5c-0.9,3.3-1.7,6.7-2.7,10.7 c-0.5-1.5-0.9-2.3-1.1-3.2c-0.8-3.1-1.5-6.3-2.3-9.4c-4.1-16.1-12.1-30.1-23.7-42c-19.1-19.6-43.2-27.3-69.8-28.7 c-11.3-0.6-22.4,1.1-33.3,3.7c-27.4,6.5-48.1,22-61.8,46.5c-9.3,16.6-13.1,34.9-13.6,53.9c-0.2,6.2,0.4,12.4,0.1,18.6 c-1,19.7,1.5,38.9,7.9,57.5c8.9,26,25.2,46.2,50.4,58c19.8,9.3,40.9,12.3,62.7,8.7c21.4-3.6,39.6-13,54.2-29 c11.4-12.5,19.6-26.9,24.4-43.1C454.8,834.4,456.3,827.8,458.2,820.6z M196.8,913.7c0-0.1,0-0.3,0-0.4c11.6,0,23.2,0.3,34.8-0.1 c10-0.4,14.9-4.3,16.4-14.5c0.2-1.3,0.1-2.6,0.2-3.9c0.4-21,0.8-42.1,1.2-63.1c0.9-41.9,3.4-83.8,3.1-125.7c0-5.5,0.5-11.1,0.4-16.6 c-0.1-8-3.4-14-12.3-15.1c-6.4-0.8-12.8-1.8-19.2-2c-16.8-0.5-33.5-0.9-50.3-0.8c-7.4,0.1-14.9,0.2-22.3,1.8 c-9.5,2.1-13,8.1-13.3,16.5c-0.3,8.9-0.2,17.8,0,26.7c0.4,21.9,0.9,43.9,1.5,65.8c0.4,15.2,1,30.4,1.9,45.6 c1.1,19.7,2.4,39.4,3.8,59.1c0.3,4.2,1.2,8.4,1.9,12.6c0.7,3.9,3,6.7,6.2,9c3.5,2.6,7.6,3.2,11.7,3.4 C173.9,912.8,185.3,913.2,196.8,913.7z"></path> <path style="fill:#FFFFFF;" d="M488.4,633.3c-8.2,2.3-16.3,4.7-24.6,6.7c-16.8,4-33.9,5.3-51.1,4.1c-18.4-1.3-36.2-5.3-52.9-13.2 c-1.7-0.8-2.9-0.5-4.3,0.3c-5.3,2.8-10.5,5.6-15.8,8.1c-20,9.3-41,13.7-63.1,11.9c-6.7-0.6-13.3-1.8-19.5-4.6 c-4.9-2.2-9.5-4.8-11.2-10.6c-1.1,0-2.1,0-3.2,0c-19.1-0.1-38.2,0-57.3-0.4c-5.1-0.1-10.4-0.9-15.1-2.6c-6.2-2.3-10-7.5-11.9-13.9 c-2.3-8.1-3.7-16.3-4.4-24.7c-1.2-14.5-2.5-29-3.5-43.5c-0.8-11.3-1.3-22.6-2-33.9c-0.7-10.9-1.4-21.8-2.1-32.8 c-0.8-12.7-1.5-25.4-2.6-38.1c-1.9-22.8-1.5-45.6-1.5-68.4c0-5.5,0.2-11.1,1.7-16.5c1.1-3.9,3.3-7,6.2-9.6c4.6-4.1,10-6.8,16-8.3 c12.9-3.3,25.9-5.7,39.2-5.8c19.2-0.1,38.4-0.9,57.6-0.4c28.9,0.8,55.3,9.2,77.6,28.3c7,6,12.9,13,16.3,21.7 c0.2,0.5,0.5,0.9,0.8,1.5c10.9-5,22.5-4.9,34-5.2c13.3-0.3,26.5,0.5,39.7,2.2c4.2,0.5,8.3,1.8,12.5,2.6c1,0.2,2.3,0.3,3.3-0.1 c9.2-4.1,18.9-4.3,28.8-4.2c12.5,0.2,24.1,3.5,34.8,8.8c4.1-2.8,7.7-5.7,11.7-7.9c8.2-4.6,17.3-6.5,26.6-7.8 c10.9-1.5,21.8-2,32.8-1.4c2,0.1,4.1,0,6.3,0c0.2-2.5,0.2-4.8,0.5-7.1c0.3-3.1,0.8-6.1,1.3-9.1c0.7-4.3,3.2-7.5,6.6-10.1 c6.2-4.8,12.9-8.6,20.8-9.7c3.3-0.4,6.7-0.6,10-0.6c9.7,0,19.4-0.1,29,0.3c10.2,0.4,20.3,1.2,30.4,2.1c3.2,0.3,6.4,1.1,9.4,2.1 c2.5,0.8,4.7,0.8,7.1,0.1c7.3-2,14.6-4.3,22.1-5.5c8.7-1.5,17.6-2.2,26.5-2.9c7.2-0.5,14.4-0.7,21.6-0.5c10,0.3,20.1,1.1,29.8,3.7 c5.6,1.5,11.1,3.5,15.9,6.9c5.6,4,8.5,9.4,8.6,16.4c0.1,39.2,0.3,78.4,0.4,117.7c0,12-0.3,24-0.8,36c-0.6,15.4-1.3,30.9-2.4,46.3 c-1.2,17.1-2.9,34.1-4.6,51.1c-0.5,4.7-1.3,9.4-4.4,13.4c-2.3,2.9-5.1,5-8.7,6.1c-7.9,2.4-16.1,3.6-24.3,4.4c-13,1.3-26,1.6-39,1.2 c-11.8-0.4-23.7-0.9-35.3-3.5c-2.5-0.6-5-1.4-7.4-2.3c-2.2-0.8-4.3-1.1-6.8-0.4c-17.1,4.4-34.4,6.5-52.1,5.5 c-12.4-0.7-24.6-2.8-36-8.1c-2-0.9-3.4-0.2-5.1,0.5c-8.9,3.6-17.9,7.3-26.9,10.7c-3.2,1.2-6.6,1.5-10.2,1.5 c-9-0.1-18.1-0.1-26.8,2.4c-6.3,1.8-12.5,0.8-18.7-0.1c-8.5-1.3-16.5-4.1-24.5-6.9C492.2,636.2,490.3,634.5,488.4,633.3z M266.4,619.5c0.8,1.6,1.6,3,2.2,4.4c4.1,9.3,14.9,14.7,25.3,12.1c16.2-4.1,31.1-10.9,45.6-19c4.9-2.8,8.3-6.9,9.1-12.7 c0.5-3.6,1-7.1,1.2-10.7c0.2-4.8,0.1-9.5,0.1-14.3c0-1.2,0-2.5,0-4c0.6,0.5,0.9,0.6,0.9,0.8c0.3,0.9,0.5,1.7,0.7,2.6 c2,8.8,5.7,16.8,11.1,24c7.3,9.8,16.8,16.7,28.4,20.4c9.8,3.1,19.9,5,30.3,5.4c13.4,0.5,26.5-0.7,39.3-4.9 c20.4-6.6,33.7-20.2,39.8-40.8c0.3-0.9,0.6-1.8,0.9-2.8c0.7,3.9,0.6,7.8,1.3,11.5c1.3,7.6,2.6,15.2,4.5,22.7 c1.4,5.3,5,9.5,10.2,11.4c4.9,1.9,10.2,2.8,15.5,2.6c11.4-0.4,22.6-2,33.6-4.9c10.9-2.8,20.7-7.9,29-15.6 c12.1-11.3,17.4-25.6,18.4-41.8c0.5-7.2,0.3-14.4,0.3-21.7c0-4.9,0-9.7,0-14.6c0.4,0.3,0.6,0.7,0.6,1c0.3,8,0.6,16,0.8,23.9 c0.3,10.3,0.5,20.6,0.8,30.9c0.2,6.5,0,13.2,2.2,19.5c1.9,5.4,5.5,9.1,10.6,11c3.9,1.4,8.3,2.3,12.5,2.5c14.7,0.5,29.4,0.9,44.1,0.7 c7.6-0.1,15.2-1.5,21.3-6.8c0.2-0.1,0.5-0.1,0.6-0.2c1.2,1.2,2.4,2.3,3.6,3.4c3.9,3.6,8.8,4.2,13.7,4.7c7.6,0.8,15.2,1,22.8,1.4 c8.4,0.3,16.8,0.4,25.1,0.8c4.2,0.2,8.2-0.3,12.2-1.3c4.1-1,7.1-3.3,9.7-6.5c3-3.7,3.8-8.3,4.2-12.7c1.9-19.5,3.7-38.9,5.2-58.4 c0.8-10.1,1.2-20.3,1.6-30.5c0.4-10.7,0.7-21.4,0.8-32.1c0.2-15.5,0.2-31,0.2-46.5c0-18.5-0.1-36.9-0.1-55.4c0-4-0.5-8-1.5-11.8 c-1.6-6-5.6-10-11.2-11.8c-4.8-1.6-10-2.6-15.1-3.3c-15.1-1.9-30.4-2.3-45.6-1.4c-7,0.4-13.8,1.8-20.3,4.3c-1.2,0.4-2,0.5-3.2,0.1 c-4-1.5-8.1-2.6-12.4-2.1c-11.3,1.2-22.7,0.6-34,0.1c-12.3-0.5-24.5,0-36.4,3.5c-7.3,2.2-12.4,6.7-14.1,14.4c-0.7,3.1-1,6.4-1.1,9.5 c-0.2,5-0.1,10.1-0.2,15.1c0,0.8-0.2,1.6-0.4,2.8c-2-2.2-3.6-4.3-5.5-5.9c-5-4.4-11.4-5.4-17.7-5.7c-12.9-0.6-25.7,0.4-38.4,3.3 c-14.8,3.3-28.6,8.6-40,19.1c-0.7,0.7-1.6,1.2-2.6,1.9c-0.3-0.8-0.5-1.2-0.6-1.7c-1.1-4.5-3.8-7.8-7.4-10.5 c-4.6-3.4-10-4.3-15.3-4.8c-7.3-0.6-14.7-0.4-22-0.4c-6.3,0-12.3,1.3-17.6,4.7c-6-2.2-12.2-3.5-18.6-3.6c-9.4-0.2-18.8-0.1-28.3-0.1 c-11.6,0-23.1,1.1-34.5,3.8c-4.8,1.1-8.5,3.6-11.3,7.5c-1.5,2.1-2.6,4.5-4,7c-1.1-2.2-1.9-4.2-3-6.1c-6.3-11.9-14.2-22.4-24.5-31.1 c-21.6-18.2-47.2-25.8-74.9-27.4c-11.1-0.6-22.2,0-33.2,1.4c-9.2,1.2-18.3,3.1-27.1,6.1c-5,1.7-9.3,4.5-12.9,8.3 c-4.5,4.7-6,10.8-6.1,17.1c-0.1,19.6-0.3,39.2,1.5,58.7c0.9,10,1.3,20,1.9,30.1c0.9,13.5,1.9,27,2.8,40.4 c0.8,12.2,1.5,24.4,2.3,36.6c0.9,13,1.8,25.9,3.2,38.9c0.8,7.4,2.2,14.8,4.3,22c2.1,7.6,7.1,13,15.3,14.7c4.2,0.9,8.4,1.5,12.6,1.5 c6.1,0,12.1,0.1,18.2,0.2C240.7,624.5,253.5,623.8,266.4,619.5z"></path> <path style="fill:#FFFFFF;" d="M549.9,248c-1.2,0.5-2.4,1-3.5,1.6c-11,5.4-22.6,8.8-34.8,9.6c-17.1,1.2-33.2-2-47.7-11.3 c-12.9-8.3-22.1-19.4-25.3-34.7c-2.7-13.3-1-26.2,5.4-38.3c8.9-16.7,22.3-28.3,40-35.2c4.7-1.8,9-4.3,14.2-3 c18.5-1.7,36.2,1.6,53,9.6c0.3,0.2,0.7,0.3,1.1,0.4c0.1,0,0.3,0,0.6,0c1.5-2,0-4.7,0.8-6.3c2.6-0.9,4.8-1.4,6.8-2.3 c2.2-0.9,4.4-1,6.3,0.3c2.4,1.7,5,1.8,7.7,1.9c7.2,0.1,14.4,0.2,21.7,0.2c0.5,0,1,0.1,1.8,0.2c0.1,1,0.3,2,0.3,3 c-0.4,16.4-0.9,32.7-1.4,49.1c-0.7,23.6-0.6,47.3-2.5,70.7c-2.1,25.3-14.6,44.8-38,56.3c-6.5,3.2-13.6,4.8-20.8,5.6 c-15.9,1.8-31.7,1.1-47-4.4c-22.6-8.1-38.6-22.9-46-46.1c-2-6.3-2.8-12.8-3.1-19.4c0-0.9,0.1-1.8,0.2-3.1c17.1,5,34,10,51.1,15 c0.3,4.6,2.1,8.6,5.8,11.4c2.4,1.8,5.1,3.5,8,4.5c9.5,3.3,19,2.9,28.4-0.4c3.3-1.2,6.1-3.2,8.4-5.9 C546.8,270.6,551.4,258.9,549.9,248z M509,174.7c-8.1-0.1-17.6,6.7-19.9,17.4c-0.8,3.5-0.8,7.2-0.4,10.7c1.2,10.4,10.8,20,22.5,20.1 c9.1,0.1,16.5-3.1,22.3-10.3c7.4-9,7.1-21.6-1-29.9C527,177.2,520.3,174.7,509,174.7z"></path> <path style="fill:#FFFFFF;" d="M241.4,107.2c-8.2,15.2-16.2,30-24.5,45.2c-1.8-0.8-3.4-1.5-5-2.2c-10.1-4.4-20.6-7.5-31.7-7.8 c-8.1-0.3-16.1,0.7-23.3,4.6c-4.1,2.2-8,5.3-11.3,8.6c-2,2-2.6,5.4-1.1,8.3c0.5,1,1.6,2,2.7,2.4c7.4,2.6,15.1,3.3,22.9,2.5 c7.9-0.8,15.8-1.9,23.8-2.7c14.6-1.4,28.5,0.8,41.2,8.7c3.4,2.1,6.4,4.8,9.9,6.6c4.7,2.4,6.4,6.7,8,11.1c7,19.4,4.8,37.9-6,55.2 c-12.6,20.2-31,32.6-53.9,37.9c-28.2,6.6-54.7,1.9-79.6-12.7c-1.4-0.8-2.8-1.8-4.3-2.9c8.7-12.8,17.2-25.3,25.9-38 c1,0.4,2,0.6,2.9,1c8.7,3.9,17.7,7,27.2,8.6c10.2,1.8,19.5-0.5,27.9-6.4c5.4-3.8,7.7-8.8,6.1-15.4c-0.7-2.7-2.4-4.5-4.9-4.9 c-3.5-0.6-7.1-1.1-10.7-0.9c-5.5,0.3-11,1.4-16.5,1.8c-17,1.1-32.9-2.3-46.9-12.3c-17.2-12.2-24.6-29.2-23-49.8 c1.1-14.3,7.5-26.7,17.4-37.1c3.8-4,8.4-7.1,12.7-10.6c0.3-0.2,0.7-0.4,1-0.6c6.7-2,12.3-5.9,17.9-9.8c0.9-0.7,2.1-1.1,3.2-1.4 c29.3-8.6,57.6-6.6,84.6,8C236.3,103.8,238.7,105.6,241.4,107.2z"></path> <path style="fill:#FFFFFF;" d="M760.7,277.6c-16.2,0.8-32,1.5-48,2.3c-0.3-3.7-0.6-6.9-1-10.6c-1.3,0.8-2.2,1.4-3.1,2 c-21.3,14.6-53.1,17.4-77.3-3c-11.5-9.7-19.1-21.9-22.4-36.6c-0.9-4.2-0.7-8.7-0.7-13.1c0-4.1,0.9-8.2,0.6-12.3 c-0.6-8.2,2.1-15.5,5.7-22.6c2.9-5.6,6.4-11,11.1-15.3c10.6-9.9,22.9-16.6,37.4-18.9c9.4-1.5,18.8-1.5,27.9,1.5 c3.3,1.1,6.4,2.8,9.5,4.2c1.4,0.6,2.7,1.3,4.4,2.2c0-3.3,0-6.1,0-9.1c14.4-0.7,28.7-1.4,43.4-2.2c1.5,10.9,2.2,21.9,3.3,32.8 c1.1,10.9,2.1,21.8,3.2,32.7c1.1,11,2.1,22.1,3.1,33.1C758.6,255.4,759.6,266.3,760.7,277.6z M705.5,213.3 c0.2-11.6-7.6-21.7-18.4-23.5c-12-2-21.9,2.2-29.1,12c-6,8.1-5.9,18-0.1,26.4c1.6,2.3,3.6,4.4,5.6,6.4c5.5,5.5,12.2,7.4,19.8,6.3 c5.4-0.8,9.9-3.4,13.6-7.4C702.2,227.7,705.3,221.1,705.5,213.3z"></path> <path style="fill:#FFFFFF;" d="M373.2,162.2c17,0,33.2,0,49.7,0c0,43.1,0,86.1,0,129.5c-16.7,0-33.4,0-50.7,0c0-3.2,0-6.5,0-10 c-0.9,0.3-1.3,0.3-1.6,0.6c-11.8,10-25.6,13.4-40.7,12.8c-9.1-0.3-17.9-2.1-26-6.7c-10.7-6.1-17.3-15.6-21.1-27.2 c-2.8-8.5-4-17.4-4-26.3c0-16.5,0.2-33,0.4-49.5c0-5.7,0-11.3,0-16.9c1.2-0.4,1.9-0.6,2.8-0.9c-0.8-0.3-1.5-0.6-2.1-0.9 c0-1.6,0-3.1,0-4.8c16.4,0,32.5,0,49,0c0.1,2.8,0.3,5.3,0.3,7.9c0,19.1,0,38.2-0.1,57.3c0,6.4,1.9,11.9,6.7,16.3 c0.2,0.2,0.3,0.4,0.5,0.6c6.1,4.9,20.5,5.3,26.8-0.7c6.4-6.2,9.3-13.8,9.4-22.6c0.1-6.2,0.1-12.4,0.1-18.6c0-11.7,0-23.5,0-35.2 C372.5,165.3,372.9,163.9,373.2,162.2z"></path> <path style="fill:#FFFFFF;" d="M881.4,210.1c-0.7-0.7-1-0.9-1.3-1.2c-7.1-10.2-20.3-11.9-30.3-8.9c-6,1.8-10.2,5.9-13.2,11.3 c-4.1,7.2-6.2,15.1-7.2,23.1c-1.5,12.2-2.6,24.4-3.9,36.5c-0.4,3.4-0.8,6.9-1.2,10.7c-16.6-1.2-32.8-2.4-49.5-3.6 c0.4-4.7,0.8-8.9,1.2-13.1c2-19.6,4-39.3,5.9-58.9c1.3-12.8,2.6-25.7,3.8-38.5c0.1-1.2-0.1-2.6-0.4-3.8c-0.8-3.2-0.8-6.3,1.4-8.8 c1.8-2,0.3-4.3,1.3-6.8c16.4,0.8,32.8,3.3,49.7,4.5c-0.3,3.4-0.6,6.5-0.9,9.9c5-2,9.4-4.1,14-5.5c16.3-4.9,31.4-2.8,44.5,8.6 c1.9,1.7,3.7,3.5,5.5,5.5c2.4,2.7,2.4,3.2,0.4,6.4c-5.9,9.7-11.8,19.4-17.8,29C883,207.7,882.3,208.7,881.4,210.1z"></path> <path style="fill:#FFFFFF;" d="M562.2,684.7c12.8,0.5,25.2,2.2,37,7.4c18.3,8,31,21.3,38.9,39.5c4.9,11.3,6.9,23.2,7,35.4 c0.2,17.2-2.2,33.9-9.2,49.8c-10.3,23.3-26.6,40.3-51.6,47.7c-9.9,2.9-20.1,3.2-30.3,2.6c-13-0.8-25.1-4.4-36.3-11 c-8.8-5.1-16-12.1-22.2-20.1c-10-12.9-15.2-27.7-17.5-43.6c-1.9-13.2-2.3-26.4-0.1-39.6c5.7-34.2,29.2-59.5,64.4-65.9 C548.8,685.7,555.5,685.4,562.2,684.7z M532.2,793c0.2,6.7,1.6,13.2,3.4,19.5c2.1,7.6,6.1,14.1,12.3,19.2c6.3,5.1,16.1,5.5,22.9,1.3 c5.1-3.2,9-7.8,11.4-13.3c5.9-14,7.4-28.3,3.2-43c-2.3-7.8-7.4-13.1-15.6-15.1c-6.3-1.6-12.4-1.4-18.7,0.2 c-8.9,2.2-14.5,7.7-16.5,16.5C533.4,783.1,532.9,788.1,532.2,793z"></path> <path style="fill:#FFFFFF;" d="M764.3,867.7c-15,0-29.2-3.2-42.3-10.6c-16.1-9.1-27.1-22.7-34.1-39.7c-5-12-7.4-24.6-8-37.6 c-0.5-9.4-0.5-18.8,1.3-28.1c6.3-32.3,24.9-53.7,56.7-63.1c12.4-3.6,25.1-3.9,38-2.9c7.5,0.6,14.8,2,21.9,4.6 c22.7,8.3,37.6,24.2,45.6,46.9c3.5,9.8,4.7,20,4.8,30.4c0.2,16.6-2.3,32.6-8.7,47.9c-5.7,13.7-13.7,25.7-25.2,35.1 c-10.7,8.8-22.9,14.2-36.7,15.9C773.1,867.1,768.7,867.3,764.3,867.7z M790.7,792.3c0.3-4.8-0.7-10.4-2.3-15.8 c-2.4-7.9-7.6-13-15.7-15c-6.1-1.6-12.2-1.2-18.3,0.2c-9.3,2.1-14.7,8-17,17c-2.2,8.6-2.2,17.3-0.6,26.1c1.5,8.3,4,16.3,9.6,22.9 c7.9,9.1,20.4,10.8,29.8,3.7c5.2-3.9,8.4-9.1,10.5-15C789.4,808.9,790.8,801.2,790.7,792.3z"></path> <path style="fill:#FFFFFF;" d="M358,867.7c-14.7-0.1-28.7-3.2-41.6-10.3c-16.3-9-27.2-22.5-34.4-39.4c-5.1-12-7.4-24.6-8.3-37.5 c-0.7-10.6-0.4-21.2,1.9-31.5c7.5-34.4,32-56.7,65.5-62.1c13.1-2.1,26.3-2.2,39.2,0.6c26.9,5.8,45.7,21.5,55.8,47.4 c3.7,9.6,5.4,19.6,5.7,29.8c0.3,12-0.5,24-3.5,35.6c-4,15.3-10.4,29.4-21,41.4c-12.4,14.1-27.8,22.8-46.6,25.1 C366.5,867.1,362.2,867.3,358,867.7z M384.5,792.6c0.3-5.1-0.6-10.6-2.2-15.9c-2.4-7.8-7.4-13.1-15.5-15.2 c-6.4-1.7-12.7-1.4-19.1,0.2c-8.8,2.2-14,7.6-16.4,16.2c-2.1,7.7-2.5,15.5-1.4,23.3c1.3,9.4,3.7,18.4,9.9,26 c7.7,9.5,20.6,11.3,30.3,4c5.1-3.8,8.3-9.1,10.4-15C383.2,808.7,384.7,801,384.5,792.6z"></path> <path style="fill:#FFFFFF;" d="M449,786.2c1.8,24.3-1.9,47.5-13.1,69.4c-5.6,11-13,20.8-22.6,28.7c-14.1,11.7-30.3,17.8-48.6,18.8 c-17.6,1-34.5-1.6-50.3-9.8c-19.4-10.1-32.4-26-40.4-46.1c-5.6-14.1-8-28.8-8.3-43.9c-0.1-4.9,0.1-9.7,0.2-14.6c0.3,0,0.5,0,0.8-0.1 c0.6,3.5,1.2,7.1,1.9,10.6c3.5,17.2,10.2,33,21.8,46.4c13.5,15.6,30.7,24.5,50.8,27.9c15,2.5,29.8,1.9,44.4-2.7 c20.1-6.4,35.1-19.2,46.1-36.9c8.3-13.3,13.1-28,15.7-43.4c0.2-1.4,0.5-2.8,0.7-4.1C448.5,786.3,448.8,786.3,449,786.2z"></path> <path style="fill:#FFFFFF;" d="M855.1,786.3c0.2,1.5,0.5,3,0.6,4.5c0.8,21.6-2.6,42.5-12.1,62c-10.8,22.3-27.1,39.2-51.3,46.3 c-29.8,8.7-58.3,5.1-83.8-13.7c-15-11.1-24.4-26.4-30.2-44c-3.9-11.8-5.9-24-6.2-36.5c-0.1-5.4,0-10.7,0-16.1c0.3,0,0.6-0.1,0.9-0.1 c0.2,1.2,0.5,2.4,0.7,3.6c2.6,16.8,7.8,32.6,17.8,46.5c13.8,19.4,32.7,30.7,56.1,34.6c16.6,2.8,32.9,1.8,48.7-4.2 c18.1-6.8,31.7-19,41.8-35.3c8.8-14.2,13.8-29.9,16.1-46.4c0.1-0.4,0.1-0.7,0.2-1.1C854.6,786.3,854.8,786.3,855.1,786.3z"></path> <path style="fill:#FFFFFF;" d="M652.3,786.2c0.1,4.8,0.4,9.7,0.3,14.5c-0.5,18.4-4.2,36.1-12.4,52.7c-11.5,23.2-28.7,40.2-54.2,46.7 c-27.6,7-54.1,3.7-78-12.8c-15.5-10.7-25.6-25.6-31.8-43.2c-6.4-17.9-8.2-36.4-6.8-55.3c0-0.2,0.1-0.4,0.4-1.3 c0.7,3.9,1.2,7.1,1.8,10.4c3.3,16.9,9.5,32.4,20.5,45.8c13.7,16.7,31.5,26.3,52.7,29.8c17,2.8,33.7,1.7,49.8-4.7 c19.1-7.7,33-21.2,42.9-39.1c6.7-12.1,10.9-25,13.1-38.6c0.3-1.6,0.6-3.3,0.9-4.9C651.7,786.1,652,786.1,652.3,786.2z"></path> <path style="fill:#FFFFFF;" d="M156,691.3c26.5-1.2,52.3-1.2,78.7,1c0.1,2.4,0.2,4.6,0.1,6.9c-0.3,10.3-0.7,20.6-1.1,30.9 c-0.5,16.6-1,33.2-1.5,49.8c-0.3,9.9-0.6,19.8-0.8,29.8c-0.3,14.6-0.5,29.1-0.8,43.7c-0.1,4.2-0.5,8.4-0.9,13 c-22,0.5-43.9,0.3-66-1.3c-0.5-6.4-1.1-12.4-1.5-18.4c-0.9-13.7-1.9-27.5-2.7-41.2c-0.5-8.5-0.8-17-1.2-25.5 c-0.5-11.7-1.1-23.4-1.5-35.1c-0.3-11.5-0.4-22.9-0.6-34.4c-0.1-4.9-0.2-9.8-0.2-14.7C156,694.5,156,693.2,156,691.3z"></path> <path style="fill:#FFFFFF;" d="M237.9,872.5c0,8.3,0.1,16.8,0,25.3c0,3.5-1.1,4.5-4.8,4.6c-9.5,0.2-19.1,0.5-28.6,0.3 c-13.4-0.3-26.8-0.9-40.2-1.5c-6-0.3-7.5-1.5-8.2-7.5c-0.7-6.5-1.1-13.1-1.5-19.7c-1.2-19.3-2.5-38.6-3.5-57.9 c-0.9-17.8-1.4-35.6-1.9-53.3c-0.3-8.5-0.3-17-0.5-25.5c0-1.2,0-2.4,0.4-3.7c0.4,11.1,0.7,22.1,1.3,33.2c1.3,25.4,2.8,50.7,4.3,76.1 c0.4,7.2,1,14.4,1.5,21.6c0.1,0.8,0.1,1.5,0.3,2.3c0.8,4,2.5,5.5,6.5,5.8c3.2,0.2,6.4,0.6,9.6,0.6c19.6,0.3,39.2,0.6,58.8,0.7 C233.6,874,235.8,873.1,237.9,872.5z"></path> <path style="fill:#FFFFFF;" d="M700.5,485.3c1.2-1.2,2-2.1,2.9-3c1.7-1.6,3.3-3.3,5.1-4.7c2.8-2.2,3.7-2,5.4,1.1 c1.5,2.8,2.8,5.8,4.4,9.1c0.9-1.5,0.5-2.8,0.5-4.1c0-35.6,0-71.2,0-106.9c0-1,0.1-2.1,0-3.1c-0.1-1.8,0.8-3,2.4-3.5 c2.2-0.7,4.5-1.4,6.7-1.6c7.2-0.5,14.4-0.9,21.6-0.9c11.3,0,22.7,0.4,33.9,2.4c1.9,0.3,3.7,1,5.8,1.5c0,1.7,0,3.1,0,4.5 c0,25.6,0.2,51.1-0.1,76.7c-0.2,16.5-0.9,33-1.6,49.5c-0.9,22.8-3.1,45.5-5.4,68.2c-0.4,3.7-0.7,4.1-4.2,4 c-16.5-0.5-33-0.9-49.5-1.6c-7.2-0.3-7.2-0.5-7.5-7.9c-0.6-13-1.3-26-2-39c-0.1-1.1-0.3-2.2-0.5-4c-4.4,4.9-8.4,9.5-12.6,14.2 c-3.7-3.4-4.1-8-7-12.4c-0.1,2.2-0.2,3.5-0.3,4.9c-0.8,12.5-1.5,25-2.3,37.4c-0.2,3.1-1.1,4.1-4.1,4.6c-2.1,0.4-4.3,0.6-6.5,0.7 c-11.7,0.1-23.5,0.1-35.2,0c-3.9,0-7.7-0.4-11.6-0.8c-4-0.5-4.6-1-4.7-5.1c-0.5-13.3-0.9-26.6-1.3-39.8c-0.6-17.8-1.1-35.6-1.7-53.4 c-0.2-7.1-0.5-14.2-0.8-21.3c-0.4-12.9-0.9-25.8-1.2-38.7c-0.2-11.7-0.1-23.5-0.1-35.2c0-2.5,0.7-3.7,3.5-4.3c4.8-1,9.6-2,14.5-2.1 c12.8-0.2,25.5,0.2,38.3,0.2c4.1,0,8.2-0.4,12.3-0.7c1-0.1,2.1,0,3.1-0.1c1.6-0.1,2.4,0.8,2.5,2.3c0.1,0.9,0.1,1.8,0.1,2.7 c-0.1,16-0.1,32-0.3,48c-0.1,9.9-0.4,19.9-0.8,29.8c-0.5,10.3-1.2,20.6-1.8,30.9C700.3,484.1,700.4,484.4,700.5,485.3z"></path> <path style="fill:#FFFFFF;" d="M260,553.3c0,5.3,0,10.5,0,15.8c0,3.7-0.6,4.7-4.2,5.3c-5.6,0.9-11.2,1.7-16.9,1.8 c-10.6,0.3-21.2,0.1-31.7,0.1c-1,0-2.1-0.1-3.1-0.2c-5.2-0.5-6.3-1-7.4-6.2c-1.4-7-2.5-14.2-3.2-21.4c-1.2-12.9-2.1-25.9-3-38.9 c-0.7-9.8-1.1-19.5-1.8-29.3c-0.6-9.4-1.3-18.7-1.9-28.1c-0.4-6.8-0.7-13.6-1.2-20.4c-0.5-8.1-1.4-16.1-1.8-24.2 c-0.5-9.3-0.7-18.5-1.1-27.8c-0.1-2.9,1.6-4.7,3.8-5.8c3.1-1.6,6.3-3,9.6-3.9c9.6-2.8,19.5-3.7,29.4-4.2c5.3-0.3,10.6-0.5,15.8-0.4 c16,0.4,31.5,3.1,46.1,10c24.6,11.6,41.1,30.2,48,56.7c2.3,8.8,2.6,17.8,2.4,26.9c-0.4,12.1-2.3,23.8-7.3,35 c-5.3,11.8-13.1,21.2-24.4,27.6c-0.7,0.4-1.3,0.8-2.3,1.4c2.2,3.3,4.1,6.5,6.4,9.6c7.5,10.4,14.5,21,20.4,32.4 c0.6,1.1,1.1,2.3,1.4,3.6c0.4,1.5-0.2,2.6-1.7,3.4c-12.2,6.6-24.6,12.6-37.9,16.4c-0.5,0.1-1,0.2-1.5,0.3c-4.1,1-5.8,0.3-7.7-3.7 c-4.1-9-9.4-17.2-15.7-24.8c-2.1-2.5-4.4-4.9-6.6-7.4C260.7,553,260.4,553.2,260,553.3z M260.2,515c2-0.3,3.8-0.5,5.5-1 c10.7-2.9,17.9-9.3,20.2-20.5c0.6-3,0.6-6.1,0.5-9.2c-0.2-13-13.8-21.9-26.2-16.9C260.2,483.1,260.2,498.9,260.2,515z"></path> <path style="fill:#FFFFFF;" d="M436.6,476.7c-0.2,17-0.4,34.8-0.6,52.6c0,2.2,0.3,4.4,0.7,6.5c0.6,3.4,3,5,6.3,5.3 c3.3,0.3,6.4-0.5,7.8-3.8c1.1-2.5,1.8-5.4,2-8.2c0.3-5.1,0.3-10.3,0.2-15.5c-0.3-30.6-0.6-61.1-0.9-91.7c0-1.9,0-3.9,0.2-5.8 c0.3-2.6,1.7-4.3,4.4-4.7c1.8-0.3,3.6-0.6,5.4-0.5c7.1,0.1,14.2,0,21.2,0.5c6.5,0.5,7.6,1.7,7.4,8.2c-0.2,12.1-0.7,24.2-1.1,36.4 c-0.6,20.5-1.4,41-1.9,61.5c-0.2,7.9-0.8,15.7-2.1,23.5c-3.6,21-17.1,33.1-36.4,37.3c-14.9,3.3-30,3.3-44.9,0 c-20.9-4.6-33.2-16.7-38-40.2c-1.2-5.9-1.6-12-1.7-18.1c-0.4-31.9-0.7-63.7-0.9-95.6c0-1.5,0-3.1,0.2-4.6c0.5-3.4,1.4-4.6,4.8-5.1 c5.7-0.9,11.5-2,17.2-2.2c13.8-0.3,27.6-0.1,41.4-0.1c1,0,2.1,0.1,3.1,0.2c5.7,0.7,6.9,1.9,6.9,7.6c0.1,9.9,0,19.9-0.1,29.8 C437.1,458.6,436.8,467.3,436.6,476.7z"></path> <path style="fill:#FFFFFF;" d="M603,470.9c-2,0-3.7-0.1-5.3,0c-3.2,0.1-6.5,0-9.6,0.6c-6,1.1-9.8,5.9-10.1,12 c-0.2,4.4,1,8.2,3.5,11.9c3.8,5.5,7.5,11.2,10.4,17.2c5.7,11.8,6.2,24.3,1.8,36.5c-4.5,12.7-14.2,20.6-26.6,25.3 c-9.4,3.6-19.2,5-29.1,5.4c-3.5,0.2-7,0.1-10.4,0c-3.7-0.1-4.8-0.9-5.7-4.5c-1.5-6-2.5-12.1-2.4-18.4c0.1-3.9,0.3-4,4.1-4.3 c4.2-0.3,8.4-0.9,12.6-1.5c1.6-0.3,3.2-1,4.7-1.6c7.5-3.1,8.8-9.3,6.1-15.9c-1.3-3.1-3.6-6-6-8.4c-3.9-3.9-8.3-7.4-12.4-11.1 c-10-9.2-18.4-19.6-21.9-33.1c-4-15.6-3.4-31,3.9-45.6c5.8-11.8,15.7-19.2,27.6-24.1c11.6-4.8,23.7-6.8,36.2-7.1c4.5-0.1,9,0,13.5,0 c0.9,0,1.8,0,2.7,0.2c3.5,0.6,4.5,1.4,5.1,4.8c1.2,6.7,2.5,13.4,3.3,20.2c1.4,11.6,2.5,23.3,3.7,35C603.2,466.3,603,468.4,603,470.9 z"></path> <path style="fill:#FFFFFF;" d="M613.8,526.4c-0.7-3.1-1.4-6-1.9-8.8c-0.2-1.2-0.2-1.2,1.5-2.5C614.5,518,614.7,521.4,613.8,526.4z"></path> <path style="fill:#FFFFFF;" d="M578.5,806.7c-2.3-4.8-5.5-8.4-10.8-9.7c-5-1.2-10-1-14.9,0.2c-5.2,1.2-8.9,4.4-10.8,9.7 c-0.3-0.2-0.6-0.3-0.8-0.5c-0.4-2.9-0.8-5.8-1.1-8.6c-0.5-5.9-0.2-11.8,1.2-17.7c1.6-6.4,5.6-10.3,12.1-11.6 c4.6-0.9,9.2-1.2,13.8-0.2c5,1.1,8.6,3.9,10.6,8.7c1.8,4.2,2.3,8.7,2.4,13.2C580.3,795.6,580.2,801.1,578.5,806.7z"></path> <path style="fill:#FFFFFF;" d="M781.2,806.9c-3.1-8.7-9.9-11-17.9-10.7c-7.8,0.2-14.9,2-18.8,10.3c-0.2-0.9-0.5-1.8-0.6-2.8 c-1.2-7.6-1.3-15.2,0.3-22.7c1.7-8,6.5-12.2,14.7-12.9c3.2-0.3,6.4-0.3,9.6,0c6.6,0.5,11.2,4.2,12.9,10.5c1.2,4.3,1.8,8.9,1.9,13.3 c0.1,4.8-0.5,9.7-0.9,14.6C782,806.6,781.6,806.7,781.2,806.9z"></path> <path style="fill:#FFFFFF;" d="M375.2,807.2c-3.2-9-10-11.3-18-11.1c-7.8,0.2-15,1.9-18.2,10.5c-0.2-0.1-0.5-0.2-0.7-0.2 c-0.4-2.8-1.1-5.7-1.2-8.5c0-5,0-10.1,0.6-15c1.2-9.6,6.2-14.1,15.8-14.9c3.2-0.3,6.4-0.3,9.6,0.1c5.4,0.6,9.5,3.5,11.5,8.6 c1.1,2.8,1.8,5.9,2.2,9c0.8,6.4,0.5,12.9-0.6,19.3C376.1,805.5,375.7,806,375.2,807.2z"></path> </svg> 