<?xml version="1.0" encoding="UTF-8"?> <svg xmlns="http://www.w3.org/2000/svg" xmlns:xlink="http://www.w3.org/1999/xlink" version="1.1" id="Layer_1" x="0px" y="0px" viewBox="0 0 1000 1000" style="enable-background:new 0 0 1000 1000;" xml:space="preserve"> <g> <path style="fill:#FDC440;" d="M549.2,564c4,29.1,11.6,56.3,22.8,83.4c-22.4-5.2-44.5-5.2-66.9,0c11.3-26.9,18.9-54.4,22.9-83.2 c-4,3.1-7.3,6.2-10.9,8.8c-45.9,33.1-110.8,6.6-119.6-49c-6.4-41,5.9-76.1,37.1-104c17.7-15.8,36-31.1,53.8-46.8 c15.7-14,30.7-28.6,42.6-46.2c2.7-4,5-8,7-11.4c5.5,7.9,10.6,16.5,16.8,24.2c11.4,14.4,25.1,26.8,39.1,38.6 c16.4,14.1,32.9,28.2,49.4,42.1c21.8,18.6,33.5,42.6,37.3,70.7c2.7,20,1,39.7-9.4,57.4c-16.2,27.5-41,40-72.8,38.2 c-18-1-33.5-8.6-46.7-20.8C551.1,565.5,550.5,565,549.2,564z"></path> <path style="fill:#FDC440;" d="M272.4,649.6c-5.2,0.7-10.4,1.3-16.1,2.1c0-1.4,0-2.6,0-3.6c0-158.6,0-317,0-475.5 c0-32.8,24.9-57.7,57.6-57.7c149.5,0,298.9,0,448.4,0c18,0,33.1,6.9,44.7,20.7c9.4,11.2,13.2,24.3,13.2,38.9c0,78,0,156.1,0,234.1 c0,53.5,0,10.9,0,64.5c0,2.4-0.7,4.1-2.6,5.7c-4.3,3.5-8.5,7.2-13.5,11.4c0-2.1,0-3.5,0-4.8c0-136.1,0-176.1,0-312.2 c0-19.3-11.4-35.3-29.3-40.5c-3.5-1-7.3-1.6-10.9-1.6c-150.5-0.1-301-0.1-451.7,0c-21.7,0-39.9,18.4-39.9,40.2 c0,158.1,0,316.2,0,474.3C272.4,646.4,272.4,647.8,272.4,649.6z"></path> <path style="fill:#FDC440;" d="M185.8,672.8c-2.7-9.8-5.2-19.2-7.8-28.8c-14.8-55.2-29.6-110.4-44.5-165.5 C121,432.2,108.7,386,96.4,339.7c-2.2-8.1-4.8-16.4-5.7-24.7c-3.3-27.6,14.3-53.2,41.3-60.5c30.7-8.4,61.5-16.5,92.3-24.8 c3.6-0.9,7-0.9,9.5,2.1c2,2.3,2.6,5.1,1.4,8c-1.2,2.9-3.4,4.3-6.4,5.1c-30.6,8.1-61.3,16.4-92,24.7c-22.2,5.9-35.3,27.8-29.5,50.1 c18.4,69.1,37,138.2,55.5,207.3c11.5,43.1,23,86.3,34.6,129.4c0.7,2.8,1.4,5.6,2.2,8.3c0.5,1.4,0.3,2.3-1.3,2.9 C194.6,669.1,190.4,671,185.8,672.8z"></path> <path style="fill:#FDC440;" d="M323.8,243.9c3.4,6.3,9.3,10.5,14.6,15.1c4,3.5,7.9,6.8,9.4,12.3c2,7.2,0.8,13.6-4,17.5 c-5.1,4.1-10.5,4.1-18.4-0.3c1.3,4.8,2.3,9.1,3.5,13.5c-3.6,0-7.1,0-10.9,0c1.2-4.4,2.3-8.7,3.6-13.6c-4.2,2.7-7.9,4.3-12.2,3.5 c-8.5-1.6-13.2-10.5-10.6-19.2c1.7-6.1,5.7-9.9,10.1-13.7c2.7-2.2,5.4-4.4,7.9-7C319.4,249.3,321.5,246.5,323.8,243.9z"></path> <path style="fill:#FDC440;" d="M194.6,427.8c-3.6,0.9-7,1.9-10.7,2.9c0-4.4,0-8.8,0-13.6c-2.4,1.7-4.2,3.6-6.4,4.5 c-9.7,4.2-19-2.1-19.8-13.2c-0.3-5,0.9-9.7,3.8-13.7c2.4-3.5,4.9-6.9,7.1-10.6c2.1-3.4,3.7-7.1,5.7-10.8 c6.5,6.3,15.5,8.8,23.5,13.4c6.4,3.5,9.7,9.2,10,16.3c0.6,8.8-8.3,15.7-17,13.5c-0.9-0.2-1.7-0.6-3.6-1.2 C190.1,420,192.3,423.8,194.6,427.8z"></path> <path style="fill:#FDC440;" d="M326.8,160.6c5.7,15.4,11.3,30.7,16.9,46c0.6,1.5,1.3,2.9,1.7,4.4c1.5,4.3,3.7,7.7,9,7.6 c0,1.4,0,2.4,0,3.6c-8.8,0-17.6,0-26.5,0c0-1,0-2.2,0-3.4c0.8-0.2,1.6-0.3,2.4-0.6c2.1-0.6,3-1.9,2.3-4.1 c-1.2-3.4-2.3-6.9-3.6-10.1c-0.2-0.7-1.5-1.4-2.3-1.4c-4.5-0.1-9.1-0.1-13.7,0c-0.9,0-2.2,1-2.6,1.9c-1.2,2.7-2.1,5.6-2.9,8.4 c-0.9,3.3-0.3,4.4,3.1,5.1c2.4,0.5,3.4,1.4,2.4,4.1c-6.8,0-13.6,0-20.6,0c0-1.2,0-2.1,0-3.6c6.5,0.3,8.3-4.4,10.1-9.2 c5.8-14.8,11.9-29.5,17.6-44.2C321.6,162,323.4,160.5,326.8,160.6z M312.9,197.2c4.8,0,9.1,0,13.9,0c-2.2-6.4-4.3-12.6-6.4-18.7 c-0.2,0-0.5,0-0.7,0C317.5,184.6,315.3,190.7,312.9,197.2z"></path> <path style="fill:#FDC440;" d="M166.8,290.1c0.3,1.3,0.6,2.2,0.8,3c-0.1,0.2-0.2,0.5-0.3,0.6c-5.8,2.8-5.9,3-4.4,9.2 c3.3,12.6,6.8,25.1,9.8,37.8c2.8,11.6-1.7,22.4-11.4,28.5c-0.6,0.3-1.3,0.7-2.1,1.2c-0.7-0.9-1.4-1.9-2.3-3 c7.3-5.4,6.2-12.7,4.4-19.8c-3.4-14-7.1-27.9-10.9-41.8c-1.5-5.6-2.4-5.9-9.5-5.1c-0.2-1-0.6-2.1-0.9-3.3 C148.9,294.9,157.7,292.5,166.8,290.1z"></path> <g> <path style="fill:#FDC440;" d="M208.5,762.8h-18.7v-27.9h-8.9v27.9h-18.7v-69.4h18.7V718h8.9v-24.5h18.7V762.8z"></path> <path style="fill:#FDC440;" d="M269.2,728.3c0,10.6-2.4,19.2-7.2,25.8c-4.8,6.6-11,9.9-18.7,9.9c-6.8,0-12.7-2.5-17.6-7.6 c-6.1-6.4-9.2-16-9.2-28.8c0-12.3,3.2-21.7,9.6-28.2c4.8-4.8,10.4-7.2,16.9-7.2c8,0,14.4,3.3,19.1,9.8 C266.8,708.5,269.2,717.3,269.2,728.3z M249.7,728.5c0-12.6-2.2-18.8-6.6-18.8c-2.2,0-4,1.6-5.3,4.9c-1.3,3.1-1.9,7.5-1.9,13.5 c0,5.8,0.6,10.4,1.8,13.6c1.2,3.2,2.9,4.8,5.1,4.8c2.2,0,3.9-1.6,5.1-4.8C249.1,738.6,249.7,734.1,249.7,728.5z"></path> <path style="fill:#FDC440;" d="M310,762.8h-32.8v-69.4h18.7v52.7H310V762.8z"></path> <path style="fill:#FDC440;" d="M335.5,678.5c0,2.8-1,5.3-3.1,7.4c-2.1,2-4.6,3.1-7.4,3.1c-2.9,0-5.4-1-7.5-3.1 c-2-2.1-3.1-4.6-3.1-7.5c0-2.9,1-5.4,3.1-7.4c2.1-2,4.6-3.1,7.4-3.1c3,0,5.5,1,7.5,3.1C334.5,673,335.5,675.5,335.5,678.5z M334.3,762.8h-18.7v-69.4h18.7V762.8z"></path> <path style="fill:#FDC440;" d="M368.1,722.7h26.1v2.9c0,13.4-2,23-6,28.8c-4.3,6.4-10.8,9.6-19.3,9.6c-8.4,0-14.9-3.1-19.7-9.4 c-4.7-6.4-7.1-15.1-7.1-26.1c0-11.2,2.4-20.1,7.1-26.6c4.8-6.5,11.3-9.7,19.5-9.7c11,0,18.9,5.7,23.9,17.2l-18.2,6.7 c-0.3-2.2-0.9-3.9-1.9-5.2c-1-1.3-2.2-1.9-3.7-1.9c-5.2,0-7.7,7.1-7.7,21.3c0,6,0.6,10.4,1.7,13.1c1.1,2.7,2.9,4.1,5.4,4.1 c1,0,1.9-0.2,2.7-0.7c0.8-0.5,1.5-1.2,2-2c0.6-0.9,1-1.9,1.3-3.2c0.3-1.2,0.5-2.6,0.5-4.2h-6.9V722.7z"></path> <path style="fill:#FDC440;" d="M450.7,762.8h-19.4L430,754h-12.6l-1.5,8.8h-19.4l16.7-69.4H436L450.7,762.8z M427.8,739.1 l-1.2-8.1c0,0-0.1-0.4-0.2-1.2c-0.1-0.7-0.4-3.3-0.9-7.8c-0.1-0.5-0.1-1.2-0.2-2.1c-0.1-0.9-0.2-2-0.4-3.3l-0.6-6.6 c-0.1,0.6-0.1,1.3-0.2,2.1c-0.1,0.8-0.2,1.6-0.3,2.6c-0.2,1.9-0.4,3.1-0.4,3.9c-0.1,0.7-0.2,1.2-0.2,1.3l-1.3,8.4l-1.9,10.9H427.8 z"></path> <path style="fill:#FDC440;" d="M456.2,762.8v-69.4h17.9l9.4,24.4c0.5,1.4,1.1,3.1,1.7,4.9c0.6,1.9,1.4,4,2.1,6.4l1.9,6.1 c-0.7-6-1.2-11.2-1.6-15.5c-0.4-4.3-0.5-7.9-0.5-10.8v-15.6H505v69.4h-17.9l-9.4-25.5c-1-2.7-1.9-5.3-2.7-7.7 c-0.8-2.4-1.5-4.7-2.1-6.8c0.4,4.9,0.7,9.1,0.9,12.8c0.2,3.6,0.3,6.8,0.3,9.5v17.7H456.2z"></path> <path style="fill:#FDC440;" d="M514.7,762.8v-69.4h21.8c8.1,0,14.2,1.8,18.1,5.4c4,3.7,6,8.4,6,14.3c0,8.7-4.3,13.4-12.9,14.1 c4.9,0.7,8.5,2.3,10.8,4.9s3.4,6.1,3.4,10.9c0,6-1.9,10.8-5.8,14.4c-3.8,3.7-8.9,5.5-15.1,5.5H514.7z M533.5,720.4h1.3 c2.2,0,4-0.5,5.3-1.6c1.3-1,2-2.5,2-4.4c0-4-2.2-6-6.6-6c-0.2,0-0.5,0-0.8,0c-0.3,0-0.7,0-1.1,0.1V720.4z M533.5,747.8 c0.4,0,0.7,0.1,0.9,0.1c0.3,0,0.5,0,0.7,0c2.3,0,4.2-0.6,5.6-1.8s2.1-2.9,2.1-4.9c0-2.1-0.7-3.7-2.1-4.9s-3.3-1.8-5.7-1.8h-1.5 V747.8z"></path> <path style="fill:#FDC440;" d="M569.9,762.8v-69.4h34.8v16.3h-16.1v10.1h14.4v15.7h-14.4v10.6h16.1v16.7H569.9z"></path> <path style="fill:#FDC440;" d="M636.9,762.8h-18.7v-52.7h-10.3v-16.6h39.8v16.6h-10.7V762.8z"></path> <path style="fill:#FDC440;" d="M162.1,845.8v-69.4h21.8c8.1,0,14.2,1.8,18.1,5.4c4,3.7,6,8.4,6,14.3c0,8.7-4.3,13.4-12.9,14.1 c4.9,0.7,8.5,2.3,10.8,4.9s3.4,6.1,3.4,10.9c0,6-1.9,10.8-5.8,14.4c-3.8,3.7-8.9,5.5-15.1,5.5H162.1z M180.8,803.4h1.3 c2.2,0,4-0.5,5.3-1.6c1.3-1,2-2.5,2-4.4c0-4-2.2-6-6.6-6c-0.2,0-0.5,0-0.8,0c-0.3,0-0.7,0-1.1,0.1V803.4z M180.8,830.8 c0.4,0,0.7,0.1,0.9,0.1c0.3,0,0.5,0,0.7,0c2.3,0,4.2-0.6,5.6-1.8c1.4-1.2,2.1-2.9,2.1-4.9c0-2.1-0.7-3.7-2.1-4.9 c-1.4-1.2-3.3-1.8-5.7-1.8h-1.5V830.8z"></path> <path style="fill:#FDC440;" d="M250,845.8h-32.8v-69.4H236v52.7H250V845.8z"></path> <path style="fill:#FDC440;" d="M308,845.8h-19.4l-1.4-8.8h-12.6l-1.5,8.8h-19.4l16.7-69.4h22.9L308,845.8z M285.1,822.1l-1.2-8.1 c0,0-0.1-0.4-0.2-1.2c-0.1-0.7-0.4-3.3-0.9-7.8c-0.1-0.5-0.1-1.2-0.2-2.1c-0.1-0.9-0.2-2-0.4-3.3l-0.6-6.6 c-0.1,0.6-0.1,1.3-0.2,2.1c-0.1,0.8-0.2,1.6-0.3,2.6c-0.2,1.9-0.4,3.1-0.4,3.9c-0.1,0.7-0.2,1.2-0.2,1.3l-1.3,8.4l-1.9,10.9H285.1 z"></path> <path style="fill:#FDC440;" d="M352.5,824.5l-1.1,20c-4.2,1.7-7.9,2.5-11.2,2.5c-7.8,0-14.3-2.8-19.6-8.5 c-5.9-6.4-8.9-15.4-8.9-27.1c0-10.9,2.8-19.7,8.4-26.3c5.6-6.6,13-9.9,22.3-9.9c3,0,6.1,0.6,9.3,1.7v19.8 c-2.8-2.8-5.6-4.2-8.6-4.2c-3.8,0-6.8,1.6-9,4.9c-2.2,3.3-3.2,7.8-3.2,13.7c0,2.8,0.3,5.3,0.8,7.5c0.5,2.2,1.3,4.1,2.3,5.6 c1,1.5,2.2,2.7,3.7,3.5c1.5,0.8,3.1,1.2,5,1.2C346,829,349.2,827.5,352.5,824.5z"></path> <path style="fill:#FDC440;" d="M412.3,845.8h-20.2l-12.4-32l0.5,32h-18.7v-69.4h18.7l-0.5,29.7l11.1-29.7h19.8l-15,33.5 L412.3,845.8z"></path> <path style="fill:#FDC440;" d="M412.8,844.8v-19.4c2.1,2.8,4.6,4.1,7.5,4.1c3.8,0,5.8-2.9,5.8-8.6v-44.4h18.7v48.2 c0,4.1-0.4,7.4-1.1,9.8c-0.7,2.4-1.9,4.7-3.6,6.7c-3.4,3.9-8.4,5.9-15.1,5.9C421.5,847,417.5,846.3,412.8,844.8z"></path> <path style="fill:#FDC440;" d="M503.8,845.8h-19.4L483,837h-12.6l-1.5,8.8h-19.4l16.7-69.4h22.9L503.8,845.8z M480.8,822.1 l-1.2-8.1c0,0-0.1-0.4-0.2-1.2c-0.1-0.7-0.4-3.3-0.9-7.8c-0.1-0.5-0.1-1.2-0.2-2.1c-0.1-0.9-0.2-2-0.4-3.3l-0.6-6.6 c-0.1,0.6-0.1,1.3-0.2,2.1c-0.1,0.8-0.2,1.6-0.3,2.6c-0.2,1.9-0.4,3.1-0.4,3.9c-0.1,0.7-0.2,1.2-0.2,1.3l-1.3,8.4l-1.9,10.9H480.8 z"></path> <path style="fill:#FDC440;" d="M548.2,824.5l-1.1,20c-4.2,1.7-7.9,2.5-11.2,2.5c-7.8,0-14.3-2.8-19.6-8.5 c-5.9-6.4-8.9-15.4-8.9-27.1c0-10.9,2.8-19.7,8.4-26.3c5.6-6.6,13-9.9,22.3-9.9c3,0,6.1,0.6,9.3,1.7v19.8 c-2.8-2.8-5.6-4.2-8.6-4.2c-3.8,0-6.8,1.6-9,4.9c-2.2,3.3-3.2,7.8-3.2,13.7c0,2.8,0.3,5.3,0.8,7.5c0.5,2.2,1.3,4.1,2.3,5.6 c1,1.5,2.2,2.7,3.7,3.5c1.5,0.8,3.1,1.2,5,1.2C541.7,829,544.9,827.5,548.2,824.5z"></path> <path style="fill:#FDC440;" d="M608,845.8h-20.2l-12.4-32l0.5,32h-18.7v-69.4h18.7l-0.5,29.7l11.1-29.7h19.8l-15,33.5L608,845.8z"></path> </g> <g> <path style="fill:#FDC440;" d="M674.7,726.5c17.3-17.3,41.6-31,72.9-41.1v-2.7c-12.2-12.7-21-23.8-26.4-33.1 c-9.7-16.3-14.5-33.8-14.5-52.5c0-27.7,9.8-51.4,29.5-71.1c19.7-19.8,44.9-29.6,75.8-29.6c26.6,0,49.4,6.7,68.6,20.1 c19.1,13.4,28.7,33.5,28.7,60.5c0,22.5-9,41.4-26.9,56.8c-10.2,8.8-27.5,18.6-51.7,29.4v2.4c13.6,14.9,23.7,27.9,30.2,39.1 c11.5,19.8,17.2,40.1,17.2,61.1c0,32.1-11.2,59.4-33.7,81.6c-22.5,22.3-52.8,33.4-91,33.4c-28.9,0-53.6-8.2-73.9-24.6 c-20.4-16.4-30.6-38.5-30.6-66.1C648.7,765,657.4,743.9,674.7,726.5z M800.2,842.1c10.3-14.3,15.5-30.2,15.5-47.8 c0-16.5-3.1-30.2-9.3-40.9c-6.2-10.8-20.9-29.8-44-57.1c-17.4,11.1-30.5,22.5-39.3,34.2c-14,18.5-21,40.6-21,66.3 c0,22.5,5.2,39.2,15.6,50.2c10.4,11,22.9,16.6,37.4,16.6C774.9,863.5,789.9,856.4,800.2,842.1z M845.9,619.4 c7.7-14.5,11.6-29.6,11.6-45.3c0-20.5-4.3-35.6-12.9-45.4c-8.6-9.8-18.7-14.7-30.2-14.7c-14,0-25.3,5.1-33.8,15.2 c-8.5,10.1-12.8,22.7-12.8,37.6c0,15.4,4.6,29.9,13.7,43.4c5.7,8.6,17.9,22.2,36.4,40.7C828.8,642.9,838.2,632.4,845.9,619.4z"></path> </g> </g> </svg> 