<?xml version="1.0" encoding="UTF-8"?> <!-- Generator: Adobe Illustrator 19.2.0, SVG Export Plug-In . SVG Version: 6.00 Build 0) --> <svg xmlns="http://www.w3.org/2000/svg" xmlns:xlink="http://www.w3.org/1999/xlink" version="1.1" id="Layer_1" x="0px" y="0px" viewBox="0 0 500 500" style="enable-background:new 0 0 500 500;" xml:space="preserve"> <style type="text/css"> .st0{fill:#FFFFFF;} </style> <g> <g> <g> <path class="st0" d="M126,132c-16-16-84-20-106-22c-2,0-4,0-6,2c-2,2-4,6-4,8v180c0,6,4,10,10,10h60c4,0,8-2,10-6 c0-6,36-112,40-164C130,138,130,134,126,132z"></path> </g> </g> <g> <g> <path class="st0" d="M340,180c-20-6-38-14-54-20c-36-16-52-8-84,24c-14,14-24,34-22,42c0,2,0,2,4,4c10,4,24,6,38-16c2-2,4-4,8-4 c6,0,8-2,14-4c4-2,8-4,14-6c2,0,2,0,4,0c2,0,6,2,8,2c10,10,28,24,46,40c28,22,56,46,70,64h2C374,266,350,198,340,180z"></path> </g> </g> <g> <g> <path class="st0" d="M480,130c-78,0-122,20-124,20c-2,2-4,4-6,6c0,2,0,6,2,8c12,20,52,130,58,158c2,4,6,8,10,8h60c6,0,10-4,10-10 V140C490,134,486,130,480,130z"></path> </g> </g> <g> <g> <path class="st0" d="M372,326c-8-18-42-44-72-68c-16-14-32-26-44-36c-2,2-6,2-6,4c-6,2-8,4-16,4c-16,20-36,28-58,20 c-10-2-16-10-18-18c-4-20,14-48,28-62h-40c-8,40-22,92-32,120c8,8,16,18,22,22c38,32,82,64,90,70c6,4,18,8,24,8c2,0,4,0,6,0 l-32-32c-4-4-4-10,0-14c4-4,10-4,14,0l40,40c4,4,8,2,12,2c6-2,8-6,10-12l-46-46c-4-4-4-10,0-14s10-4,14,0l50,50c2,2,10,2,16,0 c2-2,6-4,8-8l-56-56c-4-4-4-10,0-14s10-4,14,0l58,58c4,2,8,0,12-2C372,340,376,334,372,326z"></path> </g> </g> </g> </svg> 