<?xml version="1.0" encoding="UTF-8"?> <!-- Generator: Adobe Illustrator 24.3.0, SVG Export Plug-In . SVG Version: 6.00 Build 0) --> <svg xmlns="http://www.w3.org/2000/svg" xmlns:xlink="http://www.w3.org/1999/xlink" version="1.1" id="Layer_1" x="0px" y="0px" viewBox="0 0 500 500" style="enable-background:new 0 0 500 500;" xml:space="preserve"> <g> <path style="fill:none;stroke:#FFFFFF;stroke-width:14.3937;stroke-linecap:round;stroke-linejoin:round;stroke-miterlimit:10;" d=" M421.8,390.1H90c-15.7,0-28.7-12.9-28.7-28.7V173.8c0-15.7,12.9-28.7,28.7-28.7h330.9c15.7,0,28.7,12.9,28.7,28.7v186.7 C450.4,377.2,437.5,390.1,421.8,390.1z"></path> <path style="fill:none;stroke:#FFFFFF;stroke-width:14.3937;stroke-linecap:round;stroke-linejoin:round;stroke-miterlimit:10;" d=" M61.3,319.9l-20.3-36c-8.3-13.9-2.8-31.4,10.2-39.7l10.2-5.5"></path> <path style="fill:none;stroke:#FFFFFF;stroke-width:14.3937;stroke-linecap:round;stroke-linejoin:round;stroke-miterlimit:10;" d=" M288.7,390.1l-114.6,66.5c-13.9,8.3-31.4,2.8-39.7-10.2L102,391"></path> <path style="fill:none;stroke:#FFFFFF;stroke-width:14.3937;stroke-linecap:round;stroke-linejoin:round;stroke-miterlimit:10;" d=" M451.4,217.3l19.4,34.2c8.3,13.9,2.8,31.4-10.2,39.7l-10.2,5.5"></path> <path style="fill:none;stroke:#FFFFFF;stroke-width:14.3937;stroke-linecap:round;stroke-linejoin:round;stroke-miterlimit:10;" d=" M223.1,145.2l114.6-66.5c13.9-8.3,31.4-2.8,39.7,10.2l32.3,55.5"></path> <path style="fill:none;stroke:#FFFFFF;stroke-width:14.3937;stroke-linecap:round;stroke-linejoin:round;stroke-miterlimit:10;" d=" M220.3,346.7H104.8v-14.8c0-31.4,25.9-57.3,57.3-57.3l0,0c31.4,0,57.3,25.9,57.3,57.3v14.8H220.3z"></path> <circle style="fill:none;stroke:#FFFFFF;stroke-width:14.3937;stroke-linecap:round;stroke-linejoin:round;stroke-miterlimit:10;" cx="162.1" cy="223.7" r="36"></circle> <line style="fill:none;stroke:#FFFFFF;stroke-width:14.3937;stroke-linecap:round;stroke-linejoin:round;stroke-miterlimit:10;" x1="262.8" y1="188.6" x2="349.7" y2="188.6"></line> <line style="fill:none;stroke:#FFFFFF;stroke-width:14.3937;stroke-linecap:round;stroke-linejoin:round;stroke-miterlimit:10;" x1="262.8" y1="231.1" x2="349.7" y2="231.1"></line> <line style="fill:none;stroke:#FFFFFF;stroke-width:14.3937;stroke-linecap:round;stroke-linejoin:round;stroke-miterlimit:10;" x1="262.8" y1="274.6" x2="407" y2="274.6"></line> <line style="fill:none;stroke:#FFFFFF;stroke-width:14.3937;stroke-linecap:round;stroke-linejoin:round;stroke-miterlimit:10;" x1="262.8" y1="318" x2="407" y2="318"></line> <line style="fill:none;stroke:#FFFFFF;stroke-width:14.3937;stroke-linecap:round;stroke-linejoin:round;stroke-miterlimit:10;" x1="349.7" y1="346.7" x2="407" y2="346.7"></line> </g> </svg> 