<?xml version="1.0" encoding="UTF-8"?> <!-- Generator: Adobe Illustrator 24.3.0, SVG Export Plug-In . SVG Version: 6.00 Build 0) --> <svg xmlns="http://www.w3.org/2000/svg" xmlns:xlink="http://www.w3.org/1999/xlink" version="1.1" id="Layer_1" x="0px" y="0px" viewBox="0 0 500 500" style="enable-background:new 0 0 500 500;" xml:space="preserve"> <path style="fill:none;stroke:#FFFFFF;stroke-width:7.8125;stroke-miterlimit:10;" d="M366.4,311.8c-1.6-3.9-5.5-8.6-10.2-10.2 c-11.7-3.9-58.6-17.2-58.6-17.2s-12.5-3.9-20.3,3.9l-17.2,16.4l0,0c-0.8,0.8-6.2,4.7-13.3,1.6c-4.7-2.3-25-18.8-45.3-39.1 c-18-19.5-32-37.5-33.6-42.2c-3.1-7,1.6-13.3,1.6-13.3l0,0l17.2-17.2c7.8-7.8,4.7-20.3,4.7-20.3s-12.5-46.9-16.4-58.6 c-1.6-5.5-6.2-8.6-10.2-10.9c-3.9-1.6-8.6-2.3-12.5-2.3h-7.8c-7.8,0-12.5,2.3-12.5,2.3c-1.6,0.8-28.1,15.6-34.4,32 c-7.8,18.8-7,33.6-7,33.6c0,34.4,14.8,64.8,14.8,64.8c16.4,32,38.3,57.8,58.6,78.1c18.8,19.5,43,39.1,71.1,53.9 c0,0,30.5,15.6,64.1,16.4c0,0,14.8,0.8,32-4.7c16.4-5.5,32-32,32.8-33.6c0,0,3.1-4.7,3.1-12.5v-7.8 C368.8,320.4,368,316.5,366.4,311.8z"></path> <path style="fill:#FFFFFF;" d="M443,223.5c0,5.5-4.7,10.2-10.2,10.2H323.5v28.1c0,8.6-10.2,14.1-17.2,8.6l-73.4-57 c-5.5-3.9-5.5-12.5,0-17.2l73.4-57c7-5.5,17.2-0.8,17.2,8.6v28.1h109.4c5.5,0,10.2,4.7,10.2,10.2V223.5z"></path> </svg> 