<?xml version="1.0" encoding="UTF-8"?> <!-- Generator: Adobe Illustrator 24.3.0, SVG Export Plug-In . SVG Version: 6.00 Build 0) --> <svg xmlns="http://www.w3.org/2000/svg" xmlns:xlink="http://www.w3.org/1999/xlink" version="1.1" id="Layer_1" x="0px" y="0px" viewBox="0 0 500 500" style="enable-background:new 0 0 500 500;" xml:space="preserve"> <g> <path style="fill:#FFFFFF;" d="M140.4,126.8l-9,106.2h9.6c0.6-24,10.2-38.4,32.4-38.4c16.2,0,32.4,6,48.6,10.2 c10.2,2.4,20.4,4.2,30.6,4.2c21.6,0,41.4-5.4,60-17.4l2.4,3.6c-46.8,67.8-124.2,84.6-124.2,150.6c0,31.2,24,52.2,62.4,52.2 c42,0,52.8-33,55.8-52.8c8.4-55.2-10.8-105,67.2-217.8h-10.8c-9,18.6-32.4,19.2-40.2,19.2c-16.2,0-29.4-4.2-45.6-9 c-16.2-4.8-32.4-10.2-52.8-10.2c-13.8,0-32.4,1.2-48.6,12c-8.4,6-15.6,13.2-21,13.2c-6.6,0-7.2-7.2-7.2-13.8 c0-3.6,0.6-8.4,1.2-11.4h-10.8V126.8z"></path> </g> </svg> 