<?xml version="1.0" encoding="UTF-8"?> <!-- Generator: Adobe Illustrator 24.1.2, SVG Export Plug-In . SVG Version: 6.00 Build 0) --> <svg xmlns="http://www.w3.org/2000/svg" xmlns:xlink="http://www.w3.org/1999/xlink" version="1.1" id="Layer_1" x="0px" y="0px" viewBox="0 0 200 200" style="enable-background:new 0 0 200 200;" xml:space="preserve"> <polygon style="fill:#13333F;" points="120.8,39.06 120.8,39.06 120.79,39.06 120.8,39.06 120.8,39.06 "></polygon> <path style="fill:#13333F;" d="M77.3,39.05c0,0.01,0,0.01,0,0.01c0,0-0.01,0-0.01,0L77.3,39.05L77.3,39.05L77.3,39.05z"></path> <path style="fill:#FFFFFF;" d="M149.56,84.11c1.75,0,3.17-1.44,3.17-3.22V48.88c0-1.3-0.26-2.56-0.73-3.7 c-0.71-1.71-1.89-3.16-3.37-4.18c-0.75-0.51-1.57-0.91-2.45-1.19c-0.88-0.28-1.82-0.43-2.78-0.43h-7.44c-0.34,0-0.67,0.05-0.97,0.15 c-0.32-0.15-0.65-0.28-0.99-0.39c-0.75-0.24-1.55-0.37-2.37-0.37h-4.28c-0.29,0-0.54-0.06-0.77-0.19c-0.23-0.12-0.43-0.31-0.57-0.53 L126,38.05c-0.09-0.13-0.17-0.28-0.21-0.43c-0.05-0.16-0.08-0.33-0.08-0.51c0-1.11-0.22-2.18-0.63-3.16 c-0.6-1.46-1.61-2.69-2.88-3.57c-0.64-0.44-1.34-0.78-2.1-1.02c-0.75-0.24-1.55-0.37-2.37-0.37H80.35c-1.09,0-2.15,0.23-3.1,0.64 c-1.43,0.62-2.65,1.64-3.5,2.94c-0.43,0.65-0.77,1.36-1,2.12c-0.23,0.77-0.36,1.58-0.36,2.41c0,0.18-0.03,0.35-0.07,0.51 c-0.05,0.15-0.12,0.3-0.21,0.43l-0.01,0.01c-0.05,0.08-0.1,0.15-0.18,0.23c-0.15,0.15-0.33,0.28-0.53,0.36 c-0.19,0.08-0.4,0.12-0.64,0.12h-3.84c-1.06,0-2.08,0.22-3.01,0.61h-7.27c-1.28,0-2.51,0.26-3.63,0.75 c-1.68,0.72-3.1,1.92-4.11,3.44c-0.51,0.76-0.9,1.6-1.18,2.49c-0.27,0.9-0.42,1.85-0.42,2.82v112.6c0,1.3,0.26,2.56,0.73,3.7 c0.71,1.71,1.89,3.16,3.38,4.18c0.75,0.51,1.57,0.91,2.45,1.19c0.88,0.28,1.82,0.43,2.78,0.43h86.79c1.28,0.01,2.51-0.26,3.63-0.75 c1.68-0.72,3.1-1.92,4.11-3.44c0.5-0.75,0.9-1.59,1.17-2.49c0.27-0.9,0.42-1.85,0.42-2.82V96.05c0-1.78-1.42-3.22-3.17-3.22 c-1.75,0-3.16,1.44-3.16,3.22l0,0v65.43c0,0.43-0.08,0.83-0.23,1.19c-0.23,0.55-0.61,1.02-1.1,1.35c-0.24,0.16-0.5,0.29-0.78,0.38 c-0.28,0.09-0.58,0.14-0.89,0.14H56.61c-0.42,0-0.81-0.08-1.17-0.24c-0.54-0.23-1-0.62-1.32-1.11c-0.16-0.25-0.29-0.52-0.38-0.8 c-0.09-0.28-0.13-0.59-0.13-0.91V48.88c0-0.43,0.08-0.83,0.23-1.19c0.23-0.55,0.61-1.02,1.09-1.35c0.25-0.17,0.51-0.3,0.79-0.39 c0.28-0.09,0.58-0.14,0.89-0.14h2.38c-0.05,0.35-0.08,0.71-0.08,1.07v2.61c0,1.11,0.23,2.19,0.63,3.16 c0.61,1.46,1.62,2.69,2.89,3.57c0.64,0.43,1.34,0.78,2.09,1.02c0.75,0.24,1.55,0.37,2.37,0.37h64.73c1.09,0,2.14-0.23,3.11-0.64 c1.43-0.62,2.65-1.64,3.5-2.94c0.44-0.65,0.77-1.36,1-2.12c0.24-0.77,0.36-1.58,0.36-2.41V46.9c0-0.36-0.02-0.72-0.07-1.07h3.87 c0.42,0,0.81,0.08,1.16,0.24c0.54,0.23,1,0.62,1.33,1.11c0.16,0.25,0.29,0.52,0.38,0.8c0.09,0.28,0.14,0.59,0.14,0.91v32.01 C146.4,82.67,147.81,84.11,149.56,84.11L149.56,84.11L149.56,84.11z M133.26,49.5c0,0.24-0.04,0.45-0.13,0.65 c-0.12,0.29-0.33,0.55-0.6,0.74c-0.13,0.09-0.28,0.16-0.42,0.21c-0.15,0.05-0.32,0.07-0.49,0.07H66.89c-0.24,0-0.44-0.05-0.64-0.13 c-0.29-0.12-0.54-0.34-0.72-0.6c-0.09-0.13-0.16-0.28-0.2-0.43c-0.05-0.15-0.07-0.31-0.07-0.5V46.9c0-0.24,0.05-0.45,0.13-0.65 c0.12-0.3,0.33-0.56,0.6-0.74c0.13-0.09,0.27-0.16,0.42-0.21c0.15-0.05,0.32-0.07,0.49-0.07h3.84c1.1,0,2.15-0.23,3.11-0.64 c0.96-0.42,1.81-1.01,2.53-1.74l0,0c0.33-0.34,0.64-0.71,0.92-1.12c0.44-0.66,0.8-1.38,1.04-2.16c0.24-0.78,0.37-1.61,0.37-2.46 c0-0.24,0.05-0.44,0.13-0.65c0.12-0.3,0.34-0.56,0.6-0.74c0.13-0.09,0.27-0.16,0.43-0.21c0.15-0.05,0.31-0.08,0.48-0.08h37.39 c0.23,0,0.44,0.05,0.63,0.13c0.29,0.12,0.55,0.34,0.72,0.61c0.09,0.13,0.16,0.28,0.21,0.43c0.04,0.15,0.07,0.32,0.07,0.49 c0,0.85,0.13,1.68,0.38,2.46c0.24,0.78,0.59,1.51,1.05,2.16c0.72,1.06,1.67,1.93,2.79,2.54c1.12,0.61,2.42,0.96,3.76,0.96h4.28 c0.23,0,0.44,0.05,0.63,0.13c0.29,0.12,0.55,0.34,0.73,0.6c0.08,0.14,0.16,0.28,0.2,0.43c0.05,0.15,0.07,0.31,0.07,0.5V49.5 L133.26,49.5L133.26,49.5z"></path> <path style="fill:#FFFFFF;" d="M114.73,116.14c-2.17-0.67-4.47,0.56-5.12,2.73l-8.91,29.17l-11.67-10.29 c-1.7-1.5-4.29-1.33-5.79,0.37c-1.49,1.7-1.33,4.29,0.37,5.79l16.44,14.5c0.76,0.67,1.73,1.02,2.71,1.02c0.38,0,0.75-0.05,1.11-0.15 c1.35-0.38,2.41-1.43,2.81-2.76l10.77-35.26C118.11,119.08,116.9,116.8,114.73,116.14L114.73,116.14L114.73,116.14z"></path> <path style="fill:none;stroke:#000000;stroke-width:0.1069;stroke-miterlimit:10;" d="M79.13,107.61"></path> <g> <path style="fill:#FFFFFF;" d="M124.34,101.84c2.01-2.01,3.57-4.35,4.62-6.89c0.07-0.13,0.13-0.26,0.16-0.4 c0.95-2.44,1.45-5.06,1.45-7.76c0-5.69-2.22-11.04-6.24-15.06c-0.42-0.42-0.85-0.81-1.3-1.19c-0.03-0.03-0.07-0.06-0.11-0.09 c-3.82-3.21-8.61-4.95-13.66-4.95c-0.01,0-0.02,0-0.04,0c-0.01,0-0.02,0-0.04,0c-3.96,0.01-7.75,1.1-11.05,3.12 c-0.13,0.06-0.25,0.13-0.36,0.23c-1.28,0.82-2.48,1.79-3.58,2.89c-2.42,2.42-4.18,5.32-5.21,8.48c-0.02,0.06-0.04,0.12-0.06,0.19 c-0.45,1.45-0.75,2.96-0.89,4.5H74.75c-0.65,0-1.18,0.53-1.18,1.18s0.53,1.18,1.18,1.18h13.24c0.12,5.51,2.32,10.67,6.23,14.58 c0.77,0.77,1.59,1.48,2.46,2.11c0.09,0.09,0.2,0.16,0.31,0.22c3.13,2.22,6.79,3.54,10.65,3.84c0.09,0.02,0.18,0.03,0.28,0.03 c0.03,0,0.06,0,0.08,0c0.42,0.03,0.85,0.04,1.28,0.04c4.53,0,8.85-1.41,12.45-4.01c0.1-0.06,0.2-0.13,0.29-0.21 C122.83,103.24,123.61,102.57,124.34,101.84z M120.75,101.18l-6.48-2.34l-1.18-4.08l4.86-6.26l4.23,0.15l3.89,5.69 C124.86,97.03,123.03,99.37,120.75,101.18z M99.13,102.15l0.23-6.91l3.51-2.36l7.46,2.68l1.18,4.08l-4.24,5.45 C104.29,104.77,101.51,103.73,99.13,102.15z M100.15,70.79c2.47-1.42,5.31-2.28,8.33-2.41l3.85,5.75l-1.44,3.98l-7.6,2.21 l-3.36-2.62L100.15,70.79z M111.01,92.75l-6.87-2.47l0.24-7.3l7-2.04l4.1,6.04L111.01,92.75z M114.53,72.25l-2.47-3.69 c2.44,0.37,4.72,1.22,6.75,2.45L114.53,72.25z M113.59,101.65l4.14,1.5c-2.08,1.08-4.4,1.77-6.85,1.99L113.59,101.65z M127.7,86.78 c0,1.43-0.16,2.82-0.47,4.16l-2.49-3.64l2.72-3.52C127.62,84.76,127.7,85.76,127.7,86.78z M126.52,80.29l-4.25,5.49l-4.23-0.15 l-4.46-6.56l1.43-3.97l6.67-1.92C123.82,75.12,125.49,77.55,126.52,80.29z M97.2,72.88l-0.14,4.41l-4.24,1.23 C93.9,76.36,95.4,74.45,97.2,72.88z M95.84,84.89h-4.89c0.11-1.03,0.3-2.03,0.57-3.01l6.64-1.92l3.36,2.62l-0.26,7.92l-3.51,2.36 l-6.51-2.35c-0.22-1.05-0.35-2.14-0.37-3.25h4.98c0.65,0,1.18-0.53,1.18-1.18S96.49,84.89,95.84,84.89z M92.31,93.96l4.16,1.5 l-0.14,4.41C94.63,98.19,93.26,96.19,92.31,93.96z"></path> <path style="fill:#FFFFFF;" d="M70.61,69.55h23.26c0.65,0,1.18-0.53,1.18-1.18s-0.53-1.18-1.18-1.18H70.61 c-0.65,0-1.18,0.53-1.18,1.18S69.96,69.55,70.61,69.55z"></path> <path style="fill:#FFFFFF;" d="M93.87,104.01H70.61c-0.65,0-1.18,0.53-1.18,1.18c0,0.65,0.53,1.18,1.18,1.18h23.26 c0.65,0,1.18-0.53,1.18-1.18C95.05,104.54,94.52,104.01,93.87,104.01z"></path> <path style="fill:#FFFFFF;" d="M70.61,78.18h16.74c0.65,0,1.18-0.53,1.18-1.18c0-0.65-0.53-1.18-1.18-1.18H70.61 c-0.65,0-1.18,0.53-1.18,1.18C69.43,77.65,69.96,78.18,70.61,78.18z"></path> <path style="fill:#FFFFFF;" d="M70.61,97.78h16.74c0.65,0,1.18-0.53,1.18-1.18c0-0.65-0.53-1.18-1.18-1.18H70.61 c-0.65,0-1.18,0.53-1.18,1.18C69.43,97.25,69.96,97.78,70.61,97.78z"></path> </g> </svg> 