<?xml version="1.0" encoding="UTF-8"?> <!-- Generator: Adobe Illustrator 24.3.0, SVG Export Plug-In . SVG Version: 6.00 Build 0) --> <svg xmlns="http://www.w3.org/2000/svg" xmlns:xlink="http://www.w3.org/1999/xlink" version="1.1" id="Layer_1" x="0px" y="0px" viewBox="0 0 500 500" style="enable-background:new 0 0 500 500;" xml:space="preserve"> <g> <path style="fill:none;stroke:#FFFFFF;stroke-width:8.3671;stroke-linecap:round;stroke-linejoin:round;stroke-miterlimit:10;" d=" M178.6,128.2h119.9c4,0,7.3,4,7.3,8c-2.7,22.5-11.3,86.1-21.2,102c-11.9,19.2-21.9,32.5-44.4,32.5s-47-15.9-52.3-40.4 c-4-19.2-12.6-72.9-15.9-93.4C170.7,132.2,174,128.2,178.6,128.2z"></path> <path style="fill:none;stroke:#FFFFFF;stroke-width:8.3671;stroke-linecap:round;stroke-linejoin:round;stroke-miterlimit:10;" d=" M348.2,140.2c0,0,5.3,74.9-58.3,86.8c0,0,9.9-43.1,11.9-62.3c0,0,17.2-3.3,23.9-23.9C326.4,140.2,347.6,141.5,348.2,140.2z"></path> <path style="fill:none;stroke:#FFFFFF;stroke-width:8.3671;stroke-linecap:round;stroke-linejoin:round;stroke-miterlimit:10;" d=" M128.2,140.2c0,0-5.3,74.9,58.3,86.8c0,0-9.9-43.1-11.9-62.3c0,0-17.2-3.3-23.9-23.9C150.1,140.2,128.9,141.5,128.2,140.2z"></path> <path style="fill:none;stroke:#FFFFFF;stroke-width:8.3671;stroke-linecap:round;stroke-linejoin:round;stroke-miterlimit:10;" d=" M224.3,269.4v30.5h28.5v-29.2C252.8,270,242.9,273.3,224.3,269.4z"></path> <path style="fill:none;stroke:#FFFFFF;stroke-width:8.3671;stroke-linecap:round;stroke-linejoin:round;stroke-miterlimit:10;" d=" M193.2,341.6c0,0,5.3-42.4,46.4-42.4s42.4,43.1,42.4,43.1S195.2,339.6,193.2,341.6z"></path> <path style="fill:none;stroke:#FFFFFF;stroke-width:8.3671;stroke-linecap:round;stroke-linejoin:round;stroke-miterlimit:10;" d=" M173.3,343.6v83.5h129.9v-84.1C303.2,342.9,175.3,341.6,173.3,343.6z"></path> <polyline style="fill:none;stroke:#FFFFFF;stroke-width:8.3671;stroke-linecap:round;stroke-linejoin:round;stroke-miterlimit:10;" points=" 251.5,405.2 192.5,405.2 192.5,362.8 282,362.8 282,404.5 268.1,404.5 "></polyline> <line style="fill:none;stroke:#FFFFFF;stroke-width:11.1559;stroke-linecap:round;stroke-linejoin:round;stroke-miterlimit:10;" x1="192.5" y1="145.5" x2="196.5" y2="177.3"></line> <path style="fill:none;stroke:#FFFFFF;stroke-width:11.1559;stroke-linecap:round;stroke-linejoin:round;stroke-miterlimit:10;" d=" M243.5,251.5c0,0-13.9,3.3-25.8-8c-11.9-11.3-17.2-28.5-19.2-47.7"></path> </g> </svg> 