<?xml version="1.0" encoding="UTF-8"?> <!-- Generator: Adobe Illustrator 24.3.0, SVG Export Plug-In . SVG Version: 6.00 Build 0) --> <svg xmlns="http://www.w3.org/2000/svg" xmlns:xlink="http://www.w3.org/1999/xlink" version="1.1" id="Layer_1" x="0px" y="0px" viewBox="0 0 500 500" style="enable-background:new 0 0 500 500;" xml:space="preserve"> <path style="fill:none;stroke:#FFFFFF;stroke-width:10.0093;stroke-miterlimit:10;" d="M377.3,347.3c-2-5-7-11-13-13 c-15-5-74.1-22-74.1-22s-16-5-26,5l-22,21l0,0c-1,1-8,6-17,2c-6-3-32-24-58.1-50c-23-25-41-48-43-54c-4-9,2-17,2-17l0,0l22-22 c10-10,6-26,6-26s-16-60.1-21-75.1c-2-7-8-11-13-14c-5-2-11-3-16-3H94c-10,0-16,3-16,3c-2,1-36,20-44,41c-11,24-10,43-10,43 c0,44,19,83.1,19,83.1c21,41,49,74.1,75.1,100.1c24,25,55.1,50,91.1,69.1c0,0,39,20,82.1,21c0,0,19,1,41-6c21-7,41-41,42-43 c0,0,4-6,4-16v-10C380.3,358.3,379.3,353.3,377.3,347.3z"></path> <path style="fill:#FFFFFF;" d="M201.1,234.2c0,7,6,13,13,13h140.1v36c0,11,13,18,22,11l94.1-73.1c7-5,7-16,0-22l-95.1-73.1 c-9-7-22-1-22,11v36H213.1c-7,0-13,6-13,13v48H201.1z"></path> </svg> 