<?xml version="1.0" encoding="UTF-8"?> <svg xmlns="http://www.w3.org/2000/svg" version="1.1" viewBox="0 0 800 800"><g><g id="Layer_1"><path d="M759.5,439.9c-2.5,6.4-5,12.9-7.5,19.3-7.8,20.3-15.7,40.6-23.5,60.9-.2.5-.4,1-.7,1.6-2.9-.2-5.8-.3-8.7-.5-8.5-.6-17-1.1-25.5-1.7-11.5-.8-23-1.5-34.6-2.2-8.2-.5-16.3-1-24.5-1.6-11.1-.7-22.3-1.4-33.4-2.2-7.6-.5-15.2-1.1-22.8-1.6-14.1-.9-28.3-1.8-42.4-2.7-13.5-.9-27.1-1.7-40.6-2.6-13.2-.9-26.5-1.7-39.7-2.6-13.6-.9-27.2-1.7-40.9-2.6-4.3-.3-8.6-.6-12.8-.8-1.8-.1-3.6,0-5.4.1-13.7.9-27.4,1.8-41.1,2.7-17,1.1-34.1,2.2-51.1,3.3-14.5.9-29.1,1.9-43.6,2.8-8.7.6-17.4,1.1-26.1,1.6-5.5.3-11,.5-16.5.9-6,.4-11.9,1-17.9,1.4-8.5.6-17,1.1-25.5,1.7-11.4.7-22.9,1.5-34.3,2.2-8.1.5-16.2,1-24.3,1.5-11.3.7-22.6,1.5-33.9,2.2-2.9.2-5.7.3-8.7.5-.3-.7-.6-1.4-.9-2.2-10-25.8-19.9-51.6-29.9-77.4-.3-.8-.2-1.9-1.4-2.2v-.9c.5-.8,1.1-1.5,1.4-2.3,5.5-13.8,11-27.7,16.4-41.5,4.6-11.5,9.1-23.1,13.7-34.6.2-.5.4-1,.8-1.7,10.4.6,20.9,1.3,31.4,1.9,10.6.6,21.2,1.2,31.8,1.9,10.5.7,21,1.1,31.4,1.9,10.5.7,21,1.3,31.7,2,.2-2.9.5-5.6.6-8.3.1-1.7-.5-2.1-2.1-2-1.2.1-2.5.3-3.7.3-1.7-.1-2.2-.6-2.7-3,1.2,2.3,2.9,2.3,4.7,1.9.5-.1,1.1-.2,1.6-.3,2.4-.2,3.5.6,3.9,2.9.2,1.1,0,2.3,0,3.5s-.1,2.8,0,4.2c0,.3.5.9.8.9.3.1.8-.3,1.1-.6.3-.3.3-.9.6-1.2.9-1.2,1.6-2.7,2.8-3.4,3.6-2.1,7.3-3.9,11-5.9.1.1.2.3.3.4-.2.3-.4.7-.7.9-1.6.9-3.3,1.7-4.9,2.7-1.6.9-3.2,1.9-4.7,3-1.3,1-2.2,2.4-2.6,4.3,3.9.3,7.7.7,11.5.9,6.1.4,12.1.8,18.2,1.2,3.9.2,7.8.5,11.7.7,6,.4,11.9.8,17.9,1.2,4,.3,8.1.4,12.1.7,6.2.4,12.4.8,18.6,1.2,5.3.3,10.6.5,15.8.7.2-.9.3-1.5.4-2.3,1.9.2,2.3-1.5,3.1-2.8.3-.5,0-1.5-.2-2.2-.9-2.6-1.9-5.3-2.9-8.2-9.7-1.5-19.8-3.1-29.8-4.6,0-1.9.6-2.5,2.1-2.4,1.3.1,2.6.3,3.9.5,6.6.9,13.1,1.8,19.7,2.8,2.3.3,4.6.9,6.9,1.3,1,.2,2,.2,3.1.3,1.2-13.5,7.6-23.4,20-28.7,12.3-5.2,23.8-3,34.6,5.2.2-.8.5-1.4.5-2.1.3-3,.6-6,.8-9.1.1-1.8,1.1-2.9,2.7-3.4,1.1-.4,2.3-.6,3.4-1,1-.3,2.2-.5,2.6-1.7-3.1-2.5-6.3-4.9-9.3-7.7-3-2.8-5.3-6.3-7.2-10-1.9-3.6-3.1-7.5-3.9-11.6-1.6-.4-3.1-.9-4-2.5-1.4-2.6-3.5-4.8-3.3-8.1.2-2.4-.2-4.9-2.2-6.3-1.7-1.2-2.9-2.8-4-4.4-.5-.7-.8-1.5-1.3-2.2-.6-.8-1.2-1.6-1.9-2.4-.8-.8-1.7-.8-2.4.1-1.2,1.5-2.7,1.6-4.4,1.4-3.3-.5-3.5-.3-4.6,2.7-.2.6-.5,1.3-1.2,1.8.3-.8.5-1.7.8-2.5,1-3,1.7-3.4,4.8-3,1.7.2,3.2,0,4.3-1.6.3-.5,1-.7,1.7-1.3-.7-.9-1.5-1.8-2.2-2.8-1.6-2.4-3.3-4.7-4.8-7.1-1.9-3.3-3.5-6.7-4.7-10.3-.6-1.9-1.7-3.6-2.5-5.4-.6-1.2-1-2.4-1.7-3.5-1-1.6-2.1-3-3.1-4.6,0-.1-.1-.1-.2-.2-.9-1.9-1.8-3.8-2.8-5.6-1.1-1.8-2-3.5-2.1-5.8,1.1-.6,2.3-1.3,3.6-1.8,1.3-.6,2.6-1.1,3.9-1.6,1.1,1.8,2,3.4,3,5.1.1.3.3.6.3.9-.5,1.4.6,1.9,1.3,2.4,0,.9,0,1.6.1,2.2.5,2.9,1.2,5.8,1.7,8.6.5,2.7.8,5.5,1.3,8.2,1.1,5.8,3.4,11.1,6.8,15.9,1.3,1.8,2.6,3.4,3.9,5.2.5.7.7,1.5,1.2,2.6.5-3.2.9-6-1-8.7-.8-1.1-1.6-2.3-2.3-3.5-1.6-2.9-.9-5.7,1.8-7.5,1.4-.9,3-1.8,4.5-2.4,1.5-.7,2.1-1.7,1.9-3.3-.2-1.5-.3-3.1-.4-4.7-1.4-.5-3.1-.7-3.3-2.7h0l4,2c.2,1.8.7,4,.6,6.3-.1,1.8-1.3,2.9-2.9,3.7-1.3.7-2.7,1.2-4,1.9-2.4,1.4-3,3.8-1.7,6.2.5.9,1.1,1.7,1.7,2.5,1.9,2.5,2.6,5.2,2.1,8.3-.2,1.2,0,2.4,0,4.1.4-.6.7-.9,1-1.3,2.1,1.8,4,3.8,5,6.4.1.2.3.4.3.6.4,2.3.9,4.7,1,7.1.1,3.4,1.9,5.8,3.8,8.3.4.5,1.3.5,2.1.8-.8-20.6,7.3-35.8,26.5-43.1,18.3-7,33.8-1.1,46.7,13.3.6-1.7.3-3.1-.2-4.7-2.1-.7-5-.6-4.8-4.4.4.2,1,.3,1.1.6,1.3,2.3,2.2,2.6,4.9,1.7.1.5.2,1,.2,1.5,0,1.5.2,3.1,0,4.6-.3,2.3.8,4,1.8,5.9,4.1,7.6,5.8,15.7,4.6,24.4-.2,1.2.1,2.3.9,3.3s.8,1,1.3,1.7q-1.3,0-2.7-.9c-3.3,12.8-10.9,22.3-22.9,27.8-12.1,5.5-24.2,4.9-36.2-1.3,0,.6.1.9.1,1.2s.1.6.2,1.1c-.7.3-1.3.7-2,1-.7.2-1.5.4-2.3.5-4.5.7-4.1,1.4-3.9,5.8,0,.5.6,1.1.9,1.5.8.9,1.6,1.8,2.4,2.8-.1.1-.2.3-.4.4-1.2-1.1-2.4-2.2-3.8-3.5-.2,2.8-.5,5.2-.6,7.6,0,.6.6,1.4,1.1,1.9,6.8,7.2,9.7,15.7,8.7,25.5-.6,5.8-3,10.9-6.2,15.7-.3.4-.6.9-1,1.6,1.1.2,1.9.3,2.9.5-.6,1.5-2,.7-3.2,1.5,3.1.2,5.7.4,8.4.6,4.6.3,9.2.6,13.8.7,2.8.1,5.6.1,8.4-.1,7.2-.4,14.3-.9,21.5-1.4,5.9-.4,11.8-.8,17.7-1.1,6.8-.4,13.7-.8,20.5-1.2,8.5-.5,16.9-1.1,25.4-1.6,6.7-.4,13.4-.8,20.1-1.2,6.3-.4,12.6-.8,18.9-1.2,7.1-.4,14.2-.8,21.4-1.2.4-1.2.9-2.4,1.4-3.7-1.6-1.9-2.4-4-3-6.4-.2-.9-1.6-1.6-2.6-2.1-1.6-.9-3.4-1.5-5.1-2.3-1.6,1.5-3.7.9-5.9,1.3-.7-8-1.4-15.8-2.1-23.8-1.6.4-2,2.1-3.5,2.6-1.2-1.1-2.4-2.2-3.8-3.5,3.7-4.1,7.4-8.1,11.3-12.3,1,1.8.6,3.6.8,5.3.2,1.7.4,3.4.6,5.6.4-.8.7-1.2.8-1.7,1.1-5.3,2.4-10.6,3.3-16,.8-4.9,1.3-9.8,1.8-14.8.3-2.6.5-5.3.3-7.9-.3-5.9-.7-11.8-1.1-17.7-.4-5.9-1.5-11.7-3-17.5-1.8-6.9-3.8-13.8-5.8-20.7-.8-2.7-2.3-4.9-4.4-6.8-.5-.4-.9-1-1.3-1.5-15.1,9.3-30.9,3.7-38.5-6.5-2.5-3.3-4.3-6.9-5.1-10.9-.8-3.9-.9-7.9,0-11.8.9-4,2.7-7.6,5.1-10.9,2.4-3.2,5.5-5.6,8.9-7.7-.1-.1-.1-.3-.2-.4-.5,0-1-.2-1.5-.1-1.7.7-3,.1-4.1-1.4.9-1.2,1.9-2.1,3.7-2.2,1.7,0,3.3-.5,5-.6,1.1-.1,2.2.1,3.2.4,2.5.5,4.5.4,7.3-.6-1-1.1-1.8-2.1-2.8-3-13.4-12.2-28.3-21.9-44.9-29.1-14.7-6.4-30-10.5-45.9-12.3-30.9-3.5-60.5,1.1-88.7,14.2-15.3,7.1-29,16.4-41.4,27.8-12.9,11.9-23.7,25.4-32.3,40.7-10,18-16.5,37.2-19.1,57.6-.8,6.1-1.2,12.3-1.4,18.4-.6,14.2.9,28.3,4.1,42.1.3,1.2,1.2,2.1,1,3.6-.1,1.1.6,2.4.9,3.6.4,1.3.7,2.5,1.1,3.8.1.4.2.9.4,1.7-2.1-.3-4-.6-6-.9-.4-1.1-.8-2.3-1.3-3.8-1.4,1.5-2.7,2.8-4.2,4.3,3,4.3,6,8.5,9.3,13.2-2.7-.2-4.9-.4-7-.7-.5-.1-1-.7-1.3-1.2-1.5-2.2-2.9-4.4-4.4-6.7-.3-.4-.6-.9-1.1-1.5-2.3,2.4-4.5,4.7-6.6,7-.7.8-1.3,1.2-2.4,1-1.8-.3-3.6-.3-5.8-.5,3.5-4.3,7.8-7.4,11.1-11.5-2.6-3.7-5.2-7.4-8.1-11.6,2.7.2,4.9.4,7.1.7.5.1,1,.7,1.3,1.2.8,1.2,1.6,2.5,2.7,3.6-.4-2.1-.9-4.1-1.3-6.2-3.7-17.4-4.9-35-3.2-52.8,3.8-41.5,20-77.5,48.8-107.6,25.4-26.7,56.4-43.7,92.5-51.2,16.6-3.5,33.4-4.5,50.3-3.1,41.5,3.6,77.6,19.6,107.9,48.1,28,26.3,45.2,58.7,52.6,96.3,2.7,13.9,3.5,28,2.8,42.2-.4,8.2-1.3,16.3-3,24.4-.2,1.2,0,2.2.5,3.3,6.2,10.8-1.8,25.7-15.4,25.7s-11.1-3.2-14.6-8.3c-.3-.5-.6-1-1-1.7-1.4.2-2.7.4-4.4.6,0,1.9.5,3.6.3,5.4-.2,3.1,1.3,4.6,4,5.3.4.1.9.4,1.3.5,4.3,1.4,7.2,4.1,8.6,8.5,0,.5.5.9.8,1.3,1.2-.2,1-1.1,1.1-1.7.2-1.1.2-2.2.2-3.3s.2-2,1.4-2.6c.6.2,1.2.6,1.8.8.4.1,1,.3,1.3.1,1.3-.8,2.6-.2,3.9,0,.5.1,1.1.3,1.6.2,2.5-.3,3.5-.2,3.6-3.2,0-2.5,1.1-3.3,3.4-4.1,1.2-.4,2.4-1,3.5-1.7,1.8-1.1,3.4-1.4,5.2-.2,0,.1.3.2.4.2,2.9,1.5,3.5,1.5,6.2-.8-1.3-1-2.7-2-4-3.1-5.7-5.1-7.4-12.9-4.3-19.6,3.2-6.9,10.4-11.1,17.8-10.3,7.4.9,13.8,6.7,15.2,13.9,2.5,13-9.7,24-22.3,20.1-1.1-.3-1.8-.2-2.8.4-2,1.2-4.1,1.5-6.2.4-2.1-1.1-4-1-5.9.5-.8.6-1.9,1-3,1.3s-1.8.9-2,2c-.2.8-.3,1.5-.5,2.3-.6,3.2-1.2,3.6-4.5,3-.4-.1-.8-.2-1.1-.3-1.5-.2-2.9-.5-4.4.1-.8.4-1.8.2-2.9.3-.2,2.3-.5,4.6-.7,7h2.1c4.8-.3,9.6-.6,14.5-.9,4.2-.2,8.4-.4,12.6-.7,3-.2,5.9-.4,8.8-.8.9-.1,1.7-.9,2.6-1.4,0,.4-.3.7-.5,1.4,43.3-2.6,86.4-5.3,129.6-7.9,2,5,3.9,9.9,5.8,14.7,8.1,20.5,16.2,41,24.3,61.6.5,1.3,1,2.6,1.5,3.9,0,.2,0,.5,0,.9ZM179,445c1.1.3,2.3.6,3.6,1-.9-11.1,2-20.8,9.2-29s16.3-12.5,27.4-13.2c-1.1-2-1.8-3.9-4.1-4.5-1.2-.3-2.4-.7-3.5-1.2-3-1.5-6.2-1.9-9.5-1.7-2.4.2-4.8.2-7.2.2s-4.4.6-5.2,3.3c-.5,1.6-1.6,2.9-3.3,3.4-1.7.6-3.3,1.3-4.7,2.5-.1.1-.5.1-.9.1,1-1.7,2.5-2.3,3.9-2.8,2.1-.8,3.7-1.9,4.3-4.2.5-1.8,1.9-2.6,3.6-2.9,1.1-.2,2.2-.1,3.3-.2,1.9-.1,3.7-.2,5.6-.3,2.7-.1,5.5-.4,8.1.6,2.9,1,5.8,2.2,8.8,3.4.7-.7,1.3-1.5,1.9-2.2-.4-.8-.8-1.4-1.1-2-1.2-2.5-3.2-4.2-6-4.8-1-.2-1.9-.7-2.8-1.2-.5-.3-1.2-1-1.2-1.6-.1-2.6-1.8-3.4-3.8-4.2-1.7-.7-3.5-1.3-5.2-2-1.5-.6-3-1.5-3.7-3.1-.7-1.5-1.8-1.8-3.2-1.7h-1.6c-10.9-.7-21.8-1.4-32.7-2.1-11.8-.7-23.7-1.4-35.5-2.2-11.7-.7-23.3-1.5-35-2.3-2.3-.1-4.6-.2-6.9-.3-.4.8-.7,1.5-.9,2.1-8.8,21.5-17.7,43-26.6,64.4-.9,2.1-.9,3.9,0,6,8.3,20.4,16.4,40.8,24.6,61.2,1,2.4,2,4.9,3,7.3,4.2-.3,8.2-.5,12.1-.8,8.6-.6,17.3-1.2,25.9-1.8,10.4-.7,20.9-1.3,31.3-2,14.2-.9,28.5-1.9,42.7-2.8,14.4-.9,28.8-1.9,43.2-2.8,12.8-.8,25.5-1.7,38.3-2.6,16-1,31.9-2,47.9-3.1,13-.8,26-1.7,39-2.6,9.6-.6,19.1-1.3,28.7-1.9,4.4-.3,8.9-.5,13.3-.4,5.8.2,11.7.8,17.5,1.1,16.7,1.1,33.5,2.2,50.2,3.3,12.9.8,25.8,1.6,38.8,2.5,11,.7,21.9,1.5,32.9,2.2,10.5.7,21,1.3,31.5,2,12.7.8,25.4,1.7,38,2.5,8.6.6,17.1,1.1,25.7,1.7,8.3.5,16.6,1.1,24.9,1.7,6.1.4,12.1.8,18.2,1.2,5.7.4,11.5.8,17.2,1.2,4.3.3,8.5.6,12.8.9,2.8.2,5.6.3,8.5.4.6-1.6,1.3-3.1,1.9-4.6,8.7-21.6,17.3-43.3,26.1-64.9.6-1.4.7-2.6,0-4-1.1-2.5-2.1-5-3.1-7.6-8-19.4-16-38.8-23.9-58.1-.3-.7-.7-1.4-1-2-5.4.3-10.6.6-15.8,1-6.7.4-13.4.9-20,1.3-5.8.4-11.7.6-17.5,1-9.2.6-18.5,1.2-27.7,1.8-8.5.5-17,1-25.4,1.6-6.5.4-13.1.8-19.6,1.3-10,.6-20.1,1.2-30.1,1.9-.6,0-1.4.3-1.9.7-1.7,1.6-3.7,2.5-5.9,3.1-1.4.4-2.8,1-4.1,1.6s-2.3,1.7-2.3,3.3-.7,2-1.7,2.5-1.6.7-2.4.9c-3.5.8-5.7,2.9-7.3,6-.5,1-.5,1.8.3,2.5.4.4.9.8,1.4,1.2.9-.4,1.8-.8,2.6-1.1,1.6-.6,3.2-1.3,4.8-1.8s3.3-1.3,4.9-1.3c4.8-.1,9.7-.1,14.5.2,2.5.1,4.5,1.2,5.2,4,.5,1.8,1.7,2.9,3.5,3.5,1.2.5,2.5.9,3.5,1.7.9.7,1.8,1.2,2.9,1.3,3.3.3,6.2,2.1,9.3,3.1.4.1.9.5,1.1.8,1.3,2.1,3.5,2.5,5.6,2.8,1.8.3,3.6.5,5.3.6,1.5,0,3.1,0,4.6-.5,2-.6,3.8-1.7,5.7-2.6-1.7-2.9-1.8-3-7-4.7v-3.6h19.8c1.8-2.5,3.4-4.7,5-6.9,0-.1,0-.1.2-.2,1.2-1,2.1-1,2.9.3.8,1.2,1.4,2.6,1.9,4,.6,1.6,1.5,2.7,3,3.4l.6.3c0,.1.2.2.7.5-2.9-.6-4.2-2.1-5-4.3-.6-1.6-.9-3.3-2.8-4.4-2.2,1.9-3.3,4.7-5.2,6.8,0,.2.2.4.2.5h8v3.5c-.2.1-.3.2-.5.3-.2.1-.5.1-.7.1-3.2.3-5.4,2.2-6.4,5.1-.8,2.2-1.5,4.7-1.5,7,0,14.7,0,29.5,0,44.2s.5,4.7,1.5,6.8c1.3,2.9,3.4,4.8,6.7,5.1.3,0,.6.2.8.3v3.4c-.3.1-.5.2-.6.2-2.5,0-5,.1-7.5,0-1.8,0-3.8.4-5.3-.3-1.4-.7-2.3-2.7-3.4-4.1-15.4-20.7-30.8-41.5-46.2-62.2-.5-.7-.9-1.6-2-2v51.7c0,3.1.5,6.1,2,8.8,1.3,2.3,3.1,3.9,5.9,4.1.4,0,.9.3,1.4.4,0,1.2,0,2.3-.2,3.5h-29.1v-3.8c5.1-.3,7.3-3.6,8.4-7.9.3-1.3.5-2.8.5-4.2,0-5.3.2-10.6.2-15.9,0-9.5,0-19-.2-28.5,0-2.5-.5-4.8-1.6-7-1.2-2.6-3.1-4.5-6.2-4.8-.4,0-.9-.2-1.2-.3v-3.5c.3-.1.5-.2.6-.2,6,0,12,0,18-.1,1,0,1.6.5,2.1,1.2,1.5,2,3,4,4.4,6,12.6,17,25.3,34.1,37.9,51.1.5.6.8,1.5,1.9,1.7v-12.1c0-10.1,0-20.1,0-30.2,0-2.2-1.3-3.7-2.1-5.5-.2-.4-1-.6-1.6-.8-.5-.1-1.1,0-1.6.1-3.5.4-6.9,1-10.5.2-.7-.1-1.5-.2-2.1.1-1.6.9-3.1.4-4.4-.3-2.2-1-4.3-2.3-6.5-3.5-2-1-4.1-2-6.2-2.9-.7-.3-4.1-2.1-4.7-2.6-.3-.3-.7-.6-1.1-.8-2.1-.8-3.5-2.2-4.1-4.4-.4-1.5-1.4-2.4-2.9-2.7-.9-.2-1.8-.3-2.8-.3-2.6-.1-5.3-.1-7.9-.2-2.9-.1-5.7,0-8.5,1.1-1.9.8-3.8,1.3-5.7,2-1.2.4-2.1,1.2-2.4,2.6,1,.1,1.8.2,2.8.3,0,1.2,0,2.3.2,3.3-.3.2-.4.3-.5.3-.2.1-.5.1-.7.2-3.3.3-5.5,2.3-6.6,5.2-.8,2.2-1.5,4.5-1.5,6.8,0,14.8,0,29.7,0,44.5s.6,5,1.8,7.2c1.3,2.6,3.3,4.3,6.3,4.5.4,0,.7.2,1,.3v3.5h-29.1v-3.6c.3-.1.6-.2.8-.2,3.4-.2,5.5-2.1,6.7-5.1.8-2.1,1.3-4.3,1.5-6.6.3-2.8.3-5.6.3-8.4,0-11,0-22,0-33v-2.6h-2.5c-.9,0-1.7.1-2.6.2-2.8.4-4.8-.8-6.2-3.2-.7-1.1-1.4-2.3-2.2-3.3-1.5-1.8-3.4-2.4-5.7-1.5-.5.2-1,.3-1.7.5,1.1-1.7,1.1-1.8,2.4-1.9,2.6-.3,4.8.5,6.4,2.6,1,1.3,1.9,2.7,2.7,4.1.8,1.3,2,2,3.5,1.8,1.6-.2,3.2-.4,5.2-.6,0-1.1.3-2.1.2-3.1-.3-2.1-1.3-4-2.7-5.6-1.5-1.9-3.7-2.5-5.9-2.7v-3.9h15.1c1.6,0,3.3.1,4.9,0,1.6-.1,3.2.4,4.9-.4-.5-.5-.8-.9-1.2-1.3-2.1-2.3-2.2-3-.8-5.7.2-.3.3-.7.5-1.1,1.3-2.5,3.2-4.4,6-5.2.7-.2,1.5-.5,2.2-.7,1.2-.3,1.7-1,2.1-2.2.3-1.1,1-2.3,1.9-3,1.2-1,2.8-1.6,4.3-2.4.6-.3,1.2-.5,1.8-.8-.6-1.2-1.5-.8-2.2-.8-8,.5-16,1-24.1,1.5-15.1.9-30.2,1.9-45.3,2.8-12.6.8-25.2,1.6-37.8,2.3-12.8.8-25.5,1.6-38.3,2.4-2.6.2-5.3.4-7.9.3-8-.4-16-.9-24.1-1.5-1.2-.1-2,.3-2.8,1.2-1.7,1.9-3.3,4-5.4,5.4-2.4,1.7-4.9,3.4-7.9,4.1-1.3.3-2.8.6-4.1,1.3-1.7,1-3.6.2-5.5,0-5.3-.7-10.3-2.1-14.8-5.4-3.1-2.3-5.9-4.9-8.3-7.8-1.2-1.4-2.4-1.9-4.2-2-8.6-.5-17.3-1-25.9-1.6-14.2-.9-28.3-1.8-42.5-2.7-15-.9-30-1.9-45.1-2.8-1.5-.1-2.9,0-4.6,0-.4.9-.9,1.8-1.4,2.9,1.2.5,2.3.8,3.2,1.3,2.2,1.1,4,2.4,4.5,5,.1.4.6.9,1,1.1.6.3,1.3.6,2,.7,3.8.9,5.8,3.6,7.5,6.9.7,1.4.5,2.6-.5,3.7-.6.7-1.2,1.4-1.9,2.1.6.9,1.1,1.6,1.5,2.4,5.1.1,9.8,1.2,14.5,2.9.4.2.9.3,1.3.4,2.8.6,4.7-.3,6-2.9.5-1.1.9-2.3,1.4-3.6,1.2.1,2.4.1,3.5.2v16.8c-1.8.7-3-.1-4.3-1.2-14.1-12.6-36.4-11.1-48.7,3.2-.8.9-1.2,1.9-1.2,3.2v38.2c0,1.4.4,2.4,1.3,3.4,10.2,11.7,27.3,15,41.2,8,.5-.2.9-.6,1.2-1,.9-.9,1.7-2,2.7-2.8,1.8-1.3,2.9-3,3.3-5.2.8-4,.9-8.1-.1-12-.4-1.4-1.1-2.8-1.8-4-1.2-1.9-3-3.1-5.4-3.3-.4,0-.9-.2-1.2-.3v-3.3c3.1-.5,20.4-.3,22,.2v3.3c-5.3.4-7.4,4-8.4,8.5-.4,1.6-.5,3.2-.5,4.9-.1,3.1-.1,6.2,0,9.4.1,1.8-.6,2.9-1.9,4-8.4,7.1-18,10.3-29,9.3-16.6-1.5-30.6-14.1-33.7-30.7-.1-.5-.3-1-.4-1.6-1.1-.1-2.1-.1-3.6-.2.8-.3,1.3-.4,1.9-.6-1-.3-1.6-.8-2.2-1.3h0ZM231.4,338.1c1.1-1.2,1.9-2.3,2.9-3.2,1.5-1.3,1.6-2.7,1.2-4.5-2.4-10-3.6-20.3-4-30.6-.6-16.2,1.1-32.2,5-48,11.8-47.8,45.8-89.7,90.1-111.1,30.7-14.8,63-19.8,96.8-15.6,18.7,2.4,36.4,7.8,53.2,16.2,17.4,8.6,32.7,20,46.3,33.8,1.4,1.4,2.9,2.5,4.6,3.4,7.7,4,12.6,10.3,14.7,18.7.4,1.5,1,3,1.8,4.3,7.6,12.3,13.8,25.3,18.3,39.1,5.1,15.6,7.8,31.6,8.3,48,.3,8.1,0,16.2-1.1,24.3-.4,3.3-.8,6.6-1.3,9.9.9.6,1.8,1.1,2.6,1.7.8.5,1.5,1.1,2.4,1.8,13.8-72.3-18.2-144.6-81.7-183.3-64.1-39-146.5-32.4-203.8,16.1-60.5,51.3-71.2,125.7-56.3,179ZM562.7,321.3c6-39.3-.4-76.1-20.1-110.8-.3.4-.6.6-.6.8-1.2,4.8-3.5,9-6.9,12.5-.7.7-.6,1.4-.2,2.1,1,1.9,2,3.7,2.8,5.6,7.5,17.1,11.7,34.9,12.6,53.6.6,12.3-.2,24.4-2.7,36.4l-1.5,7.5c4.1-5.3,9.5-8,16.6-7.7ZM350.5,340.5c-8-.4-16.7,6.5-16.7,16.8s6.2,16.8,16.8,16.8,16.7-8.9,16.7-16.7c.1-8.9-7.2-17.2-16.8-16.9ZM509.2,208.1c4.8.5,8.4-1.7,11.6-4.7,2.2-2,3.6-4.5,4.3-7.3,1.8-7-2.5-13.3-9.5-14.8-5.5-1.1-14.3,2.3-17.2,8.6-.9,2-1.9,4.1-1.4,6.3.5,2.1,1.3,4.2,2.4,6,2.2,3.6,5,6.6,9.8,5.9ZM597.1,323.7c-6.5,0-11.9,5.4-11.8,12,0,7.9,6.1,11.7,11.9,11.7s11.8-5.3,11.8-11.7-5.4-12-11.9-12ZM561.7,327.2c-5.3-1.2-12.2,4-12.5,10.6-.4,6.8,4.6,12.6,11.1,12.8,6.1.2,11.8-4.1,11.8-8.8-.7,0-1.3.1-2.2.2.6-2.3,1.1-4.4,1.6-6.5.2-.7.3-1.6,0-2.2-.9-1.8-2.2-3.3-4.2-4.4-1.2,4.8-2.5,9.4-3.7,14.1-2.1.3-4.1.6-6.1.9,1.3-5.8,2.7-11.2,4.2-16.7Z" style="fill: #fff;"></path><path d="M500,331.8c-14.3-.1-25.9-11.5-25.9-25.6s11.7-25.8,26.2-25.6c14.7.2,25.9,11.8,25.9,25.7-.2,14.7-12.4,25.5-26.2,25.5ZM490.3,316.8c4.4.4,8.8-2.5,10.3-5.3,1.2-2.1,1.9-4.6,2.5-7,1.6-6.4-3-14.4-10.2-14.8-3.9-.2-7.4.3-10.3,3.2-3.7,3.6-5,8-4.3,13,.9,6.5,6.3,11.1,12,10.9Z" style="fill: #fff;"></path><path d="M325.6,272.5c-.2,13.4-10.5,24-24.5,24.4-14.7.5-24.8-12.1-24.9-24.1,0-13.5,10.8-24.5,24.5-24.5,13.3,0,24.6,10.1,24.9,24.2ZM296.9,291.4h1.6c6.3-.6,10.5-5.7,9.6-11.9-.6-4.5-3.4-7.4-7.2-9.5-.4-.2-.9-.3-1.3-.2-2.1.6-4,.1-5.8-.9-.4-.2-1-.4-1.5-.3-4.9.8-8.8,4.1-9.1,9.4-.2,3,.7,5.7,2.5,8,2.9,3.5,6.7,5.3,11.2,5.4Z" style="fill: #fff;"></path><path d="M265,347c-1.8.1-1.4-1.5-2.4-2.1-.5,0-1.3-.1-2-.1-13.5-34.3-14.9-82.6,9.8-126,25.6-45,69.7-70.4,113.3-74.9-.7.4-1.4.7-2.1,1.2-.7.4-1.7.4-1.9,1.6-.1.3-1,.6-1.6.7-7.6,1.3-15.1,3.1-22.4,5.5-12.8,4.2-24.8,10.1-35.9,17.6-12.2,8.2-22.8,18.1-32,29.5-10.9,13.5-19.1,28.4-24.7,44.7-2.8,8.2-4.9,16.6-6.3,25.1-.9,6.1-1.7,12.2-1.7,18.3s-.3,4.2-.3,6.3c.4,11,1.3,21.9,3.9,32.6,1.8,6.6,3.7,13.2,6.3,20Z" style="fill: #fff;"></path><path d="M420.6,192.4c.6,8.5-6.6,18.7-17.6,19.2-13.8.7-21.6-9.3-21.7-19.2-.1-10.5,8.8-19.8,19.8-19.8,11.1,0,19.5,8.6,19.5,19.8ZM419.2,190c0-4.8-2.3-8.4-6.3-10.3-5-2.3-11.9,1.5-12.7,6.4-.4,2.5-.1,4.8.6,7.1,1.5,4.6,6.3,7.5,11,6.5,4.5-.9,7.4-4.7,7.4-9.7Z" style="fill: #fff;"></path><path d="M633.4,315c9.5,0,17.3,8,17.3,17.5s-8,17.4-17.5,17.4-17.4-8-17.4-17.6c.1-9.4,8.1-17.3,17.6-17.3ZM633.5,320.5c-6.5-.1-12,5.4-12,11.8s5.4,11.8,11.7,11.9c6.4.1,12.1-5.5,12.1-11.8,0-6.3-5.5-11.8-11.8-11.9Z" style="fill: #fff;"></path><path d="M144.2,332.6c-.2-9.5,8-17.3,17.3-17.2,9.5.1,17.2,7.9,17.1,17.4-.1,9.4-7.8,17.1-17.2,17.1s-17.3-7.7-17.2-17.3ZM173,332.5c0-6.5-5.4-11.7-11.9-11.6-6.3.1-11.7,5.6-11.6,12,.1,6.3,5.5,11.5,11.8,11.5s11.7-5.4,11.7-11.9Z" style="fill: #fff;"></path><path d="M179.9,335.8c0-9.6,7.7-17.3,17.3-17.2,9.3,0,17.2,7.9,17.2,17.1s-7.7,17.3-17.2,17.3c-9.6,0-17.4-7.7-17.3-17.2ZM185.4,335.7c0,6.4,5.2,11.8,11.7,11.8,6.3.1,11.8-5.5,11.8-11.8s-5.3-11.6-11.6-11.6c-6.6-.1-11.8,5.1-11.9,11.6Z" style="fill: #fff;"></path><path d="M682.5,345.5c-2.6.2-4.6.4-6.6.6-.9.1-1.5-.3-2-.9-1.7-1.8-3.4-3.6-5.1-5.5-.5-.6-.9-1.3-1.6-2.1-2,3-3.7,5.5-5.3,8.1-.8,1.3-1.6,1.9-3.2,1.9s-3.2.2-5.4.4c3.3-4.7,6.3-9,9.4-13.4l-10.2-10.2c2.7-.3,4.9-.6,7.1-.6s1.2.7,1.6,1.1c1.7,1.8,3.4,3.7,5.2,5.7,1.4-2.2,2.7-4.2,3.9-6.3.7-1.2,1.5-1.8,2.9-1.8s3.2-.3,5.4-.5c-2.8,4.1-5.3,7.8-7.9,11.8,4,3.9,7.7,7.6,11.8,11.7Z" style="fill: #fff;"></path><path d="M120,343.1c.7-1.8,1.3-3.4,2-5.4.6.7,1,1.2,1.4,1.6,2.4,2.7,5.9,3.3,8.9,1.6,3-1.7,4.5-5.1,3.5-8.4-.9-3.2-4-5.4-7.4-5.2-.8,0-1.7.2-2.6.4,0-.4,0-.7.2-1,1.7-4.6,3.3-9.2,5.1-14,4,.3,7.9.7,12.1,1-.2,1.9-.3,3.5-.4,5.4-2.7-.2-5.3-.4-7.9-.6-.5,1.4-1,2.6-1.5,4.1,4.6,2.3,7.7,5.7,8.1,11,.3,3.5-.8,6.6-3.2,9.2-5.3,5.6-13.4,5.7-18.3.3Z" style="fill: #fff;"></path><path d="M309.4,186.7v2.3c1.1-.7,2-1.3,2.9-1.8s2-.9,3-1.3c1.2-.5,2.5-.9,3.7-1.3,1.6-.6,3.4-.7,5.1-.9s2.9.3,3.4,1.6c-3,1.7-5.9,3.5-8.9,5.1-.6.3-1.7.5-2.2.2-1.5-1-2.9-.3-4.1.2-2.6,1.1-5.3,2.1-7.7,3.8-1.9,1.4-4.2,2.3-6.6,3.6,3.3-4.4,7.2-7.7,11.4-11.5Z" style="fill: #fff;"></path><path d="M516.6,234.3c-9.3,1.3-17.5-.8-23.9-8-.8.2-1.6.4-2.5.6-3.5-3-4.8-7.8-8.7-10.4,3.4,1.5,6.7,3.1,9,6.2,3.4,4.4,7.7,7.9,13,9.7,3.7,1.2,7.4,2.3,11.4,2,.6-.2,1.2-.1,1.7-.1Z" style="fill: #fff;"></path><path d="M475.4,213.9c-.4.1-.5.2-.6.2-3.1-.5-6.1.5-9.1.8-2,.1-4,1.1-6,1.8-1.1.4-2.1,1.1-3.3,1.4-3.6,1.2-7,2.8-10.1,5.1-1.7,1.2-3.7,2-5.5,3.2-1.7,1.2-3.3,2.6-5.2,3.8.5-.8.8-1.9,1.4-2.5,1.3-1.2,2.8-2.1,4.2-3.1,2.2-1.6,4.4-2.9,6.8-4,2.5-1.2,4.8-2.5,7.4-3.6,3.2-1.3,6.4-2.5,9.7-3.5,1.6-.5,3.4-.3,5.1-.3,1.6.1,3.3.4,5.2.7Z" style="fill: #fff;"></path><path d="M461.8,189.2c.6,1,0,1.7-.5,2-3,1.4-5.5,3.6-8.3,5.3-4.2,2.7-7.9,6.2-11.4,9.7s-6.9,7.1-9.5,11.4c-.1.2-.5.3-1,.5-.2-1-.3-1.8-.5-2.7,3.5-1.1,4.8-4.5,7.2-6.7,2.5-2.2,4.8-4.7,7.1-7.1,2.5-2.5,5.4-4.5,8.2-6.7,2-1.5,4-3.2,6.4-4.2.9-.3,1.5-.9,2.3-1.5Z" style="fill: #fff;"></path><path d="M463.6,189.6v-1.6c2.1-1.1,3.8-2.3,5.8-3,2.1-.8,3.6-2.2,5.2-3.6,1.4-1.2,2-2.6,1.7-4.4.6-.4,1.1-.7,1.7-1.2.9.5,1.8,1,2.8,1.6-2.8,1.7-4.1,4.8-6.9,6.2s-1.9,1.1-2.9,1.7c-1.9,1.1-3.7,2.2-5.6,3.3-.3.3-.9.6-1.8,1Z" style="fill: #fff;"></path><path d="M428.8,240.3c-1.7-3.9-.5-6.9,3.6-9.1.1.1.1.3.2.4,1,2.1.1,3.6-1.4,5.1-.9,1-1.5,2.3-2.4,3.6Z" style="fill: #fff;"></path><path d="M436.9,243.8c-.6.7-1.2,1.3-1.8,1.9-3.5-2.1-4.3-3.5-2.3-6.5,1.4,1.6,2.7,3,4.1,4.6Z" style="fill: #fff;"></path><path d="M406.9,367.8c-2.8,1.9-7,2.2-8.2,1,2.7-.4,5.5-.7,8.2-1Z" style="fill: #fff;"></path><path d="M452.1,362.9c-.5,1.1-1.6.6-2.4.7-3.4.5-6.8,1.5-10.3,1,4.3-.6,8.6-1.1,12.7-1.7h0Z" style="fill: #fff;"></path><path d="M270.6,344.4c.7,1.1,1.3,2.3,2.3,3.9-.8-.3-1.4-.4-1.5-.6-.5-1-.8-2.1-1.2-3.1.1,0,.2-.2.4-.2Z" style="fill: #fff;"></path><path d="M491.7,177.2h-3.1c.4-.6.7-1.2,1.1-1.9.5.5,1.1,1,2,1.9Z" style="fill: #fff;"></path><path d="M329,268.5c.8-.2,1.8-.5,2.5-.7q-1.1,1.5-2.5.7Z" style="fill: #fff;"></path><path d="M348.4,226.9c-.1-1.3-.3-2.7-.4-4h.4v4h0Z" style="fill: #fff;"></path><path d="M452.2,362.9c1-.1,1.9-.3,2.9-.4v.4h-2.9c-.1,0,0,0,0,0Z" style="fill: #fff;"></path><path d="M302.4,602.7v-73.3c.2,0,.3-.3.4-.3,4.4,0,8.8-.4,13.1,0,6.5.6,11.2,4.1,13.8,10.1,2.6,6,1.8,11.7-2,17-.4.5-.7,1-1.2,1.6.8.4,1.5.7,2.2,1,9.4,4.3,14.9,14.1,13.5,24.2-1.4,10-9.1,18-19.2,19.7-.7,0-1.4.2-2.1.2h-17.3c-.3-.2-.7-.3-1.2-.3ZM308.4,563.3c-.5,2.5-.4,31.6.2,33.4,4.4,0,9,0,13.4-.5,8.2-1.1,14.3-8.5,14.1-16.6-.2-8.4-6.3-15.4-14.5-16.3-4.3-.5-8.7,0-13-.2,0,0-.1.2-.2.2ZM308.3,556.9h6.1c5.3,0,10-4.2,10.6-9.4.7-5.7-2.8-10.9-8.3-12.2-2.8-.6-5.5-.3-8.4-.3,0,7.3,0,14.5,0,21.9Z" style="fill: #fff;"></path><path d="M441.4,529v73.4c-1.7.5-9.3.6-12.8.2v-67.6c-1.5,0-2.8-.2-4.3-.3v-5.6c5.6-.1,11.2-.1,17.1-.1Z" style="fill: #fff;"></path><path d="M499.1,602.7h-13v-67.7c-1.5,0-2.8-.2-4.2-.3v-5.7h17c.3,6.2.1,12.4.1,18.5v36.7c.1,6,.1,12.1.1,18.5Z" style="fill: #fff;"></path><path d="M286.3,534.9c-1.6,0-2.8-.2-4.2-.3v-5.6h16.8c.5,1.8.7,67.8.2,73.7-2,.2-4.1,0-6.2,0h-6.6c-.2-2.6-.1-5-.1-7.5v-52.9c.1-2.5.1-4.9.1-7.5Z" style="fill: #fff;"></path><path d="M370.4,669.8c3.7-.4,6.9-.9,10.1-1.2,7.1-.8,14.2-.5,21,2.2,2.1.8,4,2.1,5.9,3.3.9.6,2.1,1.6,1.5,2.9-.6,1.3-2,.4-2.9.2-5.7-1.5-11.4-2.6-17.2-3-6.7-.4-13.2.4-19.7,1.8-.7,0-1.3.8-1.9,1.3-2,1.7-3.9,3.6-6,5.2-1.9,1.4-4.2,2.1-6.6,1.9-3.4-.2-4.7-2.4-3.2-5.5.9-2,2.3-3.6,4.2-4.6,2-1.1,4.2-2,6.4-2.8,1-.4,1.7-.8,2.2-1.8,8.5-18.9,16-38.3,20.3-58.7.5-2.4.9-4.7,1.6-7.1.4-1.3,1.1-2.6,1.8-3.7,1-1.4,2.5-2,4.1-1.5,1.7.5,2.6,1.8,2.5,3.5-.1,2.6-.3,5.3-.8,7.9-1.8,8.4-4.7,16.5-8,24.4-4.5,10.9-9.3,21.8-14,32.7-.5.7-.8,1.5-1.3,2.6ZM353.8,681.1c3.9-.6,5.8-3.3,7.9-6.1-3.6,0-7.4,3-7.9,6.1Z" style="fill: #fff;"></path><path d="M383,528.5c9.3,24.9,18.5,49.4,27.7,74.1h-13.8c-2.9-8-5.8-16.1-8.7-24.1-3.7-10.3-7.4-20.5-11.1-30.8-.5-1.4-.6-2.6,0-4,1.7-4.3,3.3-8.7,5-13.1.2-.5.5-1,.9-2.1Z" style="fill: #fff;"></path><path d="M215.5,619.7c5.9-27.3,11.8-54.4,18.2-81.3h3.6c-5.2,26.1-11,51.8-16.6,77.8,39.7,5.9,79.2,11.7,118.7,17.6.7,1.3,1.3,2.5,2.2,4.2-42.3-6.1-84.1-12.1-126.1-18.3Z" style="fill: #fff;"></path><path d="M586,619.7c-40.9,5.9-81.4,11.8-122,17.7-.3-1.2-.6-2.3-.9-3.7,19.7-3,39.3-5.9,58.9-8.8,19.6-2.9,39.1-5.7,58.8-8.6-5.6-26-11.2-51.8-16.8-77.8h3.8c6.4,26.8,12.3,53.8,18.2,81.2Z" style="fill: #fff;"></path><path d="M364.1,593.6c-1.2,3-2.4,6.1-3.7,9.2h-6.1c.1-1.8,17.4-46.6,20.1-52.2,1,1.2,16,42.8,16.8,46.5-1.7.9-3.4,1.8-5.3,2.8-.7-1.9-1.5-4.1-2.3-6.3h-19.5ZM374.6,567.8c-.2,0-.3,0-.5,0-2.6,6.6-5.2,13.2-7.8,19.9h15.4c-2.5-6.7-4.8-13.3-7.1-19.8Z" style="fill: #fff;"></path><path d="M502.2,529c.7,0,1.3,0,1.9,0h3.7v65.4h21.9v8.4h-27.3c-.4-1.8-.7-67.9-.2-73.7Z" style="fill: #fff;"></path><path d="M444.5,602.5v-73.5h5.6v65.2h22v8.1c-1.6.6-24.4.7-27.6.2Z" style="fill: #fff;"></path><path d="M442.3,649.8c-.1.8-.2,1.6-.2,2.3-.1,3.9,1.7,5.4,5.4,4.2,2.3-.8,4.4-2.2,6.9-3.4.3.7.7,1.6,1.1,2.7-3.2,3.7-7.1,5.7-11.9,6.2-.5,0-1.1,0-1.6,0-5.8,0-9.3-4-8.6-9.8.3-2.3.9-4.6,1.8-6.7,2.3-5.4,6-9.6,11.3-12.3,3.3-1.6,6.8-2.3,10.4-1.3,3.2.9,4.5,3.2,3.9,6.4-.4,1.9-1.1,3.6-2.6,4.9-1.8,1.5-3.6,3.1-5.7,4-2.8,1.2-5.8,1.7-8.7,2.6-.3,0-.9,0-1.5.2ZM444,645.6c4-.8,7-2.2,8.9-5.3.4-.7.7-1.6.8-2.4.2-1.6-.6-2.4-2.2-1.9-1.1.3-2.1,1-3,1.7-2.1,2-3.4,4.6-4.5,7.9Z" style="fill: #fff;"></path><path d="M410.2,632.2c1.7-.3,3.2-.8,4.7-.8,2.5,0,3.7,1.2,3.6,3.8s-.4,5.3-.6,7.9c-.3,3.2-.5,6.5-.8,10.2.7-.7,1.1-1,1.4-1.4,2.6-3.3,5.2-6.6,6.8-10.6.7-1.6,1-3.2,1-5s.1-2.2.5-3.2c.8-2,3.1-3,5.3-2.3,1.7.5,2.8,2,2.4,4.2-.2,1.7-.7,3.4-1.5,4.9-2.1,4.4-5.3,8-8.6,11.6-2.7,2.9-5.5,5.7-8.1,8.7-1,1.2-2.1,1.7-3.6,1.6-.9,0-1.8,0-3,0,.1-9.9.3-19.5.5-29.6Z" style="fill: #fff;"></path><path d="M207,625.3c1.1-4.8,2.1-9.2,3.1-13.7,1.3-5.9,2.6-11.9,4-17.8,2.9-12.3,5.8-24.5,8.6-36.8.1-.5.2-.9.3-1.4.2-.9.8-.7,1.7-.4-4.8,22.7-10.2,45.4-15.2,68.4,34.4,5.1,68.5,10.2,102.7,15.2v.4c-1.1,0-2.2,0-3.2,0-7.2.9-14.2-1.2-21.2-2.1-10.1-1.3-20.2-2.9-30.3-4.4-11.3-1.6-22.5-3.3-33.8-4.9-4.8-.7-9.6-1.4-14.3-2.1-.7-.1-1.4-.2-2.4-.4Z" style="fill: #fff;"></path><path d="M594.6,625.3c-1.9.3-3.5.6-5.1.8-15.9,2.3-31.8,4.7-47.7,7-14.9,2.2-29.8,4.4-44.7,6.5-1.2.2-2.4-.3-3.6-.3-1.5,0-3,0-4.6-.4,34.2-5.1,68.5-10.1,103-15.3-5-22.5-10-44.8-15.1-67.3.6-.2,1-.3,1.7-.5,5.4,23.2,10.7,46.2,16.1,69.5Z" style="fill: #fff;"></path><path d="M364.6,643c-2.1.6-4.3.3-6.4.3-1.7,0-3.4-.4-5.1-.7-4.9-1-8.7-3.7-11.1-8.2-1-1.9-1.9-3.9-2.9-6.1,5.4-2.8,10.7-2.9,16-.5,4.5,2.2,9.4,7.6,9.5,15.2Z" style="fill: #fff;"></path><path d="M364.9,645.8c-.7,6.8-3.5,11.9-9.3,15.1-5.2,2.9-12.7,2.2-16.1-.2,2-8.9,8.4-14.4,17.4-14.9,2.5,0,5.1,0,8,0Z" style="fill: #fff;"></path><path d="M395.8,657c1.2-.6,2.1-1,3-1.4,1.1,2.2,1.1,2.5-.8,3.8-2.3,1.6-4.7,2.7-7.6,2.4-2.9-.2-4.1-1.8-3.1-4.6,2.7-7.8,5.5-15.5,8.3-23.3.6-1.7,1.7-2.8,3.4-3.1,3-.6,5.2,1.7,4.2,4.5-1.6,4.8-3.4,9.5-5.1,14.3-.7,2-1.4,4-2.1,5.9,0,.4,0,.8-.2,1.5Z" style="fill: #fff;"></path><path d="M407,622.7c-.1,1.9-1,3.5-2.9,4.5-2.4,1.3-4.7-.2-4.5-2.9.1-2.1,1.2-3.7,3.1-4.6,2.2-1,4.3.3,4.3,3Z" style="fill: #fff;"></path><path d="M573.2,536.8c1.3.9,1.6,1.6,2.1,6-.6-.2-1.1-.2-1.3-.5-.4-.8-.9-4.1-.8-5.5Z" style="fill: #fff;"></path><path d="M372.8,639.1c-2.1-.3-4.4.9-6.4-.7,2.2-.5,4.3.3,6.4.7Z" style="fill: #fff;"></path><path d="M437.2,639.5q-.1-1.8,2.1-2c-.8.8-1.4,1.3-2.1,2Z" style="fill: #fff;"></path><path d="M229,537.8c-.3,0-.7.3-1,.3s-.5-.2-.8-.3c.2-.3.4-.7.7-.9.1,0,.5.2.7.3.1.2.2.4.4.6Z" style="fill: #fff;"></path><path d="M464.1,434.3c-1.1-2-.3-4-.3-6.1s.7-1.4,1.2-1.8c2.9-2.1,5.9-4.1,9.8-3.7,1.8.2,3.6-.5,5-1.7,2-1.6,3.9-3.3,5.9-5-.6-4.7-3-7.2-8.5-8.5v-3.5h29.2v3.5c-.4.1-.9.3-1.4.4-2.6.3-4.4,1.9-5.6,4.1-1.3,2.4-1.9,4.9-1.9,7.6v45.2c0,1.2.2,2.3.5,3.5,1.1,4.3,3.3,7.6,8.4,7.9v3.9h-10.1c-4.1-.1-2.8.6-5.3-2.7-7.3-9.8-14.6-19.7-21.9-29.5-.7-.9-1.3-1.6-2.5-1.7s-2-.9-2.5-1.9c-.4-.9-1.1-1.1-2-1.3-4.4-.9-8.8-1.9-13.2-2.9s-3.8-2.1-4.8-3.8c-.8-1.3-.4-3.3-.6-5.2,1.5.4,2,1.4,2.4,2.4.5,1,.8,2,1.2,3,1,2.1,2.1,2.6,4.4,1.9.1,0,.1-.1.2-.1,2.5-1,5-2,7.8-3.1-5.8-7.9-11.6-15.7-17.7-24-.2.9-.3,1.4-.3,1.9v50.3c0,2.6.4,5.1,1.5,7.5,1.4,3,3.4,5,6.9,5.2.2,0,.4.1.8.2v3.6h-29.2v-3.5l.2-.2c5.8-.2,8.7-5.9,8.9-10.6v-32.5c0-.5-.1-1.1-.1-1.9-3.9-.6-7.3-2.9-11.3-3.2-3.4-.3-6.6.3-9.2,2.4-3.2,2.5-6.6,4.6-10.3,6.5-3-1.6-6.3-1.5-9.7-.8-.5.1-1,.3-1.6.5-1.2.4-1.8,1.1-1.7,2.4.1,1,0,1.8-1,2.4-.3.2-.5.9-.5,1.4,0,7.3-.1,14.7,0,22,0,1.3.3,2.6.7,3.9,1.2,4.2,3.5,7.1,8.4,7.3v3.5c-1.6.5-26.1.7-29.2.2,0-.3-.1-.7-.2-1.1v-2.2c.3-.2.4-.4.5-.4,4.3-.3,6.7-3,8-6.8.5-1.5.8-3.2.8-4.8.1-6.5,0-13,0-19.4s-.1-.8-.2-1.4c-2.1-.1-4,.7-5.7,1.7-2.9,1.8-5.6,3.9-6.5,7.6-.6,2.2-2.2,3.3-4.5,3.9-4.2,1.1-8.3,2.5-12.5,4-.6.2-1.3,1-1.5,1.6-1,3.5-3.6,5.1-6.7,6.2-1.4.5-2.8,1.1-4.2,1.6-.4.1-.9-.1-1.3-.4,2.7-.9,5.3-2.2,7.8-3.4,1.2-.6,1.9-1.4,2.4-2.7.7-2,1.7-3.8,2.7-5.9-.2-.5-.6-1.2-.7-1.9-.3-1.4-.9-2.5-2.2-3.4-1.3-.9-1.9-2.2-2-3.8-.1-1-.2-2-.1-3,.1-1.8-.7-2.9-2.3-3.7-1.9-1-3.8-2-6.1-3.1-.1-.4-.2-1.2,1-1.2h.5c3,.9,5.7,2.4,8.1,4.5.5.5.8,1.4.8,2.1-.1,1.8.9,3,2.1,3.9,2.9,2.3,6.3,3.4,9.9,3.9,2.9.4,5.3-.9,7.2-3.1.3-.4.5-1,.6-1.5.7-2.8,2.4-4.4,5.3-4.8,2.2-.3,4.4-.8,6.7-1.3.4-.1.7-.2,1.2-.4v-31c-.3-.1-.6-.2-.9-.2h-11.7c-1.1,0-2.2.3-3.2.5-4.9,1.2-6.8,3.2-7.9,8.4-.6,0-1.2.1-1.8.1h-1.6c-.6-.8-1.1-1.4-1.5-2.1-.2-.4-.5-.8-.5-1.2v-11.4c1.7-.5,65.3-.7,69.1-.2v12.8h-3.7c.2-4.1-2.6-5.5-5.8-6.3-2.2-.6-4.6-.8-6.9-.9-3.6-.1-7.1,0-11,0-.1,1-.1,1.8-.1,2.7v15.9c0,1.1.3,2.4-1.1,3-.3.1-.3.8-.4,1.3-.1.9,0,1.9,0,3.1.6-.4,1-.5,1.3-.8,2.5-2.6,5.5-3,9-2.4,4.6.8,8.7-.1,12.1-3.7,2.1-2.2,4.7-3.6,7.7-4.1,2.3-.4,4.5.1,6.4,1.4,2.6,1.8,5.6,2.6,8.8,3.6-.1-4.8.6-9.3-.5-13.7-.4-1.5-1-3-1.8-4.3-1.2-2.1-3-3.4-5.4-3.6-.5,0-.9-.2-1.5-.3v-3.6c.8-.1,1.4-.1,2.1-.1h15.7c1.6,0,2.5.5,3.5,1.7,6.6,9.1,13.4,18.1,20.1,27.1.5.5,1.1,1,1.6,1.6.4.5.6,1.2,1,1.7,6.5,8.8,13,17.5,19.5,26.3.4.5.9,1.1,1.6,2,.1-1.2.2-2,.2-2.7,0-4-.1-7.9-.1-11.9,0-10.1,0-20.1-.1-30.2,0-.5-.2-1-.4-1.9-1.3,1.1-2.4,2-3.4,2.9-2,1.9-4.1,3.5-7,3.3-3.4-.3-6,1.3-8.6,3-1,.7-1.4,1.5-1.3,2.7.1,1.1.1,2.2,0,3.2,0,1-.4,1.7-1.4,1.6Z" style="fill: #fff;"></path><path d="M288.5,476.2v3.5c-1.8.5-23.9.7-29.2.3v-3.5c.1-.1.3-.2.4-.2,4.3-.3,6.4-3.1,7.7-6.8.9-2.5,1.1-5.2,1-7.8v-4.1c-.6-.2-1.1-.3-1.9-.5.7-.2,1.1-.3,1.7-.4.3-3.2-.3-6.4-.2-9.7.1-3.2.3-6.3.2-9.7-1.2.1-2.2.3-3.1.4-1.9.2-2.8-.5-3.1-2.4-.1-.8-.1-1.7-.1-2.6v-2.9c-2.5-1.1-5.2.6-7.6-1,.9-1.1,1.8-2.2,2.8-3.4-.7-1.1-1.3-2.2-1.9-3.2-1-1.4-2.1-2.4-4-2.4s-.8-.1-1.6-1.1c3-.2,5.4.4,6.9,3.2.1.2.3.4.4.6q2.1,3.1-.3,5.8c.8.5,1.6.2,2.4.1,3.8-.3,4.5,0,4.4,4.2,0,1.1.1,2.3.2,3.7,1.7-.2,3-.3,4.5-.5,0-.9.1-1.5.1-2.2,0-4.4,0-8.9-.1-13.3,0-1.6-.4-3.3-.8-4.8-1.1-4.3-3.3-7.4-8.3-7.7v-3.5c1.7-.5,26.8-.5,29.2-.1v3.3c-.2.1-.2.2-.3.2-5.5.6-7.5,4.5-8.4,9.2-.3,1.7-.4,3.4-.5,5.1-.1,5.5,0,10.9,0,16.4s.1.9.1,1.5h38.2v-4.4c0-.3,0-.7-.2-.9-1.8-1.2-3.3-3-5.8-2.4-1.2.3-2.4.6-3.7.8-3.1.6-5.9.1-8.4-1.8-.8-.5-1.5-1.1-2.4-1.5-2.9-1.5-5.6-.9-7.2,1.9-.9,1.6-1.6,3.4-2.4,5.1-.3.6-.6,1.3-.8,1.9-.4,1-1.2,1.2-2,.8.8-1.9,1.5-3.7,2.3-5.6.7-1.8,1.7-3.5,3.3-4.8,2.3-1.9,4.7-2.3,7.4-.9,1.2.6,2.3,1.3,3.4,2,2.2,1.5,4.6,1.7,7.2,1.2.8-.2,1.5-.4,2.3-.5,2.1-.5,4.2-.5,6,1,.2.2.5.2,1,.4.1-.7.2-1.2.2-1.7v-10.5c0-2.7-.6-5.2-1.9-7.6-1.3-2.5-3.2-4.2-6.1-4.5-.3,0-.6-.1-.9-.2-.1,0-.1-.1-.3-.2v-3.5h29.2v3.5c-.2.1-.5.3-.8.3-3.5.3-5.6,2.5-6.9,5.6-1,2.4-1.4,4.9-1.4,7.5,0,13.8-.1,27.6,0,41.4,0,2.5.7,4.9,1.2,7.3.2.9.6,1.8,1.1,2.5,1.5,2.4,3.4,4.3,6.8,3.9v3.8h-29c-1.1-2.5,1-4,1.7-5.8.2,0,.4-.1.5-.1,2.7,1,3.2.9,4.6-1.6,1.3-2.3,2.2-4.7,2.2-7.3.1-6.6,0-13.3,0-19.9s-.1-.5-.1-.7c-1.7-.4-34.5-.6-38-.2-.1.5-.2,1.1-.2,1.7,0,5.5-.1,10.9,0,16.4,0,2,.3,4.1.8,6,1.2,4.4,3.3,7.7,8.5,7.9Z" style="fill: #fff;"></path><path d="M700.7,400.8h3.5v16.9c-1.8.8-3-.1-4.3-1.3-12.3-11.1-32-11.4-44.7-.5-.3.3-.6.5-.9.8q-4.3,4-4.3,9.8v33.9c0,1.7.4,3,1.5,4.2,12,13.5,32.8,15.3,47,4.2,1.3-1,2.1-2.1,2-3.9-.2-2.9,0-5.8,0-8.7,0-1.9-.4-3.9-1-5.7-1.2-3.7-3.5-6.4-8-6.6v-3.8h22.1v3.6c-.3.1-.6.3-1,.3-3,.2-4.9,1.9-6.2,4.4-1.3,2.4-1.9,5.1-1.9,7.9s0,7.2,0,10.8c0,1.3-.4,2.2-1.3,3-6.2,5.6-13.5,8.8-21.8,9.8-15.8,1.7-30.5-6.7-37.5-19.7-11.9-22.3.3-48.6,23.5-54.9,8.2-2.2,16.2-1.5,24.2,1.4.7.3,1.5.5,2.2.6,2.5.5,4.2-.3,5.5-2.6.6-1.3,1-2.5,1.5-3.9Z" style="fill: #fff;"></path><path d="M106.5,475.9c.9,0,1.6.1,2.3.1,5.3,0,10.6.1,15.9,0,2.3-.1,4.7-.4,6.9-1.1,3.8-1.1,6.4-3.5,6.6-7.9h3.6v12.8h-54v-3.5c.2-.1.3-.3.4-.3,4.1-.3,6.3-2.8,7.5-6.4.7-2.1,1.2-4.4,1.2-6.6,0-14.3,0-28.6,0-42.8,0-2.4-.6-4.8-1.4-7-1-3.1-3.2-5.1-6.6-5.5-.3,0-.6-.2-1-.3v-3.5h27.8v3.5c-.2.1-.5.2-.8.3-3.4.3-5.5,2.4-6.7,5.4-1.1,2.5-1.6,5.1-1.6,7.7v53.4c-.2.5-.1,1-.1,1.7Z" style="fill: #fff;"></path><path d="M149.2,479.9v-3.5c.3-.1.6-.3.9-.3,3.4-.2,5.5-2.1,6.7-5.1.8-2.1,1.5-4.5,1.5-6.8.2-10.7,0-21.4.2-32,0-1.2-1.1-2.2-.2-3.6.6-1,.2-2.6.2-3.9-.1-2.9-.2-5.8-.6-8.6-.2-1.4-.8-2.8-1.5-4.1-1.2-2.3-3-3.7-5.6-4-.5-.1-.9-.2-1.4-.3v-3.6h29.2v3.6c-.3.1-.6.2-.9.3-3.5.4-5.7,2.5-6.8,5.7-.7,2-1.3,4.2-1.3,6.4-.1,14.7-.1,29.5-.1,44.2s.1,2.5.4,3.7c1,4.6,3.1,8.2,8.6,8.5v3.7c-9.8-.3-19.4-.3-29.3-.3Z" style="fill: #fff;"></path><path d="M241.4,416.9c-3.9.6-7.8,1.2-11.7,1.9-1.5.2-2.9.5-4.4.8-1.6.4-2.7,1.5-2.9,3.3-.4,3.7-2.4,6.1-5.6,7.8-.6.3-1.4.7-1.7,1.2-1.1,1.9-3,2.7-4.9,3.2-3.2.9-5.5,3.1-8.3,4.7-.5.3-.9,1.1-1.1,1.7-1,2.2-2.9,3.1-5.1,3.4.2-.2.4-.4.7-.5,1.9-.7,3.2-1.8,3.9-3.7.2-.7.9-1.3,1.5-1.7,3.3-2,6.4-4.5,10.3-5.4.5-.1,1.1-.5,1.3-.9,1-1.6,2.6-2.5,4.1-3.4,2-1.2,3.3-2.8,3.6-5.2.5-4.1,2.8-5.7,6.8-6.1,2.8-.2,5.5-.7,8.3-1.4,1.7-.5,3.4-.9,5.2-.3-.1.3,0,.5,0,.6Z" style="fill: #fff;"></path><path d="M249.8,470.1v-4.9c2,1.4,2.1,3,0,4.9Z" style="fill: #fff;"></path><path d="M651.5,406h-8.5v-.2h8.4c0,.1,0,.2,0,.2Z" style="fill: #fff;"></path><path d="M179,445c-1.8-.7-3.7-1.4-5.5-2.2,1.5,0,3.5.8,5.5,2.2h0Z" style="fill: #fff;"></path><path d="M137.3,441.1h-1.3c.4-.1.9-.1,1.3,0q0-.1,0,0Z" style="fill: #fff;"></path><path d="M663.5,400.2h1.4c-.4,0-.9,0-1.4,0,0,0,0,0,0,0Z" style="fill: #fff;"></path><path d="M655.6,404.6c-.4.2-.8.4-1.3.6,0-.1,0-.2,0-.3.4-.2.8-.4,1.3-.6,0,0,0,.2,0,.3Z" style="fill: #fff;"></path><path d="M483,444.4c2.5,1.3,1.7,3.5,1.5,5.5-.2-1.9-.1-3.9-1.5-5.5h0Z" style="fill: #fff;"></path><path d="M477.6,445c-.7,1.2-1.9,1.8-3.1,2.3.8-1.2,1.7-2,3.1-2.3h0Z" style="fill: #fff;"></path><path d="M483,444.4c-1.8.2-3.6.4-5.4.6h0c1.7-1.5,3.5-1,5.4-.6h0Z" style="fill: #fff;"></path></g></g></svg> 