<?xml version="1.0" encoding="UTF-8"?> <svg xmlns="http://www.w3.org/2000/svg" version="1.1" viewBox="0 0 100 100"><g><g id="Layer_1"><g><g><path d="M10.7,64.6v8h-3.9v-19.5h3.9v8h3.7v-8h3.9v19.5h-3.9v-8h-3.7Z" style="fill: #fdcd37;"></path><path d="M29.7,53c.8,0,1.4.3,2,.8.6.5.9,1.2.9,1.9v14.2c0,.7-.3,1.4-.9,1.9-.6.5-1.2.8-2,.8h-5.7c-.8,0-1.4-.3-2-.8-.6-.5-.9-1.2-.9-1.9v-14.2c0-.7.3-1.4.9-1.9.6-.5,1.2-.8,2-.8h5.7ZM25,56.7v12.3h3.7v-12.3h-3.7Z" style="fill: #fdcd37;"></path><path d="M35.6,72.6v-19.5h3.9v15.9h5.4v3.6h-9.3Z" style="fill: #fdcd37;"></path><path d="M46.5,72.6v-19.5h3.9v19.5h-3.9ZM50,49.1v2.5h-3.2v-2.5h3.2Z" style="fill: #fdcd37;"></path><path d="M60.8,65.6h-1.8v-3.6h5.7v7.9c0,.7-.3,1.4-.9,1.9-.6.5-1.2.8-2,.8h-5.7c-.8,0-1.4-.3-2-.8-.6-.5-.9-1.2-.9-1.9v-14.2c0-.7.3-1.4.9-1.9.6-.5,1.2-.8,2-.8h5.7c.8,0,1.4.3,2,.8.6.5.9,1.2.9,1.9v3.9h-3.9v-3h-3.7v12.3h3.7v-3.3Z" style="fill: #fdcd37;"></path><path d="M70.9,68.6l-.8,4h-3.9l3.8-19.5h5.2l3.8,19.5h-3.9l-.8-4h-3.3ZM71.6,65h1.9l-.9-8.3-.9,8.3Z" style="fill: #fdcd37;"></path><path d="M84.4,60v12.6h-3.9v-19.5h5.4l3.2,12.6v-12.6h3.9v19.5h-5.4l-3.2-12.6Z" style="fill: #fdcd37;"></path><path d="M9.2,80h-3.6v-3.4h10.7v3.4h-3.5v14.9h-3.6v-14.9Z" style="fill: #fff;"></path><path d="M21.1,91.5h3.4v-14.9h3.6v15.8c0,.7-.3,1.3-.8,1.8-.5.5-1.2.7-1.9.7h-5.3c-.7,0-1.4-.2-1.9-.7-.5-.5-.8-1.1-.8-1.8v-15.8h3.6v14.9Z" style="fill: #fff;"></path><path d="M34.7,88.4v6.5h-3.6v-18.3h8c.7,0,1.4.2,1.9.7.5.5.8,1.1.8,1.8v4.7c0,1.2-.5,2.2-1.4,2.9.9.7,1.4,1.7,1.4,2.9v5.3h-3.6v-5.3c0-.3-.1-.6-.4-.9-.3-.2-.6-.3-.9-.3h-2.1ZM36.8,85c.3,0,.6-.1.9-.3.3-.2.4-.5.4-.8v-3.8h-3.4v5h2.1Z" style="fill: #fff;"></path><path d="M48,83.1v11.8h-3.6v-18.3h5l3,11.9v-11.9h3.6v18.3h-5l-3-11.8Z" style="fill: #fff;"></path><path d="M62.4,91.5h3.4v-14.9h3.6v15.8c0,.7-.3,1.3-.8,1.8-.5.5-1.2.7-1.9.7h-5.3c-.7,0-1.4-.2-1.9-.7-.5-.5-.8-1.1-.8-1.8v-15.8h3.6v14.9Z" style="fill: #fff;"></path><path d="M79.5,76.6h3.7l-3.5,18.3h-4.8l-3.6-18.3h3.7c.7,3.4,1.4,8.3,2.3,14.8.9-6.5,1.6-11.5,2.3-14.8Z" style="fill: #fff;"></path><path d="M86.8,91.2l-.7,3.7h-3.7l3.6-18.3h4.8l3.5,18.3h-3.7l-.7-3.7h-3.1ZM87.5,87.8h1.8l-.9-7.8-.9,7.8Z" style="fill: #fff;"></path></g><g><path d="M50,5.1c3.8,0,7.6,0,11.4,0,1.2,0,1.6.4,1.5,1.5,0,5.4-.7,10.6-2.5,15.7-1,3-2.4,5.8-4.6,8.2-1.3,1.4-2.9,2.4-4.9,2.7-2.4.4-4.4-.6-6.2-2.2-2.1-1.9-3.4-4.2-4.5-6.7-1.6-3.8-2.5-7.7-2.9-11.7-.2-2-.3-4.1-.4-6.1,0-1,.4-1.4,1.4-1.4,3.8,0,7.7,0,11.5,0Z" style="fill: #fdcd37;"></path><path d="M62.9,42.3h-25.9c0-1.6,0-3.3,0-4.9,0-.5.5-.9,1-1,.2,0,.4,0,.6,0,7.6,0,15.2,0,22.8,0,.1,0,.3,0,.4,0,.6,0,1.1.5,1.1,1.1,0,1.6,0,3.1,0,4.7Z" style="fill: #fdcd37;"></path><path d="M50,46.3c-4.6,0-9.1,0-13.7,0-1.2,0-1.6-.4-1.6-1.6,0-.2,0-.4,0-.6,0-.8.5-1.3,1.3-1.3.1,0,.3,0,.4,0,9.1,0,18.1,0,27.2,0,1.3,0,1.7.4,1.7,1.7,0,.2,0,.4,0,.6,0,.8-.5,1.2-1.3,1.2-1.6,0-3.2,0-4.7,0-3.1,0-6.2,0-9.3,0Z" style="fill: #fdcd37;"></path><path d="M60.4,28.3c.6-1.3,1.1-2.4,1.7-3.6.1-.2.3-.4.5-.5,2-1.4,3.9-2.9,5.4-4.8,1.1-1.4,1.9-2.8,2-4.6.1-2.6-2-4.3-4.6-3.7,0,0-.1,0-.3,0,0-.8,0-1.6.1-2.4,1.3-.3,2.5-.1,3.7.4,2.7,1.3,3.9,4.1,3.1,7.2-.4,1.6-1.1,3-2.1,4.3-2.6,3.3-5.9,5.6-9.6,7.7Z" style="fill: #fdcd37;"></path><path d="M39.5,28.3c-1.3-.8-2.6-1.6-3.8-2.5-2.4-1.7-4.6-3.6-6.3-6.1-1.2-1.9-2-3.9-1.7-6.2.4-3.3,4-5.7,7-4.8,0,.8,0,1.6.1,2.3-.7,0-1.3-.2-1.9,0-2.1.3-3.3,2.2-2.9,4.5.4,2.1,1.6,3.8,3.1,5.2,1.3,1.3,2.8,2.3,4.2,3.5.2.2.5.5.6.7.5,1.1,1,2.2,1.5,3.3,0,0,0,0,0,0Z" style="fill: #fdcd37;"></path><path d="M47.7,35.9v-2.6c1.5.4,3.1.4,4.6,0v2.6h-4.6Z" style="fill: #fdcd37;"></path></g><g><path d="M21,27.5c2,0,3.9,0,5.9,0,.6,0,.8.2.8.8,0,2.8-.4,5.5-1.3,8.1-.5,1.6-1.2,3-2.4,4.2-.7.7-1.5,1.3-2.5,1.4-1.3.2-2.3-.3-3.2-1.1-1.1-1-1.8-2.2-2.3-3.5-.8-1.9-1.3-4-1.5-6.1-.1-1-.1-2.1-.2-3.2,0-.5.2-.7.7-.7,2,0,4,0,6,0Z" style="fill: #fff;"></path><path d="M27.7,46.7h-13.4c0-.8,0-1.7,0-2.5,0-.3.2-.5.5-.5,0,0,.2,0,.3,0,3.9,0,7.9,0,11.8,0,0,0,.2,0,.2,0,.3,0,.6.2.6.6,0,.8,0,1.6,0,2.4Z" style="fill: #fff;"></path><path d="M21,48.8c-2.4,0-4.7,0-7.1,0-.6,0-.8-.2-.8-.8,0-.1,0-.2,0-.3,0-.4.2-.7.7-.7,0,0,.1,0,.2,0,4.7,0,9.4,0,14.1,0,.7,0,.9.2.9.9,0,.1,0,.2,0,.3,0,.4-.3.6-.7.6-.8,0-1.6,0-2.5,0-1.6,0-3.2,0-4.8,0Z" style="fill: #fff;"></path><path d="M26.4,39.5c.3-.7.6-1.3.9-1.9,0-.1.2-.2.3-.3,1-.7,2-1.5,2.8-2.5.5-.7,1-1.5,1-2.4,0-1.4-1.1-2.2-2.4-1.9,0,0,0,0-.1,0,0-.4,0-.8,0-1.3.7-.2,1.3,0,1.9.2,1.4.7,2,2.1,1.6,3.7-.2.8-.6,1.5-1.1,2.2-1.3,1.7-3.1,2.9-5,4Z" style="fill: #fff;"></path><path d="M15.6,39.5c-.7-.4-1.3-.8-2-1.3-1.2-.9-2.4-1.9-3.2-3.1-.6-1-1-2-.9-3.2.2-1.7,2-3,3.6-2.5,0,.4,0,.8,0,1.2-.3,0-.7,0-1,0-1.1.2-1.7,1.2-1.5,2.3.2,1.1.8,2,1.6,2.7.7.6,1.5,1.2,2.2,1.8.1.1.2.2.3.4.3.6.5,1.1.8,1.7,0,0,0,0,0,0Z" style="fill: #fff;"></path><path d="M19.8,43.4v-1.3c.8.2,1.6.2,2.4,0v1.4h-2.4Z" style="fill: #fff;"></path></g><g><path d="M80.5,27.5c2,0,3.9,0,5.9,0,.6,0,.8.2.8.8,0,2.8-.4,5.5-1.3,8.1-.5,1.6-1.2,3-2.4,4.2-.7.7-1.5,1.3-2.5,1.4-1.3.2-2.3-.3-3.2-1.1-1.1-1-1.8-2.2-2.3-3.5-.8-1.9-1.3-4-1.5-6.1-.1-1-.1-2.1-.2-3.2,0-.5.2-.7.7-.7,2,0,4,0,6,0Z" style="fill: #fff;"></path><path d="M87.2,46.7h-13.4c0-.8,0-1.7,0-2.5,0-.3.2-.5.5-.5,0,0,.2,0,.3,0,3.9,0,7.9,0,11.8,0,0,0,.2,0,.2,0,.3,0,.6.2.6.6,0,.8,0,1.6,0,2.4Z" style="fill: #fff;"></path><path d="M80.5,48.8c-2.4,0-4.7,0-7.1,0-.6,0-.8-.2-.8-.8,0-.1,0-.2,0-.3,0-.4.2-.7.7-.7,0,0,.1,0,.2,0,4.7,0,9.4,0,14.1,0,.7,0,.9.2.9.9,0,.1,0,.2,0,.3,0,.4-.3.6-.7.6-.8,0-1.6,0-2.5,0-1.6,0-3.2,0-4.8,0Z" style="fill: #fff;"></path><path d="M85.9,39.5c.3-.7.6-1.3.9-1.9,0-.1.2-.2.3-.3,1-.7,2-1.5,2.8-2.5.5-.7,1-1.5,1-2.4,0-1.4-1.1-2.2-2.4-1.9,0,0,0,0-.1,0,0-.4,0-.8,0-1.3.7-.2,1.3,0,1.9.2,1.4.7,2,2.1,1.6,3.7-.2.8-.6,1.5-1.1,2.2-1.3,1.7-3.1,2.9-5,4Z" style="fill: #fff;"></path><path d="M75.1,39.5c-.7-.4-1.3-.8-2-1.3-1.2-.9-2.4-1.9-3.2-3.1-.6-1-1-2-.9-3.2.2-1.7,2-3,3.6-2.5,0,.4,0,.8,0,1.2-.3,0-.7,0-1,0-1.1.2-1.7,1.2-1.5,2.3.2,1.1.8,2,1.6,2.7.7.6,1.5,1.2,2.2,1.8.1.1.2.2.3.4.3.6.5,1.1.8,1.7,0,0,0,0,0,0Z" style="fill: #fff;"></path><path d="M79.3,43.4v-1.3c.8.2,1.6.2,2.4,0v1.4h-2.4Z" style="fill: #fff;"></path></g></g></g></g></svg> 