<?xml version="1.0" encoding="UTF-8"?> <!-- Generator: Adobe Illustrator 25.3.1, SVG Export Plug-In . SVG Version: 6.00 Build 0) --> <svg xmlns="http://www.w3.org/2000/svg" xmlns:xlink="http://www.w3.org/1999/xlink" version="1.1" id="Layer_1" x="0px" y="0px" viewBox="0 0 1000 1000" style="enable-background:new 0 0 1000 1000;" xml:space="preserve"> <g> <path style="fill:#FFFFFF;" d="M738.53,362.66c-14.94,10.45-28.59,20.64-43.01,29.61c-3.77,2.35-11.57,2.94-14.49,0.58 c-2.83-2.29-3.36-9.83-2.15-14.32C683.7,360.76,717.16,345.1,738.53,362.66z"></path> <path style="fill:#FFFFFF;" d="M553.92,392.93c12.44-21.55,48.93-21.23,62.55-6.09c2.9,3.23,3.68,9.82,2.81,14.36 c-0.42,2.16-7.38,5.01-10.74,4.34C590.47,401.95,572.59,397.35,553.92,392.93z"></path> <path style="fill:#FFFFFF;" d="M966.95,541.93c-4.07-28.08-6.2-56.44-10.12-84.55c-4.81-34.54-11.67-41.29-42.93-44.82 c-11.46-1.29-27.51,13.82-25.52,31.35c1.76,15.46,4.03,30.85,6.27,47.7c-8.08-15.37-15.28-29.78-23.11-43.84 c-19.3-34.68-46.07-24.11-62.91-1.72c-2.42,3.21-3.91,7.11-6.23,11.42c-24.06-43.03-40.76-55.2-81.02-57.7 c-31.15-1.93-52.01,17.95-62.51,48.28c-14.95-16.37-30.88-27.79-52.24-29.83c-16.54-1.58-32.47,1.11-44.73,11.97 c-14.38,12.75-25.98,28.45-31.36,47.42c-6.62,23.35-12.32,46.94-8.16,71.59c1.67,9.9-2.52,15.74-14.69,18.43 c-2.51-20.56-4.37-40.01-7.37-59.29c-3.54-22.77-7.21-45.6-12.7-67.94c-1.62-6.59-8.55-14.39-14.88-16.77 c-12.09-4.56-25.02-0.45-35.83,5.91c-16.23,9.54-13.98,27.01-13.18,41.83c1.26,23.46,4.63,46.89,8.62,70.08 c3.76,21.83,7.08,44.23,14.88,64.75c11.83,31.1,26.63,37.03,54.67,33.91c26.23-2.93,50.06-10.49,58.02-40.91 c1.25,0.46,2.51,0.92,3.76,1.38c-0.83,9.66-1.66,19.32-2.56,29.74c16.06,10.64,32.45,17.44,45.76,17.12 c35.99-0.87,67.81-21.54,74.35-67.1c1.42-9.9,4.35-19.58,6.59-29.36c0.77,0.28,1.54,0.57,2.31,0.85 c1.38,13.3,2.77,26.61,4.64,44.67c33.07,41.77,98.24,33.16,126.94-11.74c-0.17,3.92-0.59,8.06-2.62,11.14 c-9.65,14.66-5.4,27.69,3.86,40.4c9.48,13,37.54,18.82,46.98-3.02c5.29-12.24,8.27-24.59,4.85-38.29 c-2.77-11.07-3.45-22.65-5.54-37.42c4.42,5.25,7.68,7.91,9.37,11.35c7.01,14.3,13.01,29.12,20.43,43.19 c4.61,8.73,9.46,18.83,17.1,24.16c16.67,11.63,40.9-0.06,45.71-20.25C967.69,591.61,970.6,567.16,966.95,541.93z M614.91,563.44 c-0.86,4.37-4.82,8.13-7.37,12.17c-4.08-3.29-10.34-5.78-11.88-10c-8.13-22.24-6.85-44.55,3.36-65.98 c1.27-2.66,5.75-5.58,8.38-5.27c2.56,0.3,6.07,4.29,6.69,7.18c2.17,10.1,3.26,20.42,4.59,29.48 C617.41,542.83,616.91,553.28,614.91,563.44z M755.08,548.95c-4.75,0.03-11.25-1-13.97-4.24c-0.74-0.88-1.45-1.75-2.12-2.61 c-10.1-12.87-12.84-23.6-13.94-44.69c0.03-5.43-0.53-10.95,0.28-16.25c0.38-2.49,3.06-5.86,5.31-6.45c2-0.52,6.21,1.66,7.11,3.69 c6.67,15.01,12.97,30.19,18.89,45.51c1.68,4.35,2.55,9.37,2.32,14C758.77,541.84,756.48,548.94,755.08,548.95z M826.9,575.23 c0-18.14,0-38.17,0-58.2C833.82,563.53,833.82,563.53,826.9,575.23z"></path> <path style="fill:#FFFFFF;" d="M404.53,551c-6.5-0.86-13.21-0.14-20.82-0.14c6.48-33.69,13.35-65.95,18.57-98.46 c1.9-11.8,1.34-24.49-0.76-36.3c-2.66-15-15.69-20.47-28.78-19.72c-9.83,0.56-22.57-0.28-28.3,11.68 c-4.59,9.59-9.42,19.31-12.17,29.5c-4.33,16.03-7.01,32.51-10.38,48.81c-0.69,0.07-1.39,0.15-2.08,0.22 c-0.81-4.65-2.02-9.26-2.38-13.95c-3.57-46.48-43.14-72.58-86.39-59.85c-26.93,7.93-44.99,32.28-45.55,59.48 c-0.07,3.17-0.2,6.59-1.38,9.45c-5.15,12.48-10.7,24.79-16.76,38.66c-6.16-3.83-10.19-6.33-15.57-9.67 c6.16-4.08,11.56-6.06,14.47-9.92c6.29-8.34,14.37-17.04,16.25-26.66c5.47-28.08-17.96-62.47-46.45-67.8 c-26.2-4.9-52.86-8.69-78.95,3.61c-7.41,3.49-10.5,6.56-10.9,14.64c-1.07,21.67-3.25,43.29-4.7,64.94 c-2.28,34.19-4.33,68.4-6.63,105.1c24.97,7.78,48.48,15.1,72.93,22.72c-17.59,2.86-33.07-1.63-48.61-6.76 c-3.83-1.27-8.44-0.19-12.69-0.19c-0.02,1.43-0.04,2.85-0.06,4.28c22.05,20.36,50.51,19.79,75.89,14.44 c35.46-7.47,59-31.62,64.93-69.74c-0.74,23.81-5.41,45.92-23.41,63.09c7.26,16.39,14.53,20.11,36.11,17.71 c23.56-2.62,21.22-23.17,26.23-39.07c8.36,0,16.65,0,25.29,0c0,4.49-0.32,6.97,0.05,9.35c2.42,15.46,8.08,28.72,23.74,35.44 c11.61,4.98,20.94-0.48,28.15-7.85c5.4-5.52,9.6-13.64,11.13-21.24c4.76-23.72,8-47.74,11.67-70.68 c1.03,8.07,2.92,17.15,3.16,26.27c0.25,9.19-1.43,18.41-1.59,27.63c-0.04,2.28,2.07,5.12,3.99,6.83 c11.69,10.41,24.8,16.06,41.13,16.75c26.64,1.12,48.32-13.46,54.07-39.16C430.83,567.15,421.77,553.27,404.53,551z M90.33,574.11 c0-10.64-1.15-20.55,0.52-29.97c0.76-4.27,6.64-9.45,11.1-10.54c2.49-0.61,9.16,5.87,9.9,9.91 C114.24,556.45,103.6,571.4,90.33,574.11z M99.71,493.25c-0.77-9.99-1.67-19.18-2.09-28.39c-0.18-3.91-0.27-10.81,1.2-11.27 c4.71-1.47,10.81-2.05,15.11-0.14c3.61,1.6,7.19,6.95,7.74,11.04C122.95,473.93,109.05,490.73,99.71,493.25z M248.68,537.28 c-0.37,2.86-5.29,5.13-8.1,7.68c-2.07-2.87-6.22-6.01-5.89-8.56c2.74-20.91,6.15-41.73,9.88-62.49c0.38-2.13,4.18-3.65,6.4-5.45 c1.6,0.69,3.21,1.39,4.81,2.08C253.53,492.81,251.54,515.1,248.68,537.28z"></path> </g> </svg> 