<?xml version="1.0" encoding="UTF-8"?> <!-- Generator: Adobe Illustrator 25.3.1, SVG Export Plug-In . SVG Version: 6.00 Build 0) --> <svg xmlns="http://www.w3.org/2000/svg" xmlns:xlink="http://www.w3.org/1999/xlink" version="1.1" id="Layer_1" x="0px" y="0px" viewBox="0 0 1000 1000" style="enable-background:new 0 0 1000 1000;" xml:space="preserve"> <path style="fill:#FFFFFF;" d="M484.9,331.6c0,3.8,0,7.6,0,12.3c-9,0-17.7,0-27.2,0c0,13.9,0,26.9,0,40.4c-4.9,0-9,0-14,0 c0-12.8,0-25.9,0-40c-9.6,0-18.3,0-27.7,0c0-4.8,0-8.7,0-12.7C438.9,331.6,461.9,331.6,484.9,331.6z"></path> <path style="fill:#FFFFFF;" d="M275.9,576.4c-9.7,0-18.3,0-27.8,0c-9.6-34.9-19.2-69.9-29-105.7c-4.2,9.3-8.2,17.9-12,26.6 c-10.3,23.5-20.3,47-30.7,70.4c-2.8,6.2-6.8,11.4-14.8,11.2c-7.8-0.2-11.6-5-14.5-11.5c-12.9-29.5-25.9-58.9-38.8-88.3 c-1.1-2.5-2-5.1-3.6-9.1c-5.7,20.7-11,39.9-16.2,59c-3.9,14.3-8.1,28.5-11.8,42.8c-0.9,3.6-2.4,4.9-6.1,4.8 c-7.2-0.3-14.5-0.1-22.5-0.1c4.1-15.2,8-29.8,12-44.4c9.2-33.3,18.6-66.6,27.6-100c1.7-6.5,5.1-10.2,11.7-11c6.9-0.8,13,2,15.9,8.3 c7,15.1,13.5,30.3,20.2,45.5c8.6,19.4,17.1,38.8,25.6,58.2c0.3,0.7,0.7,1.4,1.7,3.2c4.7-10.7,9.1-20.6,13.5-30.5 c11.2-25.4,22.4-50.8,33.7-76.2c2.8-6.4,7.6-9.1,14.4-8.4c6.2,0.6,10.2,3.7,11.9,10c9.5,34.9,19.3,69.7,28.9,104.6 C268.7,549.1,272.2,562.4,275.9,576.4z"></path> <path style="fill:#FFFFFF;" d="M787.7,576.2c0-8-0.2-15.6,0.2-23.2c0.1-1.2,2.2-3.2,3.6-3.4c5.6-0.5,11.3-0.5,16.9-0.5 c30.8,0,61.7,0,92.5,0c2.6,0,5.2-0.1,7.8-0.5c11.6-1.9,17.6-9.5,16.9-21c-0.7-10.5-7.8-17-19.5-17.1c-23-0.2-46-0.2-68.9-0.1 c-10.6,0-20.8-1.2-30.3-6.3c-16-8.7-23.8-25.7-21.1-46.2c2.2-16.4,14-29.1,31.5-33c4.6-1,9.5-1.4,14.3-1.4 c34.9-0.1,69.7-0.1,104.6-0.1c2.6,0,5.1-0.3,8.3-0.5c0,8.6,0,17.2,0,26.7c-2.7,0.1-5.2,0.3-7.8,0.3c-34.5,0.1-68.9,0.1-103.4,0.1 c-7.6,0-14,2.5-17.3,9.7c-3.4,7.3-2.5,14.5,2.8,20.8c3.8,4.6,8.8,5.9,14.5,5.9c16.2,0,32.3-0.3,48.5,0.2c14,0.4,28.2,0.1,41.8,2.7 c18.2,3.5,27.3,15.8,28.6,35.2c1.1,16.4-1.4,32.3-16,42.5c-6.8,4.7-15.6,8.9-23.6,9.1c-40.7,0.9-81.4,0.4-122.1,0.3 C789.8,576.7,789.2,576.5,787.7,576.2z"></path> <path style="fill:#FFFFFF;" d="M609.1,534.5c0-8.4,0-16.1,0-24.7c5.9,0,11.3,0,16.7,0c15.3,0,30.6,0.2,46,0 c10.1-0.1,20.1-1.5,25.8-11.3c6.9-11.9,7.1-24.7,0.9-36.8c-4.3-8.4-13-11.5-21.9-11.6c-28-0.4-56-0.1-84-0.1c-0.6,0-1.1,0.2-2.4,0.5 c0,41.7,0,83.4,0,125.5c-9.4,0-18.2,0-27.5,0c0-50.7,0-101.5,0-152.7c1.5,0,2.7,0,3.9,0c37.3,0,74.6-0.2,111.9,0.1 c19.5,0.2,35.6,7.7,45.1,25.7c11.9,22.5,9.2,59.9-15.4,75.9c-2.8,1.8-5.8,3.4-10.5,6.1c16,14.8,31.5,29,47,43.3 c-0.5,0.7-0.9,1.4-1.4,2.1c-12,0-23.9,0.1-35.9-0.1c-1.6,0-3.4-1.8-4.7-3.2c-10.5-11.4-20.9-22.8-31.2-34.4 c-2.7-3.1-5.5-4.5-9.8-4.5C644.2,534.7,626.9,534.5,609.1,534.5z"></path> <path style="fill:#FFFFFF;" d="M446.5,515.7c-11.4-19.2-22-36.9-33-55.5c-5.2,8.5-10.2,16.5-15,24.6c-17,28.6-34,57.2-50.8,85.9 c-2.7,4.7-6.1,6.7-11.5,6.4c-7.6-0.4-15.2-0.1-24.2-0.1c5.9-10.1,10.9-19.2,16.2-28c23.9-39.6,47.8-79.3,71.9-118.8 c7.6-12.4,21-12.6,28.4-0.3c28.7,47.2,57.1,94.5,85.6,141.8c0.8,1.3,1.3,2.8,2.4,5.2c-10.5,0-20.3,0.2-30-0.2 c-2-0.1-4.5-2.4-5.7-4.3c-6.2-9.8-12.2-19.8-18.1-29.8c-1.8-3.1-4-4.3-7.7-4.3c-22.1,0.2-44.3,0.1-68.1,0.1 c4.5-7.8,8.1-14.6,12.3-20.9c0.9-1.3,3.9-1.7,6-1.7C418.4,515.6,431.7,515.7,446.5,515.7z"></path> <path style="fill:#FFFFFF;" d="M392,613.1c20.8,0,41.2-0.1,61.5,0c15,0.1,21.4,9.6,16,23.5c-0.5,1.3-0.3,3.4,0.4,4.7 c5.3,9.9-2,24.3-15.3,24c-20.7-0.5-41.4-0.1-62.6-0.1C392,647.6,392,630.6,392,613.1z M404.4,624.6c-0.6,8.8-0.6,8.9,6.7,8.9 c12.2,0,24.5,0,36.7,0c2.4,0,5.1,0.6,7.1-0.3c1.8-0.8,2.9-3.3,4.3-5c-1.6-1.2-3.1-3.3-4.7-3.4C437.9,624.5,421.3,624.6,404.4,624.6z M404.3,653.1c17,0,33.6,0.1,50.3-0.2c1.6,0,3.1-2.8,4.6-4.3c-1.6-1.1-3.2-3.1-4.9-3.2c-7.6-0.3-15.3-0.2-23-0.2c-9,0-18,0-27.1,0 C404.3,648.2,404.3,650.3,404.3,653.1z"></path> <path style="fill:#FFFFFF;" d="M500.5,645c1.2,6.2,4.6,8.2,9.8,8.2c14.3-0.1,28.6,0,42.9,0c4.6,0,9.1,0,13.9,0c0,4.4,0,7.7,0,12.1 c-6.7,0-13.1,0-19.5,0c-12.7,0-25.4,0.1-38.1-0.1c-13.9-0.2-21-7.4-21.2-21.2c0-3.6,0-7.2,0-10.8c0.1-12.7,6.9-19.8,19.8-19.9 c19.5-0.2,39,0,58.8,0c0,3.5,0,6.8,0,10.8c-4.5,0.2-8.9,0.6-13.3,0.6c-14.3,0.1-28.6,0-42.9,0.1c-2.5,0-5.4,0.3-7.4,1.6 c-1.4,0.9-1.7,3.6-2.4,5.5c1.5,0.3,3.1,0.9,4.6,1c7.6,0.3,15.2,0.6,22.9,0.7c11.6,0.1,23.1,0,35,0c0,3.5,0,7,0,11.6 c-10.8,0-21.2,0-31.6,0C521.6,645,511.4,645,500.5,645z"></path> <path style="fill:#FFFFFF;" d="M721,613c7,0,14.1-0.1,21.1,0c14.3,0.3,24.9,10.5,25.5,24.4c0.6,13.6-10,26.7-23.4,27.3 c-15.6,0.7-31.4,0.7-47,0c-13.1-0.6-23.3-13.4-22.9-26.9c0.4-13.9,10.6-24.3,24.4-24.7C706.1,612.8,713.6,613,721,613z M720.8,624.5 c-6.4,0-12.9-0.3-19.3,0.1c-9,0.4-14.8,6.3-14.7,14.2c0.1,7.4,6.7,14,15.1,14.1c12.7,0.3,25.4,0.3,38,0c8.7-0.2,14.6-6.2,14.7-14.3 c0.1-8.5-5-13.7-14.5-14.1C733.6,624.2,727.2,624.5,720.8,624.5z"></path> <path style="fill:#FFFFFF;" d="M873.3,665.1c0-17.7,0-34.8,0-52c19.9,0,39.4-0.1,58.9,0c13.1,0.1,19.9,7,19.8,20c0,4.6,0,9.2,0,13.8 c-0.1,9.8-6.4,17.7-16.4,18C915,665.5,894.5,665.1,873.3,665.1z M885.9,652.9c16,0,31.7,0.1,47.3-0.1c1.7,0,4.7-1.8,4.8-3 c0.6-7.4,0.9-14.9,0.5-22.3c-0.1-1.1-4.3-2.6-6.7-2.8c-4.8-0.5-9.6-0.2-14.5-0.3c-10.4,0-20.8,0-31.4,0 C885.9,634.4,885.9,643.3,885.9,652.9z"></path> <path style="fill:#FFFFFF;" d="M549.3,384.9c-6.8,0-13.7,0.1-20.5,0c-14.6-0.2-26.1-12-26.2-26.6c-0.1-14.3,10.6-25.1,25.6-25.3 c13.9-0.2,27.8-0.2,41.6,0c15,0.2,26.2,11.1,26.1,25.1c-0.1,14.7-12,26.7-26.7,26.9C562.5,385,555.9,384.9,549.3,384.9z M549.2,343.9C549.2,343.9,549.2,343.9,549.2,343.9c-6.2,0-12.5-0.1-18.7,0c-9,0.2-15.1,5.7-15.2,13.6c-0.1,8.7,5.9,15.1,14.9,15.3 c12.7,0.2,25.3,0.2,38,0c8.3-0.1,14.4-6.4,14.6-14.4c0.2-8.2-5.7-14.2-14.3-14.4C562.1,343.8,555.7,343.9,549.2,343.9z"></path> <path style="fill:#FFFFFF;" d="M233.6,664.8c0-17.5,0-34.3,0-51.5c21.1,0,42-0.3,62.9,0.1c8.2,0.2,14.6,6,15.5,14.3 c0.9,7.7,0.7,15.6-0.3,23.3c-1,7.3-8,13.6-14.8,13.7C276,665,255.1,664.8,233.6,664.8z M245.8,653c16.2,0,32,0.1,47.8-0.1 c4,0,6.1-2.9,6.3-6.8c0.2-5,0.2-10,0.2-15c-0.1-4.1-2.4-6.4-6.4-6.5c-15.8-0.1-31.7,0-47.9,0C245.8,634.2,245.8,643.3,245.8,653z"></path> <path style="fill:#FFFFFF;" d="M123.7,664.7c-4.1,0-7.4,0-11.5,0c-0.2-3.6-0.5-7.3-0.8-11.5c-16.7,0-33.5,0-50.7,0 c-0.2,3.8-0.4,7.3-0.6,11.4c-3.7,0-7.4,0-11.6,0c0-12.3-0.5-24.5,0.2-36.7c0.4-7.8,7.8-14.4,16-14.6c14.3-0.4,28.6-0.5,42.9,0 c9,0.3,15.7,6.9,16.1,15.7C124.1,640.7,123.7,652.5,123.7,664.7z M111.5,640.3c0-3,0-5.4,0-7.8c-0.1-5.8-2.5-8.4-8.4-8.5 c-11.2-0.2-22.5-0.1-33.7,0c-4.7,0-8.2,2.1-8.8,7.2c-0.3,2.9-0.1,5.9-0.1,9.2C77.7,640.3,94.3,640.3,111.5,640.3z"></path> <path style="fill:#FFFFFF;" d="M841.7,613.2c4.6-0.2,8-0.4,12.4-0.5c0,3.5,0,7.3,0,11c0,10.9,0.3,21.7-0.1,32.6 c-0.1,3.2-1.9,8.2-4,8.9c-3.2,1-8.2,0.1-11-2c-13.7-10.3-26.9-21.2-40.2-31.8c-0.9-0.7-1.9-1.3-3.8-2.6c0,12.4,0,23.9,0,36 c-4.4,0-8.1,0-13,0c0-10.6,0-21.4,0-32.2c0-3.8-0.4-7.7,0.3-11.4c0.6-3,2.1-7.6,4.1-8.2c3.3-0.9,8.2-0.2,11,1.7 c10.5,7.4,20.4,15.5,30.6,23.4c4.2,3.3,8.6,6.5,13.8,10.5C841.7,636.3,841.7,624.9,841.7,613.2z"></path> <path style="fill:#FFFFFF;" d="M154.7,627.7c0,12.9,0,24.6,0,36.8c-4.1,0.2-7.8,0.4-12.3,0.6c0-16.3-0.3-32.1,0.2-47.9 c0.2-5.8,8.8-7.6,14.5-3.1c13.3,10.3,26.6,20.8,39.8,31.2c1.1,0.8,2.2,1.6,4.4,3.2c0-12.4,0-23.9,0-35.8c4.6,0,8.2,0,12.6,0 c0,15.7,0.3,31.5-0.2,47.3c-0.2,6-8.1,8.2-13.6,3.9c-14.1-11-28-22.2-42-33.4C157.4,629.9,156.7,629.2,154.7,627.7z"></path> <path style="fill:#FFFFFF;" d="M631.2,664.9c-4.7,0-8.3,0-12.5,0c0-7.1,0-14.2,0-20.2c-13.6-9-22.3-21.4-34.3-31.7 c5.7,0,10.4-0.2,15.1,0.1c1.6,0.1,3.3,1.3,4.5,2.4c4.5,4,8.8,8.2,13.2,12.3c4.9,4.5,9.9,4.6,14.8,0.1c1.8-1.6,4-2.9,5.4-4.8 c6.7-9.3,15.8-12.1,27.8-9.9c-10.8,9.9-21.3,19.4-31.7,29.2c-1.2,1.2-2.1,3.3-2.2,5C631,653,631.2,658.6,631.2,664.9z"></path> </svg> 