<?xml version="1.0" encoding="UTF-8"?> <!-- Generator: Adobe Illustrator 24.1.2, SVG Export Plug-In . SVG Version: 6.00 Build 0) --> <svg xmlns="http://www.w3.org/2000/svg" xmlns:xlink="http://www.w3.org/1999/xlink" version="1.1" id="Layer_1" x="0px" y="0px" viewBox="0 0 100 100" style="enable-background:new 0 0 100 100;" xml:space="preserve"> <style type="text/css"> .st0{fill:#FFFFFF;} </style> <g> <path class="st0" d="M53.1,56.6c0.7-1.9,1.3-3.7,1.9-5.5c0.6-1.9,1.3-3.8,1.9-5.8c0.1-0.3,0.2-0.4,0.6-0.4c0.9,0,1.8,0,2.7,0 c1,5.7,1.9,11.3,2.9,16.9c-1,0-2,0-3,0c-0.1,0-0.2-0.2-0.2-0.4c-0.5-3.1-1-6.1-1.6-9.2c0-0.3-0.1-0.6-0.2-0.9 c-1.2,3.5-2.3,6.9-3.5,10.5c-0.9,0-1.8,0-2.6,0c-0.1,0-0.3-0.2-0.4-0.4c-1.1-3.1-2.1-6.3-3.2-9.5c-0.1-0.2-0.1-0.4-0.3-0.6 c-0.6,3.5-1.2,6.9-1.8,10.4c-1.1,0-2.1,0-3.2,0c0.3-1.7,0.6-3.4,0.9-5.1c0.7-3.8,1.3-7.6,2-11.3c0.1-0.4,0.2-0.5,0.6-0.5 c0.6,0,1.3,0,1.9,0c0.5,0,0.8,0.1,0.9,0.6c1.2,3.6,2.4,7.2,3.6,10.8C53,56.3,53.1,56.3,53.1,56.6z"></path> <path class="st0" d="M90.1,55.9c-1,1.5-2,2.9-2.9,4.5c-0.6,1.2-1.4,1.7-2.7,1.5c-0.6-0.1-1.2,0-1.9,0c0.5-0.7,0.9-1.4,1.3-2 c1.4-2.1,2.8-4.3,4.2-6.4c0.2-0.3,0.2-0.5,0-0.8c-1.6-2.5-3.2-5-4.9-7.4c-0.1-0.1-0.1-0.2-0.2-0.4c1.2,0,2.3,0,3.5,0 c0.1,0,0.3,0.2,0.4,0.3c1,1.5,2,3,3,4.6c0.1,0.1,0.2,0.3,0.3,0.5c0.8-1.2,1.6-2.4,2.4-3.6c0.3-0.4,0.6-0.8,0.8-1.2 c0.2-0.5,0.6-0.6,1.1-0.6c0.9,0,1.9,0,2.9,0c-0.4,0.6-0.7,1.2-1.1,1.7c-1.3,2.1-2.7,4.1-4,6.2c-0.2,0.3-0.2,0.5,0,0.7 c1.7,2.6,3.4,5.2,5.1,7.8c0.1,0.1,0.2,0.3,0.3,0.5c-1.2,0-2.4,0-3.5,0c-0.1,0-0.3-0.2-0.4-0.3C92.5,59.6,91.3,57.8,90.1,55.9z"></path> <path class="st0" d="M74.9,44.9c-2,4.6-4,9.1-6,13.8c1.9,0,3.7,0,5.6,0c0,1.1,0,2.1,0,3.1c-3.4,0-6.9,0-10.3,0c2-4.6,4-9.1,6-13.8 c-1.9,0-3.6,0-5.5,0c0-1.1,0-2.1,0-3.1C68.1,44.9,71.5,44.9,74.9,44.9z"></path> <path class="st0" d="M80.4,61.8c-1.1,0-2.1,0-3.2,0c0-5.6,0-11.3,0-16.9c1,0,2.1,0,3.2,0C80.4,50.5,80.4,56.1,80.4,61.8z"></path> <path class="st0" d="M41.8,61.4c-2.1-5.4-4.1-10.8-6.2-16.2c-0.1-0.3-0.2-0.4-0.5-0.3c-0.8,0-1.7,0-2.5,0c-0.4,0-0.5,0.1-0.7,0.5 c-1.5,3.8-2.9,7.6-4.4,11.5c-0.6,1.6-1.3,3.3-1.9,5c1.1,0,2.1,0,3.1,0c0.2,0,0.4-0.2,0.4-0.3c0.4-0.9,0.8-1.9,1.1-2.8 c0.1-0.3,0.3-0.4,0.6-0.4c2,0,4,0,5.9,0c0.3,0,0.5,0.1,0.6,0.4c0.3,0.9,0.7,1.9,1.1,2.8c0.1,0.1,0.2,0.4,0.3,0.4c1,0,2.1,0,3.1,0 C41.8,61.6,41.8,61.5,41.8,61.4z M31.6,55c0.7-1.9,1.4-3.7,2.2-5.7c0.8,2,1.5,3.8,2.2,5.7C34.5,55,33,55,31.6,55z"></path> <g> <path class="st0" d="M22.5,59.6l-0.1,0.1c-0.5,0.4-1,0.8-1.6,1.1C21.4,60.5,22,60.1,22.5,59.6z"></path> <path class="st0" d="M22.4,59.7c0.1-0.1,0.2-0.2,0.3-0.3c0.2-0.2,0.4-0.5,0.6-0.7c0.2-0.3,0.4-0.5,0.6-0.8c0,0,0,0,0,0 s0.2-0.2,0.5-0.5c1.7-2.5,2.1-5.2,2.2-6.6c0,0,0-0.1,0-0.1c0-0.3,0-0.6,0-0.9c-3.9,0-7.8,0-11.6,0c0,1.4,0,2.8,0,4.2 c2.2,0,4.4,0,6.6,0c-0.7,1.4-1.5,2.5-2.8,3.1c-2.9,1.5-6.7,0.9-9.3-1.4c-3.8-3.4-3.3-9.7,1.1-12.4c3.3-2,7.6-1.5,10.6,1.2 c0.3,0.2,0.5,0.5,0.8,0.7c1-1.1,2-2.1,3.1-3.2c-0.5-0.5-1.1-1-1.7-1.5c-0.6-0.5-1.2-0.9-1.8-1.2c-2.6-1.4-5.3-1.8-8.1-1.5 c-3.4,0.3-6.3,1.8-8.3,4.6c-2.4,3.1-3.1,6.4-2.4,9.9l0,0c0,0,0.9,9.4,11.1,9.8c1.3,0.1,2.6,0,3.9-0.2c1.1-0.2,2.2-0.6,3.1-1.1 L22.4,59.7z"></path> </g> <path class="st0" d="M76,44.4c0,0,0.7-2.7,3.1-2.4c2.4,0.3,2.6,2.4,2.6,2.4S78.8,42.3,76,44.4z"></path> </g> </svg> 