<?xml version="1.0" encoding="UTF-8"?> <!-- Generator: Adobe Illustrator 24.1.2, SVG Export Plug-In . SVG Version: 6.00 Build 0) --> <svg xmlns="http://www.w3.org/2000/svg" xmlns:xlink="http://www.w3.org/1999/xlink" version="1.1" id="Layer_1" x="0px" y="0px" viewBox="0 0 100 100" style="enable-background:new 0 0 100 100;" xml:space="preserve"> <style type="text/css"> .st0{fill:#FFFFFF;} </style> <g> <path class="st0" d="M13.9,34.2h9l10.4,19.5h-8.5l-1.5-3.3h-9.7L12,53.6H3.5L13.9,34.2z M15.8,45.5h5.3l-2.7-5.7L15.8,45.5z"></path> <path class="st0" d="M42.8,47.7l5.9-13.5h8.5l-10,19.5h-9l-10-19.5h8.5L42.8,47.7z"></path> <path class="st0" d="M76.9,34.1h7.6v19.5H76L65.5,41.7v11.9h-7.6V34.1h10.4l8.5,10.3V34.1z"></path> <path class="st0" d="M11,59.5l2.9-3.6h4.6l-5.6,6.6v3.4H9.1v-3.4l-5.6-6.6h4.6L11,59.5z"></path> <path class="st0" d="M22.7,55.9v10h-3.9v-10H22.7z"></path> <path class="st0" d="M28.7,55.9v6.8h7.8v3.2H24.8v-10H28.7z"></path> <path class="st0" d="M46.6,55.9c2.7,0,4.8,2.3,4.7,5c0,2.7-2,5-4.7,5h-8.9v-10H46.6z M45.9,59.1h-4.3v3.6h4.3c1,0,1.6-0.8,1.6-1.8 C47.5,59.9,46.9,59.1,45.9,59.1z"></path> <path class="st0" d="M56.4,55.9v10h-3.9v-10H56.4z"></path> <path class="st0" d="M68.1,55.9c2.1,0,3.8,1.7,3.8,3.8c0,0.7-0.2,1.4-0.6,2c-0.4,0.6-0.9,1.1-1.6,1.4l2.2,2.8h-4.1l-1.9-2.4h-3.5 v2.4h-3.9v-10H68.1z M62.4,58.8v1.7h4.7c0.2,0,0.4-0.1,0.6-0.2c0.2-0.2,0.3-0.4,0.3-0.6c0-0.5-0.4-0.9-0.9-0.9H62.4z"></path> <path class="st0" d="M77,55.9v10h-3.9v-10H77z"></path> <path class="st0" d="M79,55.9h4.9l3.9,5l3.9-5h4.9v10h-3.9v-5.3l-3.9,5.3h-1.9l-3.9-5.3v5.3H79V55.9z"></path> <rect x="88.9" y="40.7" class="st0" width="7.6" height="12.9"></rect> <rect x="88.9" y="34.1" class="st0" width="7.6" height="5"></rect> </g> </svg> 