<?xml version="1.0" encoding="UTF-8"?> <svg xmlns="http://www.w3.org/2000/svg" xmlns:xlink="http://www.w3.org/1999/xlink" version="1.1" id="Layer_1" x="0px" y="0px" viewBox="0 0 1000 1000" style="enable-background:new 0 0 1000 1000;" xml:space="preserve"> <path style="fill:#FFFFFF;" d="M132.9,503.6c-0.1,1.4-0.1,2.2-0.2,3c0.4,0,0.7,0.1,0.7,0c0.4-0.5,0.8-1.1,1-1.7 c1.1-3.1,3.4-3.9,6.5-3.8c14,0.2,28,0.2,42.1,0.3c5.1,0.1,10.3,0.4,15.4,0.4c3.8,0,7.6-0.3,11.5-0.4c1.6,0,3.3,0.2,4.9,0.4 c3.6,0.5,5.2,2.1,5.6,5.7c0.3,2.6,0.6,5.2,0.6,7.8c0.1,14,0.2,28,0.2,42.1c0,6.9-0.2,13.8-0.2,20.7c0,2.1-0.3,4.3,1.3,6.9 c0-1.8,0-2.8,0-3.9c0-12.8,0-25.6,0-38.5c0-11.3,0.1-22.6,0.1-33.9c0-0.4,0-0.9,0-1.3c0.2-6.3-2.5-8.2-8.3-8.2 c-22.2-0.1-44.5-0.2-66.7-0.2c-1.1,0-2.3,0-3.4,0c0-0.2,0-0.4-0.1-0.6c0.4-0.2,0.9-0.6,1.3-0.7c5.4-1,10.7-2.1,16.1-2.9 c5.2-0.8,10.4-1.8,15.1-4.4c1.6-0.9,3.2-2,4.4-3.4c3.2-3.7,3.5-7.9,1.4-12.3c-2.9-6.1-7.6-10.3-13.2-13.7 c-9.5-5.7-20.2-7.7-30.7-10.4c-5.7-1.5-11.4-3.3-16.8-5.6c-5.3-2.2-9.4-6.4-13.2-10.6c-6.8-7.4-11.9-16-16.6-24.7 c-2.9-5.4-5.7-10.8-6.3-17.1c-0.5-4.7-0.6-9.2,2-13.4c2.9-4.5,6.6-7.9,11.9-9.7c7-2.3,14.2-2.5,21.4-2.4c9.5,0.1,19.1,0.1,28.4-2 c11.1-2.4,21.6-6.3,31.8-11.4c3.7-1.9,7.5-3.5,11.3-5.4c10.5-5.1,21.2-10,31.5-15.5c11.9-6.3,23.6-13,35.3-19.6 c9.1-5.2,18.2-10.5,27.2-15.9c7-4.2,14.1-8.4,21-12.9c8.9-5.8,17.5-12,26.3-17.9c4.7-3.1,9.7-5.9,14.6-8.8c4.2-2.6,8.3-5.3,12.4-7.9 c6.2-4.1,12.5-8.1,18.7-12.3c8.5-5.8,16.8-11.9,25.4-17.5c11.4-7.3,23-14.3,34.6-21.4c5.5-3.3,11.1-6.6,16.9-9.5 c9.6-4.9,19.7-7.9,30.5-8.2c6.9-0.2,13.8-0.2,20.6,1.1c8.3,1.5,16,4.6,23.3,8.8c11.3,6.4,22.5,13.1,33.6,19.8 c6.3,3.8,12.5,7.7,18.5,11.8c10.7,7.2,21.2,14.7,32,21.9c8.4,5.6,17.2,10.4,26.7,14.1c3.2,1.2,6.2,2.8,9.3,4.2 c0.5,0.3,1,0.7,1.4,1.6c-1.9,0-3.9,0-5.8,0c-6.4,0.1-9.3,1.3-13.7,6.1c-0.7-0.3-1.5-0.6-2.2-1.1c-11.4-7.3-22.8-14.7-34.3-21.9 c-17.8-11.1-35.7-22.1-53.7-33c-12.5-7.6-25.2-15-37.8-22.5c-0.9-0.5-1.9-1-3-1.3c27.6,31,56,61.2,81.9,94.1c-1,1.6-2.3,3.2-3.1,5.1 c-0.8,1.9-1.1,3.9-1.2,6.1c1.3-2.5,2.4-5.1,4-7.4c1.6-2.3,3.7-4.3,5.6-6.4c-0.7-0.1-1.9,0.2-2.2-1.3c-0.2-0.9-1.1-1.6-1.8-2.3 c-8-8.8-16.1-17.5-24.1-26.4c-1.5-1.6-2.6-3.6-3.8-5.3c2.6,0.6,5.3,1.3,8,1.7c0.9,0.1,1.8-0.4,2.9-0.7c-0.5-2.9,1-4.4,3.2-5.8 c1.9-1.2,3.5-2.9,5.4-4.5c7.4,4.5,14.9,8.9,22.2,13.6c9.4,6,18.7,12.2,28,18.2c5,3.2,5.1,3.2,9.9-0.4c2.7-2,5.5-2.9,8.9-2.9 c2.7,0,5.4-0.4,8.2-0.5c0.9,0,2,0.1,2.8,0.6c2.7,1.8,5.5,3.6,8,5.6c2.7,2.2,5.2,4.7,7.9,7c4.1,3.5,8,7.2,12.5,10.1 c9.8,6.4,19.9,12.4,29.9,18.5c5.6,3.4,11.2,6.8,17,10c7.1,3.9,14.4,7.5,22.7,8.3c7.3,0.7,13-1.9,15.6-8.3c2.6-6.5,5.6-12.9,7.1-19.8 c0.4-1.7,1.1-3.3,2.9-5c0.3,1.6,0.7,2.7,0.7,3.8c0,5.3-0.1,10.5-0.2,15.8c0,3.6-0.1,7.2-0.1,10.8c0,6.5,0.1,12.9,0.2,19.4 c0,1,0.1,1.9,0.3,3.3c12.5,0,24.9,0,37.2,0c12.3,0,24.7,0.1,37.5,0.2c-0.5,1.2-0.7,1.9-1.1,2.5c-0.6,1-1.5,1.9-2,3 c-1.7,3-1.4,5,1.6,6.7c3,1.7,6.3,3.1,9.6,4.2c4.4,1.5,8.9,2.5,13.3,3.7c5.1,1.5,9.9,3.4,14.1,6.8c6.4,5.1,8.7,11.7,7.8,19.7 c-0.6,4.9-2.3,9.3-4.5,13.7c-3.9,7.7-8,15.4-13.4,22.1c-3.8,4.8-8,9.3-12.6,13.4c-2.7,2.4-6.3,3.9-9.8,5.2c-5.7,2-11.5,3.7-17.3,5 c-6,1.4-11.8,3.2-17.2,6.3c-3.9,2.2-7.1,5.1-9.4,9c-3.9,6.6-2.4,12.9,3.5,18.2c4.3,3.9,9.4,6.3,14.8,8.4c14.3,5.6,27.2,13.5,39,23.4 c7.4,6.2,14.3,12.9,20,20.7c5,6.8,8.9,14.3,12.1,22.1c4.4,10.9,6.6,22.3,8.2,33.7c0.9,6.4,1.3,12.8,1.1,19.3 c-0.2,5.4,0.3,10.9,0.3,16.3c0,2-0.5,3.9-0.4,5.9c0.1,8.6,0.6,17.2,1.6,25.8c0.9,7.2,1.2,14.4-0.6,21.5c-1.7,6.4-4.4,12.4-8.4,17.7 c-9.7,12.6-18.3,26-27.5,38.9c-8.7,12.1-18.9,22.6-31.3,31.1c-12.1,8.3-25.3,13.3-39.6,16c-8.4,1.6-16.9,2.7-25.4,2.4 c-16.5-0.7-32.7-3.5-47.8-10.6c-8.1-3.8-15.5-8.7-22.1-14.7c-6.4-5.8-12.3-12.1-18.4-18.3c-3.6-3.6-7.6-6.6-12.3-8.6 c-4.9-2.1-10-2.2-15,0.1c-4.2,1.9-8.2,4.1-11.5,7.5c-4.6,4.8-9.3,9.5-14.1,14.2c-13.7,13.2-29.5,22.4-48.2,26.7 c-10.4,2.4-20.9,4.1-31.5,3.7c-16.5-0.6-32.7-3.5-47.8-10.6c-8-3.8-15.5-8.7-22.1-14.7c-6.6-6-12.8-12.6-19.1-19 c-3.5-3.6-7.7-6.1-12.2-8.1c-5.2-2.3-10.2-1.8-15.3,0.3c-7.6,3.3-12.9,9.3-18.5,14.9c-6.5,6.5-12.8,13.2-20.6,18.3 c-6.4,4.1-13,7.8-19.9,10.7c-8.5,3.6-17.5,5.6-26.7,6.8c-6.4,0.8-12.9,1.5-19.3,1.3c-14.8-0.5-29.5-2.6-43.2-8.8 c-5.2-2.3-10-5.4-15.2-7.7c-6.9-3.2-13.8-6.7-21.8-6.5c-3.9,0.1-7.6,0.9-11.1,2.6c-3.8,1.9-7.6,4-11.3,6c-9.9,5.5-20.4,8.4-31.7,8.5 c-10.4,0-20.8,0.1-31.2,0c-6.6-0.1-13.1-0.6-19.4-2.7c-11.7-3.7-19.3-11.4-22-23.5c-1.1-5-1.8-10.1-2.3-15.2 c-0.4-3.3-0.3-6.8-0.3-10.1c0-24.1,0-48.2-0.1-72.3c0-6.6-0.8-13.1-2.9-19.4c-2.2-6.8-6-12.3-11.6-16.7c-4-3.2-8.1-6.3-12-9.7 c-6.6-5.6-9.8-12.9-11-21.4c-1.2-8.2,0.6-15.9,2.1-23.7c1.9-10.2,5.3-19.9,9.5-29.3c3.7-8.2,8.8-15.6,15-22.2 c3.3-3.5,6.8-6.8,10.3-10.1C130.1,505.4,131.3,504.7,132.9,503.6z M502.4,383.6c0.7-0.6,1.4-1.2,2.1-1.9c-0.2-0.2-0.4-0.3-0.6-0.5 C503.4,382.1,502.9,382.9,502.4,383.6c-0.6,1-1.2,1.9-1.9,2.8c-2.3,1.7-3.5,4.1-4.9,6.5c2-1.9,4-3.8,4.8-6.5 C501.1,385.4,501.7,384.5,502.4,383.6z M508.3,375.8c2.3-1.3,4.6-2.2,7.3-2.1c1.7,0.1,3.3-0.5,5-0.7c-2.6-0.3-5.2-0.2-7.8-0.3 C510.3,372.5,509,373.6,508.3,375.8c-0.5,0.6-1.2,1.2-1.8,1.8c0.2,0.1,0.4,0.3,0.6,0.4C507.5,377.3,507.9,376.5,508.3,375.8z M328.4,282.7c-0.3,0.2-0.8,0.4-0.9,0.6c-0.2,3-0.5,6-0.5,9.1c0,1.3,0.3,2.6,0.5,3.8c0.2,1.2,0.5,2.4,0.8,3.7 C328.4,294.1,328.4,288.3,328.4,282.7c1.5-3.4,3.1-6.8,4.7-10.1c-2.9,2.1-4.3,5-5.1,8.3C328,281.4,328.3,282.1,328.4,282.7z M241.3,370.8c-1.4,0-2.7,0-4.1,0c0,0.2,0,0.4,0,0.6C238.6,371.2,240,371,241.3,370.8c0.4,0.3,0.6,0.9,1.1,1 c1.4,0.3,2.8,0.5,4.2,0.8c7.9,2,15.5,4.6,22.1,9.6c0.5,0.4,1.1,0.8,1.6,1.2c0.2-0.2,0.3-0.4,0.5-0.6c-2.3-2-4.5-4-7-6.1 c2.1-7.9,4.3-15.9,6.5-24c-0.3-0.1-0.5-0.2-0.8-0.3c-0.7,1.5-1.3,3-2,4.5c-0.1-0.2-0.3-0.4-0.3-0.6c-0.1-0.9-0.3-1.8-1.4-1.9 c-1.2-0.1-1.7,0.8-2,1.8c-0.2,0.5-0.4,1-0.5,1.5c-1.5,5-2.9,10-4.4,15c-0.1,0.5-0.4,0.9-0.6,1.4c-3.4-0.8-6.5-1.6-9.7-2.3 C246,371.3,243.7,371.1,241.3,370.8z M346.2,727c1.7-0.3,2.9-0.5,4.2-0.7c17.2-1.9,31.6-9.6,44.1-21.3c10.6-9.9,18.7-21.7,25.2-34.6 c7-13.8,11.8-28.4,15.2-43.5c3.7-16.6,5.7-33.3,4.5-50.4c-0.6-8.1-1.8-16-3.8-23.9c-5.9-22.9-19.9-38.8-41.7-47.7 c-13.5-5.6-27.7-7.9-42.2-8.7c-10.5-0.6-21-0.3-31.4,1c-11.1,1.4-22,3.7-32.3,8.2c-17.2,7.5-29.9,19.6-36.8,37.3 c-4.9,12.6-7,25.7-7.3,39.1c-0.1,6.5,0.2,13.1,0.3,19.9c-0.7,0.2-1.6,0.6-2.5,0.9c-2.7,0.6-4.7,2-6.4,4.3c-1.4,1.9-3.2,3.6-4.7,5.5 c-3.9,4.9-9,8.6-13,13.4c-0.1,0.1-0.4,0-1.1,0c0-1.2,0-2.5,0-3.8c0-37,0-74.1,0-111.1c0-0.9,0-1.8,0-2.6c-0.1-2.3-0.7-2.8-3-3 c-0.8,0-1.5,0-2.3,0c-22,0-44,0-66.1,0c-0.8,0-1.5,0-2.3,0c-2.3,0.1-3.3,0.9-4,3.2c-0.5,1.6-0.8,3.2-1.2,4.8 c-3.3,12.1-6.7,24.2-10,36.4c-0.8,2.9-0.2,3.7,2.8,3.9c0.8,0,1.5,0,2.3,0c7,0,14,0,21,0c4.7,0,7,2.3,7.2,7c0.1,3.8,0.2,7.7,0.2,11.5 c0,13.1-0.2,26.3-0.2,39.4c0,4.6,0.2,9.2,0.2,13.8c0,0.8-0.2,1.6-0.3,2.4c-0.2,0-0.4,0.1-0.6,0.1c-4.8-9.6-9.7-19.1-14.5-28.7 c-0.2,1.8,0.2,3.3,0.6,4.9c3,10.6,5.9,21.3,9,31.9c0.3,1,0.9,2,1.5,2.9c2.5,3.9,5.2,7.8,7.7,11.7c0.4,0.6,0.6,1.4,0.7,2.2 c0.5,3.6,0.9,7.1,1.3,10.7c0.2,1.4,0.3,3,1.8,3.6c2.3,1,4.6,2.1,7.3,1.2c3.8-1.2,7.7-2.4,11.6-3.5c2.4-0.7,4.4-1.9,6.2-3.5 c3.4-3.1,6.8-6.2,10.3-9.2c1.8-1.5,3.3-3.4,5.4-4.1c0,4.3-0.1,8.4,0,12.5c0.4,11,0.8,22,1.2,33.1c0.1,4.2,0.2,8.3,0.2,12.5 c0,2.5-0.9,3.3-3.4,3.5c-0.3,0-0.7,0-1,0c-11.6,0.1-23.2,0.2-34.8,0.3c-2.8,0-3.8-0.8-3.7-3.7c0.1-9.2,0.5-18.3,0.5-27.5 c0-3.8,0.4-7.7-1.8-11.1c-1.8-2.8-2.4-5.8-2.7-9c-0.2-2.4-0.7-4.7-1.1-7c-0.3,0-0.5,0-0.8,0c-0.2,1.6-0.5,3.1-0.5,4.7 c0,18.3,0,36.6,0,54.9c0,0.7,0,1.3,0,2c0.1,2.3,0.7,2.9,3,3c1.6,0,3.3-0.3,4.9-0.3c11.3,0.1,22.5,0.3,33.8,0.4 c3.1,0,6.3-0.3,9.4-0.1c3.1,0.2,4.1-0.4,4.1-3.5c0-2.7-0.2-5.5-0.2-8.2c0.1-18.4,0.1-36.8,0.2-55.2c0-2.7-0.3-5.5-0.1-8.2 c0.1-1.5,0.3-3.3,1.2-4.3c2.4-2.5,4.4-5.3,6.7-7.9c3.3-3.7,6.7-7.2,10.1-10.8c3-3.2,5.9-6.5,11.2-6.6c0.2,1.9,0.4,3.8,0.8,5.7 c3.4,19.7,9.3,38.7,18.8,56.4c6.7,12.4,14.4,24,24.9,33.5c8.7,7.9,18.4,14.1,29.9,17.2c1,0.3,2,0.7,2.9,1c-0.1,1.9-0.3,3.5-0.4,5.3 c11.9,3.4,23.7,3.6,36.4,0.5c-1.5-0.6-2.4-1.2-3.3-1.3c-1.8-0.2-3.7-0.4-5.4-0.1C348.1,729.5,347.1,728.8,346.2,727z M639.4,673.8 c1.3-2.5,2.3-4.4,3.2-6.4c10.6-23.1,16.9-47.3,18.3-72.7c0.8-14.4-0.2-28.6-4-42.6c-3.2-11.7-8.5-22.2-17.1-31 c-10.2-10.5-22.8-16.7-36.9-20.4c-11.1-2.9-22.5-4.3-34-4.7c-12.4-0.4-24.7,0.3-36.9,2.6c-10.7,2-21,5.1-30.5,10.6 c-13.4,7.8-23.2,18.7-29,33.2c-5,12.7-6.9,25.9-7.4,39.4c-0.3,9.8,0.4,19.6,1.7,29.4c1.7,12.6,4.7,24.9,8.8,36.9 c0.2,0.7,0.7,1.4,1.3,2.5c0.6-2,1-3.4,1.4-4.8c0.2,0.1,0.4,0.1,0.7,0.2c0,2.3,0.1,4.6,0,6.9c-0.1,1.7-0.2,3.5-1.7,4.7 c-2.8,2.3-5.5,4.6-8.4,6.7c-9.5,7-19.1,13.9-28.6,21c-3.3,2.5-6.3,5.3-9.4,7.9c17-9.8,33.9-19.4,51.1-29.1c1,2,1.9,3.6,2.7,5.3 c4.1,8.5,9.1,16.5,14.8,24c8.4,11.2,18.8,20.2,31.4,26.2c4.1,2,8.5,3.3,12.9,5c0,1.6,0,3.3,0,5c8.9,3.5,26.1,3.9,35.7,0.5 c-2.5-1.9-5.5-1.4-8.2-1.2c-2.1,0.1-2.8-0.6-3.8-2.1c29.8-2.9,48.8-20,58.8-34.1c-2.7,0.8-4.8,1.7-7,2c-2.9,0.3-5.1,1.9-7.2,3.5 c-1.7,1.3-3.4,2.7-5.1,4.1c-15.1,12.5-32.2,18.1-51.8,15.8c-7.4-0.9-14.7-2.6-21.4-6c-16-8.1-27.7-20.3-34-37.3 c-0.9-2.4-0.2-3.4,2.5-3.4c5.3,0,10.5,0.1,15.8,0c2.6-0.1,4.9,0.4,6.9,2.2c-1,3.8,0.7,7,4.1,7.9c2.9,0.7,5.5-1.8,6.3-5.6 c0.3-1.6,1.3-3.1,1.9-4.4c4.1,0,7.7,0,11.3,0c1,0,2,0,2.9,0.3c4.2,1.3,8.5,1.7,12.9,1.5c3.9-0.2,7.7-0.9,11.5-1.9 c2.1-0.6,3.2-1.2,3.7-3.2c0.2-0.9,0.4-1.8,0.4-2.7c0-1.3-0.2-2.5-0.3-4.3c1.2,0.4,2.1,0.5,2.7,0.9c1.8,1.2,3.7,2.3,5.4,3.7 c5.1,4.1,10.2,8.2,15.3,12.3c0.9,0.8,2,1.4,2.8,2.2c1.4,1.3,1.7,2.8,0.5,4.4c-0.7,0.9-1.7,1.7-2.7,2.3c-1.7,1-3.6,1.7-5.2,2.7 c-4.5,2.8-9.4,3.8-14.7,3.5c-3.8-0.2-7.4-0.3-10.3-3.2c-0.8-0.8-1.7-1.4-2.7-1.8c-1.6-0.6-3.3-1.2-5-1.4c-1.8-0.1-3.7,0.2-5.5,0.4 c-7.2,0.8-14.3,1.7-21.5,2.3c-5.1,0.4-10.2,0.5-15.6,2.8c2.6,0.7,4.6,1.6,6.7,1.8c6.5,0.4,13.1,0.8,19.6,0.8c4.9,0,9.8-0.5,14.7-0.6 c1.3,0,2.8,0.4,4,1c3.2,1.8,6.2,3.9,9.3,6c-3.2,3-8.2,4.1-10.5,8.6c2.9,0.6,5.4-0.1,7.8-1.2c6-2.8,12-5.4,17.8-8.5 c8-4.3,16.4-7.1,25.3-8.7c4-0.7,7.9-1.9,11.6-3.3c4.7-1.7,9.2-4,13.9-5.7c8.6-3,17.2-5.7,25.8-8.6c1.8-0.6,3.4-0.6,5,0.2 c3.2,1.5,6.4,2.9,9.5,4.4c3.3,1.6,6.6,3.2,9.9,4.9c0.1-1.9-1.3-2.6-2.5-3.3c-5.8-3.6-11.1-7.8-15.9-12.6c-1.6-1.6-3-1.8-4.9-1.2 c-6.4,1.9-12.8,3.7-19.3,5.3C647.5,672.8,643.7,673.2,639.4,673.8z M788.2,727.1c1.7-0.3,3-0.6,4.3-0.7c17.4-2,32-9.8,44.6-21.7 c7.5-7.1,13.7-15.3,19.1-24.1c4.3-7,8-14.3,11-22c-5.6-7.9-9.8-16.4-13.9-25c-0.8-1.6-2.1-3.1-3.1-4.6c-0.3-0.5-0.5-1-0.7-1.6 c0.2-0.1,0.4-0.3,0.5-0.4c0.8,0.8,1.8,1.4,2.4,2.3c2.3,3.8,4.5,7.8,6.7,11.6c2.8,4.8,5.6,9.7,8.7,14.3c4,6,8.4,11.7,12.5,17.6 c1.9,2.7,1.7,3-0.2,5.8c-6.8,10.1-13.6,20.2-20.3,30.2c-0.4,0.5-0.6,1.2-0.9,1.8c5.8-4.4,11-9.2,16.3-13.9 c5.9-5.4,11-11.9,18.5-15.5c0.2-0.1,0.2-0.3,0.5-0.7c0-2.8,0-5.7,0-8.7c0-2.2-0.8-3.9-3-5c-2.5-1.3-4.9-2.9-7.2-4.6 c-1.4-1.1-2.7-2.5-3.8-3.9c-2.2-3-4.2-6.1-6.3-9.2c-1.7-2.5-3.4-5-4.9-7.7c-1.1-2.1-1.8-4.3-1.8-7.5c1.8,3.4,3.4,6.1,5.2,9.4 c0.6-1.5,1-2.3,1.2-3.1c4.3-14.8,7.3-29.9,8.1-45.4c0.7-14.1-0.2-27.9-3.7-41.6c-6-23.6-20.3-39.8-42.8-48.8 c-13.2-5.3-27.1-7.5-41.3-8.3c-10.5-0.6-21-0.3-31.4,1c-11.4,1.5-22.6,3.8-33.2,8.6c-19.3,8.6-32.1,23-38.3,43.3 c-3.6,12-5.1,24.3-5.1,36.9c0,3.3,0.3,6.5,0.4,9.8c0.2,10.2,1.7,20.2,3.9,30.2c0.2,0.8,0,1.6,0,2.4c-4-1.3-7.8-2.5-11.5-3.7 c-0.1,0.2-0.2,0.4-0.3,0.7c3.5,2,6.9,4.1,10.5,5.9c2,1,3,2.2,3.5,4.3c3.4,12.8,8.1,25.2,14.4,36.9c6.7,12.6,14.5,24.4,25.3,34.1 c8.7,7.8,18.3,13.9,29.6,17c1,0.3,2,0.7,3,1c-0.1,1.9-0.2,3.5-0.3,5.4c11.9,3.4,23.8,3.5,36,0.5c-2.7-2.1-5.7-1.6-8.4-1.4 C790.2,729.3,789.4,728.6,788.2,727.1z M530.5,454.5c0-26.1,0-52.1,0-78.3c-1.1-0.1-2-0.2-2.8-0.2c-4.4,0-8.8,0.1-13.1-0.1 c-1.9-0.1-3,0.7-4,2.1c-5.5,7.4-11,14.7-16.5,22.1c-0.5,0.6-0.9,1.3-1.4,1.8c-2,2.1-4,2.1-5.9-0.1c-0.9-1-1.6-2.1-2.4-3.2 c-5.1-7-10.2-14-15.3-20.9c-0.6-0.8-1.6-1.7-2.5-1.7c-5.4-0.2-10.9-0.1-16.6-0.1c0,29.4,0,58.5,0,87.9c5.3,0,10.3,0,15.5,0 c-0.2,1.3-0.3,2.1-0.4,2.9c1.9,0,3.7,0,5.6,0c0-3.3,0-6.3,0-9.5c-1-0.4-1.9-0.7-2.8-1c0-0.6-0.1-1.1-0.1-1.7c0-14.2,0-28.5,0-42.7 c0-1,0.1-2,0.5-2.9c1-2.4,3.4-3,5.3-1.3c0.5,0.4,0.9,1,1.2,1.5c2.6,3.6,5.3,7.3,7.9,10.9c2.3,3.1,4.6,6.2,7,9.6 c4.2-5.5,8.1-10.6,12-15.7c1.5-1.9,2.9-3.9,4.4-5.7c1-1.2,2.3-1.7,3.8-1.3c1.5,0.5,2.3,1.7,2.4,3.2c0.1,1,0,2,0,3 c0,15.7,0,31.3,0,47c0,1.2,0.1,2.3,0.2,3.7c4.2,0,7.9,0,11.8,0c0.2,1.2,0.3,2.1,0.5,3c3,0,5.8,0,9,0c0-2.2-0.1-4.3,0-6.3 C534.1,457.8,533.7,455.5,530.5,454.5z M246.9,464.2c1.6-0.9,2.9-1.6,4.2-2.4c7.2-4.5,12-11.1,15.8-18.5c6.8-13,9.2-26.8,7.9-41.3 c-0.6-7.4-3.4-14-9-19.1c-2.9-2.6-6.2-4.4-9.8-5.8c-5.2-1.9-10.6-2.4-16.1-2.9c-6.8-0.5-13.5,0.1-20.1,1.5 c-7.1,1.5-13.4,4.8-17.8,10.8c-3.6,4.9-5.3,10.5-5.8,16.5c-1.2,16,2.3,30.9,10.6,44.5c4.9,8.1,11.4,14.6,20.8,17.6 c0.3,0.1,0.5,0.3,0.8,0.4c0,0.9-0.1,1.8-0.1,2.8c6.5,1.5,12.8,1.2,19.1-1.3C247.1,466.1,247,465.2,246.9,464.2z M551.3,390.9 c1.9,0,3.1,0,4.3,0c10.3,0,20.6-0.1,30.9,0.1c2.5,0,5,0.5,7.4,1.2c3.1,0.9,5.2,3.3,5.8,6.6c0.6,3.4,0.1,6.8-1.8,9.8 c-4.8,7.6-12.1,12.2-19.8,16.3c-2.4,1.3-4.6,0-5.1-2.8c-0.2-0.8-0.1-1.7-0.1-2.6c0-5.4,0-10.7,0-16.1c0-0.9-0.2-1.9-0.3-3 c-3.1,0-6,0-8.8,0c-2.9,0-5.8,0.1-8.7,0.1c0,21.3,0,42.2,0,63.1c3.6,0.7,15.6,0.6,17.8-0.1c0-4.9,0.2-9.7-0.1-14.4 c-0.2-3.6,1.1-5.6,4.5-7c11.7-5,22.7-11.3,31.6-20.8c6.3-6.8,10.4-14.6,9.8-24.2c-0.4-7.3-3.5-12.9-9.8-16.8c-5.5-3.4-11.8-4-18-4.1 c-10.9-0.2-21.9-0.1-32.9-0.1c-0.9,0-1.7,0.1-2.8,0.2C554,380.9,552.7,385.6,551.3,390.9z M707.5,463.8c0-29.3,0-58.4,0-87.4 c-4.1-0.7-15.1-0.5-17.6,0.3c0,1.1,0,2.3,0,3.5c0,16.9,0,33.7,0,50.6c0,4.6-0.1,9.2-0.2,13.8c-0.1,3.3-1.1,4.3-4.3,4.4 c-3.6,0-7.2,0.2-10.8,0c-9.5-0.5-16.2-5-18.3-14.7c-0.9-4.1-0.9-8.3-0.4-12.4c1.7-12.3,5.6-24,10.8-35.3c1.5-3.3,3-6.7,4.6-10.3 c-6.7,0-13,0-19.4,0c-1.5,3.3-3,6.4-4.5,9.6c-6.7,14.9-11.6,30.2-10.3,46.8c0.3,3.5,0.6,7,1.6,10.3c3.1,10,9.2,17.1,19.8,19.4 c4.3,0.9,8.9,1.3,13.3,1.5c4.8,0.2,9.6,0.1,14.4,0.1c0.2,1.2,0.4,2.1,0.6,3.1c4.5,0,8.9,0,13.3,0c0.2-1.1,0.3-2,0.5-3.2 C703,463.8,705.1,463.8,707.5,463.8z M385.4,476.2c6.1-3.9,11.6-7.4,16.8-10.7c-0.2-2.3-0.5-4.2-0.5-6c0-9.5,0-19.1,0-28.6 c0-1.9,0.4-3.6,1.3-5.3c7-14.1,13.9-28.2,20.9-42.4c1.1-2.2,2-4.5,3.2-7.1c-7.1,0-13.7,0-20.4,0c-1,2.2-1.9,4.3-2.8,6.4 c-2.7,6.2-5.4,12.4-7.9,18.7c-1,2.4-3.7,3.2-5.3,2c-0.9-0.7-1.5-1.8-2-2.9c-2.9-6.6-5.7-13.2-8.6-19.9c-0.6-1.5-1.3-3-2-4.5 c-3.5,0-6.8,0-10,0c-3.3,0-6.6-0.1-10.3,0.1c0.6,1.2,0.9,2,1.3,2.8c7.7,15.6,15.4,31.2,23.1,46.8c1,1.9,1.4,3.8,1.4,6 c-0.1,9.6-0.1,19.3,0,28.9c0,3.5,0.3,7,0.7,10.4C384.4,472.6,384.9,474.1,385.4,476.2z M774.6,375.7c-10.1,0.3-20.2-0.1-30,1 c-16,1.9-19.1,17.7-13.5,27c1.7,2.9,3.7,5.7,5.9,8.2c6.2,7.2,12.7,14.2,18.9,21.3c1.6,1.8,3.2,3.7,4.2,5.8c2,4.2,0.2,7.9-4.3,9.2 c-1.8,0.5-3.7,0.7-5.5,0.7c-5.7,0.1-11.4,0-17.1,0c-0.8,0-1.6,0.2-2.7,0.3c1.4,5.1,2.7,9.9,4.1,14.7c9.5,0,18.5,0,27.5,0 c0.1,1.1,0.2,1.9,0.3,2.9c2.1-0.5,4.3,0.4,6.1-1.1c-0.1-0.8-0.2-1.5-0.3-2.3c1.1-0.5,2-0.9,2.9-1.3c8.3-3.4,12.2-10.1,11.4-18.9 c-0.5-4.9-2.8-9-5.9-12.6c-5.4-6.3-11-12.4-16.5-18.6c-2.9-3.3-6-6.4-8.6-9.9c-3.3-4.5-1.7-9.7,4.2-11c1.1-0.2,2.2-0.3,3.2-0.3 c2.6,0,5.3,0,7.9,0c3.8,0,7.6,0,11.8,0C777.3,385.8,776,381.1,774.6,375.7z M482.2,190.7C441.5,214.3,401,238,362,264.5 c2.5,0.9,4.4,0,6.2-1.1c6.8-4.1,13.7-8.2,20.4-12.4c2.3-1.4,4.3-1.9,6.6-0.6c1.1,0.7,2.1,1.5,2.9,2.5c1.5,1.8,3,2.9,5.6,2 c2.3-0.8,4.6-1.2,7-1.8c3.7-1,7.4-1.9,11.1-2.9c0.7-0.2,1.3-0.4,2-0.5c-0.5,1.4-1.3,2.5-2.2,3.4c-3,3.2-6,6.3-8.9,9.6 c-4.9,5.5-9.7,11-14.5,16.5c-0.8,0.9-2.1,1.8-1.4,3.6c2.8-0.4,5.7-0.8,9-1.2c-1-0.3-1.6-0.5-2.3-0.7 C428.4,249.5,455.8,220.5,482.2,190.7z M343.8,448.9c-6.3,0-11.8,0-17.4,0c-3.5,0-7,0.1-10.5,0c-2.4-0.1-3.3-1.1-3.5-3.4 c-0.1-0.9,0-1.8,0-2.6c0-20.9,0-41.8,0-62.7c0-1.3,0-2.6,0-3.9c-6.3,0-12.1,0-17.9,0c-0.7,4.9-0.4,85.1,0.3,87.6c1,0,2.1,0,3.2,0 c4.4,0,8.8,0,13.1,0c0.3,0,0.5,0.2,0.8,0.3c-0.4,1-0.7,1.8-1.1,2.7c2.9,0,5.4,0,8.1,0c-0.4-1.1-0.7-1.9-1.2-3.1c7.5,0,14.7,0,22.1,0 C341.1,458.9,342.4,454.2,343.8,448.9z M322.5,288.1c-1.3,0.7-2.6,1.4-3.8,2.1c-9.6,5.7-19.2,11.4-28.8,17.1 c-18.7,11.1-37.4,22.2-56,33.5c-17.4,10.6-35,20.7-53.1,29.9c-16.4,8.4-33.8,12.2-52.1,12.2c-2.3,0-4.6-0.2-6.8-0.5 c-6.5-0.6-13-1.3-19.5-2c-2.2-0.2-4.4-0.6-6.5-0.9c0.6,1.3,1.3,2.1,2.2,2.7c6.7,5,14.2,8.6,22.3,10.8c5.6,1.5,11.2,2.9,17.1,2.4 c4.1-0.4,8.2-0.8,12.4-1.3c1.6-0.2,3-0.1,4,1.9c0-2.8,2-3.3,3.9-3.9c7.5-2.3,13.8-6.6,18.9-12.5c4-4.6,8.8-8.2,14.2-10.9 c3.7-1.9,7.5-3.7,11-5.8c18.9-11.4,37.7-23,56.6-34.5c8.9-5.4,17.8-10.7,26.9-15.6c10.5-5.6,21.1-11.1,31.2-17.4 C319.2,293.7,321.3,291.4,322.5,288.1z M661.8,288.7c1.2,3.6,1.8,4.5,4.4,6.1c4.9,3,9.9,6.1,14.9,8.9c7.4,4.1,15,7.6,22.3,11.9 c17.9,10.6,35.6,21.4,53.4,32.1c12.4,7.4,24.4,15.5,37.4,21.8c4.5,2.2,8.4,5.2,11.7,8.9c5.7,6.5,12.3,11.5,20.6,13.9 c2.1,0.6,3.4,1.6,3,4.3c1.1-2.8,3.2-2.6,5.3-2.2c0.8,0.1,1.5,0.2,2.3,0.3c5.9,0.3,11.7,1.5,17.6,0.4c11.8-2.1,22.7-6.2,32.2-13.8 c0.4-0.3,0.7-0.9,1.5-1.8c-1.7,0.2-2.8,0.3-3.8,0.5c-9.8,2-19.7,2.7-29.6,2.9c-5.5,0.1-11.1-0.6-16.6-1c-8.8-0.7-17.2-3.1-25.3-6.5 c-14.2-6-27.8-13.3-41.1-21.2c-16.3-9.6-32.4-19.6-48.6-29.2c-19.3-11.5-38.7-23-58.1-34.4C664.3,289.9,663.3,289.5,661.8,288.7z M372.7,268.1c-1.8,0-3.5,0-5.1,0c-6.6,0.1-13.1,0.2-19.7,0.5c-7.6,0.4-13.8,5.2-16.1,12.4c-0.8,2.4-0.9,5.1-1.1,7.7 c-0.5,8.7,1.7,16.6,7.6,23.4c2.9,3.4,6.3,6.1,10,8.3c0.3,0.2,0.6,0.2,1.1,0.4c-1.1,1-1.7,1.6-2.6,2.4c3.4,2,6.8,3.3,10.7,3.7 c0.2-1.1,0.3-2,0.4-2.6c6.3,0,12.2,0,18.2,0c0.7-4.3,0.5-34-0.3-36.5c-2.4,0-4.9,0-7.4,0c-2.5,0-5,0-7.4,0c0,2.8,0,5.1,0,7.5 c0.9,0.1,1.6,0.1,2.2,0.2c2.5,0.3,3.7,1.3,3.8,3.7c0.2,4.6,0.2,9.2,0,13.8c-0.1,2.6-1.5,3.6-4.1,3.7c-3,0.1-5.9-0.6-8.5-2 c-10-5.2-15.9-18.9-12.6-29.8c1.3-4.4,4.2-7.4,8.7-8.5c1.8-0.4,3.7-0.6,5.5-0.7c6.1-0.1,12.2,0,18.8,0 C374,273.1,373.4,270.7,372.7,268.1z M525.6,231c0-0.2-0.1-0.4-0.1-0.6c-0.6-0.2-1.2-0.4-1.8-0.5c-9.3-1.3-18.6-1.9-28-2 c-7.1,0-14.2,0.2-21.3,0.4c-3.9,0.1-7.8,0.6-11.7,1c-1.4,0.1-2.8,0.5-4.1,0.9c-0.3,0.1-0.5,0.3-0.8,0.4c0.6,0.6,1,0.9,1.3,1.3 c-1.5,3.2-3.8,5.9-3.7,10c2.2-0.2,4.3-0.2,6.3-0.5c3.4-0.5,6.7-0.5,10,0.5c6.2,1.8,12.4,3.6,18.6,5.2c1.3,0.3,2.8,0.3,4.1,0 c6-1.5,12.1-3.1,18-4.9c3.6-1.1,7.2-1.5,11-0.7c1,0.2,2.1,0,3.3,0c1.1-4-1.9-6.6-3.1-9.9C524.3,231.4,525,231.2,525.6,231z M399.7,323.7c3.4,2.6,6,3.5,8.9,3.3c-0.1-0.8-0.1-1.6-0.2-2.3c2.9,0,5.5,0.1,8.1,0c2.7-0.1,5.4,0.4,8.1-0.3c0-13.3,0-26.4,0-39.8 c-8.4,0.2-16.5-0.7-24.7,0.7c-4.6,0.8-8.9,3.5-10,10.2c-1.1,6.9,0.2,13.3,4.5,18.8c2.3,2.9,5,5.4,7.6,8.1 C401.5,322.7,400.7,323.1,399.7,323.7z M596.9,325.9c0.6,0,1-0.1,1.3-0.1c6.5,1,11.5-1.5,15.3-6.7c4.9-6.7,6.9-14.3,6.5-22.5 c-0.3-6.7-3.5-10.9-10.1-12.2c-6.1-1.3-12.5-1.3-18.5,0.2c-5,1.3-8.5,4.5-8.9,10.1c-0.1,1.9,0,3.9,0,5.8c0.1,6.3,2,12,5.5,17.2 c1.3,2,2.9,3.8,4.5,5.7c-0.9,0.4-1.7,0.9-2.9,1.5c2.5,1.7,4.5,3.5,7.5,3.5C597.1,327.5,597,326.8,596.9,325.9z M504.2,318.8 c-3.4-0.3-6.5-0.5-9.5-1c-1.7-0.2-3.2-0.9-3.6-2.8c-0.4-1.7,0.3-2.8,2.4-4.2c2.9-2,5.8-4,8.4-6.2c2.8-2.4,4.8-5.4,5.5-9.1 c1.2-6-1.2-9.8-7.2-11.2c-0.1,0-0.2,0-0.3-0.1c-6.1-1-12.2-1.1-18.2,0.2c-5.1,1.1-8.2,4.6-8.9,9.7c-0.4,3-0.5,6.1-0.1,9.1 c2,14.5,15.2,23.8,29.9,20.8C503.2,322.6,503.7,320.8,504.2,318.8z M642.2,324.5c0.1-1.3,0.1-2.3,0.1-3.4c0-5.8,0-11.6,0-17.4 c0-3-0.1-5.9,0-8.9c0.1-3.4,1.2-4.5,4.6-4.5c1.3,0,2.6,0,3.9,0c0-2.1,0-3.8,0-5.7c-1,0-1.7,0-2.5,0c-0.8,0-1.5,0-2.3,0 c-2.5-0.2-3.7-1.6-3.7-4.1c0.1-3.3,2.1-5.5,5.5-5.9c1.4-0.2,2.8-0.1,4.6-0.2c-0.6-2.2-1.2-4.1-1.9-6.4c-3.1,0.2-6,0.3-8.9,0.7 c-4,0.6-6.4,3.1-7,7.1c-0.2,1.1-0.2,2.2-0.2,3.3c0.1,2.6-0.1,4.9-3,5.7c0,1.9,0,3.5,0,5.3c2.7,0.9,3,3.1,3,5.6c0,8.4,0,16.9,0,25.3 c0,1.2,0,2.3,0,3.5C637.3,324.5,639.7,324.5,642.2,324.5z M460.6,318.9c-1.2-0.3-2-0.5-2.9-0.7c-3.6-0.9-5.2-2.7-5.3-6.4 c-0.1-5.9-0.1-11.8,0-17.7c0-2.6,1.2-3.8,3.7-4.1c1.2-0.2,2.3-0.2,3.4-0.2c0-1.8,0-3.4,0-5c-0.7-0.1-1.1-0.1-1.6-0.1 c-4.9-0.2-5.6-0.9-5.6-5.9c0-2.2-0.1-4.5-0.1-7.2c-3.1,1-5.6,1.8-8.2,2.7c0,1.7-0.1,3.1,0,4.5c0.2,2.8-0.3,5.2-3.2,6.2 c0,1.8,0,3.3,0,5c2.9,0.7,3.2,2.9,3.2,5.4c-0.1,5.2-0.1,10.5,0,15.7c0,2.3,0.2,4.6,0.6,6.8c0.6,3.1,2.3,5.5,5.6,6.1 c2.8,0.5,5.8,0.5,8.7,0.7C459.5,322.5,460,320.8,460.6,318.9z M541.1,290.3c-0.5-1.8-0.7-3.2-1.3-4.5c-0.2-0.5-1.1-1.2-1.7-1.2 c-3.9,0.1-7.9-0.1-11.8,0.5c-4.9,0.7-7.4,5.8-5.4,10.3c0.5,1.2,1.3,2.3,2.1,3.3c2.6,3.5,5.3,7,7.9,10.5c1.6,2.1,3.2,4.4,1.6,7.2 c-1.5,2.6-4.2,2.4-6.7,2.3c-1.5,0-2.9,0-4.8,0c0.7,2.3,1.3,4.1,1.9,6c3.1,0,6,0,8.9,0c0,0.6,0,1,0,1.5c0,0.5-0.1,1-0.3,1.8 c1.6,0,2.9,0.1,4.2,0c0.8-0.1,1.9-0.2,2.3-0.8c0.4-0.5,0.1-1.6,0.1-2.5c0.5-0.3,1-0.6,1.6-1c3.6-2.6,4.9-6.2,3.3-10.3 c-0.7-1.9-2-3.7-3.2-5.3c-2.2-2.9-4.5-5.6-6.7-8.5c-1.5-1.9-2.5-4-1.4-6.4c1.1-2.5,3.4-2.8,5.8-2.9 C538.6,290.3,539.7,290.3,541.1,290.3z M488.8,511.9c1-0.6,2.1-1.1,3.1-1.7c20.6-12.1,43-17.3,66.7-17.9c8.9-0.2,17.7,0.3,26.5,1.3 c8.6,1,17.1,1.9,25.3,5c10.7,4.1,20.8,9.1,29.5,16.7c1.9,1.7,4,3.1,6,4.7c0.1-0.1,0.2-0.3,0.4-0.4c-2-2.1-4-4.2-6.3-6.5 c7.2-4,14.5-7.3,21.7-11.6c-2.1-1.2-3.6-1.1-5.3-0.2c-6.3,3.3-12.6,6.5-19.1,9.9c-0.9-0.6-1.8-1.3-2.7-1.9c-4-2.5-7.8-5.4-12-7.4 c-16-7.4-33-10.6-50.5-11.4c-7.7-0.4-15.5,0.1-23.3,0.4c-11.2,0.4-22.1,2.9-32.8,6C505.9,499.8,496.6,504.6,488.8,511.9z M532.2,247.8c-1.6-3.8-1.7-3.5-5-4.2c-6.6-1.5-12.9-0.8-19.3,1.3c-4.3,1.5-8.8,2.4-13.3,3.7c-1.5,0.4-2.9,0.5-4.5,0 c-6.3-1.8-12.6-3.6-19-5.2c-1.8-0.5-3.7-1-5.4-0.8c-4.7,0.4-9.3,1.2-14,1.6c-2.7,0.2-3.3,1.9-4,4.1c0.7,0,1.1,0,1.5,0 c4.5-0.4,8.9-0.9,13.4-1.2c1.7-0.1,3.5,0.1,5.2,0.5c7.5,1.8,15,3.8,22.6,5.6c1.2,0.3,2.6,0.3,3.8,0c6.9-1.7,13.8-3.4,20.6-5.2 c3.7-1,7.3-1.1,11-0.5C527.9,247.7,530,247.6,532.2,247.8z M866.3,519.7c0.2-0.2,0.3-0.3,0.5-0.5c-0.2-0.4-0.4-0.8-0.6-1.1 c-6.4-7-14.1-12.5-22.5-16.7c-9.2-4.7-19.3-6.9-29.4-8.8c-5.7-1.1-11.4-1.6-17.2-1.9c-8.1-0.4-16.2-0.7-24.2-0.3 c-9.4,0.5-18.6,2-27.8,4.2c-12.4,3-23.9,7.6-34.1,15.5c-0.6,0.4-1.1,1-1.6,1.5c1.2-0.2,2.2-0.6,3.1-1.1c20.8-12.4,43.6-17.5,67.6-18 c8.8-0.2,17.5,0.4,26.2,1.3c8.4,1,16.9,1.9,24.9,5c9.4,3.7,18.5,7.8,26.4,14.2C860.5,515.2,863.5,517.4,866.3,519.7z M267,511.4 c0.5,0.3,0.6,0.4,0.6,0.4c1-0.5,1.9-1,2.9-1.5c20.9-12.3,43.6-17.5,67.6-17.9c8.7-0.2,17.3,0.4,25.8,1.3c8.4,1,16.8,1.9,25,5 c10.8,4.1,21,9.2,29.8,16.8c1.7,1.5,3.6,2.8,5.9,4.6c-0.3-0.9-0.3-1.1-0.5-1.2c-6.7-7.2-14.5-13.1-23.4-17.2 c-15.6-7.2-32.2-10.3-49.2-11.1c-8.7-0.4-17.5,0-26.2,0.5c-9.3,0.5-18.4,2.5-27.4,4.9c-8.2,2.3-16.2,5.3-23.4,10.1 C272.1,507.6,269.6,509.5,267,511.4z M727.1,383.3c0-0.4,0.1-0.6,0.1-0.8c-2.4-8.7-4.8-17.4-7.2-26.1c-0.1-0.4-0.2-0.9-0.5-1.2 c-0.5-0.4-1.1-0.9-1.6-0.8c-0.4,0.1-0.9,0.8-1.2,1.3c-0.2,0.4-0.1,0.9-0.3,1.8c-0.9-2-1.7-3.5-2.4-5.1c-0.2,0.1-0.5,0.2-0.7,0.3 c3.1,11.3,6.2,22.7,9.4,34.4C724.5,385.6,725.8,384.4,727.1,383.3z M803.6,412.9c-0.1-0.2-0.3-0.4-0.4-0.6c-1.1,0.7-2.2,1.4-3.3,2.1 c-1.9,1.2-3.8,2.5-5.8,3.6c-1.9,1-3.3-0.1-2.9-2.2c0.3-1.4,0.8-2.7,1.2-4c0.3-1.1,0.5-2.2,0.8-3.5c-1.9,0.2-2.6,1.2-3.4,2.3 c-2.2,2.9-4.4,6.1-7.2,8.4c-1.8,1.5-3,3.2-4.3,5c1.1,1.8,2.1,3.5,3.2,5.5C789.1,423.9,796.3,418.4,803.6,412.9z M799.8,438.2 c2-4.5,6.8-5.6,10.4-8.1c-1.4-0.5-2.8-1.5-3.9-1.2c-6.2,1.9-11.8,4.8-17.3,8.3c1.7,3.2,3.2,6.3,5,9.7c2.9-2.3,5.4-4.4,8.1-6.6 C801.2,439.4,800.5,438.9,799.8,438.2z M658.3,316.2c5.2,3.1,10.3,6,15.2,8.9c1.1-0.6,1.9-1,3-1.6c-5.7-3.3-11.3-6.5-17-9.8 C659,314.7,658.7,315.3,658.3,316.2z M813.3,411.4c2.1,1.6,4.2,3.2,6.5,4.9c2.6-5.1,5-9.9,7.4-14.7c-2.2,2-3.7,4.5-5.7,6.5 C819.4,410.4,816.4,410.7,813.3,411.4z M156.9,401.7c1.4,5.3,4.3,9.8,7,14.7c2.4-1.8,4.4-3.4,6.4-5 C163.4,411.2,159.8,407,156.9,401.7z M320.7,315.6c-4.8,2.8-9.2,5.3-13.7,7.9c1.3,0.7,2.1,1.1,3,1.6c3-1.8,6-3.6,9.1-5.3 C320.5,319,320.9,317.9,320.7,315.6z M183.5,437.2c0.1-0.3,0.2-0.5,0.3-0.7c1.7-3,1.1-4.7-1.9-6c-3.7-1.5-4.1-1.6-8.4-0.2 C177.1,432.2,180.8,433.8,183.5,437.2z M291,465.5c0.1,0,0.3,0,0.4,0c0-19,0-38.1,0-57.1c-0.1,0-0.3,0-0.4,0 C291,427.4,291,446.5,291,465.5z M353,372.9c0,0.3,0,0.5,0,0.8c7.9,0.6,15.7-0.7,23.5-0.8C368.7,372.9,360.9,372.9,353,372.9z M291,405.8c0.1,0,0.2,0,0.2,0c0-10.8,0-21.5,0-32.3c-0.1,0-0.2,0-0.2,0C291,384.3,291,395,291,405.8z M749.6,373.3 c-0.1-0.2-0.1-0.4-0.2-0.6c-5,0.6-10.3,0.4-14.4,4.6C739.9,375.9,744.7,374.6,749.6,373.3z M137.1,427.7c-6.5-2.5-8-2.4-11.1,0.7 C129.8,428,133.1,429.9,137.1,427.7z M857.6,428.2c-3.8-3.6-7.1-1.8-10.4-0.9c0.2,1.4,1,1.8,2.1,1.7 C851.9,428.7,854.4,428.5,857.6,428.2z M528.6,281.3c-7.3,1.1-10.7,4-11,8.7c1.5-1.6,2.9-3.4,4.7-4.8 C524.1,283.9,526.1,282.9,528.6,281.3z M455.5,268.2c-0.1-0.4-0.3-0.8-0.4-1.1c-4.7,1.8-9.7,2.6-14.2,4.9c0.1,0.3,0.2,0.5,0.3,0.8 C445.9,271.2,450.7,269.7,455.5,268.2z M578.4,421.3c3.7,0.3,8.2-3,11.4-8.1C585.8,416,582.2,418.5,578.4,421.3z M382.2,474.3 c-0.3-3.2-0.5-6.4-0.8-9.7c-0.3-3.1-0.6-6.2-0.9-9.5C380,465.3,380.4,470.5,382.2,474.3z M481.8,281.1c-5.1,1.4-8.9,3.5-11,8.6 C474.6,286.8,477.9,284.1,481.8,281.1z M280.5,486.5c-0.1,0.3-0.3,0.5-0.4,0.8c2.8,2.1,5.5,4.2,8.3,6.3c0.2-0.2,0.3-0.4,0.5-0.7 C286.3,490.5,283.9,487.8,280.5,486.5z M827.9,422c4.5,1.1,6.6,0.8,8.9-1.1C834,421,831.1,420.9,827.9,422z M155.2,422.2 c-2.6-1.3-6.9-1.6-8.8-0.7C149.3,422.9,152,423,155.2,422.2z M659.8,436.5c0.4,4.2,1.9,5.9,4.5,6C663,440.7,661.5,438.8,659.8,436.5 z M183.6,438.6c-0.7,0.5-1.4,1-2,1.4c1.9,2.4,2.4,2.6,4.3,2.1C185.2,441.1,184.6,440,183.6,438.6z M386.7,305.9c0.2,0,0.4,0,0.6,0 c-0.3-3.1-0.5-6.1-0.8-9.2c-0.2,0-0.3,0-0.5,0C386.2,299.8,386.5,302.8,386.7,305.9z M426.9,281.7c0-0.1,0.1-0.2,0.1-0.3 c-2.6,0-5.2,0-7.7,0c0,0.1,0,0.2,0,0.3C421.8,281.7,424.3,281.7,426.9,281.7z M546.3,682.8c-0.8-0.6-1.3-1.3-1.6-1.2 c-0.6,0.2-1,0.8-1.6,1.2c0.4,0.4,0.8,1.1,1.2,1.1C544.9,683.9,545.4,683.3,546.3,682.8z M201.6,689c-0.6,0.6-1.3,1-1.3,1.5 c0,0.4,0.7,0.9,1.1,1.3c0.4-0.5,1-1,1.2-1.5C202.7,690.1,202.1,689.6,201.6,689z M504.9,283.2c-2.2-1.9-2.3-1.9-4.8-1.6 C501.9,282.2,503.4,282.7,504.9,283.2z M183.4,415.8c0.2-0.2,0.4-0.4,0.6-0.7c-1.1-0.8-2.1-1.7-3.2-2.5c-0.1,0.2-0.3,0.3-0.4,0.5 C181.4,414,182.4,414.9,183.4,415.8z M440.1,282.6c-0.8-1.5-1.7-1.5-3.2-0.2C438.5,282.4,439.3,282.5,440.1,282.6z M680.5,505.1 c-0.1-0.1-0.2-0.2-0.3-0.4c-0.5,0.4-1.1,0.8-1.6,1.2c0.1,0.1,0.2,0.3,0.3,0.4C679.5,505.9,680,505.5,680.5,505.1z M681.4,503.7 c0.1,0.1,0.2,0.3,0.4,0.4c0.6-0.5,1.3-1.1,1.9-1.6c-0.1-0.1-0.2-0.3-0.3-0.4C682.7,502.6,682,503.1,681.4,503.7z"></path> <path style="fill:#FFFFFF;" d="M313.6,605.7c4.2,0,7.9-0.3,11.6,0.1c7,0.8,14,2,21.1,2.9c2.2,0.3,3.8,1.3,5.3,2.8 c2.8,2.8,5.9,5.4,8.7,7.9c-2.7-4.5-5.6-9.3-8.5-13.9c-0.4-0.6-1.5-0.8-2.3-0.9c-6.4-0.9-12.7-1.9-19.1-2.4c-5.6-0.5-10.9-2-16.1-4.1 c-2-0.8-3.6-2.4-5.6-3.6c1.2,0,2.3,0,3.8,0c0.2-2.7,0.4-5.5,0.5-8.2c0.1-5.5,1-10.8,3.4-15.9c3.2-7,8.7-10.8,16-12.1 c5.6-1,11.3-1,17-0.2c10.4,1.4,17.3,7.6,19.7,17.8c1.6,6.6,1.6,13.2,1.3,19.9c-0.6,16.7-4.5,32.6-11.2,47.9c-2.5,5.8-5.3,11.5-10,16 c-5,4.7-10.2,4.9-15,0.1c-2.5-2.5-4.8-5.4-6.5-8.5c-6.7-12.2-10.7-25.3-13.1-39C314.2,610,314,608,313.6,605.7z M354.4,640.7 c2.2-2.8,3.3-5.9,2.8-8.9C356.2,635.2,355.4,638,354.4,640.7c-1.6,1.3-1.7,3.3-2.3,5C353.2,644.2,354.6,642.8,354.4,640.7z"></path> <path style="fill:#FFFFFF;" d="M279.4,671.8c6,0,12.2,0,18.3,0c2.6,0,3.7,1.1,4.2,3.9c0.6,3.3,4.2,6.2,8,6.6 c3.6,0.3,7.1-1.7,8.4-5.1c0.2-0.5,0.2-1.1,0.2-1.6c0.2-2.3,1.5-3.6,3.8-3.8c4.5-0.4,8.8,0.8,13.2,1.5c5.8,0.9,11.5,0.6,17.2-1 c1-0.3,2.1-0.4,3.2-0.4c4.5,0,9-0.2,13.5,0c2.8,0.1,5.5,1,8.2,1.1c2.6,0,5.5,0.7,7.9-1c0.3-0.2,0.9-0.1,1.3-0.1c5.8,0,11.6,0,17.3,0 c1,1.1,1.1,2,0.8,3.4c-1,3.6-2.8,6.8-4.7,10c-6.9,11.4-16.4,20.1-28.1,26.3c-7.9,4.2-16.4,6.4-25.4,7.1c-13.1,1.1-25.5-1.5-37-7.6 c-11-5.9-19.7-14.5-26.2-25.2c-2-3.3-4-6.5-4.9-10.3C278.3,674,278.3,672.9,279.4,671.8z M385.3,682.5c0.2-2-1.7-4.1-3.7-4.1 c-1.7-0.1-3.8,1.9-4,3.6c-0.3,2.3,1.3,4.4,3.6,4.7C383.1,686.8,385.1,684.8,385.3,682.5z"></path> <path style="fill:#FFFFFF;" d="M352.4,520.5c-0.3,1-0.6,1.6-0.9,2.5c-0.5-0.4-0.8-0.7-1-0.9c-0.9,0.6-1.9,1.2-2.9,1.9 c-1.1-3.3-1.7-3.8-4.6-3.4c-1.4,0.2-2.7,0.7-4.1,1.1c-3.4,1.3-6.7,2.7-10.1,3.9c-2.6,1-4.5,2.6-5.4,5.3c-0.5,1.3-1,2.6-1.6,3.9 c-0.2,0.4-0.7,0.6-1.4,1.2c-0.1-0.9-0.2-1.3-0.1-1.6c0.5-2.5,0.4-5-0.4-7.5c-0.3-1-0.1-2.2-0.2-3.8c-1.7-2.1-4.6-2.6-7.8-2.5 c-7.7,0.2-15.3,0-23,0c-0.6,0-1.3-0.1-2-0.1c1-3.1,3.6-4.1,6-5.3c6-3.1,12.6-5,19.2-6.4c9.6-2.1,19.5-2.7,29.3-2.8 c11.3-0.1,22.5,0.8,33.4,3.6c6.5,1.6,13,3.7,18.8,7.4c1.2,0.8,2.1,2,3.8,3.6C381.7,520.5,367,520.5,352.4,520.5z"></path> <path style="fill:#FFFFFF;" d="M169.3,636.8c1.6,1.3,3.5,2.2,4.8,3.8c3.1,3.9,7.5,4.1,11.7,4c3.7-0.1,7.4-0.6,10.8-2.3 c0.3-0.1,0.6,0,1.1,0c0,1.6-1,2.4-2.1,3c-4.6,2.8-9.2,5.5-13.8,8.1c-0.7,0.4-2.1,0.4-2.7,0c-1.9-1.5-3.8-3-5.2-4.9 c-1.9-2.5-3.3-5.4-4.9-8.1C168.5,639.3,168.1,638.2,169.3,636.8z"></path> <path style="fill:#FFFFFF;" d="M345.5,526.1c-0.3,0.6-0.5,1.4-1,1.6c-5.1,2-9.4,5.2-13.9,8.6c-0.3-3.1,0.1-3.9,2.2-4.8 C336.9,529.6,341.1,527.9,345.5,526.1z"></path> <path style="fill:#FFFFFF;" d="M292.6,589c1.4,1.8,2.7,3.5,4.1,5.3C294.3,594,292.7,592.3,292.6,589z"></path> <path style="fill:#FFFFFF;" d="M533.8,612.9c1-0.7,1.8-1.4,3-2.3c1.7-0.1,2.8,1.1,3.4,2.9c1,2.9,1.9,5.8,3,8.7 c0.7,1.8,1.5,3.6,2.6,5.3c0.9-8.2,1.5-16.3,1.5-24.6c-3.2-0.9-6.3-1.9-9.4-2.7c-3.6-0.9-3.7-0.9-3.8-4.7c-0.2-6.3-0.3-12.7,1.2-18.9 c1.2-4.8,3.1-9.3,6.8-12.9c3.3-3.2,7.2-4.9,11.6-5.7c5.6-1,11.3-1.1,17-0.2c11.8,1.9,17.5,8.1,19.8,18.6c1.6,7.2,1.5,14.5,1,21.8 c-0.6,7.8-1.6,15.4-3.5,23c-2.4,9.6-5.6,18.9-10,27.7c-0.4,0.9-1,1.7-1.5,2.6c-0.9-0.2-1.8-0.2-2.6-0.4c-1.6-0.5-3.1-0.9-4.6,0.4 c-0.5,0.5-1.7,0.3-2.5,0.3c-2.8,0-5.7,0-8.6,0.6c2.3,0.3,4.7,0.4,7,0.8c2.9,0.5,5.7,1.3,9,2.1c-2.5,3.1-4.8,5.8-8.3,7.1 c-3.9,1.4-7.2,0.1-10.2-2.6c-4.7-4.2-7.5-9.7-10-15.3c-4-8.9-6.9-18.2-8.9-27.7C536.3,615,535.8,613.3,533.8,612.9z M580.2,627.6 c-1.6,4.4-3.3,8.8-4.9,13.2C578.2,636.9,579.5,632.3,580.2,627.6z"></path> <path style="fill:#FFFFFF;" d="M508,520.6c1.2-3,3.7-4.2,6-5.4c6.4-3.2,13.2-5.2,20.2-6.6c15.5-3.1,31.2-3,47-2.1 c10,0.6,19.1,3.9,28.2,7.6c1.7,0.7,3.4,1.5,4.9,2.6c1.4,0.9,2.6,2.2,3.8,3.3c-0.1,0.2-0.2,0.4-0.2,0.7c-1,0-2.1,0-3.1,0 c-6.8,0.1-13.5,0.1-20.3,0.2c-0.4,0-0.9-0.1-1.3,0.1c-3.4,1.5-6.7,3-10.1,4.4c-3,1.3-6.1,2.5-9.9,4c1.1-4.2,3.1-6.7,5.9-8.7 c2.4-1.7,5-3.1,7.5-4.7c0.8-0.5,1.7-1.1,2.2-1.9c0.5-0.7,1-1.9,0.7-2.6c-0.3-0.6-1.6-0.8-2.5-1c-0.7-0.1-1.5,0.1-2.2,0.4 c-1.9,0.6-3.7,1.3-5.6,1.9c-4.3,1.3-7.5,4.1-10,7.6c-2.7,3.8-6.2,6-10.6,7.1c-2.3,0.6-4.5,1.4-7.3,2.3c1.1-4.3,5.8-4.9,7.2-8.9 c-3.5-0.5-6.8-0.2-10.1-0.3c-3.4,0-6.8,0-10.2,0c-3.3,0-6.6,0-9.9,0c-3.4,0-6.8,0-10.2,0C514.9,520.6,511.5,520.6,508,520.6z"></path> <path style="fill:#FFFFFF;" d="M595.7,660.9c2.6,1.1,5.1,2.2,7.7,3.2c2.8,1.2,5.6,2.8,8.5,3.4c4.6,0.9,9.3,1.2,13.9,1.6 c2.3,0.2,3.3,0.7,3.7,2.8c0.2,1.1,0,2.2-1.4,2.5c-4.8,1.2-9.5,2.3-14.1-0.9c-6-4.2-12.3-8.1-18.5-12.1 C595.5,661.3,595.6,661.1,595.7,660.9z"></path> <path style="fill:#FFFFFF;" d="M495.6,588.3c-1.6-1.6-5-2.3-3.3-6C493.5,584.4,494.5,586.4,495.6,588.3z"></path> <path style="fill:#FFFFFF;" d="M751.9,666.7c1,0.9,2.6,2.1,4,3.6c3.1,3.3,6.7,4.5,11.4,4.3c8.5-0.4,17.1,0.1,25.6,0.2 c5,0.1,10.1,0.2,15.1,0c2.1-0.1,3.9-1.2,5.4-2.8c2.6-2.8,5.2-5.6,7.9-8.3c0.3-0.3,0.7-0.4,1.4-0.8c0,2,0.9,2.7,2.6,3 c0.9,0.1,1.7,0.9,2.4,1.5c3.4,2.9,7.2,3.1,11.1,1.7c3.1-1.1,6.3-0.3,9.4-0.4c1.3,0,1.5,1.2,1.5,2.5c-0.1,3.7-1.4,7.1-3.1,10.3 c-7.7,14.6-19.1,25.5-33.9,32.6c-8.4,4-17.3,6-26.6,6.2c-10.1,0.3-19.9-1.2-29.1-5.3c-17.2-7.5-29.7-19.8-36.6-37.5 c-0.6-1.4-0.8-2.9-1.2-4.4c-0.4-1.6,0.4-2.5,1.8-2.9c0.7-0.2,1.5-0.5,2.2-0.6c2.4-0.4,5-0.5,7.3-1.1c4.3-1.1,8.7-0.2,13-0.8 C746,667.4,748.6,667.1,751.9,666.7z M750.3,680.7c0.2-3.7-2.6-6.8-6.2-6.9c-2.8-0.1-4.5,1.7-4.4,4.5c0.1,2.8,1.8,4.4,3.9,6 C746.7,686.5,750.4,684.8,750.3,680.7z M832.1,681.9c-1.2-0.8-1.8-1.4-2.4-1.5c-1.1-0.2-2.3,0.9-2.2,1.9c0.1,1.2,1,1.8,2,1.6 C830.2,683.6,830.9,682.8,832.1,681.9z"></path> <path style="fill:#FFFFFF;" d="M774.9,636.8c3.4-1.4,6.9-2.8,10.2-4.2c4.7-2,9.4-4.2,14.1-6.2c0.7-0.3,1.6-0.1,2.3-0.2 c0.6-0.1,1.2-0.2,1.7-0.5c1.8-0.9,3.2-2.8,5.8-1.7c0.6,0.3,1.8-0.7,2.7-1c0.7-0.2,1.4-0.4,2.3-0.7c-0.3,2-1.7,2.3-2.8,2.7 c-2.8,1-4.1,3-5.1,5.8c-2.4,6.6-5.2,13-8,19.4c-1.7,3.8-4.3,7.1-7.4,9.9c-4.1,3.8-9.6,4-13.6,0.2c-2.4-2.2-4.6-4.8-6.3-7.5 c-6.6-11.1-10.5-23.3-13.2-35.9c-2.2-10.4-3-21-2.6-31.6c0.2-5.6,1.3-11,3.8-16.1c3.2-6.4,8.6-9.8,15.4-11.1 c6.4-1.2,12.9-1.4,19.2,0.1c10.8,2.5,15.5,7.8,17.9,18.5c1.5,6.9,1.8,14.1,0.9,21.2c-0.4,3-0.6,6.1-0.7,9.1c-0.1,2.9-1.4,4.7-4,5.7 c-1.6,0.6-3.4,0.9-3.9,3.1c-0.1,0.6-1.3,1.1-2,1.6c-8.5,5.8-16.9,11.7-25.4,17.5c-0.6,0.4-1.2,0.9-1.8,1.4 C774.6,636.5,774.8,636.7,774.9,636.8z M795.8,643.4c-0.2-0.1-0.4-0.3-0.7-0.4c-0.5,1-0.9,2-1.4,3c0.2,0.1,0.3,0.2,0.5,0.2 C794.9,645.3,795.3,644.4,795.8,643.4z M797.6,638.9c-0.2-0.1-0.3-0.2-0.5-0.4c-0.3,0.7-0.5,1.5-0.8,2.2c0.1,0,0.3,0.1,0.4,0.1 C797.1,640.2,797.3,639.6,797.6,638.9z"></path> <path style="fill:#FFFFFF;" d="M839.4,520.4c-37.2,0-73.8,0-110.4,0c1.1-3,3.7-4.1,6.1-5.3c6.5-3.2,13.4-5.1,20.5-6.6 c9.1-1.9,18.4-2.4,27.7-2.5c11.4-0.1,22.7,0.8,33.8,3.6c6.3,1.6,12.6,3.5,18.2,7.1C836.6,517.6,837.7,518.9,839.4,520.4z"></path> <path style="fill:#FFFFFF;" d="M845.8,639c-5.4,7.1-11.9,12.1-18,17.4C832.6,649.6,841.9,640.5,845.8,639z"></path> <path style="fill:#FFFFFF;" d="M835.4,637.4c-3.5,4.1-7.1,8.2-11.6,11.2C827.1,644.2,830.9,640.4,835.4,637.4z"></path> <path style="fill:#FFFFFF;" d="M451.7,450.4c0.2-3.5,0.3-7,0.7-10.4c0.3-2.9,1.1-3.5,4-3.5c1.6,0,3.3,0,4.9,0 c2.2,0.1,2.8,0.6,3.4,2.8c0,0.1,0,0.2,0.1,0.3c0.2,4.8,0.5,9.6,0.6,14.4c0,1.5-0.3,3-0.4,4.5c-0.1,1.4-0.8,2.3-2.2,2.3 c-2.8,0-5.7,0-8.5,0c-1.6,0-2.4-1-2.4-2.5c0-2.6,0-5.2,0-7.8C451.9,450.4,451.8,450.4,451.7,450.4z"></path> <path style="fill:#FFFFFF;" d="M515.1,449.5c0-3-0.2-5.9,0-8.8c0.3-3.6,1.1-4.2,4.7-4.2c1.4,0,2.8,0,4.3,0c2.3,0.1,3,0.5,3.3,2.8 c0.4,2.6,0.6,5.2,0.7,7.8c0.1,3.6,0,7.2-0.2,10.8c-0.1,2.6-0.5,2.9-3.2,2.9c-2.1,0-4.2,0-6.2,0c-3.1,0-3.6-0.5-3.6-3.7 c-0.1-2.5,0-5,0-7.5C514.9,449.5,515,449.5,515.1,449.5z"></path> <path style="fill:#FFFFFF;" d="M235.7,389.3c2.6,0.3,5.2,0.6,7.8,1c8.5,1.6,11.6,7,12.4,13.7c1.6,13.3-1.3,25.8-7.8,37.5 c-1.2,2.1-2.8,3.9-4.5,5.6c-4.5,4.3-11.3,4.4-15.7,0c-2.3-2.3-4.4-5-5.8-7.8c-5.1-10.5-7.6-21.6-6.8-33.3c0-0.5,0-1.1,0.1-1.6 c1.6-9,4.8-13.8,17.3-14.8c1-0.1,2,0,3,0C235.6,389.4,235.7,389.4,235.7,389.3z M244.4,442.3c4-4.8,6.5-9.9,6.9-16.3 C248.9,431.5,246.8,436.7,244.4,442.3z"></path> <path style="fill:#FFFFFF;" d="M235.5,462.5c-7.3,0.3-13.8-1.7-19.3-6.7c-4.9-4.4-8.3-9.9-10.4-16.1c-0.9-2.4-0.2-3.2,2.3-3.3 c2-0.1,3.9,0,5.9,0c1.9-0.1,3.3,0.7,4.4,2.3c1.7,2.4,3.4,4.9,5.1,7.2c2.4,3.2,5.5,5.3,9.3,6.3c4,1,7.6-0.2,10.9-2.3 c3-2,5.1-4.8,7-7.7c3.9-5.7,3.9-5.7,10.8-5.7c4.8,0,5.2,0.6,3.3,5.1c-3.4,7.9-8.3,14.6-16.3,18.6C244.4,462.1,240,462.6,235.5,462.5 z"></path> <path style="fill:#FFFFFF;" d="M227,378.3c3.5-1.7,14.3-1.6,17.6,0C238.3,378.3,232.7,378.3,227,378.3z"></path> <path style="fill:#FFFFFF;" d="M579.3,437.2c-1.8,1.1-2.9,1.9-4.1,2.6c-3.1,1.7-4.6,4.2-4.4,7.8c0.1,3.1,0.1,6.1,0,9.2 c-0.1,3.4-0.7,4-4.1,4c-2.2,0-4.4,0-6.6,0c-1.6,0-2.5-0.6-2.5-2.3c0-4.6-0.1-9.1,0-13.7c0-2,0.2-3.9,0.5-5.9 c0.2-1.6,1.2-2.5,2.9-2.5c5.5,0,10.9,0,16.4,0.1C577.7,436.5,578.1,436.8,579.3,437.2z"></path> <path style="fill:#FFFFFF;" d="M683.3,460.5c-6.5,0-12.9,0.2-19.4-0.1c-5.7-0.3-10.9-2.2-15.3-5.9c-4.5-3.9-6.9-9-7.8-14.7 c-0.4-2.3,0.6-3.3,2.9-3.3c2-0.1,4,0.1,5.9-0.1c2.5-0.3,4.2,0.8,5.3,2.9c1.6,3,3.9,5.5,6.6,7.6c4.2,3.2,9.2,4,14.2,4.3 c3.1,0.2,6.1,0.1,9.2,0c4.4-0.1,6.3-1.7,7.1-6.1c0.3-1.6,0.3-3.2,0.6-4.9c0.5-3.3,1.2-3.9,4.4-3.9c1.5,0,3.1,0,4.6,0 c2.2,0.1,2.9,0.6,3.3,2.8c0.3,1.9,0.6,3.9,0.6,5.8c0.1,4.1,0.1,8.1,0,12.2c0,3-0.6,3.5-3.5,3.5c-6.2,0-12.5,0-18.7,0 C683.3,460.7,683.3,460.6,683.3,460.5z"></path> <path style="fill:#FFFFFF;" d="M399.1,451c0,2.9,0.1,5.9,0,8.8c-0.1,2.9-0.8,3.5-3.8,3.5c-1.9,0-3.7-0.1-5.6,0 c-1.9,0.1-2.9-0.9-3.2-2.6c-0.2-1.1-0.5-2.1-0.4-3.2c0-5.2,0.1-10.5,0.2-15.7c0-0.4,0-0.9,0.1-1.3c0.6-3.8,1-4.1,4.8-4.1 c1.2,0,2.4,0,3.6,0c3,0,3.5,0.3,3.9,3.2c0.4,3,0.5,6.1,0.7,9.1c0,0.8,0,1.5,0,2.3C399.2,451,399.2,451,399.1,451z"></path> <path style="fill:#FFFFFF;" d="M763.3,436.6c4.2-0.2,8-0.5,11.8,0.1c2.8,0.5,4.2,3.1,4.7,5.7c1.9,9-3,15.6-10.9,17.6 c-1.9,0.5-3.9,0.7-5.8,0.7c-7.8,0.1-15.5,0-23.3,0c-3.3,0-3.6-0.2-4.7-3.4c-2-5.7-1.7-6,4.4-6c4.9-0.1,9.8-0.2,14.7-0.6 c2.2-0.1,4.3-0.9,6-2.4c2-1.9,3.2-4.1,3.2-6.9C763.3,439.9,763.3,438.5,763.3,436.6z"></path> <path style="fill:#FFFFFF;" d="M317.3,460.8c-5.7,0-11.4,0-17.1,0c-3.1,0-3.7-0.5-3.7-3.5c0-5.1,0.1-10.3,0.2-15.4 c0-1.1,0.3-2.1,0.5-3.2c0.3-1.5,1.2-2.2,2.8-2.2c2.1,0,4.2,0,6.2,0c1.6,0,2.5,0.8,2.7,2.3c0.3,1.7,0.5,3.4,0.6,5.2 c0.4,5.3,2.6,7.4,7.9,7.4c6.3,0,12.7,0,19,0c3.5,0,4,0.8,3.1,4.2c-0.2,0.7-0.5,1.5-0.7,2.2c-1,2.8-1.3,3-4.2,3.1 C328.9,460.8,323.1,460.8,317.3,460.8z"></path> <path style="fill:#FFFFFF;" d="M368.7,317.8c0.4-3.6,0.7-6.9,1.1-10.2c0.1-1,0.6-2.4,2-2.1c0.7,0.2,1.5,1.3,1.6,2.1 c0.3,2.3,0.5,4.7,0.2,7.1C373.3,318.2,373,318.3,368.7,317.8z"></path> <path style="fill:#FFFFFF;" d="M338.4,305c1.4,0.7,2.5,0.9,3.2,1.6c3.2,3.2,6.4,6.6,9.5,9.9c0.1,0.1,0.1,0.4,0.2,0.6 C345.6,317,338.8,311,338.4,305z"></path> <path style="fill:#FFFFFF;" d="M416.9,304.6c0,2.9,0,5.9,0,8.8c0,3.9-2,5.8-6.1,4.7c-5.6-1.6-9.3-5.2-11.3-10.4 c-1-2.6-1.5-5.5-1.4-8.3c0.3-5.8,3.5-8.6,9.2-8.9c1.5-0.1,3.1,0,4.6,0c3.6,0.1,4.8,1.2,5,4.9c0.1,1.7,0,3.5,0,5.2 C416.9,302,416.9,303.3,416.9,304.6z"></path> <path style="fill:#FFFFFF;" d="M420,318c-1.2-4.9-1-9.1,0.6-11.9C423,309.1,422.8,315.6,420,318z"></path> <path style="fill:#FFFFFF;" d="M401.5,316.1c-5-1.6-8-6.3-7-10.4c2.1,1.3,2.4,3.6,3.6,5.3C399.3,312.7,400.4,314.4,401.5,316.1z"></path> <path style="fill:#FFFFFF;" d="M611.7,300.3c-0.2,5.4-1.5,10.5-4.5,15.2c-2.8,4.3-8.7,5.4-12,0c-3.6-5.9-5.4-12.2-4.1-19 c0.8-4.1,3.4-6.2,7.4-6.7c1.6-0.2,3.3-0.2,4.9,0c5.1,0.6,8,3.9,8.2,9C611.7,299.2,611.7,299.8,611.7,300.3z"></path> <path style="fill:#FFFFFF;" d="M615.2,305.8c1.6,3.1-0.8,8.7-4.7,11C610.7,314.1,613.3,308,615.2,305.8z"></path> <path style="fill:#FFFFFF;" d="M587.3,305.9c2.4,3.2,3.5,6.9,5,10.9C588.6,315.1,586.2,310,587.3,305.9z"></path> <path style="fill:#FFFFFF;" d="M491.4,289.6c0.4,0,0.9,0,1.3,0c5.8,0.3,8.1,4.4,5.4,9.5c-0.3,0.6-0.6,1.2-1.1,1.6 c-2.8,3.2-6.2,5.5-10,7.3c-2.2,1-4.3,0.2-5-2c-0.7-2.3-1.3-4.7-1.2-7C481,292.9,484.8,289.6,491.4,289.6z"></path> <path style="fill:#FFFFFF;" d="M477.4,305.6c1.9,1.7,3.3,3.7,5.2,4.7c1.8,0.9,4.2,0.6,6.5,0.8c-0.3,2.3-0.6,4.5-0.9,6.8 C481.9,317.7,475.9,311,477.4,305.6z"></path> <path style="fill:#FFFFFF;" d="M638.5,317.3c-1.9-3.7-1.5-7.4-0.2-11.2C640.3,309.8,640.3,313.5,638.5,317.3z"></path> <path style="fill:#FFFFFF;" d="M448.9,306c0.6,3.8,1.2,7.6,1.8,11.6c-1.9,0.8-2.9-0.1-3.4-1.5c-1.1-3.4-0.9-6.8,0.6-10.1 C448.3,306,448.6,306,448.9,306z"></path> <path style="fill:#FFFFFF;" d="M533.4,305.9c3.3,2,5.3,4.3,6.7,7.2c0.7,1.3,1,2.7,0.1,4c-1,1.5-2.4,1.1-3.7,0.8 C535.5,314,534.5,310.2,533.4,305.9z"></path> </svg> 