<?xml version="1.0" encoding="UTF-8"?> <svg xmlns="http://www.w3.org/2000/svg" xmlns:xlink="http://www.w3.org/1999/xlink" version="1.1" id="Layer_1" x="0px" y="0px" viewBox="0 0 1000 1000" style="enable-background:new 0 0 1000 1000;" xml:space="preserve"> <path style="fill:#FFFFFF;" d="M948.5,170.1c0,221,0,441.9,0,662.9c-1.7,4-3.8,7.9-5.1,12.1c-15.1,49.7-68,89.4-123.9,88.9 c-206.7-1.9-413.5-0.4-620.2-1.4c-18.5-0.1-38.4-5.7-55-13.9c-36.8-18.1-56.3-51-66.7-89.6c0-218.4,0-436.8,0-655.2 c3.7-10.6,6.5-21.7,11.1-31.9c19.7-43.6,56.1-65.6,101.1-76c215.5,0,430.9,0,646.4,0C894.5,78.5,932,113,948.5,170.1z M318.8,238.6 c-8.2,39.3-15.9,75.6-23.5,111.9c-17.9,86.1-61.6,155.3-135.2,205.1c-4.9,3.3-7.5,10.1-11.1,15.2c6.4,0.3,13.4,2.5,19.1,0.6 c104.5-34.5,188.9-92.6,233.9-197.3c1.8-4.2,7.7-9.1,12.1-9.5c13.9-1.2,28-0.5,43.7-0.5c0,11.2-0.4,20.1,0.1,28.9 c0.9,15.7-2.4,26-17.6,37.1c-24.7,18.2-40,45.4-39.7,78.4c0.5,67.4,0.5,134.8,1.3,202.2c0.6,49,45.4,86.1,81.5,87.6 c88.8,3.5,177.8,3.2,266.7,3.5c23.2,0.1,40.6-17.1,41-39.7c1-52,1.4-104,0.7-156c-0.3-25-18.4-40.9-43.7-41.2 c-27.7-0.3-55.5,0.1-83.2,0.1c-45.6,0-91.2,0-137.7,0c0,29.1,0,55.6,0,84.5c61,0,120.5,0,180.9,0c0,19.8-0.5,37.1,0.2,54.4 c0.5,12.9-4.7,16.2-17.2,16c-56.1-0.6-112.2,0.1-168.3-0.3c-12.5-0.1-25-2.3-39.2-3.8c0-70.4,0-138.6,0-209.1 c29.6,0,59.1,0.1,88.6-0.1c5.7,0,14.3,1,16.6-2.1c10.6-14.5,25.3-10.2,38.8-10.3c53.3-0.3,106.7-0.1,161-0.1c0-28.5,0-55.1,0-84.2 c-72.6,0-144.4,0-217.3,0c-2.6-34.7-5-67-7.5-101.7c-22.1,0-41.9,0-61.7,0c0-1.1-0.1-2.2-0.1-3.3c66.2-33.3,132.3-66.7,198.5-100 c-0.5-1.7-0.9-3.4-1.4-5.1c-44.8,0-89.7-0.3-134.5,0.4c-4.7,0.1-9.8,5.5-13.9,9.4c-30.6,29.4-61.4,58.6-91.3,88.8 c-10.2,10.3-20.1,14.3-34.6,8.4c6.5-19.6,12.5-38.4,19.1-57c1.4-3.9,4.5-10.2,6.8-10.2c26.2-0.4,21.5-24.2,33.2-38.7 c-71.3,0-139.2,0-209.4,0C285.6,219.6,287.3,243.8,318.8,238.6z"></path> </svg> 