<?xml version="1.0" encoding="utf-8"?>
<!-- Generator: Adobe Illustrator 26.1.0, SVG Export Plug-In . SVG Version: 6.00 Build 0)  -->
<svg version="1.1" id="Layer_1" xmlns="http://www.w3.org/2000/svg" xmlns:xlink="http://www.w3.org/1999/xlink" x="0px" y="0px"
	 viewBox="0 0 1000 1000" style="enable-background:new 0 0 1000 1000;" xml:space="preserve">
<path style="fill:#FFFFFF;" d="M488.4,906.2c-9.4-1.1-18.8-2.3-28.2-3.3c-86-8.9-162-41.3-227.9-97.1
	c-57.7-48.8-98.9-109.1-123.5-180.5c-4.9-14.1-8.2-28.6-12.3-43c-0.3-1.1-0.2-2.4,0.5-4c18.1,46.1,48.4,81.4,91.4,105.6
	c42.3,23.7,87.3,34.6,135.9,28.1c8.9-34.2,28-62.6,45.5-91.8c34.1-56.7,57.6-117.5,67.9-183c5.2-33,5.8-66.1-4.5-98.6
	c-1-3.2-2.2-6.4-3.7-10.6c-130.4,62-230.9,153.1-292.5,284.4c12.8-73.2,45.6-136.8,93-193.2c47.1-56,104.2-99.4,170.6-132
	c-19.6-16-41.5-23-65.2-24.8c-99.4-7.7-171.6,48-209.9,132c-20,43.7-29.1,90-30.9,137.7c-0.4,11.6,0.9,23.3,1.5,34.9
	c-0.8,0.1-1.6,0.2-2.4,0.3c-1.4-8.5-3.2-17-4.2-25.6c-11.2-97.3,7.3-187.5,65.4-267.9c37.1-51.4,85.1-88,148-102.2
	c53-12,105.3-9.5,155.3,13.3c25,11.4,46.4,28,63.1,50.2c4.8,6.5,9.3,9.7,18.8,8.6c28.9-3.4,58-4.8,88.1-7.1
	c-21.8-49.7-53.1-91.9-104.9-115.9c-50.8-23.6-103.7-25.1-157.7-12.7c-0.2-0.7-0.3-1.5-0.5-2.2c6.8-2.5,13.4-5.3,20.3-7.4
	c56.9-17.1,113-16.5,167.2,9.7c34,16.3,62,40.2,82.2,72.1c11.7,18.3,21.2,38.1,31.8,57.2c1.1,1.9,2.5,4.7,4.1,5
	c14.3,2.9,28.8,5.4,44.4,8.2c-3.7-12.5-8-24.1-10.4-36c-2.8-13.8-4.9-27.9-5.4-41.9c-0.6-18,11.1-25.5,27.9-19.4
	c33.9,12.2,60.9,33.4,82.1,62.5c10.2,14,23.6,25.6,33.5,39.7c35.4,50,58.2,105.5,68.1,166c2.6,15.6,3.6,31.4,5.4,47.2
	c0.3,2.5,1.1,4.9,1.7,7.3c0,10.4,0,20.8,0,31.2c-0.6,2.5-1.4,4.9-1.7,7.4c-2.5,20-3.4,40.3-7.6,59.9
	C887.2,675.2,836,757.9,753.8,820.6c-61.6,47-131.3,74.6-208.6,82.4c-9.1,0.9-18.2,2.2-27.2,3.2
	C508.2,906.2,498.3,906.2,488.4,906.2z M549.3,287.1c0.8,15.4,1.8,27.5,2.1,39.7c1.3,46.9-12.2,90.4-31.3,132.6
	c-22.5,49.7-52.7,94.6-83.8,139.1c-15.7,22.5-30.4,45.6-44.8,68.9c-4.5,7.3-6.6,16.1-10.2,25.3c32.8-9.9,63.4-19.7,94.3-28.1
	c29.7-8.1,60.1-12,90.5-4.4c13.7,3.5,26.8,9.7,40.4,14.8c0.3-0.8,1.4-2.9,2-5.1c11.4-40,24.5-79.7,33.7-120.2
	c7.4-32.4,11.6-65.7,14.4-98.8c2.3-26.5,2-53.6-0.2-80.1c-2.4-29.2-8.1-58.1-12.4-87.1c-0.6-4.2-2.6-6.6-7.6-6
	C607.3,281,578.1,284,549.3,287.1z M682.1,277.3c0.2,2.8,0.1,3.7,0.3,4.5c11.8,39.8,18.2,80.5,19.9,122
	c2.3,58.1-0.5,115.9-10.8,173.1c-9.8,54.5-24.2,107.8-43,159.9c-1.1,3.2-0.7,8,1,10.9c10.2,17.3,29.4,25,49.7,21.1
	c24.1-4.6,44.4-16.5,60.9-33.8c15.8-16.5,30.3-34.4,44.4-52.5c10.5-13.5,20.5-27.6,29.1-42.3c8.5-14.6,17.5-28.5,17.8-47.4
	c0.3-18.4,4.8-37.1-0.9-54.9c-8.6-27.1-17.3-54.6-30-80c-28.7-57.5-59.8-113.7-90-170.4c-1-1.9-3.6-3.7-5.7-4.1
	C710.9,281.2,697,279.4,682.1,277.3z M764.8,293.1c0.6,2.2,0.7,4.3,1.6,5.9c22.8,38.8,45.2,77.9,68.6,116.3
	c16,26.3,36.3,50,48.1,81.3c1.4-9.5,3.3-17.1,3.3-24.7c0.4-31.1,0.6-62.2-4.8-93.1c-7.1-40.7-21.3-77.8-49.7-108.6
	c-10.2-11-20.7-21.8-35.2-27.3c-5.3-2-9.8-1.6-12.5,3.9c-4.4,9.1,3.9,32.6,12.3,38.4c18.2,12.7,35.9,26.2,53.7,39.4
	c2,1.5,3.6,3.7,5.4,5.5c-0.4,0.4-0.8,0.7-1.1,1.1c-18.3-9.5-36.6-18.9-54.9-28.4c-0.7,0.9-1.4,1.7-2.1,2.6
	c8.1,18.3,16.2,36.5,24.2,54.8c-0.9,0.5-1.8,1-2.7,1.5c-12.2-19.1-25-37.9-36.4-57.5C778.4,296.9,773.7,293.3,764.8,293.1z
	 M478.5,257.7c-11.5-10.3-20.7-20.2-31.5-28c-23.4-16.7-50.4-23.8-78.9-25.4c-39.6-2.2-78.6,0.4-115.3,17.9
	c-73.3,34.9-117.9,93.6-141.5,169.8c-0.2,0.8,0.1,1.7,0.4,4.4c3.5-7.5,6-13.3,8.7-19c20.7-43.5,46-83.5,86-112.3
	c36.7-26.4,77.6-40,122.7-38.8c42.7,1.1,83.2,10.1,114,42.8C454.3,265.5,464.9,262.1,478.5,257.7z M526.7,788.2
	c9.2-5.9,12.7-13.2,10.2-22.2c-2.6-9.3-10.1-14.6-19-15.2c-12.2-0.8-24.5,0.4-36.8,1.2c-4.7,0.3-6.2,3.6-6.1,8.5
	c0.3,14.1,0,28.3,0.1,42.4c0.1,19.9,7,26.8,27.1,27.1c3.2,0,6.4,0.2,9.5,0c13.3-0.9,24.4-8.1,26.8-18.2
	C540.9,801.7,537.7,793.6,526.7,788.2z M465.3,504c30.3-64,49.1-129.8,32.2-202.1c-9.7,3.5-18,6.5-26.7,9.6
	C493.2,376.8,482.4,440.5,465.3,504z M597.5,752.2c-13.4-0.7-26.4-1.6-39.3-1.8c-7.3-0.1-13.6,3.1-14,11.1
	c-1.1,19-1.8,38.1-1.5,57.1c0,3.2,5.1,7.5,8.9,9.3c3.2,1.6,7.7,0.3,12.2,0.3c0.6-9.9,1.2-18.7,1.8-28c6.4,0,12.5,0.8,18.4-0.2
	c6.9-1.2,9.1-7.2,8-13.2c-0.3-1.7-5.5-3.3-8.7-3.6c-5.9-0.6-11.9-0.2-17.7-0.2c0-5.4,0-9.3,0-13.8c6.1,0,11.5,0,17,0
	C595.1,769.2,598.3,765.8,597.5,752.2z M427.5,769.1c0,14.4,0,27.6,0,40.9c0,17.4,4.1,20.7,22.6,17c0-18.9,0-38.1,0-57.2
	c21.5-2,23.9-4,21.7-18.3c-18.9,0-38-0.4-57,0.2c-7.9,0.2-11,7.6-8.2,17.4C413.1,769.1,419.7,769.1,427.5,769.1z M801.4,221.3
	C788,207,774,193.4,755.2,186.3c-10.5-4-17.7,0.2-19.6,11.1c-0.6,3.4-1,7-0.2,10.3c3.9,16.1,7.9,32.2,12.4,48.2
	c2.2,7.7,8.9,10.1,17,11.9c-1.1-3.7-2.2-6.3-2.7-9c-2.1-12.6-4.7-25.3-5.6-38c-0.6-8.4,5.1-13.1,13.2-11
	C780.2,212.5,790.4,217.2,801.4,221.3z"/>
<path style="fill:#FFFFFF;" d="M497.3,812.7c0-6.9,0-11.4,0-18.4c7.1,1.8,13.4,3.1,19.4,5.4c0.9,0.4,0.7,7.8-0.4,8.2
	C510.5,810.2,504.3,811.1,497.3,812.7z"/>
<path style="fill:#FFFFFF;" d="M496.9,783.2c0-6.5,0-10.7,0-17.3c6.6,1.3,12.8,2,18.6,4c1,0.3,1.2,7.9,0.2,8.3
	C510.1,780.4,503.9,781.5,496.9,783.2z"/>
</svg>
