<?xml version="1.0" encoding="UTF-8"?>
<svg xmlns="http://www.w3.org/2000/svg" version="1.1" viewBox="0 0 1000 1000">
  <defs>
    <style>
      .cls-1 {
        fill: #fdc440;
      }

      .cls-2 {
        fill: #fff;
      }
    </style>
  </defs>
  <!-- Generator: Adobe Illustrator 28.7.1, SVG Export Plug-In . SVG Version: 1.2.0 Build 142)  -->
  <g>
    <g id="Layer_1">
      <g>
        <g>
          <path class="cls-2" d="M245.9,328.5h187.3c2.2,0,4.5.1,6.6-.2,5.9-.9,10.1-6,10.3-11.7,0-6-4.4-11.2-10.5-12.1-2-.2-4-.1-6-.1h-128.8c27.2-66.4,100-127.2,196.1-123.4,94.3,3.8,157.6,68,179.1,123.4h-128.2c-2.1,0-4,0-6,.1-6.2.7-10.7,5.9-10.7,11.8s4.4,11.2,10.6,12.1c2.2.2,4.4.1,6.6.1h186.8v211.3h24.7v-60.3c4.5-1,8.7-1.6,12.6-2.7,21.7-6.5,35.8-25.6,35.8-49.1v-183.6c0-5.1,1.5-7.4,6.1-9.8,15.9-8.1,23.6-21.5,23-39.3-.6-16.4-12-30.8-27.7-36.3-2.1-.7-4-1.6-6.1-2.3h-14.5c-1.8.7-3.7,1.5-5.5,2.1-16.1,5.4-27.3,19.9-28.3,36.5-1,17.1,8.3,33,24.1,39.9,3.7,1.6,5.1,3.2,5,7.3-.1,61.7,0,123.2-.1,184.8,0,15.4-8.9,25.6-24.2,27.3v-134.3c0-12-4-15.9-16-15.9h-40.7c-8.2-20.9-18.4-40.2-32.1-57.6-41-52.4-94.5-82.3-160.7-89.2-1.6-.1-3.1-.7-4.6-1.1h-33.9c-11.5,2-23.1,3.2-34.3,6-75.9,18.8-129.7,64.3-160.7,136.5-1.7,4-3.5,5.7-8.3,5.6-11.5-.4-23,.2-34.4-.2-7.4-.4-12.8,2.1-16.5,8.7v227.1h24.5v-211.3h-.1ZM782.9,197.7c0-9.3,7.4-17,16.7-17.1,9.2,0,17,7.6,17.1,16.7,0,9.3-7.4,17-16.7,17.1-9.2,0-17-7.6-17.1-16.7Z"/>
          <path class="cls-2" d="M294.4,377.4h115.2v162.5h25v-162.4h115.5v162.4h24.9v-162.4h115.4v162.4h24.7v-170.4c0-12.9-3.7-16.6-16.5-16.6h-412.4c-12.7,0-16.4,3.8-16.4,16.7v170.4h24.7v-162.5h-.1Z"/>
          <path class="cls-2" d="M492.4,304.3c-6.5,0-11.8,5.4-12.1,11.7-.1,6.7,5.4,12.5,12.1,12.5s11.8-5.4,12.1-11.7c.2-6.7-5.4-12.3-12.1-12.5h0Z"/>
          <path class="cls-2" d="M372.4,406.1c-13.6-.1-27,0-40.5,0s-13.7,5-13.7,12.1,5.5,12,13.7,12.1h24.4c-.7,2.3-1.1,3.9-1.7,5.4-8.8,24.4-17.6,49-26.4,73.4-2.9,8.3-.2,14.9,6.7,17.5,6.7,2.4,12.9-1,15.9-8.9,11.4-31.3,22.6-62.5,33.7-93.9,3.5-9.9-1.8-17.5-12.2-17.6h.1Z"/>
          <path class="cls-2" d="M512.3,406.1h-39.9c-8.3,0-13.7,4.9-13.8,12.1,0,7.2,5.4,12.1,13.7,12.2h24.5c-1,3.1-1.7,5.4-2.6,7.6-8.5,23.9-17.2,47.7-25.8,71.7-2.8,7.8,0,14.4,6.8,17,6.7,2.4,13.1-.9,15.9-8.8,11.4-31.3,22.6-62.5,33.7-93.9,3.7-10.3-1.8-17.6-12.7-17.7h.1Z"/>
          <path class="cls-2" d="M652.6,406.1h-39.9c-8.3,0-13.7,4.9-13.7,12.1s5.4,12,13.7,12.1h24.4c-.7,2.4-1.2,4.3-1.8,5.9-8.7,24.1-17.3,48.2-25.9,72.3-3.2,8.9-.7,15.4,6.5,18.1,6.8,2.6,13.1-1,16.1-9.4,11.1-30.9,22.3-61.8,33.3-92.8,3.8-10.6-1.5-18.2-12.7-18.2h0Z"/>
        </g>
        <g>
          <path class="cls-1" d="M55.9,561.7h30.5v72.3h26.2v-72.3h30.5v174.3h-30.5v-73h-26.2v73h-30.5v-174.3Z"/>
          <path class="cls-1" d="M158.3,653.3v-8.9c0-57.6,18.6-85,46.4-85s46.4,27.8,46.4,85v8.9c0,57.6-18.6,85-46.4,85-27.8.5-46.4-27.3-46.4-85ZM219.8,653.3v-8.9c0-44.8-6.2-57.3-15.5-57.3s-15.5,12.3-15.5,57.3v8.9c0,44.8,6.2,57.3,15.5,57.3,9.4.4,15.5-12.5,15.5-57.3Z"/>
          <path class="cls-1" d="M265.8,561.7h30.5v145.3h32.1v28.9h-62.6v-174.2Z"/>
          <path class="cls-1" d="M341.1,592.4h30.5v143.7h-30.5v-143.7ZM342.7,554.7h27.5v27.1h-27.5v-27.1Z"/>
          <path class="cls-1" d="M386.8,651.8v-5.7c0-57.3,23.6-86.6,58.4-86.6s17,2,23.2,5v31.7c-7.7-4.6-14.3-7.3-22-7.3-17.8,0-28.2,17.3-28.2,56.4v8.5c0,46.8,13.2,57.3,25.9,57.3s1.1,0,2.7-.4v-46h-15v-27.1h42.4v93.9c-10.9,4.6-20.1,7.3-31.7,7.3-30.4,0-55.5-25.3-55.5-87Z"/>
          <path class="cls-1" d="M515.1,561.4h32.5l33.2,174.7h-30.5l-5.7-34.8h-27.8l-5.4,34.8h-29.4l33.2-174.7ZM540.2,674.2l-9.3-57.6-9.3,57.6h18.6,0Z"/>
          <path class="cls-1" d="M589.7,561.7h28.2l31.3,90.1v-90.1h28.9v174.3h-26.6l-32.8-94.3v94.3h-28.9v-174.3h0Z"/>
          <path class="cls-1" d="M696.4,561.7h25.9c17.8,0,35.2,4.6,45.2,14.7s11.6,17,11.6,29.8v1.1c0,22.5-12.7,33.2-25.1,39.4,14.7,6.6,27.5,16.6,27.5,39.1v2.3c0,30.9-23.9,48.3-57.6,48.3h-27.1v-174.7h-.2ZM749.2,611.5c0-15-8.9-21.6-22.5-21.6h-.4v45.2h.4c13.6,0,22.5-7.7,22.5-22.8v-.7ZM750.8,684.3c0-14.7-10-22.8-23.9-22.8h-.7v46.8h.7c13.9,0,23.9-8.1,23.9-22.8v-1.1h0Z"/>
          <path class="cls-1" d="M794.2,561.7h66.9v28.9h-36.4v43.3h32.1v28.9h-32.1v44.4h37.1v28.9h-67.6v-174.6h0Z"/>
          <path class="cls-1" d="M892.3,590.7h-21.2v-28.9h73v28.9h-21.2v145.3h-30.5v-145.3h0Z"/>
        </g>
        <path class="cls-1" d="M601,232.9v-10.1c0-1-.1-2-.4-2.9l-25.4-84.5c-4.2-14.2-17.1-23.8-31.9-23.7-17.2,0-31.5,13.2-33.1,30.3h-20.5c-1.6-17.1-16-30.3-33.2-30.3-14.8-.1-27.7,9.5-31.9,23.7l-25.4,84.5c-.2,1-.4,2-.4,2.9v10.1c0,28,30.4,50.5,50.5,50.5s38.2-11.8,46.3-30.3h8.5c8.1,18.3,18.3,30.3,46.3,30.3s50.5-22.7,50.5-50.5h-.1ZM449.6,263.2c-16.7,0-30.3-13.6-30.3-30.3s.2-1.5.2-2.2c1.1-15.7,14.2-28.1,30-28.1s30.3,13.6,30.3,30.3-13.6,30.3-30.3,30.3ZM550.5,263.3c-16.7-.1-30.3-13.6-30.3-30.4s13.6-30.3,30.3-30.3,30.3,13.6,30.3,30.4-13.6,30.3-30.3,30.3Z"/>
        <g>
          <path class="cls-2" d="M113.2,770.4c4.7,0,8.7,1.6,12.1,4.7,3.4,3.2,5.2,7,5.2,11.4v85.7c0,4.5-1.7,8.3-5.2,11.4-3.4,3.1-7.4,4.7-12.1,4.7h-34.4c-4.7,0-8.7-1.6-12.1-4.7-3.4-3.2-5.2-7-5.2-11.4v-85.7c0-4.5,1.7-8.3,5.2-11.4,3.4-3.1,7.4-4.7,12.1-4.7h34.4ZM89.5,746.6v17.3h-19.6v-17.3h19.6ZM84.9,792.2v74.3h22.2v-74.3h-22.2ZM122.1,746.6v17.3h-19.6v-17.3h19.6Z"/>
          <path class="cls-2" d="M171.4,792.2h-27.2v-21.8h57.6l-28.9,96.1h27.2v21.8h-57.6l28.9-96.1Z"/>
          <path class="cls-2" d="M235.3,866.5h39v21.8h-62.4v-117.9h62.4v21.8h-39v26.2h32.5v21.9h-32.5v26.2Z"/>
          <path class="cls-2" d="M286.3,888.3v-117.9h23.4v96.1h32.5v21.8h-55.9Z"/>
          <path class="cls-2" d="M437.9,770.4c4.7,0,8.7,1.6,12.1,4.7,3.4,3.2,5.2,7,5.2,11.4v85.7c0,4.5-1.7,8.3-5.2,11.4-3.4,3.1-7.4,4.7-12.1,4.7h-34.4c-4.7,0-8.7-1.6-12.1-4.7-3.4-3.2-5.2-7-5.2-11.4v-85.7c0-4.5,1.7-8.3,5.2-11.4,3.4-3.1,7.4-4.7,12.1-4.7h34.4ZM409.6,792.2v74.3h22.2v-74.3h-22.2Z"/>
          <path class="cls-2" d="M512.7,848v40.4h-23.4v-40.3l-24.6-77.6h23.9c3.4,11.5,7.5,30.3,12.3,56.5,4.9-26.2,9-45,12.4-56.5h23.9l-24.5,77.6Z"/>
          <path class="cls-2" d="M566.4,866.5h22.2v-96.1h23.4v101.8c0,4.5-1.7,8.3-5.2,11.4-3.4,3.1-7.4,4.7-12.1,4.7h-34.4c-4.7,0-8.7-1.6-12.1-4.7-3.4-3.2-5.2-7-5.2-11.4v-101.8h23.4v96.1Z"/>
          <path class="cls-2" d="M653.8,812.4v76h-23.4v-117.9h32.5l19.2,76.3v-76.3h23.4v117.9h-32.4l-19.2-76Z"/>
          <path class="cls-2" d="M724.1,888.3v-117.9h23.4v96.1h32.5v21.8h-55.9Z"/>
          <path class="cls-2" d="M811.4,864.4l-4.7,23.9h-23.7l22.9-117.9h31.2l22.8,117.9h-23.8l-4.6-23.9h-20ZM815.7,842.6h11.4l-5.7-50.3-5.7,50.3Z"/>
          <path class="cls-2" d="M892.9,846.3v42h-23.4v-117.9h51.7c4.7,0,8.7,1.6,12.1,4.7,3.4,3.2,5.2,7,5.2,11.4v30.4c0,7.7-3,13.9-9,18.5,6,4.6,9,10.8,9,18.6v34.4h-23.4v-34.4c0-2.1-.8-4-2.5-5.5-1.7-1.4-3.6-2.2-5.9-2.2h-13.8ZM906.7,824.5c2.2,0,4.2-.7,5.9-2.2,1.7-1.4,2.5-3.2,2.5-5.4v-24.7h-22.2v32.3h13.8Z"/>
        </g>
      </g>
    </g>
  </g>
</svg>