<?xml version="1.0" encoding="UTF-8"?>
<svg xmlns="http://www.w3.org/2000/svg" version="1.1" viewBox="0 0 100 100">
  <!-- Generator: Adobe Illustrator 28.6.0, SVG Export Plug-In . SVG Version: 1.2.0 Build 709)  -->
  <g>
    <g id="Layer_1">
      <g>
        <path d="M86.5,9.9c0-1.2-.4-1.7-1.7-1.7-23.2,0-46.5,0-69.7,0-1.2,0-1.7.4-1.7,1.7,0,2.9,0,5.8,0,8.7,0,2.1,0,4.2.3,6.3,2,11.1,8.3,18.5,18.9,22.2.4.1.7.3,1,.6,2.7,3,5.9,5.2,9.6,6.7,1.6.6,1.6.6,1.2,2.3-.9,4.6-3.4,8-7.4,10.5-1.2.8-2.4,1.3-3.8,1.2-2.6-.1-4.2,1.6-4.2,4.2,0,.8-.2,1-1,1-2.6,0-4.2,1.6-4.2,4.2,0,4.1,0,8.1,0,12.2,0,.8.2,1.4.8,1.9h50.6c.7-.5.8-1.1.8-1.9,0-4,0-8,0-12.1,0-2.7-1.6-4.3-4.3-4.3-.7,0-1.1-.2-.9-.9,0-.1,0-.2,0-.3,0-2.3-1.7-4-4-4-1.5,0-2.9-.3-4.1-1.2-.3-.2-.5-.4-.8-.5-3.8-2.6-6-6.2-6.7-10.8-.1-.7.1-1,.8-1.2,3.9-1.4,7.3-3.7,10.1-6.7.4-.4.9-.7,1.4-.9,11-3.5,18.8-14,18.9-25.5,0-3.9,0-7.7,0-11.6ZM21.3,16.6c0-.5.1-.6.6-.6,1.3,0,2.7,0,4,0,.6,0,.7.2.7.7,0,3.8,0,7.6,0,11.3,0,2.1,0,4.3.5,6.4-.4,0-.5-.3-.6-.4-3.3-3.7-5-8-5.1-12.9,0-1.5,0-3,0-4.6ZM23.2,38.3c-4.7-4.8-7-10.6-7.1-17.3,0-3.2,0-6.3,0-9.5,0-.5.1-.7.7-.7,3,0,6.1,0,9.1,0,.6,0,.7.2.7.7,0,1.9,0,1.9-1.8,1.9-1.5,0-3,0-4.6,0-.9,0-1.5.5-1.5,1.4,0,2.8-.2,5.7.1,8.5.7,6.4,3.7,11.5,8.7,15.3.6.4,1,.9,1.2,1.6.4,1,1,2,1.5,3.2-2.8-1.3-5.1-3-7.1-5ZM66.4,70.9c1.6,0,2.2.7,1.9,2.3,0,.3-.2.4-.4.3-.2,0-.4,0-.7,0-8.6,0-17.1,0-25.7,0-.3,0-.5,0-.8,0-.7.1-1.1.6-1.1,1.3,0,.7.4,1.2,1.1,1.3.3,0,.5,0,.8,0,10,0,20.1,0,30.1,0,1.5,0,1.9.4,1.9,1.9,0,3.5,0,7,0,10.4,0,.6-.2.8-.8.8-7.6,0-15.2,0-22.8,0-7.6,0-15.1,0-22.7,0-.6,0-.8-.1-.8-.8,0-3.5,0-7.1,0-10.6,0-1.2.4-1.7,1.7-1.7,2.4,0,4.7,0,7.1,0,1.1,0,1.7-.5,1.7-1.3,0-.8-.6-1.3-1.7-1.3-1,0-2,0-2.9,0-.5,0-.6-.2-.6-.6,0-1.6.4-2,2-2,10.9,0,21.8,0,32.7,0ZM54.5,52.4c-1.9.6-2,.8-1.8,2.8.5,5.2,2.7,9.4,6.8,12.7.1,0,.2.2.4.4h-19.7c1.4-1.1,2.5-2.2,3.5-3.4,2.3-3,3.6-6.5,3.7-10.3,0-1.2-.2-1.5-1.4-1.9-8.7-3-14.2-9-16.3-17.9-.4-1.7-.5-3.4-.5-5.1,0-5.9,0-11.9,0-17.8,0-.7.2-.9.8-.9,13.3,0,26.6,0,40,0,.4,0,.9-.2.9.6,0,6.6.2,13.1-.1,19.7-.5,9.8-7,18.2-16.2,21.3ZM83.8,23.6c-1,8.7-5.5,15.2-13.2,19.4-.2.1-.4.3-.7.1.6-1.2,1.3-2.4,1.7-3.6.1-.3.4-.5.7-.7,3.6-2.7,6.2-6.1,7.7-10.3.3-.9.1-1.5-.5-1.9-.8-.4-1.5,0-1.9.9-.9,2.3-2.1,4.5-3.8,6.3-.2.2-.4.4-.7.8.8-6.1.3-12,.4-17.9,0-.5.1-.7.7-.7,1.3,0,2.7,0,4,0,.5,0,.6.2.6.6,0,2.2.1,4.4-.2,6.6,0,.2,0,.3,0,.5,0,.8.5,1.3,1.2,1.4.7,0,1.3-.4,1.4-1.1.1-.7.2-1.5.2-2.2,0-2.3,0-4.6,0-6.9,0-1-.5-1.5-1.5-1.5-1.9,0-3.8,0-5.7,0-.5,0-.7-.2-.7-.7,0-1.9,0-1.9,1.9-1.9,2.7,0,5.3,0,8,0,.4,0,.7,0,.7.5,0,4.1.3,8.2-.2,12.2Z" style="fill: #f7cf57;"/>
        <path d="M63.7,24.7c-2.6-.4-5.2-.8-7.8-1.1-.6,0-.9-.3-1.2-.9-1.1-2.3-2.2-4.5-3.3-6.7-.3-.6-.7-1.2-1.4-1.2-.8,0-1.1.5-1.4,1.1-1.1,2.3-2.3,4.6-3.4,6.9-.2.4-.4.7-.9.7-2.6.4-5.2.8-7.8,1.1-.7,0-1.2.3-1.5,1-.2.7.2,1.2.6,1.6,1.9,1.8,3.7,3.6,5.6,5.4.3.3.4.6.4,1.1-.5,2.6-.9,5.1-1.3,7.7-.1.7-.1,1.3.4,1.7.6.5,1.2.3,1.7,0,2.3-1.2,4.6-2.4,6.8-3.6.5-.3.8-.3,1.3,0,2.3,1.2,4.6,2.4,6.8,3.6.3.2.6.4,1,.3.9,0,1.4-.8,1.2-1.7-.4-2.6-.9-5.2-1.4-7.9,0-.5,0-.9.4-1.2,1.9-1.8,3.8-3.7,5.7-5.6.4-.4.7-.9.5-1.5-.2-.6-.6-.9-1.2-.9ZM60.6,26.9c-1.2,1.2-2.2,2.6-3.5,3.7-1.3,1.1-1.7,2.2-1.3,3.9.5,1.7.6,3.4.9,5.3-1.9-1-3.7-1.9-5.5-2.9-.9-.5-1.6-.5-2.4,0-1.8,1-3.6,1.9-5.5,2.9.4-2.3.7-4.4,1.1-6.4.1-.8,0-1.3-.6-1.8-1.5-1.5-2.9-3.1-4.3-4.6,1.1-.2,2.3-.4,3.6-.5.9-.1,1.7-.3,2.6-.4.7,0,1.2-.4,1.5-1.1.8-1.7,1.6-3.4,2.5-5,.1-.2.2-.5.5-.7.7,1.4,1.4,2.8,2.1,4.1,1.5,3,.8,2.5,4,2.9,1.5.2,3,.5,4.5.7,0,0,0,0,0,0Z" style="fill: #f7cf57;"/>
        <path d="M38.1,83.9c.2,0,.5,0,.7,0,3.7,0,7.5,0,11.2,0s7.5,0,11.2,0c.2,0,.5,0,.7,0,.7-.1,1.1-.6,1.1-1.3,0-.7-.4-1.2-1.1-1.3-.3,0-.5,0-.8,0-7.4,0-14.8,0-22.2,0-.3,0-.6,0-.8,0-.7.1-1.1.6-1.1,1.3,0,.7.4,1.2,1.1,1.3Z" style="fill: #f7cf57;"/>
      </g>
    </g>
  </g>
</svg>