<?xml version="1.0" encoding="UTF-8"?>
<svg xmlns="http://www.w3.org/2000/svg" version="1.1" viewBox="0 0 1000 1000">
  <!-- Generator: Adobe Illustrator 28.6.0, SVG Export Plug-In . SVG Version: 1.2.0 Build 709)  -->
  <g>
    <g id="Layer_1">
      <path d="M497.7,313c5,0,9.9-.2,14.9-.1,11.9.3,23.9.7,35.8,1.2,4.3.2,8.7.7,13,.8,10.4.1,20.7.4,30.8,2.9,3.4.8,7,.9,10.5,1.1,2.6.1,4.4-1.3,4.2-3.9,0-2.1.5-5-3.6-4.9-2.2,0-4.5-1.6-6.5-2.4,1.3-7.7,2.4-15,3.9-22.2,2.4-11.8,5.2-23.4,7.7-35.2.3-1.3,0-2.7,0-4-1.2.2-2.6.1-3.7.5-6.8,2.6-13.5,5.3-20.2,8-.5.2-.8.9-1.7,1.9-9.5-7.2-19-14.4-28.5-21.5-7.1-5.3-14.2-10.6-21.3-15.7-9.1-6.5-18.2-13-27.3-19.4-4-2.8-11.3-2.4-15.1.5-14.2,10.8-28.4,21.5-42.6,32.3-6.3,4.8-12.7,9.6-18.7,14.8-5.7,4.9-11.5,5.5-18.3,2.7-5.3-2.1-10.9-3.2-16.4-4.7-1.1-.3-2.3-.3-4.3-.6.9,3.7,1.7,6.9,2.5,10,.2.7.8,1.4.9,2.1,1.1,6.6,2,13.3,3.3,19.9,1.6,8.5,3.6,17,5,25.6.2,1.5-1.5,3.9-3,4.9-2.4,1.7-3.9,3.3-2.6,6-6.1-.6-12.3-1-18.5-1.9-1.2-.2-2.8-1.9-3.2-3.1-2.1-8-3.9-16.1-5.9-24.1-1.3-5.3-1.9-10.8-3.9-15.8-2.7-6.6-2.4-13.6-4-20.3-.7-3.2-2-6.3-3-9.4-1.7-5.2-7.3-9.2-12.6-8.8-1.1.1-2.4.8-3.3,1.6-1.7,1.3-2.4,1-3.7-.7-1.1-1.5-3-2.3-4.2-3.7-3-3.4-2-5.8,2.3-6.8,2.6-.6,4.9-2.1,7.4-3.1,1.2-.5,3.4-1.3,3.7-.9,1.2,1.7,2,3.7,2.6,5.7.3,1-.2,2.3-.3,3.3,11.2,3.3,22.2,6.5,33.1,9.9,2.8.9,4.5.2,6.3-2.3,2.2-3.1,5.3-5.6,5.6-9.8,0-.4.5-.8.4-1-2.3-6.2,2.4-7.8,6.4-9.9.6-.3,1-1.1,1.9-2,.7,1.3,1.8,2.4,1.7,3.4-.2,4.7,2.7,7.2,6.2,9.3,5.9,3.6,11.8,7.1,17.7,10.5,1.4.8,3,1.4,5,2.3-4.8,3.6-9.5,7.2-14.3,10.8-.3.3-1.2,0-1.7-.2-8.8-2.9-17.6-5.9-26.5-8.8-1.2-.4-2.6-.1-4.6-.1,1.9,4,5.7,4.2,8.7,5.3,6.6,2.6,13.5,4.6,20,7.3,3.4,1.4,5.9,1.2,8.8-1.1,13.5-10.5,27.1-20.8,40.6-31.1,7.8-5.9,15.5-11.8,23.3-17.7.8-.6,1.7-1.3,2.8-2.1-3.6-4.4-4-8.9-1.7-13.5,3.9,2.1,5.7,1.4,9.4-1.6,1.6-1.3,4.6-1,7.3-1.5v10.5c.3,0,.8,0,1.1-.2.3-.2.3-.7.4-1.1h.1s.1.2.1.3c-1.2,8.2,4.6,11.4,10.4,14.9,1.9,1.1,3.3,3.1,5.1,4.4,6.3,4.4,12.8,8.6,19,13.2,2.5,1.8,4.3,4.7,6.9,6.2,10.6,6.1,19,15.5,30.2,20.7,2.2,1,5.1,1.6,7.3,1,7-2.1,14-4.7,20.7-7.6,1.9-.8,3.2-3.1,4.8-4.8-.2-.4-.5-.8-.7-1.1-2.5.6-5.1,1-7.4,1.8-6.6,2.4-13.1,5-19.5,7.7-3.6,1.5-6-.6-8.4-2.5-4.2-3.3-8.4-6.7-12.5-9.9,7.5-4.5,15.1-9.2,22.7-13.8.6-.3,1.6-.8,1.5-1.1-.5-6.7,6.5-5.1,9.2-8.1.2-.3,2.1.2,2.4.8.7,1.2,1.4,2.9,1.1,4.1-2.4,8.1,4,12.7,7.3,18.5.5.8,2.2,1.4,3.3,1.3,8.7-.6,16.9-3.3,25-6.5,5.4-2.2,11.1-3.7,17.4-5.8h-7.8c-.2-.2-.4-.4-.6-.7,3.1-2,6.1-4.1,9.2-5.9,2.9-1.7,5.9-3.1,9.2-4.8,3,2.7,2.8,8.6-1.7,11.2-4.8,2.8-9.7,5.3-14.8,7.4-2.5,1.1-3.3,2.8-3,5,.3,2.8,0,5.3-.8,8-1,3-1,6.4-1.7,9.5-1.2,5.8-2.7,11.6-4,17.3-.7,3-1.2,6.1-2,9-.8,3-1.9,6-2.8,9-1.5,5.4-2.9,10.7-4.2,16.1-.6,2.4-.9,4.9-1.6,7.2-.8,2.7-3,2-4.9,1.7-4-.7-7.9-1.5-11.8-2.2-.6-.1-1.3.1-1.7.2,0,1.8-.7,3.5-.2,4.9s1.9,3.1,3.3,3.6c6.3,2.3,12.7,4.3,19.1,6.4,1,.4,2,1,2.9,1.9-7.1-.3-13.7-3.8-21.1-1.4,2.4.8,4.9,1.5,7.3,2.6,2.9,1.3,5.6,3.1,8.5,4.5,2.8,1.4,2.4,3.2.3,4.4-3.6,2-7.4,4.4-11.3,5-8.8,1.4-17.8,2.1-26.7,2.7-14.2,1-28.4,1.7-42.6,2.4-9.6.5-19.2.8-28.8,1.3-1.8.1-3.3.8-2.1,2.9,3.7,6.3,4.5,13.2,4.2,20.2-.2,6.1,5.2,8.5,8,12.5.2.3,2.1-.3,3.1-.8,8.6-5.1,17.6-8.7,27.6-10,2.6-.3,5.2-.9,7.8-1,11.2-.6,22.4-1.8,33.6-1.4,6.9.3,13.9,2.5,20.5,5,2.9,1.1,4.8,4.8,6.9,7.5,1.8,2.3,3.4,4.8,5.7,8.1,2-3.1,3.5-5.4,4.9-7.8,3.8-6.3,9.9-8.7,16.8-9.9,10.4-1.7,20.7-.6,31,1.6,4.9,1.1,9,3.3,12.3,7.2,1.2,1.3,3.2,1.9,4.9,2.8-3,5.4-1.8,12.3,2.9,14.2.4-4.7.6-9.3,1.3-13.9.6-4.2,3.3-7.4,7.3-8.8,3.9-1.3,8-2,12.1-2.5,4.7-.6,9.5-.9,14.3-.8,6,.2,12,1.2,18,1.4,4.3.1,8.7-.3,12.9-.9,1.2-.2,2.7-1.7,3.3-2.9,4.3-9.1,8.6-18.2,12.5-27.5,2.5-6,4.5-12.3,6.5-18.5.6-1.9.6-4,0-6.2-5.6,13.3-11.1,26.6-16.7,39.8-.6-.1-1.2-.3-1.8-.4,0-3.2-1.2-7.3.3-9.2,1.8-2.3,1.3-4.2,1.6-6.2-1.2.1-2.5.3-3.9.5,3.8-5.4,2.5-12.7,7.2-17.7,4.5-4.7,8.7-9.8,13.1-14.9.2.4.8,1.4,1.4,2.3.4.1.8.2,1.2.3,2-6.6,4.4-13.1,5.9-19.8,2.3-10.1,3.8-20.3,5.8-30.5.2-1.1,1-2.2,2-4.1,6.8,25.3,7.1,49.9,3.9,74.6,4.2,5.7-.3,11.6-.6,17.4.2-3.4.3-6.8.5-10.4-2.4,1.2-4.6,2.4-6.1,5.3-4.4,7.9-9.2,15.7-14.2,23.2-1.3,1.9-4.1,2.8-6.1,4.2h19.3c1.2-5.9,7-10.7,4.7-16.8,2.4-.4,4.2-.3,5.6-1,4.3-2.2,8.5-3.7,14.2-2.6-1,2.6-2.1,4.7-2.6,6.9-.3,1.3.3,2.9.5,4.3,1.2-.8,2.7-1.4,3.5-2.4,4.2-5.6,8.2-11.2,12.2-16.9,1.2-1.7,2.2-3.6,3.6-5.1,9.3-9.7,18.7-19.4,28.2-28.9,3.6-3.6,7.2-7.3,11.2-10.4,2.5-2,5.6-3.5,8.6-4.4,1.1-.3,3.9,1.4,4.3,2.7,2.4,7.6,5.2,15.3,6,23.2,1,9.1,1,18.5,0,27.6-1.3,11.3-6.3,21.4-14,30-2.6,2.9-5.7,5.5-8.4,8.3-.6.6-.5,1.7-.8,2.6.8.1,1.7.4,2.4.1,2.6-.8,5.2-1.9,7.9-2.6,5.4-1.5,8.1,1.1,7.3,6.6-1.7,10.9-6.7,20.2-13.9,28.4-8.1,9.2-16.5,18.1-27.6,24-1.5.8-3.2,1.3-4.6,2.2-1.2.8-2.2,2-3.3,3,.3.4.5.8.8,1.3,1.5-.2,2.9-.4,4.4-.7,4.8-.8,9.6-1.7,14.4-2.3,1.1-.1,2.7.5,3.3,1.3.4.5-.3,2.3-1,3.1-3,3.7-6.1,7.3-9.2,10.9-5.6,6.5-11.1,13.1-16.7,19.5-1.7,2-2.5,3.4.3,5-6.4,1-9.6,5.7-12.8,10.3-.8,1.1-.3,3.1,0,4.7.7,7.8-5.5,11.3-9.9,15.9-2.3,2.4-5.1,4.1-6.7,7.3-.9,1.8-3.6,2.5-5.3,4-1.2,1.1-2,2.5-3.4,4.3,8.5,2.3,15.9-1.3,23.9-1.7-.6.9-.9,1.4-1.2,1.9.4.3.7.5.8.5,7.4-1.5,14.9-3,22.3-4.7,3.3-.8,6.7-1.9,9.8-3.3,6.1-2.7,11.9-6,18.1-8.5,6.2-2.5,8.8-7.5,11.1-13.1,1.9-4.7,4.2-9.3,6.3-14,.6.2,1.3.4,1.9.6-.8,5.2-1.7,10.4-2.6,16.1,26.3-11.4,47.1-29.4,65.6-50.5.4.1.9.3,1.3.4.2,1.6,1,3.7.3,4.8-1.8,3.1-3.9,6-6.4,8.6-5.4,5.7-11,11.2-16.7,16.5-3.5,3.2-7.4,6.3-11.4,8.8-6.7,4.1-13.7,7.6-20.6,11.5-2.3,1.3-4.6,2.3-7.1,3.2-2.4.9-4,4.2-5.9,6.4-.5.6-1,1.3-.9,1.1,1.5,3.2,2.7,5.8,4.1,8.7-1.7,1.5-3.6,3.2-5.9,5.2-.2-1.6,0-2.8-.5-3.9-.4-1.1-1.4-2-2.7-3.9-.6,3.4-1.1,5.7-1.5,7.9-3.4-1.1-5.1-4.1-4.6-8.7-10.5,2.7-20.8,5.3-31.6,8.1-1.7,3.1,1.3,5.6,2.2,8.6.5,1.8,1.6,3.7,1.5,5.5-.6,7.5.5,15,0,22.6-.5,6.5-1.6,10.9-7.4,13.9-.5.2-.9,1.7-.6,2.2,1,2.2,2.3,4.4,3.7,6.4.3.4,1.5.2,1.4.2,0,2.1-.6,4.3-.2,6.3,1.2,6.1,3.6,12,.4,18.4-2,4-.3,6,4,6.9,4.9.9,9.8,1.6,14.7,2.7,2.1.5,4.1,1.7,6.2,2.3,1.7.5,3.5.9,5.2,1.1,2.5.3,5-1,6.9,2.4.8,1.4,4.7,1.8,7,1.5,2-.3,3.8,1.3,4,1.2,3.7-1.4,4.2,3.7,7.5,2.5,0,.4,0,.9,0,1.3-1.8,1.4-3.4,3.1-5.4,4.1-20.2,10.8-40.8,20.4-63.3,25.2-8.4,1.8-16.9,4.3-25.8,2.6-.8-.2-2.6,1-2.7,1.7-.5,4.9-4.6,5.7-7.9,6.5-13.6,3.4-27.4,6-41.5,5-9.9-.7-19.7-1.4-28.4-7.1-.7-.5-2.1,0-3.1,0,0,1.2-.2,2.7.5,3.6,2.4,3.3,5.5,6.1,7.6,9.6,2.8,4.7,5.2,9.7,7.3,14.7,2,5,3.9,10.1,5.1,15.4,1.3,5.6,1.9,11.4,2.5,17.1.8,7.7,2,15.5,1.8,23.2-.3,7.8-1.9,15.6-3.3,23.3-2.5,13.9-8.4,26.5-17,37.4-4,5-10.2,9-16.2,11.6-12.3,5.3-25.6,7.3-38.9,8.6-5.5.6-11,2.1-16.5,2.3-8.7.3-17.5.3-26.1-.5-10.6-.9-18.8-7.1-26.2-14.3-1.1-1.1-2.4-2.2-3.2-3.5-1.7-2.9-3.6-4.6-7.9-2.1,6.7-8.9,13.3-16.7,15.5-26.7,2.1-9.6,5.1-19.1,4.9-29.1,0-5.3,1-10.7.6-16-.7-9.2-1.9-18.4-3.2-27.5-1.5-10.7-6.1-20.2-12.4-28.9-7.2-9.7-17-15.7-28.7-17.9-6.8-1.3-14-2.4-20.7-1.5-12.3,1.6-24.5,4.5-33.1,14.8-8.1,9.7-13,20.9-15.5,33.1-1.4,7-1.7,14.2-2.5,21.3-.3,3-.8,6-.8,9,.4,15.9.8,32,6.5,47,5.6,14.7,15.1,26.4,31.3,30.2,9.3,2.2,19,3,27.4,4.2-8.9,6.8-20.5,7.4-32.3,7.2-7.1,0-14.4.7-21.4-.5-10.6-1.9-19.9-6.8-26.8-15.4-1.6-2-3.6-3.9-5.7-5.4-.7-.5-2.9-.2-3.4.5-3.5,4.8-8,8-13.8,10-5.5,2-10.4,6.1-16,7.4-17.2,3.9-34.7,6.9-52.5,5.5-7.5-.6-14-3.6-20.3-7.2-3.2-1.8-6.5-3.5-10-4.7-1.5-.5-4.3-.3-5.1.7-3.3,3.9-7.9,3.5-12,4-24.1,2.6-48.4,3.1-72.6,2.2-4,0-8,0-11.9.3-6,.5-7.5-3.1-7.7-6.9-.5-10.7-.7-21.4-.9-32.1-.1-4,2.1-6.8,5.6-8.3s7.1-2.9,10.7-4.1c4-1.3,6.3-4,6.5-8.1.3-6.2.2-12.4.2-18.6s-.2-7.7-.2-11.5-1.2-4.5-4.4-3.2c-1.1.4-2.4.6-3.3,1.3-3,2.6-5.4,1.6-7.3-1.1-5.6-8.2-11-16.4-16.4-24.7-2.7-4-1.7-7.7,1.5-10.7,7-6.6,14.3-12.9,21.4-19.2,5.1-4.5,10.2-9,15.4-13.4,2.3-2,4.9-3.7,7.3-5.6-.2-.3-.4-.7-.6-1-3.2,1.2-6.3,2.7-9.6,3.5-8.7,2.3-17.3,5-26.1,6.5-16.6,2.8-33.1,1.5-49.2-3.6-2.2-.7-4.6-1.4-6.5-2.7-1.5-1-2.5-2.7-4.4-4.8-32.9-1.6-63.2-14.5-92.6-31.1,3.3-1.8,5.8-3.2,8.4-4.6-.3-.4-.6-.9-.6-1,2.2-.9,4.9-1.4,6.8-2.9,1.1-.9,1-3.4,1.1-5.1.2-4.6-.2-9.2.3-13.8.2-2,1.7-4.8,3.4-5.6,6.2-3,6.4-8.1,6-13.7-.4-5.5-1-10.9-1.7-16.3-.2-1.6-.8-3.5-1.9-4.4-1.4-1.1-3.5-1.4-5.3-1.9-7.2-2-14.4-3.9-21.5-5.9,0-.5.3-1,.4-1.5,1.9.6,3.8,1.2,5.8,1.7,5.1,1.4,10.3,3,15.5,4,4.4.8,6-.8,4.6-4.6-.4.8-.7,1.4-.9,1.9-8.3-3.9-8.3-11.8-9.3-19.3-.8-6.2-1.8-12.4-2.4-18.6-.2-1.6.5-3.3.8-5.2h-4.6v5.7c-4.1,2-6.6,0-8.5-2.9-.3,1.1-.6,3.1-.9,3.1-2.2,0-4.4-.2-6.6-.3.2-1.6.4-3.2.6-5.2,1.5,1.5,2.2,2.9,3.3,3.2.6.2,1.8-1.2,2.9-2.1-1.9-1.5-3.2-2.6-5-4.1,1.4-.7,2.4-1.1,4.4-2-2-1.2-3.3-2-5.4-3.2-1.4-4.1-1.9-4.4-8.8-2.6,1.5-4.4-1.9-5.6-4.6-7.1-.6-.3-1.5-.9-1.7-.7-4.2,3.6-5.2-1.2-7-2.9-2.4-2.3-5.4-3.6-8.1-5.3-3.5-2.3-6.5-5.5-10-7.7-10-6.2-16.6-15.7-24.1-24.3-1-1.1-.8-3.2-.7-5,20.8,18.5,41.5,36.6,67.6,48.5-.9-6.4-1.8-12.3-2.7-18.2.4-.2.9-.4,1.3-.6,1.6,2.9,3.5,5.8,4.9,8.8,1.8,3.9,3.4,7.8,4.8,11.8,2.2,6.2,7.9,7.8,12.9,10.2.5.2,1.5,0,2-.5,2-1.6,4.1-3.2,5.6-5.2.6-.7.1-2.9-.6-3.9-2.6-3.5-5.6-6.8-8.3-10.3-.5-.6,0-1.9,0-2.9.8.3,1.7.4,2.4.9,3,2,5.8,4.2,8.8,6.1.5.3,1.7-.5,2.4-1.2q20.9,3.2,26.9-1.2c-.6-.5-1.1-.9-2-1.7,2.5-1.7,7.5,2.8,7.8-2.4-3.2-3.1-6.1-5.8-9.1-8.6-.5-.5-1.1-.9-1.6-1.4-.2-.2,0-.6,0-.9-.4-1.4-.6-3-1.5-4.1-8.7-10.3-17.6-20.4-26.3-30.6-1.1-1.3-1.7-3-3-5.2,8.7,1.5,16.3,2.9,23.9,4.2.3-.6.6-1.1.8-1.7-.9-1-1.7-2.1-2.8-2.9-7.5-5.2-15.2-10.2-22.6-15.6-10-7.4-16.7-17.4-21.6-28.6-1.4-3.2-2.2-6.7-2.6-10.1-.6-5.1,2.1-7.2,7.1-6.1,3.4.7,6.7,1.7,10,2.5.2-.3.5-.6.7-.9-.7-1.1-1.3-2.4-2.3-3.2-10.6-8.2-17.9-18.7-20.3-31.8-1.6-9-2-18.3-1.6-27.5.4-7.9,2.5-15.7,4.2-23.5.6-2.6,1.7-5.3,3.3-7.5,1.5-2.1,3.6-3.2,6.3-1,13.3,10.5,26.5,21.1,37.5,34.1,4.1,4.8,6.7,10.7,10.5,15.7,4.3,5.8,9.2,11.2,13.9,16.7.6.7,1.5,1.2,2.3,1.9.4-.2.7-.4,1.1-.5-1.2-3.8-2.4-7.6-4.1-12.6,7.7,2.6,14.6,5,20.7,7,2,5.2,3.8,10.2,5.8,15.4h19.2c.2-.2.5-.5.7-.7-.5-.1-1-.4-1.4-.4-5.6.1-7.5-3.9-9.6-8.2-1.7-3.5-4.6-6.3-6.6-9.7-1.1-1.9-3.1-3.8-1.5-6.7-.9-.2-2-.5-3.4-.8.1-1.6.2-3.3.3-5.1-1.1-.8-2.3-1.7-3.7-2.8.9-1,1.6-1.9,2.5-3-.6-.6-1.3-1.5-1.7-1.4-2.5.5-2.1-1.3-2.4-2.7-.7-3.9-1.3-7.8-2-11.6-.1-.3-1.1-.5-2.1-.9.8-19.5,0-39.7,6.8-58.9h1.3c.7,4,1.8,8.1,2.2,12.1,1.3,12.8,5,25.1,8.5,37.4.6,2,.7,4.1,1.5,6,1.9,4.7,4.3,9.2,6,14,1.3,3.6,1.3,7.7,2.7,11.2,4,9.7,8.4,19.2,12.7,28.7.6,1.3,1.2,2.6,2,4.3,3.2-.6,6.6-1.6,10-1.7,8.5-.2,17-.6,25.4.1,7.3.6,15.2,1.1,21.6,4.2,6,2.9,10.7,2.7,16,.3,7.8-3.5,16-4.6,24.4-5.4,14.9-1.4,28.9,1.5,42.2,8.1,1,.5,3.1.7,3.6.2,4.2-5.5,10.5-5.5,16.2-5.6,15.5-.2,31,0,46.4.7,6,.3,11.9,2,13.2,9.6.1.8,1.4,1.4,2.2,2,.7-.8,1.9-1.6,2-2.5.3-3.6,2.1-5.3,5.5-6.3,3.6-1,4.4-3.9,4.6-7.4.3-5.9.7-11.8,1.8-17.5.9-4.5,1.1-4.8-3.5-4.9-4.9-.1-9.8-.3-14.7-.5-9.5-.5-19.1-.8-28.6-1.6-8.3-.7-16.5-2.3-24.8-2.8-6.5-.4-12.8-1.4-18.6-4.3-1.1-.5-2.1-1.2-3-1.8-4.7-3.2-4.6-5.5.7-8,4.6-2.2,9.4-4.1,14.2-6.1,0-.3-.1-.7-.1-1-6.7.8-13.4,1.6-19.8,2.4,5.8-7.4,35.1-12.1,60.4-10-9.3,1.8-18.6,3.6-27.9,5.4v1.3c3.8.3,7.5.6,11.3.9.8,0,1.5-.3,2.3-.4,11.2-.3,22.4-.6,33.7-.8,1.7,0,4.6-1,4.4,2.1-.1.9-2.7,1.8-4.2,2.6-.3.2-.8.1-1.4.9,1.8.5,3.6,1.5,5.3,1.4,9.4-.2,18.8-.8,28.2-.9,14.6-.1,29.3.2,43.9.2h35.2c0-.3,0-.7.2-1-4.9-1.4-9.7-2.9-15.7-4.6h14c2.9,0,5.9-.2,8.8,0,9.1.5,18.1,1.2,27.2,1.6,2.1.1,4.2-.8,6.3-1.2,0-.5,0-1,.2-1.4-3.5-1-6.9-2.5-10.4-2.8-13.2-1.1-26.5-1.8-39.7-2.5-8.2-.4-16.3-.3-24.5-.5-5.7-.1-11.7.7-17.2-.7-3.2-.8-6.1-2.4-9.6-1.8.4-1,.4-1.5.4-1.9s0,0,0,0ZM501.2,758.2c-1-9.3-1.6-18.8-3.2-28-1.1-6.3-3.3-12.4-5.7-18.3-3.4-8.3-7.9-16.3-15.2-21.5-14.7-10.5-31-14.2-48.9-9.9-9.3,2.3-18.6,4.8-25.2,12.2-7,7.9-11.8,17.2-14.9,27.5-3,9.9-4,19.9-4.4,30-.3,7.6.1,15.3.8,22.9.7,8.3,1.2,16.7,3.3,24.7,5.2,20,17.9,33.7,38.2,38.4,10.4,2.4,21.5,2.2,32.2.2,16.8-3.2,27.1-14.1,33.7-29,6.8-15.8,8.7-32.3,9.3-49.2ZM754,760.2c-.7-7.4-1.2-14.9-2.2-22.3-1.5-12-4.8-23.4-10.9-34.1-6-10.5-14.6-17.7-25.7-21.5-12.6-4.3-25.4-4.8-38.5-1.1-11.2,3.2-20.4,8.9-26.6,18.9-9,14.5-11.6,30.9-13.5,47.4-.9,7.6-.7,15.5,0,23.1.9,9.6,2,19.5,4.7,28.7,5.2,18,16,31.2,35.2,35.9,10.3,2.5,20.7,3.6,31.1,1.7,16.4-2.9,28.5-12.5,36.1-27,8.2-15.4,9.8-32.5,10.3-49.7ZM353.4,745.6h.4c.1-.4.3-.7.3-1.1,0-19.5.1-38.9-.1-58.4,0-1.1-1.4-2.7-2.5-3.1-8.3-3.1-16.7-6-25.2-8.8-.7-.2-1.9,0-2.6.5-5,3.7-10.1,7.4-14.9,11.4-9.9,8.2-19.6,16.7-29.5,24.9-2.1,1.7-1.7,3.3-.5,5.1,3.4,5.1,6.9,10.1,10.3,15.1,4.3,6.2,4.7,6.3,11.9,2.8,3.5-1.7,7.1-3.2,11.3-5.1-.4,7.6-1,14.3-1.2,21-.4,14.6-.7,29.3-.8,43.9,0,3.2-.9,4.5-4.3,4.3-6.2-.2-12.4,0-18.5,0v34c1.8-.2,3.5-.6,5.1-.6,22.6-.3,45.3-.6,67.9-.7,3.6,0,7.1,1.1,11.7,1.9,0-10.3-.1-20.5,0-30.8,0-2.5-.8-3.8-3.2-3.8h-10.5c-5.2,0-6.2-1.1-6.2-6.2v-77.1c0-1.1.1-2.1.1-3.2h.7c.3,11.5.3,22.8.3,34.1ZM230.7,395.1c-1.2-2.5-1.6-4.4-2.8-5.6-1.5-1.6-3.6-3.7-5.5-3.7-11.4-.3-22.8-.2-34.2-.2s-3.6.7-3.6,3.4-.4,7.1-.7,10.6c-.1,1.5-.6,3-.9,4.5-.6,2.9-1.3,5.9-2,9h10.5v15.9h1.1v-6.8h.8v13.1c0,8-.1,15.9,0,23.9,0,3.4-1,5.8-4.7,6.6-2.7.6-4.5,2.2-4.9,5.1-.4,2.7-1,5.3-1.4,8-.3,2-1.1,4.2-.8,6.1.7,4.1,4,2.6,6.9,2.9-.4-1.6-.8-2.7-1-3.9-.1-1.1-.4-2.6.2-3.2.6-.6,2.1-.5,3.2-.5s2.6.4,3.9.5h27.4c2.3,0,4.6.3,6.9.5v-7.1c1.1-.4,2.5-.4,2.8-1,1.9-3.2-.7-8.8-4.5-9.9-1.5-.4-3.3-.2-4.7-.8-1.4-.6-3.4-1.8-3.7-3-.5-3-.2-6.2-.2-9.4h25.2v13.1c-1.3.3-2.6.8-3.8,1-4.2.5-6.6,4.4-6.3,8.7.4,5.5.1,11.1.1,16.1h22.7c.8,0,1.5-.2,2.3-.3-.2-.7-.4-1.9-.7-1.9-.7-.2-1.6.3-2.4.5-.3.1-.6.5-.9.4-4.5-.7-9-1.3-13.4-2.1-1.5-.3-2.9-1.2-4.3-1.9,1.3-.7,2.6-1.9,3.9-1.9,10.9-.2,21.7-.1,32.6-.1s3,0,4.3,3.7c.2.4,1.4.9,1.4.8,1.1-1.5,3.8-1.8,2.9-4.9-1-3.6-1.4-7.5-1.5-11.2-.1-2.5-.5-4.4-2.8-5.8-3.5-2-5.4-4.7-5.4-9.3,0-10.8-.6-21.7-1.1-32.5,0-1-.5-2.1-1.1-3-2.8-3.8-2.8-3.7,1.4-6.2,1-.6,1.9-1.3,3.7-2.6-3.1-.7-5.3-1.2-7.5-1.6,3.9-6.3,8.5-.7,13.1-.5.3-1.3.9-2.6,1-4,.2-2.5.1-5.1,0-7.6-.1-6.8-1.3-10-7.9-11.4-2.6-.5-5.2-.8-7.8-.9-10.8-.1-21.7,0-33.2,0-.5,5.4-1.1,9.7-1.3,14.1-.2,4.7,0,9.3,0,14.5h8.6c.4,3.9.8,7.3,1.2,11.2-6.5-.4-12.7,1.3-17.9-3-.9-.8-2.2-1.2-3.1-1.9-1.3-1.1-2.5-2.4-3.8-3.6,1.3-1.2,2.6-2.4,4-3.4,1-.8,2.3-1.2,3.5-1.9-.1-.3-.3-.6-.4-1-1.7.1-3.5.4-5.2.2-.8-.1-1.5-1.2-2.3-1.8.8-.6,1.6-1.8,2.4-1.8,2.2-.1,4.3.4,6.8.6v-9.3c.3.2.6.4.9.6,1.6-1,3-2.2,4-3.1ZM532.6,410.9c0,.2.2.3.3.5-1.7,1.9-4.2,3.6-4.9,5.9-1.7,5.9-2.5,12-3.7,18.1,0,.5-.5,1-.7,1.5-.8,1.5-2.1,3-2.3,4.6-.2,1.5,1.6,3.3,1.2,4.6-1.4,4.9,0,9.5,1,14.2,1.4,6.5,4.5,11.7,10.4,16.6-1.5-5.5-2.8-9.9-4-14.4,8.1,11.8,16.7,21.4,32.1,21.9,8.9.3,17.8,2.5,26.1-2.3,2.3-1.3,4.3-3.3,6.6-4.7.8-.5,2.5-.8,3-.4.7.7.9,2.1,1,3.3,0,.6-.2,1.2-.4,2h20.8c2.4-3.9,4.5-7.2,6.3-10.2h-2.2c-1.2-11.3-2.2-22.3-3.5-33.3-.2-1.5-2-4-3.2-4.1-5.1-.4-10.7-4.6-15.2,1.5-.4.5-1.7.4-2.6.4-6-.2-12.1-.4-18.1-.8-1.5-.1-2.9-.7-4.3-1.3-1-.4-1.9-1.2-2.8-1.9-1.2,1.8-3.8,4.9-3.4,5.3,2.6,2.8,0,4.3-.9,6.3-.3.7-.8,1.4-.8,2.1,0,3.8.3,7.6.7,11.3,0,.9,1,2.3,1.8,2.5,3.8.8,7.2-.2,11.2-2.4q-9.2-1.2-8.8-6.3c3,.3,5.9.8,8.8,1,3.2.3,3.2,1.9,2.2,4.3-3.4,8-11.5,9.9-18.7,4.7-3.4-2.5-6.2-4.9-5.5-9.9.2-1.8-1.6-3.9-2.5-5.9-.3-.6-1.2-1.1-1.2-1.6,0-4.3,0-8.6,0-13,.2,0,.3-.1.5-.1.2.9.4,1.7.6,2.6.4,0,.7-.1,1.1-.1,0-2.8-.4-5.5-.4-8.3,0-3.5-.7-7.4,2.1-10.1,2.7-2.6,5.7-5.1,9.1-6.6,5.7-2.6,15.8,1.7,17.6,7.6,1.1,3.6,3,3.7,5.9,4,6.8.6,13.8-2,21,1.9,0-2.5-.2-4.5,0-6.4.9-7.9,2.1-15.7,3-23.6.4-3.6-1.1-6.6-4.8-7.4-6.7-1.4-13.5-2.3-20.2-3.3-.9,4.7-3.9,5.5-8.7,4-2.9-1-6-1.5-9.1-1.8-7.5-.6-14.9.9-21.7,4-11,5.1-20.4,11.9-23.4,25.2,1.6-.8,2.6-1.3,3.7-1.7ZM812.7,484.8c-.4-22.3-.9-44.4-1.3-66.4-3.2-.6-4-1.7-3.7-4.7.2-1.8.4-3.5.2-5.3-.3-2.3,1.1-3.7,2.8-3.5,1.8.1,4.1,1,5.2,2.4,2.1,2.5,3.3,1.4,3.5-.8.5-4.7,1.2-9.5.6-14.1-1.1-7.5-1.8-7.7-9.7-7.7s-13.8-.1-20.7,0c-3.8.1-7.6.4-11.4.8-2.2.3-5.2.4-6.2,1.7-1.8,2.5-3,5.9-3.2,9-.2,3.5,1.2,7.1,2,11.3,1.7-.7,3-1.6,4.5-1.7,2.9-.3,6-.7,8.6.1,1,.3,1.3,3.9,1.4,6,.5,7.8.8,15.5,1.2,24.1-3.8-5.1-7.2-9.9-10.6-14.5-2.9-4-6.1-7.8-8.9-11.8-2-2.8-5.3-5.4-3.1-9.7.2-.4-.2-1.3-.5-1.8-1.5-2.4-3.2-4.7-4.6-7.2-2.2-3.9-5.3-5.7-10-5.5-6.9.3-13.8,0-20.7.1-1.3,0-2.9.4-3.7,1.3-2.7,2.9-3.1,7-3.1,10.6s3.4,8.9,1.5,13.9c-.2.5.8,1.4.7,1.2,4-.8,7.3-1.4,11.1-2.2,0,9.5,0,18.1,0,26.6,0,1.8,2.4,5.1-2.1,5.5-.3,0-.5,1.6-.6,2.5,0,1.3,0,2.6,0,4.4,2.5-1.2,3.9-.9,3.6,2.1-.4,3.1-.8,6.2-.7,9.3,0,1.7,1.1,3.3,1.6,4.9.4-.1,0,0-.4.1-9.2.3-9.9,1-9.3,10.1v2c0,2.7.9,4,3.9,3.9,9.2-.4,18.5-.7,27.7-.8,2.9,0,5.1-.6,6.6-3.2,0-.1.4-.1.6-.2,0,1,.2,2,.3,3,5.9,1,5.9.9,4.8-5.1-.4-2.3,0-4.7,0-7.1v-5.2c-3,3.2-9.8,3.3-10.4.6-.9-3.7-1.2-7.6-1.8-11.5h4.7c-2.1-4.4-4-8.7-6.1-13.2,3.4-.8,5-.3,6.4,2.1,6.2,11.2,12.6,22.3,19.1,33.3,1.6,2.7,3.8,5.3,6.3,7.2,1.6,1.1,4.3.6,6.4,1.1,4.2.9,7.9-1.9,7.9-6.2,0-6.8,0-13.5,0-20.3,0-3.5.6-7,1-10.4.6,10.6.6,21.1.6,31.7-.2,5.8,1.4,7.3,8.1,7.2ZM369.4,472.5c.8-1,1.7-1.8,2.2-2.8,2.2-4.1,4.4-8.2,6.3-12.4,2.7-5.8,3.9-11.9,3.2-18.3-.6-5.8,1.5-11.7-2.7-17.6-2.9-4-4.9-9.7-3.7-15.4.1-.7-.1-1.7-.5-2.2-5.1-5.6-9.7-11.6-16.6-15.3-12.1-6.6-24.9-7.1-37.9-4.3-12.1,2.6-21,9.8-26.7,20.8-.9,1.8-.8,4-1.5,6-1.5,4.5-4.3,8.8-4.6,13.3-.7,9.1-2.5,18-1.6,27.4.8,8.5,3.5,15.8,7.9,22.7,4.1,6.4,5.1,6.5,10.6,4.4-4.5-5.2-10.9-9-11.4-16.7,1.3.3,2.3.9,2.9,1.8,4.4,7.2,10.7,12.5,18.2,15.6,4.7,2,10.2,2.6,15.4,2.9,5.6.3,11.3-.1,16.9-.8,3.5-.4,7.3-1.4,10.1-3.3,4-2.7,7.3-6.5,11.2-10.2.7,1.3,1.4,2.6,2.3,4.4ZM186.4,612v-18.2c6.8-1.6,13.2-3.4,19.8-4.7,11.6-2.3,18.4-9.9,23-20,2.8-6.1,2.4-12.5,1.6-18.9-1.1-8.9-5.1-16.2-13-20.9-8.4-5-17.7-6.9-27.2-7-11.8-.2-23.6,0-35.4,0-3.6,0-7.2.7-10.2.9v16.8q0,7.6,7.7,7.6h1.2c2.2-.2,3.1.8,3.1,3,.2,9.8.5,19.5.8,29.3.1,3.4.2,6.9.2,10.3v21.5c-3.7.4-7.4.9-11.9,1.4,1,7.7,2,15.1,3.1,22.6h53.3v-21.3c-5.7-.7-10.8-1.5-16.1-2.4ZM407.9,553.8c1,7.7,1.9,15.1,2.8,22.2,2.1-.2,4,0,5.7-.5,3.7-.8,3.7-.9,3.7,2.9v33.4c0,1.1-.1,2.3-.2,3.7h-9.9v20.4h4.7v-.4c-.7-.2-1.5-.4-2.2-.5v-1.3c7.3,0,14.6,0,21.9,0,7.4.2,14.9-1,22.7,1.4v-18.7c-2.1-.3-4.3-1-6.5-.9-3,0-3.6-1.3-3.5-3.9.1-4.6.5-9.3-.1-13.9-1.1-9.8,4.3-15.8,11.5-20.9.3-.2,1.3.3,2.4.7-1.1.5-1.6.8-2.7,1.3,5.6-.2,11.7,5,11.9,9.7.4,7.3.6,14.7.8,22.1.1,4.9-.5,5.4-5.5,4.9-.6,0-1.1-.3-2.5-.6.5,7.1.9,13.6,1.3,19,7.7,0,14.6-.2,21.4,0s13.7.7,20.8,1.2v-19.5h-6.6c-.3-10.9-.5-21.6-1-32.2-.6-12.9-5.4-23.4-18.1-28.9-11.8-5.1-22.7-4-32.7,4.4-1,.8-2.2,1.5-3.5,2.4-1.5-4.3-2.9-7.9-4.1-11.4-10.9,1.1-21.5,2.5-32.5,3.9ZM671.5,482.7c0-4.5,0-9.6,0-14.6,0-3.1-1.1-4.5-4.4-4.6-2.1-.1-4.1-1-6.9-1.8,5.4-3.7,16.8-3.8,21.8-.7-.7,1.1-1.1,2.8-2.1,3.2-4.3,1.8-3.2,6-3.3,8.8,0,3.2,1.9,6.5,3,9.7,7.4,0,15.4-.2,23.4.1,4.2.2,8.4-2.9,12.5.5.5.4,1.7.1,2.6.1,0-.8.3-1.1.3-1.5,0-3.3-1.2-7.5,4.6-7.5s1.1-1.6,1.9-2.8c-1.3.3-2.1.5-2.9.7-.4-2.3-1.1-4.4-1-6.5,0-2.7-.8-3.9-3.6-3.9s-5.8-2.4-7.1-5.9c-2.4-6.8-5.2-13.4-7.7-20.2-4.9-13.7-9.4-27.6-14.5-41.3-1.2-3.4-1.1-8.5-6.7-8.7-7.4-.3-14.7-.6-22.1-.8-3.5-.1-4.8,2-5.4,5.4-2.2,12.2-4.6,24.4-7.1,36.5-2.3,11-6.4,21.5-7.9,32.6-.4,2.8-1.9,4.7-5.1,4.9-1.7.1-3.4.2-5.2.3.3,4.4.9,8.5.7,12.6-.2,3.8,1.3,4.7,4.8,4.6,8.6-.2,17.2-.2,25.8,0,3.9,0,7.8.5,11.6.8ZM697.4,607.2v29.6h21.8c.2-.5.3-1.8.9-2.3.9-.8,3-1.8,3.3-1.4,2.6,2.8,6,2.6,9.4,3.1,10.9,1.6,20.7.9,28.9-7.9,5.9-6.3,9.3-12.8,5-22.6-3.3-7.5-8.4-13.7-16.2-17.3-5.9-2.7-11.7-5.7-17.4-8.7-2.1-1.1-3.1-3.2-1.3-5.1,1.6-1.7,3.1-5.4,6.4-2.5,2.8,2.5,5.3,5.4,7.7,7.8,0,.3,0-.4.2-1.6,6.8.6,13.7,1.2,20.2,1.8.8-9.2,1.6-18.2,2.4-27.9-8-.7-15.9-1.3-23.9-2,0,1.5-.3,2.9-.5,5.1-2-.7-3.8-1.3-5.5-1.8-2.3-.7-4.7-1.6-7.1-1.9-7.5-.9-14.2,1.6-21,4.6-8.7,3.9-14.6,17.1-10.9,25.8,3.7,8.6,10.8,13.5,19.1,17.2,3.7,1.6,7.8,2.8,10.9,5.3,2,1.6,2.7,5.1,3.4,7.8.2.6-1.9,2.5-3.2,2.7-3.5.6-6.7,0-8.7-3.4-2.2-3.8-4.7-7.6-10.2-6.7-4.5.8-9.2,1.6-13.7,2.3ZM432.1,408.3c-.1.3-.1.7-.2,1,5.7.3,5.8.3,5.8-5.5s.1-6.4,0-9.5c-.2-6.7-2.8-9.3-9.6-9.5-2-.1-4,0-6,0-9.9-.2-19.8-.6-29.7-.7-1.8,0-4.7.2-5.4,1.4-1.3,2.1-1.6,5-1.8,7.6-.3,4,1,8-.8,12.1-1.1,2.5-.2,5.8-.2,8.8,3.1-.4,6.2-.8,9.3-1.2-.6-3.5-6.8-1.2-4.8-6.3.6,0,1.2-.2,1.9-.1,1.8.2,3.9.1,5.1,1,.8.6.5,2.9.5,4.5-.1,1.8-.6,3.6-.7,5.4-.6,13.6-.9,27.3-1.8,40.9-.1,1.9-2.7,4.5-4.7,5.3-6.3,2.7-7.3,3.8-6.8,10.8.9-.5,1.8-1,2.7-1.5.5,3.1.9,5.9,1.4,8.9,2.6-.2,5.2-.7,7.8-.6,9.6.1,19.2,1.1,28.7.5,10.7-.7,21.3-.2,31.9,1,.5.1,1-.3,1.5-.4,4.9-1.1,4.4-5.5,4.6-8.7.5-7.8,0-15.6.2-23.4.1-3.6-1.7-5.5-4.7-6.2-4.8-1.1-9.7-1.8-14.6-2.5-.8-.1-2.1.5-2.5,1.2-1.2,2.2-2.5,4.4-3,6.8-1.1,5.3-.7,11.1-6.7,14.3-3.1-3.1-6.1-6.1-5.4-11.3.6-4.7,1.2-9.5.7-14.1-.6-6.1,2.3-12.4-1.9-18.5-1.6-2.3-.9-6.9,0-10.1.4-1.5,3.8-2.5,6-3.1.8-.4,2.1,1.1,3.2,1.7ZM853.4,553.1c-1.2-.5-2.2-1.2-3.3-1.3-5.8-.6-11.7-1.2-17.5-1.5-.8,0-2.3,1.2-2.5,2.1-1,3.5-1.8,3.6-5,2.1-2.7-1.3-5.7-2.3-8.7-2.7-8.7-1.2-16.4,2.1-23.7,6.3-7.6,4.3-11.9,20-6.6,26.8,3.8,4.8,9.3,8.5,14.5,12s12.5,3.8,16.3,9.7c1,1.6,1.5,4.1,1,5.8-.4,1.3-2.7,2.3-4.3,2.8-4.1,1.2-6.6-.9-9.1-6.4-1.5-3.2-3.8-3.6-6-3.7-3.2-.3-6.5.3-9.7,1-6.5,1.4-6.5,1.6-6.5,8.4v22.4c6.3,0,12-.4,17.6.2,2.6.3,4.2.6,5.2-2.1,1-2.7,2.7-2.9,4.9-1.1.6.5,1.2,1.1,1.9,1.3,10.2,1.8,20.1,3,29.8-2.9,13.1-7.9,15-18.2,8.1-30.9-4.3-7.9-11.7-12-19.5-15.4-3.9-1.7-7.9-3.3-11.6-5.5-3-1.8-3-5.3-.3-8.5,2.1-2.5,4.3-1.6,6.3.3,2.7,2.6,5.4,5.2,8.1,7.8.8-1.1,1.3-1.8,1.5-2.1,5.9.8,11.4,1.6,17.6,2.5.3-8.7.9-17.8,1.5-27.4ZM573.5,556.4c-5.1-1.1-9.7-2.2-14.4-3.1-11.4-2.2-22,.9-29.9,8.6-13.5,13.1-15.9,29.8-10.5,47.3,5,16.1,17.1,24.6,33.4,26.6,15.4,1.9,29.6-1.7,41.2-12.7,1.9-1.9,2.4-3.3,0-5.1-5.8-4.4-11.7-8.7-17.2-13.4-3.2-2.8-5.4-1-7.1,1-3.5,4-12.2,4.8-16.3,1.2-6.1-5.3-7.7-15.8-3.7-23.2,2.9-5.5,9.8-8.4,13.3-5.2,3.3,3,5.8,7,8.6,10.6,6.8-4.2,15.9-1.7,25-4.6,0-9.1,0-18.6,0-28.1,0-1-.9-2.5-1.8-2.9-6.7-2.7-13.6-4-21.3-4,.2,2.5.5,4.6.7,7ZM678,612.4c-8.2-.4-16.1-.7-24-1.1-1,0-2.8-.7-2.9-1.3-.2-1.1.2-2.7,1-3.4,2-1.9,4.1-3.7,6.5-5,5.9-3.3,12.2-6.1,18-9.6,2.3-1.4,4.5-3.6,5.8-6,1.8-3.2,0-7.7,3.1-10.7.2-.2-.5-1.3-.8-1.9-5.6-13.8-29.5-24.8-44.4-20.8-7.1,1.9-14.4,3.7-19.8,9.2-12.1,12.4-15.6,27.1-10.5,43.4,4.7,14.7,15.3,23.9,30.3,27.5,10.4,2.5,20.9,4.5,31.7,4.2.9,0,2.4-1.3,2.5-2.1,1.4-7.3,2.4-14.6,3.5-22.4ZM503.7,410.8c-2.6-1-3.4-3.1-.8-4.3,3.2-1.5,7-2.2,10.3.5.6.5,1.7.9,2.3.7.6-.3,1.2-1.4,1.2-2.1,0-4.6,0-9.2-.5-13.8-.2-2-1.5-5.5-2.6-5.7-6.2-.8-12.5-.7-18.7-.9-.1,0-.2.2-.3.3-.9,2.5-2.6,2.1-4.9,2-7.9-.4-15.9-.1-24.8-.1-.8,8.6-1.6,17.2-2.4,26.1h10.8c4.2,8.3,3,16.8,2.4,25.2-.1-1.5-.1-3.1-.2-4.6-1.6,7.7-3.2,15.4-1.8,23.2.8,4.6-.1,6.7-4.3,8-.7.2-1.3.8-1.9,1.3-4.3,4.1-4.4,9.3-3.3,14.5.3,1.4,1.6,2.6,2.4,3.8.4-.1.8-.2,1.1-.4-.6-4.1,1.3-4.9,4.6-3.9,1.2.4,2.6.5,3.9.5,10.5,0,21-.1,31.4.1,2.1,0,4.3,1.4,6.4,2.2.9.4,1.8,1,2.6,1.5.7-1.4,1.9-2.8,1.9-4.2.2-7.1-1.8-13.7-6.5-19.3-2.2-.8-6.1,1.4-6.3-3.4-.3-10.1-.5-20.3-.9-30.4-.1-2.4-.3-5.2-1.6-7-2.1-3.6-1.4-6.5.5-9.8ZM279.1,585.3c-.4,1.6-.9,2.9-.9,4.1,0,6,0,12,.4,18,.5,6.2,4.4,10.4,9.5,11,2.6.3,5.1.7,7.7,1.1-.3,1.6-.6,3.1-.9,4.6-3.2-1.4-6.4-3.3-9.8-4-4.8-.9-8.3-3.4-10-8.1-.8-2.2-2-4.2-3.4-7.1,0,2.7.4,4.5-.1,6-.4,1.2-2.1,1.8-3.3,2.8-.4-.7-.9-1.7-1.4-2.7-.6,1.1-1.1,2.4-1.9,3.4-1.7,2.2-3.1,5.1-5.4,6.2-6.2,2.9-7.9,5.2-6.9,12.9,4.3,0,8.6-.2,12.8,0,11.7.5,23.4-1.5,35.1,1.4v-20.4c-4.3-.3-8.5-.6-12.7-.9-2.7-.2-4.8-.8-4.7-4.3,0-4.4-.5-8.9-.7-13.3-.3-6.7,2.6-11.9,7.8-15.8,2.7-2.1,5.9-4.1,9.5-1.2,2.1,1.7,4.5,3.1,6.9,4.4.7.4,2.4.2,2.9-.3,5.4-5.5,10.7-11.1,15.8-16.8.5-.5.3-2.4-.2-2.9-2.1-2-4.4-4-6.9-5.4-7.5-4.1-15.5-7.2-24.2-4.5-4.6,1.4-9,3.7-13.7,5.7-.7-2.1-1.8-3.9-1.8-5.8-.1-4.1-2.6-4.3-5.6-3.9-5.9,1-11.8,2-17.6,3.1-4,.8-7.9,1.8-11.7,2.7.8,6.5,1.5,12.2,2.2,18.2,1.7-.3,2.9-.5,4-.7,3.9-.8,7.1.9,7,3.8-.2,7.5-.6,15-.8,22.5-.1,4.9,0,9.7,0,14.5-4,.5-7.4.9-11.4,1.4.3,6.6.6,13.1.8,18.6,2,0,3.3.2,5.5.3,0-3.8.3-7.9-.1-12-.2-2-.3-3.2,1.8-3.3,3.5-.2,5.4-2.2,6.4-5.3.8-2.4,1.6-5,1.7-7.5.2-7.1.1-14.3.1-21.5v-11.2c2.2,3.4,3.9,5.9,5.7,8.6,0,0-.8.7-1.8,1.5,1.8.6,3.3.9,4.7,1.6,1.3.7,2.4,2.2,3.7,2.4,1.1,0,2.3-1.2,3.1-1.6,1.2,0,1.9-.2,2.8-.3ZM382.5,614.9v-54.4c-4.3-.3-8-.8-11.8-.8-9.4,0-18.7.5-28.1.7-6,0-6,0-4.6,6.1.1.6.1,1.3.2,2,.7,4.4,1.5,8.8,2.3,13.5,1.7-.9,2.9-1.4,3.9-2.1.9-.6,1.7-1.4,2.5-2.2.2.2.4.4.5.7-.5.6-.9,1.2-1.7,2.1h6.5v34.9h-9.6c-2.5,0-3.9.9-3.7,3.7.4,5.1.6,10.1.9,15.4,2.5-.3,4.6-.8,6.6-.8,10,.2,20,1,30,.6,6.6-.3,13.2-1.6,19.8,2v-16.7c0-2-.7-3.4-3.2-3.4-3.2-.3-6.5-.8-10.5-1.3ZM364.8,512c-7.9.4-15.2,6.5-15.7,14.6-.7,12.7,7.9,18.4,16.9,17.7,10-.8,15.4-3.2,15.8-19.2.2-5.5-9.5-13.1-17-13.1ZM479.1,369.9c6.2,9.2,14.4,7.6,23.1,4.9-.4,1.7-.6,2.5-.8,3.4.3.2.6.3.9.5,1.5-2.2,3.7-4.3,4.5-6.7,2.5-7.5,0-14.9-7-19.4-9.2-6-19.7-2.6-22.5,8-.5,1.9-.9,3.8-1.7,5.6-3.5,7.8-.2,15.7,7.9,16.9,4.4.6,9.6,3.2,13.8-2-2.2,0-4.2-.5-5.8.1-3,1.1-5.6,1.2-7.7-1.4-1.8-2.2-3.6-4.5-5.2-6.9-.3-.6.2-1.5.5-3ZM781.4,509.2c.3.4.6.8.9,1.2-1,1.6-2.2,3.1-3,4.8-1.1,2.3-1.7,4.9-2.9,7.1-1.8,3.1-1,6.6-1.7,9.6-.7,3.3-.9,6.2-.6,9.4,0,.7.7,1.4,1,2.1.4-.7,1.1-1.3,1.3-2,1-3.6,1.7-7.3,2.7-10.9,1.9-6.4,4.1-12.7,6-19.1.2-.8,0-2.3-.7-2.8-2.5-2.1-8.8-1.9-11.6.2-.8.6-1.8,1.1-2.7,1.6-13.7,6.8-27.4,13.6-41.1,20.4,5.6,1.5,10.9-.6,16.2-2,0,.5.3.9.4,1.4-4.4,1.7-8.9,3.4-12.8,4.9,1.8.8,4,2,6.4,2.8,1.4.5,3.4.9,4.5.2,6.2-3.6,12.5-7,18-11.4,5.1-4.1,9.1-9.5,13.8-14.1,1.7-1.5,4-2.3,5.9-3.4ZM284.2,533.6c-4.2-2-7.7-3.8-11.3-5.3-12.1-4.8-24.1-10-35.2-16.9-4.6-2.8-9.1-5.1-15-4.1-3.4.6-3.3,2.4-2.7,4.2.7,2.3,2,4.5,3.6,6.3,2.6,2.9,5.7,5.3,8.5,8,.2,0,.4-.2.5-.3-3.6-5.4-7.2-10.7-10.9-16.1.3-.3.5-.6.8-.9,2.5,1.6,5.5,2.8,7.5,4.9,7,7.4,13.9,15,22.8,20.2,2.7,1.6,5,4.9,7.7,5,4.8.3,9.8-1.2,14.6-2-.1-.4-.1-.7-.2-1.1-.7-.3-1.4-.6-2.3-.9,3.9-2.9,7.9,5.2,11.6-1ZM260.8,488.6c0,.3,0,.6-.1.9,5.5-.3,11.1-.5,16.6-.8,0-.7-.1-1.4-.1-2.1-5.4.6-10.9,1.3-16.4,2ZM179.6,425.3c.4-.7.7-1.4,1.1-2.1-1.8-1.1-3.6-2.2-5.4-3.3-.4.9-1.1,2.5-1,2.6,1.7,1.2,3.5,2,5.3,2.8ZM720.5,429.1c.3-.8.5-1.5.8-2.3-1.6-.7-3.2-1.3-4.9-2-.3,1-.7,2.1-1,3.1,1.7.4,3.4.8,5.1,1.2ZM109.7,529.3c.5,0,1,0,1.6,0,.5-2.1,1.1-4.1,1.4-6.2,0-.5-.8-1.4-1.3-1.6-.4,0-1.5.7-1.5,1.2-.3,2.2-.2,4.4-.2,6.5Z" style="fill: #fdcd37;"/>
      <path d="M551.1,758.4c1.4-8.8,2.6-17.7,4.3-26.5,1-5.1,4.3-9,8.9-11.3,3.5-1.8,6.5,0,9.4,2.4,5.7,4.6,6.7,11.4,7.7,17.8,1.2,7.7,1.7,15.6,1.6,23.4,0,7.5-1.2,15.1-2.4,22.5-.9,5.9-8.2,10.8-14.6,10.6-5.2,0-9.5-4.5-10.7-10.9-.8-4.6-1.8-9.1-2.3-13.7-.6-4.7-.8-9.4-1.2-14.1-.2-.1-.4-.2-.7-.2Z" style="fill: #fdcd37;"/>
      <path d="M501.8,289.2c-1.5,1.7-3,3.3-4.5,5-1.6-1.5-3.2-3-4.8-4.4.4-.3.9-.5,1-.9.3-1.3,1.1-3,.6-3.8-3.5-4.9-7.2-9.5-10.9-14.2-3.1-4-6.4-7.9-9.4-12-.5-.7-.6-2.6,0-3.3,2.2-2.6,4.7-5,7.6-7.1-.3.9-.7,1.7-.9,2.3,1.2.5,2.3,1.3,3.6,1.5.8.2,2.1.1,2.7-.4,4-3.4,7.6-7.5,13.4-8.1.4,0,1.3-2.7.9-3.5-2.4-4.1-.5-8.5-1.3-12.8,3.2,4.2,6.5,8.5,9.8,12.7,1.7,2.2,3.4,4.3,5.3,6.3,2.9,3.1,6.2,5.9,8.9,9.2.8.9.5,3.8-.4,4.8-6,6.6-13,12.5-18,19.7-2.3,3.3-5.3,5.8-7.7,8.8-.6.8-.7,2.1-1.3,4.2,2.6-1.8,4.2-2.9,5.8-4-.3,0-.4,0-.4,0ZM507,255.3c-5.3,1.1-9.5,7-7.8,10.1,4.1-2.1,6.7-5.2,7.8-10.1Z" style="fill: #fdcd37;"/>
      <path d="M582.9,803.3c-5.8,1.4-11.1,2.8-16.5,4.1-.6,0-1.4.3-1.9,0-2.5-1.5-4.8-3.4-7.4-4.7-5-2.5-7.1-7.1-9.3-11.7-.8-1.6-1.4-3.6-2.7-4.6-2.4-1.8-1.1-3.8-.8-5.6.5-2.6,1.7-5,2.5-7.3,2.5,6.6,4.5,13.5,7.6,19.9,6.1,12.5,17.8,12.3,25.6,1.5,4.6-6.4,6.1-14,7.1-21.5,1-7.6,1.3-15.2,1.9-22.9.4,0,.8-.2,1.2-.4.6,1.5,1.5,2.9,1.8,4.4.5,3.2.5,6.5.9,9.7,0,.6.8,1,1.3,1.6.4-.6,1.1-1.2,1.1-1.7,0-3.5,4.2-3.2,4.9-6.2,1.4,1.8,2.6,3.4,4,5.3h5.7c-.7,1.6-1.6,2.7-1.8,4-.9,5.2-4.1,8.8-7.5,12.7-1.8,2.1-1.7,5.9-2.7,8.7-1.1,2.9-2.7,5.6-3.9,8.5-1.1,2.7-3.9,3.1-5.7,4.7-.5.5-1.2.7-1.7,1.2-.7.8-1.2,1.7-1.8,2.5-.8-.7-1.4-1.6-1.9-2.2Z" style="fill: #fdcd37;"/>
      <path d="M851.1,530.9c3.4-3.6,6.8-7.1,10.1-10.9,2.9-3.3,5-7.4,8.2-10.3,3.2-3,7.3-5,11.1-7.4.9-.5,2.1-.5,3.4-.4-3.5,4.6-5.6,10-11,13.1-2.8,1.6-4.3,5.4-6.5,8.1-3.8,4.8-8.4,8.3-15.3,7.8Z" style="fill: #fdcd37;"/>
      <path d="M212.4,323.4c1.3.4,2.1.4,2.6.9,3.5,2.9,6.9,5.8,10.4,8.7,1.9,1.6,1.8,2.8-.2,4.5-1.1,1-1.4,2.9-2.2,4.8,1.7.3,3,.5,4.4.7,0,.2.1.4.1.5-.6.1-1.3.2-2.2.3,1.3,5.5,2.5,11,3.9,17-.6-.1-2.1-.1-2.2-.4-.8-4-5.3-6.7-4-11.4.1-.2.1-.4.1-.6-2.7-5.3-5.5-10.4-8-15.8-1.3-2.6-1.7-5.6-2.7-9.2Z" style="fill: #fdcd37;"/>
      <path d="M497.7,312.9c-4.3,1-8.6,2-13,3-.4.1-.7.4-1.1.4-9.5-1.1-19-.5-28.5-.7-3.7-.1-7.4-.5-11.1-.7v-1c3.6-.2,7.2-.5,10.9-.7,9.4-.3,18.7-.6,28.1-.8,4.9.1,9.8.4,14.7.5,0,.1,0,0,0,0Z" style="fill: #fdcd37;"/>
      <path d="M501.9,289.3c5.4-6.2,10.6-12.7,16.4-18.5,4.1-4.1,9.2-7.4,13.8-11-.3-.5-.7-.9-1-1.4-.9,1.5-1.6,3.2-2.8,4.5-7.7,8.3-15.4,16.6-23.2,24.8-.9.8-2.2,1-3.2,1.6-.1,0,0,0,0,0Z" style="fill: #fdcd37;"/>
      <path d="M70.3,524.7c3.4,1.2,6.9,2.5,10.3,3.7.3-.4.6-.8.9-1.3-1-1.3-2-2.7-3.2-4.2,1.9,0,3.6.2,5.2.3-.3,2.2-1.8,4.5,1.9,5.7.7.2.8,2.8,1.2,4.5-5.7-2.8-11.2-5.4-16.7-8.1.2-.2.3-.4.4-.6Z" style="fill: #fdcd37;"/>
      <path d="M888.9,564.4c-3.6,1.2-7.2,2.2-10.6,3.6-1,.4-2.3,1.6-2.3,2.4s1.4,2.3,2.3,2.3c2.9,0,5.8-.4,8.9,0-4,.9-8,1.8-11.9,2.7-2.5-6.2-2.3-6.6,3.3-8.4,3.4-1.1,6.8-2.2,10.1-3.2,0,.2.2.5.2.7Z" style="fill: #fdcd37;"/>
      <path d="M866.7,579v-20.9h1.4c0,5.6-.5,11.3.2,16.8.4,2.8,0,3.7-1.6,4.1Z" style="fill: #fdcd37;"/>
      <path d="M467.3,257.6c4,5.1,8,10.1,12,15.2-.4.3-.7.6-1.1.8-4-5.1-8-10.2-11.9-15.4.4-.2.7-.4,1-.6Z" style="fill: #fdcd37;"/>
      <path d="M32.2,455.7v8.7h-1.2c-.3-2.9-.6-5.7-.8-8.6.7,0,1.4,0,2-.1Z" style="fill: #fdcd37;"/>
      <path d="M923.2,523.6c1.9-.6,3.7-1.2,6.1-2-1.8,2.4-7.9,2.7-3.1,7.3q-3.4.3-3-5.3Z" style="fill: #fdcd37;"/>
      <path d="M103.6,543.3c0-2.3-3-5.2,2.1-7.2-.4,2.9-.8,5.1-1.1,7.3-.3,0-.6,0-1,0Z" style="fill: #fdcd37;"/>
      <path d="M425,757.4c-.9-9.9,1.8-19.1,4.8-28.3.9-2.6,2.8-5,4.8-7,4.3-4.2,10.8-3.6,13.8,1.6,2.5,4.3,4.7,9,5.7,13.8,2.8,13.9,3.7,27.9.5,41.9-1.1,4.8-1.1,9.7-5,13.6-3.5,3.5-7.5,5.4-12,4.1-4.9-1.4-8.3-5.5-9.3-10.2-2-9.7-2.9-19.5-4.3-29.3.3,0,.6,0,1-.2Z" style="fill: #fdcd37;"/>
      <path d="M419.9,741.6c.3-1.2.7-2.7,1.1-4,0,12.1-.9,24.5.3,36.6.8,7.6,2.6,15.6,7.6,22.1,1.8,2.4,3.6,4.8,6,6.9-2.7-1.8-6.2-3-7.9-5.5-2.2-3.3-3.4-7.5-4.4-11.4-1.2-4.8-.3-10.7-2.8-14.5-3.9-6.1-2.1-12.5-3.3-18.7-.7-3.3.7-7.1,1.3-10.7,0-.2,1.3-.4,2.1-.8Z" style="fill: #fdcd37;"/>
      <path d="M462.7,770.2c-.2-.8-.5-1.5-.8-2.8-.2.8-.4,1.2-.3,1.5.5,7.4-.5,14.6-3.2,21.5-2.5,6.3-5.9,12-13.7,13.1,12.1-6.6,13.5-18.7,15.2-30.3,1-6.6,1.1-13.3,1.7-19.9.1-1.1.5-2.2,1-3.8,3.4,3.4,2.7,7.1,2.3,10.8-.3,3.3-.2,6.6-.3,10-.7,0-1.3,0-1.9,0Z" style="fill: #fdcd37;"/>
      <path d="M709.7,760.2c-1.1,9.6-2.1,18.5-3.3,27.4-.5,3.7-7.4,9.4-11.3,9.7-6,.5-11.5-2.5-13.2-8.3-1.7-5.7-2.6-11.6-3.2-17.5-.7-6.4-1.3-12.9-.7-19.3.8-8.7,1-17.7,6.2-25.4,1.3-1.9,2.9-3.8,4.7-5.3,3.3-2.7,7.1-2.2,11,1.2,3.9,3.3,5.6,7.8,6.4,12.6,1.5,8.5,2.4,16.9,3.4,24.9Z" style="fill: #fdcd37;"/>
      <path d="M695.2,803.5c12.7-4.6,15-16,17.5-26.9,1.6-7,1.6-14.5,2.1-21.7.2-3,0-6.1,0-9.2.5,0,1.2.4,3.2,1-1.4.5-2,.7-2.4.9,1,1,2.5,1.7,2.6,2.6.3,3.1,0,3.1,3.5,6.8.4-4.3,3.8-2.9,5.6-2.4s1.8,2.8,1,4.9c-.8,2.4-1.9,5.2,1.4,6.9-1,.6-2.3,1.1-2.3,1.5.2,1.8.7,3.7,1,5.2-1,2.4-2,5-3,7.4-.6-.3-1.5-.9-3-1.7,1.1,3.6-2.5,8.7-5.4,8.8,0,1.6,2.3,4.4-2.2,3.9-1,0-2.4,2.8-3.6,4.4-3.8,5.3-9.3,7.5-16,7.6Z" style="fill: #fdcd37;"/>
      <path d="M689,802.3c-10-1.6-17.9-13.8-14.7-22.6,3,9.1,5.1,18.3,14.7,22.6Z" style="fill: #fdcd37;"/>
      <path d="M671.9,771.8c-1-3.8-1.9-7.1-2.6-10.5,0,0,1.4-.6,2.6-1.1v11.6Z" style="fill: #fdcd37;"/>
      <path d="M317.7,748.2v15.6h-.7v-15.5c.2,0,.4,0,.7,0Z" style="fill: #fdcd37;"/>
      <path d="M219.1,446.8c-1.1-4.3,1.3-4.9,4.2-4.8,6.3.2,12.6.4,18.8.9,1.4.1,2.8,1.2,3.9,2.2.4.3.4,1.9,0,2.3s-1.7.9-2.4.6c-7.9-2.9-16.1-2.1-24.5-1.2Z" style="fill: #fdcd37;"/>
      <path d="M247.2,424.5c.5,6.1-2.1,8.4-7.6,7.8-6.2-.7-12.5-1-18.8-1.3-5.3-.2-7.8-2.9-7.2-9.1,1.9,9.3,9,7.3,14.6,8.2,3.1.5,6.3.1,9.5.1q6.4-.1,9.5-5.7Z" style="fill: #fdcd37;"/>
      <path d="M245,411.1c-2.1,0-4.2.2-6.3-.1-1.1-.1-2.6-.9-3-1.8-.4-1-.3-3,.4-3.6.9-.7,3-1.1,3.9-.5,2,1.3,3.7,3.3,5.5,5-.2.3-.3.6-.5,1Z" style="fill: #fdcd37;"/>
      <path d="M194.7,411.2c-2.5-.6-4.9-.9-7.1-1.9-1.8-.8-2.1-2.5-.1-3.6,3.5-2,7.3.7,7.2,5.5Z" style="fill: #fdcd37;"/>
      <path d="M274.8,472.1c-8-1.7-10.2-4.5-9.7-9.8,2.9,2.9,6.3,6.3,9.7,9.8Z" style="fill: #fdcd37;"/>
      <path d="M262.3,393.6h-16.2q-6.1,0-7.3,6.5v-7.4h23.5c.1.3.1.6,0,.9Z" style="fill: #fdcd37;"/>
      <path d="M557.4,394.9c-9.1,4.2-17,9.5-22.2,18.6,0-8.7,14.2-18.2,22.2-18.6Z" style="fill: #fdcd37;"/>
      <path d="M593,389.8c.6-.1,1.1-.1,1.6-.2h2.6c-1.6,2.3-3,4.2-5,7.1.4-2.9.5-4.7.8-6.9Z" style="fill: #fdcd37;"/>
      <path d="M755.6,462.2c.7,5.9,4.2,7.5,8.9,7.8v4.7c-1.8-1.2-3.8-2.9-6.1-4-4.9-2.3-5.3-2.9-2.8-8.5Z" style="fill: #fdcd37;"/>
      <path d="M773.4,428.2c4.1,4.2,8,8.3,11.9,12.4-.2,0-1.9.6-2.4.1-3.8-3.6-8-7-9.5-12.5Z" style="fill: #fdcd37;"/>
      <path d="M317.2,417.7c3.6-2.6,6.8-5.2,10.3-7.5,7.2-4.6,13.9-.8,18.4,5.3,1.7,2.3,4.9,4.8,1.3,8.5-.7.7,1.1,3.8,1.4,5.8.3,1.7.6,3.7.1,5.2-1.5,4.6-2.2,9.2-1.2,14.1.2,1.1-1.3,3.6-1.6,3.6-2.4-.5-2.2,1.8-3.1,2.7-1.6,1.5-2.8,4.8-5.4.8-.4-.6-2.2-.6-3.3-.6-6.4-.1-11.8-3.9-13.6-10.2-1.2-3.9-1.9-8-2.8-12-.1-.2,0-.6.2-.7,4.5-3.8,0-8.4,1.2-12.6,0-.4-1-1.3-1.9-2.4ZM338.7,417c0-1.7-.9-2.7-4.3-3.9-2.3-.8-5.3.6-6.6,2.5,3.4.5,7.2,1,10.9,1.4Z" style="fill: #fdcd37;"/>
      <path d="M310.9,436.8c.5,6.5,1.6,12.5,5.7,17.8,5.7,7.3,15.2,10.8,23.3,8.1,5.1-1.7,8-5.7,10.2-10.2.6-1.4,1.1-2.8,1.8-4.6,2.2,7.2-2.2,14.9-10.4,17.9-2.3.8-4.9.6-7.4.9-6.6.7-11.6-2.7-16.6-6.3-5.3-3.8-9.6-16.6-7.5-22.8-.1-.4.5-.5.9-.8Z" style="fill: #fdcd37;"/>
      <path d="M348.2,395c7.8-1.7,21.7,12.2,22.5,23.7-.9-.7-1.9-1.1-2.2-1.9q-6.7-13.2-20.3-21.8Z" style="fill: #fdcd37;"/>
      <path d="M324.8,392.3c-12.8,4.2-23.6,9.9-29.7,22,2.1-11.2,17.6-22.8,29.7-22Z" style="fill: #fdcd37;"/>
      <path d="M186.9,570.2c-.4-6.9-.6-12.6-1.1-18.3-.3-3.8.5-4.9,4.3-4.1,2.4.5,4.8.9,7,1.9,4.5,2.1,6.2,5.2,5.9,9.4-.4,6.4-4.2,8.7-8.2,10.1-2.5.7-5.2.6-7.9,1Z" style="fill: #fdcd37;"/>
      <path d="M181.4,567.7c2.6,7,7.7,8.9,14.1,6.4,6.3-2.5,10-7,12.2-13.2.3-.9.8-1.8,1.2-2.6.5,0,.9.2,1.4.4-.8,3-.9,6.5-2.5,9-4.5,7.2-11.9,9.3-19.9,9.3-4,0-7-4.2-6.5-9.3Z" style="fill: #fdcd37;"/>
      <path d="M224.2,545.3c-4.9-4.4-10.3-9.3-15.5-14,6.9,0,16,8.5,15.5,14Z" style="fill: #fdcd37;"/>
      <path d="M163.5,607.8c-.4-.2-1.1-.4-1.1-.6-.1-8.6,0-17.3.7-25.9v13.8c.1,4.2.3,8.4.4,12.7h0Z" style="fill: #fdcd37;"/>
      <path d="M163.5,607.8c1.2,8.8-2.3,10.2-11,9.4,7,.6,9.6-3.8,11-9.4h0Z" style="fill: #fdcd37;"/>
      <path d="M197.2,619c-12.3-.2-14.4-1-15.1-6.1,4.1,4.9,9.5,5.5,15.1,6.1Z" style="fill: #fdcd37;"/>
      <path d="M491.1,572.3c-2.7-3.4-5.4-6.7-8.2-10.2,3.7.4,7.7,5,8.2,10.2Z" style="fill: #fdcd37;"/>
      <path d="M467.8,620.6c.5-.9,1.2-2.5,1.4-2.4,4.8,1.7,4-2.7,5.2-4.7.2-.3.5-.6.8-.9q1.1,3.7-6.5,8.7c-.3-.3-.6-.5-.9-.7Z" style="fill: #fdcd37;"/>
      <path d="M676.5,436.3c-3.4.4-7,.8-11,1.3,2.3-4.8,3.9-9.1,2.3-13.9-.2-.7,1.2-2.9,1.9-2.9,1.4,0,3.8.7,4.1,1.6,1.1,4.3,1.7,8.9,2.7,13.9Z" style="fill: #fdcd37;"/>
      <path d="M661.3,454.5c5.7-4.8,12.5-2.8,18.9-2.3,1.4.1,2.6,3,3.9,4.7-.3.4-.7.7-1,1.1-3.5-1-7-2.6-10.6-3s-7.3.5-11,.8c-.1-.5-.1-.9-.2-1.3Z" style="fill: #fdcd37;"/>
      <path d="M749.8,594.5c4.6.2,11.2,6.7,12.8,13.9-4.6-5-8.9-9.7-12.8-13.9Z" style="fill: #fdcd37;"/>
      <path d="M713.9,610.8c3.3,3.1,6.4,6,9.4,8.8-4.4,0-9.2-4.1-9.4-8.8Z" style="fill: #fdcd37;"/>
      <path d="M704.1,569.7c4.1-6.6,6.8-8.7,10.4-8.8-3,2.5-6.3,5.3-10.4,8.8Z" style="fill: #fdcd37;"/>
      <path d="M432.6,468.4c6.6-4.6,6.1-12.1,7.4-18.8,3,.4,5.6,1,8.3,1.2q5.5.5,5.1,6.3c-1.4-1.6-2.5-3.6-4.3-4.7-3.8-2.5-8.1.2-8.8,4.9-.5,3-1.5,6-2.8,8.8-.7,1.4-2.5,2.2-3.9,3.3-.3-.4-.7-.7-1-1Z" style="fill: #fdcd37;"/>
      <path d="M426.5,469.1c-2.5,0-5.1.2-7.6-.1-1-.1-2.4-1.4-2.7-2.4-1.7-6.2-2.5-12.4-1.1-18.9.6-2.7.1-5.7,1-8.6,0,5.5-.1,11.1,0,16.6.3,10.6,2.4,11.7,10.4,13.4Z" style="fill: #fdcd37;"/>
      <path d="M389.2,469.9c3.3-2.3,8.6-2.5,8-8.9,3.6,4,2.1,5.6-8,8.9Z" style="fill: #fdcd37;"/>
      <path d="M392,393.7c1-1.2,12.2-1.7,23.9,0h-23.9Z" style="fill: #fdcd37;"/>
      <path d="M826.9,590.5c8.4,3.4,17,6.6,20.8,17.3-1.4-1.3-2.3-1.8-2.8-2.5-4.3-6.3-10.3-10.3-17.3-13.1-.4-.2-.4-1.2-.7-1.7h0Z" style="fill: #fdcd37;"/>
      <path d="M806.6,619.1c-2.2,0-8.6-4.3-9.4-6.8-.2-.7,0-1.5.2-2.3,1,.4,2.3.5,2.9,1.2,2.3,2.6,4.3,5.4,6.3,7.9Z" style="fill: #fdcd37;"/>
      <path d="M827,590.4c-7.5-1.4-14.2-2.7-14.4-8.4,4.7,2.8,9.5,5.7,14.3,8.5,0,0,.1,0,.1,0Z" style="fill: #fdcd37;"/>
      <path d="M816.7,621.1c2.5-3.7,4.6-6.7,6.5-9.5.5,4.4-.9,6.8-6.5,9.5Z" style="fill: #fdcd37;"/>
      <path d="M542.9,560.6c-12.7,7-22.5,17.4-21.2,34.7-5.7-14.3,8.1-33,21.2-34.7Z" style="fill: #fdcd37;"/>
      <path d="M586.7,620.1c-2.2-1.6-4.6-3.1-6.7-4.9-3.9-3.4-8-1.9-12.1-1-2.1.5-4.2.9-6.7.5,4.2-1.9,8.5-3.7,12.7-5.6.2,0,.6-.2.7,0,4.3,3.3,8.6,6.5,12.9,9.8-.2.5-.5.9-.8,1.3Z" style="fill: #fdcd37;"/>
      <path d="M543.9,598.6c2.2,8.3,6.4,14.4,16.1,15.6-3.2,1.2-11.8-.9-13.7-2.9-3.3-3.5-4.4-8.9-2.4-12.7Z" style="fill: #fdcd37;"/>
      <path d="M636.5,589.2v-6.7c0-5.1,3.6-8.1,7.4-9.6,2.7-1,6.8-.3,9.5,1.1,4.2,2.1,3.9,4.1,0,6.5-4.1,2.6-8.3,5.2-12.6,7.5-1.2.8-2.7.9-4.3,1.2Z" style="fill: #fdcd37;"/>
      <path d="M630,583.7c1.3,2.5,2.7,4.9,4,7.4,1.3,2.4,3.4,3.7,5.7,2.3,6.9-4.2,13.8-8.6,20.4-13.3,1.3-.9,1.4-3.3,2-4.9,2.4,1.7,1.5,1.9.4,5.4-2.8,8.6-11.3,10.2-17.1,14.9-5.3,4.3-10.9,3.3-14.4-1.7-1.8-2.6-1.8-6.3-2.6-9.5.5-.3,1.1-.4,1.6-.6Z" style="fill: #fdcd37;"/>
      <path d="M663,561.5c7,0,17.2,9,15,13.4-5-4.4-9.9-8.8-15-13.4Z" style="fill: #fdcd37;"/>
      <path d="M613.9,593c-2.8-14,6-28,14.4-29.8-11.8,13.4-12.6,10.5-14.4,29.8Z" style="fill: #fdcd37;"/>
      <path d="M467.9,405.7c7.4-.6,7.9-.3,8.5,5.5-2.7-2.3-8.5,1.5-8.5-5.5Z" style="fill: #fdcd37;"/>
      <path d="M271,556.1c1.2-.5,2.4-1,3.5-1.6,1.1,2.3,1.8,4.3,2.9,6,2.3,3.7,4.7,4.1,8.4,2,3.4-1.9,7-3.5,10.5-5.3.3.4.5.9.8,1.3-2.8,1.5-5.6,2.9-8.3,4.4-1.9,1-3.6,3.1-5.5,3.2-5,.4-8.4-2.3-10.3-7-.6-1.1-1.4-2-2-3h0Z" style="fill: #fdcd37;"/>
      <path d="M270.9,556c-1.6.4-3.3.7-4.9,1.2-3.5,1-6.4,3.7-10.6,2.8-1.3-.3-3.2,1.6-4.9,2.6-1.5-1.9-1.3-3.9,1.9-4.4,6.2-.9,12.4-1.5,18.5-2.2.1,0,0,0,0,0Z" style="fill: #fdcd37;"/>
      <path d="M343.8,623.1v-3c1.5,0,3,.3,4.3,0,2.9-.8,5.2-1.2,7.2-5,3.5-6.9,2.8-13.3,2.1-20.2,0-.3.2-.7.4-1.1.2-.6.4-1.1.8-2q.6,5.5,4.7,5.3c.5,6.7,6.4.9,8.4,3.8,1-2.8,1.9-5.3,2.9-8.4.1,1.9.3,3.4.4,5.3.8-1,1.4-1.7,2.5-3.1,0,5-.4,9.4.1,13.6,1.1,9,3.8,11.2,12.9,11.9v2.6c-3.3-.9-7.2-1.2-10-3.1-2.5-1.8-3.8-5.3-5.3-7.6.5-2.7,1-5.3,1.7-8.9-1.4,3.1-2.4,5.1-3.3,7.2-1.1-.8-2.1-1.6-3.3-2.5,0,.4.1.9.1,1.5-.2,0-.4.2-.6.4-.7-1.2-1.2-2.5-2-3.6-.9-1.3-2-2.4-3-3.7-.7,1.2-1.6,2.4-2,3.7-.7,1.8-.8,3.9-1.5,5.7-1.7,4.2-3.4,8.5-8.5,9.8-1.1.3-2.3.4-3.4.6-1.8.5-3.6.7-5.6.9Z" style="fill: #fdcd37;"/>
      <path d="M497.8,363.8c-5.1-6.8-10.2-5-15.3,0,1.1-5.3,3.7-6.8,10.2-5.9,2.8.4,5,1.9,5.1,5.9Z" style="fill: #fdcd37;"/>
    </g>
  </g>
</svg>