<?xml version="1.0" encoding="utf-8"?>
<!-- Generator: Adobe Illustrator 26.1.0, SVG Export Plug-In . SVG Version: 6.00 Build 0)  -->
<svg version="1.1" id="Layer_1" xmlns="http://www.w3.org/2000/svg" xmlns:xlink="http://www.w3.org/1999/xlink" x="0px" y="0px"
	 viewBox="0 0 1000 1000" style="enable-background:new 0 0 1000 1000;" xml:space="preserve">
<path style="fill:#FFFFFF;" d="M26.9,495.7c2.2-25,4.5-52.2,7.1-79.4c1.3-13.5,6.7-25.6,13.6-37.2c2.4-4.1,4.5-8.6,5.8-13.1
	c9-31.3,35.7-53.5,70.2-56.7c12.3-1.1,25-0.5,37.1,1.4c12,1.9,22.7,0,33.2-5c6.2-3,11.9-7,17.7-10.7c8.3-5.3,16.5-10.8,24.9-15.9
	c29.4-17.9,59.7-17.8,89.3-1.5c11.3,6.2,21.8,7.9,34,6c8.5-1.4,17.2-1.7,25.8-2.8c4.6-0.6,9-2.1,13.6-2.9c3.7-0.7,7.5-1.6,11.2-1.5
	c10.3,0.1,20.6,1,30.9,1c44.8,0.2,89.6,0.3,134.4,0.3c3.3,0,6.5-0.7,9.8-0.8c3.9-0.1,7.9-0.5,11.8,0.1c9.2,1.3,18.3,3.4,27.5,4.6
	c9.9,1.3,19.9,2.3,29.9,2.9c3,0.2,6.6-0.6,9.2-2.1c12.2-6.8,24.6-12.6,38.4-15.1c17.4-3.3,34.4-1.7,50,6.6
	c13.5,7.2,26.5,15.6,39.4,24c10.3,6.7,20.9,12.3,33.3,13.6c3.7,0.4,7.6,0.1,11.3-0.6c22-3.9,43.8-4.2,64.8,4.9
	c21.4,9.2,36.5,24.6,43.9,47c0.6,1.8,1.3,3.6,2.5,5.1c14,17.4,20.9,37.2,23.4,59.4c5.8,52.2,5.6,104.2-2,156.2
	c-2.2,15.1-8.9,28.2-17.3,40.7c-2.5,3.6-4.5,7.7-6,11.9c-11.5,32.9-35.5,50.4-69.2,54.5c-12.2,1.5-25,0.8-37.1-1.2
	c-14.3-2.3-26.9,0.7-38.7,7.6c-10.2,5.9-19.8,12.7-29.6,19.2c-35.7,24.2-71.6,23.2-107.5,0.8c-5.2-3.2-10-4.4-16.1-3.5
	c-9.4,1.4-19,1.6-28.4,3c-5.2,0.7-10.4,2.3-15.2,4.3c-7.6,3.2-14.9,3.8-22.7,1.1c-3.5-1.2-7.4-1.9-11.1-1.9
	c-47-0.2-94.1-0.3-141.1-0.2c-3.2,0-6.5,0.7-9.5,1.7c-7.1,2.6-14.6,3.8-21.1-0.1c-8-4.8-16.7-5.2-25.4-6.3c-0.5-0.1-1,0-1.5-0.1
	c-16.8-3.5-31.8-1.2-47.2,8c-19.2,11.5-41.2,15.1-63.1,8c-12.2-3.9-23.6-10.5-34.9-16.7c-8.3-4.6-15.9-10.5-23.8-15.7
	c-9.1-6.1-19.3-9.3-30.1-10.5c-2.5-0.3-5.2,0.2-7.7,0.7c-20.4,3.7-40.7,4.5-60.5-2.6c-27.6-9.9-45.3-29-51.9-57.9
	c-0.6-2.5-1.1-5.2-2.5-7.3c-10.8-15.7-15.6-33.4-17.1-52.1C30.5,545.2,28.8,521.6,26.9,495.7z M443.1,692.8c0.1,0,1.1,0.2,2.1,0.2
	c18.3,1,36.8-2.1,55.1,1.8c0.8,0.2,1.7,0,2.6-0.2c3.1-0.5,6.3-1.6,9.4-1.5c6.8,0.2,13.5,1.3,20.3,1.6c6.4,0.3,12.8-0.1,19.2,0.1
	c4.3,0.1,6.1-1.5,6.4-6c0.9-13.2,10.6-23.1,23.9-23.6c8.8-0.3,18.1-0.3,26.5,2c13,3.6,26,8.1,37.8,14.6c8.2,4.5,15.6,3,23.4,2.2
	c7.4-0.7,14.6-2.7,22-3.2c8.1-0.5,15.5-0.5,20.8-8.7c3.2-5,9.2-8.1,13.7-12.4c5.6-5.4,12.6-8,19.9-8.3c13-0.7,26.1-1,38.8,3.1
	c3.4,1.1,7,1.8,10.5,1.8c11.6,0.2,23.2,0.3,34.5-3.3c11.5-3.7,23.4-6.3,34.9-10.3c10-3.4,19.4-8.3,29.3-12.1
	c11.5-4.4,21.9-9.2,30-19.9c11-14.6,15.6-30.6,17.3-48.1c0.2-2.4-0.1-4.9,0.2-7.3c1-9.8,3.1-19.6,3.1-29.3
	c0.1-18.2-0.9-36.4-1.6-54.6c-0.3-7.8-0.9-15.7-1.7-23.5c-0.9-7.9-2.2-15.7-3.4-23.6c-1.8-11-3.6-22.2-10.7-31.3
	c-5.1-6.5-10.4-13.7-17.4-17.6c-12.2-6.9-25.7-11.7-38.8-16.9c-6.6-2.6-13.5-4.3-20.4-6.2c-12.2-3.3-24.3-7.1-36.7-9.3
	c-13.1-2.3-26.1,1.9-39.2,3.3c-10,1.1-20.4,2.7-30.2,1.3c-15-2.2-25.8-12.5-34.9-24.2c-0.9-1.2-2-2.8-3.2-3
	c-6.8-1.4-13.7-2.5-20.5-3.6c-7.5-1.2-15-2.5-22.6-3.2c-3.4-0.3-7.3,0-10.4,1.3c-16.1,7.2-31.7,15.1-49.6,17.8
	c-9.1,1.4-17.8,2.2-26.7-0.3c-10.8-3.1-16.6-9.7-18.3-22.5c-0.5-3.9-2.1-5.4-5.9-5.4c-6-0.1-12.1-0.7-18.1-0.6
	c-29.4,0.2-58.8,0.4-88.1,0.9c-1.6,0-4.4,2.9-4.6,4.7c-1.5,16.2-12.4,23.8-27.3,24.6c-6.2,0.3-12.5-1-18.8-1.6
	c-13-1.3-25.3-5.4-36.2-12c-10.9-6.6-21.9-7-33.6-5.3c-7.9,1.1-15.8,2.1-23.6,3.6c-4.2,0.8-8.9,1.9-12,4.5
	c-6.1,4.9-11,11.1-16.8,16.3c-6.4,5.6-14.1,8.4-22.8,8.7c-15,0.4-29.4-1.9-44.1-4.8c-13.6-2.7-27.7,0-41.1,3.7
	c-14,3.9-27.8,8.5-41.4,13.5c-10.3,3.8-21.3,7.1-30.2,13.2c-9.1,6.3-18.1,14.4-22.2,25.3c-4.1,10.8-7.1,22.1-9.4,33.5
	c-2,9.9-2.8,20.2-3.6,30.3c-0.9,11.3-1.8,22.6-1.7,33.8c0.1,17.5,1,35,1.6,52.5c0,0.5,0.1,1,0.2,1.5c1.1,6,3.2,12,3,17.9
	c-0.3,10,3.6,18.6,6.8,27.4c3.5,9.6,11.1,16.4,18.1,23.4c2.5,2.5,5,5.5,8.2,7c7.4,3.7,15.2,6.6,22.9,9.8c5.2,2.1,10.3,4.4,15.6,6.1
	c9.1,3,18.3,6.3,27.6,8.5c10.7,2.4,21.6,4,32.5,5.4c8.7,1.1,17.2-1.7,25.7-3c10.6-1.7,21.5-1.8,32.3-1.9c4.3,0,9,0.9,12.7,2.9
	c9.5,5.3,18.8,11.1,24.9,20.7c1.3,2,4.6,3.5,7.1,3.9c6,1,12.2,1,18.3,2c9.5,1.5,18.8,3.4,28.3,5c1,0.2,2.3-0.5,3.3-1
	c7.4-3.3,14.8-6.8,22.2-10.1c14.8-6.6,30.1-10.8,46.4-9.7c9.2,0.6,18.1,3,22.8,12.1C439.6,681.9,440.9,687,443.1,692.8z"/>
<path style="fill:#FFFFFF;" d="M680.2,383c-2.5,2.8-4.8,5.7-7.5,8.3c-10.7,10.2-21.5,20.3-32.2,30.6c-2.7,2.6-5.5,5.2-7.5,8.3
	c-4.8,7.3,0.1,12.7,4.6,17.5c6.9,7.5,14.5,14.4,21.5,21.7c11.5,12,22.9,24,34,36.3c2.1,2.3,2.5,6.2,3.7,9.4c-3.1,3.7-6.9,5.6-12,5.6
	c-15.4-0.2-30.8-0.5-46.2,0.1c-8.1,0.3-12.8-4.2-17.2-9.5c-7.1-8.5-14-17.1-20.8-25.8c-2.7-3.4-6.7-4.5-9.6-2.7
	c-2.5,1.5-4.4,5.6-4.8,8.8c-0.8,6-0.2,12.1-0.2,18.1c0,6.1-2.5,8.9-8.5,9.2c-14,0.6-28.1,1.5-42.1,1.7c-6.8,0.1-13.6-0.9-20.3-1.7
	c-3.6-0.4-8.6-7-8.8-11.7c-0.7-12.7-1.6-25.3-1.8-38c-0.3-16.8-0.3-33.5,0-50.3c0.1-8.7,0.8-17.4,1.7-26.1c1.1-10,2.8-11.2,13-11.2
	c17.3,0,34.6,0,51.9,0c7.6,0,15,7.2,15.1,15c0.1,8-0.3,15.9,0.2,23.9c0.2,2.7,1.4,6.5,3.4,7.8c2.9,1.9,5.5-0.9,7.9-3.2
	c13.7-13.3,27.5-26.5,41.4-39.6c1.8-1.7,4.3-3.6,6.6-3.6c11.3-0.4,22.7-0.2,34.1-0.2C679.8,382,680,382.5,680.2,383z"/>
<path style="fill:#FFFFFF;" d="M445.5,529.4c-9.5,0-19,0.2-28.5-0.1c-4.2-0.1-8.5-0.7-12.5-2c-1.9-0.6-3.6-3-4.8-5
	c-2.6-4.4-5.2-8.9-6.9-13.7c-2.5-7.2-7.9-8.8-14.3-8.8c-12.3-0.1-24.6,0.1-36.8-0.1c-4.6,0-7.8,1.8-9.6,6c-2,4.7-4.2,9.3-5.9,14.1
	c-2.6,7.2-9.1,8.9-15,9.3c-7.4,0.6-14.9-0.6-22.3-1.6c-3.9-0.5-5.9-5.1-4.8-8.8c5.1-17.7,15.8-32.6,24.3-48.5
	c7.8-14.7,15.7-29.4,23.6-44c5-9.2,9-19.4,15.8-27c9.3-10.3,18.7-22.4,35.4-21.3c7.3,0.5,14.7,0.4,22.1,1.1
	c8.9,0.9,13.3,7.6,17.2,14.6c10,17.7,19.9,35.3,29.9,53c7.4,13.1,14.7,26.1,22.3,39.1c3.9,6.7,8.3,13.2,12.3,19.9
	c0.6,1,0.9,2.2,0.9,3.4c0.2,2.9,0.3,5.9,0.3,8.8c0,3,0.9,7.7-0.5,8.7c-3,2-7.3,2.5-11.1,2.6C466.2,529.6,455.8,529.4,445.5,529.4z
	 M359.9,471.6c0,0,0-0.1,0-0.1c3.1,0,6.2,0.3,9.3-0.1c5-0.6,8.6-4.7,7.2-8.8c-2.9-8.1-6.2-16-10-23.7c-2-4.1-7.2-4.5-9.3-0.8
	c-4.5,8.3-8.6,16.8-12,25.6c-1.8,4.6,0.9,7.5,6,7.8C354,471.8,357,471.6,359.9,471.6z"/>
<path style="fill:#FFFFFF;" d="M280.1,494c-0.9,6.7-1.2,13.5-2.8,20.1c-1.9,8-9.1,10.3-15.9,11.6c-12.7,2.5-25.3,6.1-38.6,5.6
	c-9.3-0.4-18.7,1.8-28.1,1.4c-16.6-0.7-32.1-5-46.2-14.5c-13.1-8.7-20.4-21.2-25.6-35.2c-1.5-4-1.5-8.6-2-13
	c-0.7-5.6-2.2-11.2-1.6-16.7c1.4-12.4,2.8-24.9,8.4-36.3c0.8-1.7,3-2.8,4.5-4.3c1.8-1.9,4-3.7,5.3-5.9c4.2-7.8,11.3-12.5,18.4-16.8
	c15.7-9.5,32.8-14.6,51.4-13.9c12.2,0.5,24.5,0.8,36.7,2.1c7.2,0.7,14.3,3,21.4,4.9c7.2,2,11.1,12.7,8,21.4c-2.9,8.1-7.2,11-13.2,10
	c-8.7-1.5-17.4-2.9-26.2-3.3c-10.4-0.5-21.2,9.5-24.4,18.6c-5.1,14.5-3.9,28.2,2.1,41.8c4.2,9.4,11.4,14.4,22.1,14.5
	c11,0.1,22,0.8,33,1.5c1.9,0.1,3.8,1.2,5.5,2.2c2.2,1.2,4.1,2.8,6.2,4.2C278.9,493.9,279.5,494,280.1,494z"/>
<path style="fill:#FFFFFF;" d="M785.4,520.8c-19.9,0-39.8,0.2-59.7-0.1c-10.7-0.2-16-4.9-16.1-15.6c-0.1-33.9-0.2-67.8,0-101.6
	c0-4.9,1-9.9,1.9-14.7c0.7-3.5,8.4-7.5,13.6-7.5c33.2,0,66.4,0,99.6-0.1c6.9,0,13.8-0.2,20.8-0.1c4.4,0,7.8,2.1,8.7,6.5
	c0.8,3.9,2,8.5-2.2,11.4c-1.7,1.2-4.1,1.8-6.1,1.9c-13.3,0.2-26.6,0.2-40,0c-12.4-0.2-14.9,4.3-15.7,15.7c-0.4,6.2,0.1,12.4,0,18.7
	c-0.1,3.5,1.5,5.2,4.9,5.3c5,0.1,10,0.1,15,0.3c9.1,0.4,18.2,0.9,27.2,1.4c1,0.1,2.7,0.4,2.7,0.8c0.8,4.1,2.4,8.6,1.5,12.4
	c-0.5,2-5.4,4.1-8.4,4.3c-10.9,0.5-21.8,0.2-32.7,0.3c-6.2,0-10.4,4.2-10.5,10.5c-0.1,6.2,0,12.4,0,18.7c0.1,5.6,3.1,8.8,8.9,8.9
	c16.1,0.1,32.2,0.1,48.3,0c8.4,0,10.6,1.9,10.7,9.5c0.1,8.8-3.6,13.4-11.2,13.4c-16.9,0.1-33.9,0-50.8,0
	C792.3,520.8,788.9,520.8,785.4,520.8z"/>
<path style="fill:#FFFFFF;" d="M578.8,557.5c12.1-1.5,22.7,2.6,32.6,9c8.3,5.3,13.1,21.7,10,31.3c-4.3,13.2-12.9,22-25.5,26.6
	c-5.4,2-11.6,1.9-17.5,2.4c-10.3,1-20-1.3-28.7-6.9c-9.5-6.1-16.3-14.6-17.3-25.9c-1-11.6,5.3-20.8,14.4-27.4
	C556.2,559.7,566.9,556,578.8,557.5z M585.5,578.1c-9.5,0-16,5.3-16.1,13c-0.1,7.7,6.2,13,15.4,12.9c8.9,0,14.9-5.5,14.9-13.5
	C599.8,582.5,594.8,578.1,585.5,578.1z"/>
<path style="fill:#FFFFFF;" d="M710.5,624c-6.6,5.3-13.5,2-19.8,0.6c-3.4-0.8-5.9-6.1-8.7-9.4c-0.9-1-1.2-2.6-2.2-3.3
	c-1.6-1.1-3.5-1.6-5.3-2.3c-0.5,1.7-1.4,3.3-1.5,5c-0.3,10.5-2,12.4-12.7,12.1c-6.1-0.1-12.2-0.7-18.2-1.8c-2-0.4-4.5-2.6-5.1-4.5
	c-1.3-4-1.9-8.3-2-12.5c-0.3-10.5-0.3-21.1,0-31.6c0.1-4.2,0.5-8.6,2.1-12.5c0.9-2.1,4.3-4.4,6.6-4.5c14.3-0.4,28.7-0.7,43,0
	c8.7,0.5,14.7,6.7,19.4,13.7c5.2,7.8,5.2,16.2,1.6,24.5c-1.2,2.7-3.8,4.8-6.1,6.9c-3,2.8-3,5.3-0.2,8.4
	C704.7,616.3,707.6,620.3,710.5,624z M673.1,587.2c0,0,0.1,0,0.1,0c0,2.8-0.5,5.7,0.2,8.2c0.5,1.9,2.3,4.3,4,4.8
	c5,1.2,11.7-3.6,12.9-8.5c1.8-7-1.3-14.6-6.9-16.5c-7.5-2.7-10.6-0.5-10.4,7.4C673.1,584.1,673.1,585.7,673.1,587.2z"/>
<path style="fill:#FFFFFF;" d="M272.2,624c5-8.8,9.8-17.2,14.4-25.6c6.4-11.6,12.7-23.2,19.2-34.8c2.5-4.4,14.7-7.4,20.1-5.8
	c5.8,1.7,8.5,5.5,11.3,10.6c8.5,15.7,17.7,30.9,26.6,46.3c0.8,1.5,1.6,3,2.6,4.3c2.3,3.1,1.4,5.8-2.4,5.9
	c-11.1,0.2-22.1,0.2-33.2-0.1c-1.4,0-3.5-2.6-4-4.4c-1.9-6.5-5.9-8.4-12.4-7.7c-5.6,0.6-11.4,0.5-17.1,0c-4-0.4-5.8,1.4-7.4,4.6
	C285.9,625.8,282.7,627,272.2,624z M306.5,602.3c0.7,0,1.4,0,2.1,0c7-0.1,8.7-2.7,5.8-9.1c-0.9-2-1.5-4.3-2.7-6.1
	c-0.8-1.3-2.4-2.8-3.7-2.8c-1.5,0-3.3,1.3-4.3,2.5c-1.3,1.5-2,3.6-3,5.4C296.5,600.4,297.6,602.3,306.5,602.3z"/>
<path style="fill:#FFFFFF;" d="M413.4,627.4c-8.5-0.1-16.6-0.7-24.4-4.9c-7-3.8-11.1-9.6-13.5-16.6c-4.5-13-2-25.5,6.2-36
	c3.7-4.8,10.2-9,16-10.2c10.1-2.1,20.7-1.9,31.1-2c3.3,0,6.6,2.1,10,3c5,1.3,4.6,5.1,4.1,8.7c-0.6,3.9-3.9,3.6-6.9,3.6
	c-3.6,0-7.3,0-10.9,0c-7.4,0-13.3,5.6-13.3,13.1c0,5.9-0.7,11.8,2.8,17.4c2.6,4.2,5.7,6.1,10.2,6.3c4.5,0.1,9,0.2,13.5,0
	c3-0.2,5.3,0.6,5.7,3.6c0.3,2.5,0.3,5.6-1,7.4c-1.6,2.1-4.6,3.9-7.2,4.3C428.3,626.1,420.8,626.6,413.4,627.4z"/>
<path style="fill:#FFFFFF;" d="M237.6,559.1c9,0,18,0.1,27,0c3.7,0,5.9,1,6.1,5.2c0.1,4.3-2.2,5.3-5.9,5.2
	c-5.5-0.1-11.1,0.2-16.6-0.1c-4.9-0.2-7.7,1.4-7.2,6.7c0.1,1-0.1,2.1-0.4,3c-2.1,6.4-1,7.7,5.9,7.9c4.7,0.1,9.5,0.6,14.2,1.2
	c3.3,0.4,3.7,3.3,2.7,5.4c-0.7,1.6-3,3.2-4.8,3.4c-4.4,0.5-9,0.3-13.5,0.1c-3.2-0.2-4.3,1.2-4.2,4.2c0.2,4.7,0.1,9.3,0,14
	c-0.1,7.4-4.2,11.4-11.3,11.4c-4.3,0-8.8-0.6-12.9,0.1c-6.4,1.2-10.3-2.7-14.6-5.8c-0.8-0.6-1-2.5-1-3.7c-0.1-16.2-0.1-32.5,0-48.7
	c0-5,4.8-9.6,10-9.6C220,559.1,228.8,559.1,237.6,559.1z"/>
<path style="fill:#FFFFFF;" d="M798.4,560.7c-4.1,6.7-8.1,13.3-12.1,19.9c-3.4,5.7-6.8,11.4-10,17.2c-0.7,1.2-0.6,3-0.6,4.5
	c-0.1,5.7,0.2,11.4-0.2,17.1c-0.1,1.9-1.5,4.9-2.9,5.3c-10,2.9-20.2,2.9-30.2,0.1c-1.4-0.4-2.9-3.3-3.1-5.1
	c-0.4-5.1,0.1-10.4-0.2-15.5c-0.2-2.8-0.9-5.8-2.3-8.2c-5.5-9.9-11.5-19.6-17.1-29.5c-2.7-4.8-1-7.3,4.6-7.4
	c9.2-0.1,18.3,0.2,27.5-0.1c4.2-0.1,6.4,1.9,8.1,5.1c1.8,3.5,3.5,7,5.3,10.5c2.5,4.9,6.4,5.2,9.4,0.6c2.9-4.4,5.6-8.9,8.4-13.3
	C785.1,558.5,791.7,557.8,798.4,560.7z"/>
<path style="fill:#FFFFFF;" d="M489.5,559.1c9.7,0,19.4,0,29,0c5.7,0,6.4,0.8,6.4,7.3c0,7.2-0.6,8-6.1,8.1c-9.5,0.2-9.5,0.2-9.5,9.6
	c0,7.3,0.2,14.5-0.1,21.8c-0.2,5.2-0.9,10.5-2,15.6c-0.3,1.4-2.6,2.9-4.3,3.4c-8.3,2.5-16.6,1.9-25.2,0.4c-4.7-0.9-6-2.9-6.6-6.7
	c-0.2-1.2,0-2.4,0-3.6c0-11.2,0-22.5,0-33.7c0-6-0.9-6.8-7-6.8c-0.5,0-1,0-1.6,0c-8.2,0-11.8-5-8.5-12.5c0.7-1.5,3.5-2.8,5.3-2.8
	C469.5,558.9,479.5,559.1,489.5,559.1z"/>
</svg>
