<?xml version="1.0" encoding="UTF-8"?>
<svg xmlns="http://www.w3.org/2000/svg" version="1.1" viewBox="0 0 1000 1000">
  <defs>
    <style>
      .cls-1 {
        fill: #fdcd37;
      }
    </style>
  </defs>
  <!-- Generator: Adobe Illustrator 28.7.1, SVG Export Plug-In . SVG Version: 1.2.0 Build 142)  -->
  <g>
    <g id="Layer_1">
      <path class="cls-1" d="M38.5,168.4c.4-.6,1-1.2,1.2-1.8.4-1.1.7-2.3.8-3.5.9-6.8,4.1-12.6,8.6-17.4,3.8-4,8.3-7.4,13.9-8.9,6.3-1.7,12.5-2.8,19.1-2.7,11.6.3,23.2.2,34.9,0,6.7-.1,13,1.5,19.3,3.5,1.4.5,2.6.5,4.1.1,6.4-2.1,12.7-3.7,19.6-3.6,13.3.2,26.5-.2,39.8.2,7.8.2,15.3,2,21.9,6.8,3.2,2.4,6.2,4.9,8.3,8.3.5.7,1.1,1.3,1.8,2.2,1.3-1,2.6-1.8,3.8-2.7,5-3.8,10.6-6.2,16.6-7.6,6.8-1.6,13.6-3.4,20.4-5.1,9.5-2.3,19.1-2.5,28.8-1.7,12.2,1,23.9,4,35.4,8.2,4.5,1.6,8.6,3.8,12.4,6.6,1.3,1,2.6,1.9,4,2.8.4-.4.7-.6.9-.8,2.6-4.5,6.6-7.6,10.9-10.3,1.7-1.1,3.6-2.3,5.5-2.8,7.1-2.2,14.3-4.1,21.9-4,14,.2,28.1,0,42.1.1,6.8.1,13.3,1.8,19.4,4.5,3.6,1.6,6.7,4.5,10.1,6.8,2.7-2,5.4-4.1,8.2-6.1,1.1-.8,2.4-1.6,3.7-2,5.7-1.7,11.3-3.4,17.3-3.3,12.2.2,24.3-.2,36.5.1,7.7.2,15.1,2,21.6,6.7,3.6,2.7,6.4,5.9,9,9.7.6-.3,1.1-.5,1.5-.8,8.1-5.9,17.2-9.5,26.9-11.8,4.9-1.1,9.8-2.4,14.8-3.2,8.2-1.2,16.4-1.1,24.6,0,8.3,1.1,16.4,2.8,24.4,5.2,10.1,2.9,18.6,8.7,26.5,15.4,2.3,1.9,4.1,4.5,6.2,7,.4-.2.9-.4,1.2-.8,6.4-5.4,13.9-8.6,21.6-11.7,8.9-3.6,17.8-7.4,26.7-11.1,6.1-2.5,12.4-4.9,19-4.5,7.2.4,14.2,1.9,20.4,6.4,3.9,2.8,7.4,5.8,9.9,9.9.7,1.2,1.7,2.3,2.7,3.8,1.5-2.1,2.8-4,4.3-5.9,4.3-5.5,9.8-9.2,16.4-11.3,8.6-2.7,17.4-3,26.3-3.1,3.5-.1,7,.1,10.5,0,6-.2,11.8.1,17.5,2,2,.7,3.9.4,5.8-.1,5.2-1.6,10.5-2,15.9-1.9,7.9.2,15.8,0,23.7.1,6.9.1,13.6,1.6,19.8,4.4,4.6,2,8.7,5.3,12,9.5,6.2,7.9,8.4,17.1,8.4,26.7.2,43.5,0,87,.2,130.6,0,7.4-1.5,14.5-4.4,21.1-2.4,5.5-6.2,10.1-11.3,13.8-7.4,5.4-15.9,7.9-24.7,7.4-8.5-.4-16.9-2.6-24.2-7.5-2.5-1.7-5-3.5-7.6-5.3-3.1,2.7-6.8,3.6-10.6,4.6-5.9,1.6-11.8,2.2-17.9,2-7.1-.2-14.3-.3-21.4,0-6.6.3-12.8-1.6-19-3.2-.7-.2-1.4-.5-2.5-.8-5.8,5.2-12.6,8.6-21.4,9.6,1.5,1.4,2.5,2.2,3.3,3.1,2.9,3.1,3.9,7.1,4.1,11.2.4,5.9.5,11.8.5,17.7,0,33.4,0,66.9,0,100.3,0,10.1-.3,20.2-.7,30.2-.3,9.2-.7,18.4-1.3,27.5-1.1,14.6-2.4,29.2-3.7,43.7-.5,5.3-1.1,10.7-2.2,15.9-1.1,5.6-4.7,9.3-10.2,10.9-2.9.9-5.9,1.5-9.3,2.4,1,.4,1.7.7,2.5,1.1,14.3,6.6,27.6,14.8,37.8,27.2,6.8,8.3,13,17.1,17,27.2,1.3,3.4,2.7,6.7,3.5,10.2,2.6,10.5,5.7,20.9,6.7,31.8.3,3.5.3,7,.3,10.5,0,6.1,0,12.3,0,18.4.2,10.7-1.3,21.2-3.7,31.6-1.5,6.6-3.2,13.2-5.1,19.7-3.2,11.1-8.3,21.4-15,30.9-2.6,3.6-5.3,7-8,10.5-3.5,4.5-7.5,8.6-12.2,11.9-5.2,3.7-10.4,7.4-15.7,10.7-8.4,5.3-17.8,7.8-27.4,9.9-5.7,1.3-11.3,2.5-17,3.4-10.3,1.6-20.6.9-30.7-1.4-8.3-1.9-16.6-4.1-24.8-6.4-5.3-1.4-10.2-4-14.8-6.9-8.1-5.1-16.1-10.2-22.7-17.2-1.8-1.9-3.5-3.9-5.3-5.9-2.7,2.9-5.1,5.9-8,8.5-10.6,9.5-22,18-35.7,22.2-13.9,4.3-28,8.1-42.8,8-9.5,0-18.7-2.1-27.8-4.3-4.6-1.1-9.1-2.3-13.6-3.6-12.5-3.8-23-11.1-33.1-19.1-3.5-2.8-6.4-6.2-9.6-9.4-.6-.6-1.2-1.3-2-2.2-.7.8-1.5,1.4-2,2.1-5.4,6.8-12,12.2-19.2,16.8-2.9,1.9-5.8,3.9-8.8,5.7-8.3,5.1-17.7,7.6-27.1,9.7-5.7,1.3-11.3,2.5-17,3.4-10.3,1.6-20.6,1-30.7-1.4-8.5-2-17-4.2-25.4-6.6-6.2-1.7-11.7-5-17-8.4-2.3-1.5-4.6-3-7-4.6-.5.8-1,1.5-1.5,2.2-3.3,5.6-8,9.8-13.6,13-1.6.9-3.3,1.7-5.1,2.2-4,1.1-8.1,2-12.1,2.9-2.1.4-4.3.6-6.5.7-5.6.2-11.2.5-16.7.4-13.2-.3-26.5-.4-39.7-1.4-7.1-.6-14.3-2.3-21.1-4.7-5.6-1.9-10.4-5.7-14.3-10.6-3.7-4.7-5.7-10-7.1-15.7-2.2-8.7-3.2-17.6-3.7-26.6-.6-12-1.6-24-2.3-36.1-.4-6.6-.6-13.1-.9-19.7-.6-14.3-1.2-28.7-1.7-43-.2-6.6-.3-13.1-.3-19.7-.1-12.8-.1-25.7,0-38.5,0-1.9.3-3.9.7-5.8.7-3.4,1.7-6.8,2.4-10.2,1.6-6.9,5.8-11.9,11.1-16.2,1-.8,2.2-1.5,3.2-2.3,3.1-2.5,6.6-3.6,10.4-4.5,10.4-2.5,20.8-4.5,32-3.8-.6-1-.8-1.5-1.2-1.9-2.7-3.1-4.4-6.6-5.5-10.7-2.1-8.2-3.1-16.5-3.8-24.9-.9-10.3-1.7-20.7-2.4-31-.4-5.9-.6-11.8-.9-17.7-.5-8.2-1.2-16.3-1.7-24.5-.4-5.5-.6-10.9-.9-16.4-.5-7.6-1.2-15.2-1.7-22.9-.4-5.6-.6-11.1-.9-16.7-1.3-22-.4-44-.6-66.1,0-4.4.2-8.7,1.4-13,1.1-4,3.2-7.2,6.5-9.6,2.4-1.8,4.9-3.3,7.3-4.9-.1,0-.3-.2-.5-.1-5.9,1.9-11.9,1.6-17.9,1.5-10.1-.2-20.2-.5-30.2-.3-6.9.1-13.5-1.5-20-3.3-1.6-.4-2.8-.5-4.4,0-6.9,2.3-13.8,4.2-21.2,4-13-.2-26.1.2-39.1-.1-10-.3-19.3-3.1-26.6-10.3-3.9-3.8-7.2-8.3-8.5-13.8-.6-2.6-1.2-5.1-1.9-7.7-.3-1-.9-1.9-1.3-2.9-.3-48.5-.3-96.7-.3-145ZM583.7,376.6c-.4.1-.6.2-.8.2-13.2-1.1-26.3-.5-39.2,2.1-7.6,1.6-14.8,4-21.1,8.8-1.5,1.2-3,2.6-4.3,3.8-18.3-8.9-36.8-11-56-3.8-2.9-.7-6-1.7-9.1-2.2-13.4-2.1-26.8-2.7-40.3-2.2-8.7.3-17.5.3-25.5,4.8-.3-.8-.6-1.4-.8-2-.3-.7-.6-1.4-.9-2.1-4.1-8.6-10.7-14.9-18.2-20.4-18.2-13.4-38.9-19.4-61.2-19.9-15.7-.4-31.3.2-47,.3-7.1,0-14.2.7-21.2,2.1-6.3,1.2-12.7,2.3-18.7,5-7.5,3.4-12.8,8.7-13.8,17.3-.3,2.8-.5,5.7-.6,8.5-.2,18.5-.2,37,1,55.5.8,12.1,1.8,24.2,2.6,36.3.9,14.1,1.7,28.2,2.7,42.2,1,15.7,2.1,31.4,3.3,47.1.6,8.2,1.8,16.3,4.1,24.2,1.7,5.7,5,10.1,10.7,12,4.6,1.6,9.5,2.2,14.5,2.2,15.6,0,31.1,0,46.7.2.8,0,1.5,0,2.2,0,2.3,4.7,4.6,6.9,9.6,8.9,6.6,2.7,13.5,3.8,20.5,4.1.9,0,1.8,0,2.6-.3,6.6-1.6,13.1-3.4,19.7-5,6.2-1.5,12.4-2.8,18.8-3,2.1,0,4.4-.6,6.3-1.5,5.2-2.4,10.2-5,15.2-7.7,1.4-.7,2.5-.8,3.9,0,20.3,9.5,41.8,12.7,64,11.3,14.7-.9,29-4,42.9-9,1.3-.5,2.4-.7,3.5.5,1.1,1.1,2.4,2,3.8,2.5,6,1.9,12.1,3.7,18.2,5.4,1,.3,2.2.2,3.2,0,11.2-2,22.4-1.9,33.7-.6,1.7.2,3.5.2,5.2-.2,10.6-2.4,20.6-6.5,30.4-11.2,1.4-.7,2.6-1.2,4.3-.4,10.4,4.9,21.5,6.7,32.8,7.2,14,.7,27.8-1.2,41.3-4.7,2.6-.7,4.9-.5,7.4.5,1.9.8,3.9,1.3,6,1.8,10.1,2.3,20.4,2.6,30.7,3,11.1.4,22.1,0,33.1-1.2,6.5-.7,13-1.6,19.3-3.7,2.8-.9,4.9-2.6,6.8-4.9,2.8-3.3,3.5-7.4,3.8-11.3,1.8-19.9,3.6-39.8,5-59.8.8-11.7,1.1-23.4,1.3-35.1.3-12.5.4-25,.3-37.5,0-26.4-.2-52.8-.3-79.2,0-7.1-2.9-12.5-9.1-16-3-1.7-6.3-3.1-9.6-4.2-9.3-2.9-18.9-3.6-28.6-3.8-5.4-.1-10.7,0-16.1.4-7.4.6-14.9,1.1-22.2,2.4-6.4,1.1-12.7,3.1-19.1,4.7-1.7.4-3.6,1.1-5.1.6-7.1-2.5-14.6-3.1-22-3.4-12.9-.5-25.9-.6-38.8-1-9.9-.3-18.5,3.2-26,9.4-2.2,1.8-4,4.1-4.6,7-.6,2.8-.9,5.6-1.3,8.4.3,2.3.2,4.5,0,6.6ZM664.8,210.6c2.4-2.9,4.7-5.7,7-8.4,4-4.7,7-9.8,7.9-16,.2-1.1.3-2.2,0-3.2-1.2-8-5.2-14.4-11.3-19.4-5.7-4.7-11.9-8.5-19-10.9-5.5-1.9-11.1-3.2-16.8-4.2-8.4-1.5-16.8-2.2-25.2-1.3-20,2.1-37.7,9.6-52.1,23.9-.5.5-1.1.8-1.7,1.3-.5-2.8-.9-5.2-1.4-7.7-2.6-11.2-11.1-17.4-22.3-17.7-12.6-.3-25.2,0-37.8-.1-3.9,0-7.6.8-11.2,2.2-3.3,1.3-6,3.4-8.2,6.3-3.8,4.9-4.9,10.4-4.8,16.4s.1,12.1.2,18.1c0,1.4,0,2.9.3,4.2,1,4.4,1.1,8.6-.4,12.9-.1.4-.1.9-.1,1.3,0,7.8.1,15.6.1,23.3v13.8h-6.4v-67.6c0-5.5-.6-11-2.9-16-1.3-2.9-3.2-5.8-5.5-8-5.3-5.1-12.2-6.8-19.3-6.9-12.2-.2-24.3-.1-36.5,0-6.1,0-12.2,0-18.3,1.7-9.9,2.7-16.1,8.8-18.8,18.7-.5,1.9-.9,3.8-1.4,5.7-.5-.3-.8-.4-1.1-.5-5.4-4.3-10.7-8.7-16.3-12.7-2.9-2.1-6.2-3.6-9.5-5-10.2-4.2-20.8-6.7-31.8-7.5-8.9-.6-17.7-.3-26.5,1.6-6,1.3-11.9,2.9-17.8,4.5-5.2,1.4-10,3.7-14.4,6.9-5.5,3.9-10.1,8.7-14.8,13.5-.5.5-1,.9-1.5,1.3-.6-3.5-1.1-6.9-1.8-10.2-1-4.4-3.2-8.2-6.5-11.2-5-4.5-11-6.6-17.7-6.6-11.2-.1-22.3-.1-33.5-.1s-8.1-.1-12.1.3c-5.8.6-10.8,3.3-15,7.4-.5-.4-.8-.7-1.1-1-4.8-4.4-10.6-6.7-17-6.7-14.2-.1-28.5,0-42.7,0s-8.5.9-12.4,2.8c-2.6,1.3-5.1,3.1-7.1,5.2-4.6,5.1-6.4,11.4-6.4,18.2v135.5c0,4.8,1,9.4,2.9,13.7,1.1,2.4,2.8,4.8,4.8,6.6,4.9,4.5,10.9,6.5,17.4,6.5,14.1.1,28.3.2,42.4,0,5.9-.1,11.5-1.5,16.3-5.3,1-.8,2.1-1.5,3.3-2.4,1,.7,2,1.3,3,2,4.1,3.1,8.9,4.5,13.8,4.6,14.6.4,29.1.4,43.7.7,4.1.1,8.1-.8,11.9-2.3,5.7-2.2,9.8-6.3,11.9-12,1.3-3.4,1.9-7,2.9-10.9,1.1.9,2.1,1.9,3.2,2.8,9.9,8.8,20.5,16,33.8,18.5,8,1.5,15.8,4.5,24.2,3.6.3,0,.7,0,1,.1,6.2.1,12.5.4,18.7.2,8.3-.3,16.2-2.6,24-5.1,3.1-1,6.2-2.3,8.9-4.1,6.2-4,12-8.4,17.1-13.8.6-.6,1.3-1.1,2.2-1.9.5,2.2.9,4.1,1.3,6,1.1,4.7,3.4,8.9,6.9,12.1,5.5,5,12.3,7.1,19.6,7.2,5.7.1,11.4-.3,17.1-.3,21.4-.1,42.8-.2,64.1-.1,4.2,0,8.3-.6,12.2-1.9,1.3-.4,2.5-.4,3.8.1,4.4,1.6,8.8,2.4,13.5,2.3,9.3-.1,18.6,0,28-.1,2.8,0,5.7-.4,8.4-1,9.5-2.2,15.4-8.2,18-17.6,1.1-3.8,1.4-7.7,1.3-11.7,0-1.1,0-2.2.2-4,1.2,1.3,1.9,2,2.6,2.7,5.9,6.3,12.6,11.6,20.8,14.5,4.8,1.7,9.8,3.2,14.7,4.6,2.3.7,4.7,1.5,7,1.5,7.5,0,15.1.4,22.6-1,1.5-.3,2.4.1,3.5,1,2.9,2.6,5.9,5.3,9.1,7.5,5.7,3.8,16,4.2,22.5-.2,3.8-2.6,6.7-6,9.8-9.2,1.1-1.2,2.2-1.5,3.8-1.1,2.3.6,4.7,1.2,7.1,1.3,10.5.2,21,.2,31.5.4,4.1.1,8-.9,11.9-2.2,1.6-.6,3.1-1.4,4.8-2.2,9.5,6.3,18.9,5.8,28.1-1,1.2,1.7,2.3,3,3.2,4.5,2.5,4,5.9,7,9.8,9.5,3.8,2.4,8.1,3.8,12.4,3.6,4.7-.2,9.3-1.6,13.2-4.5,3.8-2.9,7.6-5.8,11.5-8.8,1,.7,1.9,1.3,2.8,1.9,4.5,3.3,9.7,4.8,15.1,4.9,10.7.3,21.5.3,32.2,0,5.6-.1,11.1-1.5,15.7-5.1,2-1.6,3.8-3.5,6-5.4.7.7,1.5,1.4,2.3,2.1,7.7,6.6,15.7,12.5,26.1,14.5,6.9,1.3,13.1-.3,18.9-3.7,2.1-1.2,4-3,5.6-4.9,5-5.9,6.7-13.1,6.7-20.5,0-43.2,0-86.4,0-129.6s-.4-7.4-1.4-11c-2.4-8.6-7.8-14.3-16.5-16.6-3.9-1.1-7.9-1.7-12-1.6-5.7.1-11.4-.2-17.1,0-5.7.2-11.4-.7-17,1.2-2.4.8-4.7,1.6-7.2,2.4-4.4-2.3-9-3.7-14.1-3.6-8.5.2-17.1.5-25.6.5s-7.6.5-11.3,1.6c-5.2,1.5-9.5,4.3-12.7,8.8-3.2,4.6-4.6,9.7-4.8,15.1-.2,6.1,0,12.3,0,18.4,0,1,0,2.1-.2,3.8-.7-1-1-1.4-1.3-1.8-6-10.7-12.1-21.4-18.1-32-2.4-4.2-5.3-8.1-9.7-10.5-4.7-2.6-9.7-4.4-15.1-3.4-4,.8-7.9,2.4-11.8,3.9-3.7,1.4-7.2,3.2-10.8,4.7-8.2,3.4-16.5,6.5-24.7,10-7.7,3.3-13.3,8.8-16,16.8-2.4,7.2-4.4,14.5-6.6,21.7-1,3.2-2,6.4-3,9.5-4.7-1.6-8.7-2.5-13.1-3.6ZM298.9,630.8c-2.4-3.3-4.3-6.7-6.9-9.2-3.3-3.1-7-5.8-11.7-7-9.1-2.3-18.3-3.5-27.6-3.8-12.5-.4-25-.6-37.5-.6-8.7,0-17.5.4-26.1,2.7-4.7,1.2-9.1,2.8-13.1,5.7-3.8,2.7-6.9,6.2-8.6,10.2-2,4.9-3.1,10.3-3.5,15.6-.6,7.4-.2,14.9-.1,22.3.4,21.2.9,42.5,1.4,63.7.2,7.4.5,14.9.9,22.3.9,15.8,2,31.7,2.9,47.5.5,9.5,1.3,19,4.2,28.2.4,1.2.7,2.6,1.3,3.7,3.4,5.7,8,10.1,13.7,13.3.8.5,1.8.8,2.7,1.1,9.8,2.8,19.8,3.7,29.9,3.8,13.5.2,27,.5,40.4.2,8.5-.2,17-1.6,24-7.5,4.2-3.6,7.7-7.7,9-13.3.5-2.4,1.2-4.8,1.9-7.5,1,.9,1.7,1.4,2.3,2,12.6,10.7,26.1,19.5,42.7,22.8,7.5,1.5,14.9,3.6,22.6,4.1,8.9.6,17.7,0,26.4-2.2,6.9-1.7,13.9-2.9,20.6-5.5,9.5-3.7,17.6-9.8,25.6-16,2.4-1.9,4.7-4,6.7-6.3,3.6-4.2,7-8.7,10.5-13,.6-.7,1.2-1.4,2.1-2.4,1.7,2.2,3.2,4.2,4.7,6.2,9.5,13.4,22.5,22.6,37,29.8,6.2,3.1,13,4.4,19.7,6,10.5,2.6,21,4.3,31.9,3.5,7-.5,13.8-2.5,20.7-3.8,17-3.2,30.7-12.3,43.4-23.5,5-4.5,8.8-10,12.8-15.4.7-.9,1.4-1.8,2.4-3,1.6,2.1,3,3.8,4.2,5.6,8.6,12.7,20.7,21.3,33.8,28.7,6.5,3.7,13.7,5.7,21,7.3,8.4,1.9,16.8,4,25.6,4.2,14.8.4,28.9-3.2,42.7-7.8,9.2-3,16.9-8.8,24.3-14.8,13.6-10.9,23.3-24.9,30.3-40.7,3.9-8.8,5.7-18.2,8-27.4,2.7-10.9,3.8-22,3.2-33.2,0-1.9-.4-3.7-.2-5.6,1.9-19.3-2.5-37.7-8.7-55.7-3.4-9.8-9.8-17.8-16-25.9-3.7-4.8-8.1-8.9-13-12.5-3.2-2.3-6.5-4.5-9.7-6.7-6.1-4.1-12.6-7.1-19.6-9-5.2-1.4-10.4-2.5-15.6-3.8-8-2-16.2-2.7-24.4-2.6-12.5.2-24.5,3.4-36.4,6.5-9.2,2.4-17.3,7.2-25.1,12.6-8.3,5.7-15.8,12.2-21.5,20.5-.4.6-1,1.1-1.7,1.9-2-2.5-3.7-4.9-5.5-7.2-6.8-8.6-15.7-14.6-24.8-20.4-5.6-3.6-11.6-6.1-18-7.8-5.5-1.4-11.1-2.6-16.6-3.9-6.8-1.6-13.6-2.2-20.5-2.2-14.6,0-28.6,3.6-42.5,7.8-8.3,2.5-15.4,7.3-22.5,12.1-7.9,5.4-14.7,11.7-20.3,19.5-.5.7-1.1,1.3-1.9,2.1-.9-1.2-1.7-2.1-2.4-3-8.8-12.6-21-20.9-34.3-27.9-6.6-3.5-13.8-4.9-20.9-6.7-12.2-3-24.5-4.9-37.1-3.3-7.6,1-15.1,2.7-22.6,4.3-11.2,2.3-21.5,6.7-30.7,13.5-3.5,2.3-6.8,4.6-9.9,6.8ZM245.4,339.4c-5-1.8-8.9-5.4-13.3-8.3-2,2.4-3.8,4.9-6,6.9-2.3,2.1-5,3.7-7.4,5.4,8.9-1.2,17.8-2.6,26.7-4ZM746.2,335.1c1.3.2,2.5.3,4.1.6-1.2-2.9-2.7-1.5-4.1-.6Z"/>
      <path class="cls-1" d="M677.2,501.7c0,2.5-.3,5-.4,7.5-.6,9.4-1.1,18.8-1.8,28.2-.2,3.2-1,3.9-4.2,4.4-2.5.4-5,.5-7.5.5-10.9,0-21.7-.2-32.6-.4-1.7,0-3.5-.3-5.2-.5-2.5-.4-3.2-1.1-3.3-3.7,0-2.8,0-5.7-.2-8.5-.5-15.6-.9-31.1-1.4-46.7-.6-17.3-1.4-34.6-1.8-51.9-.4-17.4-.5-34.8-.8-52.3,0-3.5.2-4.1,3.6-4.8,4-.8,8.2-1.6,12.3-1.7,10.2-.1,20.4.2,30.6.3,4,0,8.1-.3,12.1-.5h3.9c.2,1.7.5,3.2.5,4.7-.3,18.3-.5,36.6-.9,54.9-.2,8.4-.6,16.9-.9,25.3-.2,4-.5,8.1-.8,12.3,1.6-.2,2.1-1.4,2.9-2.1,1.6-1.5,3.1-3.1,4.9-4.3,1.6-1.2,2.5-1,3.5.8,1.5,2.7,2.7,5.5,4.5,8.2,0-1.1,0-2.2,0-3.3v-91.1c0-5.1.4-5.8,5.6-6.5,5.6-.7,11.3-1.1,17-1.2,10.1-.1,20.1.3,30.1,1.7q7.1,1,7.1,8.3c0,19.3,0,38.6,0,57.9,0,9.9-.2,19.7-.6,29.6-.6,13.9-1.4,27.8-2.4,41.6-.8,11.1-2,22.2-3.1,33.3-.3,3-.4,3-3.5,3-14.7,0-29.4-.3-44-1.5-3.7-.3-3.8-.3-4-4.1-.7-11.5-1.3-23-1.9-34.4,0-1.4-.2-2.8-.3-5-4.1,4.3-7,8.9-11.4,12.4-2.6-3.1-3.5-6.9-5.6-10.4Z"/>
      <path class="cls-1" d="M341.4,501.2c2.7,3.9,5.3,7.5,7.9,11.2,5.6,7.7,10.7,15.8,15.1,24.2.3.6.7,1.1.9,1.7.9,2.4.6,3.3-1.6,4.5-9.8,5.4-19.9,10.2-30.7,13.3-.4,0-.8.3-1.3.4-4.5,1.3-5.6.8-7.5-3.3-4.2-9-9.8-17.1-16.5-24.4-.8-.9-1.4-1.9-2.2-2.9-.3.2-.5.3-.8.5-.1.7-.3,1.3-.3,2-.1,4.2-.1,8.3-.1,12.5s-.5,3-2.6,3.6c-2.6.7-5.4,1.3-8.1,1.4-8.2.3-16.4.5-24.6.6-4.4,0-8.8-.3-13.1-.3s-4.1-1.5-4.7-3.8c-.9-3.7-1.8-7.5-2.2-11.3-1.1-11.2-2.1-22.5-2.9-33.7-1.2-17.7-2.2-35.4-3.4-53.1-.9-13.5-2-27.1-2.9-40.6-.5-7.6-.5-15.3-1-23-.2-3.1,1.2-5,3.7-6.3,4.6-2.5,9.6-3.7,14.6-4.6,12.7-2.1,25.5-2.9,38.3-1.9,19.3,1.4,36.9,7.6,51.5,20.6,13.3,11.8,21.2,26.6,23,44.4,1.5,14.3.3,28.5-5.1,42-4.5,11.1-11.7,20-22.5,25.7,0,0-.3.2-.9.6ZM304.9,453.5c-.8,4.1-.7,38.3.1,40.9,7.7-.9,14.4-3.7,18.6-10.7,3.9-6.3,4.5-13.2,2.8-20.3-.6-2.5-2-4.6-4-6.3-5.3-4.1-11.1-5.2-17.5-3.6Z"/>
      <path class="cls-1" d="M454.4,459.9c-.2,15.6-.5,30.6-.7,45.6,0,2.1.2,4.2.6,6.2.7,3.4,2.5,4.9,5.9,5.1,3.1.2,5.9-1.2,6.8-4.1.9-2.9,1.4-6,1.5-9,.2-8.3.1-16.7,0-25-.3-20.9-.6-41.9-.9-62.8,0-1.7.1-3.5.3-5.2.4-2.8,1.4-3.9,4.2-4.1,5-.3,10.1-.5,15.1-.5s5,.3,7.5.6c4.4.4,5.7,1.5,5.6,6-.3,13.6-.8,27.2-1.3,40.7-.2,7.2-.6,14.4-.8,21.7-.3,9.6-.2,19.3-.8,28.9-.3,5.8-1.2,11.6-2.6,17.1-3.4,12.9-11.8,21.2-24.3,25.5-9.5,3.3-19.3,3.7-29.2,3.3-7.1-.3-14.2-1.3-20.9-3.8-11.9-4.3-19.4-12.8-23.4-24.5-2.2-6.5-3.3-13.2-3.3-20-.3-21.3-.4-42.5-.7-63.8-.1-6.8-.3-13.6-.4-20.4,0-.7-.1-1.3,0-2,.6-4.9,1.1-5.8,5.7-6.6,7.3-1.3,14.6-1.9,21.9-1.9s17.8.1,26.6.3c1.1,0,2.2.1,3.3.3,4,.7,4.9,1.6,5,5.5.1,8.3.1,16.7,0,25-.2,7.5-.5,15-.7,21.9Z"/>
      <path class="cls-1" d="M525.4,526.9c2.8-.2,5.4-.2,7.8-.6,3.3-.6,6.7-1.2,9.8-2.4,7.4-2.8,7.8-9.2,5.3-14.2-1.3-2.6-3.3-4.9-5.2-7.1-2.1-2.2-4.5-4.2-6.8-6.1-7.1-6.1-13.5-12.8-18-21.2-3.4-6.4-5.1-13.2-5.7-20.4-.7-7.7,0-15.1,2.5-22.3,4.2-12.7,13.3-20.8,25.4-25.9,9.9-4.2,20.3-6,31-6.3,3.8-.1,7.7,0,11.5,0s2.2.1,3.3.3c1.9.3,3.1,1.3,3.5,3.4,1.5,10.1,3.2,20.1,4.5,30.1.7,5.4,1,10.9,1.4,16.3,0,1.1,0,2.2,0,3.3,0,3.1-.6,3.5-3.8,3.3-2.3-.1-4.6-.2-6.9,0-11.2.8-12.5,12.1-9.1,18.3,1.2,2.2,2.9,4.1,4.2,6.2,3.9,5.9,7.4,11.9,8.9,18.9,4.2,19.6-4.3,36.8-23.8,44.2-10.9,4.1-22.3,5.1-33.9,4.7-1.8,0-3.3-.6-3.9-2.4-1.8-6.4-2.8-13-2.1-20.1Z"/>
      <path class="cls-1" d="M137.9,257.8c-1.3-1.9-2.2-3.4-3.3-4.9-1.2-1.7-2.4-3.4-3.8-4.9-1.3-1.4-3-1.9-4.8-1.1-1.7.8-1.8,2.4-1.8,4.2-.2,11.6-.5,23.2-.8,34.8,0,6.1-.2,12.3-.3,18.4v1.6c-.2,2.9-.7,3.4-3.6,3.5-6.2.1-12.5,0-18.7,0-7,.1-14,.2-21,.3h-2.6c-2.6-.2-3.3-.7-3.5-3.4-.2-3.9-.3-7.9-.3-11.8v-48.6c0-16.2,0-32.4,0-48.6v-27.3c0-1.4,0-2.8-1.3-3.8-.3-.3-.2-1.2-.3-2.4,2.3,2.4,4.8,2.3,7.3,2.3,12.6-.2,25.2-.2,37.8-.3,2.4,0,4.8.4,6.9-2.2,0,1.1.3,1.8,0,1.9-1.8,1.8-1.4,3.9-1.3,6.1.3,13,.5,26.1.7,39.1,0,2.2.2,4.4.4,6.6,0,.6.3,1.5.7,1.7,2,1.3,1.5,2.8.6,4.3,2.2,1.8,3.5,2,5,.6,1.5-1.3,2.6-2.7,2.6-5.2.1-2.1,1.9-4.2,2.9-6.1,1.9.3,3.4.6,4.8.9,1.4.2,2.9,1.6,3,3.4.1,2.5,1.6,4.2,3,6s2.8,1.8,5.1.1c-1.1-1.9-1-3.7.6-5.5.8-.9,1.2-2.6,1.2-3.9.2-14.3.2-28.7.3-43,0-1.8.2-3.7-1.3-5.1-.2-.2,0-.8,0-1.3q3.1,1.5,8.5,1.5c9.6.1,19.3.2,28.9.3,3.4,0,6.8-.1,10.2-.3,1.3-.1,2.5-.6,3.9-1,0,.6.2,1.3,0,1.5-1.5,1.1-1.3,2.6-1.3,4.2-.1,21-.3,42.1-.4,63.1,0,1.7-.4,3.6,1.5,4.1-.4,1.6-1,2.9-1,4.1.1,11.8.3,23.6.4,35.5.1,9,.2,17.9.3,26.9v1.3c-.2,3.3-.5,3.6-3.7,3.6-14.2-.2-28.5-.4-42.7-.7-3.1-.1-3.8-.6-3.9-3.9-.1-5.6,0-11.2-.1-16.8-.2-12.6-.4-25.2-.6-37.8,0-1.6-.2-3.2-2-3.7-1.7-.5-3,.3-4.1,1.5-2.2,2.7-4.4,5.5-6.6,8.2-.2.7-.8,1.1-1.7,2Z"/>
      <path class="cls-1" d="M220.9,241.7c-.6-7,.5-13.4,1.8-19.7,1.9-9.6,4.6-18.9,9.8-27.3.9-1.5,1.8-3,3-4.3.7-.8,1.8-1.6,2.7-1.6,1.4,0,2.2-.7,3.1-1.5,2.8-2.7,5.7-5.5,8.6-8.2,4-3.7,8.6-6.3,14-7.4,5.1-1.1,10.2-2.8,15.3-3.5,14.4-1.9,28.6-1.4,42.4,3.6,4.6,1.7,8.8,4,12.6,7,2.8,2.2,5.6,4.5,8.5,6.7.7.5,1.6,1.3,2.2,1.2,2.5-.4,3.6,1.2,4.6,2.9,4.9,8.1,9.5,16.2,11.1,25.8,1,5.9,2.3,11.8,3.1,17.7.4,2.9.1,5.8-.5,8.8-.1-.8-.3-1.6-.4-2.3h-.4c-.9,5.6-1.7,11.3-2.8,16.9-1.9,9.8-4.8,19.3-10.6,27.6-5.6,7.8-12.2,14.6-20.4,19.7-5.1,3.1-10.9,4.4-16.8,5.1-4.9.5-9.8.5-14.7.8-7.8.5-15.5,0-23.1-1.7-4.9-1.1-9.8-2.4-14.5-4-5-1.6-8.8-5.2-12.8-8.4-11.7-9.6-18.1-22.3-21.3-36.7-1.1-5.1-1.6-10.3-2.4-15.5-.4-1.3-.5-2.3-2.1-1.7ZM279,233.5c.2-.9.4-1.8.7-2.7.4,4.1.3,8.2.4,12.3,0,5.3,1,10.5,3.4,15.2,1,1.9,1.5,3.5-.3,5,2.9,4,10.3,5.9,14.3,3.7,2.3-1.2,2.6-2.2,1.1-4.6-.1-.2,0-.4,0-1,2.6-3.5,3.4-7.8,4-12.3.7-5.5.6-11.1.5-16.6,0-.2.2-.4.6-1.1.1.8.2,1.4.3,1.9.3-.2.6-.4.9-.6,0-.9.1-1.9,0-2.8-.4-3-.8-6-1.3-9-.6-3.3-2-6.2-4-8.8-1.5-1.9-3.4-3.1-5.7-3.6-5.7-1.2-10.9,1.6-12.9,7.5-2,5.6-2.9,11.5-2,17.5Z"/>
      <path class="cls-1" d="M871.9,191.4c-1.2-1.8-1.3-3,.2-4.7,1-1.1,1-3.3,1-5,.2-3.7,0-7.4,0-11.1s-.2-1.8-.6-2.5c-.7-1.5-.8-1.5-.3-3.3,1.7,1.5,3.7,1.5,5.8,1.5,10,0,19.9,0,29.9.1,2,0,3.9-.1,5.9-1.8,0,1.1.3,2.2,0,2.4-1.7,1.2-1.3,2.9-1.3,4.5,0,38.7.2,77.4.3,116.1,0,6.1-.2,12.2-.7,18.3-.3,3.6-1.8,4.3-5.4,3.8-3.6-.5-6.6-2.3-9.4-4.4-5.4-4-9.8-9.1-14.4-13.9-7.1-7.6-12.6-16.3-18.1-25-.8-1.3-1.7-2.6-2.6-3.8-.8-1-1.9-1.5-3.2-.9-1.2.5-1.5,1.4-1.5,2.6v21.7c0,4.4,0,8.8-.2,13.1,0,3.3-.6,3.9-3.9,4-9.5.2-19.1.2-28.6.3h-3.6c-2.7-.2-3.5-.9-3.5-3.6-.2-6.2-.4-12.5-.4-18.7-.2-22.8-.2-45.6-.3-68.4,0-13,0-26.1-.2-39.1,0-2,.2-4.2-1.6-5.8-.3-.3,0-1.2,0-2.4,2.9,2.1,5.7,1.6,8.5,1.4,7.9-.3,15.8-.6,23.7-.8,2.6-.1,5.2.2,8,.3,3.9,4.3,6.7,9.5,9.5,14.7,1,1.8,1.9,3.7,2.8,5.6.6,1.2,1.3,2.3.6,3.9-1,1.4.5,2,3.5.9Z"/>
      <path class="cls-1" d="M670.8,295.9c0-.7,0-1.2.2-1.7,5.1-17.5,9.5-35.3,15.9-52.4,6.6-17.4,12.6-35,17.4-53,.5-1.9,1.3-3.7,2.1-5.8,3,2.3,5.5.6,8.1-.5,9.8-4,19.7-8,29.5-11.9,3.2-1.3,6.1-3.4,9.7-3.8,1-.1,1.9-1,3-1.6.5.7.9,1.2,1.3,1.9,4.7,8.3,9.5,16.5,14.1,24.8,2.9,5.3,5.6,10.7,8.1,16.1,7.5,16.4,15.7,32.3,25.9,47.2.9,1.3,1.1,2.5,1.1,4,0,7.3,0,14.7.2,22,0,1.5-.4,2.7-1.4,3.8-6.5,7.4-14,13.8-21.6,20.1-1.1.9-2.2,1.8-3.3,2.7-2.7,1.9-4.5,1.8-6.4-1-2.8-4-5.3-8.3-7.9-12.5-2.1-3.3-4.2-6.6-6.4-9.9-.4-.6-.9-1.2-1.4-1.8-2.3-2.5-4.4-2.5-6.7,0-3.2,3.5-6.3,7-9.4,10.5-.7.8-1.4,1.7-2.2,2.5-1.5,1.6-2.9,1.8-4.6.4-1.5-1.2-2.8-2.7-4.1-4.2-1.9-2.2-3.7-4.6-5.6-6.9-.4-.5-.8-1-1.3-1.5-2.8-2.6-5.5-2.1-7,1.5-1,2.4-1.9,4.9-2.9,7.3-1.7,4.2-2.5,4.7-6.8,4.6-10.6-.1-21.2-.2-31.9-.3-1.7-.1-3.6-.4-5.7-.6ZM729.6,258c1.1,2-1.2,2.6-1.7,4.4,5.2,1.2,10.3,1.2,15.3,1.2s2.4-.4,3.7-.6c-.2-1.9-2.8-2.4-1.5-4.2.7-.1,1.4-.3,2.2-.5-1.5-3.5-2.9-6.7-4.4-9.8-.5-1.1-1-2.2-1.6-3.2-.5-.9-1.1-1.9-1.9-2.6-2.2-2.1-4.6-1.8-5.9.9-2.2,4.5-4,9.2-5.9,13.8,0,.2,0,.6.2.9.5,0,.9,0,1.5-.3Z"/>
      <path class="cls-1" d="M608.1,252.4c-1.6,2.5-1.6,3,.2,4.9,3.9,4.2,10.6,3.7,13.6-1-.5-.7-1.1-1.4-1.6-2,.6-2.3.7-4.9,2-6.6,1.5-1.9,1.3-3.8,1.5-5.8.2-2.2,0-4.4,0-6.6s0-3-1.4-4.1c-.5-.4-.4-1.5-.7-2.8,1.1.4,1.8.5,2.1.9,1.7,1.9,3.8,2.3,6.3,2.2,5.4-.2,10.7-.4,16.1-.4s8.1.4,12.1.5c3.5.1,7.4,1.4,9.7-3.3.2.2.4.5.6.7.2,1.1.4,2.2.6,3.5-1.8.7-2.2,2.1-2.1,3.9,0,3.4,0,6.8,0,10.2,0,8.1-.3,16.2-.4,24.3,0,1.7,0,3.4,1.4,4.8.6.6.6,2.1.4,3.1-.8,3.3-1.7,6.6-2.8,9.8-.4,1.2-1.4,2.2-2.4,3-3.8,3.4-7.8,6.7-11.6,10.2-1.8,1.6-3.3,3.5-5,5.2-1.6,1.6-2.9,1.9-4.5.2-2.3-2.5-4.5-5.1-6.4-7.9-3.6-5.1-4.5-5.5-10.3-3.5-3.6,1.3-7.4,2-11.3,2s-8.8.3-13.1.4c-1.3,0-2.7.1-3.9-.2-4.9-1.5-9.9-2.8-14.6-4.8-2.7-1.1-5.2-2.9-7.3-4.9-3.8-3.6-7.3-7.6-10.8-11.5-6.6-7.5-9.6-16.6-11-26.3-.8-5.2-1.3-10.4-1.9-15.6,0-.5,0-1.3-.3-1.6-2.1-1.8-1.3-4.2-1.1-6.3,1.1-11.7,4.2-22.8,9.3-33.3.6-1.2,1.2-2.4,2-3.4.6-.7,1.6-1.5,2.3-1.4,2,.2,3-1,4.2-2,4.1-3.4,8-7.2,12.5-10.2,10.6-7.1,22.7-9.7,35.3-9.4,8.1.2,16.2,1.1,24,3.5,5,1.5,9.6,3.8,13.6,7.1,1.1.9,2.1,1.7,3.8.9,1.5-.7,2.1.6,2.4,2.1-4.4,1.1-6.3,5.1-8.9,8.2-6,7-11.8,14.1-17.6,21.2-2.8,3.3-3.1,3.4-6.8,1.2-1.8-1.1-3.5-2.2-5.5-3-6.1-2.4-13.4-1.5-17,7-1.7,3.9-2.1,8-2.1,12.2v7.2c0,1.8-.5,3.8,1.6,5,.2.1.3.6.3.9.4,2,.7,4.1,1.3,6.1,1,1.6,2.1,3.5,3.1,5.5Z"/>
      <path class="cls-1" d="M379.3,167.1c.9,0,1.5-.2,1.7,0,3.5,2.5,7.4.9,11.2,1,1.6.1,3.3-.3,4.9-.3,11.7.1,23.4.2,35.2.4,2.4,0,4.6,0,6.4-1.8.5-.4,1.4-.4,2.4-.7.2,2.5.6,4.6.6,6.8v88.4c0,.3-.1.7-.1,1.2-1,.7-2.1,1.5-3.5,2.5.7.6,1.2,1.4,1.8,1.5,1.4.4,2.8.6,4.2.6,8.3.1,16.6.2,25,.3,1.9,0,3.7-.1,5.2-1.4.7-.5,1.7-.6,3-1.1.3,3.6.7,6.8.6,9.9-.1,8-.5,16-.7,24-.1,2.2-.1,4.4,0,6.6.2,4.7-1.2,6.2-5.8,6.2-16.4,0-32.9-.1-49.3,0-11.5.1-23,.4-34.5.6-1.5,0-3.1,0-4.6-.3-2.4-.5-3.5-1.8-3.8-4.3-.1-1.1-.1-2.2-.1-3.3v-132.2c-.1-1.3,0-2.8.2-4.6Z"/>
      <path class="cls-1" d="M488.7,202.4c2.1,3,4.8,3,7.6,3,9.9,0,19.7.2,29.6.5,2.7.1,4.1-1.5,6.2-3,1,2,1.1,4.1,1.1,6.1,0,12.2,0,24.3,0,36.6-.3,0-1,0-1,.1-.2.6-.3,1.3-.3,1.9,0,5.1,0,10.2,0,15.4s0,12.4,0,18.6,0,9.8,0,14.8c0,3.1-.2,6.1-.4,9.2-.2,2.8-1.6,3.9-4.3,3.9-10.4-.1-20.8-.1-31.2-.1s-5.6-1.2-5.8-5.6c-.1-3.9-.1-7.9-.1-11.8v-62.6c0-6.1-.1-12.2-.2-18.4,0-1.3,0-2.3-1.3-3.3-1.3-1.2-.8-3.2.2-5.3ZM531.7,236.3c.2,0,.4.1.7.1.5-5.1.4-8.6-.7-10.9v10.8ZM532.3,239h-.5c0,1.1,0,2.2.2,3.3h.3v-3.3ZM532.4,218.8h-.3v3.4h.3v-3.4Z"/>
      <path class="cls-1" d="M487.5,163.9c1.1.6,1.9.7,2.2,1.2,1.8,2,4.1,2,6.6,2,9.4-.1,18.8,0,28.2.1,2.6,0,5-.1,6.9-2.2.2-.3.7-.3,1.5-.6,0,3.5.8,6.9,0,9.9-1.1,4.1-.4,8.2-1.3,12.2-.8,3.5-1.3,4-5,3.9-10.1-.1-20.1-.1-30.2-.1h-3c-2.5-.1-2.8-.5-3.2-3.1-.7-5.2-.8-10.4-.1-15.7.3-2,.1-3.9-1.9-5.2-.2-.3-.3-1.2-.7-2.4Z"/>
      <path class="cls-1" d="M716.3,638.9c9.3.3,18.4,1.4,27.2,4.6,18.9,6.9,31.6,20,38.4,38.8,4.2,11.4,5,23.2,4.2,35.3-.7,8.9-2,17.6-4.9,26-4.4,12.6-10.6,24-20.6,33.1-11.3,10.3-24.5,16-39.8,16.7-10.8.5-21.5-.3-31.7-4.2-18.3-7-30.9-19.9-38.3-37.9-3.7-9-5.7-18.3-6.6-28-.9-9.5-1-19,.9-28.4,5.5-28.5,25-48.7,54.3-54.1,5.5-1.1,11.2-1.3,16.9-1.9ZM738.4,730.9c-.7-4.4-1-8.9-2.1-13.2-1.8-7.2-6.3-12-13.8-13.9-5.6-1.5-11.1-1.1-16.5.3-7.2,1.9-11.7,6.6-13.6,13.7-2.1,7.9-2,15.8-.5,23.8,1.2,6.6,3.4,12.9,7.7,18.2,6.9,8.4,18.4,9.8,26.6,3.2,4.5-3.7,7.3-8.4,8.9-13.9,1.9-6,3.1-12,3.3-18.2Z"/>
      <path class="cls-1" d="M471,712.7c0-11.6,1.6-22.9,6.4-33.6,9.6-21.5,26.3-33.9,49.1-38.4,11.3-2.2,22.7-2.3,34,0,22.6,4.5,38.7,17.1,47.7,38.4,3.5,8.1,5,16.7,5.5,25.5,1,17.4-1.8,34-9.4,49.7-7,14.7-17.3,26.2-32.3,33.3-7.6,3.6-15.6,5.6-24.1,5.8-8.8.3-17.5,0-26-2.5-20-5.8-34-18.4-42.5-37.2-4-8.7-6.5-17.9-7.3-27.5-.6-4.4-.8-8.9-1.1-13.4ZM565.5,730.3c.4-4.4-.6-9.2-2-14-2-6.5-6.3-10.8-13-12.7-5.7-1.5-11.2-1.3-16.9.2-7.1,1.8-11.6,6.3-13.5,13.3-2.3,8.3-2.3,16.7-.6,25,1.3,6.5,3.5,12.6,7.9,17.8,6.7,7.8,17.9,9.7,26.1,3,4.1-3.3,7-7.6,8.7-12.5,2.1-6.2,3.5-12.7,3.3-20.1Z"/>
      <path class="cls-1" d="M261.2,792.9c-18.5.7-36.9,0-55.6-1.1-.2-1-.5-1.9-.6-2.9-.6-8.5-1.1-17-1.6-25.6-.5-8.3-1.2-16.6-1.7-24.9-.4-6.7-.6-13.3-.9-20-.4-10.2-.9-20.3-1.2-30.5-.3-13.6-.5-27.2-.7-40.7,0-.8.1-1.5.1-2.7,22.1-1.4,44-1,66.4.7-1.3,49.3-2.7,98.3-4.2,147.7Z"/>
      <path class="cls-1" d="M452.8,715.7c0,3.5-.1,7.7,0,12,.4,21.1-3.4,41.2-13.4,59.9-9,16.7-22,29.5-39.9,36.4-15.9,6.2-32.4,7.2-49.1,3.3-32.6-7.5-51.7-28.6-60.6-60-3.8-13.6-5.1-27.5-4.1-41.6.3-4.7-.4-9.4-.3-14.1.3-16,3.6-31.4,11.7-45.3,10.9-18.8,27-30.7,48-36.2,17.7-4.6,35.3-4.6,52.8.7,24.7,7.5,41.1,24,49.6,48.2,4.1,11.6,5.8,23.6,5.3,36.7ZM447.8,710c.2-7-.7-15.2-2.9-23.2-6.9-25.2-22.4-42.6-47.6-50.5-14.2-4.4-28.7-4.9-43.3-2.2-30.6,5.7-50.7,23.4-59,53.5-5.5,20.1-3.9,40.2,2.4,59.9,4.2,13.3,11.3,24.9,21.8,34.2,12.6,11.2,27.6,16.8,44.2,18,13.7,1,26.9-.7,39.4-6.8,16.2-7.9,27.3-20.6,34.9-36.6,6.9-14.1,10-29.3,10.1-46.3Z"/>
      <path class="cls-1" d="M637.9,727.5c.4,2.2.7,4.5,1.2,6.7,2.6,13.6,7.4,26.3,15.9,37.5,11.1,14.6,25.9,23.4,43.8,26.9,13,2.5,26,2.4,38.7-1.4,17.5-5.2,30.7-16,40.3-31.3,7.5-11.9,11.7-24.9,13.8-38.7,0-.5.2-1,.6-1.6.2.7.5,1.4.5,2.1,1.1,24.1-3.6,46.7-17.8,66.7-12.4,17.5-29.4,27.5-50.9,29.5-17,1.6-33.2-1-48.2-9.5-15.7-9-26.1-22.5-32.3-39.3-5.7-15.4-7.2-31.3-6.3-47.5.3-.1.5-.1.7-.1Z"/>
      <path class="cls-1" d="M465.2,726.6c.6,3.3,1,5.9,1.5,8.6,3,15.3,9,29.3,19.5,41.1,10.8,12,24.3,19.3,40,22.3,13.8,2.6,27.5,2.4,40.9-2.1,17.9-5.9,30.9-17.8,40.2-34,5.9-10.3,9.5-21.4,11.4-33.1.2-1.5.5-3,1.3-4.5.2,2.8.5,5.5.5,8.3,0,18.4-3.5,36-12.3,52.2-9.2,16.8-22.2,29.5-40.8,35.1-25.2,7.6-49.3,4.7-71-10.8-13.4-9.6-21.7-23-26.7-38.5-4.5-14-5.8-28.5-4.8-43.2-.1-.3,0-.5.3-1.4Z"/>
      <path class="cls-1" d="M192.8,680.1c.4,9.7.6,19.5,1.1,29.2,1.1,21.4,2.4,42.9,3.7,64.3.4,6.1.8,12.2,1.3,18.4.1,1.1.4,2.2.7,3.2.6,1.7,1.8,2.7,3.6,2.9,1.3.2,2.6.4,3.9.4,9.9.4,19.7.8,29.6,1,8.8,0,17.5,0,26.3,0,1.7,0,3.5-.7,5.4-1.1v5.1c0,5.2,0,10.3-.1,15.5-.1,3.8-.9,4.6-4.7,4.7-17.8.4-35.5.2-53.2-.8-2.2,0-4.4-.3-6.6-.5-2.6-.3-4-1.4-4.6-4-.4-1.8-.6-3.7-.7-5.5-1.3-20.7-2.8-41.3-3.7-62-1-23.1-1.4-46.2-2.1-69.3v-1.3c0-.1,0-.1.1-.1Z"/>
      <path class="cls-1" d="M729.9,742.1c-.3-.5-.6-1.1-.9-1.6-1.9-4-5.2-6.4-9.5-6.7-3.6-.3-7.2,0-10.8.4-4,.5-7.1,2.8-8.9,6.5-.2.4-.5.8-1.4,1.2-.3-2.2-.8-4.4-.8-6.6,0-4.8,0-9.7.7-14.4,1.1-6.7,4.6-9.9,11.3-11,2.7-.4,5.5-.6,8.2-.4,7,.5,11.1,4,12.6,10.8.7,3,1,6.1,1,9.1s-.4,8.5-.7,12.7c-.2,0-.5,0-.8,0Z"/>
      <path class="cls-1" d="M557.7,742.4c-.7-1.1-1.1-1.7-1.4-2.3-1.9-3.7-5-6-9-6.4-3.8-.3-7.7,0-11.4.4-4,.5-7,3-8.7,6.7-.2.4-.4.7-.9,1.5-.3-1.1-.5-1.7-.6-2.4-1-6-1.1-12,0-18,1.3-7.9,5.3-11.8,13.3-12.6,2.8-.3,5.7-.2,8.5.2,5.3.7,8.6,4,10.2,9,1.3,3.9,1.5,8,1.5,12,0,3.9-.3,7.6-1.4,11.9Z"/>
      <path class="cls-1" d="M441.2,710.1c.4,19.2-4.2,37-14.5,53.1-9.9,15.5-23.8,25.7-42,29-18.1,3.2-35.6,1.2-51.7-8.5-12.4-7.4-20.9-18.1-26.7-31.2-4.7-10.7-6.9-21.8-7.4-33.4-.4-8.3-.5-16.6,1.3-24.8,5.7-26.5,21.2-44.2,47.3-52.1,9.4-2.9,19.2-3.2,29-2.8,10.8.4,21,2.9,30.6,7.9,14.9,7.8,24.5,20.1,30.2,35.8,3,8.8,4.2,17.8,3.9,27ZM393,730.6c.2-4.5-.5-9.1-1.8-13.7-1.9-6.9-6.4-11.2-13.3-13.2-5.9-1.6-11.7-1.2-17.5.4-6.6,1.9-11,6.1-12.8,12.8-2.5,8.9-2.2,17.7-.3,26.6,1.3,5.7,3.2,11.1,6.9,15.8,8.4,10.6,22.7,10,30.5,0,2.4-3.2,4.4-6.6,5.5-10.4,1.7-5.8,2.9-11.8,2.8-18.3Z"/>
      <path class="cls-1" d="M384.9,742.7c-2.8-7.4-8.2-9.6-14.9-9.3-2.1,0-4.1.3-6.2.6-4.1.7-7.3,2.9-9.1,6.7-.2.4-.4.7-1.3,1-.4-2.5-1-5-1-7.5,0-4.1.1-8.3.6-12.4,1-7.4,4.7-11,12.1-12.2,3.6-.6,7.2-.7,10.8.2,4,1,7,3.3,8.4,7.1,1,2.7,1.7,5.7,2,8.6.6,5.1.3,10.3-.6,15.4,0,.4-.4.7-.8,1.8Z"/>
    </g>
  </g>
</svg>