<?xml version="1.0" encoding="UTF-8"?> <svg xmlns="http://www.w3.org/2000/svg" xmlns:xlink="http://www.w3.org/1999/xlink" version="1.1" id="Layer_1" x="0px" y="0px" viewBox="0 0 1000 1000" style="enable-background:new 0 0 1000 1000;" xml:space="preserve"> <polygon style="fill:#FFFFFF;" points="157.9,442 157.9,476.1 171.5,476.1 171.5,554.4 157.9,554.4 157.9,589.6 262.4,582.8 262.4,547.6 210.1,549.9 210.1,531.7 221.5,531.7 221.5,537.7 245.7,537.7 245.7,492.3 220.4,492.3 220.4,497.3 210.1,497.3 210.1,475.7 232.8,475.7 232.8,481.4 265,481.4 265,442 "></polygon> <polygon style="fill:#FFFFFF;" points="282.8,442 282.8,474.2 291.1,474.2 291.1,551 282.8,551 282.8,580.9 339.9,580.9 339.9,550.6 327.8,550.6 327.8,522.6 368.3,577.9 414.9,577.9 414.9,548 406.2,548 406.2,473.4 414.9,473.4 414.9,442 360.4,442 360.4,474.2 368.3,474.2 368.3,501.8 331.6,442 "></polygon> <polygon style="fill:#FFFFFF;" points="589.7,442 589.7,473.4 598.4,473.4 598.4,548 589.7,548 589.7,576 692.6,576 692.6,542.3 662.4,542.3 662.4,550.6 636.2,550.6 636.2,473.4 645.3,473.4 645.3,442 "></polygon> <polygon style="fill:#FFFFFF;" points="686.9,442 686.9,484.4 720.6,484.4 720.6,473.8 729.3,473.8 729.3,550.2 720.6,550.2 720.6,580.1 775.5,580.1 775.5,549.9 768.3,549.9 768.3,472.3 775.5,472.3 775.5,482.1 807.7,482.1 807.7,440.1 "></polygon> <polygon style="fill:#FFFFFF;" points="823.9,440.1 823.9,474.9 837.6,474.9 882.6,523 882.6,556.3 874.3,556.3 874.3,589.6 930.3,596 930.3,560.4 923.1,560.4 920.4,523 966.2,478 978.7,478 978.7,442 914,442 914,474.2 919.7,474.2 901.3,493.1 883.7,474.6 892.4,474.6 892.4,442 "></polygon> <polygon style="fill:#FFFFFF;" points="172.3,636.2 157.9,649.3 157.9,710.2 172.3,722.1 209.9,722.1 223.1,708.9 223.1,691.2 201.5,691.2 201.5,703.8 184.6,703.8 180.4,699.5 180.4,660.7 184.8,656.3 200.6,656.3 200.6,670.2 223.1,670.2 223.1,651.9 208.2,637.1 "></polygon> <polygon style="fill:#FFFFFF;" points="238.4,637.4 238.4,656.7 244.8,656.7 244.8,703.3 238.4,703.3 238.4,722.1 273.8,722.1 273.8,703.5 268.1,703.5 268.1,689 285.7,689 285.7,703.8 280,703.8 280,722.1 314.2,722.1 314.2,703.8 308.5,703.8 308.5,655.3 314.2,655.3 314.2,637.4 281.9,637.4 281.9,655.3 288.3,655.3 288.3,667.6 268.4,667.6 268.4,656.2 273.8,656.2 273.8,637.4 "></polygon> <polygon style="fill:#FFFFFF;" points="427.4,636.1 427.4,656.4 436,656.4 436,703.5 428.4,703.5 428.4,722.1 463.8,722.1 463.8,703.3 457.2,703.3 457.2,681.7 475.2,709.7 480.7,709.7 495.2,679.8 495.2,704.5 491.2,704.5 491.2,722.1 525.4,722.1 525.4,704 518,704 518,659.3 518,653.8 525.4,653.8 525.4,637.4 498.8,637.4 478.1,666.2 456.4,636.2 "></polygon> <polygon style="fill:#FFFFFF;" points="622.2,636.1 622.2,657.4 628.4,657.4 628.4,704 622.2,704 622.2,722.1 657.1,722.1 657.1,703.8 651,703.8 651,656.7 655.7,656.7 655.7,636.1 "></polygon> <polyline style="fill:#FFFFFF;" points="805.1,657.4 805.1,676.7 781.5,636.1 751.8,636.1 751.8,656.9 758.2,656.9 758.2,704 751.6,704 751.6,722.6 788.4,722.6 788.4,704 780.6,704 780.6,681.4 803.9,722.1 834.3,722.1 834.3,701.9 827.9,701.9 827.9,657.2 834.3,657.2 834.3,637.2 799.3,637.2 799.3,657.5 "></polyline> <path style="fill:#FFFFFF;" d="M723.3,636.1H685L670.7,651v58.3l13.3,13.3h40.9l12.4-13.1v-60.2L723.3,636.1z M714.9,704h-20.2 l0.3-49.5h19.9V704z"></path> <path style="fill:#FFFFFF;" d="M592.7,636.1H539v19.2h5.9v48.5H539v18.3h35.2v-18.3h-5v-15.2h24.5l14-11.9v-24.7L592.7,636.1z M582.5,666.4h-13.6v-11.9h13.6V666.4z"></path> <path style="fill:#FFFFFF;" d="M410.6,703.5l-21.4-46.8h7.1v-19.3h-47.8v20.7h5.5l-20,44.2h-4.8v19.7h32.6v-18.8h-4l2.1-5.2h25.9 l3.1,5H383v19h33.3v-18.5H410.6z M364.5,683.1l8.2-14.4l8.4,14.4H364.5z"></path> <path style="fill:#FFFFFF;" d="M120.5,442H33v34.1h11.4v88.5H33v38.6l60.2-4.5v-38.3H81.9v-24.1h39.7l18.2-22.7v-50L120.5,442z M101.9,498.4l-6.1,3.4H79.2v-25v-3h18.2l4.5,6.8V498.4z"></path> <path style="fill:#FFFFFF;" d="M567.4,547.6l-34.1-73h7.2V442h-77.2v32.5h9.5l-29.9,71.9h-10.6v31.1h55.6v-29.9h-7.6l3.8-7.6h37.5 l5.3,6.1h-8.3v31.4h56.4v-29.9H567.4z M495.5,515.8l5.3-17.4h5.3l6.1,17.4H495.5z"></path> <polygon style="fill:#FFFFFF;" points="449.3,388.7 498.5,350.8 557.5,388.7 543.9,428.8 465.7,428.8 "></polygon> <polygon style="fill:#FFFFFF;" points="472.8,273.6 453.8,289.5 495.5,300.9 546.2,290.3 532.6,273.6 "></polygon> <polygon style="fill:#FFFFFF;" points="607.7,326.6 607.7,372 639.7,409.1 653.6,389.8 634,337.2 "></polygon> <path style="fill:#FFFFFF;" d="M396.3,331.9v46.9l-27.2,36.3L353.9,400C353.9,400,354.7,344.8,396.3,331.9z"></path> </svg> 