<?xml version="1.0" encoding="UTF-8"?> <svg xmlns="http://www.w3.org/2000/svg" xmlns:xlink="http://www.w3.org/1999/xlink" version="1.1" id="Layer_1" x="0px" y="0px" viewBox="0 0 1000 1000" style="enable-background:new 0 0 1000 1000;" xml:space="preserve"> <g> <g> <path style="fill:#FDC440;" d="M534.1,496.1c3.4,25,10,48.4,19.6,71.6c-19.2-4.5-38.2-4.5-57.5,0c9.7-23.1,16.2-46.7,19.7-71.5 c-3.4,2.7-6.3,5.3-9.4,7.6c-39.4,28.4-95.2,5.7-102.7-42.1c-5.5-35.2,5.1-65.4,31.9-89.3c15.2-13.6,30.9-26.7,46.2-40.2 c13.5-12,26.4-24.6,36.6-39.7c2.3-3.4,4.3-6.9,6-9.8c4.7,6.8,9.1,14.2,14.4,20.8c9.8,12.4,21.6,23,33.6,33.2 c14.1,12.1,28.3,24.2,42.4,36.2c18.7,16,28.8,36.6,32,60.7c2.3,17.2,0.9,34.1-8.1,49.3c-13.9,23.6-35.2,34.4-62.5,32.8 c-15.5-0.9-28.8-7.4-40.1-17.9C535.7,497.4,535.2,497,534.1,496.1z"></path> <path style="fill:#FDC440;" d="M296.3,569.7c-4.5,0.6-8.9,1.1-13.8,1.8c0-1.2,0-2.2,0-3.1c0-136.2,0-272.3,0-408.5 c0-28.2,21.4-49.6,49.5-49.6c128.4,0,256.8,0,385.2,0c15.5,0,28.4,5.9,38.4,17.8c8.1,9.6,11.3,20.9,11.3,33.4 c0,67,0,134.1,0,201.1c0,46,0,9.4,0,55.4c0,2.1-0.6,3.5-2.2,4.9c-3.7,3-7.3,6.2-11.6,9.8c0-1.8,0-3,0-4.1c0-116.9,0-151.3,0-268.2 c0-16.6-9.8-30.3-25.2-34.8c-3-0.9-6.3-1.4-9.4-1.4c-129.3-0.1-258.6-0.1-388,0c-18.6,0-34.3,15.8-34.3,34.5 c0,135.8,0,271.6,0,407.4C296.3,567,296.3,568.2,296.3,569.7z"></path> <path style="fill:#FDC440;" d="M221.9,589.7c-2.3-8.4-4.5-16.5-6.7-24.7c-12.7-47.4-25.4-94.8-38.2-142.2 c-10.7-39.8-21.3-79.5-31.9-119.3c-1.9-7-4.1-14.1-4.9-21.2c-2.8-23.7,12.3-45.7,35.5-52c26.4-7.2,52.8-14.2,79.3-21.3 c3.1-0.8,6-0.8,8.2,1.8c1.7,2,2.2,4.4,1.2,6.9s-2.9,3.7-5.5,4.4c-26.3,7-52.7,14.1-79,21.2c-19.1,5.1-30.3,23.9-25.3,43 c15.8,59.4,31.8,118.7,47.7,178.1c9.9,37,19.8,74.1,29.7,111.2c0.6,2.4,1.2,4.8,1.9,7.1c0.4,1.2,0.3,2-1.1,2.5 C229.5,586.5,225.9,588.1,221.9,589.7z"></path> <path style="fill:#FDC440;" d="M340.5,221.2c2.9,5.4,8,9,12.5,13c3.4,3,6.8,5.8,8.1,10.6c1.7,6.2,0.7,11.7-3.4,15 c-4.4,3.5-9,3.5-15.8-0.3c1.1,4.1,2,7.8,3,11.6c-3.1,0-6.1,0-9.4,0c1-3.8,2-7.5,3.1-11.7c-3.6,2.3-6.8,3.7-10.5,3 c-7.3-1.4-11.3-9-9.1-16.5c1.5-5.2,4.9-8.5,8.7-11.8c2.3-1.9,4.6-3.8,6.8-6C336.7,225.9,338.5,223.5,340.5,221.2z"></path> <path style="fill:#FDC440;" d="M229.5,379.1c-3.1,0.8-6,1.6-9.2,2.5c0-3.8,0-7.6,0-11.7c-2.1,1.5-3.6,3.1-5.5,3.9 c-8.3,3.6-16.3-1.8-17-11.3c-0.3-4.3,0.8-8.3,3.3-11.8c2.1-3,4.2-5.9,6.1-9.1c1.8-2.9,3.2-6.1,4.9-9.3c5.6,5.4,13.3,7.6,20.2,11.5 c5.5,3,8.3,7.9,8.6,14c0.5,7.6-7.1,13.5-14.6,11.6c-0.8-0.2-1.5-0.5-3.1-1C225.6,372.4,227.5,375.8,229.5,379.1z"></path> <path style="fill:#FDC440;" d="M343.1,149.7c4.9,13.2,9.7,26.4,14.5,39.5c0.5,1.3,1.1,2.5,1.5,3.8c1.3,3.7,3.2,6.6,7.7,6.5 c0,1.2,0,2.1,0,3.1c-7.6,0-15.1,0-22.8,0c0-0.9,0-1.9,0-2.9c0.7-0.2,1.4-0.3,2.1-0.5c1.8-0.5,2.6-1.6,2-3.5c-1-2.9-2-5.9-3.1-8.7 c-0.2-0.6-1.3-1.2-2-1.2c-3.9-0.1-7.8-0.1-11.8,0c-0.8,0-1.9,0.9-2.2,1.6c-1,2.3-1.8,4.8-2.5,7.2c-0.8,2.8-0.3,3.8,2.7,4.4 c2.1,0.4,2.9,1.2,2.1,3.5c-5.8,0-11.7,0-17.7,0c0-1,0-1.8,0-3.1c5.6,0.3,7.1-3.8,8.7-7.9c5-12.7,10.2-25.3,15.1-38 C338.6,150.9,340.1,149.6,343.1,149.7z M331.1,181.1c4.1,0,7.8,0,11.9,0c-1.9-5.5-3.7-10.8-5.5-16.1c-0.2,0-0.4,0-0.6,0 C335.1,170.3,333.2,175.5,331.1,181.1z"></path> <path style="fill:#FDC440;" d="M205.6,260.9c0.3,1.1,0.5,1.9,0.7,2.6c-0.1,0.2-0.2,0.4-0.3,0.5c-5,2.4-5.1,2.6-3.8,7.9 c2.8,10.8,5.8,21.6,8.4,32.5c2.4,10-1.5,19.2-9.8,24.5c-0.5,0.3-1.1,0.6-1.8,1c-0.6-0.8-1.2-1.6-2-2.6c6.3-4.6,5.3-10.9,3.8-17 c-2.9-12-6.1-24-9.4-35.9c-1.3-4.8-2.1-5.1-8.2-4.4c-0.2-0.9-0.5-1.8-0.8-2.8C190.2,264.9,197.8,262.9,205.6,260.9z"></path> <path style="fill:#FDC440;" d="M120.2,646.6h-37v-24.3h105.4v24.3h-37v101.7h-31.5L120.2,646.6L120.2,646.6z"></path> <path style="fill:#FDC440;" d="M215.3,737.2c-10.4-8.7-15.5-21-15.5-36.9v-78h31.5v75.1c0,8.7,2.2,15.3,6.7,19.6 s11.1,6.5,19.7,6.5c8.6,0,15.2-2.2,19.7-6.5s6.7-10.8,6.7-19.6v-75.1h31.5v78c0,15.9-5.2,28.2-15.5,36.9 c-10.4,8.7-24.5,13-42.3,13C239.8,750.2,225.7,745.9,215.3,737.2z M226,587.2h23.1v21.3H226V587.2z M266.3,587.2h23.1v21.3h-23.1 V587.2z"></path> <path style="fill:#FDC440;" d="M334.5,622.2h63c14.5,0,25.3,3.8,32.6,11.4c7.2,7.6,10.9,18.2,10.9,31.8c0,8.5-2.1,15.9-6.4,22.3 c-4.2,6.4-10.1,11.1-17.7,14.3c1.7,1.4,3.1,3,4.2,4.7s2.4,4.2,3.8,7.4l14.9,34h-32.9l-14.1-32c-1.2-2.9-2.7-4.9-4.5-6.1 c-1.8-1.2-4.4-1.8-7.8-1.8H366v39.9h-31.5V622.2z M389.3,684.1c6.3,0,11.1-1.6,14.5-4.7c3.4-3.1,5.1-7.8,5.1-13.9 c0-12.6-6.1-19-18.2-19h-24.6V684L389.3,684.1L389.3,684.1z"></path> <path style="fill:#FDC440;" d="M457,622.2h31.5v48.9l43.4-48.9h36l-45,51.4l47.7,74.5H537l-33.6-54.4L488.5,710V748H457L457,622.2 L457,622.2z"></path> <path style="fill:#FDC440;" d="M97.6,768.8h37.2c13.4,0,23.5,3.4,30.2,10.3c6.7,6.8,10.1,17.9,10.1,33.2c0,14.5-3.4,25.2-10.1,32 c-6.7,6.9-16.8,10.3-30.2,10.3H97.6V768.8z M131.8,838.1c5,0,9-0.7,12-2.1c3-1.4,5.3-4,6.9-7.7c1.6-3.7,2.4-9.1,2.4-16 c0-7-0.7-12.5-2.2-16.3c-1.5-3.9-3.7-6.6-6.8-8.2c-3.1-1.6-7.2-2.4-12.3-2.4H119v52.8L131.8,838.1L131.8,838.1z"></path> <path style="fill:#FDC440;" d="M185.9,768.8h63.3v16.5h-41.8v18h36.9V820h-36.9v18h41.8v16.5h-63.3V768.8z"></path> <path style="fill:#FDC440;" d="M289.5,768.8h23.2l32.8,85.8h-22.4l-7.7-19.4h-28.6l-7.6,19.4h-22.4L289.5,768.8z M312.5,819.2 L301,789.5l-11.3,29.8H312.5z"></path> <path style="fill:#FDC440;" d="M356.4,768.8h21.4V838h40.5v16.5h-61.9V768.8z"></path> <path style="fill:#FDC440;" d="M424.6,768.8h63.3v16.5h-41.8v18H483V820h-36.9v18h41.8v16.5h-63.3V768.8z"></path> <path style="fill:#FDC440;" d="M498.1,768.8H541c9.9,0,17.2,2.6,22.2,7.8c4.9,5.2,7.4,12.4,7.4,21.6c0,5.8-1.4,10.8-4.3,15.2 c-2.9,4.4-6.9,7.6-12.1,9.7c1.2,1,2.1,2,2.9,3.2c0.8,1.2,1.6,2.8,2.6,5.1l10.1,23.2h-22.4l-9.6-21.9c-0.8-2-1.8-3.3-3.1-4.1 c-1.2-0.8-3-1.2-5.3-1.2h-9.9v27.2h-21.4L498.1,768.8L498.1,768.8z M535.4,810.9c4.3,0,7.5-1.1,9.9-3.2c2.3-2.1,3.5-5.3,3.5-9.5 c0-8.6-4.1-12.9-12.4-12.9h-16.8v25.6L535.4,810.9L535.4,810.9z"></path> </g> <g> <path style="fill:#FDC440;" d="M916.8,430.5l-30,11.7c-37.2,15.8-69.9,38.7-98.1,68.6c-28.3,29.9-48.7,59.4-61.4,88.3 c8-3.3,15.2-5.8,21.7-7.3c6.5-1.6,14.4-2.3,23.7-2.3c21.6,0,41.2,6.6,58.8,19.7c27.1,20.3,40.7,52.7,40.7,97.5 c0,50.5-16.6,93.6-49.9,129.4c-33.3,35.7-72.6,53.6-118,53.6c-27.4,0-51.4-7.9-72.1-23.7c-32-24.7-48.1-65.4-48.1-122.2 c0-68.1,24.1-132.1,72.4-191.9c60.3-75,145.9-120.9,256.7-137.9L916.8,430.5z M738.3,842.8c6.2-9.6,12.9-25.1,20-46.7 c6.2-19.4,11.6-38.2,16.3-56.4c8.2-32.7,12.3-57.5,12.3-74.4c0-12-1.8-21.5-5.3-28.4c-6.4-13.1-18.6-19.7-36.6-19.7 c-13.8,0-22.9,1.8-27.3,5.5c-4.4,3.7-9,11.1-13.6,22.2c-12.4,30.9-21.6,56.9-27.6,77.8c-10,35.4-15,67.9-15,97.5 c0,12.7,2.8,23.6,8.5,32.7c5.7,9.1,15.6,13.7,29.8,13.7C715,866.5,727.9,858.7,738.3,842.8z"></path> </g> </g> </svg> 