<?xml version="1.0" encoding="UTF-8"?>
<svg id="Layer_1" xmlns="http://www.w3.org/2000/svg" version="1.1" viewBox="0 0 1000 1000">
  <!-- Generator: Adobe Illustrator 29.1.0, SVG Export Plug-In . SVG Version: 2.1.0 Build 142)  -->
  <rect x="209.5" y="638" width=".9" height="33.8" style="fill: #f7cf57;"/>
  <g>
    <path d="M509.6,510.1c28.8,3.4,33.2,42.9,22.8,64.1-1.8,3.7-8.7,11-8.6,14.1.1,4.4,5.7,6.2,8.3,8.9,18.3,18.9,15.2,77.9-16.7,81.1-11.8,1.2-30.8.9-43.2.9s-6.8-1.7-10.2-.9v-168.3c15,1.3,32.9-1.7,47.6,0ZM493.5,547.8c-8.1,1.8-6.6,26.1-3.2,28.7,2.2,1.7,13.6,1.1,16.7.1,11.1-3.6,11.7-23.5.4-27.8-3.6-1.4-10.2-1.9-13.9-1ZM518.4,640.5c6.5-6.5,4.5-21.5-5-24.6-3.8-1.3-16.2-1.7-20.1-1-7.9,1.5-6.4,22.6-3,27.9,7,1.1,22.7,3.1,28.1-2.3ZM527,656.3c-3,1-1.3,6.2.8,6.4,4.3.4,5-8.4-.8-6.4Z" style="fill: #f7cf57;"/>
    <path d="M432.2,678.3h-27.4l-17.7-54.4c-3.7-5.5-16.4-3.7-16.4,2.9v50.5l-26-1v-162.5c8.5-.5,17-.6,25.5-1,22.8-1.1,38.5-5.1,51,18.3,10.9,20.3,11.2,46.8-.7,66.6-2.9,4.8-8.5,8.4-7.5,14.6l19.3,65.9ZM376.2,549.7c-3.5.8-4.9,3.8-5.4,7.1-.6,4.5-.7,23,1.4,26.3,3.4,5.2,18.2,3.1,23.2.3,9.8-5.6,10.5-23.2,1.7-30-4.9-3.8-15.1-4.9-20.9-3.6Z" style="fill: #f7cf57;"/>
    <path d="M689.9,514.9c30.4,3.4,63.9-4.4,79,29.2,6.7,15,7.1,34.9-.7,49.6-2.3,4.3-11.1,13.3-10.9,16.8l19.2,60.2-26.9,1.5-17.8-49.6c-2.5-4.8-15.8-3.6-15.8,1.4v49.5l-26,1v-159.6ZM719.4,552.5c-1.1.3-1.9,1.4-2.5,2.3-1.6,2.8-1.6,21.7-1.1,25.9.3,2.2,1.3,5.4,3.6,6s9.9,1.1,11.3,1.1c21.7-.2,24-30.9,4.2-34.9-3.4-.7-12.5-1.3-15.5-.4ZM700.2,610.2c-5.8.8-4.8,10.2,1.5,9.3,5.8-.8,4.8-10.2-1.5-9.3Z" style="fill: #f7cf57;"/>
    <path d="M252.4,672.5l-25-1.9c-.1-21,.2-42,0-63-.2-31-7.6-81.5,31.9-93,32.2-9.4,45.8,13.5,47,42.1l.9,117.8-26-1v-35.1c0-.4-2.6-4-3.3-4.4-2.1-1.2-18.3-1.4-21.2-.9s-4.3,2.7-4.3,3.3v36.1ZM276.1,554.6c-6.2-6-17.5-2.6-21,4.8-3.1,6.5-3.7,27.5-2.7,34.9,1.2,9,25,7.9,27.7,2.6,3.2-6,1.6-36.9-4-42.3ZM232.9,652.5c-3.2,1.1-4.1,8.6.9,9.5,9.4,1.5,7.9-12.5-.9-9.5Z" style="fill: #f7cf57;"/>
    <path d="M597.6,512v112c0,1.7,2.6,9,3.6,10.8,6.7,11.5,22.3,5.9,24-6.2,3.2-38.2-.1-76.7.4-115,1.1-3.4,8.1-.7,10.9-.6s15.2-1.1,15.8,1.5c-.3,1.6-.9,3.1-.9,4.7-.8,36.3,2.5,75.9,0,111.6-1.4,19.7-12.4,46.6-34.2,50.4-36.9,6.5-44.3-29.8-45.7-58.1-1.8-36.8,1.4-75.1,0-112.1l26,1ZM630.9,599.6c-2.4.8-2.6,7.4.9,7.6,5.9.5,6.3-10.1-.9-7.6ZM600.2,643.9c-3.8,1.1-3.9,8.7.8,9.5,9.8,1.6,6.9-11.7-.8-9.5ZM623.3,661.7c4.2-5.3-.8-13.8-7.4-10.8-9.9,4.5.9,18.8,7.4,10.8Z" style="fill: #f7cf57;"/>
    <path d="M854.3,556.2c-6.4-.2-12.1,4.3-14.5,10.1-5.7,14,6.6,27.5,9.9,41.1,6.6,26.5-3.7,53.8-29.6,64.2l3.4,2.9-2.9,1.9c-1.2-4.3-10.6-11.1-11.4-15.1-.4-2.1,1.9-3.6,2.5-5.8,2.3-7.8.5-12.5-4.6-18.5,5.8-.4,11-5.4,13-10.6,4-10.8-5.3-24.1-8.4-34.8-5.4-18.8-5.5-41.6,7.5-57.5,8.9-10.9,22.5-14.3,35.1-7.2v29.3Z" style="fill: #f7cf57;"/>
    <path d="M40,657.2v-25c14.3,2.9,24.2-7.1,19-21.4-5.8-16.1-13.6-22.6-11.2-42.4,1.8-14.9,18.7-33.5,33.3-36.9,1.9-.4,12.8-2,12.8.3v26.9c-5.3,2.1-8.9,2.7-12.5,7.7-9.7,13.6,2.8,26.1,7,39.2,10.7,33.6-12.3,66.5-48.3,51.7ZM79.1,621.7c-3.6,1.9-4.1,6.4.8,6.7,7.5.4,4.4-8.1-.8-6.7Z" style="fill: #f7cf57;"/>
    <path d="M878.3,530.2l52.8,6.3c4,3.9,8,8.1,11.6,12.5,2.1,2.5,9.7,12.2,10.6,14.4,1.1,2.9-6.7.5-8.1.4-6.5-.2-12.3-1.4-13.8,6.5-2.9,16,.4,45.1.8,62.2.2,8.8-.2,17.7,0,26.5l-26,1.9v-95.7c0-.3-2.7-2.9-3.6-3.2s-6.2-1.2-6.5-1.2h-17.3l-1.2-1.4c0-.4.8-.7.8-1v-28.4ZM929,575.2c3.1-3.3-.4-7.5-3.7-5.1-3.3,2.4.5,8.5,3.7,5.1ZM914.8,607.1c.7-1.2.1-6.2-2.3-5.7-5.7,3.2.5,8.5,2.3,5.7Z" style="fill: #f7cf57;"/>
    <path d="M199.6,557.2c-4.9.7-22.4-.2-25.5,1.9-4.6,3-3.5,17.3-3.3,22.7.2,5.8,4.2,11.3-2.5,14.7-5.3-2.1-9.2-3.7-14.8-1.3l-7.7,7.2v-37c0-9.6-23-3.3-28.8-4.3v-30.8c24.4-2.8,48.9-4.8,73.5-5.8,1.6,0,9.1-2.4,9.1.5v32.2ZM160.8,549.6c-4,1-3.7,8.6,2.6,6.5,3.4-1.1,1.1-7.4-2.6-6.5ZM156,574.6c-3.7,1-5,6.1-1.2,8.6,7.5,4.9,9-10.7,1.2-8.6Z" style="fill: #f7cf57;"/>
    <path d="M170.7,666.8l-25-1.9v-11c5.5-1.5,7.4-7.9,0-7.4-.6-.6,1.2-6.4-1.5-7.7l-4.3,3.3c2-3.6,9.5-17.9,12.5-19.2,2.2-1,6.6.9,10.6,0,3.4-.7,5.9-2.8,8.1-5.3,1.6.7-.5,2.2-.5,2.4v46.6Z" style="fill: #f7cf57;"/>
    <path d="M212,573.5c1.2,1.1-16.2,19.4-18.1,21.1-4.5,4.1-11,6.3-12.7,11.6l-1.9-.5-1.9-4.3c-.3,2.7-.2,7.2-2.9,8.7l-1.7-8c.4-2,14.1-12.9,16.8-14.9,2.2-1.6,21.4-14.5,22.4-13.6Z" style="fill: #f7cf57;"/>
    <path d="M778.3,629.3h2.4c2.5-3.2.4-19.6-5.3-20.2v-1.3c1.5-1,3.2-5.6,4.1-6.1,1.6-1,6.3-1.9,8.4-4.1.3,5.1-1,9.7-1,14.9s1.1,6.7,1.1,10.6c0,2-.8,13-1.2,14.2-.3,1-3.7,4.8-4.6,4.1l-3.8-12Z" style="fill: #f7cf57;"/>
    <path d="M794.7,619.7c-.4.4.8,6.7,1.2,7.9s4.9,5.5.7,6c-4.9-12.5-4.8-26.8-1.9-39.9l4.1,3.1c.2,5.7,8.9,18.7,8.4,23.3-.1,1.5-1.6,3.4-3.2,3.3l-9.3-3.7Z" style="fill: #f7cf57;"/>
    <path d="M802.7,659.3c-.2.3.6,1.5-.2,2.2-9,6.6-25.4-8.7-15.5-20.2,1.2-1.4,7.5-5.8,5.6-1.1-1.6,4-6.7,3.2-5.6,10.7,1.5,10.1,17.2,11.3,18.3,0,.8-8.4-5.8-7.7-8.7-13.9,9.2-.7,15.2,7.6,13,16.4-1.5,5.8-5.3,3.8-6.9,6Z" style="fill: #f7cf57;"/>
    <polygon points="960 539.9 960 562 941.8 537.5 960 539.9" style="fill: #f7cf57;"/>
    <path d="M95.7,612.9c1.6,13.9-.3,28.8-9.6,39.9-.7.9-4.7,5.4-5.7,4.3,9.4-11.8,13.5-20.8,14.1-36.2,0-2.2-2.6-8.7,1.3-8Z" style="fill: #f7cf57;"/>
    <path d="M432.2,661c-2.3.4-2.6-1.4-3.2-3.1-3-7.8-9.8-29.6-10.8-37.3-.2-1.5.2-2.5.6-3.9l13.4,44.2Z" style="fill: #f7cf57;"/>
    <path d="M901.4,596.6c1.4.4,1.8,5,1.9,6.3.6,8.1-.5,16.8,0,25l-2,12v-43.3Z" style="fill: #f7cf57;"/>
    <polygon points="805.1 664 811 673.5 800.6 670.5 800.6 665 805.1 664" style="fill: #f7cf57;"/>
    <path d="M137.1,664.8c-2.8-2-5,4-4.8.5s.9-6.6,1.7-9.9l3.2-6.9v16.3Z" style="fill: #f7cf57;"/>
    <path d="M312,604.3v26.9h-1c.4-1.2-1-2.8-1-3.4v-23.6h1.9Z" style="fill: #f7cf57;"/>
    <path d="M170.7,604.3c2.9,10.6-4.8,17.9-15.4,16.3-.7-3.5,2.5-.8,5-1.1,4.6-.7,8.8-4.4,9.4-9.1.3-2.7-2.5-6.9,1-6.2Z" style="fill: #f7cf57;"/>
    <path d="M548.5,631.2c.6.7.2,14.4-2.9,15.4,1.6-4.6.4-9.5.9-14,.2-1.3.7-3,1.9-1.4Z" style="fill: #f7cf57;"/>
    <path d="M193.8,575.4c-.6,1.6-10,8.2-10.6,7.7,2-4.3,5.7-7.2,10.6-7.7Z" style="fill: #f7cf57;"/>
    <path d="M385.1,571.6v-7.2c5.3-2.5,5.7,8.5,0,7.2Z" style="fill: #f7cf57;"/>
  </g>
  <g>
    <g>
      <path d="M352.8,389.7c-13.4-5.5-28.7-13.1-43.5-8.3-3.8,1.2-.4,7.1-9.6,3.9-2.6-.9.3,5.9,2.4,5.4,14.4-11.2,33.3-8.2,42.2,8,5.1,9.3,2.6,10.7,2.9,19.5.1,4.6,8.5,9,10.6,12.5s.6,3.9,1.4,5.3c2.5,4.5,5.7,7.5,10.1,10.2-2.5,1.3-7.5-4.4-9.2-4.3-2.6,0,1.9,7,.5,8.7-2.1-1.3-1.5-6-3.4-7.7-1.4-1.3-3.5-.9-5-1.7-5.2-2.9-10.9-5.8-17.2-5.5-2.5.1-4.8,2.1-7.7,2.5-12.1,1.5-18.8-1.3-26.6-10.2-1.2-1.3-1.5-3.8-2.6-4.4-5-3.2-17.6-2.5-21.6,2.6l1.9,3.8c6.6-2.3,5.8,1.6,8.5,3.4s7.7,1.9,7,6.7c-4.3-2.5-5.8,1.1-8.5,1.7-3.7.9-11.8,2.4-15.4,2.8-3.7.5-6.9-2.7-10.5,3.2-2.3-5.7-5.8-2.6-8.6-3.1s-2.2-2.5-3-2.5-3,2.5-4.9,2.3c-1-.1-7.7-3.7-9.1-4.1-1.4-.4-3.7.8-3.9.6s.3-1.8-.2-2.6-3.3-1.4-2.7-2.2l5.4-2c2.1,0,2.1,2.7,4,3.7,2.5,1.3,8.8,1.9,11.9,2.1l-7.7-7.2,1.9-1.4-8.2,1.9c.9-7.1,11.7-3.6,15,.5,2.3,2.8,3.1,9.5,8,8.1s5.3-10.4,11.3-12.9,3.4-.2,4.8-1c3.8-1.9,1.9-9.1-2.2-8.1-2.3.6-7.2,7.9-9.4,9.6,1.5-5-1.6-10.2-1.9-14.1-.3-3.7,3.5-15-3.6-15.6-6.4-.6-4.5,8.7-5.4,11.7s-4.6,3.9-5.2,6.4l3.4,7.8-6.3-4.9c-5.7,3.6-12.2-.7-19.1,2.2s-7.8,10.4-15.6,13.3c-12.8,4.8-20.1-3.2-33.4,1.4-2.4.8-4,2.4-6.1,3.6s-3.3.5-4.5,1.3c-2.2,1.4-3.2,7.6-3.9,10.1-1.7.3-.9-2.2-.7-3.1.6-2.7,2.3-4.8,2.7-7.5l-10.6,4.8c4.5-3.4,6.9-7.1,10-11.7.7-1.1.6-2.9,1.5-4.3,2-2.9,7.7-6.3,9-9.4,3.2-7.8-1.4-15.3,6.1-25.8,10.3-14.5,26.6-14.3,40.6-5.2l3.3-4.1c-1.9-1.3-4.2.9-6.5-.2s-1.2-3.8-4.1-4.7c-14.2-4.7-28.7,2-41.6,7.3,3-13.3,20.2-14.5,31.4-13.6,3.5.3,6.4,1.7,9.6,2,13.6,1.2,26.3-4,39.6-4.9,26.9-1.8,55.7,2,82.2,4.9,2.1.2,3.7-1.2,6.2-.6,5.3,1.3,14.6,6.5,13.5,13.1ZM231.1,402.3c-1.9-.8-3.8-3.5-3.9-5.4-.2-3.6,7.1-6-1.9-9.1-.5,4.2-2.8,5.8-6.8,6.3l10.1,15c4.7-4,5.1-7.8,3.4-13.5-3.4,1.3-1.2,4.2-1,6.8ZM295.8,387.8l-4.7,3.5c4.8,6.5,1.9,7.7-1.9,13.2l3.3,4.5c2,.5,1.3-.8,1.9-1.9,2.5-4.6,4-9.8,8.2-13.1-3.7-.6-6.8-1.9-6.8-6.3ZM200.9,390c-27.6,3.3-23.9,47.1,5.5,43.2,25.4-3.5,20.9-46.3-5.5-43.2ZM312.9,390c-6.7,1.4-14.2,10.1-15.1,16.8-5.1,36.4,45.3,34.8,40.4,0-1.6-11.1-14.6-19-25.3-16.8Z" style="fill: #f7cf57;"/>
      <path d="M411.8,450.6c1.3,8-4.9,14.4-11.4,18.2l-19.2-4.6c-2.2.1-4.1,3.8-6.5,5-6.8,3.3-14,1-21-.2-.2-2.5-.1-1.6,1.5-1.9s6.4-.3,7.9-1.3c2.7-1.7,7.1-10.7,10.9-12.8l-1.8-.6,1.3-2.8c1.4,4.7,8.2,3.3,11,.4,7.1-7.6-.5-21.5.1-22.6,8.3-.8,16.5,12,23.1,14.1,5.9,1.8,17.1-1.6,21.8,2.3,5.4,4.6-6.2,4.5-8.5,5.1-2.8.8-5,4.7-9.4,1.7Z" style="fill: #f7cf57;"/>
      <path d="M136.4,427.4c-5.8,11.1-4.3,31.2,12.6,23.2l-1.9,2.4c2.7,3,5.6,6.1,8.2,9.2.8,1,1.2,3.3,1.7,3.6.9.6,7.2.8,9,1.2s1.7-.7,1.5,1.9c-7.9,1.4-13.9,3.7-21.6-.2-2.8-1.4-3.5-3.3-5.9-4.7l-19.1,4.7c-6.6-4-12.7-9.8-11.4-18.2-4.9,3.3-6.8-.9-9.4-1.7-1.9-.6-15.2-.7-7.9-5.4s15.3-.1,21.2-2c4.4-1.4,18.9-17.1,23.1-14.1Z" style="fill: #f7cf57;"/>
      <path d="M286.2,465.1c4-3.2,8.7-7.9,11.2-12.4,2.3-4,2.7-7.7,4.6-11.5l8.3,1.7c-3,5.2-5.2,14.1-11.6,16.1-1.9.6-3.7-.7-3.8-.6-.2.2-1.3,3.7-2.2,5.1-3.4,5.2-14.1,18.6-20.5,18.9-3.6.2-9.5-2.7-11.6-2.7-4.2,0-7,5.3-14.3,3.6-3.6-.8-9.5-8-8.9-11.4,3.8,3.6,7.7,9.2,13.6,6.9,1.3-.5,1.7.3,1.4-2-4.5-.9-8.1-4-10.6-7.7,3.2,1.9,4.8-1.5,6.5-1.8s5.4,4.7,6.6-.2l1,2c4.1-2.7,4.7-.2,6.8,0,10.2.4,22.1-.9,23.6-13.4-1.1-.1-2.3-1-3.4-.9-1.8.1-5.5,3.4-6.3.9,2.1.3,4-2.4,5.5-2.6.9-.2,2,.6,2.8.6,4.1-.3,11.8-12.7,12-17.3,1.7-.2.9,2.2.7,3.1-2.1,9.7-8,16.9-11.4,25.8ZM280.4,471.9l-12.6,6.7c6.3,3,9.9-1.5,12.6-6.7Z" style="fill: #f7cf57;"/>
      <path d="M296.8,341.4c-.1-.2-3.5-.3-2.8-2.3l4.7-7.4c-3.2-.4-4.3-3.7-7-5.1-4.1-2-19.1-1.9-14.5-8.5,11.5-.5,23.9,1.7,32.7,9.7,7.1,6.5,0,11.5-2.1,18.2-1.6,5-1.8,11.9,0,16.9.7,1.9,3.4,2.8,2.6,5.6l-22.2-4.3-.9-6.3,10.6,1.9c.5-1.2-1-2.2-1-2.4,0-2.4.4-15.3,0-15.9Z" style="fill: #f7cf57;"/>
      <path d="M230.7,448.1c6.1,6.9,3.5,2.5,8.4,3.6,2,.5,2.8,4.4,7.4,1.8l-3.2,2.8-5-3.7-4.8,5.7-12.1-14.5,23.2,52.2c-2.1,1.6-8.4-4.6-9.7-6.3-2.4-3.3-3.1-7.8-4.3-9.9-2-3.5-8.2-6.5-11.6-11-6-7.7-7.6-16.5-8.3-26,1.9-1,9.1,0,9.5-.2s.2-1.5.8-1.8c1.6-.8,3.5-1.1,5.1-1.9-.6,4.8,2,6.3,4.5,9.1Z" style="fill: #f7cf57;"/>
      <path d="M242.7,359.8l-1,8.7c-9.3,0-18.4,3.2-28,1.9v-8.7c1.6.6,2.4,2.3,4.3,2.5,4.5.4,23.7-5.1,24.7-4.4Z" style="fill: #f7cf57;"/>
      <path d="M347,462.2c-5.8-1.3-8.7-4.4-7.7-10.6,1.6.4,1.2,3,2.4,4.8,1.5,2.1,4.1,3.4,5.3,5.8Z" style="fill: #f7cf57;"/>
    </g>
    <g>
      <path d="M772.2,459.9c-4,0-7.8.3-11.5-.2-1.1,0-2.5-2-2.9-3.3-4.9-13.6-9.6-27.2-14.3-40.9-.3-.8-.7-1.8-1.5-2.5v46.6h-14.8c0-1.5-.3-3-.3-4.5,0-26.9,0-53.9,0-80.8,0-3.6.8-4.8,4.7-4.8,10.1.3,10,0,13.3,9.8,4,11.6,8.1,23.2,12.9,34.8v-44.2h14.5v90Z" style="fill: #f7cf57;"/>
      <path d="M480,459.7v-37.3h-13.6v37.2h-15.8v-89.7h15.4v36.8h13.7v-36.9h15.4v89.7c-4.9,0-9.8,0-15.3,0Z" style="fill: #f7cf57;"/>
      <path d="M782.6,369c8.7.8,17.1.9,25.3,2.6,9.1,1.9,15.2,7.8,16.7,17.5,1.6,10.2-2.1,18.2-10.9,23.7-.3.3-.7.5-1.4,1,.7.4,1.1.8,1.6,1.1,12,6.8,15.9,21.1,8.8,32.9-5,8.2-13.1,11.3-22.1,12.1-5.9.5-11.8,0-18,0,0-30,0-59.8,0-91ZM797.9,421.4v24.1c8.2-.6,12.5-4.8,12.4-12,0-7.3-4.3-11.5-12.4-12ZM797.8,407.4c8.1.8,12.4-5.9,11.7-13.2-.6-6.7-5.1-10.3-11.7-9.2v22.4Z" style="fill: #f7cf57;"/>
      <path d="M551.1,414.8c.3,10.9,0,21.6-4.3,31.9-5.2,12.4-17,17.7-27.7,12.5-6.4-3.1-9.8-8.8-11.8-15.3-1.5-4.9-2.8-10.1-3.1-15.2-1.1-14.4-1.6-29,3.1-43,1.2-3.4,3-6.7,5.1-9.6,7.8-10.3,22.6-10.2,30.5.3,5.6,7.5,7.4,16.3,8.1,25.4.3,4.3,0,8.7,0,13.1ZM518.8,414.7h.9c0,5.5-.3,11,0,16.5.3,4,1.3,8.1,2.8,11.8.7,1.6,3.2,3.3,5,3.4,1.5,0,3.6-2,4.5-3.6,1.1-1.9,1.8-4.2,1.9-6.4.4-12.9.8-25.9.7-38.8,0-3.4-1-7-2.4-10.2-.8-1.9-3.2-4.1-4.9-4.2-1.7,0-3.8,2.2-5.1,4-1.1,1.5-1.4,3.6-1.7,5.6-.7,7.3-1.2,14.6-1.8,21.8Z" style="fill: #f7cf57;"/>
      <path d="M705,369.6c5.8,30.4,11.5,60.1,17.2,90.2h-15.7c-1-5.8-2-11.5-3.1-17.8-4.2,0-8.4-.2-12.6.2-.8,0-2,1.8-2.2,2.9-.8,3.8-1.4,7.7-1.8,11.6-.2,2.5-.9,3.6-3.6,3.4-3.8-.2-7.5,0-12,0,1.1-6.1,2-11.9,3.1-17.6,4.4-23,8.8-46.1,13.1-69,.5-2.7,1.3-3.9,4.2-3.7,4.2.2,8.6,0,13.2,0ZM701.2,427.8c-1.5-9.5-3.1-18.6-4.5-27.7-.2,0-.4,0-.6,0-1.4,9.2-3,18.3-4.4,27.7h9.5Z" style="fill: #f7cf57;"/>
      <path d="M663.9,387c-2.5-.9-4.5-1.9-6.6-2.5-6.9-2.1-12.5.2-15.4,6.7-1.5,3.3-2.7,6.9-3.1,10.4-1.1,11.5-1.5,23.1,1.4,34.4,2,7.5,5.8,10.8,12.4,10.5v-23.6h-7v-13.6h21.7v10.9c0,11.3,0,22.6,0,33.8,0,2.5-.8,3.6-3.2,4.6-17.7,6.8-32.5.5-38.4-17.5-5.8-17.6-5.7-35.5.3-53.1,5.3-15.4,18.8-22.4,33.8-18.6,3.1.8,4.5,2,4.2,5.5-.3,3.7,0,7.6,0,11.9Z" style="fill: #f7cf57;"/>
      <path d="M832.8,369.9h34.1v14.7h-18.2v22.5h16.1v14.7h-16.1v23.2c4.9,0,9.9.2,14.9,0,3.2-.2,4.2,1,4,4.2-.3,3.5,0,7,0,10.7h-34.9c0-29.8,0-59.5,0-89.8Z" style="fill: #f7cf57;"/>
      <path d="M883.5,384.6h-10.9v-14.6h37.6v14.5h-10.7v75.1h-15.9v-75Z" style="fill: #f7cf57;"/>
      <path d="M559.5,369.9h15.4v74.8h16.6v14.8h-32c0-29.9,0-59.7,0-89.7Z" style="fill: #f7cf57;"/>
      <path d="M598.6,459.6v-89.6h14.9v89.6h-14.9Z" style="fill: #f7cf57;"/>
      <path d="M612.8,351.2v13.5h-13.6v-13.5h13.6Z" style="fill: #f7cf57;"/>
    </g>
  </g>
</svg>