<?xml version="1.0" encoding="UTF-8"?>
<svg id="Layer_1" xmlns="http://www.w3.org/2000/svg" xmlns:xlink="http://www.w3.org/1999/xlink" version="1.1" viewBox="0 0 800 800">
  <!-- Generator: Adobe Illustrator 29.2.1, SVG Export Plug-In . SVG Version: 2.1.0 Build 116)  -->
  <path d="M406.5,124.7h2.2c5.9,5.4,11.8,10.9,17.7,16.3,52.3,47.3,103.8,95.4,157.1,141.4,34.3,29.7,69.1,58.6,96,95.5,24.6,33.8,33,71.6,21.7,111.8-18,63.8-63.8,98.6-126.8,111.5-51.9,10.6-98.9-.4-136.8-39.9-1.8-1.9-4-3.3-7.9-6.6,8.1,28.3,19.1,52.6,36.7,72.8,17.3,19.9,36.6,38,55.3,57.1h-225.6c39.7-39.3,77.5-77.8,90.6-134.9-16.4,11-30.8,21.7-46.1,30.7-68.8,40.8-161,18.4-204-48.7-13-20.4-19.1-42.9-24.3-65.9v-35c5.1-25.4,13.9-49.4,33.3-67.4,37.2-34.5,74.9-68.4,113.1-101.9,38.7-33.9,78.5-66.5,117-100.7,11.8-10.2,20.6-23.9,30.8-36.1ZM257.5,564.8c-5.9-5.7-9.6-9.2-13.2-12.7-52.7-52.7-58.3-121.4-13.3-180.7,20.7-27.3,43.8-52.7,65.8-78.9,1.4-1.7,2.6-3.4,3.9-5.2-6.4,3-11.6,7-16.7,11.1-32.3,26.1-65.5,51.2-90.8,85.1-20.3,27.1-29.1,56.3-24,90,6.6,43.5,42.7,82.7,88.3,91.3Z" style="fill: #fff;"/>
</svg>