<?xml version="1.0" encoding="UTF-8"?>
<svg xmlns="http://www.w3.org/2000/svg" version="1.1" viewBox="0 0 100 100">
  <!-- Generator: Adobe Illustrator 28.6.0, SVG Export Plug-In . SVG Version: 1.2.0 Build 709)  -->
  <g>
    <g id="Layer_1">
      <path d="M76.7,95.9H23.3c-10.7,0-19.4-8.7-19.4-19.4V23.2C3.9,12.5,12.6,3.8,23.3,3.8h53.3c10.7,0,19.4,8.7,19.4,19.4v53.3c0,10.7-8.6,19.4-19.3,19.4ZM23.3,8.8c-7.9,0-14.4,6.5-14.4,14.4v53.3c0,7.9,6.5,14.4,14.4,14.4h53.3c7.9,0,14.4-6.5,14.4-14.4V23.2c0-7.9-6.5-14.4-14.4-14.4,0,0-53.3,0-53.3,0Z" style="fill: #f7cf57;"/>
      <g>
        <path d="M67.2,37.7c-1.3,0-2.6,0-3.9,0-10.2,0-20.3,0-30.5,0-.5,0-1,0-1,.7,0,9.9,0,19.7,0,29.6,0,1.6,1.1,2.7,2.7,2.8.7,0,1.5,0,2.2,0,1,0,1,0,1,1,0,2.9,0,5.7,0,8.6,0,1.8.4,3.5,2,4.6.5.3,1.1.6,1.6.9h1.7c0,0,.1,0,.2,0,2.3-.4,3.5-1.7,3.8-4,.2-1.5,0-3.1.1-4.6,0-1.6,0-3.3,0-4.9,0-.8.2-1.1.9-1.1,1.1,0,2.3,0,3.5,0,.6,0,.8.4.9.9,0,.2,0,.5,0,.7,0,2.7,0,5.4,0,8,0,1.8.6,3.4,2.1,4.5.6.4,1.3.4,1.9.6h1.7c.1,0,.2-.1.4-.2,2.1-.7,3.2-2.1,3.3-4.3,0-.6,0-1.2,0-1.8,0-2.7,0-5.3,0-8,0-.6.2-.8.8-.8.8,0,1.5,0,2.3,0,1.8,0,2.9-1.1,2.9-3,0-9.8,0-19.6,0-29.4,0-.6-.2-.8-.8-.8Z" style="fill: #f7cf57;"/>
        <path d="M28.8,42c0-2.8-3-4.9-5.7-4.1-2,.6-3.3,2.4-3.3,4.7,0,6.8,0,13.5,0,20.3,0,.4,0,.9.1,1.3.4,2.2,2.7,3.9,5,3.5,2.3-.3,3.9-2.2,3.9-4.5,0-3.5,0-7,0-10.5,0,0,0,0,0,0,0-3.6,0-7.2,0-10.8Z" style="fill: #f7cf57;"/>
        <path d="M80.1,42.5c0-3.7-3.6-6-6.7-4.2-1.5.8-2.3,2.1-2.3,3.9,0,3.5,0,7,0,10.4h0c0,3.6,0,7.2,0,10.8,0,2.4,2,4.3,4.4,4.4,2.1.1,4.2-1.7,4.5-3.9,0-.3.1-.7.1-1,0-6.8,0-13.6,0-20.4Z" style="fill: #f7cf57;"/>
        <path d="M32.9,34.7c5.7,0,11.3,0,17,0,5.7,0,11.3,0,17,0,1.2,0,1.2,0,1.1-1.2-.4-5.3-2.6-9.6-6.8-12.8-.6-.4-.5-.7,0-1.1,1.1-1,2.1-2.1,3.2-3.2.7-.7.7-1.5.2-2.1-.6-.7-1.5-.7-2.3.1-1.2,1.1-2.3,2.2-3.4,3.4-.5.5-.9.6-1.5.3-2.3-1.1-4.8-1.4-7.3-1.4-2.5,0-5,.4-7.3,1.5-.6.3-1,.2-1.4-.3-.7-.8-1.5-1.5-2.2-2.2-.5-.5-1-1.1-1.6-1.5-.8-.6-1.8-.3-2.2.7-.3.7,0,1.2.5,1.7,1,1.1,2.1,2.1,3.1,3.1.6.6.6.6,0,1.1-4.2,3.3-6.4,7.7-6.8,13,0,1,0,1,1,1ZM57.5,24.9c1.2,0,2.2,1.1,2.2,2.3,0,1.3-1,2.2-2.3,2.2-1.3,0-2.2-1-2.1-2.3,0-1.2,1.1-2.2,2.3-2.2ZM42.4,24.9c1.2,0,2.2,1,2.2,2.3,0,1.3-.9,2.2-2.2,2.2-1.3,0-2.2-1-2.2-2.2,0-1.2,1-2.3,2.2-2.3Z" style="fill: #f7cf57;"/>
      </g>
    </g>
  </g>
</svg>