<?xml version="1.0" encoding="utf-8"?>
<!-- Generator: Adobe Illustrator 26.1.0, SVG Export Plug-In . SVG Version: 6.00 Build 0)  -->
<svg version="1.1" id="Layer_1" xmlns="http://www.w3.org/2000/svg" xmlns:xlink="http://www.w3.org/1999/xlink" x="0px" y="0px"
	 viewBox="0 0 1000 1000" style="enable-background:new 0 0 1000 1000;" xml:space="preserve">
<g>
	<path style="fill:#F7CF57;" d="M942.3,460.4c-1.1-1.1-2.6-1.8-4.2-1.8c-1.5,0-3,0.6-4.1,1.7l-56.4,54.2c-1.3,1.3-3.1,2-5,2
		c-1.9,0-3.6-0.7-5-2l-39.9-38.3c0.2-2.8,0.3-5.7,0.3-8.6c0-9.8-1.2-19.1-3.6-27.9l42.4,43.7c1.5,1.6,3.6,2.4,5.8,2.4
		c2.2,0,4.2-0.9,5.8-2.4l84.6-86.1c3.1-3.1,3.1-8.2,0-11.3l-19.1-19.4c-1.5-1.6-3.6-2.4-5.8-2.4c-2.1,0-4.1,0.8-5.6,2.3l-56.4,54.2
		c-0.9,0.9-2.2,1.4-3.5,1.4c-1.3,0-2.6-0.5-3.5-1.4l-56.5-54.2c-1.5-1.4-3.5-2.2-5.6-2.2v0c-2.2,0-4.2,0.8-5.7,2.4l-17.7,17.7
		c-1.4-0.9-2.9-1.8-4.4-2.6c-15-8.4-31.7-12.7-49.6-12.7s-34.6,4.3-49.6,12.7c-15,8.4-27.1,20.2-35.9,35.2
		c-8.8,14.9-13.2,32-13.2,50.9c0,18.8,4.4,35.9,13.2,50.9c8.8,14.9,20.8,26.7,35.9,35c15,8.3,31.7,12.5,49.6,12.5
		c18.1,0,34.8-4.2,49.8-12.5c14.8-8.2,26.6-19.9,35.3-34.6l53.7,55.4c1.1,1.2,2.6,1.8,4.3,1.8c1.6,0,3.1-0.6,4.2-1.8l84.6-86.1
		c2.3-2.3,2.3-6,0-8.3L942.3,460.4z M762.5,504.3c-8,9-19.1,13.5-33,13.5c-14,0-25.2-4.5-33.1-13.5c-7.9-8.9-12-21.3-12-36.8
		c0-15.3,4-27.5,12-36.5c7.9-9,19.1-13.5,33.1-13.5c13.8,0,24.9,4.6,33,13.6c8,9,12.1,21.3,12.1,36.3
		C774.6,483,770.5,495.4,762.5,504.3z"/>
	<path style="fill:#F7CF57;" d="M352.6,312.1h-44.7c-2.2,0-3.9,1.8-3.9,3.9v63.7c0,2.8-2.3,5.1-5.1,5.1h-56.5
		c-2.8,0-5.1-2.3-5.1-5.1V316c0-2.2-1.8-3.9-3.9-3.9h-44.7c-2.2,0-3.9,1.8-3.9,3.9v28l-52.9-54.5c-1.1-1.2-2.6-1.8-4.3-1.8
		c-1.6,0-3.1,0.6-4.2,1.8l-84.6,86.1c-2.3,2.3-2.3,6,0,8.3l19.1,19.4c1.1,1.1,2.6,1.8,4.2,1.8c1.5,0,3-0.6,4.1-1.7l56.4-54.2
		c1.3-1.3,3.1-2,5-2c1.9,0,3.6,0.7,5,2l52.2,50.1v34.1l-51.4-53c-1.5-1.6-3.6-2.4-5.8-2.4c-2.2,0-4.2,0.9-5.8,2.4L37,466.4
		c-3.1,3.1-3.1,8.2,0,11.3l19.1,19.4c1.5,1.6,3.6,2.4,5.8,2.4c2.1,0,4.1-0.8,5.6-2.3l56.4-54.2c0.9-0.9,2.2-1.4,3.5-1.4
		c1.3,0,2.6,0.5,3.5,1.4l53.6,51.5v5.9c0,2.2,1.8,3.9,3.9,3.9h44.7c2.2,0,3.9-1.8,3.9-3.9v-68.6c0-2.8,2.3-5.1,5.1-5.1h56.5
		c2.8,0,5.1,2.3,5.1,5.1v68.6c0,2.2,1.8,3.9,3.9,3.9h44.7c2.2,0,3.9-1.8,3.9-3.9V316C356.5,313.9,354.7,312.1,352.6,312.1z"/>
	<path style="fill:#F7CF57;" d="M450.8,312.1h-44.7c-2.2,0-3.9,1.8-3.9,3.9v184.4c0,2.2,1.8,3.9,3.9,3.9h44.7c2.2,0,3.9-1.8,3.9-3.9
		V316C454.7,313.9,453,312.1,450.8,312.1z"/>
	<path style="fill:#F7CF57;" d="M615.7,524.2h-51.1c-2.8,0-5.1-2.3-5.1-5.1V375.9c0-2.2-1.8-3.9-3.9-3.9h-44.7
		c-2.2,0-3.9,1.8-3.9,3.9v184.4c0,2.2,1.8,3.9,3.9,3.9l0,0h104.8c2.2,0,3.9-1.8,3.9-3.9v-32.1C619.6,526,617.8,524.2,615.7,524.2z"
		/>
	<polygon style="fill:#F7CF57;" points="729.6,566 729.6,566 729.6,566 	"/>
</g>
<path id="Shape_00000040541709403781856770000002505458042668340373_" style="fill:#F7CF57;" d="M346.7,661.9
	c2.4-3.4,3.7-7.4,3.6-11.6c0-5.9-2.1-11-6.2-15.1c-4.1-4.1-9.2-6.2-15.1-6.2h-26.5v66.2h10.9v-24.1h12.9l14,24.1h11.9l-15-25.7
	C341.1,668,344.4,665.3,346.7,661.9L346.7,661.9L346.7,661.9z M329.1,661.4h-15.6v-22.1h15.6c2.8,0,5.5,1.1,7.4,3.2
	c4,4.5,4,11.2,0,15.7C334.6,660.2,331.9,661.4,329.1,661.4L329.1,661.4z M406.2,666.7c-1.1-1.2-2.2-2.3-3.5-3.3
	c-1.1-0.9-2.7-1.8-4.8-2.6c-2.1-0.9-3.8-1.5-4.9-1.9c-1.2-0.4-3-1-5.5-1.8c-5-1.6-8.5-3.1-10.4-4.5c-1.9-1.3-3-3.5-2.9-5.8
	c0-2.5,0.9-4.5,2.8-6s4.4-2.2,7.6-2.2c6.5,0,11.1,3.1,13.9,9.3l9.2-5.3c-2-4.4-5.2-8.1-9.2-10.7c-4-2.6-8.6-3.9-13.9-3.9
	c-5.9,0-10.9,1.7-15,5.2c-4.2,3.4-6.2,8.1-6.2,13.9c0,3,0.5,5.5,1.6,7.8c1.1,2.2,2.8,4.2,4.9,5.5c1.9,1.4,4,2.5,6.2,3.5
	c2.5,1,5.1,1.9,7.7,2.6c5.6,1.7,9.5,3.3,11.7,4.7s3.3,3.5,3.3,6.2c0.1,2.5-1.1,4.8-3.1,6.3c-2,1.6-5.1,2.4-9.2,2.4
	c-8.3,0-13.8-3.7-16.5-11.2l-9.4,5.5c1.7,4.9,4.9,9.1,9.3,11.9c4.4,2.9,9.9,4.3,16.2,4.3c7,0,12.7-1.7,17-5.2
	c4.3-3.5,6.5-8.2,6.5-14.2c0-1.9-0.2-3.9-0.8-5.8C408.3,669.5,407.4,668,406.2,666.7L406.2,666.7z M417.5,639.4h18.7v55.8h10.9
	v-55.8h18.6V629h-48.2L417.5,639.4L417.5,639.4z M212.9,695.2h13.4v-33.1h33.2v-12.8h-33.2v-22.9h34.4v-12.8h-47.8L212.9,695.2
	L212.9,695.2z M274,695.2h10.9V629H274V695.2z M579.2,666.9h26.5v-10.3h-26.5v-17.2H608V629h-39.7v66.2h40.2v-10.4h-29.3
	L579.2,666.9L579.2,666.9z M773.9,627.8c-9.6,0-17.7,3.3-24.4,10c-6.7,6.7-10,14.8-10,24.4c0,9.6,3.3,17.7,10,24.4
	c6.7,6.6,14.8,10,24.4,10c9.6,0,17.7-3.3,24.4-10c6.7-6.7,10-14.8,10-24.4c0-9.6-3.3-17.7-10-24.4
	C791.6,631.1,783.4,627.8,773.9,627.8L773.9,627.8L773.9,627.8z M790.5,679.1c-4.5,4.5-10.1,6.8-16.7,6.8s-12.2-2.3-16.7-6.8
	c-4.5-4.5-6.8-10.2-6.8-17s2.3-12.5,6.8-17c4.5-4.5,10.1-6.8,16.7-6.8s12.2,2.3,16.7,6.8c4.5,4.5,6.8,10.2,6.8,17
	C797.3,668.9,795.1,674.6,790.5,679.1L790.5,679.1z M667.2,661.9c2.4-3.4,3.7-7.4,3.6-11.6c0-5.9-2.1-11-6.2-15.1
	c-4.1-4.1-9.2-6.2-15.1-6.2h-26.5v66.2H634v-24.1h12.9l14,24.1h11.9l-15-25.7C661.6,668,664.9,665.3,667.2,661.9L667.2,661.9z
	 M649.6,661.4H634v-22.1h15.6c2.8,0,5.5,1.1,7.4,3.2c4,4.5,4,11.2,0,15.7C655.1,660.2,652.4,661.4,649.6,661.4L649.6,661.4
	L649.6,661.4z M726.6,666.7c-1.1-1.2-2.2-2.3-3.5-3.3c-1.1-0.9-2.7-1.8-4.8-2.6c-2.1-0.9-3.8-1.5-4.9-1.9c-1.2-0.4-3-1-5.5-1.8
	c-5-1.6-8.5-3.1-10.4-4.5c-1.9-1.3-3-3.5-2.9-5.8c0-2.5,0.9-4.5,2.8-6c1.9-1.5,4.4-2.2,7.6-2.2c6.5,0,11.1,3.1,13.9,9.3l9.2-5.3
	c-2-4.4-5.2-8.1-9.2-10.7c-4-2.6-8.6-3.9-13.9-3.9c-5.9,0-10.9,1.7-15,5.2c-4.2,3.4-6.2,8.1-6.2,13.9c0,3,0.5,5.5,1.6,7.8
	c1.1,2.2,2.8,4.2,4.9,5.5c1.9,1.4,4,2.5,6.2,3.5c2.5,1,5.1,1.9,7.7,2.6c5.6,1.7,9.5,3.3,11.7,4.7c2.2,1.4,3.3,3.5,3.3,6.2
	c0.1,2.5-1.1,4.8-3.1,6.3c-2,1.6-5.1,2.4-9.2,2.4c-8.3,0-13.8-3.7-16.5-11.2l-9.4,5.5c1.7,4.9,4.9,9.1,9.3,11.9
	c4.4,2.9,9.9,4.3,16.2,4.3c7,0,12.7-1.7,17-5.2c4.3-3.5,6.5-8.2,6.5-14.2c0-1.9-0.2-3.9-0.8-5.8C728.7,669.5,727.8,668,726.6,666.7
	L726.6,666.7L726.6,666.7z M530,613.6h-30.1v81.7h13.4v-28H530c7.7,0,14.1-2.6,19.3-7.8c5.2-5.2,7.8-11.5,7.8-19.1
	c0-7.6-2.6-14-7.8-19.1C544.1,616.1,537.7,613.6,530,613.6L530,613.6z M539.8,650.6c-2.6,2.7-5.8,4-9.8,4h-16.7v-28.5H530
	c4,0,7.2,1.3,9.8,4c2.6,2.7,3.8,6.1,3.8,10.2C543.6,644.5,542.3,647.9,539.8,650.6L539.8,650.6L539.8,650.6z M861.9,629v44.9
	L830.7,629h-8.5v66.2h10.9v-44.9l31.2,44.9h8.5V629L861.9,629L861.9,629z"/>
<path id="Path-5_00000070797526694466132510000000040002632244785069_" style="fill-rule:evenodd;clip-rule:evenodd;fill:#F7CF57;" d="
	M104.7,607.8c32.5-17.4,74.5,0.9,77.6,45.1C122.1,657.6,114.8,630.5,104.7,607.8z"/>
<path id="Path-7_00000149367024305364704460000002479639474513150353_" style="fill-rule:evenodd;clip-rule:evenodd;fill:#F7CF57;" d="
	M104.7,705.9c32.5,17.4,74.5-1,77.6-45.1C122.1,656,114.8,683.1,104.7,705.9z"/>
</svg>
