<?xml version="1.0" encoding="UTF-8"?>
<svg id="Layer_1" xmlns="http://www.w3.org/2000/svg" version="1.1" viewBox="0 0 1000 1000">
  <!-- Generator: Adobe Illustrator 29.1.0, SVG Export Plug-In . SVG Version: 2.1.0 Build 142)  -->
  <g>
    <path d="M342.4,467.8h58.7v20.8h-36.9v24.6h30.3v20.8h-30.3v45.4h-21.8v-110.8h0v-.9Z" style="fill: #f7cf57;"/>
    <path d="M414.3,578.5v-105.1h20.8v105.1s-20.8,0-20.8,0Z" style="fill: #f7cf57;"/>
    <path d="M476.8,541.6v37.9h-20.8v-105.1h46.4c3.8,0,7.6,0,10.4,3.8,2.8,2.8,4.7,6.6,4.7,10.4v27.5c0,6.6-2.8,12.3-7.6,16.1,5.7,3.8,7.6,9.5,7.6,17v30.3h-20.8v-30.3c0-1.9,0-3.8-1.9-4.7s-2.8-1.9-5.7-1.9h-12.3v-.9ZM488.2,521.7c1.9,0,3.8,0,5.7-1.9,1.9,0,1.9-2.8,1.9-4.7v-21.8h-19.9v28.4h12.3Z" style="fill: #f7cf57;"/>
    <path d="M576.2,493.3h-19.9v17c0,4.7,2.8,6.6,9.5,6.6s16.1,1.9,21.8,6.6c5.7,4.7,9.5,11.4,9.5,18.9v21.8c0,3.8-1.9,7.6-4.7,10.4s-6.6,3.8-10.4,3.8h-30.3c-3.8,0-7.6,0-10.4-3.8s-4.7-6.6-4.7-10.4v-20.8h20.8v16.1h19.9v-17c0-4.7-2.8-6.6-9.5-6.6s-16.1-1.9-21.8-6.6c-5.7-4.7-9.5-11.4-9.5-18.9v-21.8c0-3.8,1.9-7.6,4.7-10.4s6.6-3.8,10.4-3.8h30.3c3.8,0,7.6,0,10.4,3.8,2.8,2.8,4.7,6.6,4.7,10.4v20.8h-20.8v-16.1Z" style="fill: #f7cf57;"/>
    <path d="M627.3,493.3h-20.8v-19.9h61.5v19.9h-19.9v86.2h-20.8s0-86.2,0-86.2Z" style="fill: #f7cf57;"/>
    <path d="M271.4,602.2h48.3c4.7,0,8.5,1.9,11.4,4.7s4.7,6.6,4.7,10.4v28.4c0,8.5-2.8,15.1-9.5,19.9-5.7,4.7-13.3,7.6-22.7,7.6h-10.4v39.8h-21.8s0-110.8,0-110.8ZM293.1,623v30.3h10.4c6.6,0,10.4-2.8,10.4-7.6v-22.7s-20.8,0-20.8,0Z" style="fill: #f7cf57;"/>
    <path d="M372.7,693.1h35v19.9h-55.9v-105.1h55.9v19.9h-35v23.7h29.3v19.9h-29.3v23.7-1.9Z" style="fill: #f7cf57;"/>
    <path d="M443.7,675.1v37.9h-20.8v-105.1h46.4c3.8,0,7.6,0,10.4,3.8,2.8,2.8,4.7,6.6,4.7,10.4v27.5c0,6.6-2.8,12.3-7.6,16.1,5.7,3.8,7.6,9.5,7.6,17v30.3h-20.8v-30.3c0-1.9,0-3.8-1.9-4.7s-2.8-1.9-5.7-1.9h-12.3v-.9ZM456,656.2c1.9,0,3.8,0,5.7-1.9,1.9,0,1.9-2.8,1.9-4.7v-21.8h-19.9v28.4h12.3Z" style="fill: #f7cf57;"/>
    <path d="M543.1,626.8h-19.9v17c0,4.7,2.8,6.6,9.5,6.6s16.1,1.9,21.8,6.6,9.5,11.4,9.5,18.9v21.8c0,3.8-1.9,7.6-4.7,10.4-2.8,2.8-6.6,3.8-10.4,3.8h-30.3c-3.8,0-7.6,0-10.4-3.8s-4.7-6.6-4.7-10.4v-20.8h20.8v16.1h19.9v-17c0-4.7-2.8-6.6-9.5-6.6s-16.1-1.9-21.8-6.6-9.5-11.4-9.5-18.9v-21.8c0-3.8,1.9-7.6,4.7-10.4,2.8-2.8,6.6-3.8,10.4-3.8h30.3c3.8,0,7.6,0,10.4,3.8,2.8,2.8,4.7,6.6,4.7,10.4v20.8h-20.8v-16.1Z" style="fill: #f7cf57;"/>
    <path d="M627.3,607.9c3.8,0,7.6,0,10.4,3.8,2.8,2.8,4.7,6.6,4.7,10.4v76.7c0,3.8-1.9,7.6-4.7,10.4-2.8,2.8-6.6,3.8-10.4,3.8h-30.3c-3.8,0-7.6,0-10.4-3.8-2.8-3.8-4.7-6.6-4.7-10.4v-76.7c0-3.8,1.9-7.6,4.7-10.4,2.8-2.8,6.6-3.8,10.4-3.8h30.3ZM601.8,626.8v66.3h19.9v-66.3h-19.9Z" style="fill: #f7cf57;"/>
    <path d="M684.1,644.8v68.2h-20.8v-105.1h29.3l17,68.2v-68.2h20.8v105.1h-29.3l-17-68.2Z" style="fill: #f7cf57;"/>
  </g>
  <g>
    <g>
      <path d="M202.3,304h95.6v21.8h-70.1v31.2h47.3v21.8h-47.3v35h72.9v21.8h-97.5v-131.6s-.9,0-.9,0Z" style="fill: #f7cf57;"/>
      <path d="M297.9,342.8h25.6l21.8,65.3,20.8-65.3h24.6l-34.1,93.7h-22.7s-36-93.7-36-93.7Z" style="fill: #f7cf57;"/>
      <path d="M390.7,389.2c0-28.4,19.9-48.3,48.3-48.3s48.3,19.9,48.3,48.3-19.9,48.3-48.3,48.3-47.3-19.9-47.3-48.3h-.9ZM462.6,390.1h0c0-18.9-8.5-29.3-22.7-29.3s-22.7,10.4-22.7,28.4h0c0,18,8.5,28.4,22.7,28.4s23.7-10.4,23.7-27.5h-.9Z" style="fill: #f7cf57;"/>
      <path d="M503.3,302.1h24.6v133.5h-24.6v-133.5Z" style="fill: #f7cf57;"/>
      <path d="M546.9,398.7v-55.9h24.6v54.9c0,12.3,5.7,19.9,17,19.9s18-10.4,18-26.5v-47.3h24.6v93.7h-24.6v-13.3c-4.7,9.5-13.3,15.1-25.6,15.1-20.8,0-34.1-15.1-34.1-38.8,0,0,0-1.9,0-1.9Z" style="fill: #f7cf57;"/>
      <path d="M657.6,411v-49.2h-13.3v-19.9h13.3v-18l23.7-13.3v31.2h18v19.9h-18.9v46.4c0,4.7,1.9,6.6,6.6,6.6h10.4v20.8h-18.9c-18,0-21.8-9.5-22.7-24.6,0,0,1.9,0,1.9,0Z" style="fill: #f7cf57;"/>
      <path d="M716.3,304.9h25.6v23.7h-25.6v-23.7ZM716.3,342.8h24.6v93.7h-24.6v-93.7h0Z" style="fill: #f7cf57;"/>
      <path d="M757,389.2c0-28.4,19.9-48.3,48.3-48.3s48.3,19.9,48.3,48.3-19.9,48.3-48.3,48.3-47.3-19.9-47.3-48.3h-.9ZM828,390.1h0c0-18.9-8.5-29.3-22.7-29.3s-22.7,10.4-22.7,28.4h0c0,18,8.5,28.4,22.7,28.4s23.7-10.4,23.7-27.5h-.9Z" style="fill: #f7cf57;"/>
      <path d="M868.7,342.8h24.6v15.1c4.7-10.4,14.2-17,27.5-17,20.8,0,32.2,13.3,32.2,39.8v55.9h-24.6v-54.9c0-13.3-4.7-19.9-16.1-19.9s-18.9,9.5-18.9,26.5v47.3h-24.6v-93.7h0v.9Z" style="fill: #f7cf57;"/>
    </g>
    <g>
      <path d="M144.5,316.3c-22.7-29.3-63.4-37.9-96.6-19.9,13.3,29.3,22.7,64.4,88,66.3h25.6c-.9-18.9-7.6-34.1-16.1-46.4" style="fill: #f7cf57;"/>
      <path d="M132.2,376.9c-38.8,1.9-57.7,16.1-69.1,34.1-6.6,10.4-11.4,21.8-16.1,32.2,47.3,25.6,108.9,0,113.6-66.3h-28.4" style="fill: #f7cf57;"/>
    </g>
  </g>
</svg>