<?xml version="1.0" encoding="UTF-8"?>
<svg id="Layer_1" xmlns="http://www.w3.org/2000/svg" xmlns:xlink="http://www.w3.org/1999/xlink" version="1.1" viewBox="0 0 1000 1000">
  <!-- Generator: Adobe Illustrator 29.2.1, SVG Export Plug-In . SVG Version: 2.1.0 Build 116)  -->
  <path d="M116.1,164.7h134.3v-11.2c-.1-11.2.1-22.5-.3-33.7-.1-4.8,1.4-6.6,5.4-6,1.1.2,2.3,0,3.5,0h487.6v49.1h135.3c.3,1.2.7,1.9.7,2.6.8,45.2-1.8,90.1-12.4,133.9-22.6,93.4-72.2,162.6-145.2,210.6-25.2,16.6-51.7,29.5-79.9,37.9-1.8.5-3.8,1.8-5,3.3-21.9,26.7-47.4,48.3-72.5,70.6-10.6,9.5-20.7,19.7-30,30.8-11.9,14.1-17.4,31.8-17.6,51.3-.3,25.7,0,51.4,0,77s.2,1.5.3,2.6c7.7,1.8,15.6,3.3,23.3,5.4,16.6,4.6,32.6,11.1,45.7,24.2,5.1,5,9.3,11.3,13.2,17.7,2,3.3,3.9,4.5,7.2,4.5,15,0,30-.2,45,0,22.9.3,40.1,15.8,44.8,40.1.6,3.1.6,6.3.9,9.9h-404.8c-1.7-20.5,13.2-42.9,32.3-48.2,4.6-1.3,9.5-1.7,14.3-1.7,14.6-.2,29.3,0,44-.2,1.9,0,4.7-.8,5.5-2.3,10.9-21.9,28.5-33.6,48.7-40.7,11.2-3.9,22.9-6.1,35.2-9.3v-5.1c0-23.6-.3-47.2.1-70.8.3-22.8-6-42.6-20.4-58-15.2-16.1-31.8-30.7-47.5-46.2-17.2-17-34.1-34.5-51.3-51.6-2-2-4.7-3.5-7.3-4.4-68.6-23.6-126.8-65.1-171-130.4-31-45.8-49-97.9-57.3-154.8-4.4-30.7-5.3-61.6-5-92.7,0-1.1.2-2.2.3-4.2ZM296.3,164.6c0,2.5-.1,4.3,0,6.2,2,32.2,3.4,64.5,6.1,96.6,3.2,37.5,10.1,74.3,20,110.3,14.2,51.6,35.7,98.6,68.3,138.3,20.5,25,44.2,45.5,67.6,66.6,12.1,11,23.1,23.4,34.5,35.4,2.4,2.5,4.3,5.6,6.7,8.9,14.1-20.8,31.5-36.4,49.1-51.6,9.3-8,18.4-16.3,27.5-24.7,24.6-22.8,46.1-48.9,63.2-79.5,32.9-58.8,48-124.4,55.8-192.6,3.3-28.8,4.8-57.9,6.7-86.9.6-9,0-18,0-27.2-135.2.2-270,.2-405.6.2ZM745,213.8c-5.5,90.1-18.4,177.5-54.7,258.6,49.2-28.5,87.9-69.1,113.7-124.9,19.3-41.7,28.7-86.5,31.2-133.8-30.4,0-60,0-90.2,0ZM307.3,473.3c-1.3-3.1-2.1-4.9-2.8-6.8-6.6-17.6-14.1-34.9-19.8-52.8-19.6-61.9-28.3-126.4-32-191.8-.3-4.9-1.4-6.4-5.8-6.3-26.6.2-53.3.1-79.9.1s-3.2.2-4.8.3c3.6,99.1,47.2,200.4,145.1,257.3Z" style="fill: #fff;"/>
  <path d="M553.5,479.5h-110.7c20.2-19.9,39-39.2,45.2-67.5-6.8,4.8-13,9.5-19.4,13.6-43.3,28.2-101.6,4.8-113.3-45.5-5.3-22.9-1.2-44.1,15.7-60.9,16.6-16.6,33.8-32.8,52.3-47.3,26.6-20.9,53.4-41.4,75.2-68.7,2.3,2,4.4,3.9,6.5,5.8,18.4,17.3,36.4,35.1,55.1,52,14,12.6,29.4,23.6,43.3,36.2,9.9,9,19.1,18.9,27.2,29.5,19.8,26.1,17.8,60.5-4,85.1-25.7,29.1-73,36.6-102.7,16-5.6-3.9-10.3-9.1-15.4-13.8,7.2,27.1,23.7,47.5,46.2,63.7-.4.8-.8,1.3-1.2,1.8ZM453.2,276.8c-.6.3-1.4.4-1.9.8-13.7,11.1-27.8,21.8-40.9,33.6-7.5,6.7-13.9,14.7-19.9,22.8-18.9,25.9-10.4,64.1,17.6,80.2,4.7,2.7,10,4.3,15.1,6.4.2-.4.4-.9.6-1.3-1.2-1.2-2.5-2.4-3.7-3.5-28-26.6-31.1-61.2-7.9-92,12.4-16.7,25.4-32.8,41-47Z" style="fill: #fff;"/>
</svg>