<?xml version="1.0" encoding="utf-8"?>
<!-- Generator: Adobe Illustrator 26.1.0, SVG Export Plug-In . SVG Version: 6.00 Build 0)  -->
<svg version="1.1" id="Layer_1" xmlns="http://www.w3.org/2000/svg" xmlns:xlink="http://www.w3.org/1999/xlink" x="0px" y="0px"
	 viewBox="0 0 1000 1000" style="enable-background:new 0 0 1000 1000;" xml:space="preserve">
<path id="Shape_00000040541709403781856770000002505458042668340373_" style="fill:#F7CF57;" d="M346.5,846.8
	c2.4-3.5,3.7-7.6,3.7-11.8c0-6-2.1-11.2-6.3-15.4s-9.3-6.3-15.4-6.3h-27v67.5h11.1v-24.6h13.1l14.3,24.6h12.1l-15.3-26.2
	C340.7,853,344.1,850.3,346.5,846.8L346.5,846.8L346.5,846.8z M328.5,846.3h-15.9v-22.6h15.9c2.9,0,5.6,1.2,7.5,3.3
	c4.1,4.5,4.1,11.5,0,16C334.1,845.1,331.4,846.3,328.5,846.3L328.5,846.3z M407.1,851.7c-1.1-1.2-2.3-2.3-3.5-3.4
	c-1.1-0.9-2.7-1.8-4.9-2.7c-2.2-0.9-3.8-1.6-5-2c-1.2-0.4-3.1-1-5.6-1.9c-5.1-1.6-8.7-3.1-10.7-4.6c-1.9-1.4-3-3.6-2.9-5.9
	c0-2.6,1-4.6,2.9-6.1s4.5-2.3,7.7-2.3c6.6,0,11.3,3.2,14.2,9.4l9.4-5.4c-2-4.4-5.3-8.2-9.4-10.9c-4-2.6-8.8-4-14.2-4
	c-6,0-11.1,1.8-15.3,5.3c-4.2,3.5-6.4,8.2-6.4,14.2c0,3,0.5,5.7,1.6,7.9c1.1,2.3,2.8,4.2,5,5.6c2,1.4,4.1,2.6,6.3,3.5
	c2.6,1,5.2,1.9,7.8,2.7c5.7,1.7,9.7,3.3,12,4.8c2.2,1.4,3.4,3.6,3.4,6.3c0.1,2.5-1.1,4.9-3.1,6.4c-2.1,1.6-5.2,2.5-9.4,2.5
	c-8.5,0-14.1-3.8-16.8-11.4l-9.5,5.6c1.7,5,5,9.3,9.5,12.2c4.5,3,10,4.4,16.5,4.4c7.1,0,12.9-1.8,17.3-5.4c4.4-3.6,6.6-8.4,6.6-14.5
	c0-2-0.2-4-0.8-5.9C409.2,854.6,408.3,853,407.1,851.7L407.1,851.7z M418.7,823.9h19.1v56.9h11.1v-56.9h19v-10.6h-49.2L418.7,823.9
	L418.7,823.9z M210.1,880.8h13.7V847h33.9v-13.1h-33.9v-23.3h35.1v-13.1h-48.8L210.1,880.8L210.1,880.8z M272.4,880.8h11.1v-67.5
	h-11.1V880.8z M583.5,852h27v-10.5h-27v-17.5h29.4v-10.6h-40.5v67.5h41v-10.6h-29.9L583.5,852L583.5,852z M782,812.1
	c-9.8,0-18,3.4-24.8,10.2c-6.8,6.8-10.2,15.1-10.2,24.8c0,9.8,3.4,18.1,10.2,24.8c6.8,6.8,15.1,10.2,24.8,10.2
	c9.8,0,18-3.4,24.8-10.2s10.2-15.1,10.2-24.8c0-9.8-3.4-18-10.2-24.8C800.1,815.4,791.8,812.1,782,812.1L782,812.1L782,812.1z
	 M799,864.4c-4.6,4.6-10.3,6.9-17,6.9c-6.7,0-12.4-2.3-17-6.9c-4.6-4.6-6.9-10.4-6.9-17.3s2.3-12.7,6.9-17.3
	c4.6-4.6,10.3-6.9,17-6.9c6.8,0,12.4,2.3,17,6.9c4.6,4.6,6.9,10.4,6.9,17.3C805.9,854,803.6,859.8,799,864.4L799,864.4z
	 M673.3,846.8c2.4-3.5,3.7-7.6,3.7-11.8c0-6-2.1-11.2-6.3-15.4s-9.3-6.3-15.4-6.3h-27v67.5h11.1v-24.6h13.1l14.3,24.6h12.1
	l-15.3-26.2C667.5,853,670.9,850.3,673.3,846.8L673.3,846.8z M655.3,846.3h-15.9v-22.6h15.9c2.9,0,5.6,1.2,7.5,3.3
	c4.1,4.5,4.1,11.5,0,16C660.9,845.1,658.1,846.3,655.3,846.3L655.3,846.3L655.3,846.3z M733.9,851.7c-1.1-1.2-2.3-2.3-3.5-3.4
	c-1.1-0.9-2.7-1.8-4.9-2.7c-2.2-0.9-3.8-1.6-5-2c-1.2-0.4-3.1-1-5.6-1.9c-5.1-1.6-8.7-3.1-10.7-4.6c-1.9-1.4-3-3.6-2.9-5.9
	c0-2.6,1-4.6,2.9-6.1c1.9-1.5,4.5-2.3,7.7-2.3c6.6,0,11.3,3.2,14.2,9.4l9.4-5.4c-2-4.4-5.3-8.2-9.4-10.9c-4-2.6-8.8-4-14.2-4
	c-6,0-11.1,1.8-15.3,5.3c-4.2,3.5-6.4,8.2-6.4,14.2c0,3,0.5,5.7,1.6,7.9c1.1,2.3,2.8,4.2,5,5.6c2,1.4,4.1,2.6,6.3,3.5
	c2.6,1,5.2,1.9,7.8,2.7c5.7,1.7,9.7,3.3,12,4.8c2.2,1.4,3.4,3.6,3.4,6.3c0.1,2.5-1.1,4.9-3.1,6.4c-2.1,1.6-5.2,2.5-9.4,2.5
	c-8.5,0-14.1-3.8-16.8-11.4l-9.5,5.6c1.7,5,5,9.3,9.5,12.2c4.5,3,10,4.4,16.5,4.4c7.1,0,12.9-1.8,17.3-5.4c4.4-3.6,6.6-8.4,6.6-14.5
	c0-2-0.2-4-0.8-5.9C736,854.6,735.1,853,733.9,851.7L733.9,851.7L733.9,851.7z M533.3,797.6h-30.7v83.3h13.7v-28.5h17
	c7.8,0,14.4-2.6,19.7-7.9c5.3-5.3,7.9-11.8,7.9-19.4c0-7.8-2.6-14.3-7.9-19.5C547.8,800.2,541.2,797.6,533.3,797.6L533.3,797.6z
	 M543.3,835.3c-2.6,2.7-5.9,4.1-10,4.1h-17v-29h17c4,0,7.4,1.4,10,4.1c2.6,2.7,3.9,6.2,3.9,10.4C547.3,829.1,546,832.6,543.3,835.3
	L543.3,835.3L543.3,835.3z M871.8,813.3v45.8L840,813.3h-8.7v67.5h11.1V835l31.8,45.8h8.7v-67.5L871.8,813.3L871.8,813.3z"/>
<path id="Path-5_00000070797526694466132510000000040002632244785069_" style="fill-rule:evenodd;clip-rule:evenodd;fill:#F7CF57;" d="
	M96.2,779.8c33.1-17.7,75.9,1,79.2,46C113.9,830.6,106.5,803,96.2,779.8z"/>
<path id="Path-7_00000149367024305364704460000002479639474513150353_" style="fill-rule:evenodd;clip-rule:evenodd;fill:#F7CF57;" d="
	M99.7,891.7c33.1,17.7,75.9-1,79.2-46C117.4,840.8,110,868.5,99.7,891.7z"/>
<polygon style="fill:#F7CF57;" points="646.2,234.5 645.5,215.6 629,225.4 614,217.3 642.9,201.1 640.7,171.1 655.8,179.2 
	656.4,195.7 670.6,187.1 685.2,194.9 659,209.7 661.4,242.7 "/>
<polygon style="fill:#F7CF57;" points="585.3,202 565.6,191.4 627.1,146.7 593.3,128.4 601.6,113 653.5,141 645.8,155.3 "/>
<polygon style="fill:#F7CF57;" points="397.8,214.1 382.7,204.2 381.3,222.3 366.9,229.5 370.1,198.3 345.7,183.6 360.2,176.3 
	373.3,184.9 374.4,169.2 388.5,162.2 385.6,190.5 412.5,206.7 "/>
<path style="fill:#F7CF57;" d="M315.9,255.1l-7.2-14.3l12.5-38.2c0.7-2.3,1.1-4.7,1.2-7.1c0.1-2.3-0.4-4.6-1.5-6.7
	c-1-2.4-3-4.2-5.3-5.2c-2.3-0.9-4.9-0.7-7.1,0.5c-2.5,1.2-4.2,3.5-4.8,6.2c-0.2,2.2,0.3,4.5,1.3,6.5l-16.1,8
	c-1.4-3.6-2.2-7.4-2.2-11.2c0-3.4,0.6-6.9,1.8-10.1c1.2-3.1,3-6,5.2-8.4c2.3-2.5,5.1-4.6,8.2-6.1c2.9-1.5,6.1-2.5,9.4-3
	c3.2-0.5,6.4-0.4,9.5,0.3c3.2,0.8,6.2,2.3,8.7,4.3c2.9,2.4,5.3,5.4,6.9,8.8c1.2,2.4,2.1,4.9,2.6,7.5c0.4,2.3,0.6,4.7,0.4,7
	c-0.2,2.3-0.6,4.6-1.2,6.8c-0.6,2.2-1.3,4.4-2,6.7l-7.5,22.4l26.5-13.2l7.5,14.9L315.9,255.1z"/>
<path style="fill:#F7CF57;" d="M481.3,502.2c8-0.1,16.2-0.1,24.6-0.1c220.2,0.7,331.9,27.2,373.4,40.1c5,1.4,9.1,4.8,11.4,9.5
	c2.3,4.6,2.4,10,0.5,14.8l-75.3,170.1c-3,6.6-9.6,10.8-16.8,10.8c-1.5,0-3-0.1-4.5-0.5c-39.2-8.8-151.8-30.5-308.4-29.3
	c-145.3,1.1-259.8,21.7-299.5,29.8c-1.2,0.3-2.5,0.4-3.8,0.4c-7.4,0.1-14.2-4.2-17.2-10.9L95,572.6c-1.9-4.7-1.7-10.1,0.6-14.7
	c2.2-4.6,6.3-8,11.2-9.4C150.5,534.5,270,503.8,481.3,502.2 M481.2,495.9c-91.9,0.7-176.3,7-250.9,18.6
	c-61,9.5-101.9,20.5-125.5,28.1c-6.7,2.1-12.2,6.8-15.4,13.1c-3,6.1-3.2,13.2-0.6,19.4l70.6,164.2c4.1,9.2,13.2,15,23.2,14.8
	c1.7,0,3.4-0.2,5.1-0.5c41.9-8.6,154.7-28.6,298.3-29.7c154.9-1.2,266.2,20,306.9,29.2c2,0.4,4,0.7,6,0.6c9.8,0,18.7-5.7,22.8-14.6
	L897.1,569c2.8-6.3,2.6-13.5-0.5-19.6c-3.2-6.3-8.8-11.1-15.5-13.1c-21.8-6.8-60.4-16.6-120.9-24.9c-72.8-10-158.4-15.2-254.4-15.5
	C497.6,495.9,489.3,495.9,481.2,495.9L481.2,495.9z"/>
<path style="fill:#F7CF57;" d="M286.8,284.1c-26.3-25-58-35.5-94.2-35.5l-55.2,0.1v273.7c0,0,23.4-0.2,60.2-7.3
	c36.8-7.1,65.5-17.7,90.8-44.1c24.8-25.2,38.6-59.3,38.2-94.7C326.6,340.4,313.2,309.2,286.8,284.1z M259.8,442.1
	c-32.7,33.5-83,35.8-83,35.8V290.8h24.7c22.2-0.3,43.4,9,58.3,25.4c16,17,23,36.3,23,60.7C282.8,402.3,276.2,425.4,259.8,442.1z"/>
<polygon style="fill:#F7CF57;" points="555.8,489.8 465.4,489.8 465.7,248 547.5,248.2 547.5,276.7 498.4,276.7 498.4,327.4 
	556,327.4 556,355.8 498.4,355.8 498.4,461.8 556,461.8 "/>
<polygon style="fill:#F7CF57;" points="692.7,267.2 723.8,267.2 769.1,389.6 769.7,389.6 814.7,248.3 847,248.3 847,520.5 
	813.8,513.8 813.6,357.8 769.3,478.4 725.4,357.3 725.5,500.8 692.9,497.5 "/>
<path style="fill:#F7CF57;" d="M609.3,286.9h37l45.1,215.2l-36.4-3l-9.9-48.2h-39.6l-9.4,45l-34.4-0.9L609.3,286.9z M625.4,354.5
	l-14.7,70.2h29.5L625.4,354.5z"/>
<path style="fill:#F7CF57;" d="M523.5,507.3c-10.9-6.6-29.3-4.7-29.3-4.7l-5.8,13.1c0,0,25.2-0.3,25.7,14.7
	c0.2,4.5-2.4,12.5-13.8,12.9c-9.6,0.4-13.9-1.5-21.1-8.4c-6.2-6-11.4-18.7-15.5-32.8c-6.6-22.5-11.6-49.9-18.9-63
	c-11-19.6-15.1-19.4-20.9-25c10.3-4.7,19.5-11.5,26.9-20.1c11.1-12.5,16.7-26.4,16.7-41.2c0-18.7-8.2-33-24.9-46.5
	c-15.6-12.6-34.7-17.4-58.3-17.4l-51.9,0.3v211.6l32.9-2.5v-72.6h19.1c12.7,0,21.6,7.2,28.9,20.2c7.3,12.9,11.3,29.4,20.1,63.6
	c9.2,35.2,28.2,55.8,64.7,55.8c24.5,0,37.8-15.6,38.1-34.8C536.3,521.3,532.7,513.6,523.5,507.3z M435.4,353.5
	c0.2,13.3-5.2,26.1-14.9,35.2c-10.6,10-22.5,16.1-36.2,16.1H365v-93.1h18.1c16.3,0,29.4,3.1,39.2,11.9
	C430.9,331.1,435.7,342.1,435.4,353.5L435.4,353.5z"/>
<g transform="translate(48.042 283.199)">
	<path style="fill:#F7CF57;" d="M232.7,361c-4.4,0.8-8.8,1.4-13.3,1.7c-4,0.2-8-0.3-11.9-1.3c-3.4-0.9-6.6-2.6-9.3-4.9
		c-2.7-2.5-4.6-5.7-5.4-9.2c-1-3.1-0.8-6.5,0.4-9.6c1.1-2.7,2.9-5,5.3-6.8c2.4-1.8,5.2-3,8.1-3.7c2.9-0.7,5.9-0.9,8.9-0.4
		c2.8,0.4,5.4,1.6,7.6,3.3c2.2,1.8,3.7,4.3,4.3,7c0.9,4.2,0.4,7.5-1.6,9.7c-2.1,2.2-4.8,3.7-7.8,4.2c-2.9,0.6-5.9,0.4-8.6-0.5
		c-2.6-0.9-4.4-3.1-4.9-5.8c-0.3-1.3-0.4-2.6-0.1-3.9c0.3-1.1,0.7-2,1.3-2.9c0.6-0.8,1.3-1.5,2.2-1.9c0.8-0.4,1.7-0.7,2.6-0.9
		c1.5-0.4,3.1-0.2,4.5,0.4c1.3,0.7,2.2,1.9,2.5,3.3c0.4,1.2,0.1,2.5-0.9,3.4c-1,0.8-2.3,1-3.6,0.8c-0.9-0.1-1.7-0.8-2-1.7
		c-0.3-0.9-0.3-2,0.1-2.9c-0.9,0.3-1.6,0.9-2.2,1.6c-0.6,0.9-0.7,2-0.5,3.1c0.2,1.6,1,3,2.3,4c1.2,1,3.4,1.1,6.2,0.5
		c1.3-0.2,2.4-0.7,3.4-1.5c0.7-0.7,1.4-1.6,1.8-2.6c0.4-0.9,0.6-1.8,0.6-2.7c0-0.7,0-1.5-0.1-2.2c-0.2-0.8-0.4-1.7-0.8-2.5
		c-0.5-1.2-1.3-2.2-2.2-3c-1.2-1-2.7-1.8-4.2-2.3c-2.2-0.6-4.5-0.8-6.8-0.5c-2.4,0.2-4.8,1-6.8,2.3c-1.5,1.1-2.8,2.5-3.7,4.1
		c-0.8,1.5-1.3,3.2-1.4,4.8c-0.1,1.4-0.1,2.9,0.2,4.3c0.5,2.4,1.8,4.5,3.5,6.1c2.1,1.9,4.7,3.1,7.5,3.7c3.8,0.8,7.6,1.1,11.4,0.8
		c4.5-0.2,13.3-0.7,15.3-2.6c1.5-1.4,2-7.7,3-11.7c0.9-4,1.8-8,2.6-11.9s1.4-7.7,1.9-11.4c0.5-3.3,0.7-6.7,0.8-10.1
		c0.1-7.2-1.5-12.7-4.6-16.5c-3-3.7-7.8-5.5-12.5-4.8c0.1-1.5,0.1-2.2,0.1-3.7c2,0,4.9-0.1,8.6-0.2s7.8-0.3,12.2-0.6
		c4.4-0.3,8.8-0.7,13.2-1.3c4-0.5,7.9-1.2,11.8-2.3c0.2,0.9,0.2,1.3,0.4,2.2c-1.4,0.5-2.7,1-3.8,1.5c-1,0.4-2,1-2.8,1.8
		c-0.7,0.7-1.2,1.6-1.4,2.6c-0.2,1.3,0,2.6,0.6,3.7c0.6,1.5,1.7,4.5,3.1,8.9c1.5,4.4,3.2,9.6,5.3,15.5c2,5.9,4.3,12.4,6.8,19.2
		c2.5,6.9,5.1,13.4,7.8,19.7c2.7,6.3,5.3,11.8,7.9,16.6c2.1,4.1,4.6,8,7.4,11.6c1.8,2.5,4.3,4.5,7,5.9c2.2,1,4.8,0.9,6.9-0.3
		c1.2-0.8,2.2-1.8,3-2.9c0.8-1.3,1.4-2.7,1.8-4.1c0.5-2,0.7-4.1,0.6-6.1l2.3-0.6c0.6,1.8,0.8,3.8,0.7,5.7c-0.1,2.4-0.5,4.7-1.2,7
		c-0.8,2.3-2,4.5-3.6,6.3c-1.8,1.9-4.1,3.1-6.7,3.6c-2.5,0.5-5.1,0.6-7.7,0.3c-3.2-0.3-6.3-1.5-8.9-3.3c-3.7-2.6-6.8-5.9-9.3-9.6
		c-3.8-5.8-6.8-12-8.9-18.6c-0.8-2.3-1.5-4.6-2.3-6.8s-1.5-4.4-2.3-6.5c-3,0.5-7.1,1.2-12.2,2.1c-5.1,0.9-10.5,1.9-16,3
		c-0.8,6.1-1.2,11.5-1.4,16.2c-0.1,2.3-0.1,4.7,0.2,7c0.2,1.5,0.7,2.9,1.4,4.2c0.7,1,1.7,1.8,2.8,2.3c1.5,0.6,3.1,1,4.7,1.2l0.2,3
		c-2.6-0.1-5.3,0-7.9,0.3c-3.5,0.4-7.3,1-11.2,1.8c-3.9,0.8-7.7,1.8-11.5,3c-3.1,0.9-6,2.3-8.6,4c-0.8-1.8-1.2-2.7-2-4.6
		c1.6-1,3.3-1.9,5-2.6c1.3-0.5,2.5-1.2,3.6-2c1.1-0.9,2-2,2.7-3.3c1-2,1.8-4,2.3-6.2c0.6-2,1.5-4.8,2.5-8.5
		c1.5-4.1,2.7-8.4,3.7-12.6L232.7,361z M256.1,297.8c-0.5,3.1-1.2,6.7-2,10.8c-0.8,4.1-1.6,8.5-2.5,13.1c-0.8,4.6-1.6,9.4-2.5,14.4
		c-0.8,5-1.5,9.8-2.2,14.6c4.8-1.3,9.3-2.4,13.6-3.3c4.3-0.9,8-1.6,11.2-2.1c-3.5-9.9-6.6-18.7-9.4-26.6
		C259.7,310.7,257.6,303.8,256.1,297.8z"/>
	<path style="fill:#F7CF57;" d="M271.6,279.3c0.2,0.9,0.2,1.3,0.4,2.2c-1.4,0.5-2.7,1-3.8,1.5c-1,0.4-2,1-2.8,1.8
		c-0.7,0.7-1.2,1.6-1.4,2.6c-0.2,1.3,0,2.6,0.6,3.7c0.6,1.5,1.7,4.5,3.1,8.9c1.5,4.4,3.2,9.6,5.3,15.5c2,5.9,4.3,12.4,6.8,19.2
		c2.5,6.9,5.1,13.4,7.8,19.7c2.7,6.3,5.3,11.8,7.9,16.6c2.1,4.1,4.6,8,7.4,11.6c1.8,2.5,4.3,4.5,7,5.9c1,0.4,2,0.7,3.1,0.7
		c1.3,0,2.7-0.4,3.8-1c1.2-0.8,2.2-1.8,3-2.9c0.8-1.3,1.4-2.7,1.8-4.1c0.5-2,0.7-4.1,0.6-6.1l2.3-0.6c0.6,1.8,0.8,3.8,0.7,5.7
		c-0.1,2.4-0.5,4.7-1.2,7c-0.8,2.3-2,4.5-3.6,6.3c-1.8,1.9-4.1,3.1-6.7,3.6c-1.7,0.3-3.4,0.5-5.1,0.5c-0.9,0-1.7,0-2.7-0.1
		c-3.2-0.3-6.3-1.5-8.9-3.3c-3.7-2.6-6.8-5.9-9.3-9.6c-3.8-5.8-6.8-12-8.9-18.6c-0.8-2.3-1.5-4.6-2.3-6.8c-0.8-2.2-1.5-4.4-2.3-6.5
		c-3,0.5-7.1,1.2-12.2,2.1c-5.1,0.9-10.5,1.9-16,3c-0.8,6.1-1.2,11.5-1.4,16.2c-0.1,2.3-0.1,4.7,0.2,7c0.2,1.5,0.7,2.9,1.4,4.2
		c0.7,1,1.7,1.8,2.8,2.3c1.5,0.6,3.1,1,4.7,1.2l0.2,3c-0.5,0-1.1-0.1-1.8-0.1c-2.1,0-4.1,0.2-6.2,0.4c-3.5,0.4-7.3,1-11.2,1.8
		c-3.9,0.8-7.7,1.8-11.5,3c-3.1,0.9-6,2.3-8.6,4c-0.8-1.8-1.2-2.7-2-4.6c1.6-1,3.3-1.9,5-2.6c1.3-0.5,2.5-1.2,3.6-2
		c1.1-0.9,2-2,2.7-3.3c1-2,1.8-4,2.3-6.2c0.6-2,1.5-4.8,2.5-8.5c1.5-4.1,2.7-8.4,3.7-12.6l-0.2,0c-4.4,0.8-8.8,1.4-13.3,1.7
		c-0.6,0-1.1,0-1.7,0c-3.5,0-6.9-0.4-10.3-1.3c-3.4-0.9-6.6-2.6-9.3-4.9c-2.7-2.5-4.6-5.7-5.4-9.2c-1-3.1-0.8-6.5,0.4-9.6
		c1.1-2.7,2.9-5,5.3-6.8c2.4-1.8,5.2-3,8.1-3.7c1.8-0.4,3.7-0.7,5.5-0.7c1.1,0,2.3,0.1,3.4,0.3c2.8,0.4,5.4,1.6,7.6,3.3
		c2.2,1.8,3.7,4.3,4.3,7c0.9,4.2,0.4,7.5-1.6,9.7c-2.1,2.2-4.8,3.7-7.8,4.2c-1.2,0.2-2.4,0.3-3.6,0.4c-1.7,0-3.4-0.3-5-0.8
		c-2.6-0.9-4.4-3.1-4.9-5.8c-0.3-1.3-0.4-2.6-0.1-3.9c0.3-1.1,0.7-2,1.3-2.9c0.6-0.8,1.3-1.5,2.2-1.9c0.8-0.4,1.7-0.7,2.6-0.9
		c0.6-0.1,1.3-0.2,1.9-0.2c0.9,0,1.8,0.2,2.6,0.6c1.3,0.7,2.2,1.9,2.5,3.3c0.4,1.2,0.1,2.5-0.9,3.4c-0.7,0.6-1.7,0.9-2.6,0.9
		c-0.3,0-0.7,0-1-0.1c-0.9-0.1-1.7-0.8-2-1.7c-0.3-0.9-0.3-2,0.1-2.9c-0.9,0.3-1.6,0.9-2.2,1.6c-0.6,0.9-0.7,2-0.5,3.1
		c0.2,1.6,1,3,2.3,4c0.9,0.6,2,0.9,3.1,0.9c1,0,2-0.1,3-0.3c1.3-0.2,2.4-0.7,3.4-1.5c0.7-0.7,1.4-1.6,1.8-2.6
		c0.4-0.9,0.6-1.8,0.6-2.7c0-0.7,0-1.5-0.1-2.2c-0.2-0.8-0.4-1.7-0.8-2.5c-0.5-1.2-1.3-2.2-2.2-3c-1.2-1-2.7-1.8-4.2-2.3
		c-1.4-0.4-2.9-0.7-4.5-0.6c-0.8,0-1.6,0-2.4,0.1c-2.4,0.2-4.8,1-6.8,2.3c-1.5,1.1-2.8,2.5-3.7,4.1c-0.8,1.5-1.3,3.2-1.4,4.8
		c-0.1,1.4-0.1,2.9,0.2,4.3c0.5,2.4,1.8,4.5,3.5,6.1c2.1,1.9,4.7,3.1,7.5,3.7c2.8,0.6,5.7,0.9,8.6,0.9c0.9,0,1.9,0,2.9-0.1
		c4.5-0.2,13.3-0.7,15.3-2.6c1.5-1.4,2-7.7,3-11.7c0.9-4,1.8-8,2.6-11.9c0.8-3.9,1.4-7.7,1.9-11.4c0.5-3.3,0.7-6.7,0.8-10.1
		c0.1-7.2-1.5-12.7-4.6-16.5c-2.6-3.2-6.5-5-10.6-4.9c-0.6,0-1.3,0-1.9,0.1c0.1-1.5,0.1-2.2,0.1-3.7h0.1c2,0,4.9-0.1,8.6-0.2
		c3.7-0.1,7.8-0.3,12.2-0.6c4.4-0.3,8.8-0.7,13.2-1.3C263.8,281.1,267.7,280.4,271.6,279.3 M247,350.6c4.8-1.3,9.3-2.4,13.6-3.3
		c4.3-0.9,8-1.6,11.2-2.1c-3.5-9.9-6.6-18.7-9.4-26.6s-4.9-14.8-6.3-20.8c-0.5,3.1-1.2,6.7-2,10.8c-0.8,4.1-1.6,8.4-2.5,13.1
		c-0.8,4.6-1.6,9.4-2.5,14.4C248.4,341,247.6,345.9,247,350.6 M272.2,278.2l-0.9,0.3c-3.8,1.1-7.7,1.9-11.6,2.3
		c-4.3,0.5-8.8,1-13.2,1.3c-4.4,0.3-8.5,0.5-12.2,0.6c-3.9,0.1-6.6,0.2-8.5,0.2l-0.9,0l0,0.8l-0.1,3.7l0,0.9l0.9-0.1
		c0.6-0.1,1.2-0.1,1.8-0.1c3.9-0.1,7.5,1.6,10,4.6c3,3.6,4.5,8.9,4.4,15.9c-0.1,3.3-0.3,6.7-0.8,10c-0.5,3.6-1.1,7.5-1.9,11.3
		c-0.8,3.9-1.6,7.9-2.5,11.9c-0.3,1.2-0.5,2.7-0.8,4.1c-0.5,2.9-1.1,6.4-2,7.2c-1.2,1.1-6.2,1.9-14.7,2.3c-1,0-1.9,0.1-2.8,0.1
		c-2.8,0-5.6-0.3-8.4-0.9c-2.6-0.5-5.1-1.8-7.1-3.5c-1.7-1.5-2.8-3.5-3.3-5.7c-0.3-1.3-0.4-2.7-0.2-4c0.2-1.6,0.6-3.1,1.4-4.5
		c0.8-1.5,2-2.9,3.4-3.8c1.9-1.3,4.1-2,6.4-2.2c0.8-0.1,1.5-0.1,2.3-0.1c1.4,0,2.8,0.2,4.2,0.6c1.4,0.4,2.8,1.2,4,2.1
		c0.9,0.7,1.6,1.7,2,2.7c0.3,0.7,0.6,1.5,0.7,2.3c0.1,0.7,0.1,1.4,0.1,2.1c0,0.8-0.2,1.7-0.6,2.4c-0.4,0.9-0.9,1.6-1.6,2.3
		c-0.8,0.7-1.9,1.2-2.9,1.3c-1,0.2-1.9,0.3-2.9,0.3c-0.9,0.1-1.8-0.2-2.6-0.7c-1.1-0.9-1.8-2.1-2-3.5c-0.2-0.8-0.1-1.7,0.3-2.5
		c0.1-0.1,0.2-0.3,0.3-0.4c0,0.5,0.1,1,0.3,1.5c0.3,1.2,1.4,2.1,2.6,2.3c0.4,0.1,0.7,0.1,1.1,0.1c1.1,0,2.2-0.3,3.1-1
		c1.2-1,1.7-2.7,1.2-4.2c-0.4-1.6-1.5-3-3-3.8c-0.9-0.4-1.9-0.7-3-0.6c-0.7,0-1.4,0.1-2.1,0.2c-1,0.2-2,0.5-2.8,1
		c-1,0.5-1.8,1.3-2.5,2.2c-0.7,1-1.1,2.1-1.4,3.2c-0.3,1.4-0.3,2.9,0.1,4.3c0.5,2.9,2.6,5.4,5.4,6.4c1.7,0.6,3.5,0.9,5.3,0.9
		c1.3,0,2.5-0.1,3.8-0.4c3.2-0.5,6.1-2.1,8.3-4.5c2.2-2.4,2.8-5.9,1.8-10.4c-0.6-3-2.2-5.6-4.6-7.5c-2.3-1.8-5-3-7.9-3.4
		c-1.2-0.2-2.3-0.3-3.5-0.3c-1.9,0-3.8,0.2-5.7,0.7c-3,0.7-5.9,2-8.4,3.9c-2.4,1.8-4.4,4.3-5.5,7.1c-1.3,3.2-1.4,6.8-0.4,10.1
		c0.9,3.7,2.8,7,5.6,9.6c2.8,2.4,6.1,4.2,9.6,5.1c3.4,0.9,7,1.4,10.5,1.3c0.6,0,1.1,0,1.7,0c3.3-0.2,6.5-0.6,9.8-1.1
		c0.8-0.1,1.7-0.3,2.6-0.4c-0.6,2.6-1.4,5.3-2.3,7.8c-0.4,1.2-0.8,2.4-1.2,3.6c-0.6,2.2-1.2,4.1-1.7,5.7c-0.3,1-0.6,2-0.8,2.7
		c-0.5,2.1-1.3,4.1-2.2,6c-0.6,1.2-1.5,2.2-2.5,3.1c-1,0.8-2.2,1.4-3.4,1.9c-1.8,0.8-3.5,1.7-5.2,2.7l-0.6,0.4l0.3,0.7
		c0.8,1.8,1.2,2.7,2,4.6l0.4,0.9l0.8-0.6c2.6-1.7,5.4-3.1,8.4-3.9c3.8-1.2,7.6-2.2,11.4-3c3.9-0.8,7.6-1.4,11.1-1.8
		c2-0.2,4-0.4,6.1-0.4c0.6,0,1.2,0,1.7,0.1l1,0.1l-0.1-1l0-0.3l-0.2-2.6l0-0.6l-0.6-0.1c-1.5-0.2-3.1-0.6-4.5-1.2
		c-1-0.4-1.9-1.1-2.5-1.9c-0.7-1.2-1.1-2.5-1.3-3.9c-0.3-2.3-0.4-4.5-0.2-6.8c0.2-4.7,0.7-9.9,1.4-15.5c5.2-1,10.4-2,15.4-2.9
		c3.5-0.6,6.5-1.1,9-1.6l2.5-0.4c0.7,1.9,1.4,3.8,2,5.9c0.8,2.2,1.5,4.5,2.3,6.8c2.2,6.6,5.2,13,9,18.8c2.5,3.8,5.8,7.2,9.5,9.8
		c2.8,1.9,6,3.1,9.3,3.5c0.9,0.1,1.8,0.1,2.7,0.1c1.8,0,3.5-0.1,5.2-0.5c2.7-0.4,5.2-1.8,7.1-3.8c1.7-1.9,3-4.1,3.8-6.6
		c0.8-2.3,1.2-4.8,1.2-7.2c0.1-2-0.2-4-0.7-6l-0.2-0.7l-0.7,0.2l-2.1,0.5l-0.1,0l-0.6,0.2l0,0.7c0.1,2-0.1,4-0.6,5.9
		c-0.4,1.4-1,2.7-1.7,3.9c-0.7,1.1-1.7,2-2.7,2.7c-1,0.6-2.2,0.9-3.4,0.9c-1,0-1.9-0.2-2.8-0.6c-2.7-1.3-5-3.3-6.7-5.7
		c-2.8-3.6-5.2-7.4-7.3-11.5c-2.5-4.7-5.1-10.3-7.8-16.5c-2.7-6.3-5.3-12.9-7.8-19.7c-2.6-7.2-4.9-13.4-6.8-19.2
		c-2.3-6.8-3.9-11.6-5.3-15.5c-1.5-4.6-2.5-7.5-3.1-9c-0.5-1-0.7-2.1-0.5-3.2c0.2-0.8,0.6-1.6,1.1-2.2c0.7-0.7,1.6-1.2,2.5-1.6
		c1.2-0.5,2.5-1,3.8-1.5l0.6-0.2l-0.1-0.7l-0.2-1.3l-0.2-0.9L272.2,278.2L272.2,278.2z M248,349.5c0.6-4.4,1.3-8.9,2-13.3
		c0.8-4.9,1.6-9.7,2.5-14.4c0.8-4.5,1.6-8.9,2.5-13.1c0.5-2.5,1-4.9,1.3-7.1c1.4,5,3.2,10.7,5.4,17.2c2.6,7.4,5.5,15.7,9.1,25.7
		c-3.1,0.5-6.6,1.2-10.3,2C256.5,347.4,252.3,348.3,248,349.5L248,349.5z"/>
	<path style="fill:#F7CF57;" d="M303.8,296.4c-0.5-7.1-1.9-14.2-4.1-20.9c6.5-0.1,13.2-0.2,20.2-0.3c7,0,14.2-0.2,21.6-0.4
		c7.5-0.2,15.1-0.7,22.9-1.4c7.8-0.7,15.9-1.1,24.1-2.5c-1.7,14.2-3.4,28.2-5,42.9l-3.2,0.1c0.3-5.9,0.6-10.2,0.7-14.4
		c0.3-3.8-0.4-7.6-1.9-11.1c-1.7-3.3-4.5-5.9-8-7.3c-5.6-2-11.5-3-17.4-2.8c-0.9,6.5-1.4,13.2-1.4,19.8c0,7.3,0.2,14.6,0.7,22
		c0.5,7.4,1.2,14.5,2.1,21.3c0.7,5.8,1.8,11.6,3.1,17.4c0.8,3.6,2.1,7,3.8,10.2c1.3,2.3,2.9,4.4,4.8,6.2c1.6,1.5,3.5,2.6,5.5,3.4
		c1.9,0.7,3.8,1.3,5.6,1.8c-0.5,1.3-0.7,2-1.2,3.3c-3.7-1.1-7.6-1.8-11.5-1.9c-4.3-0.2-8.6-0.1-12.9,0.4c-3.9,0.4-7.8,1.1-11.7,2.1
		c-2.8,0.6-5.6,1.6-8.2,3c-0.6-1.5-0.9-2.3-1.5-3.9c1.8-1.1,3.4-2.3,5-3.6c1.7-1.5,3.1-3.3,4.1-5.3c1.3-2.6,2.3-5.4,2.8-8.2
		c0.7-4.1,1-8.2,0.9-12.3c-0.1-3.1-0.3-6.8-0.6-11s-0.7-8.8-1.2-13.6c-0.5-4.8-1-9.7-1.6-14.6c-0.6-4.9-1.1-9.7-1.7-14.2
		c-0.6-4.5-1.2-8.6-1.7-12.2c-0.6-3.7-1-6.6-1.4-8.9c-5.4,0.6-10.6,2-15.5,4.2c-3.3,1.5-6.2,4-8.1,7.1c-1.8,3.1-2.9,6.6-3.1,10.2
		c-0.3,4.6-0.4,9.3-0.1,13.9c-1.8,0.5-2.6,0.8-4.4,1.3C304.5,309.6,304.3,303,303.8,296.4z"/>
	<path style="fill:#F7CF57;" d="M388.6,270.9c-1.7,14.2-3.4,28.2-5,42.9l-3.2,0.1c0.3-5.9,0.6-10.2,0.7-14.4
		c0.3-3.8-0.4-7.6-1.9-11.1c-1.7-3.3-4.5-5.9-8-7.3c-5.6-2-11.5-3-17.4-2.8c-0.9,6.5-1.4,13.2-1.4,19.8c0,7.3,0.2,14.6,0.7,22
		c0.5,7.4,1.2,14.5,2.1,21.3c0.7,5.8,1.8,11.6,3.1,17.4c0.8,3.6,2.1,7,3.8,10.2c1.3,2.3,2.9,4.4,4.8,6.2c1.6,1.5,3.5,2.6,5.5,3.4
		c1.9,0.7,3.8,1.3,5.6,1.8c-0.5,1.3-0.7,2-1.2,3.3c-3.7-1.1-7.6-1.8-11.5-1.9c-1.4-0.1-2.7-0.1-4.1-0.1c-3,0-5.9,0.2-8.8,0.5
		c-3.9,0.4-7.8,1.1-11.7,2.1c-2.8,0.6-5.6,1.6-8.2,3c-0.6-1.5-0.9-2.3-1.5-3.9c1.8-1.1,3.4-2.3,5-3.6c1.7-1.5,3.1-3.3,4.1-5.3
		c1.3-2.6,2.3-5.4,2.8-8.2c0.7-4.1,1-8.2,0.9-12.3c-0.1-3.1-0.3-6.8-0.6-11s-0.7-8.8-1.2-13.6c-0.5-4.8-1-9.7-1.6-14.6
		c-0.6-4.9-1.1-9.7-1.7-14.2c-0.6-4.5-1.2-8.6-1.7-12.2c-0.6-3.7-1-6.6-1.4-8.9c-5.4,0.6-10.6,2-15.5,4.2c-3.3,1.5-6.2,4-8.1,7.1
		c-1.8,3.1-2.9,6.6-3.1,10.2c-0.3,4.6-0.4,9.3-0.1,13.9c-1.8,0.5-2.6,0.8-4.4,1.3c0-6.6-0.3-13.2-0.7-19.8
		c-0.5-7.1-1.9-14.2-4.1-20.9c6.5-0.1,13.2-0.2,20.2-0.3c7,0,14.2-0.2,21.6-0.4c7.5-0.2,15.1-0.7,22.9-1.4
		C372.3,272.6,380.3,272.2,388.6,270.9 M389.5,269.9l-1.1,0.2c-6.5,1-12.9,1.6-19.1,2.1c-1.7,0.1-3.3,0.3-4.9,0.4
		c-7.8,0.7-15.5,1.1-22.8,1.4c-7.5,0.2-14.8,0.4-21.6,0.4c-6.8,0-13.6,0.1-20.2,0.3l-1.1,0l0.3,1c2.2,6.7,3.5,13.7,4,20.8
		c0.4,6.6,0.6,13.2,0.7,19.7v1.1l1.1-0.3c1.7-0.5,2.6-0.8,4.4-1.3l0.6-0.2l0-0.6c-0.2-4.6-0.2-9.2,0.1-13.8c0.2-3.5,1.2-6.9,3-9.9
		c1.9-3,4.6-5.3,7.8-6.8c4.6-2.1,9.5-3.4,14.5-4c0.3,2.1,0.8,4.8,1.2,8c0.6,3.7,1.1,7.8,1.7,12.2c0.6,4.4,1.2,9.1,1.7,14.2
		c0.5,4.8,1.1,9.8,1.6,14.6c0.5,4.7,0.9,9.3,1.2,13.5c0.3,4.5,0.5,8.1,0.6,11c0.1,4.1-0.1,8.1-0.8,12.2c-0.5,2.8-1.4,5.5-2.7,8
		c-1,1.9-2.4,3.7-4,5.1c-1.5,1.3-3.1,2.5-4.8,3.5l-0.6,0.4l0.2,0.6c0.6,1.5,0.9,2.3,1.5,3.9l0.3,0.9l0.8-0.5
		c2.5-1.3,5.2-2.3,7.9-2.9c3.8-0.9,7.7-1.6,11.6-2.1c2.9-0.3,5.8-0.5,8.7-0.5c1.3,0,2.7,0,4,0.1c3.8,0.1,7.6,0.8,11.3,1.9l0.8,0.2
		l0.3-0.8l1.2-3.3l0.3-0.8l-0.8-0.2c-1.8-0.5-3.6-1.1-5.5-1.8c-1.9-0.7-3.7-1.8-5.2-3.2c-1.9-1.7-3.4-3.8-4.7-6
		c-1.7-3.2-2.9-6.5-3.7-10c-1.3-5.7-2.4-11.5-3.1-17.3c-0.9-6.8-1.6-14-2.1-21.2c-0.5-7.4-0.8-14.8-0.7-22c0-6.3,0.4-12.7,1.2-18.9
		c5.6-0.2,11.1,0.8,16.4,2.7c3.3,1.3,6,3.7,7.6,6.9c1.5,3.4,2.1,7.1,1.8,10.8c-0.1,2.5-0.3,5.1-0.4,8c-0.1,1.9-0.2,4-0.3,6.3l0,0.9
		l0.9,0l3.2-0.1l0.7,0l0.1-0.7c1.7-16.2,3.6-31.5,5-42.9L389.5,269.9L389.5,269.9z"/>
	<path style="fill:#F7CF57;" d="M681.6,283.9c-0.5,2.1-1.1,4.9-1.9,8.2c-0.8,3.3-1.6,6.8-2.3,10.3c-0.8,3.5-1.4,7-1.9,10.3
		c-0.5,2.6-0.6,5.3-0.4,8c-2-0.1-3.1-0.1-5.1-0.2c1.1-4.6,1.4-9.3,1-14c-0.4-4-2.2-7.7-5.1-10.5c-3.9-3.4-8.6-5.6-13.6-6.6
		c-8-1.7-16.1-2.5-24.3-2.3c-1.9,5.3-3.7,11.4-5.4,18.2c-1.7,6.8-3.3,14.7-4.7,23.6c7.8,2.7,14,3,18.8,0.8s8.4-7,10.7-14.4
		c1.5,0.5,2.3,0.7,3.8,1.2c-0.8,2-1.8,4.6-2.8,7.9c-1.1,3.2-2,6.7-2.9,10.4c-0.9,3.7-1.6,7.5-2.1,11.4c-0.5,3.6-0.7,7.3-0.5,11
		l-3.3,0.7c-0.2-3.1-0.4-6.1-0.8-8.8c-0.3-2.5-1.2-4.9-2.7-6.9c-1.7-2.1-4.1-3.5-6.7-4.1c-4.2-0.9-8.6-1.1-12.9-0.5
		c-0.6,4.9-1.1,10.1-1.7,15.5c-0.6,5.4-1.1,11.2-1.5,17.3c0.4,1.1,0.9,2.1,1.6,3.1c0.9,1.2,2.1,2.3,3.4,3c2,1.2,4.1,2.1,6.3,2.7
		c3.3,1,6.7,1.8,10.2,2.3c4.8,1,9.8,1.1,14.6,0.1c3.5-0.8,6.8-2.3,9.7-4.5c2.4-1.8,4.3-4,5.7-6.6c1.1-2,1.9-4,2.4-6.2
		c1.8,0.5,2.7,0.8,4.5,1.3c-3.5,11.9-5.3,17.8-8.7,29.5c-2.2-0.4-5.2-1-9-1.7c-3.8-0.7-7.9-1.3-12.6-2c-4.6-0.7-9.5-1.3-14.7-1.9
		c-5.2-0.6-10.3-1.1-15.3-1.5c-5-0.4-9.9-0.6-14.5-0.7c-4.6-0.1-8.7,0.1-12.3,0.4c-0.2-1.2-0.3-1.8-0.5-2.9c2-0.5,3.9-1.2,5.7-2.1
		c2-1,3.6-2.5,4.9-4.4c1.7-2.7,3.1-5.6,3.9-8.7c1.4-5,2.4-10.2,3-15.4c0.7-5.8,1.5-12.1,2.4-18.9s1.6-13.5,2.4-20.1
		c0.7-6.6,1.4-12.7,2-18.4c0.6-5.7,1.1-10.3,1.5-13.9c-3.7-1.4-7.6-2.3-11.6-2.5c-4.4-0.4-8.9,0-13.2,1.2c-4.1,1.1-7.8,3-11,5.8
		c-0.6,0.5-1.1,1.1-1.6,1.7l-0.1,0.1c-1.6,2.7-2.7,5.8-3.2,8.9c-0.2,0.9-0.4,1.9-0.5,2.9c0,1.5,0.3,3,0.9,4.4c0.8,1.9,2,3.7,3.5,5.1
		c1.6,1.4,3.4,2.4,5.4,3.1c2.1,0.7,4.3,1.1,6.6,1.1c2.1,0.1,4.3-0.2,6.3-0.9c1.8-0.6,3.4-1.6,4.8-2.9c1.3-1.2,2.4-2.6,3.1-4.2
		c0.7-1.6,1.1-3.3,1-5c0-3.1-1.5-6-4-7.9c-2.8-2-6.4-2.4-9.6-1.3c-1.7,0.5-3.2,1.4-4.5,2.6c-1.3,1.2-2.1,2.9-2.2,4.7
		c-0.1,1.2,0.2,2.3,0.9,3.3c0.6,0.9,1.4,1.5,2.4,1.9c1,0.4,2.1,0.5,3.1,0.3c1.2-0.2,2.4-0.7,3.3-1.6c-0.9-0.1-1.7-0.4-2.4-1
		c-0.6-0.6-0.9-1.5-0.8-2.3c0.1-0.6,0.4-1.2,0.8-1.6c0.5-0.5,1.1-0.9,1.8-1c0.7-0.2,1.5-0.2,2.3,0c0.8,0.3,1.5,0.8,2,1.6
		c0.5,0.9,0.7,2,0.4,3c-0.3,1.2-0.9,2.3-1.8,3.2c-1,1-2.3,1.8-3.6,2.2c-1.7,0.5-3.5,0.6-5.2,0.2c-2.1-0.3-4-1.5-5.2-3.3
		c-1.1-1.7-1.5-3.8-1.4-5.8c0.2-2.7,1.5-5.3,3.6-7.1c2.6-2.3,6-3.5,9.5-3.3c2.6-0.1,5.2,0.4,7.5,1.7c1.7,1,3.2,2.5,4.2,4.2
		c0.9,1.6,1.4,3.4,1.6,5.3c0.1,1.7,0.1,3.4-0.1,5c-0.3,1.6-0.8,3.2-1.7,4.6c-1,1.7-2.4,3.3-4,4.4c-1.9,1.4-4.1,2.5-6.5,3.1
		c-3,0.8-6.1,1-9.1,0.6c-6.9-0.7-11.8-3.1-14.7-7.2c-0.1,0.6-0.2,1.2-0.3,1.8c-0.9,5.7-1.7,11.7-2.4,18.1s-1.1,12.6-1.3,18.9
		c-0.2,5.6,0,11.1,0.7,16.6c0.3,2.7,0.9,5.3,1.7,7.8c0.6,1.9,1.6,3.7,2.7,5.3c1.1,1.4,2.4,2.7,3.8,3.7c1.6,1.1,3.2,2,4.8,2.9
		c-0.7,0.8-1,1.2-1.6,2c-3-1.3-6.1-2.4-9.2-3.4c-3.4-1-6.8-1.8-10.2-2.4c-3.3-0.6-6.6-1-9.9-1.2c-2.8-0.2-5.5-0.2-8.3,0
		c-0.1-1.4-0.1-2.1-0.2-3.5c1.7-0.3,3.4-0.8,5-1.4c1.5-0.6,2.8-1.5,3.7-2.7c1.2-1.7,2.1-3.6,2.5-5.6c0.7-3.3,1.1-6.7,1.3-10.2
		c0.2-2.6,0.1-5.7,0.4-8.9c0.3-3.2,0.6-6.7,0.9-10.3c-3.2-0.6-6.2-1.1-9.9-1.6c-3.8-0.5-7.5-0.9-11.4-1.2c-3.9-0.3-7.7-0.5-11.6-0.5
		c-3.8,0-7.3,0.1-10.4,0.4c-0.2,5.3-0.2,10.4-0.2,15.1c0,4.8,0.4,9.2,0.8,13.2c0.2,2.3,0.6,4.5,1.2,6.8c0.4,1.5,1.1,2.9,2,4.2
		c0.8,1.1,1.8,2,2.9,2.7c1.1,0.7,2.4,1.5,3.9,2.2c-0.4,1.1-0.7,1.7-1.1,2.8c-2.7-0.8-5.5-1.3-8.2-1.6c-3.4-0.4-7-0.6-10.7-0.7
		c-3.6-0.1-7.1,0-10.7,0.3c-2.8,0.2-5.6,0.7-8.3,1.6c-0.7-0.9-1-1.3-1.7-2.2c2.2-1.1,4.2-2.1,5.8-2.9c1.7-0.9,3.1-2.1,4.3-3.6
		c1.4-2,2.5-4.3,3.1-6.8c1-4,1.8-8,2.4-12c1.5-10.2,2.9-20,3.9-29.1c1.3-10.7,2-21.5,2-32.2c0.1-3.4-0.5-6.7-1.6-9.8
		c-2.6-6.1-9.6-8.1-10.4-8.6c0.2-1.2,0.3-1.8,0.4-2.9c8.9,1.1,17.8,1.5,26.7,1.3c4-0.1,8.3-0.1,12.8-0.6c0,1,0,1.5,0,2.6
		c-1.2,0.6-2.3,1.3-3.3,2.1c-1.8,1.4-3.3,3.1-4.6,5c-1.9,2.6-3.4,5.5-4.6,8.5c-1.8,5.5-3.1,11.2-4,17c-0.5,3-1.1,6.2-1.4,9.4
		c-0.3,3.2-0.6,6.3-0.9,9.4c2.6,0.2,5.6,0.5,9.1,0.8c3.5,0.3,7.1,0.5,11.1,0.6c3.9,0.2,7.9,0.2,12,0.2c4,0,8-0.3,12-0.8
		c0.4-6,0.8-11.6,1.2-16.8c0.4-5.2,0.6-9.2,0.7-11.9c0.1-2.6-0.1-5.1-0.6-7.6c-0.5-2.5-1.3-5-2.3-7.3c-1-1.8-2.3-3.5-3.9-4.8
		c-1.5-1.8-3.4-3.3-5.5-4.3c0.2-1.1,0.3-1.6,0.5-2.7c1.6,0.6,4.9,1.1,8.6,1.9c3.7,0.8,7.4,1.3,11.2,1.5c5.2,0.4,9.3,0.8,13.9,1.2
		c4.6,0.4,12.4-0.1,12.5-0.1c0.4,0.1,3.1-0.3,4.5-0.4c7.4-0.4,14.7,0.3,21.9,2c1.8,0.4,4.9,0.9,9.2,1.6c4.3,0.7,9.4,1.4,15.2,2.2
		s12.4,1.4,19.6,2C666.8,283.6,674.1,283.9,681.6,283.9z"/>
	<path style="fill:#F7CF57;" d="M543,271.1c1.6,0.6,4.9,1.1,8.6,1.9c3.7,0.8,7.4,1.3,11.2,1.5c5.2,0.4,9.3,0.8,13.9,1.2
		c2.2,0.2,4.3,0.3,6.2,0.3c2.1,0,6.3-0.3,6.4-0.3c0.7,0,3.1-0.3,4.4-0.4s2.6-0.2,4-0.2c6,0.1,12,0.8,17.9,2.1
		c1.8,0.4,4.9,0.9,9.2,1.6c4.3,0.7,9.4,1.4,15.2,2.2s12.4,1.4,19.6,2c6.8,0.6,13.7,0.8,20.8,0.8h1.2c-0.5,2.1-1.1,4.9-1.9,8.2
		c-0.8,3.3-1.6,6.8-2.3,10.3c-0.8,3.5-1.4,7-1.9,10.3c-0.5,2.6-0.6,5.3-0.4,8c-2-0.1-3.1-0.1-5.1-0.2c1.1-4.6,1.4-9.3,1-14
		c-0.4-4-2.2-7.7-5.1-10.5c-3.9-3.4-8.6-5.6-13.6-6.6c-8-1.7-16.1-2.5-24.3-2.3c-1.9,5.3-3.7,11.4-5.4,18.2
		c-1.7,6.8-3.3,14.7-4.7,23.6c3.7,1.4,7.6,2.1,11.5,2.2c2.5,0,5-0.5,7.3-1.5c4.8-2.2,8.4-7,10.7-14.4c1.5,0.5,2.3,0.7,3.8,1.2
		c-0.8,2-1.8,4.6-2.8,7.9c-1.1,3.2-2,6.7-2.9,10.4c-0.9,3.7-1.6,7.5-2.1,11.4c-0.5,3.6-0.7,7.3-0.5,11l-3.3,0.7
		c-0.2-3.1-0.4-6.1-0.8-8.8c-0.3-2.5-1.2-4.9-2.7-6.9c-1.7-2.1-4.1-3.5-6.7-4.1c-2.3-0.6-4.6-0.9-6.9-0.8c-2,0-4,0.1-6,0.3
		c-0.6,4.9-1.1,10.1-1.7,15.5c-0.6,5.4-1.1,11.2-1.5,17.3c0.4,1.1,0.9,2.1,1.6,3.1c0.9,1.2,2.1,2.3,3.4,3c2,1.2,4.1,2.1,6.3,2.7
		c3.3,1,6.7,1.8,10.2,2.3c2.7,0.5,5.5,0.8,8.2,0.8c2.1,0,4.3-0.2,6.4-0.7c3.5-0.8,6.8-2.3,9.7-4.5c2.4-1.8,4.3-4,5.7-6.6
		c1.1-2,1.9-4,2.4-6.2c1.8,0.5,2.7,0.8,4.5,1.3c-3.5,11.9-5.3,17.8-8.7,29.5c-2.2-0.4-5.2-1-9-1.7c-3.8-0.7-7.9-1.3-12.6-2
		c-4.6-0.7-9.5-1.3-14.7-1.9c-5.2-0.6-10.3-1.1-15.3-1.5c-5-0.4-9.9-0.6-14.5-0.7c-0.8,0-1.5,0-2.3,0c-3.7,0-7,0.1-10,0.4
		c-0.2-1.2-0.3-1.8-0.5-2.9c2-0.5,3.9-1.2,5.7-2.1c2-1,3.6-2.5,4.9-4.4c1.7-2.7,3.1-5.6,3.9-8.7c1.4-5,2.4-10.2,3-15.4
		c0.7-5.8,1.5-12.1,2.4-18.9c0.8-6.8,1.6-13.5,2.4-20.1c0.7-6.6,1.4-12.7,2-18.4c0.6-5.7,1.1-10.3,1.5-13.9
		c-3.7-1.4-7.6-2.3-11.6-2.5c-1.1-0.1-2.1-0.1-3.1-0.1c-3.4,0-6.8,0.4-10,1.3c-4.1,1.1-7.8,3-11,5.8c-0.6,0.5-1.1,1.1-1.6,1.7
		l-0.1,0.1c-1.6,2.7-2.7,5.8-3.2,8.9c-0.2,0.9-0.4,1.9-0.5,2.9c0,1.5,0.3,3,0.9,4.4c0.8,1.9,2,3.7,3.5,5.1c1.6,1.4,3.4,2.4,5.4,3.1
		c2.1,0.7,4.3,1.1,6.6,1.1c0.2,0,0.5,0,0.7,0c1.9,0,3.8-0.3,5.6-0.9c1.8-0.6,3.4-1.6,4.8-2.9c1.3-1.2,2.4-2.6,3.1-4.2
		c0.7-1.6,1.1-3.3,1-5c0-3.1-1.5-6-4-7.9c-1.6-1.2-3.7-1.9-5.7-1.9c-1.3,0-2.6,0.2-3.8,0.6c-1.7,0.5-3.2,1.4-4.5,2.6
		c-1.3,1.2-2.1,2.9-2.2,4.7c-0.1,1.2,0.2,2.3,0.9,3.3c0.6,0.9,1.4,1.5,2.4,1.9c0.7,0.3,1.5,0.4,2.2,0.4c0.3,0,0.6,0,0.9-0.1
		c1.2-0.2,2.4-0.7,3.3-1.6c-0.9-0.1-1.7-0.4-2.4-1c-0.6-0.6-0.9-1.5-0.8-2.3c0.1-0.6,0.4-1.2,0.8-1.6c0.5-0.5,1.1-0.9,1.8-1
		c0.3-0.1,0.7-0.1,1-0.1c0.4,0,0.8,0.1,1.2,0.2c0.8,0.3,1.5,0.8,2,1.6c0.5,0.9,0.7,2,0.4,3c-0.3,1.2-0.9,2.3-1.8,3.2
		c-1.7,1.7-4.1,2.6-6.5,2.6c-0.8,0-1.6-0.1-2.3-0.2c-2.1-0.3-4-1.5-5.2-3.3c-1.1-1.7-1.5-3.8-1.4-5.8c0.2-2.7,1.5-5.3,3.6-7.1
		c2.6-2.3,6-3.5,9.5-3.3h0c2.6-0.1,5.2,0.5,7.5,1.7c1.7,1,3.2,2.5,4.2,4.2c0.9,1.6,1.4,3.4,1.6,5.3c0.1,1.7,0.1,3.4-0.1,5
		c-0.3,1.6-0.8,3.2-1.7,4.6c-1,1.7-2.4,3.3-4,4.4c-1.9,1.4-4.1,2.5-6.5,3.1c-2,0.5-4,0.8-6,0.8c-1,0-2-0.1-3.1-0.2
		c-6.9-0.7-11.8-3.1-14.7-7.2c-0.1,0.6-0.2,1.2-0.3,1.8c-0.9,5.7-1.7,11.7-2.4,18.1c-0.7,6.3-1.1,12.7-1.3,18.9
		c-0.2,5.6,0,11.1,0.7,16.6c0.3,2.7,0.9,5.3,1.7,7.8c0.6,1.9,1.6,3.7,2.7,5.3c1.1,1.4,2.4,2.7,3.8,3.7c1.6,1.1,3.2,2,4.8,2.9
		c-0.7,0.8-1,1.2-1.6,2c-3-1.3-6.1-2.4-9.2-3.4c-3.4-1-6.8-1.8-10.2-2.4c-3.3-0.6-6.6-1-9.9-1.2c-1.7-0.1-3.3-0.1-4.8-0.1
		c-1.3,0-2.4,0-3.5,0.1c-0.1-1.4-0.1-2.1-0.2-3.5c1.7-0.3,3.4-0.8,5-1.4c1.5-0.6,2.8-1.5,3.7-2.7c1.2-1.7,2.1-3.6,2.5-5.6
		c0.7-3.3,1.1-6.7,1.3-10.2c0.2-2.6,0.1-5.7,0.4-8.9c0.3-3.2,0.6-6.7,0.9-10.3c-3.2-0.6-6.2-1.1-9.9-1.6c-3.8-0.5-7.5-0.9-11.4-1.2
		c-3.9-0.3-7.7-0.5-11.6-0.5h-0.9c-3.5,0-6.6,0.1-9.5,0.4c-0.2,5.3-0.2,10.4-0.2,15.1c0,4.8,0.4,9.2,0.8,13.2
		c0.2,2.3,0.6,4.5,1.2,6.8c0.4,1.5,1.1,2.9,2,4.2c0.8,1.1,1.8,2,2.9,2.7c1.1,0.7,2.4,1.5,3.9,2.2c-0.4,1.1-0.7,1.7-1.1,2.8
		c-2.7-0.8-5.5-1.3-8.2-1.6c-3.4-0.4-7-0.6-10.7-0.7c-0.9,0-1.8,0-2.7,0c-2.8,0-5.4,0.1-8,0.3c-2.8,0.2-5.6,0.7-8.3,1.6
		c-0.7-0.9-1-1.3-1.7-2.2c2.2-1.1,4.2-2.1,5.8-2.9c1.7-0.9,3.1-2.1,4.3-3.6c1.4-2,2.5-4.3,3.1-6.8c1-4,1.8-8,2.4-12
		c1.5-10.2,2.9-20,3.9-29.1c1.3-10.7,2-21.5,2-32.2c0.1-3.4-0.5-6.7-1.6-9.8c-2.6-6.1-9.6-8.1-10.4-8.6c0.2-1.2,0.3-1.8,0.4-2.9
		c7.7,0.9,15.5,1.4,23.3,1.3c1.1,0,2.2,0,3.4,0c4-0.1,8.3-0.1,12.8-0.6c0,1,0,1.5,0,2.6c-1.2,0.6-2.3,1.3-3.3,2.1
		c-1.8,1.4-3.3,3.1-4.6,5c-1.9,2.6-3.4,5.5-4.6,8.5c-1.8,5.5-3.1,11.2-4,17c-0.5,3-1.1,6.2-1.4,9.4c-0.3,3.2-0.6,6.3-0.9,9.4
		c2.6,0.2,5.6,0.5,9.1,0.8c3.5,0.3,7.1,0.5,11.1,0.6c3.2,0.1,6.5,0.2,9.9,0.2c0.7,0,1.4,0,2.2,0c4,0,8-0.3,12-0.8
		c0.4-6,0.8-11.6,1.2-16.8c0.4-5.2,0.6-9.2,0.7-11.9c0.1-2.6-0.1-5.1-0.6-7.6c-0.5-2.5-1.3-5-2.3-7.3c-1-1.8-2.3-3.5-3.9-4.8
		c-1.5-1.8-3.4-3.3-5.5-4.3C542.6,272.7,542.7,272.1,543,271.1 M542.3,270l-0.2,0.9l-0.1,0.3l-0.5,2.4l-0.1,0.6l0.6,0.3
		c2,1,3.8,2.4,5.2,4.1c0.5,0.6,1,1.1,1.5,1.5c1,0.9,1.8,1.9,2.3,3.1c1,2.3,1.8,4.7,2.3,7.1c0.5,2.4,0.7,4.9,0.6,7.4
		c-0.1,2.6-0.4,6.2-0.7,11.9c-0.3,5-0.7,10.4-1.1,16.1c-3.7,0.4-7.5,0.7-11.3,0.7c-0.7,0-1.4,0-2.2,0c-3.3,0-6.6-0.1-9.8-0.2
		c-4-0.2-7.7-0.4-11-0.6s-6-0.5-8.3-0.7c0.3-2.8,0.5-5.7,0.8-8.6c0.3-2.9,0.8-5.8,1.3-8.7l0.1-0.7c0.9-5.7,2.2-11.3,4-16.8
		c1.2-2.9,2.7-5.7,4.5-8.3c1.3-1.8,2.8-3.4,4.5-4.8c0.9-0.8,1.9-1.4,3-2l0.5-0.2v-0.6v-1.7v-1.8l-0.9,0.1c-4,0.4-7.8,0.5-11.5,0.5
		l-1.3,0c-1.1,0-2.2,0-3.3,0c-7.7,0.1-15.5-0.4-23.1-1.3l-0.9-0.2l-0.1,0.9l0,0.1l-0.4,2.8l-0.1,0.5l0.4,0.3
		c0.3,0.2,0.6,0.3,0.9,0.4c1.9,0.8,7.1,3,9.1,7.8c1.1,3.1,1.6,6.3,1.6,9.5c0,10.7-0.7,21.5-2,32.1c-0.9,8-2.1,17-3.9,29
		c-0.5,4-1.3,8-2.3,11.9c-0.6,2.3-1.6,4.5-2.9,6.5c-1.1,1.4-2.4,2.6-4,3.4c-1.6,0.8-3.6,1.8-5.8,2.9l-0.9,0.5l0.6,0.8l1.7,2.2
		l0.4,0.5l0.6-0.2c2.6-0.8,5.3-1.4,8.1-1.5c2.6-0.2,5.2-0.3,7.9-0.3c0.9,0,1.7,0,2.6,0c3.7,0.1,7.2,0.3,10.6,0.7
		c2.7,0.3,5.4,0.8,8.1,1.5l0.7,0.2l0.3-0.7l1.1-2.8l0.3-0.7l-0.6-0.3c-1.5-0.8-2.8-1.5-3.8-2.2c-1-0.7-1.9-1.5-2.7-2.5
		c-0.8-1.2-1.5-2.5-1.9-3.9c-0.6-2.1-1-4.4-1.2-6.6c-0.5-4.8-0.8-9.1-0.8-13.2c0-4.8,0-9.6,0.2-14.4c2.7-0.2,5.6-0.3,8.7-0.3h0.9
		c3.9,0,7.6,0.2,11.5,0.5s7.6,0.7,11.4,1.2c3.2,0.4,5.9,0.8,9.2,1.4l-0.9,9.6c-0.2,1.9-0.2,3.6-0.2,5.4c0,1.3-0.1,2.5-0.1,3.6
		c-0.1,3.4-0.5,6.7-1.2,10c-0.4,1.9-1.2,3.7-2.4,5.3c-0.9,1.1-2,2-3.4,2.5c-1.6,0.6-3.2,1-4.9,1.4l-0.7,0.1l0,0.7l0,0.8l0.1,2.7
		l0,0.8l0.8-0.1c1.1-0.1,2.2-0.1,3.5-0.1c1.5,0,3,0,4.7,0.1c3.3,0.2,6.6,0.6,9.8,1.2c3.4,0.6,6.8,1.4,10.2,2.4
		c3.1,0.9,6.2,2,9.1,3.3l0.6,0.3l0.4-0.5l1.6-2l0.6-0.8l-0.9-0.5c-1.6-0.8-3.2-1.8-4.8-2.8c-1.4-1-2.6-2.2-3.6-3.5
		c-1.1-1.5-2-3.2-2.6-5.1c-0.8-2.5-1.4-5.1-1.7-7.7c-0.7-5.5-0.9-11-0.7-16.5c0.2-6.3,0.6-12.6,1.3-18.9c0.7-6.4,1.5-12.4,2.4-18
		c3.1,3.4,7.9,5.4,14.1,6c1.1,0.1,2.2,0.2,3.2,0.2c2.1,0,4.2-0.2,6.3-0.8c2.4-0.6,4.7-1.7,6.7-3.2c1.7-1.3,3.1-2.9,4.2-4.7
		c0.9-1.5,1.5-3.1,1.8-4.8c0.2-1.7,0.3-3.5,0.1-5.2c-0.1-2-0.7-3.9-1.7-5.6c-1.1-1.9-2.6-3.4-4.4-4.5c-2.4-1.3-5.2-2-7.9-1.8
		c-3.7-0.2-7.4,1.1-10.1,3.6c-2.2,1.9-3.6,4.7-3.8,7.6c-0.1,2.2,0.4,4.4,1.5,6.3c1.3,2,3.3,3.3,5.7,3.7c0.8,0.2,1.7,0.3,2.5,0.3
		c1.1,0,2.1-0.2,3.1-0.5c1.5-0.5,2.9-1.3,4-2.4c1-1,1.7-2.2,2-3.6c0.3-1.2,0.1-2.5-0.5-3.6c-0.5-0.9-1.4-1.6-2.5-2
		c-0.5-0.1-1-0.2-1.5-0.2c-0.4,0-0.8,0.1-1.2,0.2c-0.8,0.2-1.6,0.6-2.2,1.3c-0.6,0.6-1,1.3-1.1,2.1c-0.2,1.1,0.2,2.3,1,3
		c0.3,0.3,0.6,0.5,1,0.6c-0.5,0.2-1,0.4-1.5,0.4c-0.3,0-0.5,0.1-0.8,0.1c-0.7,0-1.3-0.1-1.9-0.4c-0.8-0.3-1.5-0.9-2-1.6
		c-0.6-0.8-0.8-1.8-0.8-2.8c0-1.6,0.7-3.1,1.9-4.1c1.2-1.1,2.6-1.9,4.2-2.4c1.2-0.3,2.4-0.5,3.6-0.5c1.9,0,3.7,0.6,5.2,1.7
		c2.3,1.7,3.6,4.4,3.6,7.3c0.1,1.6-0.3,3.2-0.9,4.6c-0.7,1.5-1.7,2.9-3,4c-1.3,1.2-2.9,2.1-4.6,2.7c-1.7,0.6-3.5,0.9-5.3,0.8
		c-0.2,0-0.4,0-0.7,0c-2.1,0-4.3-0.4-6.3-1.1c-1.9-0.6-3.6-1.6-5.1-2.9c-1.5-1.3-2.6-2.9-3.3-4.8c-0.5-1.3-0.8-2.6-0.8-4
		c0.2-1,0.4-2,0.5-2.8c0.5-3,1.5-6,3.1-8.6c0.5-0.6,1-1.1,1.5-1.6c3.1-2.7,6.7-4.6,10.7-5.6c3.2-0.9,6.5-1.3,9.8-1.3
		c1,0,2,0,3.1,0.1c3.7,0.2,7.3,1,10.8,2.2c-0.4,3.4-0.9,7.8-1.4,13.2c-0.6,5.7-1.3,11.9-2,18.4c-0.7,6.6-1.5,13.3-2.4,20.1
		c-1,8-1.7,13.8-2.4,18.9c-0.6,5.2-1.6,10.2-3,15.2c-0.8,3-2.1,5.9-3.8,8.5c-1.1,1.7-2.7,3.1-4.6,4.1c-1.8,0.9-3.7,1.5-5.6,2
		l-0.7,0.2l0.1,0.7l0.5,2.9l0.1,0.7l0.8-0.1c3-0.3,6.3-0.4,9.9-0.4c0.7,0,1.5,0,2.3,0c4.6,0.1,9.5,0.3,14.4,0.7
		c5.1,0.4,10.2,0.9,15.3,1.5c5.1,0.6,10,1.2,14.6,1.9c4.4,0.6,8.6,1.3,12.5,2c3.4,0.6,6.5,1.2,9,1.7l0.7,0.1l0.2-0.7
		c3.4-11.8,5.2-17.7,8.7-29.5l0.2-0.8l-0.8-0.2c-1.8-0.5-2.7-0.8-4.5-1.3l-0.8-0.2l-0.2,0.9c-0.5,2.1-1.3,4.1-2.4,6
		c-1.3,2.5-3.2,4.6-5.4,6.3c-2.8,2.1-6,3.5-9.5,4.3c-2,0.5-4.1,0.7-6.2,0.7c-2.7,0-5.4-0.3-8.1-0.8c-3.4-0.5-6.8-1.3-10.1-2.3
		c-2.1-0.6-4.2-1.5-6.2-2.7c-1.2-0.7-2.3-1.6-3.2-2.8c-0.6-0.9-1.1-1.8-1.4-2.7c0.5-6,1-11.8,1.5-17.1c0.5-5.4,1.1-10.2,1.6-14.8
		c1.9-0.2,3.6-0.3,5.2-0.3c2.2-0.1,4.5,0.2,6.7,0.8c2.5,0.6,4.7,1.9,6.3,3.8c1.4,1.9,2.3,4.2,2.6,6.5c0.4,2.6,0.6,5.6,0.8,8.7l0,1
		l0.9-0.2c1.3-0.3,2-0.4,3.3-0.7l0.7-0.1l0-0.7c-0.2-3.6,0-7.3,0.5-10.9c0.5-3.9,1.2-7.7,2.1-11.4c0.9-3.7,1.8-7.2,2.9-10.3
		c1-3.2,2-5.8,2.8-7.8l0.3-0.8l-0.9-0.3c-1.5-0.5-2.3-0.7-3.8-1.2l-0.8-0.2l-0.2,0.8c-2.2,7.1-5.7,11.8-10.3,13.9
		c-2.2,1-4.6,1.4-6.9,1.4c-3.6-0.1-7.2-0.8-10.6-2c1.4-8.7,2.9-16.4,4.6-22.9c1.6-6.6,3.4-12.5,5.2-17.6c7.9-0.1,15.8,0.6,23.5,2.3
		c4.9,1,9.5,3.2,13.2,6.4c2.8,2.7,4.5,6.2,4.9,10c0.4,4.6,0.1,9.2-1,13.7l-0.2,1l1,0c2,0.1,3.1,0.1,5.1,0.2l1,0l-0.1-1
		c-0.2-2.6-0.1-5.2,0.3-7.7c0.5-3.3,1.1-6.7,1.9-10.2c0.8-3.6,1.6-7.1,2.3-10.3c0.8-3.4,1.4-6.1,1.9-8.3l0.2-1h-1h-1.2
		c-7,0-14-0.3-20.7-0.8c-7.4-0.6-13.8-1.3-19.5-2c-6.1-0.8-11.1-1.5-15.2-2.2c-4.7-0.8-7.5-1.3-9.2-1.6c-5.9-1.3-12-2-18.1-2.2
		c-1.4,0-2.8,0.1-4.1,0.2c-0.5,0-1.1,0.1-1.7,0.2c-1,0.1-2.2,0.2-2.6,0.2c0,0-4.3,0.3-6.4,0.3c-1.9,0-3.9-0.1-6.2-0.3
		c-2-0.2-3.9-0.3-5.8-0.5c-2.5-0.2-5.2-0.5-8.2-0.7c-3.7-0.2-7.4-0.7-11.1-1.5c-1.4-0.3-2.7-0.6-3.8-0.8c-1.6-0.3-3.1-0.6-4.6-1.1
		L542.3,270L542.3,270z"/>
	<path style="fill:#F7CF57;" d="M673,393.2c3.1,0.1,6.1-0.6,8.9-2c1.8-1.5,3.2-3.4,4.1-5.6c1-2.2,1.7-4.6,2-7c0.4-2,0.9-4.9,1.6-8.7
		c0.7-3.8,1.4-8,2.3-12.8c0.8-4.7,1.7-9.7,2.5-15c0.8-5.3,1.6-10.5,2.4-15.5s1.4-9.8,2-14.2c0.6-4.4,1-8.1,1.1-11.1
		c0.1-2-0.2-4-1-5.8c-0.7-1.6-1.7-3-3-4.2c-1.5-1.1-3.1-2-4.8-2.6c-1.6-0.6-3.2-1.1-4.9-1.3c0.2-1.5,0.3-2.3,0.5-3.8
		c3.1,0.8,4.1,1.5,6.2,2.1s4.8,1.3,7.6,1.8c2.8,0.6,6.2,1.1,9.9,1.5c3.7,0.5,8.1,0.8,13.1,1c3.3,0.1,7.1,0.4,11.2,0.7
		c4.2,0.3,8.3,1,12.4,2c4.1,1,8,2.3,11.8,4.1c3.6,1.6,6.7,4,9.3,7c2.5,3.1,4.1,6.9,4.6,10.8c0.5,5.2-0.2,10.4-2,15.3
		c-1.9,6-4.8,11.6-8.7,16.6c-3,3.8-6.8,6.9-11.1,9.2c-3.7,2-7.8,3.2-12,3.5c-3.9,0.4-7.8,0.2-11.6-0.4c4.6,3.4,10.5,9.3,12.9,14.3
		c3.1,6.8,5.3,14,6.6,21.4c0.5,4.8,2.9,9.1,6.7,11.9c2,1.3,4.1,2.3,6.3,3.1l-1.3,3.6c-7.5-2.9-15.3-5.1-23.2-6.5c-3-0.3-6-0.3-9-0.2
		l-0.4-3c3.2-0.8,5.6-1.4,7.2-3.9c1.5-2.6,1.3-4.7,0.7-10.2c-0.7-4.5-1.7-8.9-3.1-13.2c-1.5-4.1-3.3-8-5.6-11.7
		c-1.8-3-4.3-5.4-7.4-7c-2.7-1.4-5.5-2.3-8.4-2.9c-2-0.4-4-0.5-6-0.3c-0.7,4.4-1.3,8.8-1.9,13.2c-0.6,4.2-0.7,8.4-0.6,12.6
		c0.1,4.1,0.9,8.2,2.1,12.2c1.4,3.4,3.8,6.4,7,8.4c-0.5,0.9-0.7,1.3-1.1,2.2c-1.6-0.5-11.5-3.2-14.5-3.8c-3-0.6-19-3.3-21.4-2.2
		C673.1,395.4,673,394.7,673,393.2z M716.7,296.4c-1.9,4.3-3.5,8.8-5.1,13.5c-1.5,4.7-2.9,9.4-4,14c-1.2,4.6-2.1,9-2.8,13.2
		c-0.7,4.2-1.2,7.8-1.5,10.9c5.7,1.7,11.5,2.9,17.4,3.6c4.9,0.6,9.9,0.1,14.5-1.4c4.5-1.6,8.5-4.5,11.5-8.3c3.8-5.1,6.5-10.9,8.1-17
		c1.2-3.7,1.5-7.6,0.9-11.5c-0.6-3-2.1-5.8-4.1-8.1c-2.1-2.2-4.6-4-7.5-5.2c-3-1.3-6.1-2.3-9.3-2.9c-3.2-0.6-6.4-1-9.7-1
		C722.3,296.1,719.5,296.2,716.7,296.4z"/>
	<path style="fill:#F7CF57;" d="M686.6,283.6c3.1,0.8,4.1,1.5,6.2,2.1c2.1,0.6,4.8,1.3,7.6,1.8c2.8,0.6,6.2,1.1,9.9,1.5
		c3.7,0.5,8.1,0.8,13.1,1c3.3,0.1,7.1,0.4,11.2,0.7c4.2,0.3,8.3,1,12.4,2c4.1,1,8,2.3,11.8,4.1c3.6,1.6,6.7,4,9.3,7
		c2.5,3.1,4.1,6.9,4.6,10.8c0.5,5.2-0.2,10.4-2,15.3c-1.9,6-4.8,11.6-8.7,16.6c-3,3.8-6.8,6.9-11.1,9.2c-3.7,2-7.8,3.2-12,3.5
		c-1.4,0.1-2.8,0.2-4.2,0.2c-2.5,0-4.9-0.2-7.4-0.6c4.6,3.4,10.5,9.3,12.9,14.3c3.1,6.8,5.3,14,6.6,21.4c0.5,4.8,2.9,9.1,6.7,11.9
		c2,1.3,4.1,2.3,6.3,3.1l-1.3,3.6c-7.5-2.9-15.3-5.1-23.2-6.5c-2.2-0.1-4.6-0.3-6.6-0.3c-0.8,0-1.6,0-2.4,0.1l-0.4-3
		c3.2-0.8,5.6-1.4,7.2-3.9c1.5-2.6,1.3-4.7,0.7-10.2c-0.7-4.5-1.7-8.9-3.1-13.2c-1.5-4.1-3.3-8-5.6-11.7c-1.8-3-4.3-5.4-7.4-7
		c-2.7-1.4-5.5-2.3-8.4-2.9c-1.4-0.2-2.8-0.4-4.2-0.4c-0.6,0-1.2,0-1.7,0.1c-0.7,4.4-1.3,8.8-1.9,13.2c-0.6,4.2-0.7,8.4-0.6,12.6
		c0.1,4.1,0.9,8.2,2.1,12.2c1.4,3.4,3.8,6.4,7,8.4c-0.5,0.9-0.7,1.3-1.1,2.2c-1.6-0.5-11.5-3.2-14.5-3.8c-6.3-1.3-12.7-2.1-19.1-2.5
		c-0.7,0-1.5,0-2.2,0.1c0-1.5-0.1-2-0.1-3.4c0.2,0,0.4,0,0.6,0c2.9,0,5.7-0.7,8.2-2c1.8-1.5,3.2-3.4,4.1-5.6c1-2.2,1.7-4.6,2-7
		c0.4-2,0.9-4.9,1.6-8.7c0.7-3.8,1.4-8,2.3-12.8c0.8-4.7,1.7-9.7,2.5-15c0.8-5.3,1.6-10.5,2.4-15.5s1.4-9.8,2-14.2
		c0.6-4.4,1-8.1,1.1-11.1c0.1-2-0.2-4-1-5.8c-0.7-1.6-1.7-3-3-4.2c-1.5-1.1-3.1-2-4.8-2.6c-1.6-0.6-3.2-1.1-4.9-1.3
		C686.4,285.9,686.4,285.2,686.6,283.6 M725,351.9c3.5,0,6.9-0.5,10.2-1.6c4.5-1.6,8.5-4.5,11.5-8.3c3.8-5.1,6.5-10.9,8.1-17
		c1.2-3.7,1.5-7.6,0.9-11.5c-0.6-3-2.1-5.8-4.1-8.1c-2.1-2.2-4.6-4-7.5-5.2c-3-1.3-6.1-2.3-9.3-2.9c-3.2-0.6-6.4-1-9.7-1
		c-0.8,0-1.5,0-2.3,0c-2.2,0-4.3,0.1-6.1,0.2c-1.9,4.3-3.5,8.8-5.1,13.5c-1.5,4.7-2.9,9.4-4,14c-1.2,4.6-2.1,9-2.8,13.2
		c-0.7,4.2-1.2,7.8-1.5,10.9c5.7,1.7,11.5,2.9,17.4,3.6C722.2,351.8,723.6,351.9,725,351.9 M685.9,282.6l-0.1,0.9l-0.5,3.8l-0.1,0.8
		l0.8,0.1c1.6,0.3,3.2,0.7,4.7,1.3c1.7,0.6,3.2,1.4,4.6,2.5c1.2,1.1,2.2,2.4,2.8,3.9c0.7,1.7,1,3.6,0.9,5.4c-0.1,2.5-0.5,5.8-1.1,11
		c-0.6,4.4-1.2,9.2-2,14.2c-0.8,5-1.6,10.2-2.4,15.5c-0.8,5.2-1.7,10.2-2.5,15c-0.8,4.7-1.6,9-2.3,12.8l-0.2,1.3
		c-0.6,3.1-1,5.6-1.4,7.4c-0.3,2.3-1,4.6-1.9,6.8c-0.9,2-2.2,3.8-3.9,5.3c-2.4,1.2-5.1,1.9-7.8,1.8c-0.2,0-0.4,0-0.6,0l-0.9-0.1
		l0.1,5.2c0,0,1.7-0.2,3.1-0.2c6.4,0.4,12.7,1.2,18.9,2.5c2.9,0.6,12.6,3.3,14.4,3.8l0.7,0.2l0.3-0.6l0.2-0.4l0.9-1.8l0.4-0.7
		l-0.7-0.4c-3-1.9-5.3-4.7-6.6-7.9c-1.2-3.9-1.9-7.9-2.1-11.9c-0.2-4.1,0-8.3,0.5-12.4c0.5-4.2,1.1-8.5,1.8-12.6c0.3,0,0.7,0,1,0
		c1.4,0,2.7,0.1,4.1,0.4c2.9,0.6,5.6,1.5,8.2,2.8c3,1.5,5.4,3.8,7.1,6.7c2.2,3.6,4.1,7.5,5.5,11.5c1.3,4.3,2.4,8.6,3,13l0,0.4
		c0.5,5.1,0.7,7-0.7,9.2c-1.3,2.2-3.4,2.7-6.3,3.5l-0.4,0.1l-0.7,0.2l0.1,0.7l0.4,3l0.1,0.8l0.8-0.1c0.7-0.1,1.5-0.1,2.3-0.1
		c2,0,4.6,0.2,6.6,0.3c7.9,1.4,15.6,3.5,23,6.4l0.8,0.3l0.3-0.8l1.3-3.6l0.3-0.8l-0.8-0.3c-2.1-0.7-4.2-1.7-6.1-3l0,0l0,0
		c-3.6-2.7-5.9-6.8-6.4-11.3c-1.3-7.5-3.5-14.8-6.7-21.7c-2.7-4.9-6.4-9.2-10.8-12.7c1.5,0.1,3,0.2,4.5,0.2c1.4,0,2.8-0.1,4.3-0.2
		c4.3-0.4,8.5-1.6,12.3-3.6c4.4-2.3,8.2-5.5,11.3-9.4c4-5,7-10.7,8.9-16.8c1.9-5,2.6-10.4,2-15.7c-0.5-4.1-2.2-8-4.7-11.2
		c-2.6-3.1-5.9-5.6-9.5-7.2c-3.8-1.8-7.9-3.1-12-4.1c-4.1-1-8.3-1.6-12.6-2c-4.7-0.4-8.3-0.6-11.3-0.7c-5.5-0.2-9.6-0.5-13-1
		c-3.9-0.5-7.2-1-9.9-1.5c-3.3-0.6-5.7-1.2-7.6-1.8c-0.8-0.2-1.5-0.5-2.1-0.8c-1.3-0.5-2.7-1-4.1-1.4L685.9,282.6L685.9,282.6z
		 M717.2,297.2c1.7-0.1,3.6-0.2,5.6-0.2c0.7,0,1.5,0,2.3,0c3.2,0.1,6.4,0.4,9.6,1c3.2,0.6,6.2,1.5,9.2,2.8c2.7,1.2,5.2,2.9,7.2,5
		c2,2.2,3.3,4.9,3.9,7.8c0.6,3.7,0.3,7.5-0.9,11c-1.5,6-4.2,11.7-7.9,16.7c-2.9,3.7-6.7,6.4-11.1,8c-3.2,1.1-6.6,1.6-10,1.6
		c-1.4,0-2.8-0.1-4.2-0.2c-5.6-0.7-11.2-1.8-16.7-3.4c0.3-2.9,0.7-6.3,1.4-10.1c0.7-4.2,1.7-8.6,2.8-13.2c1.2-4.6,2.5-9.3,4-14
		C713.8,305.6,715.5,301.2,717.2,297.2L717.2,297.2z"/>
	<path style="fill:#F7CF57;" d="M207.1,372.7c-0.4,2.9-1.1,6.4-2.2,10.7c-1.1,4.5-2.8,8.8-5.1,12.8c-2.4,4.3-5.6,8.1-9.4,11.3
		c-4.2,3.4-9.4,5.5-14.8,6.1c-6.1,0.8-12.4,0.1-18.2-1.9c-6.3-2.2-12.1-5.7-16.9-10.3c-5.6-5.4-10.1-11.8-13.3-18.9
		c-4-8.7-6.5-18.1-7.6-27.6c-1.4-9.7-1-19.6,1.2-29.2c1.8-8.1,5-15.7,9.5-22.7c3.9-6,9-11,14.9-14.9c5.3-3.4,11.4-5.5,17.7-6
		c8.4-0.9,16.7,2.2,22.5,8.3c14.5,15.6,11.2,39.2-2.3,42.1c-5.2,1.1-13.1-2.2-17.2-10.5c-3.3-6.7-2.7-11.3-2.1-12.9
		c1-2.8,4-4.3,6.8-3.5c0.9,0.3,5,1.3,3.8,7.2c-0.7,3.4-5.4,4.1-5.6,3c2.9,10.7,10.8,12.5,14.4,10.7c2.8-1.4,7.4-7.2,4.3-18
		c-3.5-12.2-10.9-15.9-10.9-15.9c-2.8-1.7-13.4-5.7-22.4,0.4c-4.1,2.9-7.4,6.7-9.7,11.1c-3.1,6-5.2,12.5-6.2,19.2
		c-1.4,9.4-1.5,19-0.2,28.4c0.7,6.2,1.9,12.3,3.7,18.3c1.7,6,4.2,11.8,7.5,17.1c2.9,4.8,6.8,8.9,11.4,12.1c4.6,3,10.2,4,15.5,2.8
		c16.5-3.1,24.2-19.6,24.8-31.5L207.1,372.7z"/>
	<path style="fill:#F7CF57;" d="M165.6,281.9c7.6-0.1,14.9,2.9,20.1,8.4c14.5,15.6,11.2,39.2-2.3,42.1c-0.7,0.1-1.4,0.2-2.1,0.2
		c-5.1,0-11.5-3.4-15.1-10.7c-3.3-6.7-2.7-11.3-2.1-12.9c0.8-2.3,2.9-3.8,5.3-3.8c0.5,0,1,0.1,1.5,0.2c0.9,0.3,5,1.3,3.8,7.2
		c-0.6,2.1-2.4,3.5-4.5,3.5c-0.6,0-1-0.2-1.1-0.4c2.3,8.4,7.6,11.3,11.6,11.3c1,0,1.9-0.2,2.8-0.6c2.8-1.4,7.4-7.2,4.3-18
		c-3.5-12.2-10.9-15.9-10.9-15.9c-3.5-1.9-7.4-2.9-11.4-2.9c-3.9,0-7.8,1.1-11,3.3c-4.1,2.9-7.4,6.7-9.7,11.1
		c-3.1,6-5.2,12.5-6.2,19.2c-1.4,9.4-1.5,19-0.2,28.4c0.7,6.2,1.9,12.3,3.7,18.3c1.7,6,4.2,11.8,7.5,17.1c2.9,4.8,6.8,8.9,11.4,12.1
		c3.3,2.2,7.1,3.3,11,3.2c1.5,0,3-0.2,4.5-0.4c16.5-3.1,24.2-19.6,24.8-31.5l5.8,2.2c-0.4,2.9-1.1,6.4-2.2,10.7
		c-1.1,4.5-2.8,8.8-5.1,12.8c-2.4,4.3-5.6,8.1-9.4,11.3c-4.2,3.4-9.4,5.5-14.8,6.1c-1.7,0.2-3.4,0.3-5.1,0.3
		c-4.5,0-8.9-0.8-13.2-2.2c-6.3-2.2-12.1-5.7-16.9-10.3c-5.6-5.4-10.1-11.8-13.3-18.9c-4-8.7-6.5-18.1-7.6-27.6
		c-1.4-9.7-1-19.6,1.2-29.2c1.8-8.1,5-15.7,9.5-22.7c3.9-6,9-11,14.9-14.9c5.3-3.4,11.4-5.5,17.7-6
		C164,281.9,164.9,281.9,165.6,281.9 M165.6,281L165.6,281c-0.8,0-1.7,0-2.5,0.1c-6.5,0.5-12.7,2.6-18.1,6.1
		c-6.1,3.9-11.2,9.1-15.2,15.1c-4.5,7-7.8,14.8-9.6,22.9c-2.2,9.7-2.6,19.7-1.2,29.5c1,9.6,3.6,19,7.6,27.9
		c3.3,7.1,7.8,13.6,13.5,19.1c4.9,4.7,10.8,8.3,17.2,10.5c4.3,1.5,8.9,2.2,13.4,2.2c1.7,0,3.4-0.1,5.2-0.3
		c5.6-0.6,10.8-2.7,15.2-6.2c3.9-3.2,7.1-7.1,9.6-11.5c2.3-4.1,4-8.5,5.1-13c1-4.3,1.8-7.9,2.2-10.8l0.1-0.6l-0.6-0.2l-3.1-1.2
		l-2.7-1.1l-1.1-0.4l-0.1,1.1c-0.5,10.6-7.4,27.6-24.1,30.8c-1.4,0.3-2.9,0.4-4.4,0.4c-3.7,0-7.4-1-10.5-3.1
		c-4.5-3.1-8.3-7.1-11.2-11.8c-3.2-5.3-5.7-11-7.4-16.9c-1.7-5.9-3-12-3.7-18.2c-1.2-9.4-1.1-18.9,0.2-28.2c1-6.6,3-13,6.1-19
		c2.3-4.3,5.5-8,9.5-10.8c3.1-2.1,6.8-3.2,10.5-3.2c3.8,0,7.6,1,11,2.8c0.1,0.1,7.2,3.8,10.5,15.5c3.1,10.8-1.9,16-3.9,17
		c-0.8,0.4-1.6,0.5-2.5,0.5c-1.3,0-7.4-0.5-10.3-9.2c2.5-0.1,4.6-1.8,5.2-4.1c0.8-4.1-0.6-6.9-4.2-8l-0.2-0.1
		c-0.6-0.2-1.2-0.3-1.8-0.3c-2.8,0-5.2,1.7-6.1,4.3c-0.3,0.9-1.6,5.8,2.2,13.5c3.8,7.7,10.7,11.2,15.8,11.2c0.8,0,1.5-0.1,2.3-0.2
		c5.2-1.1,9.3-5.3,11.2-11.4c2.7-8.5,1.1-21.7-8.5-32.1C181,284,173.4,280.9,165.6,281L165.6,281z"/>
	<path style="fill:#F7CF57;" d="M483.7,344.5l0.6,0.3l-0.1,0.6c-0.7,3-1.8,6.8-3.3,11.3c-1.6,4.7-3.8,9.2-6.6,13.4
		c-2.9,4.4-6.7,8.3-11.1,11.3c-4.8,3.3-10.6,5.1-16.4,5.2c-0.5,0-1,0-1.6,0c-6.1,0-12.1-1.4-17.6-3.9c-6.5-3-12.3-7.4-16.9-13
		c-5.3-6.5-9.5-13.8-12.2-21.8c-3.3-9.9-5.1-20.2-5.3-30.6c-0.5-10.6,0.9-21.3,4.1-31.5c2.7-8.5,6.8-16.5,12.2-23.6
		c4.7-6.1,10.5-11.1,17.3-14.7c5.8-3.1,12.2-4.7,18.8-4.8c0.2,0,0.5,0,0.7,0c6.2,0,12.3,2,17.4,5.6c-0.1,0.2-0.3,0.5-0.4,0.7
		c-4.9-3.6-10.9-5.5-17-5.5c-0.2,0-0.5,0-0.7,0c-6.4,0-12.7,1.6-18.4,4.7c-6.6,3.6-12.4,8.5-17,14.5c-5.4,7-9.5,14.9-12.1,23.3
		c-3.2,10.1-4.5,20.6-4,31.2c0.1,10.3,1.9,20.5,5.2,30.3c2.7,7.8,6.7,15.1,12,21.5c4.5,5.4,10.2,9.8,16.6,12.7
		c5.4,2.5,11.3,3.8,17.3,3.8c0.5,0,1,0,1.5,0c5.7-0.1,11.3-1.8,16-5c4.3-3,8-6.8,10.8-11.1c2.7-4.1,4.9-8.5,6.5-13.2
		c1.5-4.5,2.6-8.2,3.3-11.2l-5.8-3c-1.8,12.8-11.4,29.6-28.9,31.3c-0.9,0.1-1.7,0.1-2.5,0.1c-4.9,0.1-9.6-1.6-13.3-4.7
		c-4.5-3.9-8.2-8.6-10.7-14c-2.9-6.1-5-12.5-6.1-19.1c-1.3-6.6-2-13.3-2.1-20c-0.4-10.2,0.6-20.5,3-30.4c1.7-7.1,4.5-13.8,8.3-20
		c2.8-4.5,6.7-8.2,11.2-10.9c3-1.7,6.3-2.6,9.7-2.5c3.2,0,6.3,0.7,9.2,1.9c-0.6,0.1-1.2,0.2-1.8,0.2c-2.4-0.8-4.9-1.2-7.4-1.3
		c-3.3,0-6.5,0.8-9.3,2.4c-4.4,2.6-8.2,6.3-10.9,10.6c-3.8,6.1-6.6,12.8-8.2,19.7c-2.3,9.9-3.3,20-3,30.2c0.1,6.7,0.8,13.3,2.1,19.8
		c1.2,6.5,3.2,12.9,6.1,18.9c2.5,5.3,6.1,10,10.5,13.8c3.6,3,8.2,4.6,12.8,4.5c0.8,0,1.6,0,2.4-0.1c17.8-1.8,26.6-19.3,28.2-30.6
		l0.2-1.1l1,0.5l2.8,1.4L483.7,344.5z"/>
	<path style="fill:#F7CF57;" d="M476.6,274.8c0.2-0.2,0.5-0.4,0.7-0.6c0.6,5.3-0.1,10.7-2.1,15.7c-2.6,6.1-7.2,10.1-12.6,10.7
		c-0.4,0.1-0.9,0.1-1.3,0.1c-5.5,0-13-4.2-16.5-13.6c-3.2-8.5-1.4-13.6-1-14.6c1.1-2.5,3.5-4,6.2-4c0.8,0,1.6,0.2,2.4,0.5l0.2,0.1
		c3.6,1.6,4.8,4.6,3.6,8.9c-0.8,2.4-3,3.9-5.5,3.9c-0.1,0-0.2,0-0.3,0c2,8.7,7.5,11,10.6,11c0.7,0,1.3-0.1,2-0.3
		c2.7-1.1,6.3-5.4,6.2-13.2c0.3-0.1,0.6-0.3,0.8-0.4c0.3,8.9-4.1,13.4-6.7,14.4c-0.7,0.3-1.5,0.4-2.3,0.4c-4.2,0-10.1-3.5-11.7-13.3
		c0.1,0.4,0.6,0.6,1.4,0.6c2.1,0,4-1.3,4.7-3.3c1.8-6.2-2.4-7.6-3.3-8c-0.6-0.3-1.3-0.4-2-0.4c-2.4,0-4.5,1.4-5.4,3.5
		c-0.7,1.7-1.8,6.5,1,14c3.2,8.7,10.3,13,15.7,13c0.4,0,0.8,0,1.2-0.1C471.9,298.6,477.6,287.5,476.6,274.8z"/>
	<path style="fill:#F7CF57;" d="M469.9,279c2.4-1.1,4.6-2.5,6.7-4.2c1.1,12.7-4.6,23.8-14,25c-5.6,0.7-13.5-3.6-16.9-12.9
		c-2.8-7.5-1.7-12.3-1-14c1.2-2.9,4.5-4.3,7.5-3.1c0.9,0.4,5.1,1.9,3.3,8c-1,3.6-6,3.8-6.2,2.7c2,11.8,10,14.4,14,12.9
		C465.8,292.4,470.2,287.9,469.9,279z"/>
	<path style="fill:#F7CF57;" d="M477.5,342.3l5.8,3c-0.7,3-1.8,6.8-3.3,11.2c-1.6,4.7-3.8,9.1-6.5,13.2c-2.9,4.4-6.6,8.1-10.8,11.1
		c-4.7,3.2-10.3,5-16,5c-6.5,0.2-12.9-1.1-18.8-3.8c-6.4-3-12.1-7.3-16.6-12.7c-5.3-6.4-9.4-13.7-12-21.5c-3.3-9.8-5.1-20-5.2-30.3
		c-0.5-10.5,0.9-21.1,4-31.2c2.6-8.4,6.7-16.3,12.1-23.3c4.6-6,10.4-10.9,17-14.5c5.9-3.2,12.4-4.8,19.1-4.7c6.1,0,12,1.9,17,5.5
		c-0.4,0.6-0.8,1.2-1.3,1.7c-1,1-2.2,1.7-3.5,2.2c-1,0.4-2.1,0.7-3.2,0.8c-6.1-2.7-13.1-2.5-18.9,0.7c-4.5,2.7-8.4,6.4-11.2,10.9
		c-3.9,6.2-6.7,12.9-8.3,20c-2.3,10-3.3,20.2-3,30.4c0.1,6.7,0.8,13.4,2.1,20c1.2,6.6,3.2,13,6.1,19.1c2.5,5.4,6.2,10.2,10.7,14
		c4.5,3.6,10.2,5.3,15.9,4.5C466.1,371.9,475.7,355.1,477.5,342.3z"/>
</g>
</svg>
