<?xml version="1.0" encoding="utf-8"?>
<!-- Generator: Adobe Illustrator 26.1.0, SVG Export Plug-In . SVG Version: 6.00 Build 0)  -->
<svg version="1.1" id="Layer_1" xmlns="http://www.w3.org/2000/svg" xmlns:xlink="http://www.w3.org/1999/xlink" x="0px" y="0px"
	 viewBox="0 0 1000 1000" style="enable-background:new 0 0 1000 1000;" xml:space="preserve">
<path id="Shape_00000040541709403781856770000002505458042668340373_" style="fill:#F7CF57;" d="M378.4,851.4
	c2.2-3.1,3.4-6.9,3.4-10.8c0-5.5-1.9-10.2-5.8-14c-3.8-3.8-8.5-5.8-14-5.8h-24.6v61.5h10.1V860h11.9l13,22.4h11.1l-14-23.9
	C373.2,857.1,376.2,854.6,378.4,851.4L378.4,851.4L378.4,851.4z M362,850.9h-14.5v-20.5H362c2.6,0,5.1,1.1,6.8,3
	c3.7,4.1,3.7,10.4,0,14.6C367.1,849.9,364.6,851,362,850.9L362,850.9z M433.6,855.9c-1-1.1-2.1-2.1-3.2-3.1c-1-0.8-2.5-1.6-4.4-2.5
	c-2-0.8-3.5-1.4-4.6-1.8c-1.1-0.4-2.8-1-5.1-1.7c-4.7-1.5-7.9-2.9-9.7-4.2c-1.7-1.2-2.8-3.3-2.7-5.4c0-2.3,0.9-4.2,2.6-5.6
	s4.1-2.1,7-2.1c6,0,10.3,2.9,12.9,8.6l8.5-4.9c-1.8-4-4.8-7.5-8.5-9.9s-8-3.6-12.9-3.6c-5.4,0-10.1,1.6-14,4.8s-5.8,7.5-5.8,12.9
	c0,2.8,0.5,5.2,1.5,7.2c1,2.1,2.6,3.9,4.5,5.1c1.8,1.3,3.7,2.3,5.8,3.2c2.3,0.9,4.7,1.8,7.1,2.5c5.2,1.6,8.8,3,10.9,4.3
	c2,1.3,3.1,3.2,3.1,5.8c0.1,2.3-1,4.5-2.9,5.8c-1.9,1.5-4.8,2.2-8.6,2.2c-7.7,0-12.8-3.5-15.3-10.4l-8.7,5.1
	c1.5,4.6,4.6,8.5,8.6,11.1c4.1,2.7,9.1,4,15.1,4c6.5,0,11.7-1.6,15.8-4.9s6-7.7,6-13.2c0-1.8-0.2-3.6-0.7-5.4
	C435.5,858.5,434.7,857.1,433.6,855.9L433.6,855.9z M444.1,830.6h17.4v51.8h10.1v-51.8h17.3v-9.7h-44.8V830.6L444.1,830.6z
	 M254.2,882.4h12.5v-30.8h30.9v-11.9h-30.9v-21.2h31.9v-11.9h-44.4L254.2,882.4L254.2,882.4z M310.9,882.4H321v-61.5h-10.1V882.4z
	 M594.2,856.1h24.6v-9.6h-24.6v-16H621v-9.7h-36.9v61.5h37.3v-9.7h-27.2L594.2,856.1L594.2,856.1z M774.9,819.8
	c-8.9,0-16.4,3.1-22.6,9.3c-6.2,6.2-9.3,13.7-9.3,22.6s3.1,16.4,9.3,22.6c6.2,6.2,13.7,9.3,22.6,9.3c8.9,0,16.4-3.1,22.6-9.3
	s9.3-13.7,9.3-22.6c0-8.9-3.1-16.4-9.3-22.6S783.8,819.8,774.9,819.8L774.9,819.8L774.9,819.8z M790.4,867.4
	c-4.2,4.2-9.4,6.3-15.5,6.3s-11.3-2.1-15.5-6.3s-6.3-9.4-6.3-15.8s2.1-11.6,6.3-15.8s9.3-6.3,15.5-6.3c6.1,0,11.3,2.1,15.5,6.3
	s6.3,9.4,6.3,15.8S794.6,863.2,790.4,867.4L790.4,867.4z M675.9,851.4c2.2-3.1,3.4-6.9,3.4-10.8c0-5.5-1.9-10.2-5.8-14
	s-8.5-5.8-14-5.8H635v61.5h10V860h12l13,22.4h11l-14-23.9C670.7,857.1,673.7,854.6,675.9,851.4L675.9,851.4z M659.5,850.9H645v-20.5
	h14.5c2.6,0,5.1,1.1,6.8,3c3.7,4.1,3.7,10.4,0,14.6C664.6,849.9,662.1,851,659.5,850.9L659.5,850.9L659.5,850.9z M731.1,855.9
	c-1-1.1-2.1-2.1-3.2-3.1c-1-0.8-2.5-1.6-4.4-2.5c-2-0.8-3.5-1.4-4.6-1.8c-1.1-0.4-2.8-1-5.1-1.7c-4.7-1.5-7.9-2.9-9.7-4.2
	c-1.7-1.2-2.8-3.3-2.7-5.4c0-2.3,0.9-4.2,2.6-5.6c1.8-1.4,4.1-2.1,7-2.1c6,0,10.3,2.9,12.9,8.6l8.5-4.9c-1.8-4-4.8-7.5-8.5-9.9
	s-8-3.6-12.9-3.6c-5.4,0-10.1,1.6-14,4.8s-5.8,7.5-5.8,12.9c0,2.8,0.5,5.2,1.5,7.2c1,2.1,2.6,3.9,4.5,5.1c1.8,1.3,3.7,2.3,5.8,3.2
	c2.3,0.9,4.7,1.8,7.1,2.5c5.2,1.6,8.8,3,10.9,4.3c2,1.3,3.1,3.2,3.1,5.8c0.1,2.3-1,4.5-2.9,5.8c-1.9,1.5-4.8,2.2-8.6,2.2
	c-7.7,0-12.8-3.5-15.3-10.4l-8.7,5.1c1.5,4.6,4.6,8.5,8.6,11.1c4.1,2.7,9.1,4,15.1,4c6.5,0,11.7-1.6,15.8-4.9c4-3.2,6-7.7,6-13.2
	c0-1.8-0.2-3.6-0.7-5.4C733,858.5,732.2,857.1,731.1,855.9L731.1,855.9L731.1,855.9z M548.5,806.6h-27.9v75.8H533v-26h15.5
	c7.1,0,13.1-2.4,17.9-7.2c4.8-4.8,7.2-10.7,7.2-17.7c0-7.1-2.4-13-7.2-17.8C561.6,809,555.7,806.6,548.5,806.6L548.5,806.6z
	 M557.6,841c-2.4,2.5-5.4,3.7-9.1,3.7H533v-26.4h15.5c3.7,0,6.7,1.2,9.1,3.7c2.4,2.5,3.6,5.6,3.6,9.5
	C561.2,835.3,560,838.5,557.6,841L557.6,841L557.6,841z M856.6,820.9v41.7l-29-41.7h-7.9v61.5h10.1v-41.7l29,41.7h7.9v-61.5H856.6
	L856.6,820.9z"/>
<path id="Path-5_00000070797526694466132510000000040002632244785069_" style="fill-rule:evenodd;clip-rule:evenodd;fill:#F7CF57;" d="
	M150.5,790.4c30.2-16.1,69.1,0.9,72.1,41.9C166.6,836.7,159.9,811.5,150.5,790.4z"/>
<path id="Path-7_00000149367024305364704460000002479639474513150353_" style="fill-rule:evenodd;clip-rule:evenodd;fill:#F7CF57;" d="
	M153.8,892.2c30.2,16.1,69.1-0.9,72.1-41.9C169.9,846,163.1,871.1,153.8,892.2z"/>
<g>
	<path id="fgp_fs_logo-B_1_" style="fill:#F7CF57;" d="M403.4,393.9l93.9,2.6v40.4l-23-0.3l-0.1-19.6l-11-0.3l0.4,100.4l10.7,0.1
		v19.3h-47.6l0.1-19.5H438l-0.2-100.8l-11.1-1l0.1,20l-23.3-1.5v-39.8H403.4z M589.9,411.8l-17.6-17l-62,1.6v21l10.2-0.1v99.9h-10.1
		v19.4l62.9-0.1l16.7-17.1v-43.7l-12.5-11l12.5-12.3v-40.6H589.9z M564.4,517l-18.7,0.2v-40.9l18.7-0.2V517z M564.4,456.4l-18.7,0.4
		v-39.9l18.7-0.3V456.4z M767.2,489.9l25-1.5v48.2h-75.9v-21.2l11.2-0.3V392.5l-11.2,1.5v-22.4l50.9-8.5v22.2l-15.4,2.2v126.9
		l15.4-0.4V489.9z M880.8,482.5v54.1h-75.6v-23.1l10.7-0.5l0.1-136.2l-10.8,2.2l0.2-23.1l50.4-13.5V367l-15.4,3.9v141.5l15.4-0.5
		v-27.4L880.8,482.5z M206.6,410.3l-0.1-46L132.2,343l0.1,26.6l11.1,2.7l0.3,140.5l-11.4-0.4l0.1,24.2l49.7-0.1V514l-12.1-0.4V455
		l12.1,1.5v5.6l18.4,2.2l-0.1-35.5l-18.4-3.3v6.4l-12.1-2l-0.1-51.1l15.9,3.9l0.1,23.2L206.6,410.3z M696.5,515.7L673.6,403l3.9-0.7
		v-20.6l-45.3,5.5v20l3.5-0.5l-24.8,110.1l-8,0.1v19.7h42.7v-20.2l-9.3,0.1l5.1-23.5l15-0.3l9.7-0.3v0.1h0.4l4.8,23.7l-10.3,0.1
		v20.4h42.2v-21.1L696.5,515.7z M643.6,472.5l11-39.9l10.3,39.6L643.6,472.5z M239.4,371.4l-16.2,15.3v128.2l17.8,20.4l36.9-0.1
		l15.5-17.2V401.2l-16.8-21.7L239.4,371.4z M267.4,513.5l-18.2-0.5V396.2l18.2,3.9V513.5z M369.7,392.1l-37.2-5l-16.2,13.8v115.9
		l17.8,18.5l36.9-0.1l15.5-15.6V411.7L369.7,392.1z M360.5,514.9l-18.2-0.3v-105l18.2,3V514.9z"/>
</g>
<polygon style="fill:#F7CF57;" points="547.8,738.4 516.4,738.4 506.7,708.5 497,738.4 465.6,738.4 491,756.8 481.3,786.7 
	506.7,768.2 532.1,786.7 522.4,756.8 "/>
<polygon style="fill:#F7CF57;" points="439.1,730.5 456.8,717.6 435,717.6 428.2,696.8 421.4,717.6 399.5,717.6 417.2,730.5 
	410.5,751.3 428.2,738.4 445.9,751.3 "/>
<polygon style="fill:#F7CF57;" points="591,717.5 584.2,696.7 577.5,717.5 555.6,717.5 573.3,730.4 566.5,751.2 584.2,738.3 
	601.9,751.2 595.2,730.4 612.9,717.5 "/>
<path style="fill:#F7CF57;" d="M653.5,588.3h-16.8c-13.4,0-24.3,9.1-24.3,20.4v-20.4H588v20.4c0-11.2-10.9-20.4-24.3-20.4h-64v47.5
	c-0.3,0.2-0.6,0.2-0.9,0.2h-13c-0.3,0-0.6-0.1-0.9-0.2v-47.5h-125c-13.4,0-24.3,9.1-24.3,20.4v3.9c0,11.2,10.9,20.4,24.3,20.4h15
	c0.3,0,0.6,0.1,0.9,0.2v2.6c-0.3,0.2-0.6,0.2-0.9,0.2h-38.4v20.8h38.7c13.4,0,24.3-9.1,24.3-20.4v-3.9c0-11.2-10.9-20.4-24.3-20.4
	H360c-0.3,0-0.6-0.1-0.9-0.2v-2.5c0.3-0.2,0.6-0.2,0.9-0.2h55.8v47.6h23.6v-47.6h21.7v27.2c0,11.2,10.9,20.4,24.3,20.4H499
	c13.4,0,24.3-9.1,24.3-20.4v20.4h40.2c13.4,0,24.3-9.1,24.3-20.4v20.4h24.4v-20.4c0,11.2,10.9,20.4,24.3,20.4h16.8
	c13.4,0,24.3-9.1,24.3-20.4v-27.7C677.8,597.5,666.9,588.3,653.5,588.3z M564.2,635.8c-0.3,0.2-0.6,0.2-0.9,0.2h-15.9v-26.9h15.9
	c0.3,0,0.6,0.1,0.9,0.2V635.8z M654.1,635.8c-0.3,0.2-0.6,0.2-0.9,0.2h-16.3c-0.3,0-0.6-0.1-0.9-0.2v-26.4c0.3-0.2,0.6-0.2,0.9-0.2
	h16.3c0.3,0,0.6,0.1,0.9,0.2V635.8z"/>
<g>
	<path style="fill:#F7CF57;" d="M426,325.5c-0.7,0.3-1.6,0.5-2.5,0.8c-0.9,0.2-1.7,0.4-2.7,0.5c-2,0.3-3.9,0.4-5.9,0.3
		c-2.1-0.1-4.2-0.5-6.2-1.1c-2.1-0.6-4.1-1.4-6.1-2.4c-1.9-1-3.8-2.2-5.5-3.5c-1.6-1.3-3.2-2.8-4.5-4.4c-2.5-2.8-4.5-6-5.9-9.5
		c-0.6-1.4-1.1-2.8-1.5-4.3c-0.3-1.1-0.5-2.3-0.7-3.4c-0.2-1-0.3-2-0.3-3.1c0,0-0.1,0.3-0.2,0.8c-0.2,0.8-0.3,1.5-0.3,2.3
		c-0.1,1.2-0.1,2.5,0,3.7c0.1,1.6,0.3,3.2,0.7,4.8c0.5,1.9,1.1,3.7,1.9,5.5c0.9,2,2,3.9,3.3,5.6c1.4,1.9,3,3.6,4.8,5.2
		c1.9,1.6,3.9,3,6.1,4.2c1.1,0.6,2.2,1.1,3.4,1.6c1.2,0.4,2.4,0.8,3.6,1.1c2.3,0.6,4.8,0.9,7.2,0.9c2.3,0,4.5-0.3,6.7-0.9
		c1-0.3,2.1-0.7,3.1-1c0.9-0.4,1.5-0.7,2.5-1.2c2.6-1.4,4.8-3.4,6.6-5.7c0.5-0.6,0.9-1.3,1.3-2c0.3-0.5,0.4-0.7,0.4-0.7
		c-0.7,0.7-1.5,1.4-2.4,2C430.9,323.3,428.5,324.6,426,325.5z"/>
	<path style="fill:#F7CF57;" d="M654.5,291.9c0.6-3,0.3-6.2-0.9-9.1c-0.4-0.9-0.8-1.7-1.3-2.4c-3.1-13.5-8-27.7-14.1-41
		c0-0.1-0.1-0.2-0.1-0.3c0,0,0,0,0-0.1c-0.1-0.1-0.1-0.2-0.2-0.3c-3.7-7.9-7.8-15.5-12.2-22.4c-1.9-3.1-5.8-4.5-9.3-3.3c0,0,0,0,0,0
		c0,0,0,0,0,0c0,0,0,0,0,0c-0.2,0.1-0.5,0.2-0.7,0.3l-15.5,6.6c-6.3-9.2-12.6-18.4-18-26.4l-1.6-2.4l4.5-10.9
		c3.7-8.3,2.6-17.2-2.9-23.2c-6.6-7.2-17.1-8.6-27.6-7.8c-34.3-34.7-97.7-49.1-147.1-24.3c0,0,0,0,0,0c0,0,0,0,0,0
		c-1.9,1-3.9,2-5.7,3.1c-60.3,34.9-81.9,101.3-47.5,164.6c12,22.1,55.1,90.7,116.7,70.5c2.1-0.7,4.1-1.5,6.3-2.3
		c1-0.4,1.9-0.8,2.8-1.3l0.3,0.5c19.4-11.6,28.9-27.7,26.7-44.7c1.4-0.5,3-1.1,4.6-1.6c18.5,20.3,41.6,26,70.6,17.4
		c3.9-1.1,7.7-2.3,11.3-3.5c14.5-4.7,28.7-10.4,42.4-17.2l1.4-0.7c4.3-2.1,9.5-5.2,13.2-9.5C653.3,298.6,655.1,295.3,654.5,291.9
		C654.5,291.9,654.5,291.9,654.5,291.9z M441.7,256.4c-0.1-10.6,0.7-19.7,3.8-27.5c0.6,0.8,1.2,1.6,1.8,2.4c-1.1,2.9-1.8,5.8-2,8.7
		c-0.5,7.5,1.9,14.8,7.6,22.7c-2.1-0.9-4.2-1.8-6.4-2.9l-4.8-2.4L441.7,256.4z M535.5,169.4l0.6-0.2c10.5-3.4,17.9-4.5,23.1-4.6
		c0.1,0.2,0.3,0.4,0.4,0.6c-16.8,1.4-60.9,17-89.9,39.8c-5.2,4.1-9.6,8.1-13.1,12c-0.5-0.7-1-1.3-1.4-1.9
		C475.1,196.6,505,179.6,535.5,169.4z M625.2,256c-0.4-0.6-0.9-1.3-1.4-2c1-0.4,1.9-0.9,2.8-1.2c1.5,3.6,2.9,7.2,4.2,10.8
		C629,261.5,627.2,259,625.2,256z M596.8,248.6c-1.4-2.9-2.8-5.6-4.3-8.2l1.9-0.8c1.8,2.6,3.6,5.2,5.3,7.7
		C598.7,247.7,597.8,248.2,596.8,248.6z M619.9,238.3c-1.6,0.7-3.3,1.5-5.3,2.4c-1.7-2.4-3.4-5-5.2-7.5l6.2-2.6
		C617.1,233.1,618.5,235.7,619.9,238.3z M536.5,310.5c1.4,0.2,2.8,0.4,4.3,0.7c13.1,2.1,32.2,5.2,49.1-7.5c0.8,2.5,1.5,5,2.2,7.4
		c-1.2,0.4-2.4,0.8-3.6,1.2c-3.5,1.2-7.3,2.3-11.1,3.5c-19,5.6-33.7,3.9-46.3-5.6C532.9,310.1,534.7,310.2,536.5,310.5z M628.7,296
		c-7,3.5-14.2,6.7-21.4,9.6c-1.5-5.3-3.2-10.8-5.2-16.2c3.3-7.9,2.8-17,0.4-25.8c2.2-1,4.3-1.9,6.4-2.8c1,1.5,2.1,3,3,4.3
		c8.2,11.9,14.8,19.1,25.7,23.2c0.1,0.6,0.3,1.2,0.4,1.8c-1.1,1.3-3.5,3.3-7.8,5.3L628.7,296z M441.8,275.2c9.6,4.5,19,7.2,28.5,7.9
		c2.9,3.8,5.8,7.8,8.4,12c-7.2,0.5-14.4,0.1-21.5-1.2l-15.3-3.2L441.8,275.2z M430.1,269.3C430.1,269.4,430.1,269.4,430.1,269.3
		l7.7,3.9l0.1,16.6l-1.8-0.4c-1.5-0.4-3.2-0.4-4.7,0.1c-0.6,0.2-1.1,0.4-1.6,0.5l-0.2-21C429.8,269.2,429.9,269.3,430.1,269.3z
		 M573.2,209l0.1-0.2c4,5.8,8,11.7,11.9,17.4l-1.6,0.7c-0.1-0.2-0.3-0.4-0.4-0.5c-4.6-6.3-8.2-11.5-11-15.9
		C572.7,210,573,209.6,573.2,209z M556,160.8c0-0.1,0.1-0.2,0.1-0.3c0.1,0.1,0.2,0.2,0.2,0.3C556.2,160.8,556.1,160.8,556,160.8z
		 M548.9,153.7c1.2,0.2,2.2,0.8,3.1,1.7c1.4,2,1.6,4.6,0.3,5.6c0,0,0,0,0,0c-0.1,0.1-0.1,0.1-0.2,0.2c-4.7,0.7-10.4,2-17.3,4.2
		c-0.2,0.1-0.4,0.1-0.6,0.2c-13.5,4.5-26.9,10.3-39.4,17c0.1-1.4-0.2-2.9-0.9-4.2c-0.7-1.2-1.7-2.1-2.9-2.8
		c12.9-6.9,26.8-13,40.7-17.6c0.4-0.1,0.7-0.2,1.1-0.4C537.4,156.2,543,154.7,548.9,153.7z M486.4,178.2c0.7-0.2,1.4-0.2,2.1,0
		c1,0.3,1.9,1,2.5,1.9c0,0,0,0,0,0c1.1,1.9,0.5,4.2-1.4,5.4c-14.1,8-26.8,17-37,26.4c-0.4-0.5-0.7-1-1-1.3c-1.5-1.9-3.7-3-6-3.2
		C456.9,197,470.9,186.9,486.4,178.2z M437.6,217.6c0.3,0.9,0.7,1.8,1.3,2.6c0.1,0.1,1.5,2,3.8,5.1c-4,8.5-5,18.5-5,30.1l-0.1,0
		c-1.9-1-4.2-1.2-6.2-0.5h0c-0.6,0.2-1.2,0.5-1.8,0.9C429.5,240.8,431.1,228.3,437.6,217.6z M579.2,159.5c4.5,4.9,5.3,12.1,2.2,19
		l-11.5,28.1c-2.2-3.9-3.7-7.1-4.7-9.8l8.7-21.4c0.5-1.1,1.2-3.1,1.2-5.2l1.1-2.4l-1.6-0.7c-0.3-0.8-0.8-1.5-1.4-2.2
		c-0.9-1-3.3-2.9-8.5-3.8c-2-2.9-4.2-5.6-6.6-8.3C566.4,152.5,574.3,154.1,579.2,159.5z M474.6,354.8c-60,25.1-103-43.7-114.8-65.4
		c-29.7-54.6-17.8-115.3,27.3-150.8c27.4,0.8,52.8,12.5,72.9,35c0.5,0.6,1.3,0.7,2,0.4l0,0l23.9-12c0.6-0.4,1.1-1,1.2-1.7
		c0.1-0.8-0.1-1.5-0.6-2.1c-19.5-20.6-50.3-33.4-77.2-33.5c0.7-0.3,1.4-0.7,2.1-1c31.4-0.7,61.9,10.7,85.3,31.8
		c0.5,0.4,1.2,0.6,1.8,0.4l0,0l21.8-7.6c0.6-0.2,1-0.7,1.2-1.3c0.1-0.6,0-1.2-0.5-1.6c-16.5-16.2-44.2-28.6-69.8-32
		c35-2.6,70.6,10.5,95.9,36.6c-5.8,1-11.2,2.5-15.5,4c-0.4,0.1-0.8,0.3-1.1,0.4c-33.3,11.1-66.1,29.9-87.7,50.5
		c-14.5,13.8-17.3,30.6-17.2,51.7l0.3,39.3c0,0,0,0.1,0,0.1c0,0.1,0,0.2,0,0.2c0,0.2,0,0.3,0,0.5c0,0.1,0,0.3,0.1,0.4
		c0,0.1,0,0.2,0.1,0.3c0,0.2,0.1,0.4,0.2,0.6c0,0,0,0.1,0,0.1c0.7,2,2.1,3.7,4.1,4.7c0.5,0.2,0.9,0.4,1.5,0.5l21.3,5.9
		c0.2,0,0.3,0.1,0.5,0.1c8.1,1.7,20.4,2.5,33.2,0.9c1.2,2.9,2.3,5.8,3.1,8.7c0,0.1,0.1,0.2,0.1,0.3
		C494.8,336.6,489.6,348.5,474.6,354.8z"/>
</g>
</svg>
