<svg class="S" xmlns="http://www.w3.org/2000/svg" viewBox="0 0 126 126"><path d="M93.15 24.05c.07-3.36 0-5.47 0-5.47H32.94s-.11 2.11 0 5.47H13v3.59c0 .81.13 20.08 11 30.64a23.31 23.31 0 0016.86 6.61c1 0 2.05-.07 3.09-.16 3.79 5.67 8.17 9.66 13.09 11.63v15.73H38.16v9.84h-4.79v5.51h59.26v-5.51h-4.79v-9.84H69V76.36c4.91-2 9.3-6 13.1-11.63 1 .09 2.08.16 3.1.16a23.34 23.34 0 0016.8-6.61c10.86-10.56 11-29.83 11-30.64v-3.59zM28.36 52.94c-6.2-6-8-16.3-8.59-21.73h13.46c.57 6.75 1.9 15.18 5 22.57.57 1.36 1.16 2.66 1.77 3.92a17.2 17.2 0 01-11.63-4.76zm69.28 0A17.24 17.24 0 0186 57.7c.62-1.26 1.2-2.56 1.77-3.92 3.1-7.39 4.44-15.82 5-22.57h13.46c-.55 5.43-2.39 15.72-8.6 21.73z"/></svg>
