<?xml version="1.0" encoding="utf-8"?>
<!-- Generator: Adobe Illustrator 24.1.2, SVG Export Plug-In . SVG Version: 6.00 Build 0)  -->
<svg version="1.1" id="Layer_1" xmlns="http://www.w3.org/2000/svg" xmlns:xlink="http://www.w3.org/1999/xlink" x="0px" y="0px"
	 viewBox="0 0 122.9 21.8" style="enable-background:new 0 0 122.9 21.8;" xml:space="preserve">
<style type="text/css">
	.st0{fill:#FFFFFF;}
</style>
<g>
	<g>
		<rect x="1.4" y="18.8" class="st0" width="0.7" height="0.7"/>
		<rect x="4.7" y="6" class="st0" width="1.3" height="1.3"/>
		<rect x="6.7" y="6" class="st0" width="1" height="1.3"/>
		<rect x="6" y="9.4" class="st0" width="2" height="1.3"/>
		<rect x="10" y="9.4" class="st0" width="2" height="1.3"/>
		<rect x="8.3" y="6" class="st0" width="1.3" height="1.3"/>
		<rect x="12.3" y="6" class="st0" width="1.3" height="1.3"/>
		<path class="st0" d="M9,2h4c1.9,0,3.5,1.5,3.6,3.3h0.7c-0.2-2.2-2-4-4.3-4H9c-2.3,0-4.1,1.8-4.3,4h0.7C5.5,3.5,7.1,2,9,2L9,2z"/>
		<rect x="10.3" y="6" class="st0" width="1.3" height="1.3"/>
		<rect x="16" y="6" class="st0" width="1.3" height="1.3"/>
		<path class="st0" d="M13,2.7H9c-1.5,0-2.8,1.2-3,2.7h10C15.8,3.9,14.5,2.7,13,2.7L13,2.7z M8.7,4.7H8V4h0.7V4.7z M10,4.7H9.3V4H10
			V4.7z M11.3,4.7h-0.7V4h0.7V4.7z M12.7,4.7H12V4h0.7V4.7z M14,4.7h-0.7V4H14V4.7z"/>
		<rect x="14" y="9.4" class="st0" width="2" height="1.3"/>
		<rect x="14.3" y="6" class="st0" width="1" height="1.3"/>
		<path class="st0" d="M8.2,15.4H6V18H3.4v0.7H2.7v0.7h5.1c-0.3-0.5-0.4-1.1-0.4-1.7C7.3,16.8,7.6,16,8.2,15.4L8.2,15.4z"/>
		<path class="st0" d="M5.4,14.8h11.3v2.7h0.7v-4.7H4.7v4.7h0.7C5.4,17.4,5.4,14.8,5.4,14.8z M12,13.4h4.7V14H12V13.4z M8,13.4h0.7
			V14H8V13.4z M6.7,13.4h0.7V14H6.7V13.4z M5.4,13.4H6V14H5.4V13.4z"/>
		<path class="st0" d="M18.7,18H16v-2.7h-2.2c0.5,0.6,0.8,1.5,0.8,2.3c0,0.6-0.1,1.2-0.4,1.7h5.1v-0.7h-0.7V18H18.7z"/>
		<path class="st0" d="M20,11.8c0-0.2-0.1-0.3-0.3-0.3H18v1.3h1.3v0.7H18V14h1.7c0.2,0,0.3-0.1,0.3-0.3V11.8z"/>
		<path class="st0" d="M3,15.4h1v-6H3c-0.2,0-0.3,0.1-0.3,0.3V15C2.7,15.3,2.8,15.4,3,15.4L3,15.4z"/>
		<path class="st0" d="M17.3,8H4.7v4h12.6V8z M8.7,11.4H5.4V8.8h3.3V11.4z M12.7,11.4H9.3V8.8h3.3L12.7,11.4L12.7,11.4z M16.7,11.4
			h-3.3V8.8h3.3V11.4z"/>
		<path class="st0" d="M19.3,3.4C18.6,3.4,18,4,18,4.7c0,0.6,0.4,1.1,1,1.3v4.7h0.7V6c0.6-0.1,1-0.7,1-1.3C20.7,4,20.1,3.4,19.3,3.4
			z"/>
		<rect x="20" y="18.8" class="st0" width="0.7" height="0.7"/>
		<path class="st0" d="M9,15.4c-0.5,0.5-0.9,1.3-0.9,2.1c0,1.6,1.3,3,3,3c1.6,0,3-1.3,3-3c0-0.8-0.3-1.6-0.9-2.1
			C13.2,15.3,9,15.3,9,15.4z M10.6,19.3H9.8v-2.6l0,0l-0.6,0.3l-0.1-0.6l0.8-0.4h0.7C10.6,15.9,10.6,19.3,10.6,19.3z M12,19.3
			c-0.8,0-1-0.9-1-1.7c0-0.9,0.3-1.7,1-1.7c0.9,0,1,1,1,1.7C13.1,18.8,12.6,19.3,12,19.3z"/>
		<path class="st0" d="M12.1,16.5c-0.2,0-0.3,0.3-0.2,1c0,0.8,0.1,1,0.2,1c0.2,0,0.2-0.3,0.2-1C12.3,16.9,12.2,16.5,12.1,16.5z"/>
	</g>
	<path class="st0" d="M24.9,7.2c0.1,0,0.3,0,0.3,0.3V15H27c0.2,0,0.3,0.1,0.3,0.3v0.9c0,0.2-0.1,0.3-0.3,0.3h-5.4
		c-0.2,0-0.3-0.1-0.3-0.3v-0.9c0-0.2,0.1-0.3,0.3-0.3h1.8V9l-1.8,0.3c-0.2,0-0.4-0.1-0.4-0.3V8.3c0-0.2,0.1-0.3,0.4-0.4L24.9,7.2z"
		/>
	<path class="st0" d="M28.2,9.4c0-1.1,0.8-2.2,3.1-2.2s3.1,1.1,3.1,2.2v5c0,1.1-0.8,2.2-3.1,2.2c-2.4,0-3.1-1.1-3.1-2.2V9.4z
		 M32.7,9.8c0-0.7-0.4-1-1.3-1c-0.9,0-1.3,0.3-1.3,1V14c0,0.7,0.4,1,1.3,1c0.9,0,1.3-0.3,1.3-1V9.8z"/>
	<path class="st0" d="M42.5,16.3c0.1,0.2,0.1,0.3-0.2,0.3h-1.5c-0.2,0-0.4-0.2-0.5-0.3l-2.5-3.5h-0.2v3.5c0,0.2-0.1,0.3-0.3,0.3
		h-1.2c-0.2,0-0.3-0.1-0.3-0.3V7.7c0-0.2,0.1-0.3,0.3-0.3h1.2c0.2,0,0.3,0.1,0.3,0.3v3.6h0.2l2.4-3.6c0.1-0.2,0.3-0.3,0.5-0.3H42
		c0.2,0,0.3,0.2,0.2,0.3l-2.8,4.2L42.5,16.3z"/>
	<path class="st0" d="M52.1,13v3.1c0,0.2-0.1,0.4-0.3,0.4h-1.2c-0.2,0-0.3-0.1-0.3-0.4V7.7c0-0.2,0.1-0.4,0.3-0.4h2.8
		c2.4,0,3.3,1.1,3.3,2.2v1.3c0,0.8-0.4,1.6-1.5,1.9l1.5,3.4c0.1,0.2-0.1,0.4-0.3,0.4h-1.2c-0.2,0-0.2-0.1-0.3-0.4L53.6,13h-0.1H52.1
		z M52.1,8.9v2.7h1.3c0.9,0,1.5-0.3,1.5-1V9.9c0-0.7-0.6-1-1.5-1H52.1z"/>
	<path class="st0" d="M68.6,17.1c0.7,0,1.2,0.3,1.2,1.1c0,0.8-0.5,1.1-1.2,1.1H67c-0.2,0-0.3-0.1-0.3-0.3v-0.3
		c0-0.2,0.1-0.3,0.3-0.3h1.3c0.1,0,0.3-0.1,0.3-0.2s-0.1-0.2-0.3-0.2h-1c-0.4,0-0.5-0.2-0.4-0.4l0.3-1c-1.9-0.2-2.6-1.1-2.6-2.2
		v-0.9c0-0.2,0.1-0.4,0.3-0.4H66c0.2,0,0.3,0.1,0.3,0.4v0.6c0,0.7,0.5,1,1.4,1s1.4-0.3,1.4-1v-0.4c0-0.6-0.5-0.8-1.1-1L65.9,12
		c-0.6-0.2-1.1-0.9-1.1-1.7V9.4c0-1.1,0.7-2.2,3.1-2.2S71,8.4,71,9.4V10c0,0.2-0.1,0.3-0.3,0.3h-1.1c-0.2,0-0.3-0.1-0.3-0.3V9.6
		c0-0.7-0.4-1-1.3-1s-1.3,0.3-1.3,1v0.2c0,0.5,0.3,0.6,0.6,0.7l2.3,0.8c0.9,0.3,1.6,0.9,1.6,1.9v1c0,1.1-0.7,2-2.7,2.2l-0.1,0.5h0.2
		V17.1z"/>
	<path class="st0" d="M78.5,9.6c0-0.7-0.4-1-1.3-1s-1.3,0.3-1.3,1v0.2c0,0.5,0.3,0.6,0.6,0.7l2.3,0.8c0.9,0.3,1.6,0.9,1.6,1.9v1
		c0,1.1-0.8,2.2-3.2,2.2S74,15.3,74,14.3v-0.9c0-0.2,0.1-0.4,0.3-0.4h1.1c0.2,0,0.3,0.1,0.3,0.4V14c0,0.7,0.5,1,1.4,1s1.4-0.3,1.4-1
		v-0.4c0-0.6-0.5-0.8-1.1-1l-2.1-0.8c-0.6-0.2-1.2-0.9-1.2-1.7V9.4c0-1.1,0.7-2.2,3.1-2.2c2.4,0,3.1,1.1,3.1,2.2V10
		c0,0.2-0.1,0.3-0.3,0.3h-1.1c-0.2,0-0.3-0.1-0.3-0.3L78.5,9.6L78.5,9.6z"/>
	<path class="st0" d="M83.4,15h3c0.2,0,0.3,0.1,0.3,0.3v0.9c0,0.2-0.1,0.3-0.3,0.3h-4.5c-0.2,0-0.3-0.1-0.3-0.4V7.7
		c0-0.2,0.1-0.4,0.3-0.4h1.2c0.2,0,0.3,0.1,0.3,0.4V15z"/>
	<path class="st0" d="M87.4,9.4c0-1.1,0.8-2.2,3.3-2.2c2.4,0,3.3,1.1,3.3,2.2v5c0,1.1-0.8,2.2-3.3,2.2c-2.4,0-3.3-1.1-3.3-2.2V9.4z
		 M92.2,9.8c0-0.7-0.6-1-1.5-1s-1.4,0.3-1.4,1V14c0,0.7,0.5,1,1.4,1s1.5-0.3,1.5-1V9.8z"/>
	<path class="st0" d="M100.6,7.3c0.2,0,0.3,0.1,0.3,0.3v0.8c0,0.2-0.1,0.3-0.3,0.3h-1.9V16c0,0.2-0.1,0.4-0.3,0.4h-1.2
		c-0.2,0-0.3-0.1-0.3-0.4V8.9H95c-0.2,0-0.3-0.1-0.3-0.3V7.6c0-0.2,0.1-0.3,0.3-0.3C95,7.3,100.6,7.3,100.6,7.3z"/>
	<path class="st0" d="M103.5,15h3c0.2,0,0.3,0.1,0.3,0.3v0.9c0,0.2-0.1,0.3-0.3,0.3H102c-0.2,0-0.3-0.1-0.3-0.4V7.7
		c0-0.2,0.1-0.4,0.3-0.4h1.2c0.2,0,0.3,0.1,0.3,0.4V15z"/>
	<path class="st0" d="M111.2,7.3c0.2,0,0.4,0.1,0.4,0.3l2.5,8.5c0.1,0.2,0,0.3-0.2,0.3h-1.2c-0.2,0-0.3-0.1-0.4-0.3l-0.5-1.6h-2.5
		l-0.5,1.6c-0.1,0.2-0.2,0.3-0.4,0.3h-1.1c-0.2,0-0.3-0.1-0.3-0.3l2.5-8.5c0.1-0.2,0.2-0.3,0.4-0.3H111.2z M110.9,11.6
		c-0.1-0.6-0.3-2.3-0.4-2.5c0,0.2-0.3,1.9-0.4,2.4l-0.5,1.5h1.7L110.9,11.6z"/>
	<path class="st0" d="M116.7,13v3.1c0,0.2-0.1,0.4-0.3,0.4h-1.2c-0.2,0-0.3-0.1-0.3-0.4V7.7c0-0.2,0.1-0.4,0.3-0.4h2.8
		c2.4,0,3.3,1.1,3.3,2.2v1.3c0,0.8-0.4,1.6-1.5,1.9l1.5,3.4c0.1,0.2-0.1,0.4-0.3,0.4h-1.2c-0.2,0-0.2-0.1-0.3-0.4l-1.3-3.1h-0.1
		H116.7z M116.7,8.9v2.7h1.3c0.9,0,1.5-0.3,1.5-1V9.9c0-0.7-0.6-1-1.5-1H116.7z"/>
	<g>
		<path class="st0" d="M44.8,14.1c0,0.7,0.5,1,1.4,1c0.9,0,1.4-0.3,1.4-1V7.8c0-0.2,0.1-0.3,0.3-0.3h1.2c0.2,0,0.3,0.1,0.3,0.3v6.6
			c0,1.1-0.8,2.2-3.2,2.2c-2.4,0-3.2-1-3.2-2.2V7.8c0-0.2,0.1-0.3,0.3-0.3h1.2c0.2,0,0.3,0.1,0.3,0.3V14.1z"/>
	</g>
	<g>
		<path class="st0" d="M59.3,14.1c0,0.7,0.5,1,1.4,1c0.9,0,1.4-0.3,1.4-1V7.8c0-0.2,0.1-0.3,0.3-0.3h1.2c0.2,0,0.3,0.1,0.3,0.3v6.6
			c0,1.1-0.8,2.2-3.2,2.2s-3.2-1-3.2-2.2V7.8c0-0.2,0.1-0.3,0.3-0.3H59c0.2,0,0.3,0.1,0.3,0.3V14.1z"/>
	</g>
</g>
</svg>
