<?xml version="1.0" encoding="UTF-8"?>
<svg id="Layer_1" xmlns="http://www.w3.org/2000/svg" xmlns:xlink="http://www.w3.org/1999/xlink" version="1.1" viewBox="0 0 1056.6 202">
  <!-- Generator: Adobe Illustrator 29.2.1, SVG Export Plug-In . SVG Version: 2.1.0 Build 116)  -->
  <defs>
    <style>
      .st0 {
        fill: #fff;
      }

      .st1 {
        fill: #fcd500;
      }
    </style>
  </defs>
  <g>
    <path class="st0" d="M180.3,92.6l11.9-56.2h19.2l-4.4,20.5h10.4l4.4-20.5h19.1l-12,56.2h-19.1l4.4-20.6h-10.4l-4.4,20.6h-19.1Z"/>
    <path class="st0" d="M257.8,93.2c-5,0-9-.3-11.8-.9-2.8-.6-4.8-1.7-6.1-3-1.1-1.5-1.8-3.4-1.8-5.8s.1-3.2.4-5.1c.3-2,.7-4.2,1.3-6.6.7-3.4,1.5-6.5,2.2-9,.7-2.5,1.5-4.5,2.5-6.2.9-1.7,2.2-2.9,3.8-3.9s3.5-1.6,6.1-2,5.5-.5,9.3-.5,9,.3,11.8.9c2.8.6,4.9,1.7,6.1,3,1.1,1.5,1.8,3.4,1.8,5.9s-.1,3.1-.4,5.1-.7,4.1-1.3,6.5c-.7,3.4-1.5,6.5-2.2,9s-1.6,4.5-2.5,6.2-2.2,2.9-3.8,3.9c-1.6.9-3.5,1.6-6.1,2-2.4.3-5.5.5-9.3.5ZM259,80.9c.7,0,1.3,0,1.7-.1s.8-.3,1.1-.5c.3-.3.5-.8.8-1.5.2-.7.5-1.6.7-2.7.3-1.1.6-2.6.9-4.4.4-1.9.7-3.4.9-4.6.2-1.1.2-2.1.2-2.8s-.1-1-.3-1.3c-.2-.2-.5-.4-.9-.5s-.9-.1-1.6-.1-1.6.1-2.1.2c-.5.1-.8.5-1.1,1.1-.3.6-.6,1.5-.9,2.7-.3,1.3-.6,2.9-1.1,5.2-.4,2-.7,3.5-.9,4.7-.2,1.1-.3,2.1-.3,2.7s.1.9.3,1.3c.2.3.5.4.9.5.4,0,.9,0,1.7,0Z"/>
    <path class="st0" d="M283.6,92.6l12.7-60.7h17.8l-12.8,60.7h-17.7Z"/>
    <path class="st0" d="M308.7,92.6l8.8-41.7h17.8l-8.9,41.7h-17.7ZM318.8,44.2l2.6-12.3h17.8l-2.6,12.3h-17.8Z"/>
    <path class="st0" d="M347.8,109.4c-1.8,0-3.7-.1-5.6-.2s-3.8-.2-5.4-.4c-1.7-.2-3.1-.4-4.3-.6l2.3-11.1h10.6c2.5,0,4.4,0,5.7-.1s2.4-.3,3-.7c.7-.4,1.1-1,1.5-1.9s.6-2,.9-3.5c.1-.6.3-1.3.5-1.9.2-.6.4-1.3.5-1.9h-.8c-1.1,1.4-2.4,2.4-3.5,3-1.1.7-2.4,1.1-3.8,1.4-1.4.2-2.8.3-4.6.3s-4-.3-5.4-.9c-1.5-.6-2.6-1.7-3.3-3-.7-1.5-1.1-3.4-1.1-5.9s.1-3,.4-4.9c.2-1.9.6-3.9,1.1-6.2.8-4.2,1.8-7.5,2.7-10.2s2.1-4.8,3.3-6.3,2.8-2.6,4.5-3.2c1.8-.6,3.9-.9,6.3-.9s2.8.1,4.2.4c1.4.3,2.5.8,3.4,1.6,1,.7,1.8,1.9,2.3,3.3h.9l1.4-4.7h16.9l-7.9,37.3c-.6,3-1.4,5.6-2,7.9s-1.6,4.3-2.6,6.1c-1,1.7-2.5,3.1-4.4,4.2-1.9,1-4.2,1.9-7.1,2.4-2.7.6-6.4.8-10.6.8ZM355.9,78.4c.7,0,1.3,0,1.7-.1s.8-.3,1-.5c.3-.3.5-.7.7-1.4.2-.4.3-1,.5-1.9s.4-1.7.6-2.6.4-1.9.5-2.7c.2-.9.3-1.7.4-2.4s.2-1.1.2-1.5c0-.7-.2-1.3-.6-1.4-.4-.2-1.1-.2-2.1-.2s-1.6.1-2.1.2c-.5.1-.8.4-1.1.8-.3.4-.5,1.1-.8,2.2-.2,1-.5,2.4-.9,4.2-.3,1.5-.5,2.6-.7,3.5s-.2,1.7-.2,2.2.1.8.3,1.1c.2.2.5.4.9.4.5-.1,1-.1,1.7-.1Z"/>
    <path class="st0" d="M394,93.2c-2.5,0-4.5-.3-6.2-.8s-2.8-1.6-3.7-3-1.3-3.4-1.3-6.1.1-3.1.3-5.1c.2-1.9.5-4.1,1-6.4.8-4.3,1.8-7.8,2.8-10.5,1-2.8,2.2-5,3.4-6.6,1.3-1.6,2.7-2.7,4.4-3.4s3.4-.9,5.5-.9,2.9.1,4.4.3c1.4.2,2.6.6,3.8,1.4,1.1.6,2,1.7,2.7,3.1h.8l1.4-4.2h17l-8.9,41.7h-16.9l.7-4.7h-1c-.9,1.5-2.1,2.6-3.2,3.3s-2.3,1.3-3.5,1.6c-1.1.2-2.4.3-3.7.3ZM403.6,79.8c.7,0,1.4,0,1.8-.1.4-.1.7-.3,1-.5.2-.3.5-.7.7-1.4.2-.4.3-1,.5-1.9s.4-1.8.6-2.8.4-2,.6-3c.2-.9.4-1.9.5-2.7.1-.8.2-1.5.2-1.8,0-.8-.2-1.4-.5-1.5-.3-.2-1-.3-2.2-.3s-1.5.1-2,.2c-.5.1-.9.4-1.3.9s-.6,1.3-.9,2.4c-.3,1-.6,2.6-1,4.6-.4,1.7-.6,2.9-.8,4-.2,1-.2,1.8-.2,2.4s.1.8.3,1.1c.2.2.5.4.9.4.4-.2,1-.1,1.7-.1Z"/>
    <path class="st0" d="M429,92.6l8.9-41.7h16.9l-.6,4.7h.8c1.1-1.5,2.4-2.6,3.8-3.3,1.4-.7,2.7-1.3,4-1.6,1.4-.3,2.5-.4,3.5-.4,2.7,0,4.7.3,6.2.9,1.5.6,2.5,1.6,3,2.8.6,1.3.9,2.8.9,4.7s-.1,2.6-.4,4.5-.6,3.8-1,5.7l-5.1,23.6h-17.4l4.4-21c.3-1.4.5-2.5.7-3.7s.3-2,.3-2.5-.1-.9-.2-1.1c-.1-.2-.3-.4-.6-.4-.3-.1-.6-.1-1.1-.1s-1.4.1-1.9.2c-.4.1-.8.4-1.1.8-.3.4-.6,1.1-.8,2.1-.3.9-.5,2.2-.9,3.8l-4.7,22h-17.3Z"/>
    <path class="st0" d="M506.9,93.2c-1.6,0-3-.1-4.5-.4-1.5-.3-2.7-.8-3.8-1.6s-1.9-1.9-2.4-3.3h-.9l-1.4,4.7h-16.8l12.8-60.8h17.5l-4.9,23.3h.8c1-1.5,2.2-2.5,3.3-3.1,1.1-.6,2.3-1,3.4-1.4,1.1-.2,2.2-.3,3.2-.3,2.6,0,4.7.3,6.3.9,1.7.6,2.8,1.7,3.7,3.1s1.3,3.5,1.3,6.2-.1,3.1-.3,5-.5,4.1-1,6.5c-.8,4.3-1.9,7.7-2.8,10.5-1,2.8-2.2,5-3.4,6.6s-2.7,2.7-4.4,3.3c-1.8.5-3.7.8-5.7.8ZM500.8,79.8c.8,0,1.6-.1,2.1-.2s.8-.4,1.1-.9.6-1.3.8-2.4c.3-1,.6-2.6,1-4.6.3-1.6.6-2.9.7-4,.2-1,.3-1.8.3-2.4s-.1-.9-.3-1.1c-.2-.2-.5-.4-.9-.4-.4-.1-.9-.1-1.7-.1s-1.1,0-1.7.1c-.4.1-.8.2-1,.4-.3.2-.5.6-.7,1.1-.2.4-.3,1-.5,1.9s-.4,1.9-.7,2.9c-.2,1-.5,2.1-.7,3.1s-.4,2-.5,2.8c-.1.8-.2,1.5-.2,1.8,0,.8.2,1.4.6,1.5.6.4,1.3.5,2.3.5Z"/>
    <path class="st0" d="M547.7,93.2c-5.4,0-9.7-.3-12.8-1s-5.2-1.9-6.5-3.4-1.9-3.5-1.9-5.9.1-3.2.3-5c.2-1.8.5-3.9.9-6.1.7-3.9,1.6-7.2,2.4-9.9s2-4.9,3.4-6.7c1.5-1.7,3.7-3,6.5-3.8,2.8-.8,6.5-1.3,11.2-1.3s8.7.3,11.4.8c2.7.5,4.6,1.5,5.6,2.8s1.6,3.1,1.6,5.3-.1,2.3-.3,3.8c-.2,1.5-.5,2.9-.8,4.5s-.6,2.9-.9,4.4l-.7,3.2h-22.7c-.1.4-.2.9-.3,1.7-.2.7-.2,1.4-.2,1.7,0,.8.2,1.5.5,1.9.3.3,1.1.5,2.5.6,1.3.1,3.3.1,6.1.1s2.1,0,3.4-.1,2.9-.1,4.5-.2,3.2-.2,4.8-.3l-2.4,11.2c-1,.3-2.5.6-4.2.8-1.7.2-3.5.4-5.4.5-2,.3-3.9.4-5.8.4ZM545.8,68.1h7l.2-1.4c.2-.9.3-1.7.4-2.3.1-.5.2-1,.2-1.5s-.1-.9-.3-1.1c-.2-.2-.5-.4-.9-.4-.4-.1-1-.1-1.7-.1s-1.6.1-2.1.2c-.5.1-.8.4-1.1.7s-.5,1-.8,2c-.3.9-.5,2.2-.8,3.9Z"/>
    <path class="st0" d="M601.2,92.6c-4.6,0-8.5-.1-11.6-.2s-5.5-.4-7.4-.9-3.1-1.4-4-2.5-1.1-2.7-1.1-4.7.1-1.7.2-2.7c.1-.9.3-2.1.5-3.2s.4-2.4.7-3.8l2.5-11.5h-6.9l2.6-12.3h6.9l2.5-12.1h17.8l-2.5,12.1h8.3l-2.6,12.3h-8.3l-2.8,13.5c-.1.3-.1.6-.2.9-.1.3-.1.5-.1.7v.5c0,.6.2,1,.7,1.5.4.4,1.3.6,2.4.7s2.8.2,4.9.2l-2.6,11.5Z"/>
    <path class="st0" d="M614.9,61.7l1.4-5.8c1.8,0,3-.2,4-.5s1.6-.8,1.9-1.7c.4-.8.7-1.9,1-3.2l.2-1.1h-5.7l2.8-13h16.8l-2.2,10.2c-.6,2.9-1.4,5.4-2.1,7.4-.7,2-1.9,3.5-3.2,4.7s-3.2,2-5.5,2.5c-2.4.4-5.5.6-9.3.6Z"/>
    <path class="st0" d="M658.4,93.2c-5.4,0-9.7-.3-12.8-1s-5.2-1.9-6.5-3.4-1.9-3.5-1.9-5.9.1-3.2.3-5c.2-1.8.5-3.9.9-6.1.7-3.9,1.6-7.2,2.4-9.9s2-4.9,3.4-6.7c1.5-1.7,3.7-3,6.5-3.8,2.8-.8,6.5-1.3,11.2-1.3s8.7.3,11.4.8c2.7.5,4.6,1.5,5.6,2.8s1.6,3.1,1.6,5.3-.1,2.3-.3,3.8c-.2,1.5-.5,2.9-.8,4.5s-.6,2.9-.9,4.4l-.7,3.2h-22.7c-.1.4-.2.9-.3,1.7-.2.7-.2,1.4-.2,1.7,0,.8.2,1.5.5,1.9.3.3,1.1.5,2.5.6,1.3.1,3.3.1,6.1.1s2.1,0,3.4-.1,2.9-.1,4.5-.2,3.2-.2,4.8-.3l-2.4,11.2c-1,.3-2.5.6-4.2.8-1.7.2-3.5.4-5.4.5-2,.3-3.9.4-5.8.4ZM656.5,68.1h7l.2-1.4c.2-.9.3-1.7.4-2.3.1-.5.2-1,.2-1.5s-.1-.9-.3-1.1c-.2-.2-.5-.4-.9-.4-.4-.1-1-.1-1.7-.1s-1.6.1-2.1.2c-.5.1-.8.4-1.1.7s-.5,1-.8,2c-.3.9-.5,2.2-.8,3.9Z"/>
    <path class="st0" d="M728.3,93.2c-5.8,0-10.4-.4-13.8-1.3-3.3-.8-5.7-2.1-7.1-4-1.4-1.8-2.1-4.3-2.1-7.4s.3-4.5.8-7.3,1.1-6.1,1.9-9.7c.8-4.5,1.7-8.5,2.5-11.7.8-3.2,1.8-5.9,3-8,1.1-2.1,2.8-3.8,4.7-5,2-1.3,4.5-2.1,7.5-2.6,3.1-.5,7-.7,11.7-.7s10.4.4,13.7,1.3,5.6,2.2,7,4c1.4,1.9,2.1,4.3,2.1,7.5s-.2,4.6-.7,7.4c-.4,2.8-1.1,5.9-1.9,9.6-1,4.6-2,8.5-2.8,11.7s-1.9,5.9-3,8c-1.1,2.1-2.6,3.8-4.5,4.9s-4.4,2.1-7.4,2.5c-3.1.6-7,.8-11.6.8ZM724.2,30.9l2.2-10.1h13.5l-2.2,10.1s-13.5,0-13.5,0ZM729.5,79.5c1.1,0,2.1-.1,2.8-.2s1.4-.4,1.9-.9.9-1.3,1.4-2.3c.4-1,.8-2.5,1.3-4.5.4-1.9.9-4.4,1.7-7.3.6-3.1,1.1-5.6,1.5-7.6.3-2,.5-3.4.5-4.5s-.2-1.7-.5-2.1-.8-.7-1.6-.7c-.7-.1-1.6-.1-2.6-.1s-2.1.1-2.8.2c-.7.1-1.4.4-1.9.9s-.9,1.3-1.4,2.3c-.4,1-.8,2.5-1.3,4.5-.4,1.9-.9,4.4-1.6,7.3-.4,2.1-.8,4-1.1,5.5s-.6,2.9-.7,4c-.2,1-.2,2-.2,2.7s.2,1.6.5,2,.8.6,1.5.7c.7.1,1.7.1,2.7.1ZM742.5,30.9l2.2-10.1h13.5l-2.2,10.1s-13.5,0-13.5,0Z"/>
    <path class="st0" d="M758.2,92.6l2.4-11.6,19.4-17.8h-14.5l2.6-12.3h37l-2.5,11.6-19.4,17.8h15.7l-2.6,12.3s-38.1,0-38.1,0Z"/>
    <path class="st0" d="M826.1,93.2c-5.4,0-9.7-.3-12.8-1s-5.2-1.9-6.5-3.4-1.9-3.5-1.9-5.9.1-3.2.3-5c.2-1.8.5-3.9.9-6.1.7-3.9,1.6-7.2,2.4-9.9s2-4.9,3.4-6.7c1.5-1.7,3.7-3,6.5-3.8,2.8-.8,6.5-1.3,11.2-1.3s8.7.3,11.4.8c2.7.5,4.6,1.5,5.6,2.8s1.6,3.1,1.6,5.3-.1,2.3-.3,3.8c-.2,1.5-.5,2.9-.8,4.5s-.6,2.9-.9,4.4l-.7,3.2h-22.7c-.1.4-.2.9-.3,1.7-.2.7-.2,1.4-.2,1.7,0,.8.2,1.5.5,1.9.3.3,1.1.5,2.5.6,1.3.1,3.3.1,6.1.1s2.1,0,3.4-.1,2.9-.1,4.5-.2,3.2-.2,4.8-.3l-2.3,11.3c-1,.3-2.5.6-4.2.8-1.7.2-3.5.4-5.4.5-2.1.2-4,.3-5.9.3ZM824.2,68.1h7l.2-1.4c.2-.9.3-1.7.4-2.3.1-.5.2-1,.2-1.5s-.1-.9-.3-1.1c-.2-.2-.5-.4-.9-.4-.4-.1-1-.1-1.7-.1s-1.6.1-2.1.2c-.5.1-.8.4-1.1.7s-.5,1-.8,2c-.2.9-.5,2.2-.8,3.9Z"/>
    <path class="st0" d="M848.6,92.6l12.7-60.7h17.8l-12.8,60.7h-17.7Z"/>
    <path class="st0" d="M168.7,171.3l8.9-41.8h-13.8l3.1-14.4h46.6l-3.1,14.4h-13.8l-8.9,41.8h-19.1Z"/>
    <path class="st0" d="M216.5,172c-2.6,0-4.7-.3-6.2-.9-1.5-.6-2.5-1.7-3.1-2.9-.6-1.4-.9-2.9-.9-4.9s.2-2.6.5-4.5.7-3.8,1-5.7l5-23.3h17.4l-4.4,21c-.3,1.4-.5,2.5-.7,3.7s-.3,2-.3,2.5.1.8.2,1.1c.1.2.3.4.6.5.3.1.6.1,1.1.1s1.4-.1,1.9-.2c.4-.1.8-.4,1.1-.8.3-.4.6-1.1.8-2.1.3-.9.5-2.2.9-3.8l4.7-22h17.4l-8.9,41.7h-16.9l.6-4.7h-.8c-1.1,1.5-2.4,2.6-3.8,3.3-1.4.7-2.6,1.3-4,1.6s-2.5.3-3.5.3Z"/>
    <path class="st0" d="M252.2,171.3l8.9-41.7h16.9l-1.1,7h.8c1.1-2.1,2.4-3.7,3.5-4.7s2.6-1.9,4.3-2.3c1.7-.4,3.8-.6,6.3-.6l-3.2,15.2c-2.7,0-5,.2-6.8.5s-3.2.9-4.4,1.9c-1.1.9-2,2.2-2.7,4s-1.4,4-2,6.8l-3,14h-17.4Z"/>
    <path class="st0" d="M288.1,171.3l8.9-41.7h16.9l-.6,4.7h.8c1.1-1.5,2.4-2.6,3.8-3.3,1.4-.7,2.7-1.3,4-1.6,1.4-.3,2.5-.4,3.5-.4,2.7,0,4.7.3,6.2.9s2.5,1.6,3,2.8c.6,1.3.9,2.8.9,4.7s-.1,2.6-.4,4.5-.6,3.8-1,5.7l-5.1,23.6h-17.4l4.4-21c.3-1.4.5-2.5.7-3.7s.3-2,.3-2.5-.1-.9-.2-1.1c-.1-.2-.3-.4-.6-.4-.3-.1-.6-.1-1.1-.1s-1.4.1-1.9.2c-.4.1-.8.4-1.1.8-.3.4-.6,1.1-.8,2.1-.3.9-.5,2.2-.9,3.8l-4.7,22h-17.3Z"/>
    <path class="st0" d="M348.5,172c-2.6,0-4.7-.3-6.2-.9-1.5-.6-2.5-1.7-3.1-2.9-.6-1.4-.9-2.9-.9-4.9s.2-2.6.5-4.5.7-3.8,1-5.7l5-23.3h17.4l-4.4,21c-.3,1.4-.5,2.5-.7,3.7s-.3,2-.3,2.5.1.8.2,1.1c.1.2.3.4.6.5.3.1.6.1,1.1.1s1.4-.1,1.9-.2c.4-.1.8-.4,1.1-.8.3-.4.6-1.1.8-2.1.3-.9.5-2.2.9-3.8l4.7-22h17.3l-8.9,41.7h-16.9l.6-4.7h-.8c-1.1,1.5-2.4,2.6-3.8,3.3-1.4.7-2.6,1.3-4,1.6s-2.4.3-3.4.3Z"/>
    <path class="st0" d="M391.8,171.3l-1.7-41.7h17.1l-.7,27h.9l10.4-27h17.6l-19.6,41.7h-24.1Z"/>
    <path class="st0" d="M443.4,172c-2.5,0-4.5-.3-6.2-.8s-2.8-1.6-3.7-3-1.3-3.4-1.3-6.1.1-3.1.3-5.1c.2-1.9.5-4.1,1-6.4.8-4.3,1.8-7.8,2.8-10.5,1-2.8,2.2-5,3.4-6.6,1.3-1.6,2.7-2.7,4.4-3.4s3.4-.9,5.5-.9,2.9.1,4.4.3c1.4.2,2.6.6,3.8,1.4,1.1.6,2,1.7,2.7,3.1h.8l1.4-4.2h17l-8.9,41.7h-16.9l.7-4.7h-.9c-.9,1.5-2.1,2.6-3.2,3.3s-2.3,1.3-3.5,1.6c-1.3.1-2.5.3-3.8.3ZM452.9,158.4c.7,0,1.4,0,1.8-.1.4-.1.7-.3,1-.5.2-.3.5-.7.7-1.4.2-.4.3-1,.5-1.9s.4-1.8.6-2.8.4-2,.6-3c.2-.9.4-1.9.5-2.7s.2-1.5.2-1.8c0-.8-.2-1.4-.5-1.5-.3-.2-1-.3-2.2-.3s-1.5.1-2,.2c-.5.1-.9.4-1.3.9-.3.5-.6,1.3-.9,2.4-.3,1-.6,2.6-1,4.6-.4,1.7-.6,2.9-.8,4-.2,1-.2,1.8-.2,2.4s.1.8.3,1.1c.2.2.5.4.9.4.5-.1,1-.1,1.7-.1Z"/>
    <path class="st0" d="M525.7,172c-5.8,0-10.4-.4-13.8-1.3s-5.7-2.1-7.1-4-2.1-4.3-2.1-7.4.3-4.5.8-7.3,1.1-6.1,1.9-9.7c.8-4.5,1.7-8.5,2.5-11.7.8-3.2,1.8-5.9,3-8,1.1-2.1,2.8-3.8,4.7-5s4.5-2.1,7.5-2.6c3.1-.5,7-.7,11.7-.7s10.4.4,13.7,1.3,5.6,2.2,7,4c1.4,1.9,2.1,4.3,2.1,7.5s-.2,4.6-.7,7.4c-.4,2.8-1.1,5.9-1.9,9.6-1,4.6-2,8.5-2.8,11.7-.8,3.2-1.9,5.9-3,8-1.1,2.1-2.6,3.8-4.5,4.9-1.9,1.3-4.4,2.1-7.4,2.5-3.1.5-7,.8-11.6.8ZM526.9,158.3c1.1,0,2.1-.1,2.8-.2.7-.1,1.4-.4,1.9-.9s.9-1.3,1.4-2.3.8-2.5,1.3-4.5c.4-1.9.9-4.4,1.7-7.3.6-3.1,1.1-5.6,1.5-7.6s.5-3.4.5-4.5-.2-1.7-.5-2.1-.8-.7-1.6-.7-1.6-.1-2.6-.1-2.1.1-2.8.2-1.4.4-1.9.9-.9,1.3-1.4,2.3c-.4,1-.8,2.5-1.3,4.5-.4,1.9-.9,4.4-1.6,7.3-.4,2.1-.8,4-1.1,5.5s-.6,2.9-.7,4c-.2,1-.2,2-.2,2.7s.2,1.6.5,2,.8.6,1.5.7c.7,0,1.6.1,2.7.1Z"/>
    <path class="st0" d="M573.4,188.2c-2.3,0-4.6-.1-6.7-.2-2.1-.1-4-.2-5.6-.4-1.7-.2-3.1-.4-4.2-.6l2.3-11.1h10.6c2.2,0,4,0,5.3-.1s2.3-.3,2.9-.6,1.1-.9,1.5-1.9c.3-.8.6-2.1.9-3.7.2-.7.3-1.5.4-2.1.1-.7.3-1.5.4-2.1h-.8c-1.1,1.5-2.4,2.6-3.7,3.3s-2.5,1.3-3.8,1.6c-1.1.3-2.3.4-3.3.4-2.7,0-4.8-.3-6.4-1s-2.6-1.7-3.2-3-.9-2.9-.9-4.8.1-2.3.2-3.4c.2-1.3.4-2.5.7-4l5.3-24.7h17.5l-4.3,20.6c-.3,1.4-.5,2.5-.6,3.3-.2.8-.2,1.5-.2,2s.1.8.2,1c.2.2.4.3.7.4h1.4c.7,0,1.3,0,1.7-.1.4-.1.8-.3,1-.7.3-.4.5-1,.7-2s.5-2.2.9-4l4.4-20.7h17.5l-9.3,43.4c-.6,2.8-1.5,5.1-2.6,7.1-1.1,2-2.7,3.5-4.6,4.7-1.9,1.1-4.2,2.1-6.9,2.6-2.7.4-5.9.7-9.7.7Z"/>
    <path class="st0" d="M617.4,172c-2.6,0-4.7-.3-6.2-.9s-2.5-1.7-3.1-2.9c-.6-1.4-.9-2.9-.9-4.9s.2-2.6.5-4.5.7-3.8,1-5.7l5-23.3h17.4l-4.4,21c-.3,1.4-.5,2.5-.7,3.7s-.3,2-.3,2.5.1.8.2,1.1c.1.2.3.4.6.5s.6.1,1.1.1,1.4-.1,1.9-.2c.4-.1.8-.4,1.1-.8.3-.4.6-1.1.8-2.1.3-.9.5-2.2.9-3.8l4.7-22h17.4l-8.9,41.7h-16.9l.6-4.7h-.8c-1.1,1.5-2.4,2.6-3.8,3.3s-2.6,1.3-4,1.6c-1.3.1-2.5.3-3.5.3Z"/>
    <path class="st0" d="M653.1,171.3l8.9-41.7h16.9l-.6,4.7h.8c1.1-1.5,2.4-2.6,3.8-3.3s2.7-1.3,4-1.6c1.4-.3,2.5-.4,3.5-.4,2.7,0,4.7.3,6.2.9s2.5,1.6,3,2.8c.6,1.3.9,2.8.9,4.7s-.1,2.6-.4,4.5c-.3,1.9-.6,3.8-1,5.7l-5.1,23.6h-17.4l4.4-21c.3-1.4.5-2.5.7-3.7s.3-2,.3-2.5-.1-.9-.2-1.1c-.1-.2-.3-.4-.6-.4-.3-.1-.6-.1-1.1-.1s-1.4.1-1.9.2c-.4.1-.8.4-1.1.8-.3.4-.6,1.1-.8,2.1-.3.9-.5,2.2-.9,3.8l-4.7,22h-17.3Z"/>
    <path class="st0" d="M701.3,171.3l12.7-60.7h17.8l-12.8,60.7h-17.7Z"/>
    <path class="st0" d="M739.1,172c-2.5,0-4.5-.3-6.2-.8-1.7-.5-2.8-1.6-3.7-3s-1.3-3.4-1.3-6.1.1-3.1.3-5.1c.2-1.9.5-4.1,1-6.4.8-4.3,1.8-7.8,2.8-10.5,1-2.8,2.2-5,3.4-6.6s2.7-2.7,4.4-3.4,3.4-.9,5.5-.9,2.9.1,4.4.3c1.4.2,2.6.6,3.8,1.4,1.1.6,2,1.7,2.7,3.1h.8l1.4-4.2h17l-8.9,41.7h-16.9l.7-4.7h-.9c-.9,1.5-2.1,2.6-3.2,3.3s-2.3,1.3-3.5,1.6c-1.3.1-2.5.3-3.8.3ZM748.7,158.4c.7,0,1.4,0,1.8-.1s.7-.3,1-.5c.2-.3.5-.7.7-1.4.2-.4.3-1,.5-1.9s.4-1.8.6-2.8c.2-1,.4-2,.6-3,.2-.9.4-1.9.5-2.7s.2-1.5.2-1.8c0-.8-.2-1.4-.5-1.5-.3-.2-1-.3-2.2-.3s-1.5.1-2,.2c-.5.1-.9.4-1.3.9s-.6,1.3-.9,2.4c-.3,1-.6,2.6-1,4.6-.4,1.7-.6,2.9-.8,4s-.2,1.8-.2,2.4.1.8.3,1.1c.2.2.5.4.9.4.4-.1.9-.1,1.7-.1Z"/>
    <path class="st0" d="M774,171.3l8.9-41.7h16.9l-1.1,7h.8c1.1-2.1,2.4-3.7,3.5-4.7,1.1-1,2.6-1.9,4.3-2.3,1.7-.4,3.8-.6,6.3-.6l-3.2,15.2c-2.7,0-5,.2-6.8.5s-3.2.9-4.4,1.9c-1.1.9-2,2.2-2.7,4-.7,1.8-1.4,4-2,6.8l-3,14h-17.4Z"/>
    <path class="st0" d="M809.9,171.3l8.8-41.7h17.7l-8.9,41.7h-17.6Z"/>
  </g>
  <g>
    <g>
      <path class="st1" d="M103.2,70c-2.1,1.1-4.1,1.1-6.2,0,0,0,0,.1-.1.2-1.9,3.9-5,6.3-9.3,7-6.3,1.1-12.6-2.8-14.2-9.1-1.4-5,0-9.4,3.8-12.9,1.7-1.5,3.6-2.8,5.3-4.3.9-.7,1.7-1.4,2.6-2,3.7-2.3,8.7-1.6,11.7,1.6,0,0,.1.1.2.2,2.1-1.3,4.3-1.3,6.5,0,0,0,0-.1.1-.2,1.6-1.7,3.6-2.7,6-2.9,2.5-.2,4.8.5,6.7,2.1,2.2,1.8,4.4,3.5,6.6,5.3,2.5,2.1,4.1,4.7,4.4,7.9.6,4.9-1.1,8.9-4.9,11.9-1.8,1.5-4,2.3-6.4,2.5-5.4.5-10.3-2.3-12.7-7.2-.1,0-.2,0-.2-.1ZM114.7,56.5c-4.6,0-8.3,3.7-8.2,8.3,0,4.5,3.7,8.2,8.2,8.2s8.3-3.7,8.3-8.3c0-4.5-3.8-8.3-8.3-8.2ZM85.5,56.5c-4.5,0-8.2,3.6-8.3,8.2,0,4.6,3.6,8.3,8.2,8.4,4.5,0,8.2-3.6,8.3-8,.1-4.7-3.6-8.5-8.2-8.5ZM100,62.5c-1.2,0-2.2,1-2.2,2.2s1,2.2,2.2,2.2,2.2-1,2.2-2.2c0-1.2-.9-2.2-2.2-2.2Z"/>
      <path class="st1" d="M108.7,64.5c0-3,2.5-5.5,5.5-5.8.3,0,.5,0,.8,0,.5,0,.9.6.9,1.1s-.4.9-.9,1c-.4,0-.9,0-1.3.2-1.6.5-2.7,1.9-2.8,3.6,0,.5-.2.9-.6,1.1-.4.1-.8.1-1.1-.2-.4-.2-.4-.6-.4-.9Z"/>
      <path class="st1" d="M79.4,64.6c0-3.1,2.5-5.5,5.5-5.8.2,0,.5,0,.7,0,.6,0,.9.5.9,1.1,0,.5-.4.9-.9,1-.4,0-.9,0-1.3.2-1.6.5-2.7,1.9-2.8,3.7,0,.7-.6,1.2-1.3,1.1-.4-.1-.8-.6-.8-1.2Z"/>
    </g>
    <g>
      <path class="st1" d="M162.9,25.8l1.1,1c.8,18.4,2.1,35.5-9.5,51-4.7,6.3-11.7,11.9-19,15.1s-5.3,1.7-6.6,2.4-2.5,2.8-3.4,3.6c-3.1,2.7-7.2,5.6-10.9,7.5-.9.4-6.2,2.4-6.3,2.7.6,7.9,4.5,15,10.8,19.7s4.8,3.4,5.9,3.7c1.7.5,3.6,0,5.3.2,4.4.6,6.7,5.2,6,9.3,4.5-.7,8.9,1.7,9.3,6.5.7,7.5-.5,16,0,23.6,0,1-.4,1.8-1.3,2.2H53.9c-.8-.2-1.4-1-1.4-2,.5-7.7-.7-16.3,0-23.9.4-4.8,4.8-7.2,9.3-6.5-.7-4.1,1.6-8.7,6-9.3s3.9.3,5.4-.2,4.9-3.1,5.8-3.8c6.3-4.8,10.1-11.8,10.8-19.7-3-1.4-6.1-2.6-8.9-4.2s-6-4-8.6-6.3-2.5-2.9-3.1-3.3c-1-.7-5-1.7-6.6-2.4-13.5-6-24.1-18.7-27.4-33.1-2.4-10.3-.9-21.3-1.3-31.9,0-1.1.7-1.6,1.5-2.2h127.7ZM57.1,30.5h-18.7c.4,9.5-1,19.3,1.3,28.6s12.3,23.9,24.1,29.3l-3.3-7.1c-14.9-10.2-19-26.4-17.4-43.7,0-.8.7-2.5,1.6-2.5h12.4v-4.7ZM136.4,30.5H61.8c.4,11.1-.5,22.5,0,33.6.8,17.9,10.2,32.5,26.8,39.5,4,1.7,6.1.4,5.8,5.8-.5,9.3-5.8,17.6-12.8,23.4h35c-7.1-5.8-12.3-14.1-12.8-23.4-.3-5.4,1.8-4.1,5.8-5.8,14.7-6.2,24.7-19.3,26.5-35.2l.3-38ZM159.7,30.5h-18.7v4.7h12.4c.8,0,1.5,1.4,1.6,2.2.4,3.3.2,9.9,0,13.4s-.3,3.3-.6,4c-1,1.9-3.7,1.8-4.3-.3l.2-14.6h-9.3c-.2,11.1.6,22.2-.9,33.2,4.2-3.9,6.5-8.9,8.9-14,1.7-1.3,4-.3,3.9,1.9s-1.8,4.8-2.5,6c-2.3,4.4-5.7,8.3-9.3,11.6s-3,1.9-3.5,2.6-.9,2.4-1.4,3.3-1.7,2.8-2,3.5,1.1,0,1.4,0c10.9-5.2,20-17.1,22.7-28.8,2.2-9.3.9-19.1,1.3-28.6ZM57.1,39.8h-9.3c-.8,12.2.9,24.5,10.2,33.2-1.5-11-.7-22.1-.9-33.2ZM131.7,142.2c0-1.6.5-3.5-1.2-4.4l-61.9-.2c-2.6.3-2.2,2.6-2.2,4.7h7.7c1.5,0,2.6,3.8.2,4.5h-15.3c-.6,0-1.9,1.3-1.9,1.7v21.7h83.9v-21.7c0-.6-1.5-1.8-2.2-1.6h-56.5c-3-.5-1.9-4.6-.3-4.6h49.7Z"/>
      <path class="st1" d="M77.4,156.2h42.8c2.9.2,3,4.3,0,4.6h-42.3c-2.7-.2-3-3.8-.5-4.6Z"/>
    </g>
  </g>
</svg>