<?xml version="1.0" encoding="UTF-8"?> <svg xmlns="http://www.w3.org/2000/svg" xmlns:xlink="http://www.w3.org/1999/xlink" version="1.1" id="Layer_1" x="0px" y="0px" viewBox="0 0 1000 1000" style="enable-background:new 0 0 1000 1000;" xml:space="preserve"> <path style="fill:#FDC440;" d="M291.1,580.3c-5.3,0.7-10.5,1.3-16.3,2.1c0-1.4,0-2.6,0-3.7c0-160.6,0-321.1,0-481.8 c0-33.3,25.2-58.5,58.4-58.5c151.4,0,302.9,0,454.3,0c18.3,0,33.5,7,45.3,21c9.6,11.3,13.3,24.6,13.3,39.4c0,79,0,158.1,0,237.2 c0,54.2,0,239.3,0,293.5c0,2.5-0.7,4.1-2.6,5.8c-4.4,3.5-8.6-5.7-13.7-1.4c0-2.1,0-3.5,0-4.8c0-137.9,0-393.7,0-531.6 c0-19.6-11.6-35.7-29.7-41c-3.5-1.1-7.4-1.7-11.1-1.7c-152.5-0.1-305-0.1-457.6,0c-21.9,0-40.5,18.6-40.5,40.7 c0,160.2,0,320.3,0,480.5C291.1,577.1,291.1,578.5,291.1,580.3z"></path> <path style="fill:#FDC440;" d="M203.3,603.8c-2.7-9.9-5.3-19.5-7.9-29.1c-15-55.9-30-111.8-45.1-167.7 c-12.6-46.9-25.1-93.8-37.6-140.7c-2.2-8.3-4.8-16.6-5.8-25c-3.3-28,14.5-53.9,41.9-61.3c31.1-8.5,62.3-16.7,93.5-25.1 c3.7-0.9,7.1-0.9,9.7,2.1c2,2.4,2.6,5.2,1.4,8.1c-1.2,2.9-3.4,4.4-6.5,5.2c-31,8.3-62.2,16.6-93.2,25c-22.5,6-35.7,28.2-29.8,50.7 c18.6,70.1,37.5,140,56.3,210c11.7,43.6,23.4,87.4,35,131.1c0.7,2.8,1.4,5.7,2.2,8.4c0.5,1.4,0.4,2.4-1.3,2.9 C212.3,600.1,208,602,203.3,603.8z"></path> <path style="fill:#FDC440;" d="M343.2,169.3c3.4,6.4,9.4,10.6,14.7,15.3c4,3.5,8,6.8,9.6,12.5c2,7.3,0.8,13.8-4,17.7 c-5.2,4.1-10.6,4.1-18.6-0.4c1.3,4.8,2.4,9.2,3.5,13.7c-3.7,0-7.2,0-11.1,0c1.2-4.5,2.4-8.8,3.7-13.8c-4.2,2.7-8,4.4-12.4,3.5 c-8.6-1.7-13.3-10.6-10.7-19.5c1.8-6.1,5.8-10,10.3-13.9c2.7-2.2,5.4-4.5,8-7.1C338.7,174.8,340.8,172,343.2,169.3z"></path> <path style="fill:#FDC440;" d="M212.3,355.6c-3.7,0.9-7.1,1.9-10.8,2.9c0-4.5,0-9,0-13.8c-2.5,1.8-4.2,3.7-6.5,4.6 c-9.8,4.2-19.2-2.1-20-13.3c-0.4-5.1,0.9-9.8,3.9-13.9c2.5-3.5,5-7,7.2-10.7c2.1-3.4,3.8-7.2,5.8-11c6.6,6.4,15.7,9,23.8,13.6 c6.5,3.5,9.8,9.3,10.1,16.5c0.6,9-8.4,15.9-17.2,13.7c-0.9-0.2-1.8-0.6-3.7-1.2C207.7,347.7,209.9,351.6,212.3,355.6z"></path> <path style="fill:#FDC440;" d="M346.3,84.9c5.8,15.6,11.4,31.1,17.1,46.6c0.6,1.5,1.3,2.9,1.8,4.5c1.5,4.4,3.8,7.8,9.1,7.7 c0,1.4,0,2.5,0,3.7c-9,0-17.8,0-26.9,0c0-1.1,0-2.2,0-3.4c0.8-0.2,1.7-0.4,2.5-0.6c2.1-0.6,3.1-1.9,2.4-4.1c-1.2-3.4-2.4-7-3.7-10.3 c-0.2-0.7-1.5-1.4-2.4-1.4c-4.6-0.1-9.2-0.1-13.9,0c-0.9,0-2.2,1.1-2.6,1.9c-1.2,2.7-2.1,5.7-2.9,8.5c-0.9,3.3-0.4,4.5,3.2,5.2 c2.5,0.5,3.4,1.4,2.5,4.1c-6.8,0-13.8,0-20.9,0c0-1.2,0-2.1,0-3.7c6.6,0.4,8.4-4.5,10.3-9.3c5.9-15,12-29.8,17.8-44.8 C341,86.4,342.7,84.8,346.3,84.9z M332.1,122c4.8,0,9.2,0,14,0c-2.2-6.5-4.4-12.7-6.5-19c-0.2,0-0.5,0-0.7,0 C336.8,109.2,334.6,115.4,332.1,122z"></path> <path style="fill:#FDC440;" d="M184.1,216.1c0.4,1.3,0.6,2.2,0.8,3.1c-0.1,0.2-0.2,0.5-0.4,0.6c-5.9,2.8-6,3.1-4.5,9.3 c3.3,12.7,6.8,25.5,9.9,38.3c2.8,11.8-1.8,22.6-11.6,28.9c-0.6,0.4-1.3,0.7-2.1,1.2c-0.7-0.9-1.4-1.9-2.4-3.1 c7.4-5.4,6.3-12.9,4.5-20c-3.4-14.2-7.2-28.3-11.1-42.3c-1.5-5.7-2.5-6-9.7-5.2c-0.2-1.1-0.6-2.1-0.9-3.3 C165.9,220.9,174.9,218.6,184.1,216.1z"></path> <g> <path style="fill:#FDC440;" d="M185.9,820.6c6.5-1.2,21.1-2.4,34.6-2.4c16.7,0,25.8,1.5,34,5.6c8.2,3.8,14.6,11.3,14.6,22.2 c0,9.6-5.8,18.6-18.7,23.1v0.3c12.4,3.1,22.6,12.4,22.6,27.1c0,10.3-5.2,18.4-12.5,23.9c-8.6,6.3-22.5,9.6-45.5,9.6 c-13.6,0-23.3-0.9-29.1-1.7V820.6z M211.5,862.1h9.2c15,0,22.2-5.1,22.2-13c0-8.5-7.2-12.2-19.1-12.2c-6.4,0-9.9,0.3-12.1,0.8v24.4 H211.5z M211.5,910.6c2.7,0.5,6.1,0.5,11.1,0.5c12.1,0,23-4.1,23-15.7c0-10.9-10.6-14.9-24.2-14.9h-9.7v30h-0.2L211.5,910.6 L211.5,910.6z"></path> <path style="fill:#FDC440;" d="M290.1,812.3H316v116.4h-25.9V812.3z"></path> <path style="fill:#FDC440;" d="M385.9,928.8l-1.5-7.9h-0.6c-5.5,6.4-14.3,9.9-24.5,9.9c-17.6,0-27.3-12.2-27.3-24.4 c0-20.7,18.6-31,50.1-30.9v-0.8c0-3.6-1.9-10.1-15.7-10.1c-8.7,0-18.3,3.1-23.9,6.4l-4.8-16.4c5.9-3.4,17.3-7.4,32.9-7.4 c27.3,0,37.1,15.2,37.1,34.8v27.1c0,8,0.5,15.4,1.3,19.6L385.9,928.8L385.9,928.8z M382.9,891.4c-15-0.1-25.2,3.2-25.2,12.2 c0,5.9,4.2,9.2,10.6,9.2c7,0,12.5-4.8,14.2-9.9c0.3-1.4,0.5-3,0.5-4.4v-7.1H382.9z"></path> <path style="fill:#FDC440;" d="M494,926.6c-5.2,2.4-14.5,4.2-25.1,4.2c-27.6,0-45-16.4-45-41c0-22.9,16.4-42.5,48.5-42.5 c7.1,0,15.1,1.2,21.3,3.5l-4.2,18.9c-3.4-1.6-8.4-2.9-15.8-2.9c-14,0-23.2,9.2-23.1,21.9c0,14.7,11,22,23.7,22 c6.8,0,12.1-1.2,16.4-2.9L494,926.6z"></path> <path style="fill:#FDC440;" d="M535.1,882.4h0.3c2-2.9,4.2-6.3,6.3-9l18.1-24.1h31.9l-31.6,31.9l36.7,47.7h-32.6l-21.9-32.7 l-7.2,8.2v24.5h-25.9V812.3h25.9V882.4z"></path> <path style="fill:#FDC440;" d="M587.3,943c7.3-0.6,12.8-2.3,16-5.6c3.8-3.8,5.3-10.4,5.3-27.5V849h25.9v67.5 c0,17.2-3.8,28.5-11.4,35.8c-7.9,7.4-20.1,10.7-33.3,10.7L587.3,943z M635.4,826.7c0,6.8-5.1,12.6-14,12.6 c-8.5,0-13.7-5.8-13.7-12.6c0-7.1,5.2-12.6,13.9-12.6C630.2,814,635.2,819.6,635.4,826.7z"></path> <path style="fill:#FDC440;" d="M704,928.8l-1.5-7.9h-0.6c-5.5,6.4-14.3,9.9-24.5,9.9c-17.6,0-27.3-12.2-27.3-24.4 c0-20.7,18.6-31,50.1-30.9v-0.8c0-3.6-1.9-10.1-15.7-10.1c-8.7,0-18.3,3.1-23.9,6.4l-4.8-16.4c5.9-3.4,17.3-7.4,32.9-7.4 c27.3,0,37.1,15.2,37.1,34.8v27.1c0,8,0.5,15.4,1.3,19.6L704,928.8L704,928.8z M701,891.4c-15-0.1-25.2,3.2-25.2,12.2 c0,5.9,4.2,9.2,10.6,9.2c7,0,12.5-4.8,14.2-9.9c0.3-1.4,0.5-3,0.5-4.4L701,891.4L701,891.4z"></path> <path style="fill:#FDC440;" d="M812.2,926.6c-5.2,2.4-14.5,4.2-25.1,4.2c-27.6,0-45-16.4-45-41c0-22.9,16.4-42.5,48.5-42.5 c7.1,0,15.1,1.2,21.3,3.5l-4.2,18.9c-3.4-1.6-8.4-2.9-15.8-2.9c-14,0-23.2,9.2-23.1,21.9c0,14.7,11,22,23.7,22 c6.8,0,12.1-1.2,16.4-2.9L812.2,926.6z"></path> <path style="fill:#FDC440;" d="M853.4,882.4h0.3c2-2.9,4.2-6.3,6.3-9l18.1-24.1H910l-31.6,31.9l36.7,47.7h-32.6l-21.9-32.7 l-7.2,8.2v24.5h-25.9V812.3h25.9V882.4z"></path> </g> <g> <path style="fill:#FDC440;" d="M185.5,652.3h25v59.2H232v-59.2h25v142.8h-25v-59.8h-21.5v59.8h-25V652.3z"></path> <path style="fill:#FDC440;" d="M269.4,727.3V720c0-47.2,15.2-69.6,38-69.6s38,22.8,38,69.6v7.3c0,47.2-15.2,69.6-38,69.6 C284.6,797.3,269.4,774.5,269.4,727.3z M319.7,727.3V720c0-36.7-5.1-46.9-12.7-46.9s-12.7,10.1-12.7,46.9v7.3 c0,36.7,5.1,46.9,12.7,46.9C314.7,774.5,319.7,764,319.7,727.3z"></path> <path style="fill:#FDC440;" d="M357.4,652.3h25v119h26.3V795h-51.3V652.3z"></path> <path style="fill:#FDC440;" d="M419.1,652.3h25v142.8h-25V652.3z M420.4,622.5h22.5v22.2h-22.5V622.5z"></path> <path style="fill:#FDC440;" d="M456.5,726.1v-4.7c0-46.9,19.3-70.9,47.8-70.9c7.6,0,13.9,1.6,19,4.1v26c-6.3-3.8-11.7-6-18-6 c-14.6,0-23.1,14.2-23.1,46.2v7c0,38.3,10.8,46.9,21.2,46.9c0.9,0,0.9,0,2.2-0.3v-37.7h-12.3v-22.2H528v76.9c-8.9,3.8-16.5,6-26,6 C477.1,797.3,456.5,776.7,456.5,726.1z"></path> <path style="fill:#FDC440;" d="M561.6,652h26.6l27.2,143.1h-25l-4.7-28.5h-22.8l-4.4,28.5h-24.1L561.6,652z M582.2,744.4l-7.6-47.2 l-7.6,47.2H582.2z"></path> <path style="fill:#FDC440;" d="M622.7,652.3h23.1l25.6,73.8v-73.8h23.7v142.8h-21.8l-26.9-77.2v77.2h-23.7L622.7,652.3L622.7,652.3 z"></path> <path style="fill:#FDC440;" d="M710.1,652.3h21.2c14.6,0,28.8,3.8,37,12c6.3,6.3,9.5,13.9,9.5,24.4v0.9c0,18.4-10.4,27.2-20.6,32.3 c12,5.4,22.5,13.6,22.5,32v1.9c0,25.3-19.6,39.6-47.2,39.6h-22.2V652.3H710.1z M753.4,693.1c0-12.3-7.3-17.7-18.4-17.7h-0.3v37h0.3 c11.1,0,18.4-6.3,18.4-18.7V693.1z M754.7,752.7c0-12-8.2-18.7-19.6-18.7h-0.6v38.3h0.6c11.4,0,19.6-6.6,19.6-18.7V752.7z"></path> <path style="fill:#FDC440;" d="M790.2,652.3H845V676h-29.8v35.5h26.3v23.7h-26.3v36.4h30.4v23.7h-55.4V652.3z"></path> <path style="fill:#FDC440;" d="M870.6,676h-17.4v-23.7H913V676h-17.4v119h-25V676z"></path> </g> <g> <path style="fill:#FDC440;" d="M602.6,411.2c-13.7,0-24.8,11.1-24.8,24.8v0.1c0.1,13.7,11.1,24.7,24.8,24.8 c13.7,0,24.8-11.1,24.8-24.8C627.4,422.3,616.3,411.2,602.6,411.2z"></path> <path style="fill:#FDC440;" d="M519.9,411.2c-13,0-23.7,10.1-24.6,23c0,0.6-0.2,1.2-0.2,1.8c0,13.7,11.1,24.8,24.8,24.8 s24.8-11.1,24.8-24.8l0,0C544.7,422.3,533.6,411.2,519.9,411.2z"></path> <path style="fill:#FDC440;" d="M704.5,419.9c-3.7-28.4-15.6-52.7-37.7-71.6c-16.6-14.2-33.4-28.4-50-42.7 c-14.1-12.1-28-24.6-39.6-39.2c-6.3-7.8-11.5-16.5-17-24.5c-2,3.5-4.4,7.6-7.1,11.6c-12.1,17.8-27.3,32.6-43.2,46.8 c-18.1,15.9-36.6,31.4-54.5,47.4c-31.6,28.2-44.1,63.8-37.6,105.3c8.8,56.4,74.6,83.2,121.1,49.7c3.7-2.7,7.1-5.8,11.1-9 c-4.1,29.2-11.8,57.1-23.2,84.3c22.7-5.3,45.2-5.3,67.8,0c-11.3-27.3-19.1-54.9-23.1-84.4c1.3,1,1.9,1.5,2.4,2 c13.3,12.4,29,20,47.3,21.1c32.2,1.9,57.3-10.9,73.7-38.7C705.6,460.1,707.2,440.2,704.5,419.9z M644,436 c0,22.8-18.5,41.4-41.4,41.4c-16.4,0-31.3-9.8-37.9-24.8h-7c-6.6,15.1-21.4,24.8-37.9,24.8c-22.8,0-41.4-18.5-41.4-41.4v-8.3 c0-0.8,0.1-1.6,0.3-2.4l20.8-69.2c3.4-11.6,14-19.5,26.1-19.4c14.1,0,25.9,10.8,27.2,24.8h16.8c1.3-14,13-24.8,27.1-24.8 c12.1-0.1,22.7,7.8,26.1,19.4l20.8,69.2c0.2,0.8,0.3,1.6,0.3,2.4v8.3H644z"></path> </g> </svg> 