<?xml version="1.0" encoding="UTF-8"?> <svg xmlns="http://www.w3.org/2000/svg" xmlns:xlink="http://www.w3.org/1999/xlink" version="1.1" id="Layer_1" x="0px" y="0px" viewBox="0 0 1000 1000" style="enable-background:new 0 0 1000 1000;" xml:space="preserve"> <g> <path style="fill:#FDC440;" d="M541.1,510.8c3.4,25,10,48.4,19.6,71.6c-19.2-4.5-38.2-4.5-57.5,0c9.7-23.1,16.2-46.7,19.7-71.5 c-3.4,2.7-6.3,5.3-9.4,7.6c-39.4,28.4-95.2,5.7-102.7-42.1c-5.5-35.2,5.1-65.4,31.9-89.3c15.2-13.6,30.9-26.7,46.2-40.2 c13.5-12,26.4-24.6,36.6-39.7c2.3-3.4,4.3-6.9,6-9.8c4.7,6.8,9.1,14.2,14.4,20.8c9.8,12.4,21.6,23,33.6,33.2 c14.1,12.1,28.3,24.2,42.4,36.2c18.7,16,28.8,36.6,32,60.7c2.3,17.2,0.9,34.1-8.1,49.3c-13.9,23.6-35.2,34.4-62.5,32.8 c-15.5-0.9-28.8-7.4-40.1-17.9C542.7,512.1,542.2,511.7,541.1,510.8z"></path> <path style="fill:#FDC440;" d="M303.3,584.3c-4.5,0.6-8.9,1.1-13.8,1.8c0-1.2,0-2.2,0-3.1c0-136.2,0-272.3,0-408.5 c0-28.2,21.4-49.6,49.5-49.6c128.4,0,256.8,0,385.2,0c15.5,0,28.4,5.9,38.4,17.8c8.1,9.6,11.3,20.9,11.3,33.4c0,67,0,134.1,0,201.1 c0,46,0,69.9,0,115.9c0,2.1-0.6,3.5-2.2,4.9c-3.7,3-7.3,6.2-11.6,9.8c0-1.8,0-3,0-4.1c0-116.9,0-211.8,0-328.8 c0-16.6-9.8-30.3-25.2-34.8c-3-0.9-6.3-1.4-9.4-1.4c-129.3-0.1-258.6-0.1-388,0c-18.6,0-34.3,15.8-34.3,34.5 c0,135.8,0,271.6,0,407.4C303.3,581.6,303.3,582.8,303.3,584.3z"></path> <path style="fill:#FDC440;" d="M228.9,604.3c-2.3-8.4-4.5-16.5-6.7-24.7c-12.7-47.4-25.4-94.8-38.2-142.2 c-10.7-39.8-21.3-79.5-31.9-119.3c-1.9-7-4.1-14.1-4.9-21.2c-2.8-23.7,12.3-45.7,35.5-52c26.4-7.2,52.8-14.2,79.3-21.3 c3.1-0.8,6-0.8,8.2,1.8c1.7,2,2.2,4.4,1.2,6.9s-2.9,3.7-5.5,4.4c-26.3,7-52.7,14.1-79,21.2c-19.1,5.1-30.3,23.9-25.3,43 c15.8,59.4,31.8,118.7,47.7,178.1c9.9,37,19.8,74.1,29.7,111.2c0.6,2.4,1.2,4.8,1.9,7.1c0.4,1.2,0.3,2-1.1,2.5 C236.5,601.1,232.9,602.7,228.9,604.3z"></path> <path style="fill:#FDC440;" d="M347.5,235.8c2.9,5.4,8,9,12.5,13c3.4,3,6.8,5.8,8.1,10.6c1.7,6.2,0.7,11.7-3.4,15 c-4.4,3.5-9,3.5-15.8-0.3c1.1,4.1,2,7.8,3,11.6c-3.1,0-6.1,0-9.4,0c1-3.8,2-7.5,3.1-11.7c-3.6,2.3-6.8,3.7-10.5,3 c-7.3-1.4-11.3-9-9.1-16.5c1.5-5.2,4.9-8.5,8.7-11.8c2.3-1.9,4.6-3.8,6.8-6S345.5,238.1,347.5,235.8z"></path> <path style="fill:#FDC440;" d="M236.5,393.8c-3.1,0.8-6,1.6-9.2,2.5c0-3.8,0-7.6,0-11.7c-2.1,1.5-3.6,3.1-5.5,3.9 c-8.3,3.6-16.3-1.8-17-11.3c-0.3-4.3,0.8-8.3,3.3-11.8c2.1-3,4.2-5.9,6.1-9.1c1.8-2.9,3.2-6.1,4.9-9.3c5.6,5.4,13.3,7.6,20.2,11.5 c5.5,3,8.3,7.9,8.6,14c0.5,7.6-7.1,13.5-14.6,11.6c-0.8-0.2-1.5-0.5-3.1-1C232.6,387.1,234.5,390.4,236.5,393.8z"></path> <path style="fill:#FDC440;" d="M350.1,164.3c4.9,13.2,9.7,26.4,14.5,39.5c0.5,1.3,1.1,2.5,1.5,3.8c1.3,3.7,3.2,6.6,7.7,6.5 c0,1.2,0,2.1,0,3.1c-7.6,0-15.1,0-22.8,0c0-0.9,0-1.9,0-2.9c0.7-0.2,1.4-0.3,2.1-0.5c1.8-0.5,2.6-1.6,2-3.5c-1-2.9-2-5.9-3.1-8.7 c-0.2-0.6-1.3-1.2-2-1.2c-3.9-0.1-7.8-0.1-11.8,0c-0.8,0-1.9,0.9-2.2,1.6c-1,2.3-1.8,4.8-2.5,7.2c-0.8,2.8-0.3,3.8,2.7,4.4 c2.1,0.4,2.9,1.2,2.1,3.5c-5.8,0-11.7,0-17.7,0c0-1,0-1.8,0-3.1c5.6,0.3,7.1-3.8,8.7-7.9c5-12.7,10.2-25.3,15.1-38 C345.6,165.5,347.1,164.2,350.1,164.3z M338.1,195.7c4.1,0,7.8,0,11.9,0c-1.9-5.5-3.7-10.8-5.5-16.1c-0.2,0-0.4,0-0.6,0 C342.1,184.9,340.2,190.1,338.1,195.7z"></path> <path style="fill:#FDC440;" d="M212.6,275.5c0.3,1.1,0.5,1.9,0.7,2.6c-0.1,0.2-0.2,0.4-0.3,0.5c-5,2.4-5.1,2.6-3.8,7.9 c2.8,10.8,5.8,21.6,8.4,32.5c2.4,10-1.5,19.2-9.8,24.5c-0.5,0.3-1.1,0.6-1.8,1c-0.6-0.8-1.2-1.6-2-2.6c6.3-4.6,5.3-10.9,3.8-17 c-2.9-12-6.1-24-9.4-35.9c-1.3-4.8-2.1-5.1-8.2-4.4c-0.2-0.9-0.5-1.8-0.8-2.8C197.2,279.6,204.8,277.6,212.6,275.5z"></path> <g> <path style="fill:#FDC440;" d="M908.4,447.4c-6.9,26.5-12.8,50.3-17.9,71.2c-5.1,21-9.8,41.3-14.1,61s-8.5,39.6-12.8,59.9 c-4.3,20.3-9,42.9-14.1,67.7c11.6,0,21.7-0.3,30.5-1c8.8-0.6,18.7-2,29.8-4.2c-6.4,14.5-10.4,27.6-11.8,39.1 c-1.5,11.6-2.3,23.3-2.3,35.3c-10.7-0.9-19.2-1.5-25.7-1.9s-13.1-0.6-19.9-0.6H836c-3.4,17.1-6.6,34.2-9.6,51.3s-5.3,33.8-7.1,50 c-6.4-0.9-13.5-1.3-21.2-1.3s-16.5,0-26.3,0c-8.1,0-15.7,0-22.7,0c-7.1,0-14.2,0.4-21.5,1.3c4.7-15.9,9.2-32.1,13.5-49 s8.4-34.3,12.2-52.3c-8.5-0.4-16.8-0.8-24.6-1c-7.9-0.2-18.9-0.3-33-0.3c-33.4,0-59,0.4-77,1.3c-17.9,0.9-31.6,1.7-41,2.5 c2.2-6.8,3.8-12.9,5.1-18.3c1.3-5.3,2.4-10.5,3.5-15.7c1-5.1,2.2-10.5,3.2-16c1-5.6,2.3-11.9,3.5-19.2 c12.4-12.8,27.6-28.7,45.6-47.8c17.9-19,37.5-40,58.4-62.9s42.9-47,65.8-72.5c22.9-25.4,45.5-51,67.7-76.6 c5.1,0.9,10.8,1.6,17,2.3c6.2,0.6,12.9,1,20.2,1c7.7,0,14.6-0.3,20.8-1C894.4,449,901.1,448.2,908.4,447.4z M768.6,707.1 c6.8-28.2,12.5-52.3,17-72.1c4.4-19.9,8.2-36.8,11.2-51c3-14.1,5.3-26,7.1-35.6c1.7-9.6,3.2-18.5,4.5-26.7h-9 c-25.7,30.7-51.6,61.1-78,91.1c-26.3,30-53.6,59.7-81.8,89.2v5.1H768.6L768.6,707.1z"></path> </g> <path style="fill:#FDC440;" d="M127.2,661.2h-37v-24.3h105.4v24.3h-37v101.7h-31.5L127.2,661.2L127.2,661.2z"></path> <path style="fill:#FDC440;" d="M222.4,751.8c-10.4-8.7-15.5-21-15.5-36.9v-78h31.5V712c0,8.7,2.2,15.3,6.7,19.6s11.1,6.5,19.7,6.5 s15.2-2.2,19.7-6.5s6.7-10.8,6.7-19.6v-75.1h31.5v78c0,15.9-5.2,28.2-15.5,36.9c-10.4,8.7-24.5,13-42.3,13 C246.8,764.8,232.7,760.5,222.4,751.8z M233,601.9h23.1v21.3H233V601.9z M273.3,601.9h23.1v21.3h-23.1V601.9z"></path> <path style="fill:#FDC440;" d="M341.6,636.9h63c14.5,0,25.3,3.8,32.6,11.4c7.2,7.6,10.9,18.2,10.9,31.8c0,8.5-2.1,15.9-6.4,22.3 c-4.2,6.4-10.1,11.1-17.7,14.3c1.7,1.4,3.1,3,4.2,4.7s2.4,4.2,3.8,7.4l14.9,34H414l-14.1-32.1c-1.2-2.9-2.7-4.9-4.5-6.1 c-1.8-1.2-4.4-1.8-7.8-1.8h-14.5v39.9h-31.5V636.9z M396.3,698.7c6.3,0,11.1-1.6,14.5-4.7c3.4-3.1,5.1-7.8,5.1-13.9 c0-12.6-6.1-19-18.2-19h-24.6v37.6L396.3,698.7L396.3,698.7z"></path> <path style="fill:#FDC440;" d="M464,636.9h31.5v48.9l43.4-48.9h36l-45,51.4l47.7,74.5H544l-33.6-54.4l-14.9,16.2v38.1H464V636.9z"></path> <path style="fill:#FDC440;" d="M104.6,783.4h37.2c13.4,0,23.5,3.4,30.2,10.3c6.7,6.8,10.1,17.9,10.1,33.2c0,14.5-3.4,25.2-10.1,32 c-6.7,6.9-16.8,10.3-30.2,10.3h-37.2C104.6,869.2,104.6,783.4,104.6,783.4z M138.9,852.7c5,0,9-0.7,12-2.1c3-1.4,5.3-4,6.9-7.7 c1.6-3.7,2.4-9.1,2.4-16c0-7-0.7-12.5-2.2-16.3c-1.5-3.9-3.7-6.6-6.8-8.2c-3.1-1.6-7.2-2.4-12.3-2.4h-12.8v52.8L138.9,852.7 L138.9,852.7z"></path> <path style="fill:#FDC440;" d="M193,783.4h63.3v16.5h-41.8v18h36.9v16.8h-36.9v18h41.8v16.5H193V783.4z"></path> <path style="fill:#FDC440;" d="M296.6,783.4h23.2l32.8,85.8h-22.4l-7.7-19.4h-28.6l-7.6,19.4h-22.4L296.6,783.4z M319.5,833.9 L308,804.1l-11.3,29.8L319.5,833.9L319.5,833.9z"></path> <path style="fill:#FDC440;" d="M363.5,783.4h21.4v69.3h40.5v16.5h-61.9V783.4z"></path> <path style="fill:#FDC440;" d="M431.7,783.4H495v16.5h-41.8v18H490v16.8h-36.9v18h41.8v16.5h-63.3v-85.8H431.7z"></path> <path style="fill:#FDC440;" d="M505.2,783.4h42.9c9.9,0,17.2,2.6,22.2,7.8c4.9,5.2,7.4,12.4,7.4,21.6c0,5.8-1.4,10.8-4.3,15.2 c-2.9,4.4-6.9,7.6-12.1,9.7c1.2,1,2.1,2,2.9,3.2c0.8,1.2,1.6,2.8,2.6,5.1l10.1,23.2h-22.4l-9.6-21.8c-0.8-2-1.8-3.3-3.1-4.1 c-1.2-0.8-3-1.2-5.3-1.2h-9.9v27.2h-21.4L505.2,783.4L505.2,783.4z M542.5,825.5c4.3,0,7.5-1.1,9.9-3.2c2.3-2.1,3.5-5.3,3.5-9.5 c0-8.6-4.1-12.9-12.4-12.9h-16.8v25.6L542.5,825.5L542.5,825.5z"></path> </g> </svg> 