<?xml version="1.0" encoding="UTF-8"?> <svg xmlns="http://www.w3.org/2000/svg" xmlns:xlink="http://www.w3.org/1999/xlink" version="1.1" id="Layer_1" x="0px" y="0px" viewBox="0 0 382.4 386.2" style="enable-background:new 0 0 382.4 386.2;" xml:space="preserve"> <path style="fill:#FFFFFF;" d="M8.7,229.8c0.5-0.6,1-0.5,1.7-0.3c0.5,0.2,1.3,0,1.9-0.2c1.5-0.4,2.1-1.7,2.6-3.1 c0.1-0.3,0.3-0.7,0.3-1c0-1.9-0.1-3.9-0.1-5.8c0-2.1,0.2-4.2,0.3-6.3c0.1-2.4,0.1-4.9,0.2-7.3c0.1-2.1-0.9-3.7-2.6-4.8 c-0.4-0.3-0.7-0.6-1.4-1.1c0.5-0.3,0.9-0.6,1.3-0.9c1.9-1.2,2.7-2.9,2.8-5.1c0.1-3,0.1-6,0.2-8.9c0.1-2.7,0.2-5.4,0.3-8.1 c0-2.1-2.1-3.9-4.2-3.5c-0.4,0.1-0.7,0.4-1.1,0.4c-0.2,0-0.7-0.2-0.7-0.4c-0.3-2.6,0.7-3.8,2.8-4.8c1.9-0.9,3.9-0.7,5.7,0.6 c1.3-0.9,2.7-1.5,4.3-1.3c0.5,0.1,1.1,0.1,1.6,0.3c0.8,0.4,1.6,0.4,2.4,0.1c3-1.1,6.2-1.3,9.4-1c3,0.3,5.8,1.1,8.3,2.8 c3.6,2.5,5.6,6.1,7,10.2c1.2,3.6,1.8,7.3,2,11.1c0.1,1,0.2,2,0.4,2.9c0.4,1.6,1.7,2.3,3.3,3c-2.1,0.9-3.3,2.3-3.6,4.3 c-0.2,1.2-0.3,2.4-0.5,3.6c-1,7.7-3,14.9-8.2,20.9c-3.5,4.1-8,6.5-13.4,7.1c-2.1,0.2-4.2,0.1-6.2-0.5c-0.3-0.1-0.8,0-1.2,0.2 c-2.2,1-4.3,1.5-6.6,0.3c-0.2-0.1-0.7-0.1-0.9,0.1c-1.7,1.8-5.9,1.7-7.4-0.4c-0.2-0.3-0.5-0.7-0.7-1C8.7,231.2,8.7,230.5,8.7,229.8z M37.3,198.4c0.3-0.2,0.4-0.3,0.6-0.4c1.9-0.9,3-2.4,3.1-4.5c0-2.3,0-4.6-0.3-6.9c-0.4-3.3-1.3-6.4-2.9-9.4c-1-1.7-2.4-3.1-4.2-3.8 c-1.1-0.5-2.6-0.3-3.9-0.3c-0.9,0-1.4,0.8-1.4,1.8c-0.1,2.9-0.1,5.7-0.2,8.6c-0.1,6.2-0.3,12.3-0.4,18.5c-0.1,3.3-0.1,6.6-0.2,10 c-0.1,4.3-0.2,8.6-0.2,12.9c0,0.2,0.1,0.5,0.2,0.7c0.9,1.1,2.1,1.6,3.6,1.4c2.8-0.4,4.8-1.9,6.1-4.3c2.3-4.1,2.9-8.6,3.3-13.1 c0.2-1.8,0.2-3.6,0.3-5.4c0.1-3.1-0.1-4.2-3-5.6C37.7,198.6,37.6,198.6,37.3,198.4z M19.3,181.2c0,1.7,0,3.2,0,4.7 c0,3.1-0.1,6.1-0.2,9.2c0,0.8-0.1,1.6-0.4,2.3c-0.4,0.9-1,1.6-1.5,2.5c1.7,0.8,1.5,2.6,1.7,4.1c0.1,0.9-0.1,1.8-0.1,2.8 c0,1.4,0.1,2.9,0.1,4.3c-0.1,3-0.2,6.1-0.3,9.1c0,0.2,0.1,0.4,0.2,0.9c0.3-0.6,0.5-0.9,0.5-1.2c0.3-2.1,0.6-4.1,0.8-6.2 c0.1-0.9,0.1-1.9,0.1-2.8c0.1-2.7,0.2-5.5,0.3-8.2c0.1-3,0.2-5.9,0.2-8.9c0-2.9,0.1-5.8,0-8.7C20.8,183.8,20.8,182.3,19.3,181.2z M43.7,198.1c1.5,0.7,1.6,1.9,1.6,3.2c0,4.7-0.6,9.3-1.6,13.9c-0.2,1.1-0.4,2.3-0.6,3.4c0.1,0,0.2,0.1,0.3,0.1 c0.3-0.7,0.7-1.3,0.9-2c1.4-4.1,2-8.4,2.3-12.7c0.3-3.3,0.2-6.5,0.3-9.8c0-3.2-0.3-6.3-1.1-9.4c-0.4-1.5-0.7-3.1-2-4.4 c0,0.3,0,0.4,0,0.5c0,0.2,0,0.3,0.1,0.5c1,4.3,1.6,8.6,1.6,13C45.5,195.9,45.3,197.2,43.7,198.1z"></path> <path style="fill:#FFFFFF;" d="M377.5,220.5c-0.1,0.4-0.1,0.9-0.2,1.3c-0.2,0.8-0.5,1.6-0.8,2.4c-0.3,0.6-0.4,1.1-0.2,1.8 c0.5,2.1,0.7,4.3-0.5,6.3c-0.7,1.2-1.6,1.8-3,1.6c-0.6-0.1-1.2-0.2-1.7-0.2c0-0.8,0-1.7,0-2.5c-0.1-1.1-1.2-1.8-2.4-1.4 c-1.1,0.3-2.1,0.8-3.2,1.1c-2.1,0.6-4.2,0.6-6.3,0.4c-2.4-0.2-4.7-0.7-6.8-1.9c-0.2-0.1-0.5-0.1-0.6,0c-2.1,1.5-4.1,1.2-6.2-0.1 c-0.2-0.1-0.4-0.3-0.6-0.4c-2.1,1.7-4.8,0.9-6.5-0.6c-1.1-1-1.5-2.9-0.8-4c0.3,0.2,0.6,0.4,0.9,0.6c1.6,0.9,4-0.7,4.1-2.6 c0.1-2.2,0-4.4,0-6.6c0-2.6-0.1-5.3-0.2-7.9c-0.1-1.8-0.1-3.7-0.2-5.5c-0.1-1.6-1.3-2.6-2.4-3.7c-0.4-0.4-0.8-0.8-1.3-1.2 c2.5-1.1,3.6-2.9,3.5-5.4c-0.1-5.2-0.1-10.5-0.2-15.7c0-1.4-1.3-2.8-2.6-3.5c-1-0.5-1.8-0.1-2.6,0.3c-0.8-1.4-0.7-3.1,1-4.4 c1.5-1.1,4.2-1.2,6,0.4c1.2-1.3,5.4-1.4,6.5,0c0.2,0.2,0.8,0.3,1.1,0.2c2.8-1.1,5.7-1.2,8.6-0.9c1.9,0.2,3.7,1,5.6,1.5 c0.2,0.1,0.4,0.2,0.5,0.2c0.5,0,1.2,0.2,1.4,0c0.3-0.3,0.2-1,0.2-1.5c0-0.4,0-0.7-0.1-1.2c1,0,2,0,3,0c1,0,2.3,1.3,2.4,3 c0.2,1.5-0.1,3-0.1,4.4c0,1,0.4,2,0.5,3c0.2,1.7,0.3,3.4-0.6,5c-0.2,0.3-0.2,0.8-0.1,1.2c0.1,1.7,0.4,3.5-0.6,5 c-0.4,0.5-0.8,1.3-1.3,1.3c-1,0-2.1-0.3-3.1-0.5c-0.1,0-0.2-0.5-0.2-0.7c0.5-1.8,0.4-3.5,0-5.2c-0.3-1.1-0.4-2.3-0.8-3.3 c-1-2.4-2.1-4.7-4.8-5.8c-2.6-1.1-5.1-0.9-7.2,1.1c-1.3,1.2-2.1,2.8-2,4.6c0.1,4.6,0.2,9.2,0.3,13.7c0,0.7,0.9,1.5,1.8,1.5 c1.2-0.1,2.4-0.3,3.6-0.4c1.3-0.1,1.6-1.2,1.7-2.1c0.2-1.3,0.5-2.7-0.4-4c-0.3-0.5,0.1-1.2,0.7-1.3c1.7-0.2,3.6,0.8,4,2.5 c0.3,1.1,0,2.4,0.1,3.6c0.1,0.6,0.5,1.2,0.6,1.8c0.3,1.3,0.5,2.7,0.5,4c0,1.2-0.2,2.5-0.9,3.6c-0.2,0.4,0.2,1,0.1,1.5 c-0.1,1.3-0.1,2.6-0.4,3.8c-0.6,2.2-2.5,2.7-4.3,1.5c0.1-1.5,0.4-2.9,0.4-4.3c0-1.3-0.2-2.6-1.2-3.6c-1.1-1-3.9-1.5-5.2-0.9 c-0.3,0.1-0.6,0.6-0.5,0.9c0,5.5,0.1,11,0.2,16.5c0,1.2,0.2,2.4,0.6,3.5c0.5,1.5,1.6,2.6,3.2,3c1.2,0.3,2.4,0.8,3.6,0.9 c4,0.2,6.5-2.2,7.5-5.8c0.5-1.7,1-3.4,1.2-5.2c0.2-1.9,0.1-3.8,0.2-5.8c0-0.7-0.6-1.6,0.4-2.2c1.1-0.7,2.4-0.3,3.1,0.7 c0.7,0.9,1.1,2,0.9,3.2c-0.2,1.1,0,2.2,0.6,3.3c0.3,0.5,0.2,1.1,0.3,1.7c0.1,0.6,0.2,1.2,0.4,1.7c0.3,0.8,0.7,1.5,1.1,2.2 c0.1,0.2,0.2,0.3,0.4,0.4C377.5,220.3,377.5,220.4,377.5,220.5z M345.9,218.3c1.2-1.4,1.3-3.1,1.3-4.7c0-3.5-0.1-6.9-0.1-10.4 c-0.1-4.2-0.1-8.4-0.2-12.5c-0.1-2.7-0.2-5.3-0.5-8c-0.1-0.8-0.6-1.6-1-2.4c-0.1,0-0.2,0.1-0.3,0.1c0,0.3,0,0.6,0,1 c0,3.8,0.2,7.6,0.1,11.4c0,1.7,0.3,3.7-1.4,4.7c0.5,0.7,1.2,1.3,1.3,2c0.3,2.6,0.4,5.1,0.5,7.7C345.7,210.8,345.8,214.6,345.9,218.3 z"></path> <path style="fill:#FFFFFF;" d="M181.7,120.6c4.1,1.8,8.1,3.5,12.2,5.3c1.9,0.8,2.2,1.2,2.2,3.2c0,4,0.2,8-0.1,12 c-0.5,7.3-5.6,13.6-12.3,14.9c-4.1,0.8-7.8-0.2-11-2.7c-3.8-3-5.9-7-6.3-11.7c-0.3-4.3-0.2-8.6-0.2-12.9c0-1.2,0.5-2,1.7-2.5 c4.2-1.8,8.4-3.6,12.6-5.4c0.1,0,0.2-0.1,0.3-0.1C181.1,120.6,181.4,120.6,181.7,120.6z M181.5,140.8c1.1,0.5,2.1,1.1,3.2,1.4 c2.9,0.7,5.7-1.7,5.3-4.5c-0.2-1.4-0.9-2.6-2-3.6c-1.7-1.6-3.4-3.1-5-4.7c-0.6-0.6-1.2-1.4-1.8-2c-0.9,1-1.6,1.9-2.5,2.8 c-0.9,0.9-1.9,1.6-2.8,2.5c-0.9,0.9-1.8,1.8-2.5,2.7c-0.9,1.2-1.3,2.5-0.8,4c0.9,2.7,4.7,3.8,7.2,2c0.3-0.3,0.7-0.5,1.2-0.9 c-0.3,2.9-2.1,4.8-3.5,6.7c2.5,0,5.1,0,7.6,0C183.6,145.3,181.8,143.4,181.5,140.8z"></path> <path style="fill:#FFFFFF;" d="M214,120.6c2.3,1,4.6,2,6.9,3c2,0.8,3.9,1.7,5.9,2.5c0.9,0.4,1.5,1.2,1.5,2.2c0,4.6,0.2,9.2-0.3,13.7 c-0.5,4.8-2.7,9-6.8,11.7c-6.5,4.4-14.3,2.9-19.1-3.4c-2.5-3.3-3.7-7-3.7-11.1c0-3.4,0-6.9,0-10.3c0-1.7,0.4-2.3,2-3 c4.1-1.8,8.3-3.6,12.4-5.4C213.2,120.6,213.6,120.6,214,120.6z M213.3,132.5c-0.2-0.3-0.5-0.7-0.8-1c-1.2-1.3-2.6-1.9-4.4-1.5 c-1.7,0.5-2.8,1.6-3.2,3.3c-0.5,2,0.1,3.7,1.3,5.2c2.4,2.8,4.9,5.6,7.2,8.2c1.9-2.1,3.9-4.3,5.9-6.5c1.3-1.4,2.4-2.8,2.8-4.7 c0.3-1.8-0.1-3.4-1.5-4.6c-1.5-1.2-3.2-1.5-4.9-0.5C214.8,131,214.2,131.8,213.3,132.5z"></path> <path style="fill:#FFFFFF;" d="M133.6,217.3c2.4,0.8,4.3-0.6,4.3-3c0.1-4.4,0.1-8.9,0.1-13.3c0-0.9,0-1.8,0.2-2.7 c0.4-2.4-0.8-4-2.4-5.5c-0.2-0.2-0.3-0.8-0.2-0.9c2.5-1.6,2.8-4.2,2.8-6.8c0-2.5,0-5.1,0-7.6c0-1.6,0.2-3.3,0.2-4.9 c0-1.4-0.9-2.9-2.1-3.1c-0.7-0.1-1.5,0.2-2.2,0.3c-0.6-1.7-0.1-3,1.3-4.2c1-0.9,3.1-0.9,4.4-0.2c0.3,0.1,0.7,0.1,1,0 c1.4-0.8,2.8-0.9,4.3-0.2c0.3,0.1,0.8,0.1,1.1,0c4.9-1.8,9.7-1.5,13.9,1.8c2.1,1.6,3.3,3.9,4.2,6.3c0.9,2.5,1.6,5,1.8,7.7 c0.2,1.9,0.4,3.7,0.6,5.6c0.1,1.4,0.7,2.5,1.9,3.3c0.5,0.4,0.4,0.7,0,1c-1.5,0.9-1.9,2.5-2,4c-0.4,3.7-0.8,7.4-1.8,11 c-0.9,3.3-2.3,6.5-4.4,9.3c-2.3,3-5.3,5.3-9.1,5.8c-1.8,0.2-3.6,0.4-5.4-0.3c-0.3-0.1-0.7,0-0.9,0.1c-1.6,0.8-3.2,1-4.9,0.3 c-0.2-0.1-0.8,0.2-1,0.4c-1.5,1.2-5,0.8-5.5-1.5C133.2,219,133,218.1,133.6,217.3z M147.2,210.4c-0.1,0-0.1,0-0.2,0 c0,1.1,0,2.1,0,3.2c0,1.6,1.6,2.8,3.2,2.3c2.6-0.7,3.9-2.7,4.8-5c1.5-3.8,1.8-7.8,2-11.9c0.1-1.3-0.1-2.6,0-3.8 c0.1-1.6-0.4-2.7-1.7-3.5c-0.6-0.4-0.7-0.8,0-1.1c1.4-0.8,1.8-2.1,1.9-3.6c0.2-2.7-0.1-5.3-0.6-7.9c-0.5-2.3-1-4.5-2.2-6.6 c-0.7-1.2-1.5-2.3-2.9-2.7c-0.7-0.2-1.6-0.1-2.4-0.2c-1.1,0-1.5,0.4-1.5,1.5c-0.1,4-0.1,8-0.2,12c-0.1,4.9-0.2,9.8-0.3,14.7 C147.2,202,147.2,206.2,147.2,210.4z M140.7,210.3c0.2-0.3,0.3-0.3,0.3-0.4c0.3-1.9,0.7-3.9,0.8-5.8c0.2-4,0.2-8.1,0.3-12.1 c0-1.7,0-3.4,0-5c0-2.8,0-5.6,0-8.4c0-0.6-0.3-1.1-0.4-1.7c-0.3,3.9-0.5,7.8-0.6,11.7c0,1.4-0.3,2.6-1.2,3.4 c0.3,0.8,0.8,1.5,0.9,2.2c0.1,3.7,0,7.3,0,11C140.7,206.7,140.7,208.4,140.7,210.3z M159.6,175.9c-0.1,0.1-0.2,0.1-0.3,0.2 c0.3,1.3,0.6,2.7,0.8,4c0.2,1.9,0.4,3.8,0.4,5.7c0,1.8,0.5,3.7-1,5.1c0.3,0.5,0.8,0.9,0.9,1.3c0.1,1.4,0.2,2.9,0.1,4.3 c-0.1,1.9-0.4,3.7-0.6,5.6c-0.1,1.1-0.3,2.2-0.5,3.3c-0.2,1-0.3,2-0.5,3c0.1,0,0.2,0,0.2,0.1c0.2-0.6,0.5-1.1,0.6-1.7 c1.1-3.8,1.6-7.6,1.8-11.5c0.2-3.3,0.2-6.6,0-9.8c-0.1-2.4-0.6-4.7-1-7.1C160.4,177.5,159.9,176.7,159.6,175.9z"></path> <path style="fill:#FFFFFF;" d="M63.1,196.3c0.5-0.4,1-0.8,1.5-1.2c1.1-0.8,1.7-2,1.7-3.4c0.1-3.3,0.1-6.6,0.2-10 c0-1.3,0.2-2.7,0.2-4c0-1.3-1-2.5-2.3-2.5c-0.6,0-1.2,0.3-1.9,0.5c-0.7-0.9-0.6-2.4,0.3-3.4c1.3-1.6,3.5-2.1,5.4-1.1 c0.3,0.1,0.7,0.1,1,0c1.6-0.9,3.2-1,4.8,0.1c0.2,0.2,0.7,0.2,1,0.1c3.6-1.5,7.3-1.6,10.9-0.1c0.2,0.1,0.4,0.1,0.6,0.2 c0.6,0.1,1,0,0.9-0.7c0-0.5-0.1-1-0.1-1.4c2.9-1.1,4.7,0.3,4.6,3.3c-0.1,2.1,0.1,4.1,0.1,6.1c0,0.8-0.3,1.5-0.5,2.3 c-0.1,0.6-0.3,1.3-0.2,1.9c0.1,1.6-0.2,3-1.1,4.3c-0.8,1.2-2.4,0.9-3.2,0.2c-0.2-0.2-0.1-0.7-0.1-1c0.4-3,0.1-6-1.5-8.6 c-1.8-3.1-6.1-3.1-8.2-0.2c-1,1.4-1.2,2.9-1.2,4.5c0,2.5,0,4.9-0.1,7.4c0,0.8-0.1,1.6-0.1,2.4c-0.1,0.7,0.3,1.1,0.9,1.1 c1.1-0.1,2.1-0.3,3.1-0.6c0.5-0.2,0.9-0.9,1-1.4c0.3-1.2,0.4-2.4-0.2-3.6c-0.1-0.2,0.2-0.7,0.4-0.8c1.5-1,3.7,0.3,3.8,2.3 c0,0.7-0.1,1.4-0.1,2.1c0,0.2,0,0.5,0.1,0.7c1,2.3,0.9,4.6-0.1,6.9c-0.1,0.2-0.1,0.5,0,0.7c0.2,1.7,0.1,3.3-0.9,4.8 c-0.6,0.8-1.3,1.3-2.4,1.2c-0.9-0.1-1-0.5-0.9-1.4c0.2-1.3,0.3-2.6,0.2-3.9c0-1-0.6-1.7-1.7-1.8c-0.7-0.1-1.4,0-2,0 c-0.9,0.1-1.2,0.6-1.2,1.5c0,3.7-0.1,7.4-0.2,11.1c0,0.9,0,1.9-0.2,2.7c-0.5,2.2,1.7,4,3.8,4.1c3.4,0.1,5.8-1.4,7.1-4.7 c1.1-2.8,1.6-5.8,1.7-8.8c0-0.5-0.1-1-0.1-1.6c-0.1-0.8,0.2-1.3,0.9-1.6c0.7-0.3,1.4-0.4,2,0.2c0.8,0.8,1.1,1.7,1,2.8 c0,0.8,0.2,1.6,0.3,2.5c0,0.2,0.2,0.5,0.2,0.6c-0.3,1.2,0.3,2.1,0.8,3.1c0.6,1.4,0.2,2.9-0.4,4.3c-0.2,0.4-0.2,0.8-0.2,1.3 c0.1,2.3,0.4,4.5-1.4,6.4c-0.8,0.8-1.7,0.9-2.7,0.7c-0.2,0-0.4-0.5-0.5-0.7c-0.1-0.7-0.1-1.4-0.2-2.1c-0.7,0.2-1.5,0.2-2.1,0.6 c-2.5,1.6-5.2,2.3-8.1,2.2c-1,0-2.1-0.3-3.1-0.4c-0.4,0-0.9,0-1.2,0.2c-1.5,1.1-3.1,1.4-4.9,0.6c-0.3-0.1-0.8,0.1-1.1,0.3 c-1.7,1-3.8,0.9-5.1-0.4c-1-1-1.2-2.4-0.3-3.7c2,1,4.1-0.3,4.2-2.6c0.1-5.2,0.1-10.4,0.2-15.6c0.1-1.8-0.6-3-2-3.9 C63.8,196.8,63.5,196.6,63.1,196.3z M68.1,195.8c0.4,0.8,0.9,1.5,1,2.2c0.1,1.9,0.1,3.8,0.1,5.6c0,2.8,0,5.6,0,8.5 c1-2.3,1.5-28.3,0.6-30.1c-0.1,0.8-0.1,1.5-0.1,2.2c-0.1,2.8-0.2,5.6-0.3,8.4C69.2,193.8,69,195.1,68.1,195.8z"></path> <path style="fill:#FFFFFF;" d="M246.6,215.7c0.8,1,0.6,3.3-0.4,4.3c-0.8,0.8-3,1.1-4.6-0.6c-1.6,1.1-3.1,1.1-4.7-0.1 c-0.2-0.1-0.6-0.1-0.9,0.1c-1.2,0.6-2.9,0.4-4-0.6c-1-0.9-1.6-3-1.2-4c0.1-0.2,0.2-0.3,0.3-0.5c0.1,0,0.2,0,0.2,0 c0.6,0.6,1.4,1.1,2.2,0.4c0.3-0.3,0.2-1.2,0.1-1.8c-0.4-2.1-0.9-4.3-1.4-6.4c-0.1-0.3-0.4-0.6-0.6-0.6c-2.4-0.2-4.8-0.4-7.2-0.6 c-0.9-0.1-1.8-0.1-2.8-0.2c-0.6-0.1-0.8,0.2-0.9,0.8c-0.3,1.9-0.7,3.7-1,5.6c-0.2,1,0.4,1.7,1.1,2.4c0.6,0.6,1.3,0.6,2,0.2 c0.2-0.1,0.5-0.1,0.8-0.2c0.6,1.3,0.3,3.5-0.5,4.1c-1,0.7-2.2,0.7-3.6-0.3c-1.1,0.4-2.1,0.6-3.1-0.1c-0.2-0.1-0.6-0.2-0.8-0.1 c-1.8,0.9-3.4-0.3-3.7-2.2c-0.1-0.8,0-1.6,0-2.6c0.6,0.2,1.1,0.6,1.6,0.6c1.6,0.1,1.9-0.1,2.3-1.7c0.7-2.8,1.1-5.6,1.6-8.4 c0.4-1.9,0.8-3.7,1.1-5.6c0.3-1.7,0.8-3.5,0-5.2c-0.2-0.5-0.6-0.9-0.9-1.4c-0.3-0.5-0.6-0.9,0-1.3c2-1.3,2.6-3.4,3-5.5 c0.6-2.9,1.1-5.8,1.6-8.7c0.2-1.2,0.5-2.4,0.6-3.6c0-0.6-0.3-1.2-0.5-1.8c-0.2-0.5-0.7-0.7-1.3-0.3c-0.4,0.3-0.9,0.3-1.5,0.5 c-0.1-2-0.5-3.9,1.4-5.1c1.2-0.8,2.6-0.5,4.2,0.8c1.5-1.3,3.7-1.5,5.3,0.1c2.5-1.3,4.1-1.4,5.3-0.2c1,1,1.3,2.9,0.5,4.2 c-1.6-1-2.7-0.4-2.7,1.6c0,1.2,0.3,2.5,0.6,3.7c0.7,3.5,1.5,6.9,2.2,10.4c0.5,2.3,1.7,4,3.7,5.3c0.2,0.1,0.4,0.3,0.4,0.3 c-0.7,0.8-1.5,1.5-1.9,2.4c-0.3,0.7-0.2,1.7,0,2.5c1.5,5.9,3,11.8,4.5,17.6C243.5,215.6,244.7,216.9,246.6,215.7z M226,176.7 c-0.1,0-0.1,0-0.2,0c-0.1,0.7-0.3,1.3-0.4,2c-0.3,1.8-0.7,3.6-1,5.3c-0.3,1.6-0.6,3.3-0.8,4.9c-0.3,1.7-0.5,3.5-0.8,5.2 c-0.3,1.9-0.6,3.8-0.9,5.6c0,0.2,0.3,0.6,0.5,0.6c1.6,0.1,3.1,0.1,4.7,0.2c1.3,0.1,2.6,0.2,4,0.3C229.4,192.7,227.7,184.7,226,176.7 z M229.1,177c-0.2,0.1-0.3,0.1-0.5,0.2c2.3,10.4,4.6,20.7,6.8,31.1c0.1,0,0.2,0,0.3,0c0-0.6,0.1-1.1,0-1.7c-0.2-1-0.4-2-0.6-3 c-0.5-2.7-1-5.5-1.6-8.2c-0.3-1.3-0.3-2.5,0.3-3.7c-0.4-0.5-1.1-0.9-1.3-1.4c-0.9-3-1.6-6.1-2.4-9.1 C229.9,179.7,229.5,178.4,229.1,177z"></path> <path style="fill:#FFFFFF;" d="M116.6,170c2.1-1.2,4-1.3,5.1-0.3c1,1,1.1,2.5,0.5,3.7c-0.7-0.1-1.5-0.4-1.8-0.1 c-0.9,0.6-1.2,1.6-1,2.7c0.7,3.7,1.4,7.3,2.1,10.9c0.1,0.4,0.2,0.8,0.3,1.2c0.3,1.7,1.2,2.9,2.7,3.7c0.4,0.2,0.7,0.4,1.2,0.7 c-0.4,0.3-0.8,0.5-1.1,0.8c-1.1,0.9-1.6,2-1.3,3.4c1.2,5.1,2.4,10.1,3.7,15.2c0.5,1.9,1.5,2.3,3.1,1.1c0.8,0.5,0.5,1.3,0.4,2.1 c-0.2,2.4-2.4,3.7-4.6,2.7c-0.3-0.1-0.7-0.1-1,0.1c-1.2,0.8-2.4,1-3.8,0.4c-0.3-0.1-0.8,0-1.1,0.1c-1.6,1-3.6,0.8-4.5-0.7 c-0.7-1.1-0.7-2.5,0.1-3.4c0.3,0.1,0.5,0.3,0.8,0.4c1.1,0.4,2-0.4,1.7-1.4c-0.4-2.1-0.8-4.3-1.3-6.5c-1.3,0.1-2.6,0.1-3.9,0.2 c-2.2,0.2-4.5,0.4-6.7,0.6c-0.3,0-0.7,0.4-0.8,0.6c-0.4,1.8-0.8,3.6-1.2,5.4c-0.4,1.6,1,2.6,2.4,2.2c0.5-0.2,0.9-0.4,1.3-0.7 c0.7,1.2,0.6,2.8-0.2,3.9c-0.8,1.1-2.1,1.4-3.5,0.9c-0.3-0.1-0.7,0-1.1,0.1c-0.6,0.1-1.3,0.6-1.6,0.4c-1.1-0.5-1.9,0-2.9,0.2 c-2.1,0.6-3.1-1.1-3.1-2.8c0-0.6,0.2-1.1,0.3-1.7c2,0.7,3,0.5,3.7-0.7c0.4-0.7,0.6-1.6,0.8-2.5c1.1-4.5,2.2-9,3.3-13.6 c0.1-0.6,0.3-1.2,0.3-1.8c0-1.6-0.4-2.9-2.1-3.4c0-0.1,0-0.2,0-0.2c3.1-1.5,4-4.4,4.6-7.5c0.8-3.4,1.5-6.8,2.2-10.2 c0.2-0.7,0.3-1.4-0.4-1.7c-0.5-0.2-1.2,0-1.8,0.1c-0.3,0-0.5,0.3-0.7,0.4c-0.8-1.6-0.4-3.7,0.9-4.8c1.1-1,2.7-1.4,4.9,0.1 C113.6,168.8,114.3,168.7,116.6,170z M111.6,180.1c0,0-0.1,0-0.1,0c-1.6,7.4-3.2,14.8-4.9,22.3c3.2-0.2,6.2-0.4,9.2-0.7 C114.3,194.4,113,187.2,111.6,180.1z M114.8,180.3c-0.2,0-0.3,0.1-0.5,0.1c1.8,9.1,3.7,18.1,5.5,27.2c0.2-0.2,0.3-0.4,0.2-0.6 c-0.5-2.9-1-5.8-1.5-8.8c-0.3-1.8-0.7-3.5,0.1-5c-0.5-0.9-1.1-1.5-1.3-2.3c-0.5-1.6-0.8-3.2-1.2-4.8 C115.7,184.2,115.3,182.2,114.8,180.3z"></path> <path style="fill:#FFFFFF;" d="M135.2,138.3c0-1.8,0-3.7,0-5.5c0-1.2,0.5-2,1.6-2.4c4-1.6,8-3.3,11.9-4.9c0.8-0.4,1.6-0.4,2.5,0 c3.8,1.6,7.6,3.1,11.4,4.6c1.9,0.8,2.3,1.3,2.3,3.4c0,3.3,0.1,6.5,0,9.8c-0.2,5.5-2.3,10.2-7,13.2c-7.5,4.9-16.3,2.2-20.7-5.4 c-1.5-2.5-2.1-5.3-2.1-8.2C135.2,141.3,135.2,139.8,135.2,138.3z M157.5,141.1c-2.9-2.6-5.4-5.7-7.4-9.2c-2.1,3.5-4.4,6.7-7.5,9.4 c3,2.6,5.6,5.6,7.5,9.1c1.2-1.6,2.2-3.3,3.5-4.8C154.8,144,156.2,142.6,157.5,141.1z"></path> <path style="fill:#FFFFFF;" d="M259.7,138c-0.3,3-0.2,6.2-0.9,9.1c-1.5,5.9-5.3,10-11.3,11.4c-4.4,1.1-8.6-0.1-12.1-3 c-4.1-3.4-5.7-7.9-5.8-13c-0.1-3.1,0-6.2,0-9.3c0-1.8,0.4-2.4,2.1-3c3.9-1.6,7.8-3.1,11.7-4.7c0.9-0.4,1.6-0.4,2.5,0 c4,1.7,8,3.3,12,4.9c1.2,0.5,1.6,1.4,1.6,2.6c0,1.7,0,3.4,0,5C259.5,138,259.6,138,259.7,138z M245.1,142.8c0.2,0,0.4,0,0.5,0 c0.6,0.4,1.3,0.8,1.8,1.4c1.4,1.6,3.4,2,5,1c1.6-1.1,2.1-3.2,1.1-4.9c-1.3-2.3-4.5-2.5-6.1-0.3c-0.5,0.8-1.1,1.4-2.2,1.4 c0.1-1.2,0.5-2,1.5-2.7c1.6-1.1,2-3.1,1.2-4.7c-0.8-1.6-2.6-2.4-4.4-1.8c-1.4,0.4-2.3,1.5-2.5,2.9c-0.3,1.6,0.4,2.9,1.7,3.8 c0.9,0.7,1.2,1.5,1.4,2.6c-1.1,0-1.4-0.2-2.3-1.4c-1.1-1.5-3.3-1.9-4.8-0.9c-1.6,1-2.1,3.2-1.2,4.9c0.9,1.7,3,2.4,4.7,1.5 c0.7-0.4,1.2-1,1.7-1.5c0.6-0.7,1.2-1.1,2.5-1c-0.3,1.5-0.5,2.9-1,4.2c-0.5,1.3-1.4,2.5-2.1,3.5c2.1,0,4.2,0,6.4,0 C246.3,148.2,244.5,145.9,245.1,142.8z"></path> <path style="fill:#FFFFFF;" d="M333.5,176c-0.6-0.1-1.1,0-1.6-0.2c-1-0.5-1.8,0.1-2.2,0.7c-0.6,0.9-1.1,2-1.4,3.1 c-0.4,1.2-0.7,2.4-0.9,3.6c-0.3,1.2-0.5,2.4-0.8,3.6c-0.3,1.2-0.7,2.4-0.9,3.6c-0.3,1.5-1.1,3-0.1,4.5c0.2,0.2,0.4,0.5,0.6,0.7 c0.6,0.4,0.6,0.8,0,1.1c-1.5,0.8-2.3,2.2-2.7,3.7c-0.8,2.6-1.3,5.3-1.9,7.9c-1.2,4.9-2.5,9.7-3.8,14.6c0,0.2-0.1,0.4-0.2,0.5 c-0.3,0.3-0.7,0.8-1,0.8c-0.3,0-0.8-0.5-0.9-0.9c-0.9-2.6-1.7-5.2-2.6-7.9c-1.7-5.2-3.5-10.3-5.1-15.5c-0.6-2-2-3.3-3.6-4.4 c-0.6-0.4-0.8-0.6-0.2-1.1c1.3-1,1.5-2.2,1-3.8c-1.5-4.6-2.7-9.3-4-14c-0.5-1.6-1.9-2.1-3.5-1.2c-0.7-1.1-0.5-2.2,0-3.3 c0.4-0.9,1.1-1.3,2.2-1.3c0.9,0,1.7,0,2.4,0.6c0.1,0.1,0.5,0.1,0.7,0c1.4-0.7,2.8-0.8,4.3,0c0.3,0.2,0.9,0.1,1.3-0.1 c2-1,5.8-0.1,5.7,3.5c0,1-0.3,1.1-1.2,0.8c-0.4-0.2-0.8-0.4-1.2-0.4c-1.2,0.2-1.3,0.4-1,1.7c2.2,8.2,4.3,16.3,6.5,24.5 c0.3,1.1,0.6,2.2,1,3.3c0.5-2.3,1.1-4.6,1.6-6.8c0.8-3.5,1.6-7,2.4-10.5c0.5-2.1,1.2-4.3,1.7-6.4c0.3-1.1,0.7-2.2,0.7-3.3 c0-0.7-0.4-1.6-1-2c-0.4-0.4-1.2-0.9-2-0.2c-0.7,0.5-1.1,0.2-1-0.8c0-0.8-0.3-1.7,0.4-2.4c0.4-0.3,0.8-0.8,1.2-0.9 c0.8-0.1,1.6,0.2,2.4,0.2c0.4,0,0.9-0.1,1.3-0.2c0.9-0.2,1.7-0.3,2.5,0.2c0.1,0.1,0.4,0.1,0.5,0.1c0.6-0.1,1.2-0.2,1.8-0.2 c1.2,0,2.2,0.8,2.4,2.1C333.4,174.3,333.4,175,333.5,176z M308.1,194.6c0.6,0.9,1.4,1.7,1.7,2.6c1.3,3.9,2.5,7.9,3.8,11.8 c0.3,0.9,0.7,1.7,1.1,2.5c0.1-0.1,0.2-0.1,0.4-0.2c-2.9-9.9-5.9-19.8-8.8-29.8c-0.2,0.7-0.3,1.3-0.1,1.9c0.7,2.7,1.5,5.3,2.2,8 C308.6,192.7,308.7,193.9,308.1,194.6z"></path> <path style="fill:#FFFFFF;" d="M249.6,211.7c0.6,0.7,1.2,1,2,0.6c0.8-0.4,1.2-1.2,1.2-2c-0.1-4.9-0.2-9.8-0.3-14.7 c0-1.1-0.6-1.9-1.4-2.6c-0.4-0.4-0.8-0.7-1.2-1.1c0.3-0.2,0.5-0.4,0.7-0.5c1.3-0.8,1.8-2,1.8-3.4c0-4.1-0.1-8.2-0.2-12.2 c0-0.4-0.2-0.8-0.4-1.2c-0.7-1.4-1.7-1.6-2.9-0.8c-0.7-1-0.6-2.5,0.2-3.4c1-1,2.6-1.4,3.8-0.6c0.6,0.4,1,0.4,1.7,0 c1.2-0.6,2.2-0.4,3.7,0.6c1.8-1.2,3.6-0.9,4.9,0.3c1,1,1.2,2.3,0.5,3.7c-0.6-0.6-1.3-1-2.2-0.5c-0.9,0.5-1.4,1.3-1.3,2.4 c0.1,3.9,0.2,7.8,0.2,11.7c0,1.8,0.7,3.1,2.1,4.1c0.2,0.2,0.4,0.3,0.6,0.5c0,0.1,0,0.1,0,0.2c-2.2,1.2-2.5,3.2-2.4,5.5 c0.2,3.5,0.3,7,0.2,10.5c0,1.6,1.5,3.9,2.6,4.2c1.5,0.5,3.7-0.2,4.8-1.6c1.3-1.6,1.7-3.5,2-5.5c0.3-2.1,0.5-4.2-0.2-6.4 c-0.2-0.6,0.7-1.2,1.4-1c0.7,0.2,1.4,0.7,1.8,1.3c1.1,1.5,1,3.3,0.9,5c0,0.4,0,0.9,0.2,1.2c0.9,1.8,0.9,3.7,0.4,5.6 c-0.1,0.6-0.1,1.2,0,1.8c0.5,1.6,0.4,3.1-0.4,4.5c-0.4,0.8-1,1.3-1.9,1.4c-1.1,0.1-1.6-0.4-1.6-1.5c0-0.1,0-0.2,0-0.3 c0-1.5-0.5-1.8-1.8-1c-3.1,1.8-6.1,1.7-9.3,0.2c-0.2-0.1-0.6-0.1-0.8,0c-1.3,0.7-2.5,0.5-3.8-0.2c-0.3-0.2-0.8-0.2-1.1,0 c-1.3,0.5-2.8,0.2-3.9-0.9C249,214.4,248.8,213.1,249.6,211.7z M255,206.6c0.1,0,0.2,0,0.3,0c0.7-1.7,0.3-25-0.5-26.7 c0,3.1,0,6.1,0,9.1c0,1.1-0.1,2.2-0.9,2.9c0.3,0.7,0.7,1.3,0.8,1.9c0.2,1.2,0.2,2.5,0.2,3.7C255,200.6,255,203.6,255,206.6z"></path> <path style="fill:#FFFFFF;" d="M105.8,235.2c0.2,0.5,0.6,0.9,0.6,1.4c0.2,1.7-0.2,3.3-1.3,4.6c-0.1,0.2-0.3,0.5-0.2,0.7 c0.4,1,0,1.9-0.4,2.7c-0.6,1.4-0.6,1.4,0.8,2.1c2.2,1.2,4,2.7,5.3,4.8c0.4,0.6,0.5,1.2,0,1.8c-1-1.2-2-2.3-3-3.5 c0.8,2.5,1.6,4.9,2.2,7.3c0.5,2.1,0.7,4.3,1.1,6.4c0.1,0.4,0.1,0.8,0.3,1.1c0.1,0.3,0.4,0.5,0.7,0.8c0.3-0.3,0.7-0.6,0.8-0.9 c0.1-1.1,0.1-2.2,0-3.3c-0.3-2.2-0.5-4.4-1.5-6.5c-0.1-0.2,0.2-0.7,0.3-1.1c0.2,0.2,0.5,0.4,0.6,0.6c1.1,2.8,1.7,5.7,2.1,8.7 c0.3,1.9,0.6,3.8,0.9,5.7c0.3,1.4,0.2,1.6-1.2,1.6c-2.5,0.1-5-0.1-7.4-0.9c-2.4-0.7-2.9-1.8-2.2-4.2c0.6-2.4,1-4.8,0.6-7.2 c-0.2-1.3-0.6-2.5-1.5-3.4c-0.7,0.9-1.3,1.9-2.1,2.7c-2.2,2.3-5.7,1.8-7.1-1.1c-0.6-1.2-0.9-2.4-1.2-3.7c-0.2-0.7-0.5-1-1.2-1.1 c-0.4-0.1-0.8-0.2-1.3-0.2c-2,0.1-2.4-1.1-2.7-2.8c-0.1-0.4-0.2-0.8-0.1-1.3c0.2-2-1.2-3-2.8-3.6c-1.8-0.7-3.7-1.1-5.6-1.6 c-1.6-0.4-3.2-0.6-4.7-1.2c-2.3-0.8-4.8-0.6-7.2-1c-1.3-0.2-2.6-0.2-3.9-0.5c-0.4-0.1-0.7-0.5-1-0.8c0.1-0.1,0.1-0.2,0.2-0.4 c3.6,0.2,7.2,0.5,10.8,0.7c0-0.1,0-0.2,0-0.3c-4.7-0.4-9.4-0.9-14.1-1.3c0-0.6,0-1.2,0-1.9c1.3,0.1,2.6,0.2,3.9,0.3 c6.3,0.6,12.5,1.2,18.8,1.8c1.2,0.1,2.4,0,3.6-0.4c0.4-0.1,0.8-0.1,1.3,0c0.8,0.1,1.6,0.1,2.5-0.3c0.7-0.3,1.6-0.3,2.4-0.3 c2.6,0.3,5.2,0.7,7.8,1c0.3,0,0.6-0.1,0.8-0.3c0.8-0.8,1.4-0.8,2.3-0.1c1.1,0.9,1.3,0.8,2-0.5c0.2-0.5,0.5-0.9,0.7-1.4 C105.6,235.3,105.7,235.3,105.8,235.2z M89.9,240.1c1.2,0.5,2.7,0,4,1.2c-0.8,0.1-1.3,0.1-1.9,0.1c0.9,0.3,2-0.1,2.1,1.3 c-1.5-0.2-2.9-0.4-4.3-0.6c0,0.1,0,0.2,0,0.3c0.2,0.1,0.4,0.1,0.6,0.2c1,0.2,1.9,0.3,2.9,0.6c0.3,0.1,0.5,0.5,0.8,0.7 c-0.1,0.1-0.1,0.2-0.2,0.2c-1.4-0.2-2.8-0.3-4.1-0.5c-0.1,0.1-0.1,0.1-0.2,0.2c0.2,0.2,0.3,0.5,0.6,0.6c2.5,0.4,4.9,0.8,7.4,1.1 c1.7,0.2,2.3-0.4,2.6-2.1c0.4-2.1-0.7-4-2.6-4.3c-1.8-0.3-3.6-0.4-5.5-0.7c-0.6-0.1-1.2-0.1-1.8-0.2C90,239,90,239.5,89.9,240.1z M98.1,257.7c0.1-1,0.2-1.8,0.3-2.5c0.3-1.9-0.2-2.6-2.1-2.9c-0.3,0-0.6-0.1-1-0.2c-0.8-0.1-1.3,0.3-1.2,1c0.2,1,0.4,2.1,0.8,3 c0.7,1.5,2.1,2.1,3.5,1.8c1.6-0.4,3-2.7,2.7-4.3c0-0.2-0.2-0.3-0.4-0.7C100.5,254.8,100.4,256.7,98.1,257.7z M103.8,240.8 c1.4-0.5,2.2-2.2,1.9-3.9c-0.1,0.1-0.1,0.2-0.2,0.2c-1.1,2.1-1.3,2.1-3.3,0.9c-0.3-0.2-0.7-0.1-1.1-0.2c-0.1,0.1-0.1,0.2-0.2,0.3 c2,1.2,2.9,3.1,3.3,5.4c0.1,0,0.2-0.1,0.3-0.1C104.2,242.5,104,241.6,103.8,240.8z M100,252.5c-0.1,0-0.3,0-0.4-0.1 c-0.9,0.7,0.1,1.7-0.3,2.5c0.1,0,0.2,0,0.3,0.1C99.7,254.2,99.8,253.4,100,252.5z"></path> <path style="fill:#FFFFFF;" d="M289.1,254.7c-1.2,1.2-1.7,2.8-1.7,4.3c0.1,2.1,0.5,4.2,0.7,6.3c0,0.3,0.1,0.5,0.2,0.8 c0.3,1.8,0,2.4-1.7,3.1c-1.3,0.5-2.7,0.9-4,1.1c-1.6,0.2-3.1,0.1-4.7,0.1c-0.8,0-1-0.4-0.9-1.1c0.5-3.2,0.9-6.5,1.6-9.7 c0.7-3.2,1.7-6.5,3.8-9.2c1.3-1.7,3-2.9,4.8-3.8c0.7-0.4,0.9-0.8,0.6-1.5c-0.5-1.1-1.1-2.2-0.6-3.4c0-0.1-0.2-0.4-0.3-0.5 c-1-1.2-1.3-2.6-1.3-4.1c0-0.7,0.1-1.4,1.1-1.7c0.3,0.5,0.5,1.1,0.8,1.6c0.6,1.1,0.8,1.1,1.8,0.4c1.1-0.9,1.9-0.8,2.6,0.1 c3.3-0.3,6.4-0.6,9.5-0.7c0.6,0,1.3,0.3,1.9,0.5c0.3,0.1,0.5,0.2,0.8,0.2c2.2-0.3,4.3-0.3,6.5,0c1,0.2,2.1,0.1,3-0.3 c4-1.6,8.3-1.2,12.4-1.8c0.2,0,0.5-0.1,0.8-0.1c0-0.8,0.4-1,1.2-1c0.3,0,0.6-0.2,0.9-0.3c1-0.8,2-0.6,2.8,0.4c0.3,0.4,1,0.5,1.6,0.8 c0.1,0.9,0.2,1.9,0.3,2.9c-0.8,0.1-1.4,0.2-2.1,0.3c0,0.5,0,0.9,0,1.5c-1.5,0.1-2.9,0.3-4.3,0.4c-3.9,0.3-7.9,0.2-11.7,1.1 c-3.3,0.8-6.8,1.1-9.6,3.3c-0.7,0.6-1.1,1.3-1.1,2.3c0,0.7-0.1,1.5-0.2,2.2c-0.3,1.6-0.9,2-2.5,2.2c-0.6,0.1-1.1,0.1-1.7,0.2 c-0.4,0.1-0.7,0.2-0.8,0.8c-0.3,1.3-0.6,2.5-1.2,3.7c-1.6,3.4-5.4,3.8-7.7,0.8C290.1,256.2,289.7,255.5,289.1,254.7z M293.2,238.6 c-1.7,0.3-2.9,1.2-3.6,2.6c-1.2,2.4-1.1,4.9-0.1,7.3c1.2,2.8,2.5,3.5,5.4,3c2.4-0.4,4.8-0.8,7.3-1.2c0.5-0.1,1.1-0.5,1.3-1 c0.3-0.8,0.3-1.7,0.4-2.6c-2.7,0.4-5.1,0.8-7.6,1.2c-2.3,0.3-3.5-0.3-4.3-2.3C291.2,243.2,291.2,240.8,293.2,238.6z M302.3,240.3 c0-0.4,0-0.7,0-0.9c0-0.6,0-1.2-0.9-1.1c-2.2,0.3-4.5,0.7-6.7,1c-0.8,0.1-1.4,0.5-1.8,1.2c-0.6,1.1-0.7,2.3-0.4,3.5 c0.2,1.1,0.9,1.7,2,1.6c2.6-0.3,5.3-0.6,7.9-1c0.2,0,0.2-0.5,0.4-0.9c-2.2,0.2-4,0.5-6,0.7c0.7-1.4,1.8-1.1,2.7-1.3 c1-0.2,2-0.3,3-0.4c0-0.1,0-0.2,0-0.3c-0.2,0-0.4-0.1-0.5-0.1c-1,0.1-2,0.2-2.9,0.4c-1.2,0.3-2.2,0.1-3.3-0.4 c-0.1-0.1-0.1-0.4-0.2-0.5c0.7-0.2,1.2-0.3,1.8-0.4c0.4-0.1,0.7-0.5,1-0.5C299.7,240.6,301,240.5,302.3,240.3z M285,249.9 c-4.8,4.1-5.5,9.3-5.5,14.6c0,0.4,0.5,0.8,0.8,1.3c0.1,0,0.3-0.1,0.4-0.1C282.4,260.4,282.1,254.7,285,249.9z M291.3,253.1 c-0.1,0-0.2,0.1-0.3,0.1c-0.1,1.5,0.3,2.9,1.4,4c1,0.9,2,1.2,3.2,0.5c1.4-0.8,2.1-2.2,2.3-3.7c0.3-1.8,0.1-2-1.8-1.7 c-0.1,0-0.3,0-0.4,0c-1.6,0.1-1.9,0.4-2,2c0,0.4,0.1,0.9,0.1,1.4c0.1,0.6,0.2,1.2,0.3,1.9c-1.3-0.1-1.8-0.9-2.1-1.8 C291.7,254.9,291.6,254,291.3,253.1z M286.5,236.6c-0.2,2.1,0.6,3.7,2,4.1c-0.2,0.5-0.4,0.9-0.5,1.4c-0.1,0.4-0.1,0.8-0.1,1.2 c0.1,0,0.2,0,0.2,0c0.3-2.2,1.3-4,3.2-5.3c-0.7-0.5-0.9-0.4-1.7,0.2c-1,0.9-1.6,0.8-2.4-0.3C287,237.6,286.8,237.2,286.5,236.6z M329.3,234.8c0.1,0.1,0.1,0.2,0.2,0.3c0.6-0.1,1.1-0.1,1.7-0.2c0-0.1,0-0.3,0-0.4c-0.4-0.1-0.9-0.2-1.3-0.2 C329.7,234.3,329.5,234.6,329.3,234.8z M292.7,252.5c-0.1,0-0.2,0-0.3,0.1c0.1,0.6,0.2,1.3,0.3,1.9 C292.8,253.8,293.5,253.1,292.7,252.5z"></path> <path style="fill:#FFFFFF;" d="M294,194.2c-0.5,0.4-0.9,0.7-1.4,1c-1,0.7-1.4,1.7-1.4,2.9c0.1,5,0.1,10,0.3,15 c0,0.8,0.6,1.7,1.2,2.3c0.7,0.7,1.6,0.7,2.5-0.1c0.6,0.9,0.7,1.8,0.3,2.8c-0.5,1.1-1.4,1.8-2.5,1.8c-0.9,0-1.8-0.4-2.7-0.7 c-0.3-0.1-0.7-0.2-1-0.1c-1.3,0.6-2.6,0.5-3.8-0.2c-0.5-0.3-0.9-0.4-1.5-0.1c-1.3,0.7-3.1,0.1-4.2-1.1c-1-1.1-1.2-2.5-0.4-3.7 c0.6,0.7,1.4,1.1,2.3,0.6c0.9-0.5,1.2-1.3,1.2-2.3c-0.1-4.8-0.2-9.6-0.3-14.4c0-1.5-0.7-2.7-1.8-3.6c-0.3-0.3-0.7-0.5-1.1-0.9 c0.4-0.3,0.6-0.5,0.9-0.7c1.4-0.9,1.9-2.2,1.9-3.8c0-3-0.1-6.1-0.2-9.1c0-1.1,0-2.2-0.1-3.4c-0.1-1.1-0.5-2-1.6-2.4 c-0.6-0.2-1.3,0.1-2.1,0.1c-1.1-1.3,0-3.9,2.1-4.3c1-0.2,1.9,0,2.8,0.5c0.2,0.1,0.6,0.2,0.8,0.1c1.9-0.8,2.7-0.8,4.5,0.4 c1.7-1.1,3.6-1,5,0.3c1.1,1.1,1.3,2.4,0.5,3.8c-0.8-0.7-1.6-1-2.5-0.4c-0.8,0.6-1.1,1.5-1,2.5c0.1,4.2,0.2,8.4,0.2,12.5 c0,1.6,0.9,2.7,2,3.6C293.3,193.7,293.6,193.9,294,194.2z M285.3,209c0.2,0,0.4,0,0.6,0c0.3-9.3,0-18.6-0.6-27.8 c-0.2,0.3-0.2,0.7-0.2,1c0,2.6,0,5.3,0,7.9c0,1.3,0,2.6-0.9,3.5c0.4,0.7,0.8,1.3,0.9,1.9c0.2,1.2,0.2,2.5,0.2,3.7 C285.3,202.5,285.3,205.7,285.3,209z"></path> <path style="fill:#FFFFFF;" d="M181.5,285.8c1.6-0.2,3.1-0.4,4.6-0.5c1.1-0.1,2.3,0,3.4,0c0.9,0,1.8-0.1,2.7-0.1 c2.8,0.2,5.6,0.7,8,2.3c0.5,0.4,1,0.8,1.4,1.3c0.5,0.6,0.2,1.1-0.6,1c-0.6,0-1.2-0.2-1.8-0.4c-3.1-0.8-6.2-1.6-9.5-1.4 c-3.1,0.2-6.1,0.7-9.1,1.1c-0.3,0-0.5,0.4-0.7,0.6c-1.1,1-2.2,2-3.5,2.9c-1,0.7-2.2,0.9-3.5,0.8c-1.4-0.1-2.1-1.1-1.7-2.4 c0.4-1.4,1.4-2.4,2.7-3.1c1-0.5,2.2-0.9,3.2-1.4c0.3-0.1,0.7-0.4,0.8-0.7c3.8-8.4,7.2-17,9.6-26c0.7-2.6,1.2-5.3,1.8-8 c0.3-1.3,0.8-2.3,2-2.9c1.4-0.8,2.8-0.2,2.7,1.5c-0.1,2-0.4,4-0.9,5.9c-1.8,6.9-4.6,13.5-7.5,20.1 C184.3,279.5,182.9,282.6,181.5,285.8z M172.6,291.4c1.1,0.5,3.4-1.1,4-3C175,289.1,173.4,289.6,172.6,291.4z"></path> <path style="fill:#FFFFFF;" d="M215.8,243.2c0.1,3.3-0.4,6.4-2,9.3c-1.1,2.1-2.6,3.9-5,4.5c-3.3,0.8-6.1-0.1-8.2-3.3 c-1.6-2.4-2.2-5.1-2.4-7.9c-0.2-2.5-0.3-5,0.2-7.4c0.4-2.1,1.1-4.2,2.4-6c3.2-4.5,8.8-4.5,12.1-0.1c2,2.7,2.7,5.9,2.9,9.3 C215.8,242.1,215.8,242.6,215.8,243.2z M212,243.2c0-2.4-0.2-4.8-1.2-7.1c-1.4-3.2-4.9-4.2-7.2-1.2c-0.5,0.6-0.8,1.4-1.1,2.2 c-1,3.3-1.1,6.6-0.5,10c0.3,1.5,0.8,2.9,1.5,4.2c0.4,1,1.3,1.6,2.4,1.8c2.1,0.4,3.8-0.6,4.8-2.8C211.8,248,212,245.6,212,243.2z"></path> <path style="fill:#FFFFFF;" d="M266.4,246.9c0-3.4,0-6.8,0-10.3c0-0.5-0.2-0.8-0.7-0.8c-0.6-0.1-1.1-0.3-1.8-0.5c0-0.7,0-1.5,0-2.3 c2.6,0.3,5.2,0.6,7.9,0.9c0,0.7,0,1.4,0,2.1c-2.4,0.4-2.4,0.4-2.4,2.9c0,4.2,0,8.5,0,12.7c0,0.3,0,0.6,0,1c-1,0.1-1.9,0.4-2.9,0.4 c-0.3,0-0.7-0.5-0.9-0.8c-2.2-3.4-4.4-6.9-6.6-10.3c-0.6-0.9-1.1-1.9-1.8-3.1c0,4.2,0,8.2,0,12.3c0.7,0.1,1.5,0.2,2.4,0.3 c0,0.7,0,1.5,0,2.4c-2.6,0.2-5.2,0.5-7.9,0.8c0-0.8-0.1-1.5,0-2.2c0.1-0.3,0.5-0.6,0.9-0.7c1-0.2,1.3-0.6,1.3-1.7 c-0.1-4.7,0-9.4,0-14c0-0.6,0-1.1-0.8-1.2c-1.2-0.1-1.6-0.8-1.4-1.9c0.1-0.3,0-0.6,0-1.1c1.7,0.1,3.2,0.3,4.8,0.4 c0.9,0,1.4,0.4,1.9,1.2c2.5,4.3,5,8.6,7.6,12.8c0.2,0.3,0.4,0.5,0.5,0.8C266.3,247,266.4,247,266.4,246.9z"></path> <path style="fill:#FFFFFF;" d="M243,243.1c0,3.3-0.5,6.3-2.3,9c-1.6,2.4-3.8,3.9-6.7,4.1c-3,0.2-5.7-1.6-7.2-4.9 c-1.4-3.2-1.9-6.6-1.5-10.2c0.2-2.2,0.7-4.3,1.6-6.3c3.1-6.5,10.3-5.8,13.6-1C242.4,236.7,243,239.9,243,243.1z M239.1,243.1 c0.2-2.3-0.1-4.6-1.3-6.7c-0.9-1.6-2.3-2.6-4.2-2.5c-1.8,0.1-3.1,1.3-3.6,3c-0.5,1.8-0.9,3.6-1,5.4c-0.2,2.7,0,5.3,1.3,7.8 c0.6,1.1,1.4,1.9,2.6,2.2c2.2,0.5,4.2-0.6,5.3-2.9C239,247.4,239.3,245.3,239.1,243.1z"></path> <path style="fill:#FFFFFF;" d="M165.1,253.1c0,1.1,0,2,0,3c-2.2-0.1-4.3-0.2-6.4-0.3c0-1,0-1.9,0-2.9c0.4-0.1,0.7-0.2,1.3-0.3 c-0.3-1.1-0.5-2.2-0.9-3.3c0-0.1-0.3-0.3-0.5-0.3c-2-0.1-4.1-0.2-6.1-0.2c-0.3,0-0.7,0.3-0.8,0.6c-0.3,0.9-0.5,1.7-0.8,2.7 c0.5,0.2,0.9,0.3,1.3,0.5c0,0.9,0,1.8,0,2.8c-2.2-0.2-4.3-0.3-6.5-0.5c0-0.9,0-1.7,0-2.7c1.3,0.3,1.5-0.7,1.8-1.7 c1.9-6.2,3.8-12.4,5.7-18.6c0.2-0.6,0.4-1,1.2-1c0.9,0,1.9-0.1,2.9-0.2c1.2,4.2,2.4,8.3,3.6,12.4c0.8,2.8,1.6,5.7,2.4,8.5 C163.5,252.5,163.9,253.2,165.1,253.1z M158,245.2c-0.9-3.1-1.7-6.1-2.5-9.1c-0.1,0-0.1,0-0.2,0c-0.8,3-1.7,5.9-2.5,9.1 C154.5,245.2,156.2,245.2,158,245.2z"></path> <path style="fill:#FFFFFF;" d="M194.3,192.9c1.4-0.9,1.3-2.2,1.3-3.4c0-1.7,0-3.4,0-5.1c0-1.4-0.4-1.8-1.8-1.8 c-0.2-1.6,0.7-2.3,2.2-1.8c0.2,0.1,0.4,0.1,0.6,0.1c0.6,0,1.2,0,1.8,0c0.2,0,0.4,0.1,0.6,0c3.9-1.3,6.7,0.4,7.5,4.4 c0.2,0.9,0.6,1.8,0.9,2.7c0,0.1,0,0.3,0,0.4c-0.3,1-0.6,2.1-1,3.1c-0.5,1.1-1.1,2-1.8,3.2c1.7,1.4,1.9,3.6,1.8,5.9 c0,0.9,0,1.8,0.2,2.6c0.2,0.9,0.7,1.5,1.8,1.1c0.2,0.8,0,1.3-0.5,1.8c-0.4,0.4-0.9,0.2-1.4,0.1c-0.6-0.2-1.4,0.1-2.1,0.1 c-0.4,0-1-0.3-1-0.5c-0.3-1.1-0.6-2.3-0.7-3.5c-0.2-1.5-0.1-3-0.3-4.5c-0.3-1.8-1.2-2.4-3.1-2.3c0,1.2,0,2.5,0,3.7c0,1.3,0,2.6,0,4 c0,1.1,0.5,1.4,1.9,1.2c-0.3,0.7-0.5,1.5-0.9,1.7c-0.4,0.3-1.2,0-1.8-0.2c-0.8,0.6-1.6,0.6-2.1,0.1c-0.8,0.1-1.4,0.3-1.9,0.1 c-0.7-0.3-1-0.9-0.7-1.7c1.4,0,1.8-0.4,1.8-1.9c0-2,0-4,0-6C195.6,195.1,195.7,193.8,194.3,192.9z M199.3,188.2 C199.3,188.2,199.3,188.2,199.3,188.2c0.1,1.2,0,2.4,0.1,3.6c0,0.4,0.2,0.9,0.5,1.1c1.2,0.8,2.7,0,2.8-1.4c0.1-1.9,0.1-3.7,0.1-5.6 c0-0.6,0-1.4-0.3-1.9c-0.3-0.5-1-1-1.5-1.1c-0.6-0.1-1.4,0.2-1.4,1.1C199.4,185.3,199.3,186.8,199.3,188.2z M196.6,201 c0.1,0,0.2,0,0.4,0c0.3-5,0.2-10,0-15c-0.2,0.1-0.3,0.2-0.3,0.2c0,0.1,0,0.3-0.1,0.4c-0.2,2.1,0.4,4.3-0.5,6.3 c0,0.1,0.1,0.2,0.1,0.3c0.1,0.6,0.4,1.2,0.4,1.9C196.6,197,196.6,199,196.6,201z M203.8,192c1.2-2.5,1.2-6.6,0-7.7 C203.8,186.9,203.8,189.4,203.8,192z"></path> <path style="fill:#FFFFFF;" d="M178.4,192.7c0.2-0.9,0.6-1.9,0.7-2.9c0.3-2.5,0.8-4.9,2.3-7.1c2.3-3.3,6.1-3.3,8.4,0 c1.4,2,1.8,4.3,2.1,6.7c0.1,1.1,0.5,2.3,0.8,3.7c-1,1.2-0.6,3.1-1,4.8c-0.3,1.3-0.6,2.6-0.9,3.9c-0.4,1.8-1.8,2.8-3.1,3.8 c-0.9,0.8-2,0.2-2.9,0.2c-2.4,0-3.3-1.9-4-3.5c-0.8-2-1.1-4.2-1.5-6.3C178.9,195.1,178.7,194,178.4,192.7z M184.3,192.7 c-0.3,0.9-0.8,1.6-0.8,2.4c-0.1,2.2-0.1,4.3,0,6.5c0.1,1.5,0.9,2.4,2,2.5c1.1,0,1.9-0.9,2-2.5c0.1-2.1,0-4.2,0.1-6.3 c0-0.3,0.1-0.6,0.2-0.9c-0.4-0.5-0.8-1-1.2-1.5c0.9-0.8,1-1.9,1-3c0-1.6-0.1-3.2-0.1-4.7c0-1.1-0.8-2.3-1.9-2.4 c-0.5,0-1.2,0.2-1.4,0.5c-0.4,0.6-0.6,1.4-0.7,2.1c-0.1,1.5-0.1,3-0.1,4.4C183.4,190.9,183.5,192,184.3,192.7z M181.7,185.8 c-0.2,0-0.4,0-0.6-0.1c-0.5,2.4-1.3,4.7-1.3,7.1c0,2.8,0.8,5.5,1.3,8.3c0.1,0,0.2,0,0.3,0c-0.1-2.6-0.3-5.1-0.3-7.7 C181.2,190.9,181.5,188.4,181.7,185.8z M188.9,185.7c0,2.2,0,4.2,0,6.2c0,0.4-0.3,0.8-0.3,1.2c0.1,1.1,0.3,2.1,0.4,3.2 c0.1,1.5,0,3,0,4.8c0.1-0.6,0.3-1,0.3-1.4c0.1-2.1,0.2-4.3,0.2-6.4c0-2.2,0-4.3,0-6.5C189.4,186.4,189.1,186.2,188.9,185.7z"></path> <path style="fill:#FFFFFF;" d="M133.7,239.2c-0.1-0.6-0.3-1.1-0.3-1.6c0-1-0.6-1.6-1.5-1.7c-1.7-0.2-3.4-0.4-4.8,1 c-1.7,1.6-1.3,3.5,0.9,4.5c1.4,0.6,2.9,0.9,4.3,1.4c2.6,1,4.6,3,4.4,6.1c-0.1,2.4-1.6,4.1-3.9,4.5c-3.6,0.5-6.9-0.4-9.9-2.5 c-0.2-0.1-0.5-0.4-0.5-0.7c0-1.3,0-2.6,0-3.9c1,0,1.9,0,2.9,0c0.1,0.7,0.2,1.4,0.4,2.1c0.1,0.4,0.4,0.9,0.7,1.1c1.4,0.9,3,1.2,4.7,1 c1-0.1,1.8-0.6,2-1.6c0.3-1,0.2-2.1-0.8-2.7c-1-0.7-2.2-1.1-3.3-1.6c-1.6-0.7-3.2-1.3-4.7-2.2c-2.3-1.3-2.2-4.8-0.7-6.6 c2.7-3.2,8.8-4.1,12.2-1.8c0.3,0.2,0.6,0.8,0.6,1.2c0.1,1.1,0.1,2.2,0,3.4c0,0.2-0.3,0.6-0.5,0.7 C135.3,239.3,134.5,239.2,133.7,239.2z"></path> <path style="fill:#FFFFFF;" d="M187.6,256.9c-4.5-0.1-8.9-0.2-13.4-0.4c0-0.9,0-1.8,0-2.7c0-0.2,0.4-0.5,0.7-0.5 c1.2,0,1.4-0.7,1.4-1.8c-0.1-5.6-0.1-11.3,0-16.9c0-1-0.3-1.5-1.2-1.5c-0.7,0-1-0.3-0.9-1.1c0.1-0.7,0-1.4,0-2.3c2.7,0,5.4,0,8.3,0 c0,0.8,0.1,1.6,0,2.5c0,0.3-0.5,0.6-0.8,0.7c-1.9,0.5-1.9,0.5-2,2.5c0,5.6-0.1,11.3-0.1,16.9c0,0.4,0,0.8,0,1.3c2.2,0,4.3,0,6.5,0 c0.1-1.2,0.2-2.5,0.2-3.9c0.7,0,1.4,0,2.1,0C188.9,252.1,188.1,254.4,187.6,256.9z"></path> <path style="fill:#FFFFFF;" d="M219.1,275.3c0,0.7-0.1,1.3,0,1.9c0.1,1.2,0.9,1.9,2.1,1.5c1.5-0.5,2.8-1.2,4.3-1.9 c0.9,1.2,0.8,1.7-0.5,2.7c-2.3,1.7-4.8,2.6-7.6,1.9c-1.8-0.5-3-2-3-3.9c0.1-4.8,2.4-8.4,6.6-10.7c1.4-0.8,2.8-1.2,4.5-1.2 c3.1,0,4.4,2.4,3,5.1c-0.7,1.3-1.8,2.2-3,2.9C223.5,274.6,221.4,275.1,219.1,275.3z M220.1,272.9c0.6-0.1,0.9-0.2,1.2-0.3 c1.5-0.7,3-1.4,3.5-3.1c0.1-0.4-0.1-1-0.1-1.4c-0.5,0.1-1.1,0-1.5,0.2C221.5,269.3,221,271.1,220.1,272.9z"></path> <path style="fill:#FFFFFF;" d="M206.1,276.6c1.8-1.9,3.3-3.9,4.2-6.3c0.4-1,0.4-2.1,0.6-3.1c0.2-1.1,0.5-1.4,1.7-1.5 c0.1,0,0.1,0,0.2,0c1.6-0.5,2.2,0,2.2,1.6c0.1,2.4-1.2,4.2-2.5,5.8c-2.3,2.8-4.9,5.4-7.3,8.1c-0.2,0.2-0.4,0.4-0.6,0.4 c-0.8,0-1.6,0-2.4,0c0-2.2,0-4.4,0-6.5c0.1-2.7,0.2-5.3,0.3-8c0-1,0.8-1.5,1.8-1.4c0.2,0,0.4,0.1,0.6,0.1c1.4-0.2,1.9,0.2,1.8,1.6 c-0.1,2.6-0.3,5.2-0.5,7.9C206.1,275.8,206.1,276.2,206.1,276.6z"></path> <path style="fill:#FFFFFF;" d="M178.6,273.2c-0.3,3.2-1.5,5.9-4.3,7.6c-2.8,1.7-6.3,1.8-9.1,0.2 C167.1,274.8,170.7,272.4,178.6,273.2z"></path> <path style="fill:#FFFFFF;" d="M165.1,264c3.1-1.5,6.1-1.6,9.1,0.2c2.8,1.7,4.1,4.3,4.4,7.6C172.3,272.3,167.7,271.5,165.1,264z"></path> <path style="fill:#FFFFFF;" d="M194.9,278.8c0.4-0.2,0.6-0.3,0.8-0.4c0.2-0.1,0.4-0.3,0.7-0.4c0.8,1.3,0.7,1.5-0.4,2.4 c-1.3,0.9-2.7,1.4-4.2,1.2c-1.4-0.2-2-1-1.5-2.3c1.4-4,2.8-7.9,4.3-11.9c0.3-0.9,1.1-1.4,1.9-1.7c0.9-0.3,1.6,0,2,0.7 c0.3,0.4,0.4,1.2,0.2,1.6c-1.1,3.4-2.3,6.7-3.5,10.1C195.1,278.3,195,278.5,194.9,278.8z"></path> <path style="fill:#FFFFFF;" d="M200.6,260.9c-0.1,1.7-1.2,3-2.6,2.9c-0.9-0.1-1.5-0.7-1.4-1.6c0.1-1.7,1.2-2.9,2.6-2.8 C200.2,259.4,200.7,260,200.6,260.9z"></path> <path style="fill:#FFFFFF;" d="M284.8,270.4c0.1,1.2-0.5,2.1-1.5,2.3c-1,0.1-1.8-0.6-2-1.7C282.5,270.8,283.6,270.6,284.8,270.4z"></path> <path style="fill:#FFFFFF;" d="M107.5,270.5c1.1,0.2,2.2,0.4,3.3,0.6c0,1-0.8,1.8-1.8,1.7C107.9,272.6,107.3,271.7,107.5,270.5z"></path> </svg> 