<?xml version="1.0" encoding="UTF-8"?> <svg xmlns="http://www.w3.org/2000/svg" xmlns:xlink="http://www.w3.org/1999/xlink" version="1.1" id="Layer_1" x="0px" y="0px" viewBox="0 0 1000 1000" style="enable-background:new 0 0 1000 1000;" xml:space="preserve"> <g> <path style="fill:#FDC440;" d="M539.6,502.6c3.4,25,10,48.4,19.6,71.6c-19.2-4.5-38.2-4.5-57.5,0c9.7-23.1,16.2-46.7,19.7-71.5 c-3.4,2.7-6.3,5.3-9.4,7.6c-39.4,28.4-95.2,5.7-102.7-42.1c-5.5-35.2,5.1-65.4,31.9-89.3c15.2-13.6,30.9-26.7,46.2-40.2 c13.5-12,26.4-24.6,36.6-39.7c2.3-3.4,4.3-6.9,6-9.8c4.7,6.8,9.1,14.2,14.4,20.8c9.8,12.4,21.6,23,33.6,33.2 c14.1,12.1,28.3,24.2,42.4,36.2c18.7,16,28.8,36.6,32,60.7c2.3,17.2,0.9,34.1-8.1,49.3c-13.9,23.6-35.2,34.4-62.5,32.8 c-15.5-0.9-28.8-7.4-40.1-17.9C541.2,503.9,540.7,503.5,539.6,502.6z"></path> <path style="fill:#FDC440;" d="M301.8,576.1c-4.5,0.6-8.9,1.1-13.8,1.8c0-1.2,0-2.2,0-3.1c0-136.2,0-272.3,0-408.5 c0-28.2,21.4-49.6,49.5-49.6c128.4,0,256.8,0,385.2,0c15.5,0,28.4,5.9,38.4,17.8c8.1,9.6,11.3,20.9,11.3,33.4c0,67,0,134.1,0,201.1 c0,46,0,9.4,0,55.4c0,2.1-0.6,3.5-2.2,4.9c-3.7,3-7.3,6.2-11.6,9.8c0-1.8,0-3,0-4.1c0-116.9,0-151.3,0-268.3 c0-16.6-9.8-30.3-25.2-34.8c-3-0.9-6.3-1.4-9.4-1.4c-129.3-0.1-258.6-0.1-388,0c-18.6,0-34.3,15.8-34.3,34.5 c0,135.8,0,271.6,0,407.4C301.8,573.4,301.8,574.6,301.8,576.1z"></path> <path style="fill:#FDC440;" d="M227.4,596.1c-2.3-8.4-4.5-16.5-6.7-24.7c-12.7-47.4-25.4-94.8-38.2-142.2 c-10.7-39.8-21.3-79.5-31.9-119.3c-1.9-7-4.1-14.1-4.9-21.2c-2.8-23.7,12.3-45.7,35.5-52c26.4-7.2,52.8-14.2,79.3-21.3 c3.1-0.8,6-0.8,8.2,1.8c1.7,2,2.2,4.4,1.2,6.9s-2.9,3.7-5.5,4.4c-26.3,7-52.7,14.1-79,21.2c-19.1,5.1-30.3,23.9-25.3,43 c15.8,59.4,31.8,118.7,47.7,178.1c9.9,37,19.8,74.1,29.7,111.2c0.6,2.4,1.2,4.8,1.9,7.1c0.4,1.2,0.3,2-1.1,2.5 C235,592.9,231.4,594.5,227.4,596.1z"></path> <path style="fill:#FDC440;" d="M346,227.6c2.9,5.4,8,9,12.5,13c3.4,3,6.8,5.8,8.1,10.6c1.7,6.2,0.7,11.7-3.4,15 c-4.4,3.5-9,3.5-15.8-0.3c1.1,4.1,2,7.8,3,11.6c-3.1,0-6.1,0-9.4,0c1-3.8,2-7.5,3.1-11.7c-3.6,2.3-6.8,3.7-10.5,3 c-7.3-1.4-11.3-9-9.1-16.5c1.5-5.2,4.9-8.5,8.7-11.8c2.3-1.9,4.6-3.8,6.8-6C342.2,232.3,344,229.9,346,227.6z"></path> <path style="fill:#FDC440;" d="M235,385.6c-3.1,0.8-6,1.6-9.2,2.5c0-3.8,0-7.6,0-11.7c-2.1,1.5-3.6,3.1-5.5,3.9 c-8.3,3.6-16.3-1.8-17-11.3c-0.3-4.3,0.8-8.3,3.3-11.8c2.1-3,4.2-5.9,6.1-9.1c1.8-2.9,3.2-6.1,4.9-9.3c5.6,5.4,13.3,7.6,20.2,11.5 c5.5,3,8.3,7.9,8.6,14c0.5,7.6-7.1,13.5-14.6,11.6c-0.8-0.2-1.5-0.5-3.1-1C231.1,378.9,233,382.2,235,385.6z"></path> <path style="fill:#FDC440;" d="M348.6,156.1c4.9,13.2,9.7,26.4,14.5,39.5c0.5,1.3,1.1,2.5,1.5,3.8c1.3,3.7,3.2,6.6,7.7,6.5 c0,1.2,0,2.1,0,3.1c-7.6,0-15.1,0-22.8,0c0-0.9,0-1.9,0-2.9c0.7-0.2,1.4-0.3,2.1-0.5c1.8-0.5,2.6-1.6,2-3.5c-1-2.9-2-5.9-3.1-8.7 c-0.2-0.6-1.3-1.2-2-1.2c-3.9-0.1-7.8-0.1-11.8,0c-0.8,0-1.9,0.9-2.2,1.6c-1,2.3-1.8,4.8-2.5,7.2c-0.8,2.8-0.3,3.8,2.7,4.4 c2.1,0.4,2.9,1.2,2.1,3.5c-5.8,0-11.7,0-17.7,0c0-1,0-1.8,0-3.1c5.6,0.3,7.1-3.8,8.7-7.9c5-12.7,10.2-25.3,15.1-38 C344.1,157.3,345.6,156,348.6,156.1z M336.6,187.5c4.1,0,7.8,0,11.9,0c-1.9-5.5-3.7-10.8-5.5-16.1c-0.2,0-0.4,0-0.6,0 C340.6,176.7,338.7,181.9,336.6,187.5z"></path> <path style="fill:#FDC440;" d="M211.1,267.3c0.3,1.1,0.5,1.9,0.7,2.6c-0.1,0.2-0.2,0.4-0.3,0.5c-5,2.4-5.1,2.6-3.8,7.9 c2.8,10.8,5.8,21.6,8.4,32.5c2.4,10-1.5,19.2-9.8,24.5c-0.5,0.3-1.1,0.6-1.8,1c-0.6-0.8-1.2-1.6-2-2.6c6.3-4.6,5.3-10.9,3.8-17 c-2.9-12-6.1-24-9.4-35.9c-1.3-4.8-2.1-5.1-8.2-4.4c-0.2-0.9-0.5-1.8-0.8-2.8C195.7,271.4,203.3,269.4,211.1,267.3z"></path> <path style="fill:#FDC440;" d="M125.7,653h-37v-24.3h105.4V653h-37v101.7h-31.5L125.7,653L125.7,653z"></path> <path style="fill:#FDC440;" d="M220.8,743.6c-10.4-8.7-15.5-21-15.5-36.9v-78h31.5v75.1c0,8.7,2.2,15.3,6.7,19.6s11.1,6.5,19.7,6.5 s15.2-2.2,19.7-6.5s6.7-10.8,6.7-19.6v-75.1h31.5v78c0,15.9-5.2,28.2-15.5,36.9c-10.4,8.7-24.5,13-42.3,13 C245.3,756.7,231.2,752.3,220.8,743.6z M231.5,593.7h23.1V615h-23.1V593.7z M271.8,593.7h23.1V615h-23.1V593.7z"></path> <path style="fill:#FDC440;" d="M340.1,628.7h63c14.5,0,25.3,3.8,32.6,11.4c7.2,7.6,10.9,18.2,10.9,31.8c0,8.5-2.1,15.9-6.4,22.3 c-4.2,6.4-10.1,11.1-17.7,14.3c1.7,1.4,3.1,3,4.2,4.7s2.4,4.2,3.8,7.4l14.9,34h-32.9l-14.1-32.1c-1.2-2.9-2.7-4.9-4.5-6.1 c-1.8-1.2-4.4-1.8-7.8-1.8h-14.5v39.9h-31.5V628.7z M394.8,690.5c6.3,0,11.1-1.6,14.5-4.7c3.4-3.1,5.1-7.8,5.1-13.9 c0-12.6-6.1-19-18.2-19h-24.6v37.6L394.8,690.5L394.8,690.5z"></path> <path style="fill:#FDC440;" d="M462.5,628.7H494v48.9l43.4-48.9h36l-45,51.4l47.7,74.5h-33.6l-33.6-54.4L494,716.6v38.1h-31.5 V628.7z"></path> <path style="fill:#FDC440;" d="M103.1,775.2h37.2c13.4,0,23.5,3.4,30.2,10.3c6.7,6.8,10.1,17.9,10.1,33.2c0,14.5-3.4,25.2-10.1,32 c-6.7,6.9-16.8,10.3-30.2,10.3h-37.2C103.1,861,103.1,775.2,103.1,775.2z M137.3,844.5c5,0,9-0.7,12-2.1c3-1.4,5.3-4,6.9-7.7 c1.6-3.7,2.4-9.1,2.4-16c0-7-0.7-12.5-2.2-16.3c-1.5-3.9-3.7-6.6-6.8-8.2c-3.1-1.6-7.2-2.4-12.3-2.4h-12.8v52.8L137.3,844.5 L137.3,844.5z"></path> <path style="fill:#FDC440;" d="M191.4,775.2h63.3v16.5h-41.8v18h36.9v16.8h-36.9v18h41.8V861h-63.3V775.2z"></path> <path style="fill:#FDC440;" d="M295.1,775.2h23.2L351,861h-22.4l-7.7-19.4h-28.6l-7.6,19.4h-22.4L295.1,775.2z M318,825.7 l-11.5-29.8l-11.3,29.8H318z"></path> <path style="fill:#FDC440;" d="M361.9,775.2h21.4v69.3h40.5V861h-61.9V775.2z"></path> <path style="fill:#FDC440;" d="M430.1,775.2h63.3v16.5h-41.8v18h36.9v16.8h-36.9v18h41.8V861h-63.3V775.2z"></path> <path style="fill:#FDC440;" d="M503.7,775.2h42.9c9.9,0,17.2,2.6,22.2,7.8c4.9,5.2,7.4,12.4,7.4,21.6c0,5.8-1.4,10.8-4.3,15.2 c-2.9,4.4-6.9,7.6-12.1,9.7c1.2,1,2.1,2,2.9,3.2c0.8,1.2,1.6,2.8,2.6,5.1l10.1,23.2H553l-9.6-21.8c-0.8-2-1.8-3.3-3.1-4.1 c-1.2-0.8-3-1.2-5.3-1.2h-9.9V861h-21.4L503.7,775.2L503.7,775.2z M541,817.3c4.3,0,7.5-1.1,9.9-3.2c2.3-2.1,3.5-5.3,3.5-9.5 c0-8.6-4.1-12.9-12.4-12.9h-16.8v25.6L541,817.3L541,817.3z"></path> <g> <path style="fill:#FDC440;" d="M684.7,521.1c-4.9-6-11.5-12.4-19.7-19.3c12.9-20.7,28.7-34.6,47.4-41.9s39.7-10.9,62.8-10.9 c20.7,0,39.2,2.5,55.8,7.7c16.5,5.2,30.8,12.4,42.9,21.9c12,9.5,21.3,20.8,27.7,34.1c6.4,13.3,9.6,28.2,9.6,44.5 c0,21.5-4.7,38.7-14.2,51.6c-9.5,12.9-20.7,23-33.5,30.3c-12.9,7.4-25.8,12.4-38.7,15.5c-12.9,3-23,5.2-30.3,6.5l-0.6,4.6 c23.2,6.9,42.2,18.7,57.1,35.4c14.8,16.7,22.2,37.4,22.2,61.9c0,20.7-4.2,38.7-12.6,54.2c-8.4,15.5-19.5,28.2-33.5,38 c-14,9.9-29.8,17.1-47.4,21.6c-17.6,4.6-35.9,6.7-54.8,6.7c-28.4,0-55.3-3.9-80.9-11.9c-25.6-8-48.2-22.8-68-44.8 c7.3-8.1,15-16.9,22.8-26.1c8-9.3,15-18.1,20.9-26.8h8.4c0.4,4.7,1.3,11.7,2.5,20.9c1.3,9.3,4.2,18.4,8.7,27.4 c4.6,9,11.4,16.9,20.7,23.5s21.8,10,37.7,10c14.6,0,27-3.9,37.4-11.9s18.7-17.9,25.1-29.7c6.5-11.8,11.2-24.7,14.2-38.7 c3-13.9,4.6-27,4.6-39c0-8.6-1.2-16.9-3.5-24.8c-2.4-8-6-15-10.7-20.9c-4.7-6-10.9-10.9-18.7-14.5c-7.7-3.7-17.2-5.5-28.4-5.5 c-8.6,0-15.5,0.9-20.7,2.5c2.5-8.6,4.3-15.1,5.2-19.3c0.9-4.3,1.3-9,1.3-14.2c3.4,0.4,7,0.8,10.6,1c3.7,0.3,7.9,0.4,12.6,0.4 c32.2,0,55.8-8.7,70.5-26.1c14.8-17.4,22.2-42.2,22.2-74.4c0-8.1-0.8-16.1-2.3-23.8s-3.9-14.7-7.4-20.9 c-3.4-6.2-8.3-11.3-14.5-15.1c-6.2-3.9-14.1-5.8-23.5-5.8c-18,0-32,7.2-41.9,21.6s-15.7,31.2-17.4,50.6h-9 C696,535.7,689.6,527.1,684.7,521.1z"></path> </g> </g> </svg> 