<?xml version="1.0" encoding="UTF-8"?> <svg xmlns="http://www.w3.org/2000/svg" xmlns:xlink="http://www.w3.org/1999/xlink" version="1.1" id="Layer_1" x="0px" y="0px" viewBox="0 0 1000 1000" style="enable-background:new 0 0 1000 1000;" xml:space="preserve"> <g> <path style="fill:#FDC440;" d="M528.3,500.2c3.4,25,10,48.4,19.6,71.6c-19.2-4.5-38.2-4.5-57.5,0c9.7-23.1,16.2-46.7,19.7-71.5 c-3.4,2.7-6.3,5.3-9.4,7.6c-39.4,28.4-95.2,5.7-102.7-42.1c-5.5-35.2,5.1-65.4,31.9-89.3c15.2-13.6,30.9-26.7,46.2-40.2 c13.5-12,26.4-24.6,36.6-39.7c2.3-3.4,4.3-6.9,6-9.8c4.7,6.8,9.1,14.2,14.4,20.8c9.8,12.4,21.6,23,33.6,33.2 c14.1,12.1,28.3,24.2,42.4,36.2c18.7,16,28.8,36.6,32,60.7c2.3,17.2,0.9,34.1-8.1,49.3c-13.9,23.6-35.2,34.4-62.5,32.8 c-15.5-0.9-28.8-7.4-40.1-17.9C529.9,501.5,529.4,501.1,528.3,500.2z"></path> <path style="fill:#FDC440;" d="M290.5,573.7c-4.5,0.6-8.9,1.1-13.8,1.8c0-1.2,0-2.2,0-3.1c0-136.2,0-272.3,0-408.5 c0-28.2,21.4-49.6,49.5-49.6c128.4,0,256.8,0,385.2,0c15.5,0,28.4,5.9,38.4,17.8c8.1,9.6,11.3,20.9,11.3,33.4c0,67,0,134.1,0,201.1 c0,46,0,9.4,0,55.4c0,2.1-0.6,3.5-2.2,4.9c-3.7,3-7.3,6.2-11.6,9.8c0-1.8,0-3,0-4.1c0-116.9,0-151.3,0-268.3 c0-16.6-9.8-30.3-25.2-34.8c-3-0.9-6.3-1.4-9.4-1.4c-129.3-0.1-258.6-0.1-388,0c-18.6,0-34.3,15.8-34.3,34.5 c0,135.8,0,271.6,0,407.4C290.5,571,290.5,572.2,290.5,573.7z"></path> <path style="fill:#FDC440;" d="M216.1,593.7c-2.3-8.4-4.5-16.5-6.7-24.7c-12.7-47.4-25.4-94.8-38.2-142.2 c-10.7-39.8-21.3-79.5-31.9-119.3c-1.9-7-4.1-14.1-4.9-21.2c-2.8-23.7,12.3-45.7,35.5-52c26.4-7.2,52.8-14.2,79.3-21.3 c3.1-0.8,6-0.8,8.2,1.8c1.7,2,2.2,4.4,1.2,6.9s-2.9,3.7-5.5,4.4c-26.3,7-52.7,14.1-79,21.2c-19.1,5.1-30.3,23.9-25.3,43 c15.8,59.4,31.8,118.7,47.7,178.1c9.9,37,19.8,74.1,29.7,111.2c0.6,2.4,1.2,4.8,1.9,7.1c0.4,1.2,0.3,2-1.1,2.5 C223.7,590.5,220.1,592.1,216.1,593.7z"></path> <path style="fill:#FDC440;" d="M334.7,225.2c2.9,5.4,8,9,12.5,13c3.4,3,6.8,5.8,8.1,10.6c1.7,6.2,0.7,11.7-3.4,15 c-4.4,3.5-9,3.5-15.8-0.3c1.1,4.1,2,7.8,3,11.6c-3.1,0-6.1,0-9.4,0c1-3.8,2-7.5,3.1-11.7c-3.6,2.3-6.8,3.7-10.5,3 c-7.3-1.4-11.3-9-9.1-16.5c1.5-5.2,4.9-8.5,8.7-11.8c2.3-1.9,4.6-3.8,6.8-6C330.9,229.9,332.7,227.5,334.7,225.2z"></path> <path style="fill:#FDC440;" d="M223.7,383.2c-3.1,0.8-6,1.6-9.2,2.5c0-3.8,0-7.6,0-11.7c-2.1,1.5-3.6,3.1-5.5,3.9 c-8.3,3.6-16.3-1.8-17-11.3c-0.3-4.3,0.8-8.3,3.3-11.8c2.1-3,4.2-5.9,6.1-9.1c1.8-2.9,3.2-6.1,4.9-9.3c5.6,5.4,13.3,7.6,20.2,11.5 c5.5,3,8.3,7.9,8.6,14c0.5,7.6-7.1,13.5-14.6,11.6c-0.8-0.2-1.5-0.5-3.1-1C219.8,376.5,221.7,379.8,223.7,383.2z"></path> <path style="fill:#FDC440;" d="M337.3,153.7c4.9,13.2,9.7,26.4,14.5,39.5c0.5,1.3,1.1,2.5,1.5,3.8c1.3,3.7,3.2,6.6,7.7,6.5 c0,1.2,0,2.1,0,3.1c-7.6,0-15.1,0-22.8,0c0-0.9,0-1.9,0-2.9c0.7-0.2,1.4-0.3,2.1-0.5c1.8-0.5,2.6-1.6,2-3.5c-1-2.9-2-5.9-3.1-8.7 c-0.2-0.6-1.3-1.2-2-1.2c-3.9-0.1-7.8-0.1-11.8,0c-0.8,0-1.9,0.9-2.2,1.6c-1,2.3-1.8,4.8-2.5,7.2c-0.8,2.8-0.3,3.8,2.7,4.4 c2.1,0.4,2.9,1.2,2.1,3.5c-5.8,0-11.7,0-17.7,0c0-1,0-1.8,0-3.1c5.6,0.3,7.1-3.8,8.7-7.9c5-12.7,10.2-25.3,15.1-38 C332.8,154.9,334.3,153.6,337.3,153.7z M325.3,185.1c4.1,0,7.8,0,11.9,0c-1.9-5.5-3.7-10.8-5.5-16.1c-0.2,0-0.4,0-0.6,0 C329.3,174.3,327.4,179.5,325.3,185.1z"></path> <path style="fill:#FDC440;" d="M199.8,264.9c0.3,1.1,0.5,1.9,0.7,2.6c-0.1,0.2-0.2,0.4-0.3,0.5c-5,2.4-5.1,2.6-3.8,7.9 c2.8,10.8,5.8,21.6,8.4,32.5c2.4,10-1.5,19.2-9.8,24.5c-0.5,0.3-1.1,0.6-1.8,1c-0.6-0.8-1.2-1.6-2-2.6c6.3-4.6,5.3-10.9,3.8-17 c-2.9-12-6.1-24-9.4-35.9c-1.3-4.8-2.1-5.1-8.2-4.4c-0.2-0.9-0.5-1.8-0.8-2.8C184.4,269,192,267,199.8,264.9z"></path> <path style="fill:#FDC440;" d="M114.4,650.6h-37v-24.3h105.4v24.3h-37v101.7h-31.5L114.4,650.6L114.4,650.6z"></path> <path style="fill:#FDC440;" d="M209.5,741.2c-10.4-8.7-15.5-21-15.5-36.9v-78h31.5v75.1c0,8.7,2.2,15.3,6.7,19.6s11.1,6.5,19.7,6.5 c8.6,0,15.2-2.2,19.7-6.5s6.7-10.8,6.7-19.6v-75.1h31.5v78c0,15.9-5.2,28.2-15.5,36.9c-10.4,8.7-24.5,13-42.3,13 C234,754.2,219.9,749.9,209.5,741.2z M220.2,591.3h23.1v21.3h-23.1V591.3z M260.5,591.3h23.1v21.3h-23.1V591.3z"></path> <path style="fill:#FDC440;" d="M328.7,626.3h63c14.5,0,25.3,3.8,32.6,11.4c7.2,7.6,10.9,18.2,10.9,31.8c0,8.5-2.1,15.9-6.4,22.3 c-4.2,6.4-10.1,11.1-17.7,14.3c1.7,1.4,3.1,3,4.2,4.7s2.4,4.2,3.8,7.4l14.9,34h-32.9l-14.1-32c-1.2-2.9-2.7-4.9-4.5-6.1 c-1.8-1.2-4.4-1.8-7.8-1.8h-14.5v39.9h-31.5V626.3z M383.5,688.1c6.3,0,11.1-1.6,14.5-4.7c3.4-3.1,5.1-7.8,5.1-13.9 c0-12.6-6.1-19-18.2-19h-24.6v37.6L383.5,688.1L383.5,688.1z"></path> <path style="fill:#FDC440;" d="M451.2,626.3h31.5v48.9l43.4-48.9h36l-45,51.4l47.7,74.5h-33.6l-33.6-54.4L482.7,714v38.1h-31.5 L451.2,626.3L451.2,626.3z"></path> <path style="fill:#FDC440;" d="M180.1,772.8h63.3v16.5h-41.8v18h36.9v16.8h-36.9v18h41.8v16.5h-63.3V772.8z"></path> <path style="fill:#FDC440;" d="M283.8,772.8H307l32.8,85.8h-22.4l-7.7-19.4H281l-7.6,19.4H251L283.8,772.8z M306.7,823.3 l-11.5-29.8l-11.3,29.8H306.7z"></path> <path style="fill:#FDC440;" d="M350.6,772.8H372v69.3h40.5v16.5h-61.9V772.8z"></path> <path style="fill:#FDC440;" d="M418.8,772.8h63.3v16.5h-41.8v18h36.9v16.8h-36.9v18h41.8v16.5h-63.3V772.8z"></path> <path style="fill:#FDC440;" d="M492.3,772.8h42.9c9.9,0,17.2,2.6,22.2,7.8c4.9,5.2,7.4,12.4,7.4,21.6c0,5.8-1.4,10.8-4.3,15.2 c-2.9,4.4-6.9,7.6-12.1,9.7c1.2,1,2.1,2,2.9,3.2c0.8,1.2,1.6,2.8,2.6,5.1l10.1,23.2h-22.4l-9.6-21.8c-0.8-2-1.8-3.3-3.1-4.1 c-1.2-0.8-3-1.2-5.3-1.2h-9.9v27.2h-21.4L492.3,772.8L492.3,772.8z M529.6,814.9c4.3,0,7.5-1.1,9.9-3.2c2.3-2.1,3.5-5.3,3.5-9.5 c0-8.6-4.1-12.9-12.4-12.9h-16.8v25.6L529.6,814.9L529.6,814.9z"></path> <g> <path style="fill:#FDC440;" d="M632.3,809.7c20.2-16.2,38.9-32.3,55.8-48.1c17-15.8,32.7-31.7,47.1-47.5s28-32.7,40.4-50.5 c13.3-19.2,24.4-38.4,33-57.8c8.7-19.4,13.1-40,13.1-61.8c0-9.4-1.1-18.3-3.4-27.1s-5.7-16.5-10.3-23.4 c-4.7-6.9-10.7-12.3-18.1-16.3c-7.4-4-16.3-6-27.1-6c-12.1,0-22.5,2.4-31.4,7c-8.9,4.7-16.2,10.8-21.7,18.3 c-5.5,7.6-9.9,16.5-13.1,26.8c-3.1,10.3-5.1,20.7-6,31.4l-6.7,2.6c-8-9.8-15.3-18.1-22.1-24.7c-6.7-6.7-15.2-14.9-25.4-24.7 c4-5.8,9.3-12.4,15.7-20.1c6.4-7.5,15.2-14.7,26.1-21.4c10.9-6.7,24.5-12.3,40.8-17.1c16.2-4.7,36.4-7,60.5-7 c26.3,0,48.5,3.4,66.5,10c18.1,6.7,32.8,15.5,44.1,26.4s19.6,23.3,24.7,37.1c5.1,13.8,7.7,27.9,7.7,42.1c0,19.6-4,37.6-12.1,53.8 c-8,16.2-18.7,31.7-32,46.1c-13.3,14.5-28.8,28.2-46.1,41.1c-17.3,13.1-35.4,26.1-54.1,39c-14.3,10.3-26.1,18.8-35.8,25.7 c-9.6,6.9-17.7,12.8-24.4,17.7s-12.3,9-17.1,12.3c-4.7,3.4-9.3,6.8-13.7,10.3v4.7c19.6,0.9,38.8,1.4,57.5,1.4 c19.2,0,36.9-0.4,53.1-1s31-1.5,44.1-2.4c13.2-0.9,23.5-1.8,31-2.6c-2.3,8.4-4.1,16-5.7,22.4c-1.5,6.4-3,12.8-4.4,19.1 s-2.6,12.7-4,19.4s-2.6,13.6-4,20.7c-8.4-0.5-19.4-0.8-32.8-1c-13.3-0.3-27.4-0.4-42.1-0.4s-29,0-42.8,0c-13.3,0-24.7,0-34.1,0 c-7.2,0-17.2,0-30,0c-12.4,0-25.5,0-39.1,0s-26.6,0.1-39.1,0.4c-12.4,0.2-22.5,0.5-30,1V863C589.6,843.7,612,825.9,632.3,809.7z"></path> </g> </g> </svg> 