<svg xmlns="http://www.w3.org/2000/svg" viewBox="0 0 100 100"><defs><style>.cls-activeBonuses-1{fill:#fff;}.cls-activeBonuses-2{fill:none;stroke:#234209;stroke-miterlimit:10;stroke-width:2px;}</style></defs><title>Aktif Bonuslar</title><g data-name="Layer 2"><rect class="cls-activeBonuses-1" width="100" height="100"/></g><g id="Aktif_Bonuslar" data-name="Aktif Bonuslar"><path class="cls-activeBonuses-2" d="M50,37.5s1-13.89,7.73-19.77A10.16,10.16,0,0,1,72,18.22c3.44,3.75,2.8,9.08-1.83,13.09C63.4,37.19,50,37.5,50,37.5Z" transform="translate(0 0)"/><path class="cls-activeBonuses-2" d="M50,37.5s-.35-12-6.29-16.8a9.38,9.38,0,0,0-12.52.39c-3,3.06-2.46,7.41,1.6,10.7C38.73,36.59,45.72,37.38,50,37.5Z" transform="translate(0 0)"/><polyline class="cls-activeBonuses-2" points="55.18 85.86 84.55 85.86 84.55 51.32"/><polyline class="cls-activeBonuses-2" points="15.46 51.32 15.46 85.86 44.82 85.86"/><polyline class="cls-activeBonuses-2" points="55.18 51.32 88 51.32 88 37.5 12 37.5 12 51.32 44.82 51.32"/><rect class="cls-activeBonuses-2" x="44.82" y="37.5" width="10.36" height="48.36"/></g></svg>
