<svg xmlns="http://www.w3.org/2000/svg" viewBox="0 0 100 100"><defs><style>.cls-betHistory-1{fill:#fff;}.cls-betHistory-2,.cls-betHistory-3{fill:#2a421c;}.cls-betHistory-2{fill-rule:evenodd;}</style></defs><title>Spor Geçmişim</title><g data-name="Layer 2"><rect class="cls-betHistory-1" width="100" height="100"/></g><g id="Spor_Geçmişim" data-name="Spor Geçmişim"><path class="cls-betHistory-2" d="M36.71,40.35a.91.91,0,0,0,.22-.33c.06-.19-.12-.48-.16-.55l-.15-.24a.65.65,0,0,1,0-.51,1.17,1.17,0,0,1,.74-.63c.25-.09.5-.17.74-.28A3.27,3.27,0,0,0,39.14,37a11.62,11.62,0,0,0,1.54-2.55,8.78,8.78,0,0,0,.55-1.48,5.06,5.06,0,0,0,.09-1.78A8.08,8.08,0,0,0,41,29.46a.79.79,0,0,0-1-.57l-.87.17c-.28.06-.56.1-.83.18a1.53,1.53,0,0,0-.94.84c-.23.47-.44,1-.68,1.42L36,32.86c-.25.44-.52.87-.76,1.32a1.52,1.52,0,0,0-.22.68,2.07,2.07,0,0,0,.14.78c.18.54.34,1.07.49,1.62a7,7,0,0,0,.23.78,2.53,2.53,0,0,0,.2.36,1,1,0,0,1,0,1.06,3.08,3.08,0,0,1-1.1.82c-.48.3-.94.63-1.42.92s-1,.57-1.55.82-1,.4-1.28.81a1.57,1.57,0,0,0-.05.3,1.33,1.33,0,0,1,0,.28c-.07.34-.55.47-.82.52h0a4.93,4.93,0,0,1-1.07.1c-.8,0-1.44-.12-2.19-.15a8.12,8.12,0,0,1-1.06-.11,12.64,12.64,0,0,1-1.86-.47,2.06,2.06,0,0,1-.77-.39.36.36,0,0,1,.16-.59,1.84,1.84,0,0,1,.72.16,15.52,15.52,0,0,0,2.16.53,9.07,9.07,0,0,0,1.59.2,7.13,7.13,0,0,0,.85,0,.72.72,0,0,0,.61-.48c.06-.21-.18-.41-.34-.55a2.06,2.06,0,0,0-.5-.28,13.72,13.72,0,0,1-2-1.1A4.28,4.28,0,0,0,25,40.25a5.63,5.63,0,0,0-1.42-.15,16.24,16.24,0,0,1-2.73-.43,1.1,1.1,0,0,0-.67,0,.51.51,0,0,0-.31.68,2,2,0,0,0,.35.44c.08.1.34.34.3.51a.43.43,0,0,1-.44.38,1.71,1.71,0,0,1-.53-.25,12,12,0,0,1-2.83-2.57,15.71,15.71,0,0,1-3.51-11.68,15.19,15.19,0,0,1,.56-2.53,14.94,14.94,0,0,1,5-7.32,14.29,14.29,0,0,1,6.28-3A20.35,20.35,0,0,1,27.81,14,14.76,14.76,0,0,1,38,17.72a15.77,15.77,0,0,1,3.16,3.81,7.85,7.85,0,0,1,.58,1.16,1.22,1.22,0,0,1,.11.71c-.1.46-.45.75-.46,1.29a10,10,0,0,0,.12,1.19,2.18,2.18,0,0,0,.05.38c.06.23.3.33.45.42s.06.07.1.08.12-.05.17-.05a.63.63,0,0,1,.45.18.79.79,0,0,1,.26.57,14.11,14.11,0,0,1,.1,1.56,15.24,15.24,0,0,1-1.06,5.61,15.16,15.16,0,0,1-7.79,8,2,2,0,0,1-.6.22.33.33,0,0,1-.36-.37c0-.19.22-.34.38-.42s.37-.18.53-.25a16.32,16.32,0,0,0,2-1.16l.48-.34ZM34.89,17.29c0,.13.19.29.28.39A7,7,0,0,0,36.57,19a8.47,8.47,0,0,0,.84.5.85.85,0,0,0,.54.12.43.43,0,0,0,.24-.33c0-.13-.17-.29-.27-.39a12,12,0,0,0-1.8-1.48,2.91,2.91,0,0,0-.81-.45.4.4,0,0,0-.19,0,.4.4,0,0,0-.23.33ZM24.2,16.23c0-.16-.23-.25-.38-.24a3.15,3.15,0,0,0-1.16.33c-.36.16-.7.34-1.05.53a12.22,12.22,0,0,0-3.54,2.72A11,11,0,0,0,17,20.88a.71.71,0,0,0-.14.42c0,.14.27.32.4.36a1.37,1.37,0,0,0,1-.22c.33-.2.63-.44,1-.66a23.85,23.85,0,0,1,2-1.28l.54-.28A3.34,3.34,0,0,0,23,18.14c.22-.34.4-.69.62-1,.11-.17.23-.33.34-.49a1,1,0,0,0,.2-.4Zm3.5-.14a6.63,6.63,0,0,0-1.09.14,2.38,2.38,0,0,0-1.31,1l-.53.72a4.35,4.35,0,0,0-.46.74.76.76,0,0,0,.06.73,3.28,3.28,0,0,0,.54.64c.44.42.88.83,1.3,1.27a3.5,3.5,0,0,0,1.29,1.07,1.93,1.93,0,0,0,.6,0,9.55,9.55,0,0,1,1.07,0,13.61,13.61,0,0,1,1.66.1.5.5,0,0,1,.41.62c-.1.48-.82.38-1.2.39a8,8,0,0,0-2.38.5,3.55,3.55,0,0,0-.73.77c-.43.7-.8,1.43-1.19,2.15a13.39,13.39,0,0,0-.81,1.66,1.92,1.92,0,0,1-.79,1.18,1.39,1.39,0,0,1-.9.07c-.49-.09-1-.12-1.49-.17l-1.53-.14a4.56,4.56,0,0,0-1.42-.06,1.51,1.51,0,0,0-.71.7,11.47,11.47,0,0,0-.51,1.13c-.16.4-.31.8-.44,1.21A2.66,2.66,0,0,0,17,33.82a4.51,4.51,0,0,0,.49,1.1,18,18,0,0,0,1.27,2,3.67,3.67,0,0,0,1.68,1.46,8.42,8.42,0,0,0,1.32.3c.48.09,1,.16,1.46.21a2.55,2.55,0,0,0,1.29-.1A4.31,4.31,0,0,0,25.8,37c.18-.38.37-.75.54-1.13a1.46,1.46,0,0,0,.09-1.14c-.15-.36-.28-.69-.47-1.08-.46-.92-.75-1.28-1.25-2.18a1.75,1.75,0,0,1-.27-.71c0-.43.33-.53.65-.24a1.23,1.23,0,0,1,.26.34c.29.45.42.6.71,1.06s.61,1,1,1.6a2.21,2.21,0,0,0,1.1.68,5.36,5.36,0,0,0,1.7.08c.61,0,1.22,0,1.83-.07l.9-.06a2.73,2.73,0,0,0,.7-.15,1.92,1.92,0,0,0,.88-.79A12.78,12.78,0,0,0,34.89,32c.22-.42.43-.84.63-1.27s.42-.85.58-1.29a2.08,2.08,0,0,0,.14-.7,1.85,1.85,0,0,0-.14-.69,8.84,8.84,0,0,0-.64-1.22c-.23-.4-.46-.8-.7-1.19A10.78,10.78,0,0,0,34,24.54c-.17-.22-.38-.39-.56-.6s-.81-.41-.9-.57a.6.6,0,0,1,0-.55c.07-.19.65-.36.91-.67a5.12,5.12,0,0,0,.4-.52c.26-.38.46-.8.68-1.2a1.79,1.79,0,0,0,.37-1.25,2.45,2.45,0,0,0-.72-1,10.64,10.64,0,0,0-2.06-1.66,3.71,3.71,0,0,0-1.34-.44,11.17,11.17,0,0,0-1.83,0c-.4,0-.82,0-1.22.05Zm7.91,4.51c-.33.51-.59,1-.89,1.58a1.58,1.58,0,0,0-.27.84,2,2,0,0,0,.45,1,30.51,30.51,0,0,1,1.86,3,3.64,3.64,0,0,0,.28.47,1.3,1.3,0,0,0,.75.59,1.89,1.89,0,0,0,.62-.06c.44-.08.89-.19,1.33-.28s.88-.3.93-.83a6.69,6.69,0,0,0-.06-1.34c0-.43-.11-.85-.2-1.27a5.18,5.18,0,0,0-.75-2,10.47,10.47,0,0,0-2.39-1.95,1.33,1.33,0,0,0-.93-.33.34.34,0,0,0-.2.06,1.85,1.85,0,0,0-.53.55ZM16.06,23a1.73,1.73,0,0,0-.6.76A11.41,11.41,0,0,0,14.4,27.4a13.59,13.59,0,0,0,0,3,4.1,4.1,0,0,0,.26,1.24,1.35,1.35,0,0,0,.62.71c.27.13.5-.19.6-.41s.23-.61.35-.91a16.32,16.32,0,0,1,.83-1.8,2.35,2.35,0,0,0,.31-.85,5.13,5.13,0,0,0-.11-1.1c-.12-.8-.14-1.62-.18-2.43a5.61,5.61,0,0,1,0-.58,2.25,2.25,0,0,0-.06-.82.87.87,0,0,0-.75-.52.76.76,0,0,0-.2.06Zm-.95,11a1.05,1.05,0,0,0,.08.34c.05.13.1.26.16.39a14.62,14.62,0,0,0,2.74,4.08c.08.09.35.37.48.37s.19-.14.2-.2a1.51,1.51,0,0,0-.1-.3,6.8,6.8,0,0,0-.67-1,22.79,22.79,0,0,1-1.35-2.15c-.14-.25-.26-.5-.4-.75a3.9,3.9,0,0,0-.46-.61c-.08-.08-.35-.37-.48-.35A.34.34,0,0,0,15.11,34Z" transform="translate(0 0)"/><path class="cls-betHistory-3" d="M37.88,87.19V85.93H84a.78.78,0,0,0,.78-.78V48.23H37.09V85.15a.78.78,0,0,0,.79.78v1.26a2.06,2.06,0,0,1-2.05-2V47.6a.64.64,0,0,1,.19-.45.67.67,0,0,1,.44-.18H85.37a.64.64,0,0,1,.45.19.63.63,0,0,1,.18.44V85.15a2,2,0,0,1-2,2Z" transform="translate(0 0)"/><path class="cls-betHistory-3" d="M70.73,39.66V34.08a3.43,3.43,0,1,1,6.84,0v5.58a3.43,3.43,0,1,1-6.84,0ZM72,34.08v5.58a2.18,2.18,0,1,0,4.32,0V34.08a2.18,2.18,0,1,0-4.32,0Z" transform="translate(0 0)"/><path class="cls-betHistory-3" d="M44.27,39.66V34.08a3.43,3.43,0,1,1,6.83,0v5.58a3.43,3.43,0,1,1-6.83,0Zm1.25,0a2.18,2.18,0,1,0,4.32,0V34.08a2.18,2.18,0,1,0-4.32,0Z" transform="translate(0 0)"/><path class="cls-betHistory-3" d="M53.51,60.72a1.45,1.45,0,0,1-1.44-1.44V54.71a1.45,1.45,0,0,1,1.44-1.44h4.56a1.45,1.45,0,0,1,1.44,1.44v4.57a1.45,1.45,0,0,1-1.44,1.44Zm-.18-6v4.57a.18.18,0,0,0,.18.18h4.56a.2.2,0,0,0,.19-.18V54.71a.2.2,0,0,0-.19-.18H53.51A.19.19,0,0,0,53.33,54.71Z" transform="translate(0 0)"/><path class="cls-betHistory-3" d="M63.76,60.72a1.45,1.45,0,0,1-1.44-1.44V54.72a1.43,1.43,0,0,1,1.44-1.44h4.56a1.43,1.43,0,0,1,1.44,1.44v4.56a1.45,1.45,0,0,1-1.44,1.44Zm-.18-6v4.56a.18.18,0,0,0,.18.18h4.56a.2.2,0,0,0,.19-.18V54.72a.2.2,0,0,0-.19-.19H63.76A.19.19,0,0,0,63.58,54.72Z" transform="translate(0 0)"/><path class="cls-betHistory-3" d="M74,60.72a1.45,1.45,0,0,1-1.44-1.44V54.71A1.43,1.43,0,0,1,74,53.28h4.56A1.43,1.43,0,0,1,80,54.71v4.57a1.45,1.45,0,0,1-1.44,1.44Zm-.18-6v4.57a.18.18,0,0,0,.18.18h4.56a.19.19,0,0,0,.19-.18V54.71a.2.2,0,0,0-.19-.18H74A.19.19,0,0,0,73.83,54.71Z" transform="translate(0 0)"/><path class="cls-betHistory-3" d="M53.51,70.57a1.43,1.43,0,0,1-1.44-1.44V64.57a1.44,1.44,0,0,1,1.44-1.44h4.56a1.43,1.43,0,0,1,1.44,1.44v4.56a1.43,1.43,0,0,1-1.44,1.44Zm-.18-6v4.56a.19.19,0,0,0,.18.19h4.56a.2.2,0,0,0,.19-.19V64.57a.19.19,0,0,0-.19-.18H53.51A.18.18,0,0,0,53.33,64.57Z" transform="translate(0 0)"/><path class="cls-betHistory-3" d="M74,70.57a1.43,1.43,0,0,1-1.44-1.44V64.57A1.44,1.44,0,0,1,74,63.13h4.56A1.44,1.44,0,0,1,80,64.57v4.56a1.43,1.43,0,0,1-1.44,1.44Zm-.18-6v4.56a.19.19,0,0,0,.18.19h4.56a.2.2,0,0,0,.19-.19V64.57a.19.19,0,0,0-.19-.18H74A.18.18,0,0,0,73.83,64.57Z" transform="translate(0 0)"/><path class="cls-betHistory-3" d="M63.76,70.57a1.44,1.44,0,0,1-1.44-1.44V64.57a1.45,1.45,0,0,1,1.44-1.44h4.56a1.44,1.44,0,0,1,1.44,1.44v4.56a1.43,1.43,0,0,1-1.44,1.44Zm-.18-6v4.56a.19.19,0,0,0,.18.19h4.56a.2.2,0,0,0,.19-.19V64.57a.19.19,0,0,0-.19-.18H63.76A.18.18,0,0,0,63.58,64.57Z" transform="translate(0 0)"/><path class="cls-betHistory-3" d="M53.51,80.43A1.45,1.45,0,0,1,52.07,79V74.43A1.43,1.43,0,0,1,53.51,73h4.56a1.43,1.43,0,0,1,1.44,1.44V79a1.45,1.45,0,0,1-1.44,1.44Zm-.18-6V79a.18.18,0,0,0,.18.18h4.56a.19.19,0,0,0,.19-.18V74.43a.2.2,0,0,0-.19-.19H53.51A.19.19,0,0,0,53.33,74.43Z" transform="translate(0 0)"/><path class="cls-betHistory-3" d="M63.76,80.43A1.45,1.45,0,0,1,62.32,79V74.43A1.43,1.43,0,0,1,63.76,73h4.56a1.43,1.43,0,0,1,1.44,1.44V79a1.45,1.45,0,0,1-1.44,1.44Zm-.18-6V79a.18.18,0,0,0,.18.18h4.56a.2.2,0,0,0,.19-.18V74.43a.2.2,0,0,0-.19-.19H63.76A.19.19,0,0,0,63.58,74.43Z" transform="translate(0 0)"/><path class="cls-betHistory-3" d="M43.26,70.57a1.44,1.44,0,0,1-1.44-1.44V64.57a1.44,1.44,0,0,1,1.44-1.44h4.56a1.43,1.43,0,0,1,1.44,1.44v4.56a1.43,1.43,0,0,1-1.44,1.44Zm-.18-6v4.56a.2.2,0,0,0,.18.19h4.56a.2.2,0,0,0,.19-.19V64.57a.19.19,0,0,0-.19-.18H43.26A.19.19,0,0,0,43.08,64.57Z" transform="translate(0 0)"/><path class="cls-betHistory-3" d="M43.26,80.43A1.45,1.45,0,0,1,41.82,79V74.43A1.45,1.45,0,0,1,43.26,73h4.56a1.43,1.43,0,0,1,1.44,1.44V79a1.45,1.45,0,0,1-1.44,1.44Zm-.18-6V79a.19.19,0,0,0,.18.18h4.56A.19.19,0,0,0,48,79V74.43a.2.2,0,0,0-.19-.19H43.26A.19.19,0,0,0,43.08,74.43Z" transform="translate(0 0)"/><path class="cls-betHistory-3" d="M50.47,37.5a.63.63,0,0,1,0-1.26H71.36a.63.63,0,1,1,0,1.26Z" transform="translate(0 0)"/><path class="cls-betHistory-3" d="M43.13,37.5h1.76a.63.63,0,0,0,0-1.26H43.13Z" transform="translate(0 0)"/><path class="cls-betHistory-3" d="M84,36.24h-7a.63.63,0,0,0,0,1.26h7a.78.78,0,0,1,.78.78V47H37.09V44.14H35.83V47.6A.61.61,0,0,0,36,48a.63.63,0,0,0,.44.19H85.37a.64.64,0,0,0,.45-.19A.65.65,0,0,0,86,47.6V38.28A2,2,0,0,0,84,36.24Z" transform="translate(0 0)"/></g></svg>
