<svg xmlns="http://www.w3.org/2000/svg" viewBox="0 0 100.4 100"><defs><style>.cls-bettingRules-1{fill:#fff;}.cls-bettingRules-2{fill:none;stroke:#2a421c;stroke-miterlimit:10;stroke-width:3px;}</style></defs><title>Bahis Kurallari</title><g data-name="Layer 2"><rect class="cls-bettingRules-1" width="100" height="100"/></g><g id="Bahis_Kurallari" data-name="Bahis Kurallari"><polyline class="cls-bettingRules-2" points="85.95 63.14 85.95 84 12 84 12 15.74 85.95 15.74 85.95 40.39"/><line class="cls-bettingRules-2" x1="12" y1="27.12" x2="85.95" y2="27.12"/><line class="cls-bettingRules-2" x1="17.69" y1="21.43" x2="21.48" y2="21.43"/><line class="cls-bettingRules-2" x1="23.38" y1="21.43" x2="27.17" y2="21.43"/><rect class="cls-bettingRules-2" x="19.58" y="34.7" width="20.86" height="22.75"/><line class="cls-bettingRules-2" x1="17.69" y1="66.93" x2="42.34" y2="66.93"/><line class="cls-bettingRules-2" x1="17.69" y1="74.52" x2="42.34" y2="74.52"/><line class="cls-bettingRules-2" x1="48.03" y1="74.52" x2="68.88" y2="74.52"/><line class="cls-bettingRules-2" x1="48.03" y1="66.93" x2="68.88" y2="66.93"/><line class="cls-bettingRules-2" x1="48.03" y1="36.6" x2="68.88" y2="36.6"/><line class="cls-bettingRules-2" x1="48.03" y1="44.18" x2="61.3" y2="44.18"/><polyline class="cls-bettingRules-2" points="66.99 49.87 78.36 61.25 99.22 34.7"/></g></svg>
