<svg xmlns="http://www.w3.org/2000/svg" viewBox="0 0 100 100"><defs><style>.cls-bonusHistory-1{fill:#fff;}.cls-bonusHistory-2{fill:none;stroke:#234209;stroke-miterlimit:10;stroke-width:2px;}</style></defs><title>Gecmis Bonuslar</title><g data-name="Layer 2"><rect class="cls-bonusHistory-1" width="100" height="100"/></g><g id="Gecmis_Bonuslar" data-name="Gecmis Bonuslar"><path class="cls-bonusHistory-2" d="M33.82,82.91h3.09c2.63,0,2.5,3.09,6.19,3.09H55.46c1.81,0,4.21-1.06,4.64-3.09l1.14-10.77A4.17,4.17,0,0,0,57,67.45H53.92" transform="translate(0 0)"/><path class="cls-bonusHistory-2" d="M44.08,78c3.89-1.45,6.75-5.14,6.75-9V65.49a23,23,0,0,0,.53-4.38,6.93,6.93,0,0,0-1.77-5.17c-1.16-1.51-3.4-1.23-3.4.22v1.17c0,3.24-3,6.43-4,7.34s-2.87,2.78-5.29,2.78H33.82" transform="translate(0 0)"/><rect class="cls-bonusHistory-2" x="27.64" y="65.9" width="6.18" height="18.55"/><path class="cls-bonusHistory-2" d="M50.83,30.35s-.3-5.68-3.15-8.22A3.93,3.93,0,1,0,42.46,28C45.3,30.53,50.83,30.35,50.83,30.35Z" transform="translate(0 0)"/><path class="cls-bonusHistory-2" d="M50.83,30.35s.71-5.68,3.56-8.22A3.93,3.93,0,1,1,59.61,28C56.77,30.53,50.83,30.35,50.83,30.35Z" transform="translate(0 0)"/><polyline class="cls-bonusHistory-2" points="38.46 38.08 38.46 50.44 63.19 50.44 63.19 38.08"/><polyline class="cls-bonusHistory-2" points="53.92 38.08 64.74 38.08 64.74 30.35 36.91 30.35 36.91 38.08 47.73 38.08"/><line class="cls-bonusHistory-2" x1="53.92" y1="30.35" x2="53.92" y2="50.44"/><line class="cls-bonusHistory-2" x1="47.73" y1="50.44" x2="47.73" y2="30.35"/><path class="cls-bonusHistory-2" d="M40,59.72H26.09A3.09,3.09,0,0,1,23,56.62V18a3.09,3.09,0,0,1,3.09-3.09H75.56A3.09,3.09,0,0,1,78.65,18V56.62a3.09,3.09,0,0,1-3.09,3.1H70.92V65.9a1.55,1.55,0,0,1-2.78.93l-6.49-7.11H55.46" transform="translate(0 0)"/></g></svg>
