<svg xmlns="http://www.w3.org/2000/svg" viewBox="0 0 100 100"><defs><style>.cls-deposit-1{fill:#fff;}.cls-deposit-2{fill:none;stroke:#234209;stroke-linecap:round;stroke-linejoin:round;stroke-width:2px;}</style></defs><title>Para Yatir</title><g data-name="Layer 2"><rect class="cls-deposit-1" width="100" height="100"/></g><g id="Para_Yatır" data-name="Para Yatır"><path class="cls-deposit-2" d="M69.42,28.4H54.35c-5.18,0-7.69,2.88-10.05,5S25.58,50.18,25.58,50.18" transform="translate(0 0)"/><path class="cls-deposit-2" d="M44.3,68.6l5-5c5.59,0,10.5-.44,15.08-5,1.74-1.74,6.17-6.26,6.17-6.26" transform="translate(0 0)"/><rect class="cls-deposit-2" x="21.95" y="46.63" width="15.57" height="38.92" transform="translate(-38.02 40.38) rotate(-45)"/><line class="cls-deposit-2" x1="21.48" y1="56.74" x2="25.15" y2="60.41"/><polyline class="cls-deposit-2" points="81.15 60.23 81.15 65.25 89.53 65.25 89.53 15 81.15 15 81.15 20.02"/><path class="cls-deposit-2" d="M52.67,38.45H71.1c3.52,0,5,1,5,3.35,0,4.19-4.34,6.7-8.37,6.7H63.19a3.38,3.38,0,0,0-3,1.8,12.4,12.4,0,0,1-10.91,6.58H46" transform="translate(0 0)"/><path class="cls-deposit-2" d="M64.49,38.45a15.07,15.07,0,0,1,25-9.56" transform="translate(0 0)"/><path class="cls-deposit-2" d="M89.53,51.36A15.08,15.08,0,0,1,66.94,48.5" transform="translate(0 0)"/></g></svg>
