<svg xmlns="http://www.w3.org/2000/svg" viewBox="0 0 100 100"><defs><style>.cls-gamingHistory-1{fill:#fff;}.cls-gamingHistory-2{fill:#2a421c;}.cls-gamingHistory-3{fill:none;stroke:#2a421c;stroke-miterlimit:10;stroke-width:1.5px;}</style></defs><title>Oyun Geçmişim</title><g data-name="Layer 2"><rect class="cls-gamingHistory-1" width="100" height="100"/></g><g id="Oyun_Geçmişim" data-name="Oyun Geçmişim"><path class="cls-gamingHistory-2" d="M38.37,87V85.75h46a.79.79,0,0,0,.78-.79V48.09H37.58V85a.8.8,0,0,0,.79.79V87a2,2,0,0,1-2-2V47.47a.62.62,0,0,1,.63-.63H85.8a.67.67,0,0,1,.44.18.64.64,0,0,1,.19.45V85a2,2,0,0,1-2,2Z" transform="translate(0 0)"/><path class="cls-gamingHistory-2" d="M71.18,39.54V34A3.43,3.43,0,1,1,78,34v5.57a3.43,3.43,0,1,1-6.83,0ZM72.44,34v5.57a2.18,2.18,0,1,0,4.31,0V34a2.18,2.18,0,1,0-4.31,0Z" transform="translate(0 0)"/><path class="cls-gamingHistory-2" d="M44.75,39.54V34a3.42,3.42,0,1,1,6.82,0v5.57a3.42,3.42,0,1,1-6.82,0Zm1.25,0a2.18,2.18,0,1,0,4.32,0V34A2.18,2.18,0,1,0,46,34Z" transform="translate(0 0)"/><path class="cls-gamingHistory-2" d="M54,60.57a1.46,1.46,0,0,1-1.44-1.44V54.57A1.44,1.44,0,0,1,54,53.14h4.56A1.43,1.43,0,0,1,60,54.57v4.56a1.44,1.44,0,0,1-1.43,1.44Zm-.18-6v4.56a.19.19,0,0,0,.18.18h4.56a.19.19,0,0,0,.18-.18V54.57a.19.19,0,0,0-.18-.18H54A.19.19,0,0,0,53.8,54.57Z" transform="translate(0 0)"/><path class="cls-gamingHistory-2" d="M64.22,60.57a1.45,1.45,0,0,1-1.44-1.44V54.57a1.43,1.43,0,0,1,1.44-1.43h4.55a1.43,1.43,0,0,1,1.44,1.43v4.56a1.45,1.45,0,0,1-1.44,1.44Zm-.18-6v4.56a.18.18,0,0,0,.18.18h4.55a.19.19,0,0,0,.19-.18V54.57a.2.2,0,0,0-.19-.18H64.22A.19.19,0,0,0,64,54.57Z" transform="translate(0 0)"/><path class="cls-gamingHistory-2" d="M74.45,60.57A1.46,1.46,0,0,1,73,59.13V54.57a1.44,1.44,0,0,1,1.44-1.43H79a1.44,1.44,0,0,1,1.44,1.43v4.56A1.46,1.46,0,0,1,79,60.57Zm-.18-6v4.56a.18.18,0,0,0,.18.18H79a.18.18,0,0,0,.18-.18V54.57a.19.19,0,0,0-.18-.18H74.45A.19.19,0,0,0,74.27,54.57Z" transform="translate(0 0)"/><path class="cls-gamingHistory-2" d="M54,70.41A1.45,1.45,0,0,1,52.54,69V64.41A1.44,1.44,0,0,1,54,63h4.56A1.44,1.44,0,0,1,60,64.41V69a1.45,1.45,0,0,1-1.44,1.44Zm-.18-6V69a.18.18,0,0,0,.18.18h4.56a.19.19,0,0,0,.18-.18V64.41a.19.19,0,0,0-.18-.18H54A.19.19,0,0,0,53.8,64.41Z" transform="translate(0 0)"/><path class="cls-gamingHistory-2" d="M74.45,70.41A1.45,1.45,0,0,1,73,69V64.42A1.45,1.45,0,0,1,74.45,63H79a1.45,1.45,0,0,1,1.44,1.44V69A1.45,1.45,0,0,1,79,70.41Zm-.18-6V69a.18.18,0,0,0,.18.18H79a.18.18,0,0,0,.18-.18V64.42a.19.19,0,0,0-.18-.19H74.45A.19.19,0,0,0,74.27,64.42Z" transform="translate(0 0)"/><path class="cls-gamingHistory-2" d="M64.22,70.41A1.44,1.44,0,0,1,62.78,69V64.41A1.43,1.43,0,0,1,64.22,63h4.55a1.43,1.43,0,0,1,1.44,1.43V69a1.44,1.44,0,0,1-1.44,1.44Zm-.18-6V69a.18.18,0,0,0,.18.18h4.55A.19.19,0,0,0,69,69V64.41a.2.2,0,0,0-.19-.18H64.22A.19.19,0,0,0,64,64.41Z" transform="translate(0 0)"/><path class="cls-gamingHistory-2" d="M54,80.25a1.45,1.45,0,0,1-1.44-1.44V74.26A1.45,1.45,0,0,1,54,72.82h4.56A1.45,1.45,0,0,1,60,74.26v4.55a1.45,1.45,0,0,1-1.44,1.44Zm-.18-6v4.55A.19.19,0,0,0,54,79h4.56a.2.2,0,0,0,.18-.19V74.26a.2.2,0,0,0-.18-.19H54A.19.19,0,0,0,53.8,74.26Z" transform="translate(0 0)"/><path class="cls-gamingHistory-2" d="M64.22,80.25a1.43,1.43,0,0,1-1.44-1.44V74.26a1.43,1.43,0,0,1,1.44-1.44h4.55a1.43,1.43,0,0,1,1.44,1.44v4.55a1.43,1.43,0,0,1-1.44,1.44Zm-.18-6v4.55a.2.2,0,0,0,.19.19h4.55a.2.2,0,0,0,.19-.19V74.26a.2.2,0,0,0-.19-.19H64.22A.19.19,0,0,0,64,74.26Z" transform="translate(0 0)"/><path class="cls-gamingHistory-2" d="M43.75,70.41A1.43,1.43,0,0,1,42.31,69V64.41A1.43,1.43,0,0,1,43.75,63H48.3a1.43,1.43,0,0,1,1.44,1.43V69a1.43,1.43,0,0,1-1.44,1.44Zm-.19-6V69a.19.19,0,0,0,.19.18H48.3a.19.19,0,0,0,.19-.18V64.41a.2.2,0,0,0-.19-.18H43.75A.2.2,0,0,0,43.56,64.41Z" transform="translate(0 0)"/><path class="cls-gamingHistory-2" d="M43.75,80.25a1.43,1.43,0,0,1-1.44-1.44V74.26a1.43,1.43,0,0,1,1.44-1.44H48.3a1.43,1.43,0,0,1,1.44,1.44v4.55a1.43,1.43,0,0,1-1.44,1.44Zm-.19-6v4.55a.2.2,0,0,0,.19.19H48.3a.2.2,0,0,0,.19-.19V74.26a.2.2,0,0,0-.19-.19H43.75A.2.2,0,0,0,43.56,74.26Z" transform="translate(0 0)"/><path class="cls-gamingHistory-2" d="M51,37.38a.63.63,0,1,1,0-1.25H71.81a.63.63,0,0,1,0,1.25Z" transform="translate(0 0)"/><path class="cls-gamingHistory-2" d="M43.62,37.38h1.76a.63.63,0,0,0,0-1.25H43.62Z" transform="translate(0 0)"/><path class="cls-gamingHistory-2" d="M84.39,36.13h-7a.63.63,0,1,0,0,1.25h7a.78.78,0,0,1,.78.78v8.68H37.58V44H36.33v3.46a.67.67,0,0,0,.18.44.64.64,0,0,0,.45.19H85.8a.61.61,0,0,0,.44-.19.6.6,0,0,0,.18-.44V38.16A2,2,0,0,0,84.39,36.13Z" transform="translate(0 0)"/><rect class="cls-gamingHistory-3" x="27.12" y="17.26" width="17.16" height="22.39" rx="0.75" transform="translate(57.14 68.75) rotate(-156.56)"/><path class="cls-gamingHistory-3" d="M20.92,22.09l-7,1.74a.75.75,0,0,0-.51.93l5.68,20.1a.75.75,0,0,0,.92.52l16.13-4.29" transform="translate(0 0)"/><path class="cls-gamingHistory-3" d="M30.73,17.08l-8.95-.2a.75.75,0,0,0-.76.73L20.55,38.5a.74.74,0,0,0,.73.77l11.93.27" transform="translate(0 0)"/><path class="cls-gamingHistory-3" d="M35.33,34a8.75,8.75,0,0,0-1.58-1,8.88,8.88,0,0,0-1.84-.44" transform="translate(0 0)"/><path class="cls-gamingHistory-3" d="M34.75,30.64a3.14,3.14,0,0,1-2.64-.84,2.31,2.31,0,0,1-.35-2.59c.82-1.87,4.74-1.74,5.72-2.87-.15,1.49,2.63,4.26,1.81,6.14A2.27,2.27,0,0,1,37.17,32,3.11,3.11,0,0,1,34.75,30.64Z" transform="translate(0 0)"/></g></svg>
