<svg xmlns="http://www.w3.org/2000/svg" viewBox="0 0 100 100"><defs><style>.cls-paymentHistory-1{fill:#fff;}.cls-paymentHistory-2{fill:none;stroke:#2a421c;stroke-linejoin:round;stroke-width:2px;}</style></defs><title>Hesap Özetim</title><g data-name="Layer 2"><rect class="cls-paymentHistory-1" width="100" height="100"/></g><g id="Hesap_Özetim" data-name="Hesap Özetim"><polyline class="cls-paymentHistory-2" points="41.74 22.72 75.7 22.72 75.7 86 26.3 86 26.3 22.72 38.65 22.72"/><path class="cls-paymentHistory-2" d="M46.37,32H66.43A1.54,1.54,0,0,1,68,33.52V55.13a1.54,1.54,0,0,1-1.55,1.54H35.57A1.54,1.54,0,0,1,34,55.13V39.7" transform="translate(0 0)"/><line class="cls-paymentHistory-2" x1="35.57" y1="70.57" x2="66.43" y2="70.57"/><line class="cls-paymentHistory-2" x1="35.57" y1="64.39" x2="66.43" y2="64.39"/><line class="cls-paymentHistory-2" x1="35.57" y1="76.74" x2="51" y2="76.74"/><path class="cls-paymentHistory-2" d="M44.83,53.59a6.17,6.17,0,1,1,12.34,0" transform="translate(0 0)"/><circle class="cls-paymentHistory-2" cx="51" cy="42.78" r="4.63"/><path class="cls-paymentHistory-2" d="M34,27.35V32a3.09,3.09,0,0,0,3.09,3.09h1.54A3.09,3.09,0,0,0,41.74,32V18.09A3.09,3.09,0,0,0,38.65,15H35.57a3.09,3.09,0,0,0-3.09,3.09v4.63" transform="translate(0 0)"/></g></svg>
