<svg xmlns="http://www.w3.org/2000/svg" viewBox="0 0 100 100"><defs><style>.cls-withdraw-1{fill:#fff;}.cls-withdraw-2{fill:none;stroke:#234209;stroke-linecap:round;stroke-linejoin:round;stroke-width:2px;}.cls-withdraw-3{fill:#234209;}</style></defs><title>Para Çek</title><g data-name="Layer 2"><rect class="cls-withdraw-1" width="100" height="100"/></g><g id="Para_Çek" data-name="Para Çek"><polygon class="cls-withdraw-2" points="45.67 71.1 11 71.1 36.55 32 71.22 32 45.67 71.1"/><polyline class="cls-withdraw-2" points="74.86 39.45 49.32 78.55 12.82 78.55"/><polyline class="cls-withdraw-2" points="78.51 46.9 52.97 86 18.3 86"/><path class="cls-withdraw-2" d="M80.93,39.38a12.71,12.71,0,0,0-4.65-24.55H23.72a12.71,12.71,0,0,0-4.25,24.7" transform="translate(0 0)"/><path class="cls-withdraw-3" d="M35.75,48.3,50.6,43.2l-1.91,3-14.92,5.1Zm-3.32,5.1,15-5.1-1.91,3.05-15,5.1ZM43.81,39.45H47L31.66,63.38H28.37ZM30.91,60.18h6.8a7.92,7.92,0,0,0,3.75-.83,6.73,6.73,0,0,0,2.63-2.49L45.86,54h3.23l-1.75,2.85a13.75,13.75,0,0,1-4.9,4.9,13.34,13.34,0,0,1-6.65,1.62H28.85Z" transform="translate(0 0)"/></g></svg>
