<?xml version="1.0" encoding="UTF-8"?> <!-- Generator: Adobe Illustrator 24.1.2, SVG Export Plug-In . SVG Version: 6.00 Build 0) --> <svg xmlns="http://www.w3.org/2000/svg" xmlns:xlink="http://www.w3.org/1999/xlink" version="1.1" id="Layer_1" x="0px" y="0px" viewBox="0 0 100 100" style="enable-background:new 0 0 100 100;" xml:space="preserve"> <style type="text/css"> .st0{fill:#FFFFFF;} </style> <path class="st0" d="M50.2,4c1.5,1.4,2.7,3.1,3.8,4.9c3.9,6.7,2.6,13.2-1,19.6c-3.2,5.5-7.7,9.8-12.2,14.1c-3.2,3-5.8,6.6-7.6,10.7 c-3.5,7.8-0.9,16.7,6.1,21.7c10.4,7.5,22.5,1.4,26.9-5.5c3.1-4.8,2.9-9.8,0.8-14.8c-0.1-0.3-0.3-0.6-0.4-0.9 C65,51.1,64.9,51,61.9,52c-2.4,0.8-4.5,1.9-6.2,3.8c-1.3,1.4-2.1,3.1-2.4,5c-0.1,0.6-0.3,1.1-0.9,1.2c-0.7,0.1-1.1-0.4-1.4-0.9 c-0.6-1.1-0.9-2.3-0.9-3.5c-0.2-6.4,0.4-12.7,3.9-18.3c2-3.1,4.5-5.8,7.2-8.3c1-0.9,1.9-1.8,2.9-2.7c0.2-0.2,0.4-0.4,0.7-0.3 c0.3,0.1,0.3,0.4,0.3,0.6c0,4.3,2.5,7,6.1,8.9c2.5,1.3,5,2.4,7.5,3.8c3.7,2.1,6.6,5,7.6,9.4c0.2,0.9,0.2,1.8,0.2,2.8 c0,5.7,0.1,11.4,0,17.1c0,3.9-1.9,6.9-5.1,9c-5.8,3.9-11.8,7.3-17.9,10.6c-2.9,1.6-5.6,3.4-8.7,4.7c-3.6,1.5-7.2,1.4-10.6-0.4 c-4.1-2.2-8.1-4.6-12.1-7c-4.1-2.4-8.3-4.8-12.4-7.2c-3.9-2.3-6-5.7-6.1-10.3c0-9.6-0.1-19.1,0-28.7c0-4.8,2.7-8.2,6.7-10.5 c7.8-4.5,15.6-8.8,23.3-13.5c1.1-0.6,2-1.4,3-2.2c2.8-2.4,4.1-5.3,3.5-9c-0.1-0.7-0.1-1.4-0.2-2.1C50,4.1,50.1,4,50.2,4z"></path> </svg> 