<?xml version="1.0" encoding="UTF-8"?> <!-- Generator: Adobe Illustrator 25.3.1, SVG Export Plug-In . SVG Version: 6.00 Build 0) --> <svg xmlns="http://www.w3.org/2000/svg" xmlns:xlink="http://www.w3.org/1999/xlink" version="1.1" id="Layer_1" x="0px" y="0px" viewBox="0 0 1000 1000" style="enable-background:new 0 0 1000 1000;" xml:space="preserve"> <path style="fill:#FFFFFF;" d="M48.4,653.5c0.5-5.4,1.4-10.9,1.5-16.3c0.2-25.2,0.1-50.4,0.1-76.7c3.4,0,6.2,0,9,0 c45.6,0,91.1-0.3,136.7,0.3c7.5,0.1,15.2,2.9,22.3,5.6c7.6,2.9,10.7,9.8,10.7,17.7c0.1,32.1,0.2,64.2,0,96.3 c-0.1,15.4-13.6,26.9-31.6,27c-21.3,0.1-42.7,0-64,0c-2.6,0-5.2,0-9.7,0c-0.2,15.3-0.3,29.9-0.7,44.5c-0.2,5.4-1.1,10.7-1.7,16.7 c-21.8,0-42.9,0.1-63.9-0.3c-1.8,0-5.1-3.7-5.1-5.8c-0.1-11.2,0.9-22.5,0.8-33.8c0-4-2.5-8-2.6-12.1c-0.4-10.8,0-21.6-0.2-32.4 c0-2.4-1-4.7-1.5-7.1C48.4,669.3,48.4,661.4,48.4,653.5z M153.5,653.1c0-13.1,0-25.8,0-38.6c-9.3,0-18.9,0-28.6,0 c0,13.2,0,25.9,0,38.6C134.6,653.1,143.7,653.1,153.5,653.1z"></path> <path style="fill:#FFFFFF;" d="M711.2,244.3c3.1,24.7-9,46.1-14.6,68.9c-1.3,5.3-2.7,10.7-5.2,15.5c-5.8,11.3-4.4,21.9-0.1,33.4 c5.8,15.7,9.7,32.2,15.3,48c3.8,10.7,9.1,20.9,13.8,31.3c2.2,4.8-2.4,14.6-12.1,14.5c-19.2-0.2-38.4-0.1-57.9-0.1 c-6.8-26.1-13.5-52.1-20.4-78.4c-3.3,0-6.4,0-9.5,0c-1.1,25.2-2.3,50.5-3.4,76.6c-20.4,0-39,0.1-57.7-0.2c-1.5,0-4.3-3.2-4.3-5 c-0.1-11.3,0.7-22.5,0.5-33.8c-0.1-4.8-2.4-9.6-2.4-14.4c-0.2-52.1-0.1-104.2-0.1-156.2c22.1,0,44.3,0,66.4,0c0,25.4,0,50.8,0,76.5 c4,0,7,0,10.3,0c0.8-3.3,1.6-6.3,2.3-9.3c5.3-22.4,10.5-44.8,15.8-67.2C669,244.3,690.1,244.3,711.2,244.3z"></path> <path style="fill:#FFFFFF;" d="M48.4,304.3c1.2-3.3,3.5-6.5,3.6-9.8c0.3-12.9,0.2-25.8-0.3-38.7c-0.2-6,1.2-8.6,7.8-8.4 c14.7,0.4,29.5,0.1,44.3,0.2c8.7,0,9.7,1.5,9.2,10.3c-0.7,10.7-1.6,21.5-1.3,32.2c0.1,5.7,3.7,11.4,3.7,17.1 c0.3,18.4-0.4,36.8-0.6,55.2c-0.1,13.6,0,27.1,0,41.2c23.9,0,46,0,69.6,0c0,18.2,0,35.7,0,52.7c-3.8-0.7-7.3-1.8-10.9-1.8 c-36.6-0.1-73.3,0-109.9-0.2c-5.1,0-10.1-1.9-15.2-3c0-7.4,0-14.7,0-22.1c2.6-8.7,2.4-17.4,1.9-26.5c-1-19.7-0.2-39.4-0.4-59.1 c-0.1-8.9-1-17.7-1.5-26.5C48.4,312.7,48.4,308.5,48.4,304.3z"></path> <path style="fill:#FFFFFF;" d="M411.1,560.4c25.4,0,49.9-0.2,74.4,0.3c2.5,0,6.1,3.6,7.2,6.3c11.8,29.2,23.2,58.5,34.8,87.8 c0.8,2,2.6,3.6,4,5.4c0.5-0.4,1-0.8,1.5-1.2c-3.3-32.5-6.5-65-9.8-98c25.3,0,48.3,0,72.2,0c0,70.4,0,140.3,0,209.6 c-3.1-0.1-6.4-0.4-9.7-0.4c-21.9,0-43.8-0.2-65.6,0.1c-4.5,0.1-6.7-1.6-7.9-5.5c-4.3-13-8-26.2-13.1-39 c-4.8-12.2-11.1-23.7-16.5-35.6c-1.3-2.8-1.4-6.1-2.8-8.8c-1.2-2.4-3.5-4.4-5.2-6.6c-0.6,0.4-1.3,0.9-1.9,1.3 c1.2,11.3,2.5,22.7,3.4,34c0.4,4.8-0.2,9.7-0.4,14.5c0,0.8-0.5,1.6-0.3,2.2c3.3,9.3,6.5,18.7,10.2,27.8c1.3,3.2-1.2,10.9-5.6,13.1 c-2.3,1.1-5,1.9-7.5,1.9c-17.9,0.2-35.9,0.2-53.8,0.1c-5.8,0-12.9-6.2-12.8-11.6c0.1-2.6,3.5-5.1,3.7-7.7c0.8-9.7,0.8-19.4,1.1-29.2 c0-1.1,0-2.1,0-3.2c0-51.1,0-102.2,0-153.2C410.7,563.8,410.9,562.5,411.1,560.4z"></path> <path style="fill:#FFFFFF;" d="M789.8,560.7c23.9,0,45.9,0,68.5,0c0,25.3,0,50.2,0,75.7c8,0,15.4,0,23.5,0c0-25,0-50,0-75.5 c21.8,0,43,0,64.3,0c0.1,0.2,0.7,0.6,0.7,1c0.2,29.9,0.4,59.9,0.6,89.8c0.1,19.2-1.3,38.6,1.3,57.4c1.2,8.5,4.2,17.3,3.6,26 c-0.7,10.1-5.8,19.7-4.6,30.3c0.1,1.1-6.9,4.2-10.6,4.2c-17.1,0.2-34.2-0.3-51.2-0.5c-1,0-2,0.5-4,1c0-26.2,0-52.1,0-78.4 c-7.6,0-14.9,0-23,0c0,26.3,0,52.9,0,78.8c-4.2-0.7-7.5-1.8-10.8-1.8c-16.6-0.2-33.2-0.2-49.8,0c-6.6,0.1-10.1-2.4-9.4-9.2 c0.9-9.6,2.2-19.2,2.9-28.8c0.2-3.2-1.4-6.6-1.4-9.8c-0.1-34-0.2-67.9,0-101.9c0.1-12.5,1.3-25,1.4-37.5 C791.9,574.8,790.6,568.2,789.8,560.7z"></path> <path style="fill:#FFFFFF;" d="M308,560.6c0,52.8,0,104.8,0,157.3c7.8,0,15.1,0,23.4,0c0-52,0-104.1,0-156.9c22.8,0,44.8,0,68.3,0 c0,69.9,0,140.1,0,209.9c-3.7-0.7-7.2-2-10.7-2c-40.8-0.1-81.7,0-122.5-0.2c-5.8,0-12.1-0.1-17.4-2.2c-6.8-2.6-10.2-9.3-10.2-16.5 c0-5.2,2.1-10.5,3.2-15.7c0.5-2.3,1.2-4.6,1.1-6.8c-0.6-21.4-1.6-42.8-1.9-64.3c-0.5-30.7-0.6-61.5-0.9-92.3c0-3.3,0-6.7,0-10.3 C263.3,560.6,285.1,560.6,308,560.6z"></path> <path style="fill:#FFFFFF;" d="M195.2,246.2c22.4,0,44.1,0,66.5,0c0,52.4,0,104.4,0,157c8,0,15.5,0,24,0c0-52.2,0-104.4,0-157 c23,0,45,0,67.2,0c0,6.6,0,12.9,0,19.1c0.2,45.3,0.6,90.5,0.6,135.8c0,3-2.4,6-3.6,9c-0.5,1.1-0.9,2.4-0.8,3.6 c0.4,11,0.8,21.9,1.4,32.9c0.3,5.2-1.4,7.6-7.1,7.6c-42.2-0.2-84.4,0.6-126.5-0.5c-16.6-0.4-22.6-5-21.2-22.6c0.7-9,1-17.6-0.6-26.8 c-2-11.8-0.6-24.1-0.5-36.2c0.1-10.7,0.6-21.4,0.6-32.1c0-28.4-0.3-56.8-0.4-85.2C194.8,249.7,195.1,248.4,195.2,246.2z"></path> <path style="fill:#FFFFFF;" d="M541,403.8c0,18.4,0,35.3,0,51.8c-3.5,0-7.7,0-11.9,0c-45.1,0-90.2,0-135.2,0 c-19.3,0-27.6-9.2-27.5-28.8c0.2-49.3,0.3-98.5,0-147.8c-0.1-24.4,9.6-32.4,30.4-32.7c46.9-0.7,93.8-0.2,140.8-0.1 c0.7,0,1.5,0.4,1.9,0.5c5,19.5-3.8,35.3-13,51c-0.9,1.5-4.5,1.9-6.9,1.9c-20.8,0.1-41.7,0.1-62.5,0.1c-2.6,0-5.1,0.2-8.1,0.4 c0,34.6,0,68.8,0,103.8C479.2,403.8,509.3,403.8,541,403.8z"></path> <path style="fill:#FFFFFF;" d="M781.3,560.3c5.7,20.4-4.4,35.9-13,51.7c-0.8,1.5-4.5,1.9-6.8,1.9c-23.2,0.1-46.4,0.1-70.2,0.1 c0,34.6,0,68.9,0,104.4c2.5,0,5.3,0,8.1,0c24.5,0,49,0.2,73.5-0.1c7-0.1,10.9,0.4,10.9,9.2c-0.1,14,1.4,28.1,2.1,41.3 c-5.5,0-9.3,0-13.1,0c-46.7,0-93.3-0.6-140,0.3c-20.2,0.4-29.6-18.7-23.8-33.2c1.1-2.8,1.2-6.2,1-9.2c-0.2-4.9-1.5-9.7-1.6-14.6 c-0.1-40-0.1-80-0.1-120.1c0-21.6,8.4-31.3,29.7-31.5C685.8,559.9,733.5,560.3,781.3,560.3z"></path> <path style="fill:#FFFFFF;" d="M778.3,455.1c-0.1-15-1.5-29.5,3.1-43.9c1-3.2-2.2-7.9-3.7-11.9c-11.6-30-23.2-60-34.7-90 c-4.6-12-9.8-23.8-12.9-36.1c-1.9-7.7-0.4-16.3-0.4-25.6c16.5,0,32,0.4,47.4-0.1c14.4-0.4,15.5-0.5,20.3,16.3 c5.4,19,9.1,38.6,13.6,57.8c0.5,2,1.3,3.9,3.4,6.1c6.3-27.2,12.7-54.4,19-81.6c21.9,0,43.2,0,66.1,0c-0.8,9.9,0.3,19.9-2.6,28.8 c-8.3,25.5-18.1,50.4-27.3,75.5c-6.3,17.1-12.5,34.1-18.9,51.1c-1.1,2.9-4.2,5.2-4.9,8.2c-0.8,3.4-0.9,7.7,0.6,10.6 c5.2,9.8,1.4,19.7,1.2,29.5c0,1.5-6.3,4.1-9.8,4.2c-15.8,0.5-31.6,0.2-47.4,0.2C786.7,454.3,783.2,454.8,778.3,455.1z"></path> </svg> 