<?xml version="1.0" encoding="UTF-8"?> <!-- Generator: Adobe Illustrator 25.3.1, SVG Export Plug-In . SVG Version: 6.00 Build 0) --> <svg xmlns="http://www.w3.org/2000/svg" xmlns:xlink="http://www.w3.org/1999/xlink" version="1.1" id="Layer_1" x="0px" y="0px" viewBox="0 0 1000 1000" style="enable-background:new 0 0 1000 1000;" xml:space="preserve"> <path style="fill:#FFFFFF;" d="M544.5,601.7c-25.8-7.7-34.1-29.2-37.1-51.9c-5-38.3-3.4-76.6,10.3-113.4c5.5-14.8,11.5-29,23.7-40.4 c10.2-9.5,21.9-11,33.3-7.1c28.6,9.8,48.5,33.2,47.9,65.5c-0.5,29.5-6.2,58.1-14.6,85.9c-5.3,17.6-16.5,33.6-26.3,49.6 c-3.1,5.1-10.2,7.9-15.5,11.7C559,601.7,551.7,601.7,544.5,601.7z M582.1,480c-0.5-0.1-1-0.1-1.5-0.2c0-6,0.7-12.1-0.3-17.9 c-0.6-3.6-3.8-6.9-5.8-10.3c-2.7,2.1-5.9,3.9-8,6.5c-2.4,3-4.2,6.5-5.7,10.1c-14.9,35.2-23.4,71.3-14.7,109.6 c0.6,2.5,2.4,4.8,3.6,7.2c2.5-1.8,5.5-3.1,7.3-5.4c11.5-15,13.7-33.6,18-51.1C578.8,512.6,579.9,496.2,582.1,480z"></path> <path style="fill:#FFFFFF;" d="M39.2,501.2c0.6-2.1,1.6-4.2,1.7-6.3c1.9-33.6,3.6-67.2,5.6-100.9c0.2-3.2,1.1-6.4,2.2-9.4 c1.8-5.4,5.7-7.8,11.2-5.3c18,8.5,32,21,39.1,40c0.9,2.5,0.4,5.8-0.2,8.5c-10,47.4-20.2,94.8-30.3,142.3c-0.3,1.4,0,2.9,0,5.4 c6.7-0.6,13.1-1.6,19.5-1.5c3.9,0.1,8.7,0.9,11.5,3.3c2.6,2.2,4,6.9,4,10.5c0,1.9-3.9,4.7-6.5,5.4c-7.8,2.1-15.9,3.3-23.8,4.9 c-18.2,3.6-25.7-0.1-33.8-16.3C39.2,555.1,39.2,528.1,39.2,501.2z"></path> <path style="fill:#FFFFFF;" d="M201.6,601.7c-16.4-6.8-21.3-20.9-21.4-36.6c-0.1-15.9,0-32.2,3.4-47.6c3.3-14.9,9.9-29.5,17.3-43 c7.2-13,18.8-14.6,31.6-6.9c14.8,8.9,23.3,22,21.2,39.5c-1.5,12.5-4.8,25-8.5,37.1c-2.4,8-7.2,8.6-13.3,2.8c-7.3-7-6.8-16-6-25.1 c0.4-4.8,0.1-9.7,0.1-15.4c-18.3,11.5-25.2,60-18.4,85.8c4.1-3.6,7.2-7.9,11.3-9.6c4.2-1.7,9.5-0.9,15.3-1.3 c-1.1,10.8-8,15.4-14.6,20.4C213.6,601.7,207.6,601.7,201.6,601.7z"></path> <path style="fill:#FFFFFF;" d="M405.5,601.7c-7.8-2.4-11.7-6.8-10.9-15.7c2.2-25.1-12-46.1-18.4-69.1c-3.8-13.6-9.4-26.8-14.6-39.9 c-2.2-5.6-0.4-8.3,4.9-9.9c11.4-3.4,20.3,0.1,23.6,11.1c5,16.9,8.9,34.2,13.5,51.2c0.8,3.1,2.8,5.8,5.6,11.4 c3.2-8.1,5.6-13.6,7.5-19.1c5.9-16.8,11.5-33.6,17.7-50.3c1.1-3,4.1-7.1,6.6-7.4c2.4-0.3,6.2,3.1,7.9,5.8 c6.9,10.8,10.9,21.7,3.7,34.7c-10.9,19.4-21,39.3-30.8,59.3c-4.5,9.2-7.4,19.3-11,29c-1.1,3-2.3,6-3.4,9.1 C406.7,601.7,406.1,601.7,405.5,601.7z"></path> <path style="fill:#FFFFFF;" d="M901,559.2c-1.2,13.3-2.4,26.6-3.6,39.8c-11.2-0.4-14.3-3.1-15.2-12.7c-1.6-17.2-3.6-34.4-4.7-51.7 c-0.9-14.8-0.7-29.6-0.9-44.5c0-2.1-0.2-4.2-0.1-6.3c0.3-3.5,0.8-7,1.2-10.5c3.9,0.8,8.7,0.5,11.6,2.7c7.9,6.1,15.6,12.8,22.1,20.3 c3.5,4.1,5.6,10.4,6.1,15.9c1.4,13.5,1.5,27.1,2.2,43.3c6.5-26.8,12.5-51,18.2-75.2c2.9-12.3,9.8-15.2,18.4-5.9 c5.5,5.9,10.4,13.6,7,23.1c-11.3,32.1-22.4,64.3-33.9,96.4c-0.7,2.1-4,5.3-4.8,5c-4.4-2-10.4-3.9-12-7.6c-4.1-9.1-6.2-19.2-9.1-28.9 c-0.4-1.3-0.9-2.5-1.3-3.8C901.8,559,901.4,559.1,901,559.2z"></path> <path style="fill:#FFFFFF;" d="M296.7,539.5c11-19.2,22-38.4,33.1-57.6c2.3-4,4.4-8.3,7.3-11.9c3.7-4.6,10-2.8,11.9,2.8 c6.7,20.1-0.8,37.5-11.6,53.6c-10,14.8-21.3,28.7-32.4,43.6c4.3,7.7,8.9,16.1,13.5,24.5c-9.9,7.9-9.9,7.9-29.3-13.5 c-0.8,6.2-1.5,12.2-2.3,18.1c-11.6,0.4-15.3-2.6-16.4-13c-1.7-16.6-4.2-33.1-5-49.8c-1-21.3-0.8-42.7-0.9-64.1 c0-6.7,4.3-9.3,9.3-5.3c8.4,6.9,15.9,14.9,23.2,22.9c1.4,1.5,1.1,5,0.8,7.4c-1.3,13.8-2.8,27.6-4.2,41.3 C294.7,538.9,295.7,539.2,296.7,539.5z"></path> <path style="fill:#FFFFFF;" d="M833.3,582.1c-20.4,2.7-20.4,2.7-28.1,17.1c-11.1-2.1-13.5-5.2-10.8-17.5c5.6-26.1,11.8-52,17.9-78 c2-8.7,4.4-17.2,6.8-25.8c3.2-11.4,9.2-15.6,20.6-12.6c8.5,2.3,16.9,6.1,24.4,10.7c3,1.9,5.3,8.2,4.6,11.9 c-6.3,34.5-13.4,68.8-20.2,103.2c-0.8,4.2-0.3,9.3-7.4,8.7c-6.8-0.6-7.4-4.9-7.4-10C833.6,587.5,833.4,585.2,833.3,582.1z M817.3,566.9c7.2-1.4,15.3,4.3,16.2-6.3c1.2-13.4,1.5-26.9,2.2-41.7C829.5,535,823.8,550,817.3,566.9z"></path> <path style="fill:#FFFFFF;" d="M130.1,591.4c4.5-17.9,9.6-35.7,13.3-53.7c4-19.4,6.4-39.1,10.2-58.5c0.8-3.9,3.8-8.9,7.1-10.3 c2.5-1.1,7.9,1.9,10.6,4.5c8.9,8.5,14.6,17.2,9,31.2c-10.3,25.8-18.1,52.6-27.8,78.6c-3.2,8.5-8.6,16.6-19.9,16.8 c-12.6,0.3-21.2-4.3-24.6-16.4c-3.6-12.7-6.3-26-7-39.2c-1-21-0.1-42.2,0.3-63.3c0.1-2.9,1.4-6.3,3.4-8.4c0.8-0.9,5,0.6,7.1,1.8 c17.3,10.2,22.1,22,19.9,41.9c-2.6,23.6-4,47.3-5.8,70.9c-0.1,1.1,0.3,2.2,0.5,3.2C127.6,590.9,128.9,591.1,130.1,591.4z"></path> <path style="fill:#FFFFFF;" d="M677.8,505.7c-18.1,14.3-27.9,67.3-17.1,86.8c7.3-5.5,12.2-16.4,24.1-10.7 c-1.9,9.7-9.2,17.3-18.4,18.6c-11.3,1.6-22.2-2.8-26.2-13c-4-10.4-6.8-21.7-7.6-32.8c-1.9-27.2,6.4-52.4,18.7-76.4 c5.2-10.1,20.7-14.3,31.2-9.1c17.3,8.7,25.1,21.8,22.8,40.6c-1.4,11.1-4.4,22.1-7.4,33c-0.8,3-4.2,7.5-6.2,7.4 c-3.3-0.2-8.6-3-9.3-5.7c-2.1-8.1-2.4-16.7-3.4-25.1C678.6,515.1,678.3,511,677.8,505.7z"></path> <path style="fill:#FFFFFF;" d="M747.5,584.3c5.6,0.5,11.3,0.6,16.7,1.6c2.1,0.4,3.9,2.7,5.8,4.1c-1.5,1.8-2.8,4.8-4.7,5.3 c-6.3,1.9-12.8,3.3-19.3,4c-7.4,0.8-15.1-5.7-15.4-13.2c-1.5-31.6-2.8-63.1-3.8-94.7c-0.1-2.7,2.7-7,5.2-8 c15-5.8,30.2-11.5,45.6-15.8c5.2-1.4,11.6,0.9,17.3,2.1c1.6,0.4,3.7,3.1,3.8,4.9c0.2,8.6,0.1,17.3-0.4,25.9 c-0.4,5.7-3.8,8.7-9.8,9.7c-9.6,1.5-19,3.8-28.4,5.7c-1.7,8.2-2.8,16.1-5,23.8c-2,7.3-1.4,10.8,7.5,9.4c4.8-0.7,10.1-0.6,11.9,6.1 c1.8,6.9,1.1,11.8-7.3,12.8c-2.7,0.3-5.3,1-7.9,1.6C749.2,572.1,749.2,572.1,747.5,584.3z"></path> </svg> 