<?xml version="1.0" encoding="UTF-8"?> <!-- Generator: Adobe Illustrator 24.1.2, SVG Export Plug-In . SVG Version: 6.00 Build 0) --> <svg xmlns="http://www.w3.org/2000/svg" xmlns:xlink="http://www.w3.org/1999/xlink" version="1.1" id="Layer_1" x="0px" y="0px" viewBox="0 0 100 100" style="enable-background:new 0 0 100 100;" xml:space="preserve"> <style type="text/css"> .st0{fill:#FFFFFF;} .st1{fill-rule:evenodd;clip-rule:evenodd;fill:#FFFFFF;} </style> <g> <path class="st0" d="M50.6,19.9l27.6,14.4c0.3,0.1,0.6,0.3,0.8,0.5c0.1,0.1,0.2,0.1,0.2,0.2c0.1,0.1,0.1,0.2,0.2,0.2 c0.2,0.2,0.4,0.5,0.5,0.8c0,0.1,0.1,0.2,0.1,0.3c0,0,0,0,0,0c0.1,0.2,0.2,0.5,0.2,0.8c0,0,0,0,0,0c0,0.2,0,0.4,0,0.6l0.5,0.2 c0-0.2,0-0.4,0-0.6c0-0.3-0.1-0.5-0.1-0.8c0-0.1-0.1-0.2-0.1-0.3c-0.4-1.1-1.1-2-2.1-2.5L50.3,19.2L50,19l-0.2,0.1L21.6,33.8 c-1,0.5-1.8,1.4-2.2,2.5c0,0.1-0.1,0.2-0.1,0.3c-0.1,0.2-0.1,0.4-0.1,0.6c0,0.1,0,0.1,0,0.2c0,0.2,0,0.4,0,0.6h0l0.5-0.2 c0-0.2,0-0.4,0-0.6c0,0,0,0,0,0c0-0.3,0.1-0.5,0.2-0.8l0,0c0-0.1,0.1-0.2,0.1-0.3c0.2-0.3,0.4-0.6,0.6-0.9c0.3-0.4,0.7-0.7,1.1-0.9 l27.6-14.4"></path> <path class="st0" d="M94.7,45.2c-0.3-0.7-1-1.2-1.7-1.2c0,0-0.1,0-0.1,0l-42.8,2.5H50h-0.1L7.2,43.9H7.1l0,0 c-0.8,0-1.4,0.5-1.7,1.2l-3.1,8.1l3.1,8.1c0.3,0.7,1,1.2,1.7,1.2c0,0,0.1,0,0.1,0L50,60l42.8,2.7h0.1c0.8,0,1.4-0.5,1.7-1.2 l3.1-8.2L94.7,45.2z M94.2,61.3c-0.2,0.5-0.7,0.8-1.2,0.8h-0.1L50,59.5L7.2,62H7.1c-0.5,0-1-0.3-1.2-0.8l-3.1-7.9l3.1-7.9 c0.2-0.5,0.7-0.8,1.2-0.8h0.1L49.9,47H50h0.1l42.8-2.5h0.1c0.5,0,1,0.3,1.2,0.8l3.1,7.9L94.2,61.3z"></path> <path class="st0" d="M12.6,42c0.1-0.6,0.4-1.2,0.8-1.7c0.1-0.1,0.2-0.2,0.3-0.3c0.1-0.1,0.2-0.2,0.3-0.3l0,0 c0.1-0.1,0.2-0.2,0.3-0.2c0.3-0.2,0.7-0.4,1-0.6l1.4-0.5c0-0.1,0-0.2,0-0.4c0-0.1,0-0.2,0-0.4L15,38.2c-0.9,0.3-1.6,0.9-2.2,1.6 c-0.1,0.1-0.2,0.2-0.2,0.3c-0.1,0.1-0.2,0.3-0.3,0.5c-0.1,0.1-0.1,0.2-0.2,0.4c0,0.1-0.1,0.1-0.1,0.2c-0.3,0.7-0.4,1.4-0.3,2.1 l0.7,0C12.4,42.9,12.5,42.5,12.6,42z"></path> <path class="st0" d="M87.9,41.2c0-0.1-0.1-0.1-0.1-0.2c-0.1-0.1-0.1-0.2-0.2-0.4c-0.1-0.1-0.1-0.2-0.2-0.3c0-0.1-0.1-0.1-0.1-0.2 c-0.6-0.9-1.4-1.6-2.4-2l-1.6-0.6c0,0.1,0,0.2,0,0.2c0,0.2,0,0.3,0,0.5l1.4,0.5c0.4,0.2,0.8,0.4,1.2,0.7c0.1,0,0.1,0.1,0.1,0.1l0,0 c0.2,0.2,0.4,0.4,0.6,0.6c0,0.1,0.1,0.1,0.1,0.1c0.1,0.1,0.1,0.2,0.2,0.3c0.2,0.3,0.3,0.6,0.4,0.9c0.1,0.2,0.1,0.4,0.2,0.7 c0,0.1,0,0.2,0,0.4c0,0.2,0,0.4,0,0.7v0.1l0.7,0C88.3,42.6,88.2,41.9,87.9,41.2z"></path> <line class="st0" x1="88.2" y1="43.6" x2="87.5" y2="43.6"></line> <line class="st0" x1="86" y1="63" x2="86.7" y2="63"></line> <line class="st0" x1="12.5" y1="43.6" x2="11.8" y2="43.5"></line> <line class="st0" x1="13.3" y1="62.8" x2="14" y2="62.8"></line> <polyline class="st0" points="87,43.7 61.2,45.2 60.9,45.2 52.1,45.7 51.9,45.7 50,45.8 48.4,45.7 48.1,45.7 39.3,45.2 39,45.2 39,45.2 13,43.6 "></polyline> <path class="st0" d="M64.7,31.7c-0.2-0.4-0.6-0.7-1.1-0.9l-8.4-2.5c-0.1,0-0.3-0.1-0.4-0.1c0,0-0.1,0-0.1,0c-0.8,0-1.5,0.5-1.7,1.3 l-2.8,9.4v0l-2.9-9.5c-0.2-0.8-0.9-1.3-1.7-1.3c-0.2,0-0.4,0-0.5,0.1l-8.4,2.6c-0.2,0.1-0.3,0.1-0.5,0.2c-0.1,0.1-0.3,0.2-0.4,0.4 c-0.1,0.1-0.2,0.3-0.3,0.4c-0.1,0.2-0.1,0.4-0.1,0.7c0,0.2,0,0.4,0.1,0.5l3.6,11.8l9.2,0.6c0,0,0-0.1,0-0.1l1.9-6.5l-1.9,6.4 c0,0,0,0.1,0,0.1l1.9,0.1l11.2-0.7L64.8,33C64.9,32.6,64.9,32.1,64.7,31.7z M41.3,37l-0.1-0.2l0.7-0.2l0.1,0.2c0,0,0.3,0.8,0.9,0.6 c0.6-0.2,0.3-1,0.3-1l-1-3.4l-0.4,0.1l-0.2-0.6l1.4-0.4l0.2,0.6l-0.4,0.1l1,3.4c0,0,0.5,1.5-0.8,1.9C41.7,38.5,41.3,37,41.3,37z M45.7,42.4c-0.3,0.1-0.7,0-0.9-0.4C44.8,42,44.7,42,44.7,42c0,0,0,0,0,0c0.1,0.4,0.4,0.8,0.7,1.2c-0.2,0-0.3,0-0.5,0.1 c-0.2,0-0.3,0.1-0.4,0.2c0.1-0.4,0.1-0.9-0.1-1.4c0,0,0,0,0,0s-0.1,0-0.1,0.1c0,0.4-0.2,0.7-0.5,0.8c-0.8,0.2-1.4-0.7-1-1.8 c0.2-0.7,0.5-1.4,0.9-2.1c0.7,0.4,1.3,0.8,1.9,1.2C46.5,41.2,46.4,42.2,45.7,42.4z M56.4,43c-0.3-0.1-0.6-0.4-0.5-0.8 c0-0.1,0-0.1-0.1-0.1c0,0,0,0,0,0c-0.2,0.4-0.2,0.9-0.1,1.4c-0.1-0.1-0.3-0.2-0.4-0.2c-0.2-0.1-0.3-0.1-0.5-0.1 c0.3-0.3,0.6-0.7,0.7-1.2c0,0,0,0,0,0s-0.1,0-0.1,0.1c-0.2,0.3-0.5,0.5-0.9,0.3c-0.7-0.3-0.8-1.3,0.2-2c0.6-0.5,1.2-0.9,1.9-1.2 c0.4,0.7,0.6,1.4,0.9,2.1C57.7,42.4,57.1,43.2,56.4,43z M58.7,38.6l-1.6-0.5l0.2-0.7l0.4,0.1l0.1-0.7l-1-0.3l-0.3,0.6l0.4,0.1 L56.6,38L55,37.5l0.2-0.8l0.4,0.1l2.5-4.4l0.9,0.3l-0.4,5.1l0.4,0.1L58.7,38.6z"></path> <polygon class="st0" points="57.8,36 58,34.1 57.1,35.8 "></polygon> <g> <path class="st0" d="M40.5,79L32,78.6c-1,0-1.8-0.8-2-1.8H18c-0.4,0-0.7-0.1-1-0.1c-0.1,0-0.2-0.1-0.3-0.1c-0.1,0-0.2-0.1-0.3-0.1 l0,0c-0.1-0.1-0.2-0.1-0.3-0.2c-0.2-0.1-0.4-0.3-0.5-0.4c0,0,0,0,0,0c-0.1-0.1-0.2-0.2-0.2-0.2c-0.1-0.1-0.2-0.3-0.3-0.4 c-0.1-0.2-0.2-0.3-0.3-0.5c0-0.1-0.1-0.2-0.1-0.3c-0.1-0.3-0.2-0.7-0.2-1.1l0-0.6L13.4,63l-0.2,0l0.7,9.2l0.1,1.1 c0.1,1.6,1.2,3,2.8,3.5c0.1,0,0.2,0.1,0.3,0.1c0.2,0,0.4,0.1,0.6,0.1c0.1,0,0.3,0,0.4,0h11.8c0.2,1,1.1,1.7,2.2,1.8l8.5,0.4 c0.7,0,1.3,0.1,1.9,0.1c0-0.1,0-0.1-0.1-0.2L40.5,79z"></path> <path class="st0" d="M31,76.1C31,76.1,31,76.1,31,76.1C31,76,31,76,31,76c0,0,0,0-0.1-0.1c0,0,0,0-0.1-0.1l0,0l-0.1,0l0,0l-0.1,0 l-0.1,0l0,0l-0.1,0l0,0l-0.1,0H18c-0.1,0-0.2,0-0.2,0h-0.1c-0.1,0-0.1,0-0.2,0h0c-0.1,0-0.1,0-0.2-0.1l-0.1,0 c-0.1,0-0.1,0-0.2-0.1l0,0c-0.1,0-0.1-0.1-0.2-0.1l0,0c-0.1,0-0.1-0.1-0.2-0.1l0,0c-0.1,0-0.1-0.1-0.2-0.1l0,0 c-0.1,0-0.1-0.1-0.1-0.1l0,0c-0.1-0.1-0.1-0.1-0.1-0.1l0,0c0-0.1-0.1-0.1-0.1-0.1l0,0c0-0.1-0.1-0.1-0.1-0.2 c-0.1-0.1-0.1-0.2-0.2-0.3c0-0.1,0-0.1-0.1-0.1c0-0.1-0.1-0.1-0.1-0.2c0,0,0,0,0-0.1c0-0.1,0-0.1,0-0.2c0,0,0,0,0-0.1 c0-0.1,0-0.1,0-0.2L14.6,63L14,63l0.8,10.3c0,0.1,0,0.3,0.1,0.4c0,0.1,0,0.2,0.1,0.3c0,0.1,0.1,0.1,0.1,0.2 c0.1,0.1,0.1,0.3,0.2,0.4c0.1,0.1,0.1,0.2,0.2,0.2c0,0,0.1,0.1,0.1,0.1c0.1,0.1,0.2,0.2,0.3,0.3c0,0,0.1,0.1,0.1,0.1 c0.1,0.1,0.1,0.1,0.2,0.2c0.1,0.1,0.2,0.1,0.2,0.2c0.1,0.1,0.2,0.1,0.2,0.1c0.4,0.2,0.9,0.3,1.4,0.3h12.3c0.1,0,0.2,0,0.3,0.1 c0,0,0,0,0,0c0,0,0,0,0,0v0c0,0.1,0.1,0.1,0.1,0.2c0,0.8,0.6,1.4,1.4,1.4l8.3,0.4l1.8,0.1c-0.1-0.2-0.2-0.4-0.3-0.5l-1.8-0.1 L32,77.4c-0.5,0-0.8-0.4-0.8-0.9v-0.1c0,0,0,0,0-0.1c0,0,0,0,0,0c0,0,0,0,0-0.1v0c0,0,0,0,0-0.1v0C31.1,76.2,31.1,76.2,31,76.1 L31,76.1C31.1,76.1,31.1,76.1,31,76.1z"></path> <path class="st0" d="M95.5,44.9c-0.4-1.1-1.4-1.7-2.5-1.7c-0.1,0-0.1,0-0.2,0l-4.3,0.2c0-0.5,0-1-0.1-1.5c0-0.2-0.1-0.3-0.1-0.5 c-0.1-0.2-0.2-0.5-0.3-0.7c-0.6-1.2-1.6-2.1-2.8-2.6l-1.7-0.6c-0.1-1.9-1-3.7-2.5-5c-0.1-0.1-0.2-0.2-0.3-0.2 c-0.1-0.1-0.1-0.1-0.2-0.1c-0.1-0.1-0.3-0.2-0.4-0.3c-0.1-0.1-0.2-0.1-0.4-0.2L51.4,16.9l0,0l-0.2-0.1l-0.1-0.1l-0.1-0.1l-0.6-0.3 l-0.2-0.1L50,16.1l-0.1,0.1l-0.2,0.1l-0.6,0.3l-0.1,0.1l-0.1,0.1l-0.2,0.1l0,0L20.4,31.6c-0.1,0.1-0.2,0.1-0.4,0.2 c-0.2,0.1-0.3,0.2-0.4,0.3c-0.1,0-0.1,0.1-0.2,0.1c-0.2,0.2-0.4,0.3-0.6,0.5c-1.3,1.2-2.1,2.9-2.2,4.7L15,38 c-1.2,0.5-2.1,1.3-2.7,2.4c0,0.1-0.1,0.1-0.1,0.2c-0.4,0.8-0.6,1.7-0.6,2.6L7.2,43c0,0-0.1,0-0.2,0c-1.1,0-2.1,0.7-2.5,1.7 l-3.3,8.4l0.2,0.5l3.1,7.9c0.4,1.1,1.4,1.7,2.5,1.7c0.1,0,0.1,0,0.2,0l5.9-0.3l0.2,0l0.7,0l0.5,0l35.4-2l35.4,2.2l0.1,0l-0.8,10.1 c0,0.1,0,0.2,0,0.2c0,0,0,0,0,0.1c0,0.1,0,0.1,0,0.2c0,0,0,0,0,0.1c0,0.1,0,0.1-0.1,0.2c-0.1,0.2-0.1,0.3-0.2,0.4 c0,0.1-0.1,0.1-0.1,0.2l0,0c0,0,0,0,0,0.1L84,74.8c0,0,0,0-0.1,0.1c0,0-0.1,0.1-0.1,0.1l0,0c-0.1,0.1-0.1,0.1-0.2,0.1l0,0 c0,0-0.1,0.1-0.1,0.1l0,0l0,0c-0.1,0-0.1,0.1-0.2,0.1l0,0l0,0c-0.1,0-0.1,0.1-0.2,0.1l0,0c0,0-0.1,0-0.1,0l-0.1,0l-0.1,0 c-0.1,0-0.1,0-0.1,0l-0.1,0c-0.1,0-0.1,0-0.2,0l-0.1,0c-0.1,0-0.2,0-0.2,0H69.7c-0.1,0-0.2,0-0.3,0.1c0,0-0.1,0-0.1,0 c0,0-0.1,0-0.1,0c0,0-0.1,0-0.1,0.1c0,0-0.1,0-0.1,0.1c0,0,0,0-0.1,0.1l0,0.1l0,0c0,0,0,0,0,0.1l-0.1,0.1l0,0l0,0c0,0,0,0,0,0 c0,0,0,0,0,0c0,0,0,0,0,0c0,0,0,0,0,0.1c0,0,0,0,0,0v0.1c0,0.1,0,0.1,0,0.2c0,0.1-0.1,0.3-0.2,0.4c-0.1,0.1-0.1,0.1-0.2,0.2 c-0.1,0.1-0.3,0.2-0.5,0.2h-0.2l-0.6,0h-0.1l-0.8,0h-0.1l-6.5,0.3l-0.8,0c-0.1,0.2-0.1,0.4-0.2,0.5l0.9,0L68,78 c0.8,0,1.4-0.7,1.4-1.4c0-0.1,0-0.1,0.1-0.2v0c0,0,0,0,0,0c0,0,0,0,0,0c0.1-0.1,0.2-0.1,0.3-0.1H82c0.5,0,1-0.1,1.4-0.3 c0.1,0,0.2-0.1,0.2-0.1c0.1-0.1,0.2-0.1,0.2-0.2c0.1-0.1,0.2-0.2,0.3-0.3c0.1-0.1,0.2-0.2,0.3-0.3c0,0,0.1-0.1,0.1-0.1 c0.1-0.1,0.1-0.2,0.2-0.2c0.1-0.1,0.1-0.3,0.2-0.4c0-0.1,0.1-0.1,0.1-0.2c0-0.1,0.1-0.3,0.1-0.4c0-0.1,0-0.1,0-0.2L86,63.2l0.6,0 l0,0l-0.8,10.2c0,0.4-0.1,0.7-0.2,1.1c0,0.1-0.1,0.2-0.1,0.3c-0.4,0.8-1,1.4-1.8,1.8l-0.1,0c-0.2,0.1-0.4,0.2-0.6,0.2 c-0.3,0.1-0.7,0.1-1,0.1H70c-0.1,1-1,1.7-2,1.8L59.6,79l-1.1,0c0,0.1-0.1,0.1-0.1,0.2c0.4,0,0.8,0,1.2,0l8.5-0.4 c1,0,1.9-0.8,2.2-1.8H82c0.1,0,0.3,0,0.4,0c0.2,0,0.4-0.1,0.6-0.1c0.1,0,0.2-0.1,0.3-0.1c1.5-0.5,2.6-1.9,2.8-3.5l0.1-1.1l0.7-9 l5.9,0.4c0.1,0,0.1,0,0.2,0c1.1,0,2.1-0.7,2.6-1.8l3.3-8.5L95.5,44.9z M83.4,37.9c0-0.1,0-0.2,0-0.2l1.6,0.6c1,0.4,1.8,1.1,2.4,2 c0,0.1,0.1,0.1,0.1,0.2c0.1,0.1,0.1,0.2,0.2,0.3c0.1,0.1,0.1,0.2,0.2,0.4c0,0.1,0.1,0.1,0.1,0.2c0.3,0.7,0.4,1.4,0.3,2.2l0,0 l-0.7,0v-0.1c0-0.2,0-0.4,0-0.7c0-0.1,0-0.2,0-0.4c0-0.2-0.1-0.4-0.2-0.7c-0.1-0.3-0.2-0.6-0.4-0.9c-0.1-0.1-0.1-0.2-0.2-0.3 c0-0.1-0.1-0.1-0.1-0.1c-0.2-0.2-0.4-0.4-0.6-0.6l0,0c-0.1,0-0.1-0.1-0.1-0.1c-0.4-0.3-0.8-0.5-1.2-0.7l-1.4-0.5 C83.4,38.2,83.4,38,83.4,37.9z M16.7,38.9l0.2-0.1l0-0.4c0-0.1,0-0.1,0-0.2c0-0.2,0-0.5,0-0.7c0-0.1,0-0.2,0-0.2 c0.1-2.4,1.5-4.5,3.6-5.6l12.6-6.6l15.6-8.1l0.1,0l0.2-0.1l0.1-0.1l0.1-0.1l0.6-0.3l0.2-0.1l0.2,0.1l0.6,0.3l0.1,0.1l0.1,0.1 l0.2,0.1l0.1,0L67,25.2l12.6,6.5c2.1,1.1,3.5,3.2,3.6,5.6c0,0.1,0,0.2,0,0.2c0,0.2,0,0.5,0,0.7c0,0.1,0,0.1,0,0.2l0,0.4l0.2,0.1 l1.2,0.5c0.1,0,0.2,0.1,0.3,0.1l0.1,0c0.1,0,0.1,0.1,0.2,0.1l0.1,0c0.1,0.1,0.2,0.1,0.2,0.2l0.1,0c0.1,0,0.1,0.1,0.2,0.1l0.1,0 c0.1,0.1,0.1,0.1,0.2,0.2l0,0c0,0,0.1,0.1,0.1,0.1l0,0c0,0.1,0.1,0.1,0.1,0.1c0,0.1,0.1,0.1,0.1,0.1s0.1,0.1,0.1,0.2 c0,0.1,0.1,0.1,0.1,0.1c0,0.1,0.1,0.1,0.1,0.2c0,0,0,0.1,0.1,0.1c0.1,0.1,0.1,0.2,0.1,0.3c0,0.1,0.1,0.2,0.1,0.3c0,0,0,0.1,0,0.1 c0,0.1,0,0.1,0.1,0.2c0,0,0,0.1,0,0.1c0,0.1,0,0.2,0.1,0.3c0,0.1,0,0.2,0,0.3c0,0,0,0.1,0,0.1c0,0.1,0,0.1,0,0.2c0,0,0,0.1,0,0.1 c0,0.1,0,0.2,0,0.3l0,0.1l0,0l-5.1,0.3l0.5-5.1l0-0.2c0-0.1,0-0.2,0-0.3c0-0.1,0-0.2,0-0.4s0-0.2,0-0.4c0-0.1,0-0.1,0-0.2 c-0.2-1.6-1-3.1-2.2-4.1L80.1,33c-0.2-0.1-0.4-0.3-0.5-0.4c-0.1-0.1-0.2-0.1-0.3-0.2L51,17.7l0,0l-0.2-0.1l-0.1-0.1l-0.1-0.1 L50,17.2l-0.5,0.3l-0.1,0.1l-0.1,0.1l-0.2,0.1l0,0L20.8,32.4c-0.1,0.1-0.2,0.1-0.3,0.2c-0.2,0.1-0.4,0.2-0.5,0.4l-0.1,0.1 c-0.1,0.1-0.2,0.1-0.2,0.2c-0.2,0.2-0.4,0.4-0.6,0.7c-0.8,0.9-1.2,2.1-1.4,3.3c0,0.1,0,0.1,0,0.2c0,0.1,0,0.1,0,0.2v0 c0,0.2,0,0.3,0,0.5c0,0.1,0,0.2,0,0.3l0,0.2l0.5,5.1L13,43.3h0c0-0.1,0-0.2,0-0.3c0,0,0-0.1,0-0.1c0-0.1,0-0.1,0-0.2 c0,0,0-0.1,0-0.1c0-0.1,0-0.2,0-0.3c0.1-0.3,0.1-0.6,0.3-0.9c0.4-0.9,1-1.6,1.9-2c0.1,0,0.2-0.1,0.3-0.1L16.7,38.9z M18.5,37.6 c0-0.3,0-0.5,0.1-0.8c0-0.1,0-0.2,0.1-0.3c0.4-1.4,1.3-2.7,2.6-3.3l28.2-14.7l0.2-0.1l0.2-0.1l0.1-0.1l0.1,0.1l0.2,0.1l0.2,0.1 l28.2,14.7c1.3,0.7,2.3,1.9,2.6,3.3c0,0.1,0,0.2,0.1,0.3c0.1,0.5,0.1,0.9,0.1,1.4c0,0,0,0,0,0c0,0,0,0.1,0,0.1L81,43.8l-19.7,1.1 L50,45.6l-1.9-0.1l-9.2-0.6l-19.9-1.2l-0.6-5.4c0,0,0-0.1,0-0.1v0c0,0,0,0,0,0C18.5,38,18.5,37.8,18.5,37.6z M12.1,41.2 c0-0.1,0.1-0.1,0.1-0.2c0.1-0.1,0.1-0.2,0.2-0.4c0.1-0.2,0.2-0.3,0.3-0.5c0.1-0.1,0.1-0.2,0.2-0.3c0.6-0.7,1.3-1.3,2.2-1.6 l1.6-0.6c0,0.1,0,0.2,0,0.4c0,0.1,0,0.2,0,0.4l-1.4,0.5c-0.4,0.1-0.7,0.3-1,0.6c-0.1,0.1-0.2,0.2-0.3,0.2l0,0 c-0.1,0.1-0.2,0.2-0.3,0.3c-0.1,0.1-0.2,0.2-0.3,0.3c-0.4,0.5-0.6,1.1-0.8,1.7c-0.1,0.4-0.1,0.8-0.1,1.3l-0.7,0l0,0 C11.7,42.6,11.9,41.9,12.1,41.2z M95.3,61.8c-0.4,1-1.3,1.6-2.4,1.6c-0.1,0-0.1,0-0.2,0L86.9,63l-0.2,0L86,63l-0.5,0L50,60.7 l-35.5,2l-0.5,0l-0.7,0l-0.2,0l-5.9,0.3H7.1c-1,0-2-0.7-2.4-1.6l-3.3-8.4l3.3-8.3c0.4-0.9,1.3-1.6,2.4-1.6c0.1,0,0.1,0,0.2,0 l4.4,0.3l0.2,0l0.7,0l0.5,0l26,1.6l0.3,0l8.8,0.5l0.3,0l1.7,0.1l1.8-0.1l0.3,0l8.8-0.5l0.3,0L87,43.7l0.5,0l0.7,0l0.2,0l4.4-0.2 c0.1,0,0.1,0,0.1,0c1,0,2,0.7,2.4,1.6l3.3,8.3L95.3,61.8z"></path> </g> <path class="st0" d="M51.6,48.2v1.6h-0.4c0-1.1-1.4-1.2-1.6-1.2h-1.7v7.3c0,0.3,0.2,1.5,1.2,1.5v0.4h-3.7v-0.4c1,0,1.2-1.2,1.2-1.6 v-7.3h-1.7c0,0-1.7,0-1.7,1.2h-0.4v-1.6H51.6z"></path> <path class="st0" d="M90,52.8v0.4c-1,0-1.2,1.3-1.2,1.6v1.6c-1.9,1.9-4.9,1.9-6.8,0c-1.9-1.9-1.9-4.9,0-6.8 c0.9-0.9,2.1-1.4,3.4-1.4c0.6,0,1.3,0.1,1.9,0.4c1,0.4,1.2-0.8,1.2-0.8h0.4v2.1h-0.3c-1.7-1.7-4.6-1.7-6.3,0 c-0.1,0.1-0.3,0.3-0.4,0.5v5.4c0.1,0.2,0.2,0.3,0.4,0.5c1.7,1.7,4.4,1.7,6.2,0.1v-1.5c0-0.3-0.2-1.6-1.2-1.6v-0.4L90,52.8z"></path> <path class="st0" d="M17.7,48.2h3.7v0.4c-1,0-1.2,1.3-1.2,1.6v5.7c0,0.3,0.2,1.5,1.2,1.5v0.4h-3.7v-0.4c1.1,0,1.2-1.4,1.2-1.6v-5.7 c0-0.2-0.1-1.6-1.2-1.6V48.2z"></path> <path class="st0" d="M17.7,48.2h3.7v0.4c-1,0-1.2,1.3-1.2,1.6v5.7c0,0.3,0.2,1.5,1.2,1.5v0.4h-3.7v-0.4c1.1,0,1.2-1.4,1.2-1.6v-5.7 c0-0.2-0.1-1.6-1.2-1.6V48.2z"></path> <path class="st0" d="M31.4,52.8v0.4c-1,0-1.2,1.3-1.2,1.6v1.6c-1.9,1.9-4.9,1.9-6.8,0c-1.9-1.9-1.9-4.9,0-6.8 c0.9-0.9,2.1-1.4,3.4-1.4c0.6,0,1.3,0.1,1.9,0.4c1,0.4,1.2-0.8,1.2-0.8h0.4v2.1h-0.3c-1.7-1.7-4.6-1.7-6.3,0 c-0.1,0.1-0.3,0.3-0.4,0.5v5.4c0.1,0.2,0.2,0.3,0.4,0.5c1.7,1.7,4.4,1.7,6.2,0.1v-1.5c0-0.3-0.2-1.6-1.2-1.6v-0.4L31.4,52.8z"></path> <path class="st0" d="M31.4,52.8v0.4c-1,0-1.2,1.3-1.2,1.6v1.6c-1.9,1.9-4.9,1.9-6.8,0c-1.9-1.9-1.9-4.9,0-6.8 c0.9-0.9,2.1-1.4,3.4-1.4c0.6,0,1.3,0.1,1.9,0.4c1,0.4,1.2-0.8,1.2-0.8h0.4v2.1h-0.3c-1.7-1.7-4.6-1.7-6.3,0 c-0.1,0.1-0.3,0.3-0.4,0.5v5.4c0.1,0.2,0.2,0.3,0.4,0.5c1.7,1.7,4.4,1.7,6.2,0.1v-1.5c0-0.3-0.2-1.6-1.2-1.6v-0.4L31.4,52.8z"></path> <path class="st0" d="M51.6,48.2v1.6h-0.4c0-1.1-1.4-1.2-1.6-1.2h-1.7v7.3c0,0.3,0.2,1.5,1.2,1.5v0.4h-3.7v-0.4c1,0,1.2-1.2,1.2-1.6 v-7.3h-1.7c0,0-1.7,0-1.7,1.2h-0.4v-1.6H51.6z"></path> <path class="st0" d="M90,52.8v0.4c-1,0-1.2,1.3-1.2,1.6v1.6c-1.9,1.9-4.9,1.9-6.8,0c-1.9-1.9-1.9-4.9,0-6.8 c0.9-0.9,2.1-1.4,3.4-1.4c0.6,0,1.3,0.1,1.9,0.4c1,0.4,1.2-0.8,1.2-0.8h0.4v2.1h-0.3c-1.7-1.7-4.6-1.7-6.3,0 c-0.1,0.1-0.3,0.3-0.4,0.5v5.4c0.1,0.2,0.2,0.3,0.4,0.5c1.7,1.7,4.4,1.7,6.2,0.1v-1.5c0-0.3-0.2-1.6-1.2-1.6v-0.4L90,52.8z"></path> <path class="st0" d="M31.8,57.9v-0.4c1,0,1.2-1.3,1.2-1.6v-5.7c0,0,0-1.7-1.2-1.7v-0.4h3.7v0.4c-1,0-1.2,1.3-1.2,1.6v2.6h5v-2.6 c0-0.2-0.1-1.6-1.2-1.6v-0.4h3.7v0.4c-1,0-1.2,1.3-1.2,1.6v5.6c0,0,0,1.7,1.2,1.7v0.4h-3.7v-0.4c1,0,1.2-1.3,1.2-1.6v-2.7h-5v2.6 c0,0,0,1.7,1.2,1.7v0.4H31.8z"></path> <path class="st0" d="M31.8,57.8v-0.4c1,0,1.2-1.3,1.2-1.6v-5.6c0,0,0-1.7-1.2-1.7v-0.4h3.7v0.4c-1,0-1.2,1.3-1.2,1.6v2.6h5v-2.6 c0-0.2-0.1-1.6-1.2-1.6v-0.4h3.7v0.4c-1,0-1.2,1.3-1.2,1.6v5.6c0,0,0,1.7,1.2,1.7v0.4h-3.7v-0.4c1,0,1.2-1.3,1.2-1.6v-2.6h-5v2.6 c0,0,0,1.7,1.2,1.7v0.4H31.8z"></path> <path class="st0" d="M52.6,48.2h2.5l5.9,7.9v-6c0-0.3-0.2-1.5-1.2-1.5v-0.4h3.7v0.4c-1.1,0-1.2,1.4-1.2,1.6v5.7 c0,0.3,0.2,1.6,1.2,1.6v0.4h-1.7l-6.7-9v7.1c0,0.3,0.2,1.5,1.2,1.5v0.4h-3.7v-0.4c1,0,1.2-1.2,1.2-1.6v-5.7c0-0.2-0.1-1.6-1.2-1.6 V48.2z"></path> <path class="st0" d="M52.6,48.2h2.5l5.9,7.9v-6c0-0.3-0.2-1.5-1.2-1.5v-0.4h3.7v0.4c-1.1,0-1.2,1.4-1.2,1.6v5.7 c0,0.3,0.2,1.6,1.2,1.6v0.4h-1.7l-6.7-9v7.1c0,0.3,0.2,1.5,1.2,1.5v0.4h-3.7v-0.4c1,0,1.2-1.2,1.2-1.6v-5.7c0-0.2-0.1-1.6-1.2-1.6 V48.2z"></path> <path class="st0" d="M64.4,48.2h3.7v0.4c-1,0-1.2,1.3-1.2,1.6v5.7c0,0.3,0.2,1.5,1.2,1.5v0.4h-3.7v-0.4c1.1,0,1.2-1.4,1.2-1.6v-5.7 c0-0.2-0.1-1.6-1.2-1.6V48.2L64.4,48.2z"></path> <path class="st0" d="M64.4,48.2h3.7v0.4c-1,0-1.2,1.3-1.2,1.6v5.7c0,0.3,0.2,1.5,1.2,1.5v0.4h-3.7v-0.4c1.1,0,1.2-1.4,1.2-1.6v-5.7 c0-0.2-0.1-1.6-1.2-1.6V48.2L64.4,48.2z"></path> <path class="st0" d="M69.1,48.2h2.5l5.9,7.9v-6c0-0.3-0.2-1.5-1.2-1.5v-0.4H80v0.4c-1.1,0-1.2,1.4-1.2,1.6v5.7 c0,0.3,0.2,1.6,1.2,1.6v0.4h-1.7l-6.7-9v7.1c0,0.3,0.2,1.5,1.2,1.5v0.4h-3.7v-0.4c1,0,1.2-1.2,1.2-1.6v-5.7c0-0.2-0.1-1.6-1.2-1.6 L69.1,48.2L69.1,48.2z"></path> <path class="st0" d="M69.1,48.2h2.5l5.9,7.9v-6c0-0.3-0.2-1.5-1.2-1.5v-0.4H80v0.4c-1.1,0-1.2,1.4-1.2,1.6v5.7 c0,0.3,0.2,1.6,1.2,1.6v0.4h-1.7l-6.7-9v7.1c0,0.3,0.2,1.5,1.2,1.5v0.4h-3.7v-0.4c1,0,1.2-1.2,1.2-1.6v-5.7c0-0.2-0.1-1.6-1.2-1.6 L69.1,48.2L69.1,48.2z"></path> <path class="st0" d="M12.1,57.5h2.5c0,0,1.7,0,1.7-1.2h0.4v1.6H9.8v-0.4c1.2,0,1.2-1.7,1.2-1.7v-5.6c0-0.2-0.1-1.6-1.2-1.6v-0.4 h3.5v0.4c-1.2,0-1.2,1.7-1.2,1.7S12.1,57.5,12.1,57.5z"></path> <path class="st0" d="M12.1,57.5h2.5c0,0,1.7,0,1.7-1.2h0.4v1.6H9.8v-0.4c1.2,0,1.2-1.7,1.2-1.7v-5.6c0-0.2-0.1-1.6-1.2-1.6v-0.4 h3.5v0.4c-1.2,0-1.2,1.7-1.2,1.7S12.1,57.5,12.1,57.5z"></path> <polygon class="st0" points="26.3,36 26.1,36.1 24.2,37.4 24.2,37.5 24.2,37.5 24.6,38 24.6,38.1 24.7,38.1 25.2,37.7 24.8,41.3 24.8,41.4 24.9,41.4 25.5,41.5 25.6,41.5 25.6,41.4 26.2,36.2 "></polygon> <path class="st0" d="M32.6,38.9L32.6,38.9L32.6,38.9l-0.8,0.8l-0.6-0.9l0,0h-0.1l-0.7-0.1l-0.2,0l0.1,0.2l0.9,1.5l-1.5,1.4 l-0.1,0.1l0.2,0l0.7,0.1h0l0,0l1.1-1l0.8,1.2l0,0h0l0.7,0.1l0.2,0l-0.1-0.2l-1.1-1.7l1.2-1.2l0.1-0.1l-0.2,0L32.6,38.9z"></path> <path class="st0" d="M69.7,40.9L69.7,40.9l-0.1-0.1L68.1,41c0.7-1.4,1.1-2.2,1.1-2.4c0.1-0.2,0.1-0.5,0.1-0.7 c0-0.1-0.1-0.3-0.1-0.4c-0.1-0.4-0.4-0.7-0.7-0.8c-0.2-0.1-0.5-0.2-0.8-0.1c-0.1,0-0.2,0-0.3,0.1c-0.4,0.1-0.7,0.4-0.8,0.7 c-0.1,0.2-0.1,0.4-0.1,0.6v0.2v0.1h0.1l0.7,0h0.1v-0.1V38c0-0.1,0-0.2,0.1-0.2c0.1-0.1,0.2-0.3,0.3-0.3c0,0,0.1,0,0.1,0 c0.1,0,0.2,0,0.3,0.1c0.1,0.1,0.3,0.2,0.3,0.3c0,0.1,0,0.1,0,0.2c0,0.1,0,0.2-0.1,0.3c-0.1,0.2-0.6,1.2-1.6,3.2l-0.2,0.3L66.7,42 l0.2,0l2.9-0.4l0.1,0l0-0.1L69.7,40.9z"></path> <path class="st0" d="M77.3,40.4L75.8,39l0.9-1.5l0.1-0.2l-0.2,0l-0.7,0.1h0l0,0l-0.6,1l-0.8-0.8l0,0h0l-0.7,0.1l-0.2,0l0.1,0.1 l1.2,1.2l-1.1,1.8L73.7,41l0.2,0l0.7-0.1h0l0,0l0.8-1.2l1,1l0,0h0l0.7-0.1l0.2,0L77.3,40.4z"></path> <path class="st0" d="M72.5,70.5c-1.1,0.9-2.6,1-3.8,0.2l0-5c1.2-0.9,3-0.7,4,0.3l0.5-0.6c-1.4-1.4-3.7-1.4-5.1-0.1l0,5.7 c1.4,1.3,3.8,1.2,5.1-0.2l-0.5-0.6L72.5,70.5z"></path> <path class="st0" d="M66.8,66.7c-0.7,1.4-0.2,3.2,0.9,4.3l0-5.5C67.4,65.8,67.1,66.2,66.8,66.7z"></path> <path class="st0" d="M45.7,70.6c-1.1,0.9-2.6,1-3.8,0.2l0-5c1.2-0.9,3-0.7,4,0.3l0.5-0.6c-1.4-1.4-3.7-1.4-5.1-0.1l0,5.7 c1.4,1.3,3.8,1.2,5.1-0.2l-0.5-0.6L45.7,70.6z"></path> <path class="st0" d="M40,66.8c-0.7,1.4-0.2,3.2,0.9,4.3l0-5.5C40.5,65.9,40.2,66.3,40,66.8z"></path> <path class="st0" d="M24.7,67.8l-0.3-0.1c1.3-0.5,1-2.6-0.3-3c-0.5-0.2-1.8-0.1-2.4-0.1l0,7.3c0.7,0,2.2,0.1,2.8-0.2 C26.2,71.2,26.4,68.4,24.7,67.8z M22.4,66.3v-1.1c0.9-0.1,2.2-0.1,2.2,1.1c0,1.2-1.4,1.2-2.2,1.1L22.4,66.3z M25,70.7 c-0.5,0.7-1.7,0.5-2.5,0.5l0-3.1c0.5,0,1.6-0.1,2,0.1C25.3,68.6,25.7,70,25,70.7L25,70.7z"></path> <polygon class="st0" points="19.9,65.2 20.3,65.2 20.3,71.9 21.5,71.9 21.5,64.6 19.9,64.6 "></polygon> <g> <path class="st0" d="M60.3,69.8h-0.8v0.6h0.5l-0.5,1.3h0.7l0.5-1.3l1.8,0l0.5,1.3h0.8l-2.1-5.6L60.3,69.8z M61.1,69.8l0.7-1.8 l0.6,1.8L61.1,69.8z"></path> <polygon class="st0" points="61.9,65.9 64.2,71.8 65.4,71.8 62.5,64 "></polygon> </g> <g> <path class="st0" d="M33.8,69.8H33v0.6h0.5L33,71.8h0.7l0.5-1.3l1.8,0l0.5,1.3h0.8l-2.1-5.6L33.8,69.8z M34.5,69.8l0.7-1.8 l0.6,1.8L34.5,69.8z"></path> <polygon class="st0" points="35.3,65.9 37.6,71.8 38.9,71.8 35.9,64 "></polygon> </g> <polygon class="st0" points="26.9,65.2 27.4,65.2 27.4,71.9 28.5,71.9 28.5,64.6 26.9,64.6 "></polygon> <path class="st0" d="M28.8,71.8L28.8,71.8L28.8,71.8l2.8,0.1h0.1c0-0.1,0-0.5,0-0.6h-0.1l-2.1,0l0-6.7h-0.6L28.8,71.8z"></path> <path class="st0" d="M57.7,64.5c-0.1,0.8,0.4,6-0.4,6.5c-0.9,1-2.7,0.1-2.5-1.2h-0.6c-0.2,1.9,2.3,3.1,3.6,1.7 c1.1-0.8,0.4-5.8,0.6-6.9L57.7,64.5z"></path> <path class="st0" d="M55.9,64.5V65h0.4l0,6c0.6-0.2,1.1-0.8,1.1-1.5l0-5.1L55.9,64.5z"></path> <polygon class="st0" points="47.5,65.1 47.9,65.1 47.9,71.8 49,71.8 49,64.5 47.4,64.5 "></polygon> <path class="st0" d="M52.5,64.5l-2.2,3.7c-0.1,0-0.2-0.1-0.3-0.1l0-3.6h-0.6c0,0.1,0,7.3,0,7.3H50c0-0.6,0-2.4,0-3 c1.2,0.6,2.2,1.7,2.7,3h0.7c-0.4-1.4-1.3-2.5-2.5-3.3l2.4-4L52.5,64.5L52.5,64.5z"></path> <polygon class="st0" points="74.3,65 74.7,65 74.7,71.7 75.9,71.7 75.8,64.4 74.3,64.4 "></polygon> <path class="st0" d="M79.3,64.4L77,68.1c-0.1,0-0.2-0.1-0.3-0.1l0-3.6h-0.6c0,0.1,0,7.3,0,7.3h0.6c0-0.6,0-2.4,0-3 c1.2,0.6,2.2,1.7,2.7,3h0.7c-0.4-1.4-1.3-2.5-2.5-3.3l2.4-4H79.3z"></path> <path class="st0" d="M73.4,39.3c-0.1-0.5-0.4-0.9-0.8-1.2c-0.3-0.2-0.7-0.4-1.4-0.4h-0.1l0.1-0.7l1.3-0.1L72.5,36l-2,0.2l0,2.7 c0.1-0.1,0.2-0.2,0.4-0.3c0.1-0.1,0.3-0.1,0.5-0.2c0.1,0,0.1,0,0.1,0l0,0c0.2,0,0.5,0.1,0.7,0.2c0.5,0.4,0.6,1.1,0.2,1.6 c-0.1,0.1-0.2,0.3-0.4,0.3c-0.1,0.1-0.2,0.1-0.3,0.1c-0.1,0-0.1,0-0.1,0c-0.2,0-0.5-0.1-0.7-0.2c0,0-0.1-0.1-0.1-0.1l-0.1-0.1 l-0.1,0.9l0.1,0c0.3,0.2,0.6,0.3,1,0.2c0.1,0,0.2,0,0.2,0c0.2,0,0.4-0.1,0.6-0.2c0.2-0.1,0.5-0.3,0.6-0.5 C73.3,40.3,73.5,39.8,73.4,39.3z"></path> <path class="st0" d="M29.7,39.9c0-0.5-0.1-1-0.5-1.4C29,38.3,28.7,38,28,37.9l-0.1,0l0.2-0.7l1.3,0.2l0.1-0.8l-2-0.2L27,39 c0.3-0.2,0.6-0.3,0.9-0.3c0.1,0,0.1,0,0.1,0l0,0c0.2,0,0.5,0.2,0.6,0.4c0.2,0.2,0.3,0.5,0.3,0.8c0,0.3-0.2,0.6-0.4,0.8 c-0.1,0.1-0.3,0.2-0.5,0.3c-0.1,0-0.2,0-0.3,0c-0.1,0-0.1,0-0.1,0c-0.2,0-0.5-0.2-0.6-0.4c0,0-0.1-0.1-0.1-0.1l-0.1-0.1l-0.3,0.9 l0.1,0.1c0.2,0.2,0.6,0.4,0.9,0.5c0.1,0,0.2,0,0.2,0c0.5,0,1-0.1,1.4-0.5C29.5,40.9,29.7,40.4,29.7,39.9z"></path> <path class="st0" d="M48.9,81.9c-0.7,0-1.7,0.1-2.5,0.2h0v0c2.4-5.1,2.9-7.2,3.1-8.1c0.1-0.3,0.1-0.7,0-1c-0.1-0.1-0.4-0.4-0.7,0 c-0.2,0.2-0.3,0.5-0.4,1.3c-0.3,1.6-1,4.1-2.7,7.8l-0.1,0l0,0c-1.2,0.2-1.5,0.9-1.5,1c-0.1,0.1-0.1,0.3,0,0.4 c0.1,0.1,0.3,0.2,0.5,0.2c0.7,0,1.4-0.7,1.7-1.1l0,0l0,0c3.3-0.8,5.1,0.4,5.3,0.1S50.7,82,48.9,81.9z M44.4,83.5c0,0-0.1,0-0.1,0 c0-0.1,0-0.1,0-0.2c0.1-0.2,0.7-0.6,1.1-0.7C45.2,83,44.6,83.5,44.4,83.5L44.4,83.5z"></path> <path class="st0" d="M58.1,77.6c0-0.1-0.1-0.2-0.1-0.3c-0.1-0.1-0.2-0.1-0.3-0.2c-0.1-0.1-0.3-0.1-0.5-0.1c-0.3,0-0.6,0.1-0.9,0.2 c-0.3,0.1-0.5,0.3-0.8,0.5c-0.2,0.2-0.4,0.5-0.6,0.8c-0.2,0.3-0.3,0.6-0.4,0.9c0,0.2-0.1,0.4,0,0.5c0,0.2,0.1,0.3,0.1,0.5 c0.1,0.1,0.2,0.3,0.4,0.3c0.2,0.1,0.4,0.1,0.6,0.1c0.2,0,0.4,0,0.5-0.1c0.2-0.1,0.3-0.1,0.5-0.2c0.1-0.1,0.3-0.2,0.4-0.2 c0.1-0.1,0.2-0.1,0.2-0.2l0,0l-0.1-0.4l0,0c-0.1,0.1-0.2,0.1-0.2,0.2c-0.1,0.1-0.2,0.1-0.3,0.2c-0.1,0-0.2,0.1-0.3,0.1 c-0.1,0-0.2,0-0.3,0c-0.1,0-0.2,0-0.3-0.1c-0.1-0.1-0.1-0.1-0.1-0.2c0-0.1,0-0.2,0-0.3s0-0.2,0.1-0.4c0.1,0,0.3,0,0.4,0 c0.2,0,0.3-0.1,0.5-0.1c0.2-0.1,0.3-0.1,0.5-0.2c0.2-0.1,0.3-0.2,0.5-0.3c0.1-0.1,0.3-0.2,0.4-0.4c0.1-0.1,0.2-0.3,0.2-0.5 C58.1,77.8,58.1,77.7,58.1,77.6z M57.2,78c0,0.1-0.1,0.3-0.2,0.4c-0.1,0.1-0.2,0.2-0.4,0.3c-0.1,0.1-0.3,0.1-0.4,0.2 c-0.1,0-0.2,0.1-0.3,0.1c0-0.1,0.1-0.2,0.1-0.2c0-0.1,0.1-0.2,0.1-0.3c0.1-0.1,0.1-0.2,0.2-0.3c0.1-0.1,0.1-0.2,0.2-0.2 c0.1-0.1,0.2-0.1,0.2-0.2s0.2-0.1,0.3-0.1c0.1,0,0.1,0,0.2,0.1C57.2,77.8,57.2,77.9,57.2,78z M54.7,77.4c0-0.1,0-0.2-0.1-0.2 c0-0.1-0.1-0.1-0.1-0.2c-0.1,0-0.2-0.1-0.2-0.1c-0.1,0-0.3,0-0.4,0.1c-0.1,0.1-0.2,0.2-0.2,0.3c0,0.1,0,0.1,0,0.2 c0,0.1,0,0.1,0,0.2s0,0.1,0,0.2c0,0.1,0,0.1,0,0.2c-0.1,0.2-0.1,0.3-0.2,0.4c-0.1,0.1-0.1,0.3-0.2,0.4c-0.1,0.1-0.2,0.3-0.3,0.4 l-0.6,0.8l0.1-0.5l0.2-2c0-0.1,0-0.2-0.1-0.4c-0.1-0.1-0.2-0.1-0.4-0.1c-0.1,0-0.2,0-0.3,0.1c-0.1,0-0.2,0.1-0.2,0.1l0,0v0 c0,0,0,0.5,0,0.6l0,1.9l0,1.2h0.6l0,0c0,0,1.1-1.2,1.3-1.4c0.2-0.2,0.4-0.4,0.5-0.6c0.1-0.2,0.3-0.4,0.4-0.6 c0.1-0.2,0.2-0.4,0.2-0.5C54.7,77.6,54.7,77.5,54.7,77.4L54.7,77.4z M50.2,77c-0.2,0-0.5,0.2-0.5,0.4l-0.1,0.3 c-0.1,0.2-0.1,0.4-0.2,0.5l-0.2,0.4L49,79.3c-0.1,0.2-0.2,0.4-0.2,0.6c-0.1,0.2-0.1,0.3-0.2,0.5c-0.1,0.1,0,0.3,0.1,0.4 c0.1,0.1,0.3,0.1,0.4,0.1c0.1,0,0.3,0,0.4-0.1c0.1,0,0.2-0.1,0.3-0.1c0.1-0.1,0.2-0.1,0.2-0.2c0.1-0.1,0.1-0.1,0.1-0.1l0,0 l-0.1-0.3l-0.1,0c-0.1,0.1-0.1,0.1-0.2,0.1c0,0-0.1,0-0.1,0c0,0,0,0,0,0s0-0.1,0-0.2l0.9-2.7c0.1-0.2,0-0.4-0.2-0.5 C50.4,77,50.3,77,50.2,77L50.2,77z"></path> <path class="st0" d="M51.1,75.9c0,0.1,0,0.1,0,0.2s0,0.1-0.1,0.2c0,0.1-0.1,0.1-0.1,0.2c-0.1,0.1-0.1,0.1-0.2,0.1 c-0.1,0.1-0.3,0-0.4-0.2c0-0.1,0-0.1-0.1-0.2c0-0.1,0-0.1,0-0.2c0-0.1,0.1-0.1,0.1-0.2c0-0.1,0.1-0.1,0.1-0.2 c0.1-0.1,0.1-0.1,0.2-0.1c0.1,0,0.1,0,0.2,0c0.1,0,0.1,0,0.1,0.1c0,0,0.1,0.1,0.1,0.1C51.1,75.7,51.1,75.8,51.1,75.9z"></path> <path id="Path" class="st1" d="M42.4,76.7c1.4-0.7,3.2,0,3.3,1.9C43.1,78.8,42.8,77.6,42.4,76.7z"></path> <path id="Path-2" class="st0" d="M43.5,76.4L43.5,76.4c0.9,0,2,0.7,2.2,2.1c-0.2,0-0.3,0-0.5,0c-1.9,0-2.2-0.9-2.6-1.7 c0-0.1,0-0.1-0.1-0.1C42.8,76.5,43.1,76.4,43.5,76.4 M43.5,76.4c-0.4,0-0.8,0.1-1.1,0.3c0.4,0.9,0.7,2,2.8,2c0.2,0,0.4,0,0.6,0 C45.6,77.2,44.6,76.4,43.5,76.4z"></path> <path id="Path-3" class="st1" d="M42.4,80.8c1.4,0.7,3.2,0,3.3-1.9C43.1,78.7,42.8,79.9,42.4,80.8z"></path> <path id="Path-4" class="st0" d="M45.1,79c0.2,0,0.3,0,0.5,0c-0.1,1.4-1.2,2.1-2.2,2.1c-0.4,0-0.7-0.1-1-0.2l0.1-0.1 C42.9,79.8,43.3,79,45.1,79 M45.1,78.9c-2.1,0-2.4,1.1-2.8,2c0.3,0.2,0.7,0.3,1.1,0.3c1.1,0,2.1-0.8,2.2-2.2 C45.5,78.9,45.3,78.9,45.1,78.9z"></path> </g> </svg> 