<?xml version="1.0" encoding="UTF-8"?> <!-- Generator: Adobe Illustrator 24.1.2, SVG Export Plug-In . SVG Version: 6.00 Build 0) --> <svg xmlns="http://www.w3.org/2000/svg" xmlns:xlink="http://www.w3.org/1999/xlink" version="1.1" id="Layer_1" x="0px" y="0px" viewBox="0 0 100 100" style="enable-background:new 0 0 100 100;" xml:space="preserve"> <style type="text/css"> .st0{fill:#FDC440;} </style> <g> <path class="st0" d="M91.8,47.5c0,1.6,0,3.3,0,4.9c-0.1,0.3-0.1,0.6-0.2,0.9c-0.3,1.8-0.4,3.6-0.8,5.4c-2.2,10-7.3,18.3-15.5,24.5 c-10.2,7.7-21.6,10.3-34.1,7.7c-10-2.1-18.1-7.3-24.3-15.4c-6.7-8.7-9.5-18.7-8.5-29.6c0.9-8.9,4.3-16.7,10.2-23.4 c6.5-7.3,14.5-11.9,24.2-13.6c1.6-0.3,3.2-0.4,4.8-0.7c1.6,0,3.3,0,4.9,0c0.2,0,0.4,0.1,0.6,0.1c6.5,0.5,12.7,2.3,18.2,5.8 c10.8,6.6,17.5,16.2,19.8,28.7C91.4,44.4,91.6,46,91.8,47.5z M84.2,50c0-18.8-15.3-34.1-34.1-34.2C31.3,15.7,15.8,31.2,15.8,50 c0,18.8,15.3,34.1,34.1,34.2C68.7,84.3,84.2,68.8,84.2,50z"></path> <path class="st0" d="M53.8,36.4c0,0.5,0,0.8,0,1.1c0,6.6,0,13.2,0,19.7c0,2.3-1.2,3.8-3.3,4.1c-2,0.3-4-1.2-4.2-3.3 c0-0.4,0-0.8,0-1.2c0-6.4,0-12.9,0-19.3c0-0.3,0-0.6,0-1.1c-0.3,0.3-0.5,0.5-0.7,0.7c-2.4,2.4-4.7,4.7-7.1,7.1 c-1.8,1.8-4.3,1.7-5.8-0.1c-1.1-1.3-1.2-3.3-0.1-4.7c0.2-0.3,0.5-0.5,0.7-0.8c4.6-4.6,9.1-9.2,13.7-13.7c2-2,4.2-2,6.2,0 c4.6,4.6,9.3,9.3,13.9,13.9c1.8,1.8,1.7,4.4-0.2,5.9c-1.5,1.2-3.6,1-5.2-0.5c-2.4-2.3-4.7-4.7-7-7C54.4,36.9,54.1,36.8,53.8,36.4z"></path> <path class="st0" d="M50,76.6c-2.5,0-5,0-7.5,0c-1.8,0-3.2-1.1-3.7-2.6c-0.5-1.5-0.1-3.2,1.3-4.1c0.7-0.5,1.7-0.8,2.6-0.8 c4.9-0.1,9.8-0.1,14.7,0c2.1,0,3.6,1.2,4,3.1c0.3,1.7-0.5,3.5-2.1,4.2c-0.6,0.3-1.3,0.4-2,0.4C54.8,76.6,52.4,76.6,50,76.6z"></path> </g> </svg> 