<?xml version="1.0" encoding="UTF-8"?> <!-- Generator: Adobe Illustrator 24.1.2, SVG Export Plug-In . SVG Version: 6.00 Build 0) --> <svg xmlns="http://www.w3.org/2000/svg" xmlns:xlink="http://www.w3.org/1999/xlink" version="1.1" id="Layer_1" x="0px" y="0px" viewBox="0 0 100 100" style="enable-background:new 0 0 100 100;" xml:space="preserve"> <g> <path style="fill:#FFFFFF;" d="M40.1,51c2.9,0.5,5.8,0.9,8.6,1.3c0.2,0,0.4,0,0.6-0.1c3.1-2,6.5-2.5,10.1-2.2c0.1,0,0.2,0,0.4,0 c0-0.2,0.1-0.3,0.1-0.5c0.1-1.4,0.8-2.5,1.9-3.3c3.1-2.3,6.1-4.7,9.2-7c2.3-1.7,5.2-1.4,7,0.9c4.8,6,9.5,12.1,14.2,18.2 c1.6,2.1,1.3,5-0.8,6.7c-3.1,2.5-6.3,4.9-9.5,7.3c-1.6,1.2-3.4,1.2-5.2,0.3c-0.2-0.1-0.4-0.2-0.4-0.2c-1.7,1.8-3.4,3.5-5.1,5.2 c1.1,1.7,1.6,3.6,0.5,5.6s-2.9,2.6-5.1,2.4c-0.3,0.6-0.6,1.2-1,1.7c-0.9,1.2-2.1,1.8-3.6,2c-0.3,0-0.7,0.2-0.8,0.4 c-1.5,3.1-2.6,3.7-5.9,3.4c-0.4,0.6-0.7,1.2-1.2,1.7c-1.6,1.8-4.3,2.2-6.3,0.8c-0.4-0.2-0.8-0.5-1.1-0.9c-0.9-1-1.7-1.6-3.3-0.8 c-2.1,1-4.6-0.3-5.5-2.5c-0.2-0.5-0.4-0.7-0.9-0.8c-2-0.4-3.2-1.6-3.9-3.5c-0.1-0.3-0.4-0.6-0.7-0.7c-1.9-0.4-3.2-1.6-3.9-3.4 c-0.2-0.5-0.4-0.7-0.9-0.7c-2.9-0.5-4.8-3.8-3.8-6.6c0.3-0.7-0.1-1.1-0.4-1.6c-0.3-0.6-0.8-0.6-1.4-0.5c-1.4,0.3-2.7,0-3.8-0.8 c-3.1-2.4-6.3-4.7-9.4-7.2c-2.2-1.7-2.5-4.6-0.9-6.8c0.7-1,1.5-2,2.3-3c0.7-0.9,1.7-1.1,2.5-0.4c0.8,0.6,0.8,1.6,0.2,2.5 c-0.7,0.9-1.4,1.8-2.2,2.8c-0.7,0.9-0.6,1.7,0.3,2.4c2.9,2.3,5.9,4.5,8.9,6.7c0.9,0.7,1.7,0.6,2.5-0.3c4.6-5.9,9.2-11.8,13.8-17.7 c0.7-0.9,0.6-1.7-0.3-2.4C33,47.1,30,44.9,27,42.6c-0.9-0.7-1.7-0.6-2.5,0.3c-1,1.3-2,2.6-3.1,3.9c-0.8,1-1.8,1.1-2.6,0.5 c-0.8-0.7-0.8-1.6-0.1-2.6c1-1.3,2.1-2.7,3.1-4c1.9-2.4,4.8-2.7,7.2-0.9c2.8,2.1,5.5,4.2,8.3,6.3C39,47.3,40.2,48.7,40.1,51z M47.7,90.7c0.6,0.6,1.2,1.2,1.8,1.7c0.8,0.6,1.6,0.5,2.2-0.3c0.5-0.7,0.8-1.2-0.2-2c-0.4-0.3-0.8-0.7-1.1-1.1 c-0.6-0.7-0.5-1.7,0.1-2.3c0.6-0.6,1.5-0.8,2.3-0.2c0.7,0.6,1.3,1.2,2,1.8c0.4,0.3,0.7,0.7,1.1,0.9c1.1,0.6,2.2,0,2.1-1.2 c0-0.4-0.3-0.8-0.6-1.1c-1.4-1.4-2.8-2.8-4.2-4.3c-0.8-0.8-0.9-1.9-0.2-2.6c0.7-0.8,1.8-0.7,2.6,0.1c1.6,1.5,3.1,3.1,4.7,4.7 c0.8,0.8,1.8,0.9,2.5,0.2c0.6-0.6,0.5-1.6-0.2-2.3c-1.9-1.9-3.9-3.8-5.8-5.7c-0.2-0.2-0.5-0.4-0.6-0.7c-0.5-0.6-0.5-1.3,0-2 s1.1-0.9,1.9-0.6c0.4,0.1,0.7,0.4,1,0.7c2.1,2.1,4.2,4.2,6.4,6.3c0.5,0.5,1.1,0.9,1.8,1.1c1,0.4,2-0.5,1.6-1.6 c-0.3-0.7-0.7-1.4-1.2-1.9c-4.8-4.3-9.6-8.6-14.4-12.9c-0.4-0.3-0.6-0.3-1.1-0.1c-1.2,0.6-2.4,1.2-3.7,1.8 c-1.2,0.6-2.4,0.8-3.7,0.7c-4.1-0.3-6.5-4.4-4.7-8.1c0.8-1.6,2-2.7,3.4-3.7c0.4-0.3,0.9-0.6,1.4-1c-1.8-0.3-3.4-0.5-5-0.8 c-0.7-0.1-1.1,0-1.5,0.6c-2.4,3.1-4.9,6.3-7.3,9.4c-1.8,2.2-3.5,4.5-5.3,6.8c0.3,0.4,0.6,0.9,1,1.3c0.4-0.3,0.7-0.6,1.1-0.9 c1.3-1.1,2.5-2.3,3.8-3.3c1.5-1.2,3.3-1.6,5.1-0.8c1.8,0.8,2.8,2.3,2.9,4.3c0,0.3,0.3,0.6,0.5,0.7c1.6,0.7,2.7,1.9,3.1,3.6 c0.1,0.5,0.3,0.6,0.8,0.7c1.9,0.5,3.2,1.8,3.5,3.8c0.2,0.9-0.1,1.9-0.1,2.9C49.9,85.5,50,88.5,47.7,90.7z M74.1,41.4 c-0.5,0.2-0.8,0.3-1.1,0.5c-3,2.3-6,4.5-9,6.8c-0.8,0.6-0.9,1.4-0.3,2.2s1.2,1.6,1.8,2.4c4,5.1,7.9,10.2,11.9,15.3 c0.8,1,1.6,1.2,2.6,0.5c3-2.3,6-4.5,8.9-6.8c0.8-0.6,0.9-1.4,0.3-2.2c-4.6-5.9-9.3-11.9-13.9-17.8C75,41.8,74.5,41.6,74.1,41.4z M68.4,74.8c1.9-1.5,3.7-2.9,4.8-5c0.1-0.2,0.1-0.7,0-1c-3.8-4.9-7.7-9.9-11.5-14.8c-0.1-0.2-0.4-0.4-0.6-0.4 c-3.3-0.4-6.5-0.5-9.5,1.3c-2.3,1.4-4.5,2.8-6.7,4.4c-0.8,0.6-1.5,1.4-2,2.3c-0.7,1.2-0.1,2.4,1.2,2.9c0.9,0.3,1.7,0.2,2.6-0.2 c1.7-0.8,3.4-1.7,5.1-2.5c0.9-0.4,1.6-0.4,2.3,0.3c0.3,0.3,0.7,0.7,1.1,1C59.6,66.9,64,70.8,68.4,74.8z M36.1,71.7 c-0.3-0.4-0.6-1-1-1.1c-0.5-0.1-1.2-0.1-1.6,0.2c-2.2,1.8-4.3,3.7-6.4,5.6c-0.5,0.5-0.4,1.4,0.2,2c0.5,0.6,1.1,0.6,1.7,0 c2.1-1.9,4.2-3.7,6.2-5.6C35.7,72.5,35.8,72.1,36.1,71.7z M39.8,77.1c-0.1-0.3-0.1-0.5-0.2-0.6c-0.5-1.1-1.6-1.3-2.6-0.4 c-1.7,1.4-3.3,2.9-4.9,4.4c-0.6,0.6-0.6,1.2,0,1.9c0.6,0.6,1.2,0.7,1.9,0.1c1.8-1.5,3.5-3.1,5.3-4.6C39.4,77.6,39.6,77.3,39.8,77.1 z M36.1,85.7c0.4,0.4,0.6,1,1,1.2c0.3,0.2,1,0.1,1.3-0.1c1.8-1.5,3.5-3,5.1-4.6c0.3-0.3,0.4-1,0.2-1.3c-0.2-0.4-0.7-0.7-1.2-0.8 c-0.4,0-0.9,0.2-1.2,0.5c-1.5,1.3-3.1,2.6-4.6,4C36.5,84.8,36.4,85.2,36.1,85.7z M41.9,90.7c0.4-0.1,0.7-0.2,0.9-0.3 c1-0.8,2-1.6,2.9-2.5c0.5-0.5,0.1-1.4-0.6-1.5c-0.4,0-0.9,0.1-1.2,0.4c-0.9,0.7-1.7,1.4-2.4,2.2c-0.2,0.2-0.4,0.7-0.3,1 C41.2,90.2,41.6,90.4,41.9,90.7z"></path> <path style="fill:#FFFFFF;" d="M50,3.8C31.1,3.8,15.8,19.1,15.8,38c0,1,0.1,2,0.1,3c1.1-0.6,2.2-1.2,3.2-1.9c0-0.4,0-0.8,0-1.2 C19.2,21,33,7.1,50,7.1S80.8,21,80.8,38c0,0.5,0,0.9,0,1.4c0.1,0.1,0.1,0.2,0.2,0.3c0.8,1.4,1.7,2.7,2.7,4c0.3-1.9,0.5-3.8,0.5-5.7 C84.2,19.1,68.9,3.8,50,3.8z"></path> <g> <path style="fill:#FFFFFF;" d="M30.7,26.9h-2.9V30h-1.9v-7.6h1.9v3h2.9v-3h1.9V30h-1.9C30.7,30,30.7,26.9,30.7,26.9z"></path> <path style="fill:#FFFFFF;" d="M37.5,30.2c-2.2,0-3.9-1.6-3.9-3.9s1.8-3.9,3.9-3.9c2.2,0,3.9,1.6,3.9,3.9 C41.4,28.5,39.7,30.2,37.5,30.2z M37.5,28.5c1.2,0,2-0.9,2-2.2c0-1.4-0.8-2.2-2-2.2s-2,0.9-2,2.2S36.3,28.5,37.5,28.5z"></path> <path style="fill:#FFFFFF;" d="M44.3,22.4v6.2h2.4V30h-4.3v-7.6C42.4,22.4,44.3,22.4,44.3,22.4z"></path> <path style="fill:#FFFFFF;" d="M47.7,22.4h1.9V30h-1.9V22.4z M47.8,20.9c0-0.5,0.3-0.8,0.8-0.8s0.8,0.3,0.8,0.8 c0,0.4-0.3,0.8-0.8,0.8C48.1,21.7,47.8,21.4,47.8,20.9z"></path> <path style="fill:#FFFFFF;" d="M58,24.9h-2c-0.3-0.5-0.8-0.8-1.5-0.8c-1.2,0-2,0.8-2,2.2c0,1.4,0.8,2.2,2.1,2.2 c0.9,0,1.6-0.5,1.9-1.4h-2.4v-1.4h4.1v1.7c-0.4,1.3-1.7,2.6-3.7,2.6c-2.3,0-3.9-1.6-3.9-3.9s1.6-3.9,3.9-3.9 C56.3,22.4,57.6,23.3,58,24.9z"></path> <path style="fill:#FFFFFF;" d="M63.9,28.7H61l-0.5,1.4h-2l2.8-7.6h2.2l2.8,7.6h-2L63.9,28.7z M62.5,24.5l-0.9,2.8h1.9L62.5,24.5z"></path> <path style="fill:#FFFFFF;" d="M74.1,22.4V30h-1.9l-3.1-4.7V30h-1.9v-7.6h1.9l3.1,4.7v-4.7C72.2,22.4,74.1,22.4,74.1,22.4z"></path> </g> </g> </svg> 