<?xml version="1.0" encoding="UTF-8"?> <!-- Generator: Adobe Illustrator 24.1.2, SVG Export Plug-In . SVG Version: 6.00 Build 0) --> <svg xmlns="http://www.w3.org/2000/svg" xmlns:xlink="http://www.w3.org/1999/xlink" version="1.1" id="Layer_1" x="0px" y="0px" viewBox="0 0 200 200" style="enable-background:new 0 0 200 200;" xml:space="preserve"> <g> <g> <path style="fill:none;stroke:#FFFFFF;stroke-width:5;stroke-miterlimit:10;" d="M110.22,54.34c-1.11-2.1-2.59-3.99-4.48-5.58 c-4.34-3.65-10.38-4.75-16.02-4.19c-6.06,0.6-12.77,3.03-17.2,7.33c-3.75,3.65-6.68,8.27-9.32,12.75 c-6.08,10.27-5.02,15.98-19.17,25.55c-0.73,0.49-5.38,2.57-4.49,3.73c2.78,3.65,16.95,3.5,21.14,3.39 c9.69-0.25,13.47-0.94,24.44-3.22c8.72-1.82,18.56-4.51,23.48-12.67C113.21,73.79,114.56,62.55,110.22,54.34z"></path> <path style="fill:none;stroke:#FFFFFF;stroke-width:5;stroke-linecap:round;stroke-miterlimit:10;" d="M101.52,55.36 c-5.24-0.78-9.78,0.27-13.74,3.79c-4.66,4.15-3.94,11.86-6.85,16.97c-2.59,4.56-9.39,7.88-16.57,9.92"></path> </g> <ellipse transform="matrix(0.5695 -0.822 0.822 0.5695 -75.8033 129.921)" style="fill:none;stroke:#FFFFFF;stroke-width:5;stroke-linecap:round;stroke-miterlimit:10;" cx="86.14" cy="137.33" rx="26.67" ry="26.67"></ellipse> <path style="fill:none;stroke:#FFFFFF;stroke-width:5;stroke-linecap:round;stroke-miterlimit:10;" d="M102.14,137.33 c0,8.84-7.16,16-16,16"></path> <path style="fill:none;stroke:#FFFFFF;stroke-width:5;stroke-linecap:round;stroke-miterlimit:10;" d="M149.64,137.33 c0,8.84-7.16,16-16,16"></path> <path style="fill:none;stroke:#FFFFFF;stroke-width:5;stroke-linecap:round;stroke-miterlimit:10;" d="M115.06,118.48 c10.41-10.41,27.3-10.41,37.71,0c10.41,10.41,10.41,27.3,0,37.71c-10.41,10.41-27.3,10.41-37.71,0"></path> <path style="fill:none;stroke:#FFFFFF;stroke-width:5;stroke-linecap:round;stroke-miterlimit:10;" d="M102.14,36 c0,0,45.87,28.44,33.42,74.67"></path> <path style="fill:none;stroke:#FFFFFF;stroke-width:5;stroke-linecap:round;stroke-miterlimit:10;" d="M86.14,110.67 c0,0,4.04-3.51,8.27-11.33"></path> </g> </svg> 