<?xml version="1.0" encoding="UTF-8"?> <!-- Generator: Adobe Illustrator 24.1.2, SVG Export Plug-In . SVG Version: 6.00 Build 0) --> <svg xmlns="http://www.w3.org/2000/svg" xmlns:xlink="http://www.w3.org/1999/xlink" version="1.1" id="Layer_1" x="0px" y="0px" viewBox="0 0 150 150" style="enable-background:new 0 0 150 150;" xml:space="preserve"> <g> <path style="fill:#FFFFFF;" d="M20.1,86.1c0.2-0.4,0.5-0.7,0.7-1.1c2.4-4.9,4.9-9.7,7.3-14.6c1.2-2.3,2.3-4.5,3.5-6.8 c0.3-0.7,0.7-0.9,1.5-0.9c1.2,0.1,2.4,0,3.5,0c0.5,0,0.7,0.2,0.4,0.7c-0.1,0.2-0.2,0.5-0.4,0.7c-3.6,7.1-7.1,14.1-10.7,21.2 c-0.4,0.8-0.9,1.1-1.7,1c-1.4-0.1-2.8,0-4.1,0C20.1,86.3,20.1,86.2,20.1,86.1z"></path> <path style="fill:#FFFFFF;" d="M135,86.1c-1.3,0-2.6,0-3.9,0c-0.8,0-0.8,0-0.9-0.9c0-1.1,0-2.2,0-3.3c0-0.5,0.2-0.8,0.8-0.8 c1.3,0,2.7,0,4,0C135,82.8,135,84.5,135,86.1z"></path> <path style="fill:#FFFFFF;" d="M106.4,77.5c0-2.5,0-5,0-7.6c0-1.1,0-1.1,1.1-1.1c2,0,3.9,0,5.9,0c0.7,0,1.2,0.2,1.7,0.8 c2.5,3.6,5.1,7.2,7.7,10.8c0.2,0.2,0.4,0.5,0.6,0.7c0-0.3,0.1-0.6,0.1-0.9c0-3.3,0-6.5,0-9.8c0-0.3,0-0.6,0-0.8 c0-0.5,0.2-0.7,0.7-0.7c1.3,0,2.6,0,3.9,0c0.4,0,0.6,0.2,0.6,0.7c0,0.2,0,0.5,0,0.7c0,4.9,0,9.8,0,14.8c0,0.2,0,0.4,0,0.6 c0,0.5-0.2,0.8-0.7,0.8c-2.4,0-4.7,0-7.1,0c-0.6,0-0.9-0.4-1.2-0.8c-2-2.7-3.9-5.3-5.9-8c-0.7-1-1.5-2-2.2-3 c-0.1-0.1-0.2-0.1-0.3-0.2c-0.1,0.1-0.2,0.2-0.2,0.4c0,1.9,0,3.7,0,5.6c0,1.7,0,3.5,0,5.2c0,0.9,0,1-0.9,1c-0.9,0-1.9,0-2.8,0 c-0.9,0-0.9,0-0.9-1c0-2.3,0-4.6,0-6.9C106.4,78.2,106.4,77.8,106.4,77.5z"></path> <path style="fill:#FFFFFF;" d="M91.6,86.5c-1.4-0.1-3.5-0.1-5.6-0.4c-2.7-0.3-4.1-1.9-4.2-4.6c-0.1-2.6-0.1-5.2,0-7.8 c0.2-3,2.1-4.6,5-4.7c3.4-0.2,6.8-0.1,10.3-0.1c0.6,0,1.2,0,1.8,0c0.3,0,0.6,0,0.9,0c3,0.3,4.5,1.9,4.5,4.8c0,2.6,0,5.3,0,7.9 c0,2.6-1.1,3.9-3.6,4.3c-1.3,0.2-2.7,0.3-4.1,0.4C95.2,86.6,93.7,86.5,91.6,86.5z M93,81.8C93,81.8,93,81.8,93,81.8 c0.7,0.1,1.3,0.1,2,0.1c0.7,0,1.3,0,2,0c1.6-0.1,2.2-0.6,2.2-2.3c0-1.4,0.1-2.8,0-4.1c0-0.5-0.3-1-0.6-1.5 c-0.4-0.6-1.1-0.6-1.8-0.6c-2.5,0-5,0-7.6,0c-1,0-1.6,0.5-1.9,1.3c-0.2,0.5-0.3,1.1-0.3,1.7c0,1.2,0,2.4,0,3.5 c0,1.4,0.3,1.8,1.8,1.9C90.2,81.8,91.6,81.8,93,81.8z"></path> <path style="fill:#FFFFFF;" d="M60,77.6c0-2.5,0-5,0-7.6c0-1.1,0-1.2,1.1-1.2c4.4,0,8.7,0,13.1,0c1.1,0,2.1,0.1,3.2,0.3 c1.9,0.4,2.7,1.4,2.9,3.4c0.1,1.1,0.1,2.3,0,3.4c-0.1,1.6-0.7,2.3-2.3,2.7c-0.3,0.1-0.6,0.1-0.9,0.2c-0.1,0-0.2,0.1-0.3,0.1 c0.1,0,0.2,0,0.3,0.1c0.2,0,0.4,0,0.6,0c1.6,0.3,2.7,1.4,2.8,3c0.1,1.2,0,2.4,0,3.7c0,0.4-0.1,0.7-0.6,0.7c-1.3,0-2.7,0-4,0 c-0.4,0-0.7-0.2-0.6-0.6c0-0.8,0-1.6,0-2.4c0-1-0.3-1.4-1.3-1.7c-0.4-0.1-0.8-0.2-1.3-0.2c-2.2,0-4.5,0-6.7,0c-0.8,0-0.8,0-0.8,0.8 c0,1.1,0,2.1,0,3.2c0,1,0,1-1,1c-1.1,0-2.1,0-3.2,0c-0.8,0-0.9-0.1-0.9-0.9C59.9,82.9,60,80.2,60,77.6z M69.4,77.6 C69.4,77.6,69.4,77.6,69.4,77.6c1.3,0,2.7,0,4,0c1.4,0,1.8-0.4,1.9-1.8c0-0.3,0-0.5,0-0.8c0-1.4-0.4-2-1.9-2c-2.7,0-5.5,0-8.2,0 c-0.6,0-0.6,0.3-0.6,0.7c0,1.1,0,2.1,0,3.2c0,0.6,0.2,0.7,0.8,0.7C66.7,77.6,68,77.6,69.4,77.6z"></path> <path style="fill:#FFFFFF;" d="M29.5,86.4c-0.7,0-1.4,0-2.1,0c-0.4,0-0.5-0.2-0.3-0.5c0.1-0.3,0.2-0.5,0.4-0.7 C30.9,78,34.5,71,38,63.9c0.4-0.9,0.9-1.2,1.9-1.2c1,0.1,2,0,3.1,0c0.8,0,0.9,0.1,0.5,0.8c-0.7,1.4-1.4,2.9-2.2,4.3 c-2.9,5.8-5.8,11.5-8.7,17.3c-0.4,0.9-1,1.4-2,1.2C30.3,86.4,29.9,86.4,29.5,86.4C29.5,86.4,29.5,86.4,29.5,86.4z"></path> <path style="fill:#FFFFFF;" d="M51.1,71.3c0,0.6,0,1.2,0,1.8c0.1,0.7-0.2,1-0.8,1.2c-2,0.8-3.9,1.6-5.9,2.4 c-0.4,0.2-1.1,0.1-1.1,0.9c0,0.6,0.7,0.6,1.1,0.7c1.9,0.7,3.8,1.4,5.7,2.2c0.9,0.4,0.9,0.4,0.9,1.4c0,1.3,0,2.5,0,3.8 c0,0.6-0.1,0.7-0.7,0.4c-1.4-0.7-2.9-1.5-4.3-2.2c-2.6-1.3-5.2-2.7-7.9-4c-0.2-0.1-0.5-0.3-0.7-0.4c-0.4-0.2-0.5-0.5-0.3-0.9 c0.6-1.1,1.1-2.2,1.7-3.2c0.2-0.3,0.5-0.5,0.8-0.6c3.4-1.8,6.9-3.6,10.3-5.4c0.2-0.1,0.4-0.2,0.5-0.3c0.4-0.2,0.6-0.1,0.6,0.3 C51.1,70,51.1,70.7,51.1,71.3C51.1,71.3,51.1,71.3,51.1,71.3z"></path> <path style="fill:#FFFFFF;" d="M52.4,80.9c0-1.5,0-3.1,0-4.6c0-1,0-1,1-1c1.3,0,2.6,0,3.9,0c0.8,0,0.9,0.1,0.9,0.9 c0,3.1,0,6.2,0,9.3c0,0.8-0.1,0.9-0.9,0.9c-1.4,0-2.8,0-4.1,0c-0.6,0-0.8-0.2-0.8-0.8C52.4,84.1,52.4,82.5,52.4,80.9 C52.4,80.9,52.4,80.9,52.4,80.9z"></path> <path style="fill:#FFFFFF;" d="M55.3,68.8c0.7,0,1.4,0,2.1,0c0.5,0,0.8,0.1,0.8,0.7c0,1.3,0,2.6,0,3.9c0,0.4-0.2,0.6-0.7,0.7 c-1.5,0-3,0-4.5,0c-0.4,0-0.6-0.2-0.6-0.7c0-1.3,0-2.6,0-3.9c0-0.4,0.2-0.6,0.6-0.6C53.8,68.8,54.5,68.8,55.3,68.8 C55.3,68.8,55.3,68.8,55.3,68.8z"></path> </g> </svg> 