<?xml version="1.0" encoding="UTF-8"?> <!-- Generator: Adobe Illustrator 24.1.2, SVG Export Plug-In . SVG Version: 6.00 Build 0) --> <svg xmlns="http://www.w3.org/2000/svg" xmlns:xlink="http://www.w3.org/1999/xlink" version="1.1" id="Layer_1" x="0px" y="0px" viewBox="0 0 100 100" style="enable-background:new 0 0 100 100;" xml:space="preserve"> <g> <path style="fill:#FFFFFF;" d="M97.2,37.7c-7,0-14.1,0-21.1,0c-1,0-1.5-0.5-1.5-1.5c0-0.7,0-1.5,0-2.3c0.6,0,1.1,0,1.5,0 c6.3,0,12.5,0,18.8,0c1.9,0,2.1,0.2,2.2,2.2c0,0.5,0.1,0.9,0.2,1.4C97.2,37.6,97.2,37.6,97.2,37.7z"></path> <path style="fill:#FFFFFF;" d="M25.9,69.5c-0.6,0-1,0-1.5,0c-6,0-12,0-18,0c-2.4,0-3.1-0.8-3.1-3.2c0-6,0-11.9,0-17.9 c0-0.4,0-0.8,0-1.3c0.5,0,0.9-0.1,1.3-0.1c6.1,0,12.3,0,18.4,0c2,0,2.8,0.8,2.8,2.7c0,6.2,0,12.3,0,18.5 C25.9,68.7,25.9,69,25.9,69.5z M11.5,57.3c0,2.4,0,4.7,0,7c0,1-0.3,1.5-1.3,1.4c-0.2,0-0.4,0-0.6,0c-0.2,0.1-0.3,0.3-0.5,0.5 c0.2,0.1,0.3,0.4,0.5,0.4c2.4,0,4.8,0,7.2,0c0.2,0,0.3-0.2,0.5-0.3c-0.2-0.2-0.3-0.5-0.5-0.5c-0.6-0.1-1.2,0.1-1.7-0.1 c-0.4-0.1-1-0.6-1-0.9c-0.1-2.4,0-4.9,0-7.5c0.8,0,1.4,0,2.1,0c1.3,0,1.3,0,1-1.1c-1,0-2,0-3.1,0c0.1-1.8-0.5-3.7,1.3-5 c0.8-0.6,1.8-0.7,2.5-0.2c-0.2,0.7-0.5,1.3-0.5,1.9c0,0.3,0.8,0.7,1.2,0.6c0.5-0.1,1.1-0.4,1.4-0.8c0.5-0.8-0.2-1.9-1.3-2.4 c-3-1.2-6.3,0.5-6.9,3.7c-0.1,0.7-0.2,1.4-0.3,2.2c-0.5,0-1.1,0-1.5,0c-0.2,0-0.4,0.3-0.6,0.5c0.2,0.2,0.4,0.5,0.7,0.5 C10.4,57.3,10.9,57.3,11.5,57.3z"></path> <path style="fill:#FFFFFF;" d="M74.7,39.4c0.4,0,0.7-0.1,1.1-0.1c6.2,0,12.4,0,18.7,0c1.8,0,2.6,0.8,2.6,2.5c0,6.3,0,12.6,0,18.9 c0,0.2-0.1,0.5-0.1,0.8c-0.4,0-0.8,0-1.1,0c-6.1,0-12.3,0-18.4,0c-2.1,0-2.8-0.7-2.8-2.7c0-6.1,0-12.3,0-18.4 C74.6,40.1,74.7,39.8,74.7,39.4z M87.1,51.3c0-1.7,0-3.4,0-5c0-0.8-0.3-1-1-1c-1.1,0.1-2.2,0.1-3.3,0.1c-0.4,0-1.2-0.2-1,0.7 c0,0.2,0.7,0.5,1,0.5c1.5,0.1,1.8,0.4,1.8,2c0,2.4,0,4.8,0,7.1c0,1.7,0,1.7-1.7,1.9c-0.3,0-0.6,0.3-0.8,0.5 c0.3,0.2,0.6,0.5,0.9,0.5c1.9,0,3.8,0.1,5.7,0c0.4,0,0.7-0.3,1.1-0.5c-0.4-0.2-0.7-0.5-1-0.5c-1.2,0-1.6-0.5-1.6-1.6 C87.1,54.4,87.1,52.8,87.1,51.3z M87.3,42.4c0-0.9-0.9-1.8-1.8-1.8c-0.9,0-1.8,0.8-1.8,1.7c0,0.9,0.8,1.8,1.8,1.8 C86.4,44.1,87.3,43.3,87.3,42.4z"></path> <path style="fill:#FFFFFF;" d="M73.3,69.5c-0.5,0-0.9,0-1.4,0c-5.9,0-11.9,0-17.8,0c-2.6,0-3.3-0.7-3.3-3.2c0-6,0-11.9,0-17.9 c0-0.4,0-0.8,0.1-1.2c0.4,0,0.7-0.1,1-0.1c6.3,0,12.6,0,18.9,0c1.7,0,2.6,0.9,2.6,2.6c0,6.4,0,12.7,0,19.1 C73.3,68.9,73.3,69.1,73.3,69.5z M67.8,61.5c-0.1-0.1-0.2-0.2-0.3-0.3c-0.3,0.3-0.7,0.5-0.8,0.8c-0.5,1.3-0.7,2.9-2.4,3.2 c-1.6,0.3-3.2,0.1-5,0.1c0.2-0.3,0.3-0.5,0.5-0.7c2.4-3.3,4.9-6.6,7.3-9.9c0.3-0.3,0.3-0.8,0.5-1.3c-3.7,0-7.2,0-10.7,0 c-0.1,1.6-0.2,3.1-0.3,4.5c0.8,0.3,1.1,0.1,1.2-0.6c0.3-1.1,0.5-2.4,1.7-2.7c1.5-0.3,3.1-0.2,5-0.3c-2.8,3.7-5.3,7.1-7.8,10.6 c-0.3,0.4-0.4,1-0.7,1.6c4,0,7.7,0,11.4,0c0.1-1.6,0.2-3,0.2-4.5C67.8,61.8,67.8,61.7,67.8,61.5z"></path> <path style="fill:#FFFFFF;" d="M27.1,47.1c2.1,0,4,0,6,0c4.5,0,9.1,0,13.6,0c2,0,2.8,0.8,2.8,2.7c0,6.1,0,12.3,0,18.4 c0,0.9-0.2,1.2-1.2,1.2c-6.1,0-12.3,0-18.4,0c-2.1,0-2.9-0.8-2.9-2.8c0-6.1,0-12.3,0-18.4C27.1,47.9,27.1,47.6,27.1,47.1z M40.1,64.4c1.9,2.6,3.5,2.9,5.3,0.9c-0.3-0.2-0.6-0.5-0.9-0.4c-1.6,0.1-1.9,0-1.9-1.7c0-2.3,0-4.6,0-6.9c0-1.3-0.6-2.3-1.7-3 c-2.3-1.4-6.5-0.9-8.2,1.2C32.3,55,32,55.9,32,56.6c0,0.4,0.7,1.1,1.2,1.2c0.5,0.1,1.3-0.1,1.6-0.5c0.3-0.3,0.3-1,0.1-1.5 c-0.5-1.4-0.5-1.8,1.1-2.1c0.7-0.1,1.5-0.1,2.2,0c1.7,0.5,2.2,1.7,1.9,4.3c-0.5,0.1-1,0.1-1.6,0.3c-2.3,0.5-4.6,1-6.3,2.8 c-1.8,1.9-1,4.5,1.6,5.2C36.2,67,38.4,66.4,40.1,64.4z"></path> <path style="fill:#FFFFFF;" d="M96.9,31.4c-0.4,0-0.7,0.1-1.1,0.1c-6.6,0-13.1,0-19.7,0c-1.4,0-1.5-0.1-1.3-1.5 c0.3,0,0.7-0.1,1-0.1c6.6,0,13.2,0,19.8,0C96.9,29.8,97.1,30,96.9,31.4z"></path> <path style="fill:#FFFFFF;" d="M96.9,27.7c-7.4,0-14.8,0-22.2,0c0-0.3,0-0.6,0-0.9c7.4,0,14.8,0,22.2,0 C96.9,27.1,96.9,27.4,96.9,27.7z"></path> <path style="fill:#FFFFFF;" d="M40,59c0.5,3.2-0.4,5.2-2.3,6.1c-1.4,0.6-2.8,0.4-3.3-0.6c-0.7-1.2-0.3-3.1,1-3.7 C36.7,60,38.3,59.6,40,59z"></path> </g> </svg> 