<?xml version="1.0" encoding="UTF-8"?> <!-- Generator: Adobe Illustrator 24.1.2, SVG Export Plug-In . SVG Version: 6.00 Build 0) --> <svg xmlns="http://www.w3.org/2000/svg" xmlns:xlink="http://www.w3.org/1999/xlink" version="1.1" id="Capa_1" x="0px" y="0px" viewBox="0 0 480 480" style="enable-background:new 0 0 480 480;" xml:space="preserve"> <g> <g> <path style="fill:#FFFFFF;" d="M383.1,64L342,53v278.8l62-231.5C408.3,84.5,398.9,68.2,383.1,64z"></path> </g> </g> <g> <g> <path style="fill:#FFFFFF;" d="M442.8,149.4l-18.5-10.7l-50.9,190.1l80.3-139C461.8,175.7,457,157.6,442.8,149.4z"></path> </g> </g> <path style="fill:#FFFFFF;" d="M346.6,319.9c-40.2,0-72.9,31.9-72.9,71s32.7,71,72.9,71s72.9-31.9,72.9-71S386.8,319.9,346.6,319.9z M375.6,393.4L333,420.1c-0.5,0.3-1.1,0.5-1.6,0.5c-0.5,0-1-0.1-1.5-0.4c-1-0.5-1.6-1.5-1.6-2.6v-53.3c0-1.1,0.6-2.1,1.6-2.6 c0.4-0.2,1-0.4,1.5-0.4c0.6,0,1.1,0.2,1.6,0.5l42.5,26.6c0.9,0.5,1.4,1.5,1.4,2.5S376.4,392.9,375.6,393.4z"></path> <g> <path style="fill:#FFFFFF;" d="M312.4,328.2c-23,12-38.7,35.6-38.7,62.7c0,24.5,12.8,46.2,32.3,59c4-5.1,6.5-11.5,6.5-18.5V328.2z"></path> <path style="fill:#FFFFFF;" d="M268.7,391c0-29.9,17.8-55.8,43.7-68.2V46.6c0-16.3-13.3-29.6-29.6-29.6H46 c-16.3,0-29.6,13.3-29.6,29.6v384.9c0,16.3,13.3,29.6,29.6,29.6h236.8c7.6,0,14.5-2.9,19.8-7.6C282.1,439.8,268.7,416.9,268.7,391z M197.7,283.4c-6.3,0-12.5-1.2-18.5-3.1V313H194c8.2,0,14.8,6.6,14.8,14.8c0,8.2-6.6,14.8-14.8,14.8h-59.2 c-8.2,0-14.8-6.6-14.8-14.8c0-8.2,6.6-14.8,14.8-14.8h14.8v-32.7c-6,1.9-12.2,3.1-18.5,3.1c-31.1,0-55.5-23.2-55.5-52.9 c0-38.9,61.9-80.9,80.9-92.9c4.8-3,10.9-3,15.7-0.1c13.6,8.3,81.1,52.1,81.1,92.9C253.2,260.2,228.8,283.4,197.7,283.4z"></path> </g> </svg> 