<?xml version="1.0" encoding="UTF-8"?> <svg xmlns="http://www.w3.org/2000/svg" xmlns:xlink="http://www.w3.org/1999/xlink" version="1.1" id="Layer_1" x="0px" y="0px" viewBox="0 0 1000 1000" style="enable-background:new 0 0 1000 1000;" xml:space="preserve"> <g> <g> <path style="fill:#FDC440;" d="M754,445.4c17.9,1.1,41.2,1.6,70,1.6c13.1,0,24.7-0.1,34.6-0.4c10.1-0.2,19.1-0.5,27.5-1 c8.3-0.4,16-1,23.2-1.6s14.2-1.4,21.3-2.3c-2.6,7.4-4.9,14.2-6.9,20.3c-2,6.1-3.6,12.2-4.9,18.3s-2.5,12.6-3.6,19.6 c-1.1,6.9-2,15-2.9,24.2c-20-2.6-40.4-4.5-61.1-5.9s-44.1-2-70.3-2h-26.8c-4.4,0-8.9,0-13.7,0c-4.4,0-9.3,0.3-15,0.6 c-6.1,19.6-11.7,38.9-17,57.9s-10.2,38.3-15,57.9h3.9c8.3-2.1,16.6-4.1,25.2-5.9c8.5-1.8,18.6-2.6,30.4-2.6 c18.3,0,35.1,2.8,50.4,8.5c15.2,5.7,28.2,13.6,38.9,23.9c10.7,10.2,19,22.5,25.2,36.9c6.1,14.4,9.2,30.5,9.2,48.4 c0,19.2-3.5,37.5-10.5,54.9c-6.9,17.4-17.3,32.7-30.7,45.8c-13.5,13.1-30.3,23.3-50.4,30.7c-20,7.4-43.2,11.1-69.3,11.1 c-18.8,0-35.5-1.4-50.4-4.3s-27.9-6.7-39.3-11.5c-11.3-4.8-21.2-9.9-29.5-15.4c-8.3-5.4-15.2-10.3-20.9-14.7 c7.4-10.1,14.1-20.1,19.9-30.4c5.9-10.2,11.7-21.5,17.4-33.6h9.8c1.3,6.9,3,15.2,5.3,24.8c2.1,9.6,5.8,18.8,10.8,27.5 s11.7,16,20.3,21.9c8.5,5.9,19.8,8.8,33.6,8.8c17.4,0,31.8-5.2,43.2-15.4c11.3-10.2,20.3-22.4,26.8-36.6 c6.5-14.2,11.1-28.7,13.7-43.5c2.6-14.8,3.9-26.8,3.9-36c0-9.6-1.3-18.6-3.9-27.1s-6.5-16-11.7-22.5c-5.3-6.5-11.7-11.7-19.3-15.7 c-7.7-3.9-16.5-5.9-26.5-5.9c-12.6,0-22.5,2.2-29.7,6.5c-7.2,4.4-13.4,8.9-18.6,13.7l-18.6-11c5.3-16.1,10.3-33.4,15.4-51.6 c5-18.3,9.6-36.9,13.7-55.9c4.1-19,7.9-37.7,11.5-56.3c3.5-18.5,6.3-35.9,8.5-52l5.9-6.5C720.4,443.1,736.2,444.2,754,445.4z"></path> </g> <path style="fill:#FDC440;" d="M520.3,501.5c3.4,25,10,48.4,19.6,71.6c-19.2-4.5-38.2-4.5-57.5,0c9.7-23.1,16.2-46.7,19.7-71.5 c-3.4,2.7-6.3,5.3-9.4,7.6c-39.4,28.4-95.2,5.7-102.7-42.1c-5.5-35.2,5.1-65.4,31.9-89.3c15.2-13.6,30.9-26.7,46.2-40.2 c13.5-12,26.4-24.6,36.6-39.7c2.3-3.4,4.3-6.9,6-9.8c4.7,6.8,9.1,14.2,14.4,20.8c9.8,12.4,21.6,23,33.6,33.2 c14.1,12.1,28.3,24.2,42.4,36.2c18.7,16,28.8,36.6,32,60.7c2.3,17.2,0.9,34.1-8.1,49.3c-13.9,23.6-35.2,34.4-62.5,32.8 c-15.5-0.9-28.8-7.4-40.1-17.9C521.9,502.8,521.4,502.4,520.3,501.5z"></path> <path style="fill:#FDC440;" d="M282.5,575c-4.5,0.6-8.9,1.1-13.8,1.8c0-1.2,0-2.2,0-3.1c0-136.2,0-272.3,0-408.5 c0-28.2,21.4-49.6,49.5-49.6c128.4,0,256.8,0,385.2,0c15.5,0,28.4,5.9,38.4,17.8c8.1,9.6,11.3,20.9,11.3,33.4c0,67,0,134.1,0,201.1 c0,46,0,9.4,0,55.4c0,2.1-0.6,3.5-2.2,4.9c-3.7,3-7.3,6.2-11.6,9.8c0-1.8,0-3,0-4.1c0-116.9,0-151.3,0-268.2 c0-16.6-9.8-30.3-25.2-34.8c-3-0.9-6.3-1.4-9.4-1.4c-129.3-0.1-258.6-0.1-388,0c-18.6,0-34.3,15.8-34.3,34.5 c0,135.8,0,271.6,0,407.4C282.5,572.3,282.5,573.5,282.5,575z"></path> <path style="fill:#FDC440;" d="M208.1,595c-2.3-8.4-4.5-16.5-6.7-24.7c-12.7-47.4-25.4-94.8-38.2-142.2 c-10.7-39.8-21.3-79.5-31.9-119.3c-1.9-7-4.1-14.1-4.9-21.2c-2.8-23.7,12.3-45.7,35.5-52c26.4-7.2,52.8-14.2,79.3-21.3 c3.1-0.8,6-0.8,8.2,1.8c1.7,2,2.2,4.4,1.2,6.9s-2.9,3.7-5.5,4.4c-26.3,7-52.7,14.1-79,21.2c-19.1,5.1-30.3,23.9-25.3,43 c15.8,59.4,31.8,118.7,47.7,178.1c9.9,37,19.8,74.1,29.7,111.2c0.6,2.4,1.2,4.8,1.9,7.1c0.4,1.2,0.3,2-1.1,2.5 C215.7,591.8,212.1,593.4,208.1,595z"></path> <path style="fill:#FDC440;" d="M326.7,226.5c2.9,5.4,8,9,12.5,13c3.4,3,6.8,5.8,8.1,10.6c1.7,6.2,0.7,11.7-3.4,15 c-4.4,3.5-9,3.5-15.8-0.3c1.1,4.1,2,7.8,3,11.6c-3.1,0-6.1,0-9.4,0c1-3.8,2-7.5,3.1-11.7c-3.6,2.3-6.8,3.7-10.5,3 c-7.3-1.4-11.3-9-9.1-16.5c1.5-5.2,4.9-8.5,8.7-11.8c2.3-1.9,4.6-3.8,6.8-6C322.9,231.2,324.7,228.8,326.7,226.5z"></path> <path style="fill:#FDC440;" d="M215.7,384.5c-3.1,0.8-6,1.6-9.2,2.5c0-3.8,0-7.6,0-11.7c-2.1,1.5-3.6,3.1-5.5,3.9 c-8.3,3.6-16.3-1.8-17-11.3c-0.3-4.3,0.8-8.3,3.3-11.8c2.1-3,4.2-5.9,6.1-9.1c1.8-2.9,3.2-6.1,4.9-9.3c5.6,5.4,13.3,7.6,20.2,11.5 c5.5,3,8.3,7.9,8.6,14c0.5,7.6-7.1,13.5-14.6,11.6c-0.8-0.2-1.5-0.5-3.1-1C211.8,377.8,213.7,381.1,215.7,384.5z"></path> <path style="fill:#FDC440;" d="M329.3,155c4.9,13.2,9.7,26.4,14.5,39.5c0.5,1.3,1.1,2.5,1.5,3.8c1.3,3.7,3.2,6.6,7.7,6.5 c0,1.2,0,2.1,0,3.1c-7.6,0-15.1,0-22.8,0c0-0.9,0-1.9,0-2.9c0.7-0.2,1.4-0.3,2.1-0.5c1.8-0.5,2.6-1.6,2-3.5c-1-2.9-2-5.9-3.1-8.7 c-0.2-0.6-1.3-1.2-2-1.2c-3.9-0.1-7.8-0.1-11.8,0c-0.8,0-1.9,0.9-2.2,1.6c-1,2.3-1.8,4.8-2.5,7.2c-0.8,2.8-0.3,3.8,2.7,4.4 c2.1,0.4,2.9,1.2,2.1,3.5c-5.8,0-11.7,0-17.7,0c0-1,0-1.8,0-3.1c5.6,0.3,7.1-3.8,8.7-7.9c5-12.7,10.2-25.3,15.1-38 C324.8,156.2,326.3,154.9,329.3,155z M317.3,186.4c4.1,0,7.8,0,11.9,0c-1.9-5.5-3.7-10.8-5.5-16.1c-0.2,0-0.4,0-0.6,0 C321.3,175.6,319.4,180.8,317.3,186.4z"></path> <path style="fill:#FDC440;" d="M191.8,266.2c0.3,1.1,0.5,1.9,0.7,2.6c-0.1,0.2-0.2,0.4-0.3,0.5c-5,2.4-5.1,2.6-3.8,7.9 c2.8,10.8,5.8,21.6,8.4,32.5c2.4,10-1.5,19.2-9.8,24.5c-0.5,0.3-1.1,0.6-1.8,1c-0.6-0.8-1.2-1.6-2-2.6c6.3-4.6,5.3-10.9,3.8-17 c-2.9-12-6.1-24-9.4-35.9c-1.3-4.8-2.1-5.1-8.2-4.4c-0.2-0.9-0.5-1.8-0.8-2.8C176.4,270.3,184,268.3,191.8,266.2z"></path> <path style="fill:#FDC440;" d="M106.4,651.9h-37v-24.3h105.4v24.3h-37v101.7h-31.5L106.4,651.9L106.4,651.9z"></path> <path style="fill:#FDC440;" d="M201.5,742.5c-10.4-8.7-15.5-21-15.5-36.9v-78h31.5v75.1c0,8.7,2.2,15.3,6.7,19.6s11.1,6.5,19.7,6.5 s15.2-2.2,19.7-6.5s6.7-10.8,6.7-19.6v-75.1h31.5v78c0,15.9-5.2,28.2-15.5,36.9c-10.4,8.7-24.5,13-42.3,13 C226,755.5,211.9,751.2,201.5,742.5z M212.2,592.6h23.1v21.3h-23.1V592.6z M252.5,592.6h23.1v21.3h-23.1V592.6z"></path> <path style="fill:#FDC440;" d="M320.7,627.6h63c14.5,0,25.3,3.8,32.6,11.4c7.2,7.6,10.9,18.2,10.9,31.8c0,8.5-2.1,15.9-6.4,22.3 c-4.2,6.4-10.1,11.1-17.7,14.3c1.7,1.4,3.1,3,4.2,4.7s2.4,4.2,3.8,7.4l14.9,34h-32.9l-14.1-32c-1.2-2.9-2.7-4.9-4.5-6.1 c-1.8-1.2-4.4-1.8-7.8-1.8h-14.5v39.9h-31.5V627.6z M375.5,689.4c6.3,0,11.1-1.6,14.5-4.7c3.4-3.1,5.1-7.8,5.1-13.9 c0-12.6-6.1-19-18.2-19h-24.6v37.6L375.5,689.4L375.5,689.4z"></path> <path style="fill:#FDC440;" d="M443.2,627.6h31.5v48.9l43.4-48.9h36l-45,51.4l47.7,74.5h-33.6l-33.6-54.4l-14.9,16.2v38.1h-31.5 L443.2,627.6L443.2,627.6z"></path> <path style="fill:#FDC440;" d="M83.8,774.1H121c13.4,0,23.5,3.4,30.2,10.3c6.7,6.8,10.1,17.9,10.1,33.2c0,14.5-3.4,25.2-10.1,32 c-6.7,6.9-16.8,10.3-30.2,10.3H83.8V774.1z M118,843.4c5,0,9-0.7,12-2.1c3-1.4,5.3-4,6.9-7.7c1.6-3.7,2.4-9.1,2.4-16 c0-7-0.7-12.5-2.2-16.3c-1.5-3.9-3.7-6.6-6.8-8.2c-3.1-1.6-7.2-2.4-12.3-2.4h-12.8v52.8L118,843.4L118,843.4z"></path> <path style="fill:#FDC440;" d="M172.1,774.1h63.3v16.5h-41.8v18h36.9v16.8h-36.9v18h41.8v16.5h-63.3V774.1z"></path> <path style="fill:#FDC440;" d="M275.7,774.1h23.2l32.8,85.8h-22.4l-7.7-19.4H273l-7.6,19.4H243L275.7,774.1z M298.7,824.6 l-11.5-29.8l-11.3,29.8H298.7z"></path> <path style="fill:#FDC440;" d="M342.6,774.1H364v69.3h40.5v16.5h-61.9V774.1z"></path> <path style="fill:#FDC440;" d="M410.8,774.1h63.3v16.5h-41.8v18h36.9v16.8h-36.9v18h41.8v16.5h-63.3V774.1z"></path> <path style="fill:#FDC440;" d="M484.3,774.1h42.9c9.9,0,17.2,2.6,22.2,7.8c4.9,5.2,7.4,12.4,7.4,21.6c0,5.8-1.4,10.8-4.3,15.2 c-2.9,4.4-6.9,7.6-12.1,9.7c1.2,1,2.1,2,2.9,3.2c0.8,1.2,1.6,2.8,2.6,5.1l10.1,23.2h-22.4L524,838c-0.8-2-1.8-3.3-3.1-4.1 c-1.2-0.8-3-1.2-5.3-1.2h-9.9v27.2h-21.4L484.3,774.1L484.3,774.1z M521.6,816.2c4.3,0,7.5-1.1,9.9-3.2c2.3-2.1,3.5-5.3,3.5-9.5 c0-8.6-4.1-12.9-12.4-12.9h-16.8v25.6L521.6,816.2L521.6,816.2z"></path> </g> </svg> 