<?xml version="1.0" encoding="UTF-8"?> <svg xmlns="http://www.w3.org/2000/svg" xmlns:xlink="http://www.w3.org/1999/xlink" version="1.1" id="Layer_1" x="0px" y="0px" viewBox="0 0 1000 1000" style="enable-background:new 0 0 1000 1000;" xml:space="preserve"> <style type="text/css"> .st0{fill:#FFFFFF;} </style> <g> <path class="st0" d="M957.2,489.4c-9.9,41.8-40.9,63.1-77.3,78.7c-40.1,17.1-82.6,24.3-125.6,28.5c-16,1.5-32,2.3-50.1,3.5 c0,12.9,0.3,25.7-0.1,38.4c-2.4,83.6-5,167.2-7.6,250.8c0,1.5,0,3-0.1,4.5c-0.8,8.3-6.2,13.7-13.7,13.6c-7.4-0.1-12.9-5.8-13-14.1 c-0.1-8.6,0.3-17.3,0.6-25.9c3.4-109.8,6.8-219.6,10.2-329.4c0.6-18.7,1.4-37.5,1.5-56.2c0-3.1-2.1-7.6-4.6-9 c-29.1-16.5-60.1-28.4-93.1-38.4c-2.6,19.2-5.1,37.9-7.5,56.6c-3.1,23.6-6.1,47.2-9.2,70.8c-1.3,9.6-7.2,14.6-15.5,13.6 c-7.7-1-12.2-6.8-11.1-16.4c4.2-34.5,8.9-69,13.4-103.5c1.2-9.1,2.3-18.2,3.7-28.5c-9-2.4-17.9-4.4-26.6-7.1 c-7.1-2.3-10.5-7.7-9.1-15.2c1.4-7.3,7.5-11.2,15.3-10.3c1.8,0.2,3.6,0.5,5.3,1c33.7,10.6,67.7,20.3,100.9,32.3 c29.1,10.5,57,24.4,80.9,44.5c11.2,9.4,21.6,20.7,29.3,33.1c12.1,19.5,7.5,40.1-9.7,55.5c-3.9,3.5-8.3,6.5-12.2,11.4 c16.6-1.9,33.2-3.3,49.8-5.7c37.2-5.5,73.7-13.6,106.9-32.4c8.2-4.6,16.1-10.3,23-16.7c19.5-18.2,23.4-39.9,12.4-64.1 c-8.1-17.7-21-31.6-34.9-44.8c-2.4-2.3-5-4.3-7.1-6.8c-5-5.7-5.4-12-0.4-17.7c5-5.8,11.8-7,17.6-2.1c25.3,21.5,46.9,45.7,55.6,78.9 c0.7,2.5,1.4,5.1,2.1,7.6C957.2,475.1,957.2,482.3,957.2,489.4z M711.3,493.7c-1.1,0.6-2.1,1.1-3.2,1.7c0,18.5,0,37,0,56.7 c6-3.6,11.7-6.2,16.6-9.9c10-7.6,12-16,5.1-26.3C724.5,507.9,717.5,501,711.3,493.7z"></path> <path class="st0" d="M263.4,237.9c-5.9,32.8-20,49.2-43.7,53.5c-25,4.6-42.3-5.2-59.7-34.2c-24.8,7.3-48.8,16.5-68.8,33.7 c-23.2,20-27.8,44-13.6,71.2c12,23,30.6,40.1,50.6,55.8c28.5,22.3,59.7,40,92.4,55.4c1,0.5,2,0.8,4.5,1.8c-2.9-4.5-5.1-7.6-7-10.8 c-13.9-23.2-9.3-47,12.6-62.9c21.6-15.7,46.9-21.1,72.7-24.6c55.3-7.4,110.5-3.7,165.5,3.9c10.5,1.4,15.8,6.9,15.1,15.2 c-0.8,8.6-7.2,12.5-18.6,11.4c-4.4-0.5-8.8-1.2-13.3-1.8c-4.4-0.5-8.8-1-13.9-1.5c-6.2,24.7-12.4,49.2-18.5,73.6 c-13.9,55.7-27.7,111.3-41.6,167c-0.4,1.7-0.9,3.5-1.4,5.2c-2.5,8-9.1,12.3-16.1,10.5c-7.6-1.9-11.7-8.9-9.7-17.3 c5.8-24,11.9-47.9,17.9-71.8c13.7-54.8,27.4-109.6,41-164.4c0.3-1.4,0.6-2.8,1-5.1c-4.2-0.5-8-1.3-11.7-1.2 c-27.9,0.4-55.9,1.1-83.8,1.6c-7.3,0.1-11.3,2.9-13.9,10.5c-25.7,72.8-52,145.5-78.1,218.2c-0.7,2-1.3,4-2.1,5.9 c-3.6,8.9-10.6,12.6-18.2,9.6c-7-2.8-9.9-10.1-6.9-18.7c13.2-37.2,26.6-74.4,39.9-111.7c0.5-1.4,0.9-2.7,1.7-4.8 c-13-6.2-26-12-38.6-18.3c-38.2-19.1-74.7-40.7-106.3-69.8c-15.9-14.6-29.9-30.7-39.6-50.2C34.2,334.9,41.7,298,73.7,270.6 c22.4-19.2,48.9-30.2,76.8-38.3c5.9-1.7,9.2-4.3,11.5-10.4c14.1-37.2,62.7-45.1,87.9-14.3c3.9,4.8,7.4,6.1,13.4,5.7 c18.7-1.2,37.5-1.3,56.2-2.5c3.9-0.2,8.7-2.1,11.4-4.9C453.5,78.4,662.5,117.8,730,281.2c1.7,4,6,7.8,10,9.8 c32.2,15.8,64.7,31.2,97.1,46.8c1.6,0.8,3.1,1.8,4.6,2.7c9.1,5.6,11.8,12.7,7.7,19.8c-4.1,7.1-11.9,8.3-21.1,3.5 c-17.8-9.5-35.4-19.6-53.7-28.2c-80.6-38.1-165.7-62-253.1-78.2c-70.4-13.1-141.3-20.3-213-19.5C293.5,238,278.4,237.9,263.4,237.9 z M365.9,211c113,7,222.9,27.9,332.3,64.5c-35.6-65.4-87.6-104.1-158.5-115.5C474.2,149.4,416.1,167.6,365.9,211z M185.2,240.4 c0,13.7,11,25.1,24.6,25.3c13.7,0.2,25.7-11.8,25.5-25.5c-0.2-13.6-11.6-24.6-25.3-24.6C196.1,215.6,185.3,226.4,185.2,240.4z M273.9,409.4c-8.8,3.9-15.6,6.5-21.9,10c-7.6,4.2-15.2,9.3-14.8,19.4c0.5,11.5,8,18.8,16.6,26.8 C260.6,446.7,266.8,429.3,273.9,409.4z"></path> <path class="st0" d="M765.5,240.4c0.1-28.6,22.9-51.5,51.5-51.6c28.9-0.1,52.5,23.3,52.3,52c-0.1,28.2-23.6,51.7-51.8,51.9 C788.9,292.8,765.4,269.2,765.5,240.4z M816.8,215.6c-13.9,0.2-24.6,11.2-24.5,25.2c0.1,13.7,11.4,25,24.9,25 c13.8,0,25.6-12.2,25.2-25.9C842,226.2,830.6,215.4,816.8,215.6z"></path> <path class="st0" d="M325.6,346.9c-24.8,0.1-45.2-18.2-45.5-40.7c-0.2-21.9,18.1-39.4,41.8-39.6c24.8-0.3,45.8,18.7,45.9,41.5 C368,330.1,349.8,346.9,325.6,346.9z M325.5,320.1c9.2,0,15.7-5.1,15.6-12.2c-0.2-7.6-8.9-14.4-18.5-14.5 c-8.8-0.1-15.7,5.4-15.5,12.4C307.1,313.5,315.6,320.1,325.5,320.1z"></path> <path class="st0" d="M163,398.6c-25.1-0.1-45.5-19.1-45.2-42c0.2-21.2,19-38.3,42.2-38.4c24.8-0.1,45.6,18.9,45.6,41.8 C205.5,381.9,187,398.7,163,398.6z M163.5,371.8c8.7-0.1,15-5,15.1-11.7c0.1-7.9-9-15.2-18.9-15c-8.3,0.1-15,5.5-15.2,12 C144.4,364.9,153.4,371.9,163.5,371.8z"></path> <path class="st0" d="M513.7,285.6c25.1,0.1,45.5,18.9,45.3,41.9c-0.2,21.3-18.8,38.3-42,38.5c-24.8,0.2-45.7-18.8-45.7-41.7 C471.2,302.4,489.8,285.5,513.7,285.6z M513.4,312.4c-9,0-15.6,5.4-15.3,12.5c0.3,7.6,9.2,14.4,18.7,14.3 c8.8-0.1,15.6-5.7,15.4-12.6C531.8,318.9,523.2,312.4,513.4,312.4z"></path> <path class="st0" d="M701.5,418.3c-24.9,0.1-45.9-18.9-45.8-41.5c0.1-21.1,18.8-38.5,42-38.8c24.7-0.4,45.9,18.6,46.1,41.3 C743.9,401.2,725.5,418.2,701.5,418.3z M701.1,391.5c9.3,0.1,15.7-4.9,15.6-12.1c-0.1-7.6-8.8-14.5-18.4-14.6 c-8.6-0.1-15.9,5.7-15.8,12.4C682.7,384.7,691.4,391.4,701.1,391.5z"></path> <path class="st0" d="M833.5,526c-24.8,0-45.8-19.3-45.7-41.8c0.2-21.5,19.4-38.9,42.9-38.6c24.7,0.3,44.9,18.8,45.1,41.4 C875.9,508.7,857.2,526,833.5,526z M833.8,499.1c8.7-0.2,15-5,15.1-11.8c0.1-8-8.8-15-18.9-14.8c-8.4,0.2-15.1,5.4-15.3,11.9 C814.5,492,823.8,499.2,833.8,499.1z"></path> <path class="st0" d="M198.7,697.1c-0.5,1.8-1.2,4.7-2.2,7.5c-10.7,29.9-21.4,59.7-32.1,89.5c-3.8,10.4-10.5,14.4-18.7,11.2 c-7.5-2.9-9.9-10.4-6.4-20.3c11-30.7,22-61.4,33-92c2.6-7.3,7.6-11.7,15.5-10.2C194.7,684,198.5,688.7,198.7,697.1z"></path> <path class="st0" d="M734,106c13.4-11,20.1-12.4,26.3-5.8c6.3,6.8,4.9,12.6-6.6,25.5c5.9,7.6,16.4,14.7,6.3,26 c-5.6,6.3-11.4,4.8-25.9-5.7c-14.5,10.6-19.9,11.8-26,5.7c-6.5-6.6-5.2-12.2,6.1-25.8c-11.4-15.1-12.5-20.2-5.8-26.5 C714.5,93.8,720.7,95.3,734,106z"></path> <path class="st0" d="M245.7,122.5c-11.3-12.5-12.8-18.8-6.6-25.4c6.5-6.9,13.2-5.4,26.1,6.2c7.6-6.1,14.7-16.5,26.1-6.3 c6.3,5.6,4.7,11.7-5.8,25.9c10.6,13.9,11.9,19.9,5.7,26c-6,5.9-11.4,4.6-26-6.1c-13.6,10.8-19.8,12.2-25.9,6 C233,142.5,234.5,136.5,245.7,122.5z"></path> <path class="st0" d="M747.6,699.2c-11.4-13.1-12.9-19.8-6.2-26.2c6.4-6.1,13-4.4,25.7,6.6c7.6-6.2,14.9-16.3,26.1-6.2 c6.3,5.6,4.6,11.7-6.2,25.9c10.8,13.3,12.3,19.8,6,25.9c-6.3,6.2-12.3,4.7-25.9-6.3c-14,11.2-20.3,12.5-26.5,5.6 C734.9,718.2,736.5,712,747.6,699.2z"></path> </g> </svg> 