<?xml version="1.0" encoding="UTF-8"?> <!-- Generator: Adobe Illustrator 24.1.2, SVG Export Plug-In . SVG Version: 6.00 Build 0) --> <svg xmlns="http://www.w3.org/2000/svg" xmlns:xlink="http://www.w3.org/1999/xlink" version="1.1" id="Layer_1" x="0px" y="0px" viewBox="0 0 100 100" style="enable-background:new 0 0 100 100;" xml:space="preserve"> <style type="text/css"> .st0{fill:none;} .st1{fill:#FFFFFF;} .st2{fill-rule:evenodd;clip-rule:evenodd;fill:#EC1C24;} .st3{fill-rule:evenodd;clip-rule:evenodd;fill:#FFFFFF;} </style> <g> <g> <path class="st0" d="M63.2,8.2l-0.1-0.1l-1.3,1.2l1.3,0.6L63.2,8.2z"></path> <path class="st0" d="M33,50.5c0-0.3,0-0.7,0-1l1.5-8l2.7-14.4l3.1-16.5l0.2-1.5l0.1-0.7l-9.9,0.3c-0.5,0-0.9,0.2-1.2,0.5 C29.2,9.5,29,10,29,10.4v1.1v1.4l0.8,24.3v0.6l0.5,15C31.2,52,32.1,51.2,33,50.5z M34.9,21.3c-0.4,0-0.8-0.1-1-0.4l-0.1-0.1 c0.1,0.6,0.3,1.2,0.6,1.6H33c0.2-0.4,0.4-1,0.5-1.7l-0.1,0.1c-0.2,0.3-0.6,0.5-1,0.5c-0.8,0-1.4-0.6-1.4-1.4c0-0.1,0-0.2,0-0.2 c0.1-0.7,0.7-1.2,1.3-1.2c-0.1-0.2-0.1-0.3-0.1-0.5c0-0.8,0.6-1.4,1.4-1.4c0.8,0,1.4,0.6,1.4,1.4c0,0.2,0,0.4-0.1,0.5 c0.7,0,1.3,0.5,1.4,1.1c0,0.1,0,0.2,0,0.2C36.3,20.6,35.7,21.3,34.9,21.3z M32,12.4l0.6-1.5l0.2-0.4h1.1l0.1,0.2l0.6,1.3l1.8,3.9 h-1.2l-0.7-1.3l-2.3,0.1l-0.5,1.2h-1.2L32,12.4z"></path> <polygon class="st0" points="33.4,12 33.3,11.8 33.2,12.1 32.6,13.6 34.1,13.5 "></polygon> <path class="st0" d="M70.9,55.6L70,55.2L69.6,55v0.7c0.2,0.2,0.3,0.5,0.5,0.7L70.9,55.6z"></path> <path class="st0" d="M68.5,54.4l0.1-2.3l0.5,0.2l0.6,0.3l-0.1,1.3l0.5,0.2l1.5,0.7l1-0.9l1.1,0.5l-3.2,2.8c0.6,1,1.2,2.1,1.7,3.3 c0.2-0.1,0.3-0.3,0.4-0.5l18.9-40.5c0.4-0.9,0-1.9-0.8-2.3L62.3,4.1c-0.9-0.4-1.9,0-2.3,0.8l-6.7,14.6l-1,2.1l-11,23.9 c-0.1,0.2-0.2,0.5-0.2,0.8c2.4-0.8,5-1.2,7.7-1.2C56.7,45.1,63.8,48.7,68.5,54.4z M75.2,49.2c0.3,0.4,0.9,2.5-3.8,3.5 c-0.3-0.6-0.5-1.2-0.7-1.7c-0.7-2.2,0-3,0.6-3.3c0.2-0.1,0.3-0.1,0.4-0.1c0.8,0,1.3,0.6,1.4,1c0.2-0.6,0.3-1.2,0.2-1.6l0.6,0.3 l0.6,0.3c-0.4,0.2-0.8,0.7-1.1,1.2C74,48.6,74.7,48.6,75.2,49.2z M61.9,7.7L61.9,7.7l1.2-1.1l0.2-0.1l0,0l1,0.5v0.4v0.7l-0.1,4.7 l-1.1-0.5l0.1-1.3l-2.1-1l-1,0.9l-1.2-0.4L61.9,7.7z M61.3,12.3c2.2,4.3,0.2,5.1-0.3,5.1c-0.8,0-1.3-0.5-1.4-1 c-0.1,0.6-0.3,1.2-0.2,1.6l-1.2-0.6c0.4-0.2,0.8-0.7,1.1-1.2c-0.4,0.2-1.2,0.1-1.7-0.5C57.2,15.4,56.6,13.3,61.3,12.3z M56.7,32.1 c0.3-2.2,2-5,7.5-7.4v-0.1c0,0,0,0.1,0.1,0.1c0.4-0.2,0.8-0.3,1.3-0.5c1.5-0.6,3.3-1.1,5.4-1.6c1.1,2.2,2,4.2,2.6,5.9 c0.4,1.1,0.6,2.2,0.8,3.1c0.8,4.2-0.2,6.7-1.5,8c-0.5,0.5-1.1,0.9-1.6,1.1c-0.5,0.2-1,0.3-1.3,0.3c-1.7,0-3-0.7-3.9-1.6 c-0.6-0.6-1.1-1.4-1.3-2c0,0.2-0.1,0.3-0.1,0.5c-0.5,1.9-0.8,3.9-0.6,5.4L61.3,42l-0.2-0.1l-1.6-0.6c1.4-0.8,2.8-2.6,4-4.3 c-1.2,0.5-3,0.5-4.6-0.4c-0.5-0.3-1-0.7-1.4-1.2c-0.2-0.2-0.4-0.6-0.6-1.2C56.7,33.6,56.6,32.9,56.7,32.1z"></path> <path class="st0" d="M27.8,13.2l-10.5,2.3c-0.9,0.2-1.5,1.1-1.3,2l9.2,43.2c1-2.3,2.3-4.5,4-6.4L27.8,13.2z M19.5,16.8l1.1-0.2 l3.4,4.8l-1.2,0.3l-0.7-1.1l-2.2,0.5l-0.2,1.3l-1.2,0.3L19.5,16.8z M22.7,28.8l-3.2-2.7l1.8-3.8l3.2,2.7L22.7,28.8z"></path> <polygon class="st0" points="20.4,18.1 20,19.9 21.4,19.6 "></polygon> <path class="st0" d="M39.7,45.9c0-0.3,0.1-0.6,0.3-1l5.2-11.2l2.2-4.8c-0.9-3.7,0.5-5.8,1.8-6.8c0.4-0.3,0.8-0.5,1.1-0.6 c0.2,0,0.4,0,0.6,0l1-2.1l1-2.1l4.8-10.4l-1.9-0.4l-11.3-2c-0.5-0.1-0.9,0-1.3,0.3c-0.4,0.3-0.6,0.6-0.7,1.1l-0.2,1.2L42,8.5 L41.9,9l-0.3,1.5l-3.3,17.8l-2.7,14.4l-1.2,6.8c1.7-1.1,3.4-2,5.3-2.8C39.7,46.5,39.7,46.2,39.7,45.9z M43.9,9.8l1-1.6V8.1 l0.9-1.3L46,6.5l1.1,0.2v0.1l0.2,0.9l0.1,0.5L47.6,9l0.8,3.4l-1.2-0.2l-0.3-1.3l-2.2-0.4L44,11.6l-1.2-0.2L43.9,9.8z M43.5,12.9 c0.9-0.2,1.7,0.4,1.8,0.9c0.2-0.4,1.2-0.8,2-0.2c0.4,0.3,1.5,2.1-2.7,4.3C41.3,14.4,43,13.1,43.5,12.9z"></path> <polygon class="st0" points="46.6,9.3 46.3,8.2 46.2,8.2 45.3,9.5 45.3,9.6 46.7,9.9 "></polygon> <polygon class="st0" points="58.6,68.5 55.9,64.7 55.9,69.3 51.5,70.8 55.9,72.2 55.9,76.8 58.6,73.1 63,74.5 60.2,70.8 63,67 "></polygon> <polygon class="st1" points="19.5,26.1 22.7,28.8 24.5,25 21.3,22.3 "></polygon> <path class="st1" d="M19.8,21l2.2-0.5l0.7,1.1l1.2-0.3l-3.3-4.8l-1.1,0.3l-1.1,5.8l1.2-0.3L19.8,21z M20.4,18.1l1.1,1.6L20.1,20 L20.4,18.1z"></path> <path class="st1" d="M32.3,14.6l2.3-0.1l0.5,1.2h1.2l-1.8-3.9l-0.6-1.3l-0.1-0.2h-1.1l-0.2,0.4l-0.6,1.5l-1.4,3.5h1.2L32.3,14.6z M33.2,12.1l0.1-0.3l0.1,0.2l0.7,1.5h-1.4L33.2,12.1z"></path> <path class="st1" d="M34.9,18.5C35,18.3,35,18.1,35,18c0-0.8-0.7-1.4-1.4-1.4c-0.8,0-1.4,0.7-1.4,1.4c0,0.2,0,0.4,0.1,0.5 c-0.7,0-1.3,0.5-1.3,1.2c0,0.1,0,0.2,0,0.2c0,0.8,0.7,1.4,1.4,1.4c0.4,0,0.8-0.2,1-0.5l0.1-0.1c-0.1,0.6-0.2,1.3-0.5,1.7h1.4 c-0.3-0.4-0.5-1-0.6-1.6l0.1,0.1c0.3,0.3,0.6,0.4,1,0.4c0.8,0,1.4-0.7,1.4-1.4c0-0.1,0-0.2,0-0.2C36.1,18.9,35.5,18.5,34.9,18.5z"></path> <path class="st1" d="M44.7,10.6l2.2,0.4l0.3,1.3l1.2,0.2l-0.8-3.4l-0.2-0.8l-0.1-0.5l-0.2-0.9V6.8L46,6.5l-0.2,0.3l-0.9,1.3v0.1 l-1,1.6l-1.1,1.6l1.2,0.2L44.7,10.6z M45.3,9.5l0.8-1.3h0.2l0.2,1l0.1,0.6L45.3,9.5L45.3,9.5z"></path> <path class="st1" d="M47.2,13.6c-0.8-0.6-1.7-0.2-2,0.2c-0.1-0.5-0.8-1.1-1.8-0.9c-0.5,0.1-2.2,1.4,1,5 C48.8,15.8,47.7,13.9,47.2,13.6z"></path> <path class="st1" d="M57.5,35.4c0.4,0.5,0.9,0.9,1.4,1.2c1.6,1,3.5,0.9,4.7,0.4c-1.2,1.7-2.7,3.5-4,4.3L61,42l0.2,0.1l2.8,1.3 c-0.2-1.5,0.1-3.5,0.6-5.4c0-0.2,0.1-0.3,0.1-0.5c0.2,0.7,0.7,1.4,1.3,2c0.9,0.9,2.2,1.6,3.9,1.6c0.3,0,0.8-0.1,1.3-0.3 s1.1-0.6,1.6-1.1c1.3-1.3,2.3-3.8,1.5-8c-0.2-0.9-0.4-2-0.8-3.1c-0.6-1.7-1.4-3.7-2.6-5.9c-2.1,0.5-3.9,1-5.4,1.6 c-0.5,0.2-0.9,0.3-1.3,0.5c0,0,0-0.1-0.1-0.1v0.1c-5.5,2.4-7.2,5.2-7.5,7.4c-0.1,0.8,0,1.5,0.2,2.1C57,34.7,57.3,35.1,57.5,35.4z"></path> <path class="st1" d="M43.8,60.5c-1,0.1-2,0.3-3,0.6L43.8,60.5z"></path> <path class="st1" d="M59.2,16.2c-0.3,0.5-0.7,1-1.1,1.2l1.2,0.6c-0.1-0.4,0-1.1,0.2-1.6c0.2,0.5,0.7,1,1.4,1 c0.5,0,2.5-0.9,0.3-5.1c-4.7,1.1-4.1,3.1-3.7,3.5C58.1,16.4,58.8,16.4,59.2,16.2z"></path> <path class="st1" d="M61,10.1l2.1,1L63,12.4l1.1,0.5l0.1-4.7V7.5V7.1l-1-0.5l0,0l-0.1,0.1l-1.2,1.1l0,0l-3,2.7L60,11L61,10.1z M63.1,8.1l0.1,0.1l-0.1,1.7l-1.3-0.6L63.1,8.1z"></path> <path class="st1" d="M74.7,47.6l-0.6-0.3L73.5,47c0.1,0.4-0.1,1.1-0.2,1.6c-0.1-0.5-0.6-1-1.4-1c-0.1,0-0.3,0-0.4,0.1 c-0.6,0.3-1.3,1.1-0.6,3.3c0.2,0.5,0.4,1,0.7,1.7c4.7-1,4.1-3.1,3.8-3.5c-0.5-0.6-1.2-0.6-1.7-0.5C73.9,48.3,74.3,47.8,74.7,47.6z "></path> <path class="st1" d="M73.9,60.6L92.7,20c0.7-1.5,0-3.4-1.5-4.1l-28.3-13c-1.5-0.7-3.4,0-4.1,1.5l-0.6,1.2L44.7,3.1 c-0.8-0.1-1.6,0-2.3,0.5s-1.1,1.2-1.3,2l-0.3,1.5L30.7,7.3c-0.8,0-1.6,0.4-2.1,1c-0.6,0.6-0.9,1.4-0.8,2.2v1.3L17,14.1 c-1.7,0.4-2.7,2-2.4,3.7l9.3,43.8c0.1,0.4,0.2,0.8,0.5,1.1c-0.8,2.5-1.3,5.3-1.3,8.1c0,14.2,11.5,25.7,25.7,25.7 S74.5,85,74.5,70.8c0-3.1-0.6-6.1-1.6-8.9C73.3,61.6,73.7,61.2,73.9,60.6z M41.6,10.3l0.3-1.5L42,8.3l0.3-1.4l0.2-1.1 c0.1-0.5,0.3-0.8,0.7-1.1c0.4-0.2,0.8-0.3,1.3-0.2l11.3,2l1.8,0.3l-4.8,10.4l-1,2.1l-1,2.1c-0.2,0-0.4,0.1-0.6,0.1 c-0.3,0.1-0.7,0.3-1.1,0.6c-1.3,1-2.7,3.1-1.8,6.8l-2.2,4.8l-5.2,11.2c-0.1,0.3-0.2,0.6-0.3,1c0,0.3,0,0.6,0,0.8 c-1.9,0.7-3.7,1.6-5.3,2.8l1.3-6.9l2.7-14.4L41.6,10.3z M29.5,9.2c0.3-0.3,0.7-0.5,1.2-0.5l9.9-0.3l-0.1,0.7l-0.3,1.5l-3.1,16.5 l-2.6,14.5l-1.5,8c-0.1,0.3-0.1,0.7,0,1c-0.9,0.7-1.8,1.5-2.6,2.3l-0.5-15v-0.6L29.1,13v-1.4v-1.1C29.1,10,29.2,9.6,29.5,9.2z M16,17.5c-0.2-0.9,0.4-1.8,1.3-2l10.5-2.2l1.3,41c-1.6,1.9-3,4.1-4,6.4L16,17.5z M41.2,83.6c-7.1,0-12.8-5.7-12.8-12.8 c0-2.8,0.9-5.4,2.4-7.5c0.4-0.6,0.9-1.2,1.5-1.7c2.3-2.2,5.5-3.6,8.9-3.6c1.6,0,3.1,0.3,4.4,0.8c0.7,0.3,1.4,0.6,2.1,1 c1.8,1,3.2,2.5,4.3,4.2c-1.8-2.2-4.5-3.5-7.6-3.5c-0.2,0-0.4,0-0.6,0l-3,0.6c-3.9,1.5-6.7,5.2-6.7,9.6c0,5.7,4.6,10.3,10.3,10.3 c3,0,5.7-1.3,7.6-3.3C49.7,81.3,45.7,83.6,41.2,83.6z M63,74.5l-4.4-1.4l-2.7,3.7v-4.6l-4.4-1.4l4.4-1.4v-4.6l2.7,3.7l4.4-1.4 l-2.7,3.7L63,74.5z M69.5,55.7V55l0.4,0.2l0.9,0.4l-0.9,0.8C69.9,56.2,69.7,55.9,69.5,55.7z M72.7,60c-0.1,0.2-0.2,0.4-0.4,0.5 c-0.5-1.1-1.1-2.2-1.7-3.3l3.2-2.8l-1.1-0.5l-1,0.9l-1.5-0.7l-0.5-0.2l0.1-1.3l-0.6-0.3l-0.5-0.2l-0.2,2.3 c-4.7-5.7-11.8-9.3-19.8-9.3c-2.7,0-5.2,0.4-7.7,1.2c0-0.3,0-0.5,0.2-0.8l11.1-23.9l1-2.1L60,4.9c0.4-0.9,1.4-1.2,2.3-0.8 l28.3,13.1c0.9,0.4,1.2,1.4,0.8,2.3L72.7,60z"></path> </g> <g> <path class="st2" d="M48.9,44c14.2,0,25.8,12,25.8,26.7c0,14.7-11.6,26.7-25.8,26.7c-14.2,0-25.8-12-25.8-26.7 C23.1,56,34.7,44,48.9,44L48.9,44z"></path> <path class="st3" d="M45.6,54.7c4,0,7.7,1.7,10.4,4.4c-1.8-1.2-3.9-1.9-6.2-1.9c-6.7,0-12.2,6-12.2,13.5c0,7.4,5.5,13.5,12.2,13.5 c2.3,0,4.4-0.7,6.2-1.9c-2.7,2.7-6.4,4.4-10.4,4.4c-8.3,0-15.1-7.2-15.1-16C30.5,61.9,37.2,54.7,45.6,54.7L45.6,54.7z"></path> <polygon class="st3" points="61.9,65.8 63.2,69.6 67.4,69.5 64,71.9 65.3,75.7 61.9,73.3 58.5,75.7 59.8,71.9 56.4,69.5 60.6,69.6 61.9,65.8 "></polygon> </g> </g> </svg> 