<?xml version="1.0" encoding="utf-8"?>
<!-- Generator: Adobe Illustrator 26.1.0, SVG Export Plug-In . SVG Version: 6.00 Build 0)  -->
<svg version="1.1" id="Layer_1" xmlns="http://www.w3.org/2000/svg" xmlns:xlink="http://www.w3.org/1999/xlink" x="0px" y="0px"
	 viewBox="0 0 1056.6 202" style="enable-background:new 0 0 1056.6 202;" xml:space="preserve">
<g id="Livello_1_1_">
</g>
<g id="Layer_1_00000121280000816817959920000000882230360127541942_">
</g>
<path style="fill:#FFFFFF;" d="M68.5,170.9c-26-8.5-46.3-23-54.2-50.3C3.7,84.1,24.4,46.1,60.9,34.9c35.4-10.9,74,7.6,87,41.8
	c13.5,35.5-3.8,74.5-39.6,89.1c-3.8,1.6-7.5,3.4-11.3,5.1C87.5,170.9,78,170.9,68.5,170.9z M82.1,39c-35-0.1-63.3,27.6-63.4,62.1
	c-0.1,34.5,28.1,62.5,63,62.5c34.9,0,63.4-27.8,63.6-62.2C145.4,67.3,117,39.1,82.1,39z"/>
<path style="fill:#FFFFFF;" d="M729.9,170.9c-27.5-9.4-48.2-25.3-54.6-54.9c-7.8-36,14.1-72,49.6-81.6c36.2-9.8,73.3,9.4,85.6,44.3
	c12.3,34.8-4.8,72.5-39.2,86.9c-4.3,1.8-8.5,3.6-12.8,5.4C748.9,170.9,739.4,170.9,729.9,170.9z M681,101.6
	c0.1,34.7,28.2,62.3,63.2,62.2c35-0.1,63-27.9,62.9-62.6C807,66.6,778.9,39,743.8,39.1C708.7,39.2,680.9,66.8,681,101.6z"/>
<path style="fill:#FFFFFF;" d="M404.9,170.9c-3.1-1-6.1-2.2-9.2-3c-34-8.8-57-41.2-53-74.8c4.2-35.3,33.6-61.8,69.1-62.2
	c34.8-0.4,65,24.1,70.4,57.2c5.8,36.1-14.7,68.9-49.7,79.3c-3.5,1-7,2.4-10.4,3.5C416.3,170.9,410.6,170.9,404.9,170.9z M476.2,99.8
	C476,65.5,447.3,37.7,412.4,38c-35.1,0.4-62.7,28.2-62.5,62.9c0.3,34.7,28.3,61.9,63.6,61.7C448.4,162.5,476.4,134.4,476.2,99.8z"/>
<path style="fill:#FFFFFF;" d="M564.6,170.9c-27.6-9.3-48.2-25.2-54.8-54.8c-7.8-35.3,13.2-70.8,48.1-81.3
	c35.7-10.7,73.6,7.8,86.6,42.3c12.9,34.4-3.4,72.9-37.3,87.8c-4.7,2.1-9.4,4-14.1,5.9C583.6,170.9,574.1,170.9,564.6,170.9z
	 M515.5,100.5c-0.4,34.8,27,62.6,62.1,63.2c34.9,0.6,63.7-27.2,64-61.5c0.3-34.7-27.4-62.8-62.3-63.1
	C544,38.8,515.9,65.9,515.5,100.5z"/>
<path style="fill:#FFFFFF;" d="M233.8,170.9c-26.6-8.7-47-23.7-54.4-51.8c-9.6-36.2,11.1-73.2,47.1-84.2
	c35.5-10.9,73.8,7.6,86.8,41.9c13.3,34.9-3.6,73.8-38.3,88.6c-4.2,1.8-8.5,3.7-12.7,5.5C252.9,170.9,243.4,170.9,233.8,170.9z
	 M184.4,100.9c-0.2,34.6,27.6,62.5,62.7,62.8c34.8,0.3,63.5-27.6,63.7-62c0.2-34.4-28.1-62.5-62.9-62.7
	C212.7,38.9,184.6,66.3,184.4,100.9z"/>
<path style="fill:#FFFFFF;" d="M92.7,70.5c-14.3-0.8-26.1-1.5-38-2.1c0.1-1.8,0.3-3.6,0.4-5.4c16.8,0,33.7,0,52.3,0
	c-13.7,22.3-27.2,44.3-42,68.4c15.1,0.8,28.6,1.5,42.1,2.2c-0.1,1.8-0.2,3.6-0.3,5.4c-18.2,0-36.5,0-56.6,0
	C64.4,116.6,77.9,94.5,92.7,70.5z"/>
<path style="fill:#FFFFFF;" d="M786.2,101.1c0,22.2-18.9,41-41.7,41.4c-23.3,0.4-43-18.6-42.9-41.5c0.1-22.2,18.9-41,41.6-41.5
	C766.2,59.1,786.2,78.4,786.2,101.1z M776.6,101.1c0.1-18.3-14.8-33.3-33-33.1c-17.5,0.2-32.4,14.7-32.9,32.1
	c-0.5,17.6,14.8,33.5,32.6,33.9C761.3,134.4,776.5,119.4,776.6,101.1z"/>
<path style="fill:#FFFFFF;" d="M408.4,71.4c-8.1-1.8-13.8-3-19.5-4.3c0.2-1.4,0.4-2.8,0.7-4.2c15.6,0,31.2,0,46.8,0
	c0.3,1.3,0.7,2.7,1,4c-5.8,1.4-11.6,2.7-19.6,4.6c0,13.9,0.5,28.6-0.2,43.3c-0.4,8.6-2.7,17-4.1,25.5c-1.7-8.7-4.3-17.4-4.8-26.2
	C407.8,99.8,408.4,85.5,408.4,71.4z"/>
<path style="fill:#FFFFFF;" d="M559,62c26.1-1.9,36.3,1.7,40.1,13.3c4.1,12.5-0.9,22.1-17.2,31.5c7.4,10.7,14.8,21.3,22.4,32.3
	c-13.3,4.7-14.6-6.9-19.5-12.5c-5.1-5.9-9.2-12.7-17-18.6c0,8.6,0.3,17.1-0.2,25.6c-0.2,2.3-3.1,4.3-4.8,6.5
	c-1.3-2.1-3.6-4.2-3.6-6.3C558.9,110.3,559,86.6,559,62z M568.9,70.4c0,9.9,0,18.3,0,27.2c11.5,0.1,21.9-0.4,21.7-14.2
	C590.4,69.4,580.2,69.3,568.9,70.4z"/>
<path style="fill:#FFFFFF;" d="M252.9,100.9c0,10.2,0.3,20.4-0.2,30.6c-0.2,3-2.7,5.9-4.1,8.8c-1.7-2.7-4.8-5.3-4.9-8.1
	c-0.4-20.9-0.4-41.7,0-62.6c0.1-2.7,3.1-5.4,4.8-8.1c1.5,2.9,4,5.8,4.2,8.7C253.3,80.5,252.9,90.7,252.9,100.9z"/>
</svg>
