<?xml version="1.0" encoding="utf-8"?>
<!-- Generator: Adobe Illustrator 22.1.0, SVG Export Plug-In . SVG Version: 6.00 Build 0)  -->
<svg version="1.1" id="Layer_1" xmlns="http://www.w3.org/2000/svg" xmlns:xlink="http://www.w3.org/1999/xlink" x="0px" y="0px"
	 viewBox="0 0 192 42.3" style="enable-background:new 0 0 192 42.3;" xml:space="preserve">
<path style="fill:#FFFFFF;" d="M14.3,17.3c0.1-0.2,0.3-0.3,0.6-0.3h9.8v-1.4h-1.4c-2.3,0-4.1-1.8-4.1-4.1v-1.4c0-0.1,0-0.2,0.1-0.4
	c0,0-0.1-0.1-0.1-0.1c-1,1.3-3,1.6-4.3,0.5c-0.2-0.2-0.4-0.3-0.5-0.5c-0.6,0.7-1.5,1.2-2.4,1.2h1c0.4,0,0.7,0.3,0.7,0.7v2.8
	c0,0.4-0.3,0.7-0.7,0.7h-2.8v2.8c0,0.4-0.3,0.7-0.7,0.7H6.8c-0.4,0-0.7-0.3-0.7-0.7V15H3.3c-0.4,0-0.7-0.3-0.7-0.7v-2.8
	c0-0.4,0.3-0.7,0.7-0.7h2.8V8.1c0-0.4,0.3-0.7,0.7-0.7h2.1V5.3H8.2c-4.2,0-7.6,3.4-7.6,7.6s3.4,7.6,7.6,7.6c0.6,0,1.3-0.1,1.9-0.2
	C11.8,19.8,13.3,18.7,14.3,17.3z M18,11.7l1,1l-2.1,2.1l-1-1L18,11.7z"/>
<path style="fill:#FFFFFF;" d="M10.2,10.8h1.7c-0.6,0-1.2-0.2-1.7-0.5V10.8z"/>
<rect x="10.2" y="12.2" style="fill:#FFFFFF;" width="2.1" height="1.4"/>
<path style="fill:#FFFFFF;" d="M16.8,1.9c-1,0-1.7,0.8-1.7,1.7v4.1c0,1,0.8,1.7,1.7,1.7c1,0,1.7-0.8,1.7-1.7V3.6
	C18.5,2.6,17.7,1.9,16.8,1.9"/>
<path style="fill:#FFFFFF;" d="M11.9,1.9c-1,0-1.7,0.8-1.7,1.7v4.1c0,1,0.8,1.7,1.7,1.7c1,0,1.7-0.8,1.7-1.7V3.6
	C13.7,2.6,12.9,1.9,11.9,1.9"/>
<path style="fill:#FFFFFF;" d="M26.4,1.9c-1,0-1.7,0.8-1.7,1.7v4.1c0,1,0.8,1.7,1.7,1.7s1.7-0.8,1.7-1.7V3.6
	C28.1,2.6,27.3,1.9,26.4,1.9"/>
<path style="fill:#FFFFFF;" d="M21.6,1.9c-1,0-1.7,0.8-1.7,1.7v4.1c0,1,0.8,1.7,1.7,1.7c1,0,1.7-0.8,1.7-1.7V3.6
	C23.3,2.6,22.5,1.9,21.6,1.9"/>
<path style="fill:#FFFFFF;" d="M20.5,10.8v0.7c0,1.5,1.2,2.8,2.8,2.8h2.1c0.4,0,0.7,0.3,0.7,0.7v2.8c0,0.4-0.3,0.7-0.7,0.7
	c-2.4,0-4.4,1.8-4.7,4.2L20.5,24l-1.4-0.2l0.2-1.4c0.2-1.6,1-3,2.2-4h-6.3c-1.1,1.4-2.6,2.4-4.3,3v2.5c0,1.9,1.5,3.4,3.4,3.4h1.4
	v1.4h-1.4c-0.2,0-0.5,0-0.7-0.1v6.2l0.2,0c0.1,0,0.3,0.1,0.4,0.2l2,2.5l0.9-2.3c0.1-0.2,0.2-0.3,0.4-0.4l4.8-2.1
	c0.3-0.1,0.8,0,0.9,0.4c0,0.1,0.1,0.2,0.1,0.3v2.6l0.8,1.6l2.1-2.6c0.1-0.1,0.2-0.2,0.3-0.2l0.9-0.3v-7.3c0-0.1,0-0.2,0.1-0.3
	l1.7-2.9c0.5-0.9,0.9-2,1-3c0-0.2,0-0.5,0-0.7v-7.4c0-1.1-0.9-2.1-2.1-2.1h-2.8v1.4H24v-1.4H20.5z"/>
<path style="fill:#FFFFFF;" d="M30.1,40.4l-0.6-3.3c0-0.1,0-0.3,0.1-0.4l0.7-1.4l-3.1,0.9l-2.6,3.3c-0.1,0.2-0.4,0.3-0.6,0.3
	c-0.2,0-0.4-0.2-0.5-0.4L22,36.6c0-0.1-0.1-0.2-0.1-0.3v-1.7l-3.6,1.5l-1.3,3.2c-0.1,0.2-0.3,0.4-0.5,0.4c-0.2,0-0.5-0.1-0.6-0.3
	l-2.6-3.3l-3.9-1l1.5,3.5c0,0.1,0.1,0.2,0.1,0.3v1.4"/>
<rect x="4" y="12.2" style="fill:#FFFFFF;" width="2.1" height="1.4"/>
<rect x="7.5" y="8.8" style="fill:#FFFFFF;" width="1.4" height="2.1"/>
<path style="fill:#FFFFFF;" d="M31.6,5.3h-2.1v1.7c3.2-1.1,6.8,0.5,7.9,3.8c1.1,3.2-0.5,6.8-3.8,7.9c-0.7,0.2-1.4,0.4-2.1,0.4v1.2
	c0,0,0,0.1,0,0.1h0c4.2,0,7.6-3.4,7.6-7.6S35.7,5.3,31.6,5.3z"/>
<rect x="7.5" y="12.2" style="fill:#FFFFFF;" width="1.4" height="1.4"/>
<rect x="7.5" y="15" style="fill:#FFFFFF;" width="1.4" height="2.1"/>
<path style="fill:#FFFFFF;" d="M31.6,11.5c-0.1,0-0.2,0-0.3,0c0.2,0.4,0.3,0.9,0.3,1.4v1.4c0.8,0,1.4,0.6,1.4,1.4
	c0,0.8-0.6,1.4-1.4,1.4v0.7c2.7,0,4.8-2.1,4.8-4.8s-2.1-4.8-4.8-4.8c-0.8,0-1.6,0.2-2.3,0.6c-0.1,0.3-0.3,0.6-0.5,0.9
	c0.5,0.1,0.9,0.3,1.3,0.6c0,0,0,0,0,0c0-0.8,0.6-1.4,1.4-1.4s1.4,0.6,1.4,1.4C32.9,10.9,32.3,11.5,31.6,11.5z M34.3,11.5
	c0.8,0,1.4,0.6,1.4,1.4s-0.6,1.4-1.4,1.4c-0.8,0-1.4-0.6-1.4-1.4S33.6,11.5,34.3,11.5z"/>
<g>
	<path style="fill:#FFFFFF;" d="M48,19.5c0.2,0.4,0.4,1.3,0.4,1.4c0-0.1,0.3-0.9,0.5-1.4l2.7-5.8c0.2-0.4,0.3-0.6,0.7-0.6h2.2
		c0.4,0,0.7,0.2,0.5,0.6l-4.8,10.1v6c0,0.4-0.2,0.6-0.6,0.6h-2.2c-0.5,0-0.6-0.2-0.6-0.6v-5.6l-4.9-10.5c-0.2-0.4,0-0.6,0.4-0.6h2.5
		c0.4,0,0.6,0.3,0.8,0.6L48,19.5z"/>
	<path style="fill:#FFFFFF;" d="M57.2,30.4c-0.5,0-0.6-0.2-0.6-0.7v-16c0-0.5,0.2-0.7,0.6-0.7h8.7c0.4,0,0.6,0.2,0.6,0.6v1.6
		c0,0.5-0.2,0.6-0.6,0.6H60V20h5.5c0.5,0,0.7,0.2,0.7,0.6v1.5c0,0.4-0.2,0.6-0.7,0.6H60v4.8h6.2c0.5,0,0.6,0.2,0.6,0.6v1.6
		c0,0.5-0.2,0.6-0.6,0.6H57.2z"/>
	<path style="fill:#FFFFFF;" d="M81.4,29.8c0,0.4-0.2,0.6-0.6,0.6h-2c-0.3,0-0.5-0.1-0.6-0.3l-4.9-8.5c-0.7-1.1-1-2-1-2.1v10.2
		c0,0.4-0.2,0.6-0.6,0.6h-2c-0.5,0-0.6-0.2-0.6-0.6V13.7c0-0.4,0.2-0.6,0.6-0.6h2c0.3,0,0.4,0.1,0.5,0.3l5.1,8.8
		c0.4,0.7,0.9,1.8,0.9,1.8V13.7c0-0.4,0.2-0.6,0.6-0.6h2c0.5,0,0.6,0.2,0.6,0.6V29.8z"/>
	<path style="fill:#FFFFFF;" d="M87.8,29.7c0,0.5-0.2,0.7-0.6,0.7h-2.2c-0.5,0-0.6-0.2-0.6-0.7v-16c0-0.5,0.2-0.7,0.6-0.7h2.2
		c0.5,0,0.6,0.2,0.6,0.7V29.7z M87.8,11.1c0,0.5-0.2,0.6-0.6,0.6H85c-0.5,0-0.6-0.2-0.6-0.6V9c0-0.4,0.2-0.6,0.6-0.6h2.2
		c0.5,0,0.6,0.2,0.6,0.6V11.1z"/>
	<path style="fill:#FFFFFF;" d="M94.7,17c0-2.1,1.6-4.2,6.2-4.2s6.2,2,6.2,4.2v9.5c0,2.1-1.6,4.2-6.2,4.2s-6.2-2-6.2-4.2V17z
		 M103.7,17.6c0-1.3-1-1.9-2.8-1.9c-1.7,0-2.7,0.6-2.7,1.9v8.2c0,1.3,1,1.9,2.7,1.9c1.7,0,2.8-0.6,2.8-1.9V17.6z"/>
	<path style="fill:#FFFFFF;" d="M114.2,19.5c0.2,0.4,0.4,1.3,0.4,1.4c0-0.1,0.3-0.9,0.5-1.4l2.7-5.8c0.2-0.4,0.3-0.6,0.7-0.6h2.2
		c0.4,0,0.7,0.2,0.5,0.6l-4.8,10.1v6c0,0.4-0.2,0.6-0.6,0.6h-2.2c-0.5,0-0.6-0.2-0.6-0.6v-5.6L108,13.7c-0.2-0.4,0-0.6,0.4-0.6h2.5
		c0.4,0,0.6,0.3,0.8,0.6L114.2,19.5z"/>
	<path style="fill:#FFFFFF;" d="M126,25.8c0,1.3,1,1.9,2.7,1.9c1.7,0,2.8-0.6,2.8-1.9V13.7c0-0.5,0.2-0.7,0.6-0.7h2.2
		c0.5,0,0.6,0.2,0.6,0.7v12.7c0,2.1-1.6,4.2-6.2,4.2s-6.2-2-6.2-4.2V13.7c0-0.5,0.2-0.7,0.6-0.7h2.2c0.4,0,0.6,0.2,0.6,0.7V25.8z"/>
	<path style="fill:#FFFFFF;" d="M150.2,29.8c0,0.4-0.2,0.6-0.6,0.6h-2c-0.3,0-0.5-0.1-0.6-0.3l-4.9-8.5c-0.7-1.1-1-2-1-2.1v10.2
		c0,0.4-0.2,0.6-0.6,0.6h-2c-0.5,0-0.6-0.2-0.6-0.6V13.7c0-0.4,0.2-0.6,0.6-0.6h2c0.3,0,0.4,0.1,0.5,0.3l5.1,8.8
		c0.4,0.7,0.9,1.8,0.9,1.8V13.7c0-0.4,0.2-0.6,0.6-0.6h2c0.5,0,0.6,0.2,0.6,0.6V29.8z"/>
	<path style="fill:#FFFFFF;" d="M156.5,27.5h5.7c0.4,0,0.6,0.2,0.6,0.6v1.6c0,0.5-0.2,0.6-0.6,0.6h-8.6c-0.4,0-0.5-0.2-0.5-0.7v-16
		c0-0.5,0.2-0.7,0.6-0.7h2.2c0.5,0,0.6,0.2,0.6,0.7V27.5z"/>
	<path style="fill:#FFFFFF;" d="M171,13c0.5,0,0.7,0.2,0.8,0.6l4.8,16.1c0.1,0.4,0,0.6-0.5,0.6h-2.3c-0.4,0-0.6-0.2-0.7-0.6
		l-0.9-3.1h-4.8l-0.9,3.1c-0.1,0.4-0.3,0.6-0.8,0.6h-2.1c-0.5,0-0.6-0.2-0.5-0.6l4.8-16.1c0.1-0.4,0.3-0.6,0.8-0.6H171z M170.6,21.1
		c-0.3-1-0.7-4.3-0.7-4.6c-0.1,0.3-0.5,3.6-0.8,4.6l-0.9,2.9h3.2L170.6,21.1z"/>
	<path style="fill:#FFFFFF;" d="M181.6,23.8v6c0,0.5-0.2,0.7-0.6,0.7h-2.2c-0.5,0-0.6-0.2-0.6-0.7v-16c0-0.5,0.2-0.7,0.6-0.7h5.4
		c4.6,0,6.2,2,6.2,4.2v2.4c0,1.5-0.8,2.9-2.8,3.7l2.8,6.4c0.2,0.4-0.1,0.7-0.6,0.7h-2.2c-0.4,0-0.5-0.3-0.6-0.7l-2.5-6h-0.2H181.6z
		 M181.6,15.9v5h2.5c1.7,0,2.8-0.6,2.8-1.9v-1.2c0-1.3-1-1.9-2.8-1.9H181.6z"/>
</g>
</svg>
