<?xml version="1.0" encoding="utf-8"?>
<!-- Generator: Adobe Illustrator 24.1.2, SVG Export Plug-In . SVG Version: 6.00 Build 0)  -->
<svg version="1.1" id="Layer_1" xmlns="http://www.w3.org/2000/svg" xmlns:xlink="http://www.w3.org/1999/xlink" x="0px" y="0px"
	 viewBox="0 0 257 98.4" style="enable-background:new 0 0 257 98.4;" xml:space="preserve">
<style type="text/css">
	.st0{fill:#FFFFFF;}
</style>
<g>
	<path class="st0" d="M44.9,22.3V78H34.1L13.2,42.9V78H2.4V22.3h10.8l20.9,35.2V22.3H44.9z"/>
	<path class="st0" d="M59.9,32.9V44h22.8v10.6H59.9v12.7h25.6V78H50.2V22.3h35.3v10.6H59.9z"/>
	<path class="st0" d="M129.4,32.9h-15V77h-10.6V32.9h-14V22.3h39.6V32.9z"/>
	<path class="st0" d="M212.8,22.3V77h-10.7l-20.8-34.5V77h-10.7V22.3h10.7l20.8,34.6V22.3H212.8z"/>
	<path class="st0" d="M254.6,32.8h-14V77h-10V32.8h-13V22.3h37V32.8z"/>
	<polygon class="st0" points="165.5,32.8 165.5,22.3 137.2,22.3 137.2,2.5 134.4,2.5 134.4,96.5 137.2,96.5 137.2,77 165.5,77 
		165.5,66.5 143.6,66.5 143.6,54.1 162.2,54.1 162.2,43.6 143.6,43.6 143.6,32.8 	"/>
</g>
</svg>
