<?xml version="1.0" encoding="UTF-8"?>
<svg id="Layer_1" xmlns="http://www.w3.org/2000/svg" version="1.1" viewBox="0 0 1000 1000">
  <!-- Generator: Adobe Illustrator 29.1.0, SVG Export Plug-In . SVG Version: 2.1.0 Build 142)  -->
  <path d="M-1051.7,104.5c-.5-.2-.9-.3-1.3-.2.9.3,1.8.7,2.8,1.1-.5-.3-1-.6-1.5-.9h0Z" style="fill: #fdcd37;"/>
  <g>
    <g>
      <g>
        <path d="M923.2,579.2c-2.5-1.1-5.3-1.8-7.6-3.3-4-2.5-6.7-6.2-9.3-10.2-4.4-7.1-8.6-14.4-13.1-21.5-2.2-3.5-4.4-6.7-7.8-9.1-2.4-1.6-4.7-1.5-7.3-.2-3.6,2.2-6.4,5.3-9.1,8.4-3.3,3.6-6.2,7.3-9.5,10.7-6.9,7.1-14.4,12.9-24.4,15.1-11.8,2.5-21.7-2.9-26.4-11.7-2.4-4.4-2-9.1-1.3-13.8,1.5-8.2,3.8-16.2,6.4-24.2,2.4-7.3,4.2-14.7,6.7-22,2.7-7.6,5.8-15.3,9.3-22.9,2.9-6.7,6.2-13.3,9.7-19.7,4.6-8.2,9.5-16.2,14.2-24.4,2-3.3,4.4-6.4,6.2-9.7,1.8-3.5,3.3-7.3,4.6-10.9.9-2.7,2-5.3,4-7.3,3.1-3.1,5.6-6.4,7.6-10.2,1.5-2.7,3.5-4.7,6.6-5.3,1.6-.4,2.9-1.8,4.6-2.2,2.9-.4,5.8-.2,8.7-.4h4.6c6.4,0,12.6.5,18.6,3.3,9.5,4.4,15.7,11.7,19.8,20.9,2.2,4.7,4.2,9.5,5.8,14.4,2.4,7.3,4.4,14.7,6,22.2,2.2,10.2,4.2,20.6,6,31,1.3,8.2,2.2,16.4,3.1,24.8.5,4.7.9,9.3,1.3,14,0,.2.2.5.4.7v12.6c-.2.7-.2,1.5-.4,2.2-.2,3.5-.2,6.9-.5,10.4-.2,1.5.2,3.1-1.1,4.6-.7.7-1.6,2-1.6,3.1,0,2.9-1.8,4.9-3.6,6.4-1.1,1.1-2,2.2-2.7,3.5-.5.9-1.1,1.8-1.6,2.7-1.1,1.5-2.4,2.9-3.6,4.6-3.3,4-6.9,7.6-11.5,10-2.5,1.3-5.5,2-8.2,3.1-.9.4-2,.4-3.3.4h-.3ZM891.1,466.9c.2,1.6.4,4.6.9,7.5.5,2.4,2,4.4,4.4,5.3,2.5.9,3.8-1.1,5.3-2.5,1.5-1.5,3.3-2.7,4-4.6,1.5-3.5,2.4-7.1,3.1-10.7.9-4,.9-8,.4-12-.5-3.5-1.1-7.1-3.1-10.2-2.2-3.8-5.6-4.7-8.6-2.2-1.1.9-1.8,2.2-2.2,3.5-3.1,7.8-3.8,16.2-4.2,26h0Z" style="fill: #fdcd37;"/>
        <path d="M38.6,496v-17.1c-.2-15.7-.4-31.5-.2-47.2,0-5.3,1.1-10.7,1.6-16,.5-4.7,2.7-8.9,5.1-13.1,1.1-1.8,1.8-3.8,2.7-5.8,2.4-4.9,6.7-7.5,11.3-9.5.9-.4,1.8-.5,2.7-.5,4.4-.2,8.6-.2,12.9-.4,7.1-.2,14-.9,21.1-.7,5.3,0,10.4.9,15.7,1.5,4.4.4,8.6,1.3,12.6,2.7,6,2.2,10.9,5.6,15.1,10.4,5.1,5.6,8,12.2,10.2,19.3,1.8,6.2,2.5,12.4,1.8,18.9-.2,2.4,0,4.7,0,7.1v7.3c0,2,.9,3.6,2.4,4.6,4.2,2.5,8.6,5.1,12.9,7.6,3.5,2,7.1,3.8,9.8,6.7,2.9,3.3,4.7,7.1,6,11.3,1.8,5.8,2.2,11.7,1.8,17.7-.5,11.8-2.7,23.1-8.6,33.7-2.9,5.1-7.1,9.3-11.3,13.3-7.6,6.9-16.4,12-25.7,16.2-9.5,4.4-19.3,8.2-29.5,10.4-5.3,1.1-10.6,2-15.8,2.5-4.4.5-8.9.7-13.3.7-8.6-.2-16.4-2.9-23.7-7.5-8.7-5.6-13.1-13.8-14.9-23.7-.9-4.9-1.3-9.8-1.6-14.7-.5-5.6-.9-11.5-.9-17.1-.5-6.2-.4-12.4-.4-18.6h.2ZM95.3,450.5c.7-.7,1.3-1.3,1.8-1.5,2.9-1.3,4.7-3.6,5.6-6.4.7-2.5.5-5.3.7-7.8,0-.7,0-1.3-.2-2-1.5-4.9-4.7-8.2-9.7-9.7-3.8-1.3-6.6,0-7.6,3.5-.5,1.6-1.1,3.5-.9,5.3,0,3.1.5,6.4.9,9.5.7,5.6,4.4,8.9,9.3,9.1h0ZM128,506c-2.2-3.5-4.9-4.9-8.4-5.6-3.8-.7-7.8-.4-11.7.4-3.3.7-6.7,1.6-10,2.5-2,.5-2.5,2.2-1.6,4,2,4.6,7.3,6.7,12.4,5.6,5.3-1.1,10.4-2.9,15.3-5.1,1.3-.2,2.5-1.1,4-1.8h0Z" style="fill: #fdcd37;"/>
        <path d="M640.6,464.5c-.5-7.8-.5-15.3.2-22.8.2-1.5,1.1-2.9,1.6-4.4,2.5-6.2,6.2-11.7,10.9-16.2,8.7-8.6,21.3-4.2,24.6,5.8,2,6.4,4,12.7,5.5,19.3,1.5,6.2,2.4,12.4,3.5,18.8,1.3,7.6,2.4,15.3,3.3,22.9.9,6.6,1.6,13.1,2,19.8.4,6.4.2,12.9,0,19.3,0,2.9-.2,5.6-.4,8.6,0,.9-.4,1.6-.5,2.5-.9,3.5-2.2,6.6-4.6,9.1-.9.9-2,1.8-2.9,2.9-.5.5-.7,1.1-1.1,1.8-2.2,3.1-4.2,6.4-6.7,9.1-3.3,3.5-7.6,3.5-11.8,2.2-5.8-1.6-10.9-4.7-15.5-8.6-2.2-1.8-4.4-3.5-6.4-5.5-5.6-5.3-11.1-10.9-15.7-17.3-4.2-6-8.6-11.8-12.9-17.8-.2-.4-.5-.7-.9-.9.7,1.8,1.5,3.5,2,5.3,1.3,4.4,2.9,8.6,3.6,12.9.5,2.9.4,6.2.4,9.3s.4,6.7-1.1,10c-.7,1.5-1.6,2.9-2.5,4.4-2.4,3.6-4.7,7.1-6.9,10.7-3.5,5.1-8.6,6.7-14.2,6.6-9.3-.4-14.7-6.2-19.1-13.3-3.5-5.8-5.5-12.2-6.9-18.8-1.5-7.1-3.1-14.2-4-21.3-1.6-12.6-2.2-25.3-1.8-38.2.2-9.7,2.2-18.8,6.2-27.5,1.6-3.6,3.5-7.5,4.6-11.3.7-2.5,2.4-4.6,4.2-6.4,2.7-3.1,6-5.5,10.2-6.4,6-1.3,11.8-.5,17.3,2.2,4.9,2.5,9.3,6,13.3,9.8,6.9,6.9,13.8,14,20.9,21.1,0,.4.9,1.3,1.8,2l-.2.3h0Z" style="fill: #fdcd37;"/>
        <path d="M360.2,490.7c0,.5-.2,1.1,0,1.8.4,8.2.7,16.4.9,24.4.2,5.5-.2,10.9-.9,16.2-.4,3.1-.9,6-2.2,8.9-1.5,3.8-2.9,7.6-4.4,11.5-3.3,8.6-10.7,11.3-19.3,8.7-6.4-1.8-10.4-6.6-13.1-12.4-2.7-5.8-3.6-12.2-3.6-18.6s.2-14.6.7-21.8c.5-6.2,1.5-12.4,2.7-18.4,2-8.9,4.2-17.8,6.6-26.8,1.6-6.6,3.6-12.9,5.6-19.3,2.2-7.1,5.5-13.7,10.7-19.1,4-4.2,13.3-7.8,20.4-5.1,7.5,2.9,12.7,8,16.9,14.4,3.8,5.8,7.1,12,10.6,18.2,3.3,5.8,6.7,11.7,10.2,17.3.7,1.3,2,2.2,2.9,3.1.5.4,1.3.5,2.2,1.1.5-3.1.7-6,1.5-8.7,1.3-6,2.2-12.2,4-18,1.6-5.5,4-10.7,7.8-15.1,4.4-4.9,11.5-7.1,16.9-4.6,4.9,2.4,8,6,8.9,11.7,1.1,6.4.9,12.7.5,19.1-.4,6.7-1.1,13.3-1.6,19.8-.5,5.3-.9,10.6-1.6,15.8-.9,6.6-1.8,13.1-2.9,19.7-.5,3.3-.9,6.4-1.8,9.5-.9,4-2.2,7.8-3.1,11.7-.2.4-.9,1.1.4,1.5,0,0,.2,1.1,0,1.5-1.5,3.8-3.1,7.6-4.7,11.3-2.4,5.1-4.6,10.2-7.1,15.1-1.3,2.4-3.5,4.4-5.6,6.2-4.9,4-10.2,3.3-15.7-.4-7.3-4.7-11.8-11.8-16.4-18.8-6.2-9.7-10.6-20-14.2-30.8-2.5-6.9-4.9-14-7.5-20.9-.7-2.4-1.6-4.6-2.5-6.7-.5-1.3-1.3-2.4-2-3.5.4.4.2.5-.2.5h0Z" style="fill: #fdcd37;"/>
        <path d="M192.5,498c0-3.6-.2-7.1,0-10.7.4-8.2,1.8-16.4,5.3-24,2.7-6.2,5.8-12.2,10.2-17.5,3.5-4.2,7.3-8.4,12.9-10.2,1.6-.5,2.9-2.2,4.6-3.1,5.8-3.3,12.2-5.1,18.8-6.6,5.6-1.3,11.3-1.5,17.1-1.1,12.4.7,23.9,4,33.7,12,6.7,5.5,10.9,12.7,14.2,20.6,2.7,6.6,4.4,13.7,5.5,20.6.4,2.5.4,5.3.7,7.8.2,1.8.5,3.6.5,5.6,0,7.1-1.3,14-3.6,20.9-1.5,4.4-2.5,9.1-4,13.5-2.2,6.7-6,12.7-10.6,18.2-9.5,11.3-21.8,17.7-36.2,20.4-11.5,2.2-22.9,2.2-33.9-2.5-3.8-1.6-7.5-4-10.9-6.6-7.1-4.9-11.8-11.8-15.8-19.3-2.5-4.9-4.6-10-6-15.3-1.8-6.6-2.7-13.1-2.4-19.8v-2.9h-.1ZM269.3,512.2c-.7-4.7-1.1-9.5-2-14.2-1.3-7.1-2.7-14.2-5.8-20.8-1.5-3.1-3.1-6-6-7.8-2.4-1.5-5.1-1.8-7.1,0-1.6,1.5-3.1,3.1-4.4,4.9-.9,1.3-1.6,3.1-1.8,4.6-.7,8.6,1.5,16.4,5.6,23.9,3.3,5.8,6.9,11.1,12.9,14.4,1.3.7,2.7,1.6,4.4.9,2.9-1.3,4.4-2,4.2-5.8h0Z" style="fill: #fdcd37;"/>
        <path d="M482.5,430.5s-.4,0-1.1-.4c1.1-.9,2-1.8,2.9-2.2,3.3-1.5,6.6-2.5,10-3.8,3.3-1.1,6.6-2.4,10-2.5,9.7-.4,18,2.5,24.4,10.2,5.5,6.6,8.7,14.2,11.5,22,1.6,4.9,3.5,9.7,4.9,14.6,2.7,10,5.3,20.2,7.6,30.4,1.3,5.1,2,10.4,3.1,15.5,1.6,8,1.6,16,1.5,24,0,.7-.2,1.5-.4,2.2-.4,1.8-1.5,3.5-.9,5.5.2.5-.5,1.5-.7,2.2-.4.7-.7,1.5-.9,2.4-1.8,7.6-9.1,16.8-15.1,18.9-5.8,2.2-10.7,1.1-15.1-2.9-4.6-4-7.8-9.1-11.3-14-2.5-3.5-5.1-6.9-7.8-10.2-1.1-1.3-2.5-2.4-4-3.3-1.6-1.1-3.5-.7-5.1.4-2.9,1.8-4.6,4.7-6.6,7.1-3.1,3.8-5.8,8-9.1,11.7-4.9,5.8-11.3,9.7-18.9,10.9-6,1.1-10.9-1.1-15.5-4.9-4.2-3.6-5.1-8.2-4.6-13.5.7-5.3,1.5-10.6,2.4-15.8.7-4,1.8-8.2,2.9-12.2,2.2-8,4.2-16,6.6-24,2.5-8,5.3-15.8,8.4-23.5,4.4-10.2,9.1-20,13.8-30,.9-2,2.4-3.8,3.3-5.8.7-1.5,1.3-3.1,1.5-4.9.4-.9,1.6-2.4,2.4-3.8v-.3h0ZM512.8,479.1c-.2-3.5-.4-5.8-.7-8.2-.5-3.3-1.6-6.4-4-8.9-1.8-1.8-4.2-1.6-5.6.5-.7.9-1.3,2-1.5,3.1-1.3,6-2.2,12-1.6,18.2.2,2.7.9,5.5,1.6,8.2.7,2.4,3.8,3.8,5.6,2.9,2.9-1.3,4.4-4,5.1-6.7.7-3.3.7-6.7,1.1-9.1Z" style="fill: #fdcd37;"/>
        <path d="M790.6,548.8c-.2,0,.2,0,.4,0-3.1,5.6-7.3,10.2-13.1,13.3-4.9,2.5-10.2,4.2-15.7,5.1-7.3,1.3-14.6,1.6-21.8,1.3-4.2-.2-8.6-.7-12.7-1.5-5.1-.7-10.2-1.6-15.3-2.9-6.6-1.5-12.9-4-18.4-8.2-1.8-1.3-2.5-4-3.5-6.4-1.5-3.5,0-6.9.7-10.2,1.3-5.1,3.1-9.8,5.8-14.4,2-3.1,3.6-6.6,5.6-9.7,3.3-5.3,8.2-9.1,12.4-13.5,3.6-3.6,7.5-7.1,11.3-10.7,4-3.8,8-7.6,12-11.5.5-.5,1.1-1.3,1.8-2,1.8-2,1.8-3.6-.5-4.9-2.9-1.5-6-2.7-9.1-3.6-5.6-1.6-11.5-2.7-16.9-4.4-5.6-1.8-10.7-4.6-14.2-9.7-2.4-3.5-2.9-7.1-1.3-11.1,2.7-6.2,6.2-12,11.1-16.8,2.5-2.5,6-4,9.5-4.6,4.4-.7,8.7-1.1,13.3-1.5,3.5-.2,7.1-.2,10.6,0,4.2.2,8.4.7,12.6,1.3,7.8,1.3,15.8,2.4,23.7,4,6.7,1.3,13.1,4,17.8,9.1,4.4,4.6,4.9,10,3.5,15.8-1.3,5.1-4.4,9.3-7.6,13.1-6.7,7.6-13.7,15.1-20.6,22.8-6.4,7.1-12.9,14-19.1,21.3-2,2.2-3.3,4.9-3.5,8-.2,1.6.5,2.9,2.2,3.3,2.9.4,5.8.9,8.6.7,6.9-.2,13.7-.9,20.6-1.3,3.5-.2,7.1-.2,10.6.4,5.8.7,8.4,5.3,8.9,10.2.4,3.6-.9,6.9-2.2,10.2-.5,1.3-2.2,2-3.3,3.1s-1.1,1.5-1.8,2.4c-.7,1.5-1.5,2.4-2.2,3.3l-.2.2h0Z" style="fill: #fdcd37;"/>
      </g>
      <path d="M777,318.9c0,1.5-.2,2.9-.2,4.4s-.2,2.9,0,4.2c.2,2.5.7,4.9.9,7.4.2,1.3.2,2.5.4,4,.9,4.9,2,9.8,2.9,14.7.5,3.6.9,7.1,1.1,10.7.2,2.5,0,5.1,0,7.4,0,3.4-.7,6.7-2.2,9.6-.4.7-.7,1.5-.5,2,.5,2.7-2.2,4-2.4,6.4l-.2.2c-1.8.2-2.5,2-4.2,2.4-1.8.4-3.4,1.1-5.3,1.1-3.8.4-7.6.2-11.3-1.5-.7-.4-1.3-1.1-2-1.6-.4-.4-.7-.7-1.1-.7-2.2-.2-2.7-1.8-3.6-3.3-3.3-4.5-5.8-9.6-7.6-14.9-.9-2.7-2.4-5.6-2.4-8.7-.2-3.3-.7-6.7-1.3-10-.2-1.5-.5-2.9-.9-4.4-.2-.9,0-1.8,0-2.7,0-2,.2-4.2.2-6.2v-9.8c0-2.2-.2-4.4-.2-6.5s.4-2.2.5-3.3c.5-4.9.9-9.8,1.5-14.7.5-3.8.9-7.8,1.8-11.6,1.1-5.4,2-10.9,4.5-16,1.3-2.7,2.5-5.6,4.4-7.8,2.4-3.1,5.3-5.8,9.1-7.3,5.4-2,10.7-1.6,16.2-.5,3.3.7,6.5,2.4,8.9,4.7,3.6,3.4,7.1,6.9,10.3,10.5,2.2,2.4,3.8,5.1,5.6,7.8,3.6,5.1,7.4,10.3,11.3,15.4,1.3,1.6,2.7,3.3,4,4.9.5.5,1.5.9,2.7,1.8.4-2.7.7-5.1.9-7.4.4-5.3.7-10.3,1.3-15.6.4-3.1.7-6.2,1.3-9.1.5-3.8,1.8-7.3,4.4-10.2,2.9-3.3,6.4-5.4,10.7-5.4s4.5-.2,6.7.4c4.2.9,7.3,3.3,9.4,7.3,1.1,2.2,1.8,4.4,2,6.9.4,2.7,1.3,5.3,1.6,7.8.5,4,.5,8,.9,12.2.2,1.6.5,3.3.7,5.1,0,1.5-.2,2.9-.2,4.4s.2,1.1.2,1.6c.2,3.4.2,6.7.4,10.2,0,1.8.2,3.6.2,5.4v9.1c0,2.2,0,4.4-.2,6.5v7.8c0,2.7-.2,5.4-.4,8.2-.2,2.4-.4,4.7-.7,7.1-.7,4.7-1.6,9.4-2.4,14.3-.5,3.3-2,6-3.3,8.9-.4.7-.4,1.6-.5,2.4-.4,1.1-.7,2.4-1.3,3.4s-1.1,2-1.8,3.1c-.2.4-.4.7-.5.7-1.6-.2-1.8,1.5-2.9,2-.9.5-1.8,1.1-2.9,1.1-5.4.5-10.7.4-15.4-3.1-.9-.7-1.6-1.5-2.4-2.2-.2-.2-.4,0-.5-.2-.5-.2-1.1-.2-1.5-.5-1.3-1.3-2.4-2.5-3.4-3.8-3.3-3.6-6.7-7.1-9.6-10.9-2.5-3.3-4.7-7.1-6.9-10.7-1.3-2.2-2-4.5-3.3-6.7-1.1-2.2-2.5-4.2-3.8-6.4s-2.4-4.5-3.4-6.7-2.4-4.4-3.4-6.5c-1.3-2.4-2.2-4.9-3.4-7.3-.7-1.6-1.6-3.4-2.5-5.1-1.1-2-2.2-4-3.3-6.2h-1.7,0ZM774.4,386c-4,2.9-8.2,3.6-12.5,2.9-4.4-.7-8.2-2.5-11.3-5.8,5.4,10.2,20.3,10.3,23.8,2.9ZM833.3,392.4c.5-.9,4.5-1.6,5.1-.7,1.1,1.6,2.2.5,3.1,0,.9-.4,1.6-1.3,2.5-2.2-.4-.2-.7-.5-.7-.5-1.6.5-2.9,1.5-4.4,1.6-3.8.5-7.4-.4-10.7-2.4-1.6-1.1-3.3-1.8-4.9-2.7,2.5,3.6,6.2,5.4,10,6.9h0Z" style="fill: #fdcd37;"/>
      <path d="M735.2,326.9v-2.5h.4c0,.4.2.7.2,1.1-.2,2.9-.4,5.8-.4,8.7,0,4.4,0,8.7.4,13.1s1.1,8.5,1.6,12.9c.2,1.3-.2,2.5-.2,3.8,0,5.1.2,10,.2,15.1s0,1.1-.2,1.6c-.2-1.1-.4-2.2-.5-3.3.4,3.6-2.7,5.4-4.2,8-2,0-2.5,3.1-5.1,2.4-.2,0-.5.9-.9.9-1.8.5-3.6.9-5.4,1.1-4.4.4-8-1.5-11.1-4.2-2.4-2.2-4-5.1-5.8-7.6-1.5-2-2.7-4-4-5.8-1.5-2.2-2.9-4.5-4.4-6.7-.4-.5-1.3-.9-1.8-1.5-1.1-1.3-2-2.5-3.1-3.6-.2-.2-.5-.2-.9-.5.4.7.5,1.3.9,1.6l-.2.2c-.7-.7-1.6-1.5-2.4-2-.9-.7-1.8-1.1-2.9,0-.5.7-1.5,1.1-2.4,1.6,0-.4.2-.5.2-.9l-.2-.2-2.2,2.2c-2.5,3.4-5.1,7.1-7.8,10.7-1.6,2.2-3.6,4.4-5.4,6.5-.9.9-2.5,1.5-3.1,2.5-1.3,2.4-3.6,2.9-5.6,3.8-2.5,1.1-5.3,1.8-8,2.5-.5.2-1.3-.4-2.2-.4.2.2.4.4.7.7h-4.7c0-.2,0-.4.2-.4h.2c.2,0,.2-.2.4-.4-3.3,1.3-5.8-.5-8.4-2-.7-.4-1.3-1.1-1.8-1.6-1.3-1.3-2.7-2.5-3.8-4-.5-.7-.5-2-.9-3.1-.5-1.6-1.3-3.3-1.6-5.1-.4-1.5-.2-3.1-.4-4.5v-3.8c0-.7.4-1.5.5-2.2.4-2.7.7-5.4,1.3-8.2.4-2.2,1.1-4.2,1.6-6.2.4-1.8.7-3.8,1.1-5.6.5-2.9,1.3-6,2-8.9.4-2,.7-4.2,1.5-6.2.5-1.8,1.5-3.6,2-5.4.5-1.6.9-3.4,1.5-5.1,1.1-3.4,2.4-6.7,3.6-10.2,1.5-3.6,2.7-7.4,4.4-11.1,1.3-3.1,2.9-6.2,4.5-9.3s3.3-6,4.9-9.1c.9-1.6,1.5-3.1,2.4-4.7.7-1.5,1.6-2.9,2.5-4.2,1.3-1.8,2.5-3.6,4-5.1,3.3-3.4,6.5-6.7,10.9-8.5.7-.2,1.5-.4,2.2-.5,2.2-.4,4.2-.9,6.4-1.1,1.5-.2,2.9.4,4.4.4s.4,0,.5-.2c2.4-.5,4.5-.5,6.7.5,1.8.9,4,1.1,6,2,2.9,1.5,5.6,3.3,7.8,5.8,3.4,4.2,6.5,8.5,8.5,13.6,1.1,2.9,2.7,5.4,3.8,8.4,1.3,3.4,2,6.9,3.1,10.3.4,1.3,1.1,2.4,1.5,3.6.5,1.8,1.1,3.6,1.5,5.4,1.1,4.2,1.8,8.5,3.3,12.7,1.1,3.3,1.8,6.5,2.5,10,.2.5.2,1.3.4,1.8-.9,0-.7,0-.5,0l-.2.4h0ZM686.2,297.6c.2,0,.2-.2.4-.2-.4-.4-.5-1.1-.9-1.1s-1.3.2-1.5.5c-.4.7-.4,1.5-.4,2.2-.2,1.3-.9,2.4-.2,3.6-1.5,1.1-.5,2.7-.5,4-.2,2.7,0,5.6.4,8.4.2,1.6-.4,3.4.9,4.9.9,1.1,1.6,2.5,2.5,4.2.9-1.1,2-2,2.5-3.1.7-1.6,1.5-3.4,1.8-5.3.9-2.9.5-6,.4-9.1-.2-2.4-.7-4.7-1.1-7.1-.2-1.6-1.3-2.9-2.7-3.1.2.5.2,1.1.4,1.8-.7-.2-1.3-.4-2-.7h0ZM727.6,383.3c2.4-1.1,4.4-2.7,6-5.1-2.2,1.8-4.2,3.4-6,5.1ZM717.6,384.9c2.5,1.6,4.5.9,6.5,0h-6.5ZM688.8,326.1c0-.2-.2-.2-.2-.4-1.3,0-2.4-.2-3.6-.2,0,.2-.2.2-.2.4.7.4,1.6.9,2.4.9s1.1-.5,1.6-.7h0Z" style="fill: #fdcd37;"/>
      <path d="M557.1,402.4c.7.2,1.5.5,2.2.9.4.2.5.4.9.7-.4.2-1.1.7-1.3.7-3.1-1.3-6.2-2.5-9.4-4-1.3-.5-2.7-1.1-4.2-1.5-3.3-1.1-5.8-2.9-8-5.4-1.5-1.8-3.1-3.3-4.5-5.1-.9-1.3-1.8-2.7-2.4-4.2-1.3-4-2.4-8.4-3.6-12.3-.9-2.9-1.8-5.8-3.3-8.4-2.2-3.6-3.4-7.6-4.4-11.8-1.1-5.6-2-11.3-2.9-16.9-.5-3.4-.9-6.9-1.1-10.2-.2-2.9.2-5.6.2-8.5s.5-5.1.9-7.6c.4-2,1.1-3.8,1.3-5.6.2-1.5.5-2.7,1.5-4.2,1.1-1.6,1.3-4,2.2-5.6,1.5-2.7,3.4-5.1,5.1-7.4.7-1.1,1.6-2,2.5-2.9,2.9-2.9,6.2-5.3,9.6-7.1,2.7-1.5,5.4-2.9,8.5-4,2.9-1.1,6.2-1.6,9.3-2.4,2.5-.5,5.1-1.1,7.4-1.6.7-.2,1.6-.4,2.4-.4,1.6,0,2.9-.4,4.4-.9.7-.4,1.8,0,2.7,0,3.8,0,7.6-.2,11.4-.2s8.5,0,12.7.5c3.1.4,6.2.5,9.1,2,2,.9,4.5,1.3,6.7,1.8,3.6,1.1,7.1,2.9,9.4,6,1.6,2.2,3.6,4.2,4.7,6.5,1.1,2.5,1.1,5.3.5,8s-.9,3.4-1.5,5.3c-.4,1.3-.5,2.5-1.1,3.8-.2.4-.9.7-1.5.9-1.3.4-2.5,0-3.6.5-4.2,2.2-8.7,3.3-13.4,3.8-5.1.5-10,1.5-15.1.7-3.3-.4-6.5-.9-9.8-1.5-6.2-1.1-12.2-1.1-18,1.5-2.4,1.1-4.9,1.6-7.4,2.4-4.9,1.5-7.4,4.5-7.8,9.6-.2,3.8-.2,7.6-.2,11.4.2,5.6.4,11.1.9,16.7.4,3.3,1.3,6.5,2.4,9.6.9,2.9,2.9,5.1,5.6,6.5,3.6,1.8,7.3,3.8,11.1,4.9,7.1,2.2,14,.7,20.5-2.4,1.3-.5,2.7-1.3,3.8-2.4,1.8-1.8,2.9-4,2.2-6.7-.4-.9-1.1-2-1.8-2.5-3.3-2.2-6.5-4.2-10.3-5.3-4.5-1.3-8.9-3.1-13.1-4.9-3.8-1.6-5.1-8.5-2.2-11.4,2.7-2.9,6-5.1,9.8-6.4.7-.2,1.3-1.1,2-1.6s1.5-1.1,2.4-1.3c2.9-.4,5.8-.5,8.9-.7,2.9-.2,5.8-.2,8.5.2,2.9.4,6,.9,8.9,1.6,4.5,1.1,8.7,3.1,12.5,5.8,4,2.9,6.5,6.7,9.1,11.1,2,3.4.5,6.4.2,9.4-.4,3.4-.7,6.9-1.8,10-1.5,4,0,8.2-1.3,12-.9,2.5-2.4,5.1-3.6,7.4,0,.2-.2.4-.4.4-2.4,0-2.4,2.2-3.1,3.4-2,3.1-4,6.4-6.2,9.3-.7,1.1-2.2,1.8-3.3,2.4-6.2,3.1-12.5,5.3-19.6,5.6-5.6.4-11.4,1.1-17.1,1.6-5.8.4-11.1.5-16.3,0l.2.4h0Z" style="fill: #fdcd37;"/>
      <path d="M515.8,357.9c-.4-.5-.5-.7-.7-1.1-.2,2.4-.2,4.7-.4,6.9-.2,2.7-.7,5.4-1.1,8-.2,1.5-.4,3.1-.5,4.5-.2,1.6-.4,3.3-.7,4.9-.4,1.8-.9,3.8-1.5,5.6-.5,2-1.3,3.8-1.8,5.8-.4,1.1-.4,2.4-.5,3.4-.5,2.4-1.1,4.9-3.1,6.7-.9.7-1.3,2-2.5,2.5-3.3,1.6-6.5,1.5-10,1.5s-7.1-1.1-10.2-3.3c-2.9-2.2-4.7-4.9-6-8.2-.4-.9-.9-1.8-1.3-2.7-1.6-4.4-3.4-8.9-4.7-13.4-.9-3.3-1.3-6.5-1.8-10-.5-3.6-1.3-7.3-1.6-10.9-.5-4.5-.9-9.3-.5-13.8.2-2.5-.2-5.3-.4-7.8v-18.3c.2-2.2.5-4.5.7-6.7,0-.9,0-1.8.2-2.5.4-1.8,1.1-3.8.9-5.6-.2-2.9.9-5.3,1.3-8,.2-1.8,1.5-3.6,1.6-5.4.2-1.8,1.1-3.4,1.6-5.1.9-2.7,2.5-5.1,4-7.4,1.5-2.2,2.9-4,4.7-6,2-2.2,4.4-3.8,6.9-5.1,2.4-1.1,4.9-2,7.8-1.5,1.3.4,2.7-.2,4-.2,3.6-.4,6.2,1.6,8.2,4.4,1.8,2.4,3.3,5.1,4.5,7.6.7,1.6.9,3.4,1.3,5.3.5,3.1,1.1,6.4,1.5,9.6.4,3.1.7,6.4.5,9.6,0,2.2-.9,4.4-1.3,6.5-.4,2.4-.9,4.5-.9,6.9-.2,4.2-.2,8.4,0,12.5.2,4,.7,7.8,1.3,11.8v1.5c.2,5.4.2,11.1.4,16.5.4.2.2.4.2.9h-.1Z" style="fill: #fdcd37;"/>
      <path d="M495.4,262.2c-1.3-.4-3.6-.5-5.8-1.6s-2.9-3.4-3.4-5.8c-.2-1.1-.7-2-1.3-2.9-.2-.2-.4-.4-.5-.7-.2-4.9-.9-10,3.4-13.4,1.8-1.5,3.8-3.3,6.7-2.5,1.3.4,2.7,0,4.2-.2,3.8-.4,8.9,4,9.3,7.1.4,2.4.4,4.9.2,7.4,0,1.3-.7,2.4-1.1,3.6,0,.2-.2.4-.2.4,1.3,2.2-.7,3.3-1.5,4.7-.4.5-.7,1.3-1.3,1.8-1.8,2.4-4.7,1.8-8.7,2.2h0Z" style="fill: #fdcd37;"/>
      <path d="M155,259.5v-.3c-1.8,1.4-3.5,3.3-5.2,5.8h.2c1.4-1.8,3.1-3.7,5-5.4h0Z" style="fill: #fdcd37;"/>
      <path d="M155,259.2v.3c-2,1.7-3.7,3.6-5,5.4h-.2c-1.6,2.3-3.2,5.1-4.7,8.5-1.1,2.7-2,5.6-2.4,8.5-2.2,14.3-.7,28.7-.7,43s.7,10.9.7,16.3c1.6,2.4,1.1,5.3,1.5,7.8.2,1.5.4,3.1.5,4.5.4,2.9.7,5.8,1.3,8.5.5,3.1,1.1,6.4,2.2,9.4,1.5,4.4,3.3,8.5,4.9,12.9,2.4,6.4,7.1,10.3,13.1,12.9,4.7,2.2,10,2.2,14.5.5,3.3-1.3,6.2-4.2,9.1-6.5.7-.7.9-2.5,1.1-3.8.5-2.4.2-5.1,1.1-7.3,1.5-3.4,1.6-6.7,1.8-10.3,0-1.3.2-2.5.4-3.8.2.2.2.5.5,1.3.4-.7.7-1.5.9-2,.9-2,1.6-4.2,2.7-6.2,1.1-2,2.2-1.8,3.1.2.5,1.1.7,2.4.9,3.6.5,3.6.4,7.4,1.3,10.9.5,1.6,1.1,3.4,1.8,5.1.2.4.7.7,1.3.7,1.1.2,1.8.5,1.8,2s.9,1.6,1.3,2.5c.4,1.1,1.6,1.8.9,3.4-.2.5,1.1,2,1.8,2.9.2.2.4.5.7.9h-1.1c0,.2-.2.2-.2.4,2.2,1.5,4.4,3.3,6.7,4.4,6.4,2.9,16.5,3.8,26-5.8-.5.4-.9.5-1.5.7,1.8-2.2,3.8-4.2,4-7.3,2.4.5,2.2.5,3.4-1.6,1.3-2,1.5-4,1.5-6.2,0-4.5,0-9.1.4-13.6.5,2.2.9,4.5,1.6,6.7,2,6.2,4.2,12.2,7.4,17.6,1.5,2.2,3.1,4.2,4.5,6.4.9,1.3,1.8,2.5,2.9,3.6.5.7,1.6,1.1,2.2,1.8,1.6,2,3.1,4,4.7,6,3.3,3.8,7.8,6,12.5,7.6,3.3,1.3,6.5,2.4,9.8,3.3,5.6,1.6,11.6,1.6,17.4,1.5,6.9-.2,13.8-.7,20.7-2.2,12.3-2.5,22.3-8.4,29.8-18.7,4.9-6.7,8.5-13.8,11.1-21.6s.7-3.1.7-4.5-.2-2-.7-2.5c-2.2-2.2-1.1-4.5-.9-6.9.2-.7.2-1.6.4-2.5,1.1,2,2,4,3.1,5.8,2.2,3.6,4.2,7.1,6.7,10.3,1.8,2.4,4.4,4,6.5,6,1.3,1.3,2.4,2.7,3.8,3.6,5.3,3.3,11.1,5.3,17.2,6.4,6.5,1.3,13.1.9,19.4.5,5.3-.2,10.7-1.1,15.6-3.4,2.5-1.3,5.1-2.9,7.6-4.4.5-.4.9-1.3,1.5-1.8,1.5-1.8,3.3-3.6,4.5-5.6,1.8-2.5,2.7-5.3,2.7-8.5s.5-6.5.2-9.8c-.2-1.8-1.5-3.6-2.5-5.3-2.9-4-6.5-6.7-11.4-7.4-2-.4-4-.4-6-.4h-17.4c-3.3,0-5.8-.9-7.3-4-.2-.4-.4-.9-.4-1.3,0-4.5-.2-9.1,0-13.6.2-2.9.9-5.6,1.5-8.5.9-4.7,1.6-9.6,2.5-14.3.4-2.2,1.1-4.2,1.5-6.4.7-3.8,1.3-7.8,1.8-11.6.5-3.8,1.1-7.6,1.3-11.4.2-1.6-.4-3.6-.7-5.3-1.8-7.3-6.7-12-13.3-15.1-5.3-2.5-10.7-3.3-16.3-2.4-2.9.5-4.7,2.5-6.5,4.5-6.7,7.8-10,17.1-12.9,26.7-1.6,5.4-3.1,11.3-4.5,16.9-.9,3.3-1.3,6.5-2,10.3-1.1-1.6-2-3.1-2.9-4.5-4.5-7.6-10.5-13.4-18.3-17.8-6.4-3.6-13.4-5.6-20.5-7.1-4.9-1.1-10-.7-15.1-.9-5.6-.2-10.9,1.3-16.3,2.5-8.7,2.2-16.5,6.2-23.8,11.4-5.3,3.8-9.6,8.2-13.6,13.3-1.8,2.2-3.3,4.7-4.7,7.1-1.1-2.2-.5-4.5-.5-7.1s-.7-4.4-1.1-6.5c-.2-.2-.2-.4-.2-.5,0-1.8.2-3.4,0-5.1,0-1.5-.2-2.7-.5-4.2-.2-1.3-.7-2.4-.9-3.4-.2-1.1-.2-2.4-.5-3.6-1.3-5.3-2.9-10.5-6.2-15.1-4.5-6-10.2-9.6-18-9.4-4,.2-7.6,1.6-10.7,4.4-4.9,4.4-7.4,9.8-9.1,16-.4,1.5-.7,2.7-.9,4-.2,2.2-.4,4.2-.4,6.4v7.1c0,.5-.7,3.6-1.1,4.4-.2.7-.4,1.5-.7,2-1.6,2-3.8,1.5-5.6.9-4-1.1-7.6-2.5-9.4-6.5-.7-1.6-1.8-3.3-1.3-5.4.2-.6,0-1.2,0-1.9.4-4.7.1-10.5-2.2-16.2-2-4.8-4.1-8.2-5.9-10.5,0,0-13.9-13.6-27.1-3h-.2ZM309.5,343.4c.7-2,2-4,3.3-5.8,1.8-2.5,4.4-2.5,6.2,0,2.9,4,4.9,8.5,5.4,13.6.2,2,.9,3.8,1.3,5.6.9,4.2,1.8,8.2,2.7,12.2-.5,1.6-1.1,3.1-1.8,4.5-.5,1.1-1.5,1.3-2.5.5-4-2.2-6.7-5.8-9.3-9.4-2.9-4.5-4.9-9.4-6.5-14.7-.7-2.4.5-4.5,1.3-6.5h-.1Z" style="fill: #fdcd37;"/>
    </g>
    <g>
      <path d="M207.6,656.3c.5-2.1.9-4.2,1.5-6.3,1-3.3,2.1-6.5,3.3-9.8,2.3-6.6,6.2-12.4,9.4-18.5,2.8-5.5,7-10,10.4-15.1,1.8-2.7,4.4-4.8,6.6-7.2,5.1-5.6,10.9-10.3,17.4-14.1,1.8-1.1,3.9-1.9,6-2.1,3.8-.3,7.7-.2,11.6,0,1.8,0,3,1.1,4,2.6.9,1.3,2.3,2.2,3.4,3.4,3.5,4,5.7,8.6,6.4,13.8.8,5.8,1.5,11.7,2.1,17.5.4,4,.7,8,.8,11.9.1,2.7,0,5.4,0,8,.1,7,.1,14.1.2,21.1.1,4.4.3,8.7.3,13.1s-.2,11-.3,16.5c0,2.9-.1,5.7,0,8.6.1,2.6.4,5.1.3,7.7-.2,7.1-.6,14.3-.9,21.4-.2,3.8,0,7.7-.6,11.4-1,5.7-1.6,11.6-4.6,16.7-1.6,2.7-4.1,4.5-6.7,6.1-1.2.7-2.9.7-4.3.8-4.5,0-9,.2-13.6.2s-2.3-.6-3.6-1c-.4,0-1,.3-1.6.2-4.6-.9-8.4-3.3-10.7-7.4-1.2-2.1-1.8-4.7-2-7.1-.8-7-1.5-14-1.8-21-.3-8-.2-16.1-.1-24.1.1-10.3.4-20.7.6-31,.1-4.6.3-9.1.4-13.7,0-.8-.1-1.5-.3-2.3-.5-2.4-2.7-3.6-4.7-2.3-2.2,1.4-4.1,3.2-6,4.9-2.5,2.3-4.7,4.9-7.3,7-4.4,3.8-12.9.6-14-4.3-.4-1.6-1.1-3-1.6-4.6,0-.2,0-.5,0-.9Z" style="fill: #fdcd37;"/>
      <path d="M380.7,584.3c3.2,0,6.5,0,9.7,0,1.5,0,3,.7,4.5,1,6.8,1.2,13.4,2.9,19.5,6,5.2,2.6,10,6,14.5,9.6,3.8,3,7.3,6.6,10.3,10.3,2.7,3.3,4.7,7.2,6.8,10.9,3.8,6.6,6.3,13.6,8.3,20.9,2,7.3,3.3,14.6,3.4,22.1.1,3.9.4,7.7.3,11.6-.1,3.8-.1,7.6-.7,11.4-.8,5.1-2,10.1-3.3,15.1-2.7,10.5-7,20.3-13.1,29.3-1,1.5-2.2,2.8-3.1,4.4-.7,1.2-.7,2.9-1.6,3.9-2.8,3.3-5.3,7-8.8,9.3-10.3,7-21.5,12.7-34.1,14-9.8,1-19.7,1.3-29.3-2.1-.9-.3-1.9-.6-2.6-1.1-2.1-1.5-4.6-1.3-6.9-2-7.3-2.3-13.7-6.3-19.6-11-3.7-2.9-7.3-5.9-10.3-9.4-3.7-4.5-6.8-9.6-10.1-14.5-4.1-6-5.9-13-8.3-19.8-2.1-6.2-2.7-12.7-3.6-19.1-1-6.9-.8-13.8-.3-20.7.6-7.8,2-15.4,4.4-22.9,1-3.3,2-6.6,3.4-9.7,1.7-3.8,3.8-7.5,5.8-11.2,3-5.6,7.1-10.3,11.4-15,3.8-4.2,8.3-7.5,12.9-10.6,7.5-5,15.3-9.6,24.6-10.3,5.2-.4,10.4-.6,15.5-.9.4.3.4.4.4.5ZM355.6,675c.1,1.7.4,3.7.4,5.7.2,6.2,1.3,12.2,4.1,17.7,2.2,4.3,4.7,8.5,7.7,12.3,7,8.7,20.6,9.7,28.7,1,4.4-4.8,7.2-10.5,8.9-16.7,2.9-10.5,3.6-21.2,2.3-32.1-1-7.9-3.5-15.1-7.6-21.9-3.4-5.6-8.3-9.1-14.6-10.5-6.6-1.5-12.1,1.2-16.9,5.3-5.7,4.8-8.4,11.6-10.4,18.5-2,6.6-2.2,13.5-2.6,20.7Z" style="fill: #fdcd37;"/>
      <path d="M738.9,760.2c-.3.2-.9.8-1.6,1.1-11.6,3.7-23.5,4.9-35.4,1.7-8-2.2-16-4.6-23.3-8.7-13.2-7.4-22.8-18-29.9-31-2-3.7-3.9-7.5-5.4-11.4s-2.3-8.1-3.6-12.1c-1.7-5.4-2-10.9-2.5-16.4-.3-4.1-.8-8.3-.5-12.5.4-6.3,1.2-12.5,2.2-18.7,1.7-10,5.2-19.4,9.9-28.3,4.3-8.1,10.1-15.3,16.9-21.5,5.3-4.8,11.2-8.5,17.4-11.8,7-3.7,14.4-6.7,22.5-7.1,1.6,0,3.3.3,5,.3,3.7.2,7.4.2,11.1.5,2.7.2,5.4.6,8.1,1.1,3,.5,6.1.8,8.9,1.9,5,1.9,10.1,4,14.8,6.6,4.1,2.3,7.9,5.1,11.4,8.2,9.8,8.4,16.2,19.3,20.9,31.2,3.3,8.4,5.1,17.2,6.3,26.1.4,3.1,0,6.3,0,9.5v12c0,6.9-1.4,13.6-3,20.2-3,12.3-7.9,23.9-15.5,34.1-2.8,3.7-5.9,7.1-8.9,10.6-.5.5-1.2.8-1.9,1.2-.2,0-.5.2-.6.4-1.6,3.3-5.1,4.3-7.7,6.4-3.8,3.1-8.4,4.6-12.8,6.3-1,.2-1.8.1-2.9.1ZM717.7,717.7c3.8.2,7.6-1.5,10.9-4.1,3.2-2.5,5.7-5.7,7.3-9.3,1.5-3.3,2.8-6.8,3.7-10.3,1.1-3.9,1.8-7.8,2.5-11.8.4-2.2.2-4.4.4-6.7,0-1,.4-2,.3-3-.3-3.9-.5-7.9-1.1-11.8-1.2-7.3-3.7-14.2-7.9-20.4-1.2-1.8-2.6-3.7-4.3-5-4.6-3.6-9.6-5.7-15.8-4.5-4.8.9-8.8,2.8-12.1,6.3-5.4,5.7-7.9,12.6-9.8,20.1-2.3,9.3-2.2,18.6-1.2,28,.8,8.4,4.2,16,9.2,22.9,4.3,5.7,9.7,9.6,17.9,9.6Z" style="fill: #fdcd37;"/>
      <path d="M537.4,584.3c4.5,0,11.4-.3,18.2,0,3.8.2,7.6,1.4,11.4,2.2,7.1,1.5,13.7,4.4,19.9,8,3.4,2,6.4,4.5,9.5,7,4.9,3.8,8.6,8.7,12.2,13.6,2.3,3.2,4.1,6.8,5.8,10.3,4.7,9.4,7.6,19.4,9,29.7.7,4.9,1.4,9.9,1.4,14.8,0,13.5-1.7,26.8-6.1,39.7-1.7,5.1-3.7,10.1-6.2,14.8-2.7,5-6,9.7-9.5,14.1-4.3,5.4-9.3,10-15.3,13.8-3.7,2.3-7.4,4.6-11.4,6.3-2,.9-4.4,1.1-6.6,1.7-1.6.5-3.1,1.4-4.7,1.7-7.3,1.4-14.7,2.5-22.2,1.3-4.2-.7-8.4-1.1-12.6-1.7-1.5-.2-2.9-.7-4.3-1.2-2.9-1.1-5.8-2.1-8.6-3.4-2.3-1-4.7-2-6.8-3.4-5-3.5-10.3-7-14.7-11.2-4-3.8-7.5-8.3-10.7-12.9-6.2-8.9-10.3-18.8-12.7-29.3-1.2-5.1-2.1-10.2-2.7-15.4-.9-7.9-.9-15.9.3-23.8,1-6.8,2.4-13.5,3.9-20.2.6-2.7,1.9-5.3,3-8,3.2-7.8,7.5-15,12.8-21.7,6.3-7.9,13.9-14.2,22.8-18.9,2.9-1.6,5.8-3.2,8.8-4.6,4.3-2,8.7-3.8,16.1-3.4ZM548.7,630.1c-5.9.2-10.5,2.5-14.4,6.5-4,4.1-6.4,8.9-8.3,14.3-2.1,5.9-3.2,12-3.5,18.2-.3,4.5.2,9.1.3,13.6,0,5.4,2,10.4,3.8,15.4,1.8,5.1,5.2,9.4,8.7,13.5,2.8,3.2,6.5,4.9,10.7,5.8,6.4,1.4,11.7-.5,16.3-4.8,6.1-5.7,9.1-13.1,11-21,1.8-7.3,2.4-14.7,1.9-22.2-.3-5.8-.9-11.4-2.9-16.9-1.7-4.8-3.6-9.4-6.6-13.5-4.3-5.9-10-8.8-17-8.9Z" style="fill: #fdcd37;"/>
    </g>
  </g>
</svg>