<?xml version="1.0" encoding="UTF-8"?>
<svg id="Layer_1" xmlns="http://www.w3.org/2000/svg" version="1.1" viewBox="0 0 100 100">
  <!-- Generator: Adobe Illustrator 29.1.0, SVG Export Plug-In . SVG Version: 2.1.0 Build 142)  -->
  <path id="Vector" d="M59.4,75.5c-13.5,4.5-27.6,6.9-41.9,7.2,6,5.7,13.5,9.6,21.5,11.5,8.1,1.9,16.5,1.6,24.5-.9,7.9-2.4,15-6.9,20.6-12.9,5.5-6,9.3-13.4,11-21.4-11.1,7.1-23.1,12.7-35.7,16.6Z" style="fill: #fff;"/>
  <path id="Vector-2" d="M60,59.2l-1.2,2.9h2.4l-1.2-2.9Z" style="fill: #fff;"/>
  <path id="Vector-3" d="M26.7,58.9h-1.6v4.6h1.6c.7,0,1.3-.2,1.8-.6.9-.9.9-2.4,0-3.4-.5-.4-1.2-.7-1.8-.6Z" style="fill: #fff;"/>
  <path id="Vector-4" d="M42.2,23.8c12.6-4.1,25.7-6.5,38.9-7.1-6.2-5.5-13.7-9.3-21.8-11-8.1-1.7-16.6-1.2-24.5,1.4-7.8,2.6-14.9,7.2-20.3,13.4-5.4,6.1-9,13.6-10.5,21.6,11.8-8,24.6-14.1,38.2-18.3Z" style="fill: #fff;"/>
  <path id="Vector-5" d="M67.8,68.4c9.7-3,19.1-7.2,27.8-12.4.9-6.7.2-13.6-1.9-20-2.2-6.5-5.8-12.4-10.5-17.3-10.2.8-20.2,2.8-29.9,5.9-8.7,2.7-17,6.3-25,10.8h9.3v3.4h-9.9v4h8.8v3.3h-8.8v4.2h10.3v3.4h-14.6v-15.4C10.3,46.9,3.1,56.5,5.6,63.9c4,12.1,31.9,14.1,62.2,4.4ZM47.6,65h-1.8v-7.4h1.8v7.4ZM55.7,58.9h-2.4v6h-1.7v-6h-2.4v-1.4h6.6v1.4ZM71.2,65h-5.6v-7.4h1.8v6h3.8v1.4ZM59.5,35.3h16.4v3.5h-6v15h-4.4v-15h-6v-3.5ZM60.9,57.5l3.4,7.4h-1.8l-.7-1.6h-3.5l-.7,1.6h-1.8l3.4-7.4h1.7ZM40.8,39.6c.9-1.5,2.2-2.6,3.7-3.4,1.7-.8,3.5-1.3,5.3-1.2,1.5,0,3.1.3,4.5.8,1.3.5,2.5,1.3,3.4,2.4l-2.8,2.5c-.6-.7-1.4-1.2-2.2-1.6-.8-.4-1.8-.5-2.7-.5-1.1,0-2.2.2-3.2.7-.9.5-1.7,1.2-2.2,2.1-1,1.9-1,4.2,0,6.1.5.9,1.3,1.6,2.2,2.1,1,.5,2.1.8,3.2.8,1.2,0,2.3-.3,3.4-.8v-5.4h4v7.5c-1.1.8-2.3,1.4-3.6,1.7-1.3.4-2.7.6-4.1.6-1.8,0-3.6-.4-5.3-1.2-1.5-.8-2.8-2-3.7-3.4-1.8-3-1.8-6.8,0-9.8h0ZM37,59.2c.4-.6.9-1.1,1.5-1.4.7-.3,1.4-.5,2.1-.5.6,0,1.2.1,1.8.3.5.2,1,.5,1.4,1l-1.1,1c-.2-.3-.6-.5-.9-.6-.3-.1-.7-.2-1.1-.2-.4,0-.9,0-1.3.3-.4.2-.7.5-.9.8-.4.8-.4,1.7,0,2.5.2.4.5.7.9.8.4.2.8.3,1.3.3.5,0,.9-.1,1.4-.3v-2.2h1.6v3c-.4.3-.9.6-1.4.7-.5.2-1.1.2-1.6.2-.7,0-1.5-.2-2.1-.5-.6-.3-1.1-.8-1.5-1.4-.7-1.2-.7-2.7,0-4h0ZM32.8,57.5h1.7v7.4h-1.7v-7.4ZM30.4,63.2c-.4.6-.9,1-1.5,1.3-.7.3-1.4.5-2.2.5h-3.4v-7.4h3.4c.8,0,1.5.1,2.2.5.6.3,1.1.7,1.5,1.3.7,1.2.7,2.7,0,3.9h0Z" style="fill: #fff;"/>
</svg>