<?xml version="1.0" encoding="UTF-8"?> <svg xmlns="http://www.w3.org/2000/svg" xmlns:xlink="http://www.w3.org/1999/xlink" version="1.1" id="Layer_1" x="0px" y="0px" viewBox="0 0 1000 1000" style="enable-background:new 0 0 1000 1000;" xml:space="preserve"> <path style="fill:#FFFFFF;" d="M531.4,241.4c-5.2-0.3-10.4,1-15.5,1.3c-5.2,0.3-10.5,1.1-15.7,1.7c-5.2,0.5-10.5,1-15.7,1.5 c-5.2,0.5-10.5,1.1-15.7,1.7c-5.2,0.5-10.5,1.2-15.7,1.5c-5.2,0.4-10.3,1.7-15.6,1.2c-0.2-1.9,1.3-2.3,2.3-3 c11.3-8.5,22.6-16.9,33.9-25.3c27.6-20.5,55.2-41,82.9-61.6c5.4-4,10.9-8.1,16.3-12.1c1.3-0.9,2.5-1.7,4.1-0.5 c0.5,1.6-0.9,2.3-1.8,3.2c-9.7,10.5-19.4,21-29.2,31.4c-7.8,8.4-15.6,16.8-23.4,25.3c-1,1-2.5,1.8-2.3,3.9 c40.6-3,81.1-6.4,122.7-9.8c-4.8,5.6-9.6,9.4-14,13.6c-4.6,4.4-9.4,8.7-14.1,13.1c-4.5,4.2-9.1,8.5-13.6,12.7 c-4.6,4.2-9.1,8.4-13.7,12.6c-4.6,4.2-9.1,8.4-13.7,12.6c-4.7,4.4-9.4,8.7-14,13.1c-4.5,4.2-9.1,8.5-13.6,12.7 c-4.5,4.2-9.1,8.5-13.6,12.7c-4.5,4.2-9.1,8.5-13.6,12.7c-4.7,4.4-9.4,8.7-14,13.1c-4.5,4.2-9,8.5-13.3,12.5 c0.3,1.7,1.3,1.6,2.2,1.7c5.4,0.4,10.9,0.8,16.3,1.2c20.4,1.5,40.9,3,61.3,4.4c13.1,0.9,26.3,1.8,39.4,2.7c1.8,0.1,3.7-0.3,5.6,1.4 c-2,1.4-3.8,2.7-5.7,3.9c-48.1,30.9-96.2,61.7-144.3,92.6c-13.4,8.6-26.7,17.5-40,26.4c-2.5,1.7-4.9,2.6-7.8,2.3c-2-0.2-4.1,0-6.7,0 c0.5-1.2,0.8-2,1.2-2.7c0.4-0.6,1-1.1,1.6-1.6c16.9-16.6,32.9-34.2,48.9-51.6c12.8-14,26.2-27.5,38.9-41.6c1.2-1.4,2.5-2.8,3.6-4 c-0.5-1.5-1.5-1.3-2.4-1.4c-21.8-1.2-43.6-2.4-65.3-3.6c-14.5-0.8-28.9-1.6-43.4-2.4c-2.6-0.1-5.2-0.4-7.9-0.7c0.2-2.3,2-3,3.2-4 c19.9-17.5,39.9-34.9,59.9-52.4c5.9-5.2,11.7-10.6,17.7-15.8c12.2-10.6,24.5-21.1,36.7-31.7c8.2-7.1,16.4-14.3,24.6-21.5 C530.1,243.8,531.5,243.3,531.4,241.4z"></path> <path style="fill:#FFFFFF;" d="M360,625.6c-4.6,2.2-7,5.9-9.2,9.9c-1.6,2.9-3.3,5.9-5.3,8.6c-1.8,2.5-4.3,3.4-7.6,1.7 c0.7-1.7,1.3-3.2,1.9-4.8c1.7-4.3,1.9-8.8,0.9-13.3c-2.1-9.4-10.7-14.6-20.2-12.4c-10.3,2.4-17.3,11-17.5,21.5 c0,1.8,0.4,3.7,0.8,5.6c0.1,0.7,0.6,1.4,1.1,1.9c4.6,3.8,8.9,8,14.7,10.3c1.6,0.6,3,1.5,4.6,2.2c11,5,21.7,10.5,30.3,19.3 c6.9,4.2,9.2,11,10.4,18.5c0.8,4.6,0.1,9-0.8,13.4c-0.8,4.1-2.5,7.9-4.6,11.5c-1.1,1.8-2,3.6-4.1,4.5c-0.6,0.3-1.2,1-1.7,1.5 c-7.2,7.6-16.1,12.2-26,15.1c-9.5,2.8-19.1,4-29,3.3c-7.4-0.5-14.6-2.3-20.9-6.1c-4.3-2.6-8.2-6-12.1-9.1c-0.8-0.7-1.3-1.8-1.8-2.8 c-3.7-6.9-3.7-14.1-1.5-21.4c2.9-9.3,8.8-16.2,17.3-20.6c4.9-2.5,10.4-3.2,15.8-3.4c2.3-0.1,4.4,0.7,6.3,2.1 c5.9,4.6,11.9,9.2,17.7,14c1.7,1.4,3.2,3.2,4.3,5.2c2.4,4,1.5,8.7-2,11.8c-3.3,2.9-7.2,3.9-11.5,3.2c-3.1-0.5-5.1-2.9-5.1-5.9 c0-2.9,1.9-5.7,4.6-6.4c1.6-0.4,3.3-0.4,4.8-0.6c0.9-2.2,0.1-3.9-1.2-5.3c-6.1-6.8-18.6-9.9-25.7,1.9c-2.9,4.9-4,10.1-2.2,15.7 c0.9,3,2.5,5.5,5,7.4c5.2,4,10.8,6.7,17.6,6.3c3-0.2,6-0.4,9-1c3.6-0.7,7.3-1.5,10.1-4.5c1.1-1.2,2.9-1.8,4.2-2.8 c3.8-2.6,6.7-6,8.6-10.2c3-6.7,2.4-13.2-1.7-19.3c-1.4-2-3-4-4.8-5.5c-4.8-3.8-9.8-7.5-15.4-10.3c-5.4-2.7-10.7-5.5-15.8-8.7 c-3.6-2.3-6.9-5.2-10.1-8.1c-8.7-8.1-10.1-18-6.8-29c1.8-6.1,5.4-11.2,10.2-15.3c13.2-11.2,28.4-15,45.3-11.3 c3.2,0.7,6.4,2.2,9.3,3.9C356.5,611.5,359.7,617.5,360,625.6z"></path> <path style="fill:#FFFFFF;" d="M369.3,479.7c-0.4,1.3-0.4,2.3-0.9,2.8c-0.6,0.6-1.7,0.8-2.5,1.2c-1.3,0.7-2.7,1.3-4,2 c-3.9,2.3-5.9,5.6-5.8,10.2c0.2,5.3,0.1,10.5,0.1,15.8c0,4.1,0.1,8.2,0.1,12.6c1.1,0.3,2,0.6,2.8,0.6c11.8,0.1,23.7,0.2,35.5,0.3 c0.7,0,1.4-0.3,2.3-0.5c0.1-1.2,0.4-2.3,0.4-3.4c0.1-8.1-0.1-16.2,0.1-24.3c0.1-4.9-2-8.3-5.9-10.8c-1.6-1-3.3-1.8-5-2.6 c-1.7-0.9-2.6-1.9-2.2-2.8c0.7-1.5,2.1-1.4,3.4-1.4c3,0.1,6,0.1,9,0.2c7.5,0.1,15,0.2,22.5,0.4c4.1,0.1,8.2,0.4,12.1,0.5 c1,1.4,1,2.5-0.2,3.2c-1.1,0.7-2.4,1.1-3.5,1.7c-1.8,1-3.6,2-5.3,3.2c-1.9,1.4-3,3.4-3.1,5.8c-0.1,1.5-0.1,3-0.1,4.5 c0,22.6,0.2,45.2-0.1,67.7c-0.1,7.3,2.8,11.8,9.2,14.5c0.3,0.1,0.7,0.3,1,0.5c1.3,0.6,3.2,0.9,2.7,2.9c-0.5,1.9-2.4,1.4-3.8,1.5 c-13.2,0.2-26.3,0.4-39.5,0.5c-0.9,0-1.9,0.1-2.8-0.2c-0.6-0.2-1.4-0.9-1.4-1.4c-0.1-0.6,0.5-1.5,1-1.8c1.3-0.8,2.8-1.2,4-2.1 c1.9-1.2,3.7-2.6,5.3-4.1c1.7-1.6,2.6-3.7,2.6-6.1c0-10.7,0-21.4,0-32.2c-1-0.3-1.7-0.7-2.4-0.7c-12.2,0-24.4,0-36.7,0 c-0.4,0-0.7,0.2-1.5,0.4c-0.2,0.8-0.6,1.9-0.6,2.9c-0.1,9.4,0,18.8-0.2,28.2c-0.1,5.1,2.1,8.6,6.3,11.1c1.9,1.1,4,2,6,3.2 c0.5,0.3,0.6,1.3,0.6,1.9c0,0.4-0.7,0.9-1.1,1.1c-0.9,0.2-1.8,0.3-2.8,0.3c-13.3,0.3-26.7,0.6-40,0.9c-1.3,0-2.7,0.2-3.5-1.2 c-0.5-0.9,0.5-2,2.5-3.2c2.1-1.2,4.2-2.5,6.1-4c2.8-2.2,4.2-5.2,4.2-8.8c-0.1-3.8,0-7.5,0-11.3c0-20.9-0.2-41.8,0.1-62.7 c0.1-7.1-2.9-11.4-8.7-14.3c-1.2-0.6-2.4-1.1-3.5-1.8c-0.5-0.3-0.6-1.3-0.6-2c0-0.4,0.7-1,1.1-1c1.1-0.2,2.2-0.2,3.4-0.2 c13.3,0.4,26.7,0.8,40,1.2C367,479.3,367.7,479.5,369.3,479.7z"></path> <path style="fill:#FFFFFF;" d="M931.1,581.8c0.1-1.7,0.3-2.8,0.3-3.9c0-8.7-0.2-17.3,0-26c0.1-5.2-2-9.2-6.1-12 c-2.7-1.9-5.8-3.4-8.8-5.1c-2-1.1-2.9-2.1-2.4-3.2c0.7-1.6,2.1-1.4,3.4-1.4c14.1-0.1,28.2-0.1,42.3-0.1c0.6,0,1.2-0.1,1.7,0.1 c0.6,0.3,1.4,0.7,1.6,1.3c0.2,0.6-0.1,1.5-0.5,2c-0.7,0.9-1.6,1.5-2.5,2.3c-4.7,4.3-7.1,9.5-7,16c0.1,10.7-0.1,21.5-0.1,32.2 c0,1.9,0,3.7,0,5.4c-3.6,3.5-7.9,5.1-12.2,6.3c-11.8,3.2-23.8,3.5-35.7,0.6c-12.9-3.1-23.3-10.3-31.3-20.9 c-8-10.5-12.2-22.4-13.3-35.4c-1.4-15.8,1.8-30.7,10.1-44.4c7.9-13,18.9-22.3,33.6-26.8c4.3-1.3,8.8-2,13.3-2.2 c8.9-0.5,17.7,0.2,26.2,2.7c1.6,0.5,3.2,1.2,4.8,1.6c2.8,0.8,3.8,2.6,3.8,5.4c-0.1,7.7,0,15.4,0,23.1c0,0.9,0,1.9-0.2,2.8 c-0.2,0.6-0.8,1.4-1.4,1.5c-0.6,0.1-1.6-0.3-1.9-0.7c-0.9-1.2-1.5-2.6-2.2-3.9c-2.5-4.5-5.7-8.4-9.8-11.5c-10-7.4-22.9-7.8-33.4-1.2 c-4.7,3-8.5,6.9-11.2,11.7c-11.4,20.2-12.8,41-2.6,62.1c2.3,4.8,5.5,9,9.4,12.6C907.9,581.2,918.5,584,931.1,581.8z"></path> <path style="fill:#FFFFFF;" d="M786.3,590c-1.5,0.1-2.8,0.4-4,0.4c-12-0.2-24.1-0.4-36.1-0.6c-1.5,0-3-0.2-4.5-0.4 c-0.4-0.1-1.1-0.7-1.1-1c0-0.7,0.2-1.5,0.6-2c0.7-0.6,1.6-0.9,2.4-1.4c1.5-0.8,3-1.6,4.3-2.6c4-3,6.1-6.8,6.1-12 c-0.1-25.4-0.1-50.8,0-76.2c0-5.1-2.2-8.6-6.2-11.2c-1.6-1-3.4-1.6-5-2.6c-1.1-0.6-2.1-1.5-3.7-2.7c1.9-0.6,3.2-1.3,4.6-1.3 c10.1-0.3,20.3-0.4,30.6-0.7c1.4,1.9,2.9,3.6,4.2,5.4c15.2,20.8,29.7,42.1,43.9,63.6c1.1,1.7,2.3,3.3,3.5,5c1.9-1.1,1.2-2.6,1.2-3.7 c-0.1-14.1-0.2-28.2-0.4-42.3c0-3-0.2-6,0-9c0.3-5.1-2-8.7-6.3-11.1c-2.8-1.5-5.8-2.7-8.7-4c-1.4-0.6-2.9-1-4.1-1.7 c-0.4-0.3-0.6-1.3-0.6-1.9c0-0.4,0.6-0.9,1.1-1.1c0.7-0.2,1.5-0.3,2.2-0.3c13-0.5,25.9-1.1,38.9-1.6c0.9,0,1.9,0.1,2.8,0.3 c1.1,0.2,1.5,2,0.6,2.7c-1,0.8-2.2,1.4-3.3,2.2c-2.1,1.6-4.2,3.1-6.1,5c-2.6,2.6-4,5.9-4,9.6c0,1.5,0,3,0,4.5c0,29.2,0,58.3,0,87.5 c0,2.2-0.1,4.5-0.2,6.8c-3.8,1.5-7.3,0.8-10.8,0.5c-0.6,0-1.3-0.7-1.7-1.3c-0.9-1.2-1.7-2.5-2.6-3.7c-17.6-26.2-35.3-52.5-52.9-78.7 c-1.1-1.6-2-3.5-4.3-5.1c-0.2,1.8-0.3,2.8-0.3,3.8c0.1,20.9,0.2,41.8,0.2,62.7c0,4.6,1.7,8.1,5.4,10.5c2.8,1.8,5.9,3.3,8.9,4.8 c1.5,0.8,3.2,1.2,4.7,1.9c0.4,0.2,0.8,0.8,1,1.2C786.5,588.5,786.3,588.9,786.3,590z"></path> <path style="fill:#FFFFFF;" d="M649.5,610.5c3.4-1,17.7-2.1,23.8-1.8c0.1,1.2,0.3,2.5,0.2,3.7c-0.6,6.3,1.7,11.4,5.9,15.8 c1.8,1.9,3.6,3.8,5.5,5.7c5.1,5.2,9,11.1,11.3,18c0.3,0.9,0.8,1.7,1.2,2.5c0.1,0.1,0.3,0.2,0.3,0.2c2.8-5.3,5.2-10.9,8.5-15.8 c4.2-6.2,9.1-12,13.7-17.9c0.4-0.6,1.2-0.9,1.7-1.3c0.7-4.7,1.3-9.3,2-13.9c4.1-1.1,21.9-2.2,26.5-1.6c-0.1,0.9-0.2,1.8-0.4,2.6 c-1.8,6.9-3.2,13.8-4.5,20.8c-0.9,5-1,10.1-1.4,15.2c-0.8,11.1-1.5,22.1-2.1,33.2c-0.2,3.7,0.1,7.5,0.3,11.2c0.4,5.2,1,10.4,1.5,16 c-4.3,1.6-8.7,1-12.9,1.4c-4.3,0.4-8.5,0.9-13.1,0.6c0.1-1.7,0.2-3,0.4-4.2c0.4-2,0.8-4.1,1.3-6.1c2.3-8.2,3.1-16.6,3.6-25 c0.6-9.4,1.2-18.8,1.7-28.2c0.1-1.2-0.1-2.5-0.1-4.2c-0.9,0.6-1.5,0.8-1.7,1.2c-5.3,7.3-10.7,14.6-15.7,22.1c-3.3,5-6,10.4-8.9,15.7 c-0.6,1.1-1.1,2.4-1.6,3.6c-1.3,3.8-0.7,5.2,2.8,7.5c3.1,2,3.1,2,4.9,5.4c-2.1,2.2-4.4,4.4-6.5,6.8c-1.9,2.3-3.6,4.8-5.5,7.4 c-2.5-1.5-3.1-4.3-4.8-6.2c-1.8-1.9-3.4-4-5.2-6c0.5-2.4,2-4,3.8-5.4c0.9-0.7,1.9-1.3,2.8-2c2.1-1.5,2.7-3.5,1.9-6 c-0.9-2.7-1.7-5.4-3-7.9c-2.6-4.8-5.3-9.5-8.4-14c-3.3-4.8-6.9-9.4-10.5-14c-0.4-0.6-1-1-1.7-1.7c-1.1,2.3-1,4.3-1.1,6.3 c-0.6,7.9-1,15.8-1.5,23.6c-0.1,1.1,0,2.3-0.2,3.4c-1.1,7.9-0.1,15.7,1,23.6c0.3,2.4,0.6,4.8,0.9,7.6c-3.8,1.7-7.8,1.1-11.6,1.4 c-3.7,0.3-7.4,0.8-11.4,0.2c0.4-1.7,0.6-3.2,1-4.6c0.6-2.6,1.2-5.1,2-7.6c2.4-7.4,3.1-15.1,3.6-22.8c0.6-9.8,1.1-19.5,2-29.3 c0.7-8,0-15.8-1.3-23.6c-0.5-3.3-1-6.7-1.5-10C649.2,611.5,649.5,611,649.5,610.5z"></path> <path style="fill:#FFFFFF;" d="M587.3,480.8c18.3,21.9,34.8,45,51.7,68.7c0.5-1.2,0.9-1.8,0.9-2.4c0-16.2-0.2-32.4-0.2-48.5 c0-4.6-1.9-8-5.9-10.1c-2.7-1.4-5.5-2.4-8.3-3.5c-1.6-0.6-3.3-1-4.8-1.7c-0.5-0.2-1.1-1.2-1-1.8c0-0.6,0.7-1.3,1.3-1.6 c0.8-0.3,1.8-0.3,2.8-0.3c12.2-0.4,24.4-0.7,36.6-1.1c1.3,0,2.7-0.1,3.9,0.1c0.6,0.1,1.3,0.9,1.4,1.4c0.1,0.6-0.3,1.5-0.8,1.8 c-1.1,0.8-2.4,1.2-3.5,1.9c-2,1.4-4.1,2.7-5.9,4.3c-2.3,2.1-3.5,4.8-3.5,8c0,1.7,0,3.4,0,5.1c0,26.5,0,53.1,0,79.6 c0,2.2,0.5,4.5-1,6.7c-3.5,0.8-7.1,0.2-10.9,0.2c-20.5-26.9-39.7-54.8-59.9-81.8c-1.9,0.6-1.3,1.9-1.3,2.9c0,16.4,0.1,32.7,0.2,49.1 c0,3,0.1,6,0,9c-0.2,4.4,1.7,7.8,5.4,9.9c3.4,1.9,7.1,3.3,10.7,5c1.2,0.5,2.5,0.9,3.6,1.5c0.3,0.2,0.5,1,0.4,1.5 c-0.1,0.5-0.5,1-1,1.2c-0.7,0.3-1.5,0.4-2.2,0.4c-13.2-0.2-26.3-0.4-39.5-0.6c-1.1,0-2.1-0.4-3.6-0.7c0.4-1.1,0.5-2.1,1.1-2.6 c1-0.8,2.4-1.1,3.5-1.8c1.9-1.2,3.9-2.4,5.6-3.8c2.4-2,3.7-4.7,3.7-7.9c0-1.3,0-2.6,0-4c0-21.6,0-43.3,0-64.9c0-1.1-0.1-2.3,0-3.4 c0.3-4.3-1.9-7.2-5.4-9.2c-2-1.1-4-2-6.1-3c-0.9-0.4-1.7-1-1.5-2.1c0.2-1.4,1.3-1.7,2.5-1.8c1.5-0.1,3-0.1,4.5-0.1 C569.4,480.7,578.1,480.8,587.3,480.8z"></path> <path style="fill:#FFFFFF;" d="M281.3,576.1c0.1-1.2,0.3-2.5,0.3-3.7c0-7-0.2-13.9,0-20.9c0.2-5.7-2.3-9.7-7.1-12.5 c-1.8-1-3.6-1.9-5.5-2.8c-1.2-0.6-2.4-1-3.6-1.6c-0.9-0.4-1.6-1.2-1.2-2.2c0.2-0.6,1-1.1,1.6-1.3c0.9-0.3,1.9-0.2,2.8-0.2 c13.2,0,26.3,0,39.5,0.1c1.1,0,2.3,0,3.4,0.2c0.6,0.1,1.5,0.6,1.7,1.2c0.2,0.5-0.1,1.5-0.5,2c-0.7,0.8-1.7,1.4-2.6,2.1 c-4.7,3.5-7,8-6.9,14c0.2,8.6,0,17.3,0,26c0,1.3,0,2.6,0,3.9c0,1.7-0.8,2.9-2.2,3.6c-2,1-4,2.3-6.1,2.9c-4.6,1.5-9.3,3-14.1,3.9 c-9.5,1.6-19.1,2.3-28.6,0c-18.4-4.3-31.1-15.5-37.8-33.1c-6.7-17.7-6.2-35.5,1.9-52.6c9.9-20.7,26.8-30.8,49.6-30.9 c10.4,0,20.6,1.9,30.4,5.5c1.9,0.7,4,1.1,5.7,3.2c0,1.5,0.1,3.4,0.2,5.2c0,5.3,0,10.5,0,15.8c0,1.1,0.1,2.3-0.2,3.4 c-0.2,0.6-0.9,1.1-1.6,1.3c-0.4,0.1-1.2-0.2-1.4-0.6c-0.9-1.2-1.6-2.5-2.4-3.8c-4.7-7.2-11.1-12.2-19.3-14.8 c-14.6-4.5-28.2,0-35.9,12.6c-11.4,18.6-12.2,38-1.6,57.3c5.2,9.5,13.4,15.6,24.2,17.9C269.5,578.3,276.4,577.9,281.3,576.1z"></path> <path style="fill:#FFFFFF;" d="M553,616.2c5.3-0.4,10-0.9,14.6-1.2c10.1-0.7,20.3-1.2,30.4-2c3.8-0.3,7.5,0.1,11.1,1.3 c9.2,2.9,15.5,11.3,16,21.8c0.7,13.1-4.8,23.3-15.4,30.8c-1.8,1.3-3.8,2.4-5.9,3.7c2.4,5,4.8,9.8,7.1,14.7c2.3,5.2,5.7,9.7,8.8,14.4 c3,4.5,6.1,8.9,9.2,14.1c-10.3,1.2-20,1.6-29.8,2c-0.3-1.2-0.7-2-0.8-2.9c-0.8-6.5-1.5-13.1-2.4-19.6c-0.7-4.9-2.4-9.5-5.5-13.4 c-3.9-5.1-10-5.7-14.9-1.9c-1.9,1.4-3.2,3.2-3.4,5.6c-0.4,3.9-0.9,7.8-0.4,11.8c0.8,6.2,1.2,12.4,1.7,18.5c0.1,0.9,0,1.9,0,3.1 c-1.1,0.3-2.2,0.6-3.2,0.7c-7.1,0.5-14.3,1-21.4,1.4c-0.7,0-1.4-0.2-2.4-0.4c0.1-1.1,0.1-2,0.3-2.9c0.6-2.9,1.2-5.9,1.9-8.8 c2.2-8.2,3.4-16.5,3.9-25c0.7-12.4,1.7-24.8,2.5-37.2c0.2-3.4-0.1-6.8-0.4-10.1C554.2,628.9,553.6,623,553,616.2z M573.5,668.3 c1.1-0.5,2-0.6,2.4-1.1c2.4-3,5.7-4.2,9.3-4.5c0.9-0.1,1.9-0.2,2.8-0.4c5.4-1.2,10.3-3.5,14.2-7.6c7.7-8,6.9-21.6-5.8-26.6 c-6.7-2.6-13.5-2.1-20.3-1.3C574.7,632.7,572.9,661.9,573.5,668.3z"></path> <path style="fill:#FFFFFF;" d="M483.6,710.1c-1.2,4.6-2.2,8.7-3.4,13.1c-0.9,0.1-1.6,0.3-2.3,0.2c-8-1.4-14.4-5.3-18.7-12.4 c-3-4.9-4.7-10.3-5.2-16c-1.6-15.9-0.7-31.6,4.4-46.8c0.4-1.2,0.9-2.5,1.4-3.7c6.2-14.6,17.2-22.8,32.8-25.2c6.7-1,13.4-1.3,20.2,0 c10.1,1.9,17,7.6,20.9,17c1.8,4.4,2.9,9,3.3,13.7c1,12.2,0.6,24.4-2.2,36.5c-1.5,6.6-3.8,13-7.5,18.8c-5.5,8.7-13.4,14.1-23.2,16.8 c-1,0.3-2.1,0.1-3.4,0.2c0.2-4.3,0.3-8.2,0.5-12.2c0.2-0.2,0.3-0.6,0.6-0.8c5.9-3.8,9.3-9.3,11.1-15.8c1.5-5.4,2.6-11,3.4-16.5 c1.1-8.6,1.5-17.2,0.5-25.9c-0.4-3.8-1.2-7.4-2.8-10.9c-2.9-6.3-7.7-9.5-14.7-9.4c-8,0-14.1,3.5-18.2,10.3 c-3.4,5.6-4.9,11.8-5.9,18.1c-1.6,9.7-1.9,19.5-1.4,29.3c0.1,2.4,0.6,4.9,1,7.3C476,701.4,478.3,706.4,483.6,710.1z"></path> <path style="fill:#FFFFFF;" d="M88.9,580.6c1.3,0.3,1.8,0.5,2.3,0.5c6.4-0.2,12.8-0.5,19.2-0.7c6.9-0.2,12.1-3.6,16-9.1 c2.9-4,4.8-8.5,6.6-13c0.6-1.6,1.3-3.1,2.1-4.6c0.2-0.4,1-0.6,1.4-0.5c0.4,0.1,1,0.5,1.2,1c0.3,0.9,0.5,1.8,0.5,2.7 c0,10.7,0,21.4,0,32.2c0,1.3-0.4,2.5-0.7,3.8c-1.4,0.2-2.4,0.5-3.5,0.5c-16,0.8-31.9,1.5-47.9,2.4c-8.6,0.5-17.3,1.1-25.9,1.7 c-1.1,0.1-2.3,0.3-3.4,0.2c-0.8-0.1-2-0.5-2.3-1.1c-0.8-1.2,0.4-2,1.3-2.7c1.4-1,2.8-1.9,4.2-2.9c5-4,7.6-9,7.5-15.6 c-0.2-18.8,0-37.6,0-56.4c0-9.8-0.2-19.6,0.1-29.3c0.2-7.5-2.9-13-8.7-17.3c-1.4-1-2.8-1.9-4.1-3c-0.3-0.3-0.5-1.1-0.3-1.5 c0.1-0.5,0.7-0.9,1.2-1.1c0.7-0.2,1.5-0.2,2.2-0.1c8.8,0.6,17.6,1.3,26.4,2c5.4,0.4,10.9,0.7,16.3,1.2c1.7,0.1,3.3,0.4,5,0.8 c0.4,0.1,0.8,0.8,0.8,1.3c0,0.5-0.3,1.2-0.6,1.4c-1.2,0.6-2.5,0.9-3.6,1.5c-2.7,1.3-5.5,2.5-7.9,4.2c-3.4,2.4-5.3,5.8-5.2,10.1 c0,0.9,0,1.9,0,2.8c0,27.6,0,55.3,0,82.9C88.9,576.6,88.9,578.4,88.9,580.6z"></path> <path style="fill:#FFFFFF;" d="M481.9,492.9c-3,0-5.2,0-7.4,0c-9.3-0.2-16.2,3.9-21.3,11.4c-0.9,1.4-1.8,2.9-2.6,4.4 c-0.6,1.1-1.3,1.8-2.7,1.5c-1.1-0.3-1.2-1.3-1.3-2.3c-0.1-0.7-0.1-1.5,0-2.3c0-6.8,0-13.5,0.1-20.3c0-1.3,0.3-2.5,0.4-3.8 c0.7-0.3,1.2-0.7,1.7-0.7c29.1,0,58.3,0.1,87.4,0.2c0.9,0,1.8,0.4,2.9,0.6c0.2,1,0.5,1.9,0.5,2.8c0,7.5,0,15,0,22.6 c0,0.7,0,1.5-0.2,2.2c-0.2,0.5-0.7,1-1.1,1.1c-0.5,0.1-1.2,0-1.5-0.3c-0.7-0.8-1.3-1.8-1.9-2.7c-2-2.7-3.8-5.6-6.2-8 c-4.1-4.2-9.2-6.3-15.2-6.4c-2.8,0-5.6,0-8.7,0c-0.3,1.3-0.7,2.3-0.7,3.4c-0.1,1.5,0,3,0,4.5c0,21.2,0,42.5,0,63.7 c0,0.8,0.1,1.5,0,2.3c-0.6,5.9,2.2,9.7,7.4,11.9c2.8,1.2,5.6,2.2,8.4,3.3c1.4,0.5,1.4,0.6,1.1,3.2c-0.7,0.1-1.4,0.4-2.1,0.4 c-17.3,0.1-34.6,0.1-51.9,0.1c-0.5,0-1.1-0.3-1.5-0.4c-0.8-1.2-0.7-2.3,0.5-2.9c1.3-0.7,2.8-1,4.2-1.7c2.6-1.2,5.2-2.2,7.6-3.6 c2.9-1.7,4.6-4.4,4.4-8c0-0.9,0-1.9,0-2.8c0-22.4,0-44.7,0-67.1C482.1,497.4,482,495.5,481.9,492.9z"></path> <path style="fill:#FFFFFF;" d="M200.3,590.8c-1.1,0.1-2.4,0.4-3.7,0.5c-12.9,0.4-25.9,0.8-38.8,1.2c-1.1,0-2.3,0-3.4-0.1 c-0.4-0.1-1-0.6-1.1-1.1c-0.2-0.5-0.1-1.2,0.2-1.5c0.6-0.7,1.5-1.1,2.3-1.6c1.7-1.2,3.5-2.2,5.1-3.5c3.5-2.9,5.2-6.6,5.2-11.3 c-0.1-27.1-0.1-54.1,0-81.2c0-5.4-2.4-9.3-6.5-12.4c-1.8-1.3-3.8-2.4-5.7-3.7c-0.5-0.3-0.8-1.4-0.7-1.9c0.2-0.5,1-1.1,1.6-1.2 c1.1-0.2,2.2-0.1,3.4-0.1c12.4,0.5,24.8,1,37.1,1.5c1.8,0.1,3.8-0.2,5.6,1.4c-0.3,0.7-0.5,1.8-1.1,2.2c-1.4,1-3,1.5-4.5,2.4 c-5.1,2.9-7.8,7.1-7.8,13.3c0.1,26.1,0.1,52.2,0,78.3c0,6.1,2.6,10.4,7.7,13.4c1.5,0.9,3,1.5,4.5,2.4 C201,588.4,201.1,589.4,200.3,590.8z"></path> <path style="fill:#FFFFFF;" d="M415.8,727.2c-5.2,1.4-21.8,2.5-27,1.7c0-0.7,0-1.4,0.2-2.1c1.1-4.9,2.3-9.9,3.4-14.8 c0.8-3.7,1.7-7.4,2-11.1c1.2-15.2,2.2-30.4,3.1-45.5c0.3-5.4-0.1-10.9-1.2-16.4c-9-1.7-17.3,2.6-26.4,3.3c1.6-5.5,3.7-10,6.1-14.8 c22.3-1.4,44.5-2.9,67-4.3c1.8,4.6,3.1,9.1,4.2,14c-1.3,0.1-2.3,0.4-3.3,0.3c-2.1-0.1-4.1-0.4-6.2-0.6c-5.6-0.7-11.2-0.8-17.1,0 c-2,5.5-3.5,11.1-3.8,16.8c-1.1,15.4-2,30.8-2.7,46.1c-0.2,4.1,0.3,8.2,0.7,12.4c0.4,4.5,0.9,9,1.4,13.5 C416,726.1,415.9,726.7,415.8,727.2z"></path> <path style="fill:#FFFFFF;" d="M725.7,588.6c-1.5,0.2-2.6,0.5-3.7,0.5c-13.2-0.2-26.3-0.4-39.5-0.7c-1.7,0-4.3,0.7-4.7-1.8 c-0.3-2.1,2.3-2.1,3.6-2.9c1.3-0.8,2.7-1.4,3.9-2.3c3.6-2.5,5.6-5.8,5.5-10.5c-0.2-8.6-0.1-17.3-0.1-26c0-16.2-0.2-32.4,0.1-48.5 c0.1-6.4-2.7-10.3-8-12.9c-1.5-0.8-3.1-1.4-4.5-2.3c-0.4-0.2-0.6-1-0.5-1.5c0.1-0.5,0.6-1,1-1.2c0.7-0.3,1.5-0.3,2.2-0.3 c13.5-0.4,27.1-0.7,40.6-1.1c0.9,0,1.9,0,2.8,0.2c0.4,0.1,1,0.7,1.1,1.1c0.1,0.5-0.1,1.2-0.4,1.5c-0.5,0.5-1.2,0.8-1.9,1.2 c-1.3,0.7-2.7,1.4-4,2.2c-4.6,2.9-7.1,6.8-7,12.6c0.2,12.4,0.1,24.8,0.1,37.2c0,12.2,0.2,24.5-0.1,36.7c-0.1,6.2,2.5,10.4,7.6,13.4 c1.6,1,3.4,1.7,4.9,2.8C725.3,586.4,725.3,587.5,725.7,588.6z"></path> <path style="fill:#FFFFFF;" d="M461.6,812c2.2,0.9,4,0.2,5.8,0c6.7-0.5,13.5-1.3,20.2-1.5c6.4-0.1,12.7,1,18.8,3.2 c2.8,1,5.6,2.3,8.1,3.8c1.6,0.9,2.8,2.4,4,3.8c0.4,0.4,0.5,1.5,0.2,2c-0.3,0.5-1.2,1-1.8,0.9c-1.9-0.3-3.7-0.8-5.5-1.2 c-9.9-2.6-19.9-4-30.1-3.8c-7,0.2-13.8,1.2-20.7,2.4c-2.1,0.4-3.7,1.4-5.3,3c-2.2,2.3-4.6,4.4-7.1,6.4c-2.4,1.9-5.2,3-8.2,3.6 c-2.1,0.4-4.1,0.4-6.1-0.5c-2.3-1-3.4-3-2.8-5.5c0.5-2.3,1.6-4.2,3.1-5.9c2.8-3.2,6.4-5.2,10.3-6.6c1.8-0.6,3.6-1.2,5.3-1.7 c0.4-0.8,0.9-1.4,1.2-2.1c11.1-24.5,21-49.5,27.6-75.6c1.5-6,2.7-12.1,4.1-18.1c0.6-2.4,1.2-4.7,1.9-7.1c0.6-2,1.8-3.7,3.5-5 c3-2.3,6.9-1.2,8.3,2.4c0.8,2.2,0.8,4.4,0.5,6.7c-0.9,6.7-2.6,13.3-4.6,19.7c-5.1,16.2-11.4,31.8-18.1,47.3 c-3.6,8.3-7.3,16.5-10.9,24.7C462.8,808.9,462.3,810.4,461.6,812z M447.6,820.5c-3.3,0.3-5.4,1.7-7.5,3.2c-1.8,1.2-3.8,2.5-3.9,5.4 c0.7,0.1,1.5,0.5,2.1,0.3C442.1,827.6,445,824.9,447.6,820.5z"></path> <path style="fill:#FFFFFF;" d="M570.2,782.6c-0.1,1.9-0.3,3.6-0.2,5.2c0.3,3.2,2,4.6,5.2,4.6c2.9-0.1,5.5-1.2,7.9-2.7 c1.6-1,3.1-2,5-3.3c0.8,1.7,1.5,3.2,2.2,4.8c-6.8,7.2-14.7,10.6-24.3,8.8c-5.1-0.9-8.2-4.4-9.2-9.4c-0.4-2-0.5-4.2-0.1-6.1 c2.1-11.3,7.7-20.2,17.6-26.3c4.4-2.7,9.3-4.1,14.5-3.8c1.7,0.1,3.4,0.4,4.9,1c3.1,1.2,4.7,3.5,4.8,6.9c0,3.3-1,6.2-3.1,8.8 c-2.6,3.3-6,5.7-9.8,7.3c-2.4,1-4.9,1.8-7.4,2.5C575.7,781.6,573.3,782,570.2,782.6z M586.6,761.9c-3.4-1-5.5,0.6-7.3,2.6 c-2.7,2.9-4.5,6.3-5.9,10.6c4.7,0.1,7.8-2.1,10.7-4.7C586.3,768.1,587.5,765.5,586.6,761.9z"></path> <path style="fill:#FFFFFF;" d="M521.8,756.3c2.7-1.7,5.4-2.4,8.3-1.8c2.7,0.5,4,1.8,4.3,4.5c0.1,1.3,0,2.6-0.1,3.9 c-0.4,5.4-0.9,10.9-1.3,16.3c-0.1,2,0,4.1,0,6.6c0.8-0.6,1.5-0.9,1.9-1.4c3.3-4.1,6.5-8.3,8.7-13.1c1.4-3.1,2.6-6.2,2.3-9.8 c-0.1-0.9,0-1.9,0.2-2.8c0.9-4.2,5.1-6.4,9.1-4.9c1.5,0.6,2.6,1.7,2.9,3.2c0.3,1.6,0.4,3.4,0.2,5c-0.5,3.2-1.8,6.2-3.7,8.7 c-3.2,4.4-6.5,8.8-10,12.9c-4,4.7-8.5,9-12.6,13.7c-2.2,2.5-4.7,3.6-7.9,3.1c-0.9-0.1-1.8-0.3-2.7-0.4 C520.5,796.2,520.8,768.9,521.8,756.3z"></path> <path style="fill:#FFFFFF;" d="M452.3,772.5c-8.1,0.8-15.6,0.3-22.9-2.8c-3.5-1.5-6.4-3.9-8.7-7c-2.8-3.8-4.7-8-6.3-12.4 c7.4-4.7,17.5-4.8,25.3-0.3C447.7,754.5,452.6,763,452.3,772.5z"></path> <path style="fill:#FFFFFF;" d="M452.5,776.8c0.3,19.9-22.3,31.5-37.6,22.1c2.1-11.8,10.2-20.2,22.1-22.1c4.6-0.7,9.3-0.4,14-0.5 C451.5,776.3,452,776.6,452.5,776.8z"></path> <path style="fill:#FFFFFF;" d="M500.5,792.2c1.9-0.6,2.9-0.9,3.9-1.2c1.6,2.7,1.7,3.5,0.3,4.7c-3.8,3.4-8.2,5.2-13.4,4.5 c-4-0.5-5.6-2.8-4.3-6.7c2.5-7.5,5.3-14.8,7.9-22.3c1.5-4.2,3.1-8.5,4.6-12.7c1-2.6,2.6-4.5,5.5-5.1c4.3-0.9,7.4,2.2,6.5,6.5 c-0.3,1.3-0.8,2.5-1.2,3.7c-2.8,8-5.6,15.9-8.4,23.9C501.4,788.9,501.1,790.1,500.5,792.2z"></path> <path style="fill:#FFFFFF;" d="M505.5,745.4c0.2-3.6,1.4-6.5,4.7-7.9c2.8-1.2,5.4,0.5,5.5,3.5c0.1,4.1-2,7.4-5.4,8.1 C507.8,749.6,505.4,747.7,505.5,745.4z"></path> </svg> 