<?xml version="1.0" encoding="utf-8"?>
<!-- Generator: Adobe Illustrator 24.1.2, SVG Export Plug-In . SVG Version: 6.00 Build 0)  -->
<svg version="1.1" id="Layer_1" xmlns="http://www.w3.org/2000/svg" xmlns:xlink="http://www.w3.org/1999/xlink" x="0px" y="0px"
	 viewBox="0 0 257 75.1" style="enable-background:new 0 0 257 75.1;" xml:space="preserve">
<style type="text/css">
	.st0{fill:#FFFFFF;}
</style>
<g>
	<path class="st0" d="M24,36.7c1.9,0,3.8,0,5.6,0c0.6-2,1.2-3.9,1.8-5.9c-1.9,0-3.8,0-5.7,0C25.1,32.7,24.5,34.7,24,36.7z"/>
	<g>
		<path class="st0" d="M245.2,10c0.2,0,0.3,0,0.5,0c0.1,0,0.3,0,0.3,0.1c0.1,0,0.2,0.2,0.3,0.3c0.1,0.2,0.2,0.3,0.3,0.5
			c0.2,0.3,0.3,0.7,0.5,1.1c0.5,0,0.9,0,1.4,0c-0.3-0.5-0.5-0.9-0.7-1.4c-0.1-0.3-0.3-0.5-0.5-0.7c-0.2-0.2-0.3-0.2-0.5-0.3
			c0.1,0,0.2,0,0.3-0.1c0.3-0.1,0.5-0.3,0.6-0.5c0.1-0.2,0.2-0.4,0.2-0.6c0-0.2,0-0.4-0.1-0.6c0-0.2-0.2-0.3-0.3-0.4
			c-0.2-0.2-0.5-0.3-0.8-0.4c-0.3,0-0.5,0-0.8,0c-0.6,0-1.3,0-2,0c0,1.7,0,3.4,0,5c0.4-0.1,0.9-0.1,1.3-0.1
			C245.2,11.3,245.2,10.7,245.2,10z M245.7,7.8c0.2,0,0.4,0,0.6,0.1c0.1,0,0.2,0.2,0.3,0.3c0,0.2,0,0.3,0,0.4c0,0.2,0,0.3-0.2,0.3
			c-0.2,0.1-0.3,0.2-0.5,0.2s-0.4,0-0.6,0c-0.1-0.5-0.1-0.9-0.1-1.3C245.4,7.8,245.5,7.8,245.7,7.8z"/>
		<path class="st0" d="M243.1,13.3c0.5,0.3,1.1,0.6,1.7,0.8c0.6,0.2,1.2,0.2,1.8,0.2c0.8-0.1,1.6-0.4,2.3-0.9c0.6-0.4,1-0.9,1.3-1.4
			c0.5-0.8,0.7-1.7,0.6-2.6c0-0.6-0.2-1.4-0.5-2c-0.3-0.6-0.6-1.1-1.1-1.4c-0.6-0.5-1.3-0.9-2-1.1c-0.5-0.1-1-0.2-1.5-0.1
			c-0.8,0-1.4,0.3-2.1,0.6c-0.6,0.4-1.2,0.9-1.7,1.6c-0.4,0.6-0.6,1.4-0.7,2.3c0,0.9,0.2,1.9,0.6,2.6
			C242.2,12.4,242.6,12.9,243.1,13.3z M243,7.1c0.5-0.6,1-1,1.7-1.2c0.3-0.2,0.7-0.2,1.1-0.3c0.5,0,1.1,0,1.5,0.2
			c0.6,0.2,1.2,0.6,1.7,1.1c0.5,0.6,0.8,1.2,0.9,1.9c0.1,0.6,0,1.4-0.2,2c-0.2,0.5-0.5,0.9-0.9,1.3c-0.3,0.3-0.8,0.6-1.2,0.9
			c-0.6,0.3-1.3,0.3-2,0.3c-0.8-0.1-1.5-0.5-2.1-1c-0.5-0.5-0.9-1.1-1.1-1.7c-0.2-0.5-0.2-1.1-0.2-1.6C242.3,8.3,242.5,7.6,243,7.1z
			"/>
		<path class="st0" d="M251.4,19.4c-3.5-1.9-7.5-1-11.2-1.2l-11.3,39.2c4.4-0.2,9,0.6,13.3-0.8c4.8-1.6,8.6-5.8,9.8-10.7
			c1.4-5.5,3.1-10.8,4.4-16.3v-2.9C255.9,23.6,254.1,20.8,251.4,19.4z"/>
		<path class="st0" d="M240.2,18.1c-0.3-3.7-1.6-7.6-4.2-10.4c-2.9-3.2-6.9-4.9-11.1-5.5h-64.1c-9.4,1.1-17.9,7.4-21.9,15.9
			c-40.1,0-80.2,0-120.3,0c-6.5,0-12.4,5.2-13.7,11.5c-1.4,5.6-3,11-4.2,16.7v2.8c0.3,2.1,1.2,4.2,2.7,5.6c2,2,4.9,2.7,7.8,2.7
			c38.9,0,77.7,0,116.6,0c0.2,3.9,1.7,7.6,4.3,10.4c2.7,2.9,6.7,4.6,10.7,5.1h63.3c9.6-0.8,18.4-7.1,22.8-15.6L240.2,18.1z M28,42.5
			c-2,0.2-4,0-5.9,0c-0.6,1.9-1.2,3.9-1.8,5.8c-2,0-4,0-6,0c2.4-7.8,4.9-15.6,7.3-23.4c4.1,0,8.1,0,12.2,0c2.3,0,4.1,2.2,3.8,4.4
			c-0.3,2.5-1.4,4.7-2,7.1C34.7,39.8,31.5,42.4,28,42.5z M34.4,48.3c2.4-7.8,4.9-15.6,7.3-23.4c2,0,4,0,6.1,0
			c-1.8,5.9-3.7,11.7-5.5,17.6c1.9,0,3.8,0,5.6,0c0.6-2,1.2-4,1.8-5.9c2,0,4,0,6,0c-1.2,3.9-2.4,7.9-3.7,11.8
			C46.1,48.3,40.3,48.3,34.4,48.3z M77.5,31c-1.8,5.8-3.7,11.6-5.5,17.4c-2,0-4,0-6,0c0.6-1.9,1.2-3.9,1.8-5.8c-1.9,0-3.8,0-5.6,0
			c-0.6,1.9-1.2,3.9-1.8,5.8c-2,0-4,0-6,0c1.8-5.7,3.6-11.4,5.4-17.1c1-3.5,4.4-6.3,8.1-6.3c2.1,0,4.3-0.1,6.5,0.1
			C77.1,25.3,78.6,28.5,77.5,31z M96.2,36.5c-1.1,3.4-4.3,5.7-7.8,6.1c-0.6,1.9-1.2,3.8-1.8,5.7c-2,0-4,0-6,0
			c0.6-1.9,1.2-3.8,1.8-5.7c-1.2-0.3-2.7-0.6-3.5-1.8c-1-1.4-0.8-3.2-0.3-4.8c1.2-3.7,2.3-7.4,3.5-11.2c2,0,4,0,6.1,0
			c-1.2,3.9-2.5,7.8-3.7,11.8c1.8,0,3.8,0,5.6,0c1.2-3.9,2.4-7.9,3.7-11.8c2,0,4,0,6,0C98.7,28.8,97.5,32.7,96.2,36.5z M103.1,25.5
			c2.6,0,5.2,0,7.8,0c-0.8,2.3-1.6,4.6-2.3,6.9c-2.6,0-5.2,0-7.8,0C101.6,30.1,102.3,27.8,103.1,25.5z M124.9,38.4
			c-0.9,3.3-2,6.6-2.9,10c-2,0-4,0-6,0c1-3.6,2.1-7.1,3.1-10.6c-1.9,0-3.8,0-5.6,0c-1.1,3.5-2,7.1-3.1,10.6c-2,0-4,0-6,0
			c1-3.4,2-6.8,2.9-10.2c0.9-3.6,4.4-6.3,8.1-6.3c2,0,4.1-0.1,6.1,0c1.4,0.1,2.7,0.8,3.3,2C125.6,35.3,125.3,36.9,124.9,38.4z
			 M159.9,66.6c-5.2,0.1-10.4,0-15.5,0c-3.4,0-6.9-1.4-8.9-4.4c-2-2.9-2-6.8-0.9-10.1c2.9-9.3,5.8-18.5,8.7-27.9
			c2.4-9.1,11.5-16.3,21.1-15.8c8.6,0,17.2,0,25.8,0c-1.4,4.8-3,9.6-4.5,14.4c-9,0-18.2,0-27.2,0c-3.1,9.8-6.2,19.6-9.2,29.3
			c4.8,0,9.5,0,14.3,0c0.8-2.5,1.5-5,2.3-7.5c-2.4,0-4.9,0-7.2,0c1.4-4.8,3-9.5,4.4-14.3c7,0,13.9,0,20.9,0
			c-2.3,7.4-4.6,14.8-7,22.2C174.6,59.9,167.8,66.1,159.9,66.6z M203.3,66.7c-4.3,0-8.7,0.1-13-0.1c-3.3-0.2-6.6-1.7-8.4-4.4
			c-2-3-2.2-6.9-1.2-10.3c3-9.5,6-19,8.9-28.6c2.1-7.5,8.7-13.5,16.2-15.3c4.6-0.8,9.2-0.2,13.8-0.3c3.5-0.1,7.5-0.2,10.4,2.3
			c4,2.7,4.9,7.9,3.6,12.1c-2.9,9.5-5.9,19-8.9,28.5C222.1,59.9,213,67,203.3,66.7z"/>
		<path class="st0" d="M196,52.2c4.4,0,8.8,0,13.2,0c3.1-9.7,6.1-19.4,9.1-29.2c-4.4,0-8.8,0-13.2,0C202.1,32.8,199,42.5,196,52.2z"
			/>
		<path class="st0" d="M64.1,36.7c1.8,0,3.8,0,5.6,0c0.6-2,1.2-3.9,1.8-5.9c-1.8,0-3.8,0-5.6,0C65.3,32.7,64.7,34.7,64.1,36.7z"/>
	</g>
</g>
</svg>
