<?xml version="1.0" encoding="UTF-8"?>
<svg id="Layer_1" xmlns="http://www.w3.org/2000/svg" xmlns:xlink="http://www.w3.org/1999/xlink" version="1.1" viewBox="0 0 891 202">
  <!-- Generator: Adobe Illustrator 29.2.1, SVG Export Plug-In . SVG Version: 2.1.0 Build 116)  -->
  <defs>
    <style>
      .st0 {
        fill: #fff;
      }

      .st1 {
        fill: #fcd500;
      }
    </style>
  </defs>
  <path class="st1" d="M872.7,90.4c-.5-1.6-1.9-2.8-3.7-3.1l-17.1-2.5-7.6-16.2c-.7-1.6-2.3-2.6-4.2-2.6s-3.3,1-4.2,2.6l-7.6,16.2-17.2,2.5c-1.6.2-3.1,1.4-3.7,3.1-.5,1.6,0,3.6,1.1,4.8l12.4,12.8-2.8,17.9c-.2,1.7.4,3.6,1.9,4.7,1.4,1,3.2,1.1,4.8.2l15.1-8.5,15.4,8.5c1.5.9,3.2.7,4.8-.2,1.5-1,2.1-2.7,1.9-4.7l-3-17.9,12.4-12.7c1.2-1.4,1.7-3.2,1.1-4.9h.2Z"/>
  <path class="st1" d="M83.7,90.4c-.5-1.6-1.9-2.8-3.7-3.1l-17.1-2.5-7.6-16.2c-.7-1.6-2.3-2.6-4.2-2.6s-3.3,1-4.2,2.6l-7.6,16.2-17.2,2.5c-1.6.2-3.1,1.4-3.7,3.1-.5,1.6,0,3.6,1.1,4.8l12.4,12.8-2.8,17.9c-.2,1.7.4,3.6,1.9,4.7,1.4,1,3.2,1.1,4.8.2l15.1-8.5,15.4,8.5c1.5.9,3.2.7,4.8-.2,1.5-1,2.1-2.7,1.9-4.7l-3-17.9,12.4-12.7c1.2-1.4,1.7-3.2,1.1-4.9h.2Z"/>
  <g>
    <path class="st0" d="M93.2,158.1l15.6-109.8h54l-3.9,26.6h-29l-2,14.7h24l-3.8,26h-24l-2.3,15.8h29l-3.9,26.6h-53.9Z"/>
    <path class="st0" d="M155.7,158.1l15.6-109.8h26.2l8.3,42.4h.8l6.1-42.4h23.4l-15.8,109.8h-23.6l-9.6-51.2h-.6l-7.4,51.2h-23.3Z"/>
    <path class="st0" d="M256.9,158.1l15.6-109.8h25.1l-15.8,109.8h-25ZM277.8,37.8l2.9-19.8h17.6l-2.9,19.8h-17.6Z"/>
    <path class="st0" d="M308.8,158.1l5.1-35.4-12.6-74.4h25l4.3,40.8h.8l16.1-40.8h25.5l-33.9,74.4-5.1,35.4h-25.1Z"/>
    <path class="st0" d="M361.3,158.1l15.6-109.8h25.1l-15.8,109.8h-25ZM382.2,37.8l2.9-19.8h17.6l-2.9,19.8h-17.6Z"/>
    <path class="st0" d="M436.2,158.1l11.7-81.7h-18l4.1-28.1h61.2l-4.1,28.1h-18.1l-11.7,81.7h-25.1Z"/>
    <path class="st0" d="M517.6,159.4c-7.6,0-13.7-.8-18.1-2.4-4.4-1.6-7.5-4.2-9.3-7.7-1.8-3.6-2.7-8.4-2.7-14.4s.4-8.8,1.1-14.3c.7-5.5,1.5-11.8,2.5-18.9,1.1-8.8,2.2-16.4,3.3-22.7,1-6.3,2.3-11.5,3.9-15.6,1.6-4.1,3.6-7.3,6.2-9.7,2.5-2.4,5.8-4.1,9.9-5,4.1-1,9.2-1.4,15.3-1.4s13.6.8,17.9,2.4c4.3,1.6,7.3,4.2,9.1,7.7,1.8,3.6,2.7,8.4,2.7,14.6s-.3,8.9-.9,14.4c-.6,5.4-1.4,11.6-2.5,18.7-1.4,8.9-2.6,16.6-3.8,22.9-1.1,6.3-2.5,11.5-4,15.6-1.5,4.1-3.5,7.3-5.9,9.7-2.5,2.3-5.7,4-9.6,4.9-4,1-9,1.4-15.1,1.4ZM519.2,132.7c1.5,0,2.8-.1,3.8-.3,1-.2,1.8-.8,2.5-1.8.7-1,1.3-2.5,1.8-4.5.5-2.1,1.1-5,1.7-8.7.6-3.7,1.3-8.5,2.1-14.2.9-6.1,1.5-11,2-14.8.5-3.8.7-6.8.7-8.8s-.2-3.3-.6-4.1c-.4-.9-1.1-1.4-2-1.5-.9-.2-2.1-.2-3.5-.2s-2.7.1-3.7.3c-1,.2-1.8.8-2.5,1.8-.7,1-1.3,2.5-1.8,4.5-.5,2.1-1.1,5-1.7,8.7-.6,3.7-1.3,8.5-2,14.2-.6,4.1-1.1,7.8-1.6,10.9-.5,3.1-.8,5.7-1,7.8-.2,2.1-.3,3.9-.3,5.3s.2,3.1.6,3.9c.4.8,1.1,1.3,2,1.4.9.2,2.1.2,3.5.2Z"/>
    <path class="st0" d="M557.3,158.1l15.6-109.8h35.7c5.4,0,9.5.8,12.5,2.4,3,1.6,5.1,4,6.3,7.2,1.2,3.2,1.8,7.2,1.8,12.1s-.1,5.3-.4,8.4c-.3,3-.7,6.3-1.2,9.8-.9,5.5-1.8,10.6-2.8,15.1-1,4.5-2.5,8.4-4.4,11.6-1.9,3.2-4.5,5.6-7.7,7.3-3.3,1.7-7.5,2.6-12.8,2.6h-12.8l-4.8,33.3h-25ZM590.7,98.7h3.3c1.6,0,2.8-.1,3.8-.3,1-.2,1.7-.7,2.3-1.5.6-.8,1-2,1.4-3.6.4-1.6.8-3.8,1.2-6.7.2-1.8.4-3.4.5-4.6.1-1.3.2-2.3.2-3.2,0-1.4-.2-2.4-.6-3-.4-.6-1-1-1.9-1.2s-2-.2-3.4-.2h-3.3l-3.5,24.4Z"/>
    <path class="st0" d="M675.4,159.4c-2.6,0-5.4-.2-8.5-.5-3.1-.3-6.1-.8-9-1.4-2.9-.6-5.6-1.2-7.9-1.8l3.4-24.9c2.6.3,5.2.6,7.9,1,2.7.3,5.3.6,7.8.7,2.5.2,4.6.2,6.4.2s4.3-.1,5.5-.4c1.2-.3,2.2-1,2.7-2.1.6-1.1,1-3,1.4-5.5.1-1,.2-1.9.3-2.7,0-.9.1-1.5.1-2.1,0-2-.4-3.2-1.3-3.7-.9-.4-2.4-.6-4.6-.6h-11.5l3.8-26h11.5c2,0,3.5-.2,4.4-.6.9-.4,1.6-1.1,1.9-2.3.4-1.2.7-2.9,1-5.3.1-.9.2-1.6.3-2.3,0-.7.1-1.3.1-1.8,0-1.2-.3-2-.8-2.6-.5-.5-1.3-.9-2.5-1-1.2-.1-2.8-.2-5-.2s-4.4.1-7,.3c-2.6.2-5.1.5-7.6.7-2.5.3-4.8.6-6.8,1l3.5-25.1c2.3-.7,4.9-1.4,7.7-1.9,2.9-.5,5.7-1,8.6-1.3,2.9-.3,5.5-.5,7.8-.5,6.6,0,12,.9,16.1,2.6,4.1,1.7,7.1,4.2,9,7.5,1.9,3.3,2.8,7.4,2.8,12.3s-.1,4.7-.4,7c-.3,2.3-.6,4.4-.9,6.2-1.2,5.9-3.2,10.2-6.1,13.1-2.8,2.9-6.1,4.9-9.7,6.1v.6c3.3,1.4,5.8,3.3,7.5,5.8,1.7,2.5,2.6,6.6,2.6,12.2s0,2.9-.2,4.5c-.1,1.6-.3,3.3-.6,5.1-.6,4.6-1.6,8.7-2.8,12.3-1.2,3.6-3,6.7-5.5,9.3-2.4,2.6-5.7,4.5-9.9,5.8-4.1,1.3-9.5,2-16,2Z"/>
    <path class="st0" d="M745.9,159.4c-6.6,0-11.9-.5-15.9-1.6-3.9-1.1-6.8-3.2-8.5-6.5-1.7-3.3-2.6-8.2-2.6-14.8s.3-8.9.9-14.6c.6-5.7,1.4-12.3,2.5-19.9,1.4-10.2,2.8-18.7,4.1-25.4s2.8-12,4.4-16c1.6-3.9,3.7-6.9,6.1-8.9,2.4-2,5.5-3.2,9.2-3.8,3.7-.6,8.2-.9,13.7-.9s9.3.3,12.8.9c3.4.6,6.2,1.7,8.3,3.2,2.1,1.5,3.6,3.8,4.6,6.9.9,3,1.4,7,1.4,12s-.3,8.9-.9,14.6c-.6,5.7-1.4,12.3-2.4,19.9-1.4,10.2-2.7,18.7-4,25.4s-2.8,12-4.4,16c-1.6,3.9-3.7,6.9-6.2,8.9-2.5,2-5.6,3.2-9.3,3.8-3.7.6-8.3.9-13.7.9ZM748.6,132.7c1.1,0,2.1-.1,2.8-.3.7-.2,1.3-.8,1.9-1.8.5-1,1-2.5,1.5-4.5.5-2.1,1-5,1.6-8.7.6-3.7,1.3-8.5,2.1-14.2,1-6.7,1.7-12,2.2-15.9.5-3.9.7-6.8.7-8.9s-.1-2.7-.4-3.4c-.3-.6-.8-1-1.4-1.2-.6-.2-1.5-.2-2.5-.2s-2.1.1-2.8.3c-.7.2-1.3.8-1.9,1.8s-1,2.5-1.5,4.5c-.5,2.1-1,5-1.6,8.7-.6,3.7-1.3,8.5-2,14.2-.6,4.5-1.2,8.3-1.6,11.6-.4,3.2-.8,5.9-1,8.1-.3,2.1-.4,3.9-.4,5.3s.1,2.6.4,3.2c.3.6.8,1,1.4,1.2.6.2,1.5.2,2.5.2Z"/>
  </g>
</svg>