<?xml version="1.0" encoding="UTF-8"?>
<svg id="Layer_1" xmlns="http://www.w3.org/2000/svg" xmlns:xlink="http://www.w3.org/1999/xlink" version="1.1" viewBox="0 0 1457 202">
  <!-- Generator: Adobe Illustrator 29.2.1, SVG Export Plug-In . SVG Version: 2.1.0 Build 116)  -->
  <path d="M1429.2,84.6c-.5-1.6-1.9-2.8-3.7-3.1l-17.1-2.5-7.6-16.2c-.7-1.6-2.3-2.6-4.2-2.6s-3.3,1-4.2,2.6l-7.6,16.2-17.2,2.5c-1.6.2-3.1,1.4-3.7,3.1-.5,1.6,0,3.6,1.1,4.8l12.4,12.8-2.8,17.9c-.2,1.7.4,3.6,1.9,4.7,1.4,1,3.2,1.1,4.8.2l15.1-8.5,15.4,8.5c1.5.9,3.2.7,4.8-.2,1.5-1,2.1-2.7,1.9-4.7l-3-17.9,12.4-12.7c1.2-1.4,1.7-3.2,1.1-4.9h.2,0Z" style="fill: #fcd500;"/>
  <path d="M93.2,84.6c-.5-1.6-1.9-2.8-3.7-3.1l-17.1-2.5-7.6-16.2c-.7-1.6-2.3-2.6-4.2-2.6s-3.3,1-4.2,2.6l-7.6,16.2-17.2,2.5c-1.6.2-3.1,1.4-3.7,3.1-.5,1.6,0,3.6,1.1,4.8l12.4,12.8-2.8,17.9c-.2,1.7.4,3.6,1.9,4.7,1.4,1,3.2,1.1,4.8.2l15.1-8.5,15.4,8.5c1.5.9,3.2.7,4.8-.2,1.5-1,2.1-2.7,1.9-4.7l-3-17.9,12.4-12.7c1.2-1.4,1.7-3.2,1.1-4.9,0,0,.2,0,.2,0Z" style="fill: #fcd500;"/>
  <g>
    <path d="M119.6,160.5l13.4-91.7h-21.3l4-27.3h67.3l-4,27.3h-21.4l-13.4,91.7h-24.6Z" style="fill: #fff;"/>
    <path d="M210.5,161.9c-8.4,0-15-.8-19.9-2.5-4.8-1.7-8.2-4.5-10.2-8.4-1.9-3.9-2.9-9.2-2.9-15.9s.4-9.5,1.1-15.3c.8-5.8,1.6-12.5,2.7-20.2,1.3-9.7,2.5-18,3.7-24.9,1.2-6.9,2.7-12.6,4.4-17.1,1.7-4.5,4-8,6.8-10.6,2.8-2.5,6.5-4.3,10.9-5.4,4.5-1,10.1-1.6,16.9-1.6s15,.8,19.7,2.5c4.7,1.7,8.1,4.5,10,8.4,2,3.9,3,9.3,3,16.1s-.3,9.6-1,15.4c-.7,5.8-1.6,12.4-2.8,19.9-1.5,9.8-2.9,18.2-4.2,25.1-1.3,6.9-2.8,12.6-4.5,17-1.7,4.4-3.9,7.9-6.7,10.5-2.7,2.5-6.3,4.3-10.6,5.4-4.4,1-9.9,1.6-16.6,1.6ZM212,135.9c2.2,0,4.1-.1,5.5-.4,1.5-.3,2.7-1,3.7-2.1,1-1.1,1.9-2.9,2.6-5.4.8-2.5,1.5-5.9,2.2-10.3.7-4.4,1.6-10,2.6-16.8,1-6.7,1.8-12.2,2.3-16.5s.8-7.8.8-10.3-.3-4.6-1-5.7c-.7-1.2-1.7-1.8-3.1-2.1-1.4-.2-3.2-.3-5.4-.3s-4.1.1-5.5.4c-1.5.3-2.7,1-3.7,2.1-1,1.1-1.9,2.9-2.6,5.4-.8,2.5-1.5,5.9-2.2,10.3-.7,4.4-1.5,10-2.5,16.8-.6,4.6-1.2,8.6-1.7,12.1s-.9,6.4-1.2,8.8c-.3,2.4-.4,4.5-.4,6.2s.3,4.2,1,5.4c.7,1.2,1.7,1.8,3.1,2.1,1.4.2,3.2.3,5.5.3Z" style="fill: #fff;"/>
    <path d="M258,160.5l17.4-119h38.9c5.9,0,10.5.9,13.8,2.7,3.2,1.8,5.5,4.4,6.9,8,1.3,3.5,2,7.9,2,13.2s-.2,5.5-.5,8.6c-.3,3.1-.7,6.4-1.2,9.9-1,5.8-2,11.1-3.2,15.9-1.1,4.8-2.8,9-4.8,12.5-2.1,3.5-4.9,6.1-8.4,8-3.6,1.8-8.2,2.8-14,2.8h-16.9l-5.6,37.5h-24.4ZM291.7,97.5h7.4c2.2,0,4-.2,5.4-.6,1.3-.4,2.4-1.1,3.2-2.2.8-1,1.4-2.6,1.9-4.6.5-2,1-4.6,1.4-7.9.2-2.1.5-3.9.7-5.4.2-1.5.3-2.8.3-3.8,0-1.7-.3-3.1-.8-4-.6-.9-1.4-1.5-2.6-1.8-1.2-.3-2.8-.4-4.8-.4h-7.5l-4.5,30.6Z" style="fill: #fff;"/>
    <path d="M391.3,161.9c-2.9,0-6-.2-9.3-.5-3.4-.3-6.7-.8-9.9-1.4s-6.1-1.2-8.6-1.9l3.3-24.2c2.9.3,5.8.7,8.8,1,3,.3,5.9.6,8.7.8,2.8.2,5.2.3,7.1.3,3.2,0,5.6-.2,7.4-.6,1.7-.4,3.1-1.4,4-2.9.9-1.5,1.6-4,2.2-7.4.2-1.2.3-2.2.4-3.2,0-1,.1-1.8.1-2.5,0-2.7-.6-4.4-1.8-5.1-1.2-.7-3.3-1.1-6.1-1.1h-13.3l3.8-25.4h13.3c2.2,0,4-.3,5.3-.8,1.3-.5,2.3-1.5,3-3,.7-1.5,1.2-3.7,1.7-6.6.2-1,.3-2,.4-2.9,0-.9.1-1.8.1-2.7,0-1.7-.4-3-1.1-3.8-.7-.8-1.9-1.3-3.5-1.6-1.6-.2-3.9-.3-6.7-.3s-4.9.1-7.7.3c-2.9.2-5.6.5-8.4.9-2.7.3-5.2.8-7.4,1.2l3.4-24.6c2.5-.8,5.2-1.5,8.3-2,3.1-.5,6.2-1,9.3-1.3,3.1-.3,6-.5,8.5-.5,7.4,0,13.3.9,17.8,2.8,4.5,1.8,7.7,4.6,9.8,8.2,2.1,3.6,3.1,8.1,3.1,13.4s-.1,5-.4,7.4c-.3,2.4-.6,4.6-1,6.6-1.3,6.3-3.5,11.1-6.7,14.4-3.2,3.2-6.8,5.4-10.9,6.6v.7c3.6,1.4,6.4,3.5,8.4,6.2,1.9,2.8,2.9,7.3,2.9,13.5s0,3.1-.2,4.8-.3,3.6-.7,5.5c-.6,4.8-1.6,9.2-3,13.1-1.3,3.9-3.3,7.3-6,10-2.7,2.8-6.3,4.9-10.8,6.3-4.6,1.4-10.4,2.2-17.5,2.2Z" style="fill: #fff;"/>
    <path d="M471.1,161.9c-7.4,0-13.2-.6-17.6-1.8-4.4-1.2-7.5-3.6-9.3-7.2-1.9-3.6-2.8-8.9-2.8-15.9s.3-9.6,1-15.7c.6-6.1,1.5-13.3,2.7-21.5,1.6-10.8,3.1-19.9,4.5-27.2,1.4-7.3,3-13.1,4.8-17.4,1.8-4.3,4-7.6,6.7-9.8,2.7-2.2,6.1-3.6,10.2-4.3,4.1-.7,9.1-1,15.2-1s10.2.3,14,1c3.8.6,6.9,1.8,9.2,3.5,2.3,1.7,4,4.2,5,7.5,1,3.3,1.5,7.6,1.5,13.1s-.3,9.5-1,15.6c-.7,6.1-1.6,13.3-2.7,21.5-1.5,10.8-3,19.9-4.4,27.2-1.4,7.3-3,13.1-4.8,17.4-1.8,4.3-4,7.6-6.7,9.8-2.7,2.2-6.1,3.6-10.2,4.3-4.1.7-9.1,1-15.2,1ZM473.6,135.9c1.7,0,3.2-.1,4.4-.4,1.2-.3,2.2-1,3-2.1.8-1.1,1.6-2.9,2.2-5.4.6-2.5,1.3-5.9,2-10.3.7-4.4,1.6-10,2.6-16.8,1.1-7.4,1.9-13.3,2.5-17.7.6-4.4.8-7.9.8-10.3s-.3-3.9-.8-4.8c-.5-.9-1.3-1.5-2.4-1.7-1.1-.2-2.5-.3-4.3-.3s-3.3.1-4.5.4c-1.1.3-2.1,1-3,2.1-.8,1.1-1.6,2.9-2.2,5.4-.6,2.5-1.3,5.9-2,10.3-.7,4.4-1.5,10-2.5,16.8-.7,5-1.3,9.3-1.8,12.9-.5,3.6-.9,6.7-1.2,9.2-.3,2.5-.4,4.5-.4,6.1s.3,3.7.8,4.7c.5.9,1.3,1.5,2.4,1.7,1.1.2,2.5.3,4.3.3Z" style="fill: #fff;"/>
    <path d="M580.9,161.9c-6.8,0-12.4-.9-16.9-2.6-4.4-1.7-7.7-4.7-9.9-8.8-2.2-4.2-3.3-9.8-3.3-17s.3-8.9.8-14.3c.5-5.4,1.3-11.4,2.4-18.3,1.7-10.4,3.3-19.1,4.8-26.3,1.5-7.1,3.3-13,5.2-17.6,1.9-4.6,4.3-8.1,7.2-10.6,2.9-2.5,6.4-4.2,10.7-5.1,4.3-.9,9.5-1.4,15.7-1.4s5.1.1,7.8.4c2.7.3,5.4.6,7.8,1,2.5.4,4.6,1,6.4,1.6l-3.6,24.4c-2.9-.3-5.4-.6-7.4-.9-2-.2-3.6-.4-4.9-.5-1.3-.1-2.4-.2-3.4-.2-3.2,0-5.8.1-8,.4-2.1.3-3.9,1-5.3,2.2-1.4,1.2-2.5,3.1-3.4,5.5-.9,2.5-1.7,5.9-2.5,10.2-.8,4.3-1.7,9.8-2.6,16.5-.8,5.7-1.4,10.6-2,14.7-.5,4.2-.8,7.3-.8,9.3,0,3.2.5,5.6,1.4,7.2.9,1.6,2.4,2.6,4.5,3,2.1.5,4.9.7,8.5.7s5.1-.1,8.3-.4c3.1-.3,5.9-.7,8.3-1.1l-3.6,24.9c-1.8.5-4,.9-6.5,1.3-2.5.4-5.2.7-7.9,1-2.7.2-5.4.3-7.9.3Z" style="fill: #fff;"/>
    <path d="M607.1,160.5l42.1-119h33.8l7.1,119h-23.7l-1.2-20.6h-26.6l-7,20.6h-24.5ZM646.6,115h18l-2-44.1h-1l-15,44.1Z" style="fill: #fff;"/>
    <path d="M697.5,160.5l17.4-119h25.6l13.2,54.8h.8l8.2-54.8h22.9l-17.5,119h-23.1l-14.6-63h-.8l-9.3,63h-22.8Z" style="fill: #fff;"/>
    <path d="M782.4,160.5l17.4-119h24.5l-13.3,91.7h29.8l-4,27.3h-54.3Z" style="fill: #fff;"/>
    <path d="M845.4,160.5l17.4-119h24.5l-17.5,119h-24.4Z" style="fill: #fff;"/>
    <path d="M948.7,161.9c-6.8,0-12.4-.9-16.9-2.6-4.4-1.7-7.7-4.7-9.9-8.8-2.2-4.2-3.3-9.8-3.3-17s.3-8.9.8-14.3c.5-5.4,1.3-11.4,2.4-18.3,1.7-10.4,3.3-19.1,4.8-26.3,1.5-7.1,3.3-13,5.2-17.6,1.9-4.6,4.3-8.1,7.2-10.6,2.9-2.5,6.4-4.2,10.7-5.1,4.3-.9,9.5-1.4,15.7-1.4s5.1.1,7.8.4c2.7.3,5.4.6,7.8,1,2.5.4,4.6,1,6.4,1.6l-3.6,24.4c-2.9-.3-5.4-.6-7.4-.9-2-.2-3.6-.4-4.9-.5-1.3-.1-2.4-.2-3.4-.2-3.2,0-5.8.1-8,.4-2.1.3-3.9,1-5.3,2.2-1.4,1.2-2.5,3.1-3.4,5.5-.9,2.5-1.7,5.9-2.5,10.2-.8,4.3-1.7,9.8-2.6,16.5-.8,5.7-1.4,10.6-2,14.7-.5,4.2-.8,7.3-.8,9.3,0,3.2.5,5.6,1.4,7.2.9,1.6,2.4,2.6,4.5,3,2.1.5,4.9.7,8.5.7s5.1-.1,8.3-.4c3.1-.3,5.9-.7,8.3-1.1l-3.6,24.9c-1.8.5-4,.9-6.5,1.3-2.5.4-5.2.7-7.9,1-2.7.2-5.4.3-7.9.3Z" style="fill: #fff;"/>
    <path d="M974.9,160.5l42.1-119h33.8l7.1,119h-23.7l-1.2-20.6h-26.6l-7,20.6h-24.5ZM1014.3,115h18l-2-44.1h-1l-15,44.1Z" style="fill: #fff;"/>
    <path d="M1097.3,161.9c-3.4,0-7.1-.1-10.9-.4-3.9-.3-7.6-.6-11.2-1-3.6-.4-6.7-.9-9.3-1.5l3.4-24.9c2.9.3,5.7.7,8.6,1,2.9.3,5.6.5,8.2.7,2.6.2,4.8.3,6.7.3s4.1,0,5.6-.2c1.5-.1,2.8-.3,3.8-.6,1-.3,1.8-.7,2.4-1.1.4-.3.8-.9,1.1-1.6.4-.7.7-1.5,1-2.3.3-.9.5-1.8.7-2.9.2-1,.3-2,.4-3,0-1,.1-1.9.1-2.9s-.2-2.2-.5-2.9c-.4-.6-1.2-1.2-2.6-1.6-1.4-.5-3.6-1-6.6-1.7l-14.9-3.5c-3.6-.9-6.2-3-7.5-6.1-1.4-3.2-2.1-7.5-2.1-12.9s.1-5.5.4-8.6c.2-3.1.6-6.3,1.1-9.6,1.2-7.5,2.8-13.5,4.9-18.1,2.1-4.6,4.7-8,7.7-10.4,3-2.4,6.6-3.9,10.7-4.8,4.1-.8,8.6-1.2,13.5-1.2s6.9.1,10.3.4c3.5.3,6.8.7,9.9,1.2,3.1.5,5.6,1.1,7.6,1.8l-3.6,24.6c-2-.3-4.3-.7-7.1-1-2.7-.3-5.5-.6-8.4-.8s-5.5-.3-8.1-.3-3.4,0-4.6.3c-1.3.2-2.3.4-3.2.7-.9.3-1.6.7-2.3,1.3-.6.6-1.1,1.3-1.5,2.1-.4.8-.8,1.7-1,2.8-.2,1-.4,2.1-.5,3.2-.1,1.1-.2,2.2-.2,3.4,0,1.7.5,2.9,1.4,3.4,1,.5,2.6,1.1,5,1.6l13.8,3.1c2.5.5,4.8,1.3,6.9,2.5,2.1,1.2,3.9,3.2,5.2,6.1,1.3,2.8,2,7.1,2,12.9s0,2.9-.1,4.5c0,1.6-.2,3.3-.4,5.2-.2,1.8-.5,3.9-.8,6.1-1.3,8.3-2.9,14.9-5,19.9-2.1,5-4.5,8.6-7.4,11.1-2.9,2.4-6.2,4-10,4.8-3.8.7-8.1,1.1-12.8,1.1Z" style="fill: #fff;"/>
    <path d="M1138.7,160.5l17.4-119h24.5l-17.5,119h-24.4Z" style="fill: #fff;"/>
    <path d="M1177.5,160.5l17.4-119h25.6l13.2,54.8h.8l8.2-54.8h22.9l-17.5,119h-23.1l-14.6-63h-.8l-9.3,63h-22.8Z" style="fill: #fff;"/>
    <path d="M1298.8,161.9c-8.4,0-15-.8-19.9-2.5-4.8-1.7-8.2-4.5-10.2-8.4-1.9-3.9-2.9-9.2-2.9-15.9s.4-9.5,1.1-15.3c.8-5.8,1.6-12.5,2.7-20.2,1.3-9.7,2.5-18,3.7-24.9,1.2-6.9,2.7-12.6,4.4-17.1,1.7-4.5,4-8,6.8-10.6,2.8-2.5,6.5-4.3,10.9-5.4,4.5-1,10.1-1.6,16.9-1.6s15,.8,19.7,2.5c4.7,1.7,8.1,4.5,10,8.4,2,3.9,3,9.3,3,16.1s-.3,9.6-1,15.4c-.7,5.8-1.6,12.4-2.8,19.9-1.5,9.8-2.9,18.2-4.2,25.1-1.3,6.9-2.8,12.6-4.5,17-1.7,4.4-3.9,7.9-6.7,10.5-2.7,2.5-6.3,4.3-10.6,5.4-4.4,1-9.9,1.6-16.6,1.6ZM1300.4,135.9c2.2,0,4.1-.1,5.5-.4,1.5-.3,2.7-1,3.7-2.1,1-1.1,1.9-2.9,2.6-5.4.8-2.5,1.5-5.9,2.2-10.3.7-4.4,1.6-10,2.6-16.8,1-6.7,1.8-12.2,2.3-16.5.5-4.3.8-7.8.8-10.3s-.3-4.6-1-5.7c-.7-1.2-1.7-1.8-3.1-2.1-1.4-.2-3.2-.3-5.4-.3s-4.1.1-5.5.4c-1.5.3-2.7,1-3.7,2.1-1,1.1-1.9,2.9-2.6,5.4-.8,2.5-1.5,5.9-2.2,10.3-.7,4.4-1.5,10-2.5,16.8-.6,4.6-1.2,8.6-1.7,12.1-.5,3.5-.9,6.4-1.2,8.8-.3,2.4-.4,4.5-.4,6.2s.3,4.2,1,5.4c.7,1.2,1.7,1.8,3.1,2.1,1.4.2,3.2.3,5.5.3Z" style="fill: #fff;"/>
  </g>
</svg>