<?xml version="1.0" encoding="UTF-8"?>
<svg xmlns="http://www.w3.org/2000/svg" version="1.1" viewBox="0 0 100 100">
  <!-- Generator: Adobe Illustrator 28.6.0, SVG Export Plug-In . SVG Version: 1.2.0 Build 709)  -->
  <g>
    <g id="Layer_1">
      <path d="M76.7,95.9H23.3c-10.7,0-19.4-8.7-19.4-19.4V23.2c0-10.7,8.7-19.4,19.4-19.4h53.3c10.7,0,19.4,8.7,19.4,19.4v53.3c0,10.7-8.6,19.4-19.3,19.4ZM23.3,8.8c-7.9,0-14.4,6.5-14.4,14.4v53.3c0,7.9,6.5,14.4,14.4,14.4h53.3c7.9,0,14.4-6.5,14.4-14.4V23.2c0-7.9-6.5-14.4-14.4-14.4,0,0-53.3,0-53.3,0Z" style="fill: #f7cf57;"/>
      <g>
        <path d="M23.1,51.1c0-5.6,1.2-10.4,4.5-14.4,3.3-3.9,7.5-6,12.7-6,1.7,0,3.3.5,4.9,1.1,1,.4,1.9.7,2.8,1.1,1.5.6,3,.6,4.5,0,2.1-.8,4.1-1.7,6.3-2.2,6-1.3,12.7,1.3,16.2,6.4.4.6.2.7-.3,1.1-3.3,2.2-5.6,5.1-6.3,9-1.2,6.1,2,12.2,7.7,14.8.8.3.8.7.6,1.4-1.7,5-4.3,9.3-7.7,13.3-.3.4-.6.7-1,1-3,3-6.5,3.6-10.4,2-1.9-.8-3.8-1.6-5.9-1.7-1.8,0-3.6.3-5.3,1-1.2.5-2.3,1-3.6,1.3-2.6.7-4.9.2-7-1.4-1.1-.8-2.1-1.8-2.9-2.9-6.2-7.4-9.5-15.9-9.8-25.1Z" style="fill: #f7cf57;"/>
        <path d="M49.1,28.7c.6-5.5,3.5-9.8,8.9-12.5,1.5-.7,3-1.1,4.7-1.2.5,0,.7.1.8.7.8,7.1-4.8,14.5-11.8,15.5-.1,0-.3,0-.4,0-2.2,0-2.1.4-2.2-2.5Z" style="fill: #f7cf57;"/>
      </g>
    </g>
  </g>
</svg>