<?xml version="1.0" encoding="utf-8"?>
<!-- Generator: Adobe Illustrator 26.1.0, SVG Export Plug-In . SVG Version: 6.00 Build 0)  -->
<svg version="1.1" id="Layer_1" xmlns="http://www.w3.org/2000/svg" xmlns:xlink="http://www.w3.org/1999/xlink" x="0px" y="0px"
	 viewBox="0 0 1000 1000" style="enable-background:new 0 0 1000 1000;" xml:space="preserve">
<path style="fill:#FFFFFF;" d="M359.9,865.5c-37.6-12.6-73.6-30.3-105.2-51.9c-8.9,2-16,3.7-23.7,5.4c-0.6-6.2-3-12.7-1.3-17.9
	c1.9-5.8-1.5-6.6-4.1-9.1c-15.4-14.4-31.1-28.5-46-43.4c-8.5-8.5-15.6-18.2-23.3-27.5c-2.2-2.7-4.4-4.4-8.4-4.4
	c-11.9,0.1-23.9,0.1-35.8-1c-6.8-0.6-13.4-3.4-20-5.3c-8.7-2.4-17.3-5-26-7.3c-9.9-2.6-17.8-12.4-18.4-23.8c-0.2-3.2,0-6.4,0-9.5
	c4.1-2.1,3.8,0.8,3.7,3c-0.3,8.3,1.2,16,7.7,21.8c3.9,3.5,8.5,5.7,13.9,5.7c7.8,0,15.7-0.1,23.5,0c17.1,0.2,34.3,0.4,51.4,1
	c11.2,0.3,22.5,0.9,33.7,1.9c3.7,0.3,7.2,2.4,11.2,3.9c-1.9,3-3.5,5.5-5.1,8c0.3,0.2,0.7,0.4,0.7,0.4c4.2-3.8,8.7-5,14.5-3.5
	c2.8,0.7,6.7-0.5,9.4-2.1c3.2-1.8,5.4-2.3,8.2,0.3c1.1,1,2.9,1.4,5.5,2.5c-1.2-1.5-1.7-1.9-2.1-2.5c-1-1.6-2-3.2-3-4.8
	c2-0.8,4-2.2,6.1-2.3c18.3-0.8,36.6-1.7,54.9-1.9c43.5-0.5,87.1-0.7,130.6-1c0.8,0,1.5-0.1,2.3-0.1c-1.6-7-1.9-7.2-8.2-7.2
	c-42.8,0-85.6,0.1-128.5,0c-11.8,0-23.5-0.3-35.3-1c-6.9-0.4-13.8-1.2-20.5-2.6c-5.9-1.2-5.8-1.7-4-6.8c-9,4.8-18.6,1.7-28.3,2.4
	c0,0.2,0.2,1.4,0.5,3c-2.5,0.8-5,2-7.6,2.2c-12.6,0.8-25.2,1.6-37.8,1.9c-23.6,0.5-47.2,0.7-70.7,1c-9,0.1-15.5-6.3-15.5-15.3
	c0-73.1,0-146.3,0-219.4c0-37.9,0-75.8,0-113.7c0-16.6-0.1-33.2,0.1-49.8c0-3.3,0.3-6.7,1.1-9.9c1.4-5.4,7.8-9.7,13.9-9.7
	c34.8,0,69.7,0,104.5,0c5.9,0,11.9,0,18.5,0c-1.5-2.5-2.8-4.5-4.3-7c1.7-0.1,3.2-0.3,4.6-0.3c89.2,0,178.3,0,267.5-0.1
	c3.6,0,6.3,0.7,7.5,4.4c1,3.2,3.6,3.1,6.3,3.1c46.4,0,92.7-0.2,139.1,0.1c14.3,0.1,28.6,0.9,42.9,1.8c8.8,0.6,17.5,2,26.8,3.2
	c-1.4,3-2.3,5-3.7,7.9c3.3-1.2,5.7-2.3,8.3-3.1c1.6-0.5,3.3-0.7,5-0.7c5.8-0.2,11.6-0.4,17.4-0.4c1.8,0,3.6,0.9,5.3,1.6
	c2,0.8,4,1.8,7,3.2c-1.8-3-3-5-4.8-8c7.3-1.4,13.8-2.9,20.3-3.7c6.6-0.8,13.4-0.9,20.1-1c46.6-0.4,93.2-0.6,139.8-1
	c0.9,0,1.8-0.1,3.1-0.2c-1.2-2.4-2.3-4.4-3.8-7.2c10,0.7,19.8-2.4,28.4,4.5c4.9,3.9,8.2,8.8,8.3,14.8c0.4,16.2,0.1,32.5,0.1,48.7
	c-5.8-0.2-5.3-5.3-6.3-9.1c-0.4,0.2-0.7,0.3-1.1,0.5c0,1.7,0,3.5,0,5.2c0,114.5-0.1,229.1,0.1,343.6c0,9.7-7.1,16.9-16.9,16.9
	c-72.9-0.3-145.8-0.2-218.7-0.2c-1.8,0-3.6,0-5.5,0c1.9,7.4,1.9,7.4,9,7.4c72.7,0,145.5-0.2,218.2,0.2c10,0,21.8-9.8,22.1-22
	c0.1-2.9,0-5.8,1-9.7c0.9,0.9,2.6,1.7,2.6,2.6c0.9,15.9-4.7,28.7-22.1,33.2c-13.4,3.4-26.6,7.8-40.1,10.5
	c-8.6,1.7-17.7,2.4-26.4,1.6c-9.6-0.9-14.8,3.6-20.3,10.4c-13.7,17-28.3,33.3-44.9,47.5c-8.8,7.5-17.4,15.2-26.1,22.7
	c3.5,7-0.4,14.2,0.4,21.4c-7.6-1.9-15.4-1.5-22.8-5.8c-42.6,28.6-89.4,49.9-140.1,62.4c0.3,3.6-1.1,4.9-4.7,4.5
	c-4.7-0.5-6.7,2-5.7,6.5c0.7,2.7,1.4,5.5,2,8.2c-0.4,0.4-0.7,0.7-1.1,1.1c-5.2-4.5-10.5-9-15.8-13.5c-0.7-0.6-1.7-1.2-2.5-1.1
	c-18.1,2.2-36.2,5-54.4,6.5c-10.6,0.9-21.4-0.2-32.2-0.5c-7.6-0.2-15.3-0.3-22.8-1c-10.1-0.9-20.1-2.3-30.2-3.4
	c-3.6-0.4-7.5-1.7-10.8-0.9c-3.1,0.7-5.8,3.5-8.6,5.5c-3.8,2.7-7.6,5.4-11.7,8.4c-1.4-2.5-2.6-4.7-3.7-6.7
	c-5.6,3.2-10.8,6.7-16.3,9.4c-5.8,2.9-12.1,4.1-18.7,2.6c-10.7-2.5-15.6-10-11.7-20.2C353.2,875.6,356.8,870.9,359.9,865.5z
	 M448.2,500.8c118.9,0,237.9,0,356.8,0c1.9,0,4-0.2,5.6-1.1c4.9-2.5,5.8-7.3,5.9-12.2c0-37.3,0-74.5,0-111.8
	c0-22.1,0.3-44.2-0.1-66.2c-0.2-9.6-2.5-11.7-10.7-13.6c-1.6-0.4-3.4-0.2-5-0.2c-156.4,0-312.8-0.1-469.2,0
	c-79.9,0.1-159.8,0.7-239.7,0.7c-7.5,0-12.1,5.3-12.1,12.4c0.2,59.9,0.2,119.9,0,179.9c0,7,4.5,12.4,12.1,12.3
	C210.6,500.8,329.4,500.8,448.2,500.8z M451.1,661.8c-2.4,0-4.4,0-6.4,0c-108.5,0-217,0-325.5,0c-15.2,0-29-13.4-29.2-28.8
	c-0.3-24.1-0.4-48.1,0-72.2c0.3-15.3,13.8-28.6,28.9-28.6c194.5-0.3,388.9-0.7,583.4-0.9c54.9-0.1,109.9,0,164.8,0.1
	c3.4,0,7,0.5,10.2,1.5c14.6,4.4,22.6,16.1,22.8,31.1c0.4,21.9,0.3,43.8,0,65.8c-0.3,19.9-13.8,33.1-33.1,33.1
	c-78.1-0.2-156.1-0.6-234.2-0.8c-48-0.1-96.1,0-144.1,0c-1.2,0-2.4,0.1-3.3,0.2c0,3.3,0,6.4,0,10c2.3,0.3,5,0.9,7.7,0.9
	c48.6-0.2,97.2-0.7,145.8-0.8c75-0.1,150.1-0.1,225.1,0c24.7,0,45.6-20.8,45.5-45.4c-0.1-18.9-0.2-37.7,0-56.6
	c0.2-15.3-5-27.9-16.9-37.7c-7.8-6.4-16.6-10.3-26.8-10.3c-247.3,0-494.5,0-741.8-0.1c-23.5,0-44.4,20.6-44.4,44.4
	c0,20.5,0,41.1,0,61.6c0,11.7,4.6,21.7,12.4,30.1c9.8,10.6,22.7,14.7,36.7,14.7c104.7,0.1,209.3,0.1,314,0.1c0.9,0,2,0.3,2.7-0.1
	c1.2-0.6,2.8-1.3,3.2-2.4C449.8,667.9,450.2,665.2,451.1,661.8z M387.7,552.3c0,30,0,59.5,0,89.2c2,0,3.7,0,5.4,0
	c29.8,0,59.5,0.1,89.3-0.1c5,0,10.3-1,14.9-2.8c7.5-2.8,13.7-8.1,15.1-16.2c2.8-15.9,3.1-32,0.1-47.9c-1.5-8-5-15.3-13.2-18.1
	c-6.6-2.2-13.7-3.8-20.7-4c-22.7-0.5-45.4-0.2-68.1-0.2C403.1,552.3,395.6,552.3,387.7,552.3z M136.1,574.5
	c7.7,9.2,14.7,17.5,21.6,25.8c10.6,12.9,21.1,26,31.8,38.9c1,1.2,3.1,2.2,4.7,2.3c12.6,0.2,25.2,0.1,37.7,0.1c1.2,0,2.3-0.2,3.3-0.3
	c0-29.8,0-59.2,0-88.6c-8.6,0-16.9,0-25.7,0c0,22,0,43.6,0,66.7c-3.3-4.2-5.7-7.4-8.2-10.5c-13.7-16.8-27.7-33.5-41.2-50.5
	c-3.5-4.4-7.1-6.6-12.9-6.1c-7.8,0.6-15.6,0.1-23.5,0.1c-4.4,0-8.8,0-13.2,0c0,30,0,59.5,0,88.9c8.7,0,17,0,25.6,0
	C136.1,619.1,136.1,597.4,136.1,574.5z M409.7,852.4c0-0.9-0.1-1.3,0-1.5c12.5-28.4,25.7-56.5,37.3-85.3
	c9.5-23.4,17.6-47.4,25.2-71.5c3.2-10.2,4-21.2,5.2-31.9c0.6-5.1-3.1-10.1-6.9-11.2c-4.9-1.4-10.4,0.5-13.2,5.5
	c-2.3,4.1-4.6,8.6-5.4,13.2c-5.2,26.8-11.5,53.3-20.3,79.1c-6,17.6-12.1,35.1-18.8,52.4c-6.8,17.3-14.4,34.3-22,51.2
	c-0.9,1.9-3.5,3.4-5.6,4.4c-2.8,1.3-6.1,1.7-8.9,2.9c-9,4-17,9.2-21.3,18.6c-3.3,7.2-0.6,12.5,6.8,14.5c5.8,1.5,11,0,16.1-2.3
	c9.1-4,16.1-10.8,22.9-18c1.7-1.8,4.5-3.2,6.9-3.6c9.8-1.5,19.7-2.4,29.6-3.9c14.5-2.1,28.9-0.8,43.2,1.2c10.9,1.6,21.6,4.8,32.5,7
	c1.7,0.4,3.7-0.6,5.6-1c-0.7-1.8-0.9-4-2.1-5.5c-5.4-6.8-13.1-10-21-12.8c-18.8-6.5-38.2-7.1-57.8-5.5c-3.4,0.3-6.8,1.1-10.3,1.5
	C421.6,850.9,415.7,851.6,409.7,852.4z M302.9,552.3c0,0.3,0,0.6,0,0.9c-12.1,0-24.2-0.7-36.2,0.2c-10.6,0.9-19.3,4.1-21.3,17.4
	c-0.7,4.5-1.7,8.9-1.7,13.4c-0.2,12-0.5,24,0.3,35.9c0.3,4.2,3.1,8.8,6,12.2c6.1,7.5,15.3,8.7,24.2,9c10,0.4,20,0.3,29.9,0
	c12.6-0.4,25.4-0.2,37.8-2.1c12.4-1.8,16.7-5.6,19.5-17.8c1.2-5.3,1.1-10.8,2-16.1c2-11.9,0.8-23.6-2-35.1
	c-1.4-5.8-4.4-11.3-10.5-13.2c-7-2.2-14.2-4.1-21.4-4.7C320.8,551.7,311.8,552.3,302.9,552.3z M522.2,552.6c0,29.8,0,59.3,0,88.6
	c35.1,0,69.8,0,104.4,0c0-6.8,0-13.1,0-20c-25.5,0-50.7,0-75.9,0c0-5.3,0-10.2,0-15.5c23.6,0,47,0,70.4,0c0-6.1,0-11.6,0-17.5
	c-23.6,0-46.9,0-70.3,0c0-5.3,0-10.2,0-15.7c25.5,0,50.7,0,75.9,0c0-6.9,0-13.3,0-19.9C591.8,552.6,557.1,552.6,522.2,552.6z
	 M776.8,641.6c-0.9-1.8-1.5-3.3-2.3-4.7c-9.6-16.6-19.2-33.2-28.9-49.8c-6.3-10.8-12.6-21.5-19.1-32.1c-0.8-1.2-2.7-2.4-4.1-2.4
	c-10.9-0.2-21.8-0.2-32.7,0c-1.3,0-3.2,0.7-3.8,1.6c-4.1,6.5-7.9,13.1-11.8,19.7c-9.6,16.3-19.2,32.6-28.7,48.9
	c-3.6,6.2-7.3,12.3-11.2,19c8.5,0,16.3-0.3,24.1,0.1c5.6,0.3,9.6-0.5,11.5-6.5c0.7-2.4,3-4.2,3.9-6.5c1-2.5,2.6-2.8,4.9-2.8
	c15.5,0.1,31,0.5,46.5-0.1c7.9-0.3,13.9,0.7,16.4,9.3c0.5,1.7,1.6,3.2,2.8,4.6c0.7,0.9,2,1.9,3,1.9
	C756.9,641.6,766.6,641.6,776.8,641.6z M881.5,311.2c-1.9-5.9-3.4-11.3-9.5-13.1c-8.5-2.5-17.1-2.8-25.3,0.6
	c-7.4,3.1-9.6,10.2-9.7,17.5c-0.3,24.1-0.1,48.1-0.1,72.2c0,1.2,0.1,2.4,0.2,3.5c24.3,0,48.3,0,72.1,0c0-7.7,0-15.1,0-22.9
	c-6.1,0-11.9,0-18,0c0-13.6-0.2-26.9,0.1-40.2c0.1-3.8,0.8-7.9,6.7-7.6c3.8,0.2,7.7-0.8,11.4-1.2c0-7.6,0-14.9,0-22.5
	c-5.9,0-11.6-0.5-17.2,0.2c-2.5,0.3-5.3,2.6-7,4.7C883.4,304.7,882.8,307.9,881.5,311.2z M909.6,454.1c-0.3,0-0.6,0-0.9,0
	c0-10.5,0.7-21.1-0.2-31.5c-1-10.8-3.6-16.4-13.6-18c-11.6-1.9-23.6-2.2-35.4-1.9c-6.3,0.1-13.7,1.4-17,7.8
	c-2.8,5.6-5.2,12.1-5.3,18.3c-0.4,17.9-0.3,35.8,0.9,53.6c0.7,9.8,3.8,15,14.7,16.4c11.6,1.5,23.3,1.7,35,1.9
	c3.9,0,8.2-1.2,11.6-3.1c7.4-4.1,9.7-11.6,10.2-19.5C909.9,470.1,909.6,462.1,909.6,454.1z M784.5,641.2c31.7,0,63.1,0,94.4,0
	c0-7.3,0-14.3,0-21.8c-21.8,0-43.3,0-65.3,0c0-22.6,0-44.8,0-66.9c-10,0-19.4,0-29.1,0C784.5,582.2,784.5,611.6,784.5,641.2z
	 M647.5,802.8c-5,3.1-9.5,6.6-14.5,8.8c-4,1.7-8.8,3-13,2.4c-6.4-0.9-10-13.1-6.1-18.6c0.4-0.6,1.4-1.2,2.1-1.2
	c9.4,0,18.1-3.1,26.5-6.7c9.7-4,18.3-9.9,22.4-20c4.9-12.1,1.7-20.4-8.7-23.8c-7.3-2.4-14.9-1.7-22.3,0.5
	c-12.5,3.8-22.6,11-30.6,21.4c-9.4,12.3-15.3,25.8-15.1,41.5c0.2,9,5.5,17.3,14.7,20.1c16,4.9,30.1,0.3,42.4-10
	C652.5,811.6,652.1,811.1,647.5,802.8z M542.3,804c0.2-1.1,0.6-2.3,0.7-3.4c0.7-9.8,1.2-19.7,1.9-29.5c0.4-5,1.1-9.9,1.8-14.8
	c1-6.8-2.1-12.6-7.6-13.4c-2.9-0.4-6-0.7-8.7,0.1c-2.8,0.9-7.2,0.4-7.6,4.8c-0.6,6.2-0.8,12.4-1,18.7c-0.2,7,0.1,14.1-0.1,21.1
	c-0.1,4.9-0.6,9.7-0.6,14.6c-0.1,9,0,17.9,0,27.1c3.9,0,7.5-0.2,11,0.1c3.3,0.3,5.4-1.1,7.4-3.4c4.4-5.2,9-10.3,13.5-15.4
	c7.9-8.8,16.1-17.4,23.6-26.5c6.9-8.5,12.8-17.8,15-28.8c1.3-6.3-2.2-13.2-7.4-14.2c-9.6-1.9-16.2,3.7-16.4,13.7
	c0,3.6,0.1,7.4-0.9,10.8C562.6,780.6,552.6,792.4,542.3,804z M321.6,734.4c2.3,5.3,4.4,10.4,6.9,15.3c5.2,10.5,13,18.2,24.1,22.6
	c12.4,5,25.2,4.4,38.1,4.5c2.8,0,3.5-1.5,3.2-3.8c-1.6-11.9-5.6-22.8-14.4-31.2C364.3,727.3,342.2,723.7,321.6,734.4z M321,825.1
	c16.3,9.6,37.5,9.9,55.8-4.3c8.8-6.8,18.4-26.8,16.3-36.6c-8.6,0-17.2-0.7-25.7,0.2c-12.4,1.3-24.2,5.3-31.9,15.6
	C329.8,807.6,325.9,816.5,321,825.1z M482.6,815.2c-0.2-1.5-0.4-2-0.3-2.4c6.7-18.7,13.4-37.4,20.2-56.1c1.5-4.2,2.4-8.2-0.6-12.2
	c-5.1-6.7-17.4-3.9-20.4,4.5c-8.2,22.8-16.2,45.7-24.2,68.5c-2.1,6.1-0.5,9,5.6,10.9c8.5,2.7,16.1-0.1,23.2-4.5
	c7.4-4.6,7.6-5.4,5-13.8C488.4,811.7,485.7,813.3,482.6,815.2z M598.5,868.5c50-12.3,95.7-32.9,137.7-62.4c-1.8-0.9-4.1-1.8-5.3-1
	c-21,14.1-43.1,26.1-66.4,36.2c-20,8.6-40.4,15.8-61.5,21.2c-1.6,0.4-3.1,0.9-4.6,1.4C598.5,865.2,598.5,866.3,598.5,868.5z
	 M263.6,776.4c-6.8,2.1-13.8,4.2-20.7,6.5c-0.9,0.3-2,2-1.9,2.9c0.4,5.9,1.2,11.8,1.8,17.8c6.5-1.4,12.2-2.4,17.8-3.9
	c2-0.5,3.5-1.3,5.5,0.1c3.1,2.4,6.3,4.7,9.6,6.6c13.3,7.8,26.7,15.4,40.2,23.2c0.7-1.3,1.1-1.9,1.5-2.6c0.3-0.6,0.6-1.3,1-2
	c-0.5-0.4-0.9-0.8-1.2-1c-17.1-9.9-34.2-19.8-51.3-29.8c-1-0.6-2.1-1.8-2.1-2.8C263.5,786.5,263.6,781.6,263.6,776.4z M570.8,864.3
	c4.9,3.8,9.6,7.6,14.5,11.1c0.6,0.4,2.7-0.2,3.2-1c2.4-3.6,5-7.2,6.6-11.2c2.1-5.2,6.4-5.9,10.9-7.3c17.3-5.4,34.4-11.2,51.7-16.9
	c-0.2-0.6-0.4-1.2-0.6-1.8c-4.2,1.3-8.4,2.9-12.7,4c-7.1,1.7-14.3,2.9-21.3,4.8c-9.3,2.4-18.4,5.2-27.6,7.7
	c-1.4,0.4-3.6,0.5-4.6-0.3c-3.9-3.2-7.4-6.9-11.5-10.8C576.3,850.1,573.7,856.9,570.8,864.3z M260,803.4c-2.5,2.3-2.6,3.9,0.4,5.6
	c12.6,7.4,24.8,15.4,37.6,22.3c21.4,11.5,43.9,20.9,67.1,28.4c3.5,1.1,5.4-0.1,7.7-2.2c-9.2-3.3-17.9-7.2-27.1-9.3
	c-8.1-1.9-16.2-3.4-23.3-7.9c-3-1.9-5.5-4.7-8.6-6.4c-9.7-5.4-19.7-10.3-29.3-15.8C276.3,813.6,268.3,808.5,260,803.4z M234.9,790.4
	c3.3-2.2,2.8-3.9,0.4-6c-8.8-7.4-17.7-14.6-26-22.6c-9.1-8.6-17.4-18-26.2-26.8c-2.8-2.8-4.7-7.9-10.9-5.6
	C190.5,752.4,211.9,772.2,234.9,790.4z M822.1,729.9c-0.2-0.4-0.3-0.9-0.5-1.3c-1.9,0.5-4.4,0.5-5.7,1.7c-4.3,4.1-8,8.7-12.1,13
	c-5.9,6.2-11.5,12.6-17.8,18.4c-9.7,8.8-19.8,17.2-29.9,25.8c0.7,1,1.4,2,2.5,3.5C781.7,772.5,803.2,752.6,822.1,729.9z
	 M492.4,723.4c-1.2,6.5,4.4,11.6,12.1,8.3c4.9-2.1,7.7-6.1,8.9-11.1c1.5-6.2-3.1-12.5-8.4-11.8C497.8,709.7,492.4,716,492.4,723.4z
	 M729.5,776.1c0.5,7.6,0.8,14.3,1.5,20.9c0.1,1,1.3,2.4,2.3,2.7c5.8,1.4,11.6,2.6,17.5,3.8c0.8-6.9,1.6-13.4,2.3-19.9
	C745.4,781.2,738.1,778.9,729.5,776.1z M529.7,880c14.3-1.9,28.5-3.7,42.7-5.6c-0.1-4.3-1.8-5-5-4.6c-11.3,1.6-22.7,3-34,4.5
	c-1.7,0.2-3.4,0.7-5.2,1.1C528.8,877.2,529.2,878.4,529.7,880z M388.4,852.2c-0.1-0.4-0.2-0.9-0.4-1.3c-18-6.1-18-6.1-27.3-3.3
	c7.3,2.3,13.9,4.7,20.7,6.3C383.5,854.4,386,852.8,388.4,852.2z"/>
<path style="fill:#FFFFFF;" d="M123.6,263.5c2.5-6.7,4.9-13.6,7.6-20.4c1.8-4.5,2.9-10.3,6.3-12.7c3.3-2.2,9.1-0.7,13.8-0.9
	c3.3-0.2,6.7-0.4,9.9-1c1-0.2,2.1-1.5,2.7-2.5c1.8-3.1,3.2-6.5,5-9.6c0.9-1.5,2.3-2.6,3.5-3.9c0.5,0.3,1,0.6,1.5,0.9
	c-1.2,3.4-2.5,6.8-3.7,10.2c-1.2,3.5-2.4,7-3.8,10.8c3.3,0.2,6.2,0.7,9.1,0.5c1-0.1,2.3-1.6,2.7-2.8c3.5-8.8,7.1-17.5,10.1-26.4
	c1.4-4.2,4.5-4.8,7.9-5.2c-0.6,4.1-1.1,8.3-1.7,12.4c0.3,0.1,0.6,0.1,0.9,0.2c2.6-5.4,5.1-10.8,7.8-16c6.9-13.3,15.6-25.3,24.7-37.1
	c14.4-18.8,34.4-27.2,56.4-32.4c18.1-4.3,36.2-8.6,54.5-11.8c11.2-2,22.7-2,34.1-3.1c2-0.2,3.9-1.1,5.8-1.7
	c4.6-1.3,9.1-2.5,13.7-3.8c2.8-0.7,5.7-1.4,8.5-2.1c-0.1-0.5-0.2-1-0.3-1.6c-2.7,0-5.4,0-8.1,0c-0.1-0.4-0.1-0.7-0.2-1.1
	c2.4-0.6,4.9-1.4,7.4-1.7c6.8-0.8,13.6-1.5,20.4-1.8c14.3-0.8,28.6-1.3,42.9-1.9c8.9-0.4,17.8-0.9,26.7-0.9
	c18.7,0.1,37.3,0.3,56,0.9c14.1,0.5,28.3,1.1,42.3,2.8c25.7,3.2,51.4,6.9,77,11c13.5,2.1,26.8,5.3,40.1,8.3c2,0.4,3.7,2.3,5.3,4
	c-53-11.9-106.4-20.2-160.8-21.4c0.6,0.3,1.1,0.7,1.7,0.7c10.2,0.7,20.3,1,30.5,2c9.9,0.9,19.8,2.1,29.6,3.6
	c17.1,2.6,34.3,4.9,51.2,8.4c21.4,4.5,42.6,9.9,63.9,15.1c14.9,3.7,27.6,11.4,37.7,23c11.5,13.2,21.8,27.2,30.1,43.9
	c0.2-2.5,0.3-3.9,0.6-6.6c1.5,2.8,2.3,4.7,3.4,6.4c1.2,1.8,2,4.5,5.5,2.6c0.7-0.4,3.7,1.9,4.4,3.5c3.1,7,6,14.1,8.4,21.3
	c1.4,4.2,3.1,6.6,7.8,5.6c1.2-0.2,2.4,0,4.5,0c-2.3-6.2-4.4-12-6.5-17.8c0.2-0.3,0.4-0.6,0.6-0.9c1.5,1.2,3.4,2.2,4.5,3.7
	c1.3,1.8,2.2,3.9,3,6.1c1.7,4.6,4.3,7.7,9.9,6.4c7.2-12.9,14.8-26,22-39.3c1.3-2.3,4-4.7,1.3-8c-0.3-0.4,0.8-2,1.3-3.2
	c-20.7-17.8-17-40-6.8-51.2c-2.2,14.8,2.6,25.5,16.8,29.5c10.6,2.9,20.1-2.1,25.2-11.2c6.4-11.3,2.9-21.1-5.9-29.9
	c6.8,1.9,12.6,5.1,17.1,10.4c11.8,14,10.8,34.9-2.5,47.6c-7.5,7.1-16.6,10.6-27.2,9.4c-1-0.1-2.6,1-3.2,1.9
	c-7.5,11.7-15,23.3-22.1,35.2c-0.8,1.4,0,4.2,0.8,6c5.4,12.5,11,24.9,16.9,38.4c-8.5,0-15.4,0.1-22.2,0c-32-0.3-64-0.1-96-1.2
	c-10.3-0.4-21.3,1.5-32.2-4.7c4.9-5,9.6-9.9,14.4-14.8c-0.2-0.3-0.4-0.5-0.6-0.8c-5,3.4-10.1,6.7-15,10.3c-3.7,2.7-7.3,3.1-11.9,2.1
	c-4.1-0.9-8.8-0.9-12.8,0.1c-4.5,1.1-8.3,1.8-12.2-1.2c-1.4-1.1-3.3-1.7-6.1-3.1c2.4,3.3,3.9,5.4,6.1,8.4c-6.6,1-12.6,2.6-18.6,2.8
	c-17.3,0.6-34.6,0.8-51.8,1c-7.2,0.1-14.4,0-21.6,0c-136.1,0.3-272.1,0.6-408.2,0.9c-6.3,0-12.7-0.8-19-0.8
	C152.4,263.4,138.5,263.5,123.6,263.5z M593.8,137.1c-0.2,0.3-0.5,0.7-0.7,1c3.5,8.6,7.5,17,10.5,25.7c3,8.7,4.9,17.8,7.3,26.8
	c1.2,0,2.4,0,4,0c-2.3-8.6-4-17.1-6.8-25.2c-3.1-8.6-7.2-16.8-11.1-25C596.3,139.1,594.8,138.2,593.8,137.1z M386.8,190.8
	c4.2,0.1,3.6-3.3,4.2-5.5c2.6-8.7,4.7-17.6,7.7-26.2c2.5-7.2,5.8-14.2,8.9-21.4C401,139.1,385.7,178.4,386.8,190.8z M546.1,101.6
	c-27.2-3.6-54.6-3.2-82-2.1c0,0.7,0,1.4,0,2.1C491.4,101.6,518.8,101.6,546.1,101.6z"/>
<path style="fill:#FFFFFF;" d="M826.7,183.2c-1.2,0.2-2.1,0.3-3.8,0.6c2.7,3.3,5.2,6.3,7.6,9.5c3.5,4.7,7.2,9.3,10.3,14.2
	c1,1.7,1,4.5,0.5,6.6c-0.9,3.7-2.6,7.3-4,11.2c-2.3-4.7-4.2-9.5-6.9-13.9c-5.5-9.1-11.3-18-17.2-26.9c-0.8-1.1-2.6-1.6-3.9-2.3
	c-0.2,0.3-0.5,0.6-0.7,0.8c2.6,4.6,5.3,9.2,8.6,15c-2.1-1-3.5-1.2-3.9-1.9c-7.9-13.1-16.8-25.4-28.7-36.8
	C801.6,163.1,814.6,171.7,826.7,183.2z"/>
<path style="fill:#FFFFFF;" d="M179.9,196.4c2.5-4.4,5.1-8.7,8.2-14c-6.3,0.4-11.7,0.8-18.3,1.3c11.6-11.5,24.2-19.3,39.1-23.6
	c-9.4,12.7-18.6,25-27.7,37.4C180.8,197.1,180.4,196.7,179.9,196.4z"/>
<path style="fill:#FFFFFF;" d="M47.6,523.4c-13.7,2.7-23.1-5.6-32.9-10.5c5.7-0.3,11.8-0.6,17.9-1.1c1.1-0.1,2.1-1.3,3.1-2
	c1-0.6,1.9-1.4,3-1.6c8.7-1,9-0.7,9,8C47.6,518.6,47.6,520.8,47.6,523.4z"/>
<path style="fill:#FFFFFF;" d="M47.5,633.7c0,5.1,0,9.8,0,14.8c-13.3,2.7-22.8-5.5-34-11.1c8.3-0.5,16.5,3.6,23.7-3.7
	C40,633.7,43.7,633.7,47.5,633.7z"/>
<path style="fill:#FFFFFF;" d="M13.8,392.2c6.9,0,13.6,0.3,20.2-0.2c2.1-0.2,3.9-3.1,6.2-3.8c6-2,7.4-0.8,7.4,5.4
	c0,10.9-2,12.5-12.8,9c-4.4-1.4-8.4-3.9-12.6-6C19.4,395.3,16.6,393.7,13.8,392.2z"/>
<path style="fill:#FFFFFF;" d="M942.9,648.5c0-4.9,0-9.8,0-15.2c3.3,0,6.5-0.5,9.5,0.2c2.1,0.5,3.8,2.6,5.8,3.8
	c1,0.6,2.3,0.7,3.2,0.9c-0.1,1.3-0.2,2.6-0.3,3.9c2.9-7.4,9.8-2.5,14.3-4.7C965.2,642.6,956.3,651.2,942.9,648.5z"/>
<path style="fill:#FFFFFF;" d="M961.7,518.9c-3.1,4.6-7.9,4.5-12.6,4.9c-1.9,0.1-3.9,0-6.1,0c0-5.3,0-10.3,0-15.6
	c4.1,0.6,8.6-2.2,11.6,3.3c0.7,1.4,4.4,1.1,7.2,1.8c0,1.7,0,3.7,0,5.8L961.7,518.9z"/>
<path style="fill:#FFFFFF;" d="M943.1,387.8c4.1-0.1,7.7-0.7,10.6,3.4c1.1,1.5,5,1,7.7,1.5c1.5,6.2-1.8,10.1-9.4,10.6
	c-2.8,0.2-5.7,0-9,0C943.1,398.7,943.1,393.5,943.1,387.8z"/>
<path style="fill:#FFFFFF;" d="M47.3,328.9c0.6,2.9,0,4.7-3.1,4.4c-3.8-0.3-8.4,1.2-10.4-4.4C38.5,328.9,42.8,328.9,47.3,328.9z"/>
<path style="fill:#FFFFFF;" d="M955.9,329.1c-3,6.3-8.3,3.6-12.9,4.5c-0.1-1.7-0.2-2.9-0.3-4.5C947,329.1,951,329.1,955.9,329.1z"/>
<path style="fill:#FFFFFF;" d="M48.2,449.7c-1,1.7-1.4,3.4-2.5,4c-1.8,1-9.7-1.9-11.1-4C39,449.7,43.1,449.7,48.2,449.7z"/>
<path style="fill:#FFFFFF;" d="M955.2,574.7c-2.9,5.8-8.5,1.9-12.1,5.2c-0.2-2.3-0.3-3.6-0.5-5.2
	C946.7,574.7,950.6,574.7,955.2,574.7z"/>
<path style="fill:#FFFFFF;" d="M942.7,449.5c4.3,0,7.9,0,11.5,0c-0.2,3.9-0.3,3.9-11.2,4.3C942.9,452.4,942.8,451.1,942.7,449.5z"/>
<path style="fill:#FFFFFF;" d="M35.9,578c-0.2-1.2-0.5-2.3-0.7-3.4c4.2,0,8.1,0,12,0C47.6,578.2,48.1,578.5,35.9,578z"/>
<path style="fill:#FFFFFF;" d="M961.8,519c0.3-0.3,0.7-0.6,0.9-1c2.3-4.3,5.8-6.2,11.9-4.4c-4.9,2-8.9,3.7-12.9,5.3
	C961.7,518.9,961.8,519,961.8,519z"/>
<path style="fill:#FFFFFF;" d="M109.4,460.2c0-41.2,0-81.8,0-123.1c1.7,0,3.3,0,4.9,0c40.7,0,81.3-0.2,122,0.2
	c11.4,0.1,22.8,2.1,32.9,8.2c8.3,5.1,11.3,13.4,13.2,22.2c3.8,17.8,1.8,35.9,1.7,53.9c0,9.7-2,19.4-10.1,26.7
	c-8.3,7.5-18,12-28.9,12c-44.3,0.3-88.7,0.1-133.1,0.1C111.2,460.3,110.5,460.2,109.4,460.2z M150.5,430c16,0,32.3,0.1,48.5,0
	c9.4-0.1,19,0.2,28.3-1.1c9.5-1.3,12.4-2.6,14.7-11.4c3.3-12.8,3-25.6,0.1-38.4c-1.3-5.7-5.1-8.8-10.6-9.8
	c-5.2-0.9-10.4-1.8-15.7-1.8c-18.4-0.2-36.8-0.1-55.2-0.1c-3.2,0-6.4,0-10.1,0C150.5,388.4,150.5,408.9,150.5,430z"/>
<path style="fill:#FFFFFF;" d="M431.4,385.7c0,8.7,0,16.7,0,24.9c-32.4,0-64.6,0-97.1,0c0,7.1,0,13.9,0,21.2c34.7,0,69.5,0,104.4,0
	c0,9.6,0,18.8,0,28.2c-47.9,0-95.9,0-144.1,0c0-40.8,0-81.7,0-122.7c48,0,95.8,0,144,0c0,9.2,0,18.5,0,28.2c-34.7,0-69.5,0-104.4,0
	c0,6.9,0,13.3,0,20.1C366.5,385.7,398.8,385.7,431.4,385.7z"/>
<path style="fill:#FFFFFF;" d="M645.4,460.3c-14.4,0-28.3,0-42.2-0.1c-1,0-2.3-1.2-2.9-2.2c-3.2-5.6-6.5-11.2-9.3-17
	c-1.1-2.3-2.5-2.9-4.8-2.9c-25.8,0.1-51.6,0.1-77.3,0c-2.2,0-3.4,0.5-4.5,2.6c-3.1,5.8-6.5,11.5-9.9,17.2c-0.6,0.9-1.6,2.2-2.4,2.2
	c-14.2,0.1-28.4,0.1-43.3,0.1c9.7-16.3,18.9-31.8,28.2-47.4c8.7-14.7,17.3-29.5,26-44.3c5.3-9.1,10.7-18.1,16-27.2
	c1.5-2.6,3.4-3.6,6.5-3.6c15.2,0.2,30.4,0.2,45.6,0c3.4-0.1,4.8,1.4,6.2,3.9c12.9,22.4,25.7,44.8,38.7,67.1
	c9.3,16.1,18.8,32.1,28.3,48.2C644.6,457.9,644.8,458.9,645.4,460.3z M574.6,412.4c-9.1-16-18-31.4-27.3-47.6
	c-9.4,16.4-18.2,31.8-27.2,47.6C538.4,412.4,556,412.4,574.6,412.4z"/>
<path style="fill:#FFFFFF;" d="M696,337.4c0,30.6,0,60.9,0,91.5c30,0,59.8,0,89.8,0c0,10.5,0,20.7,0,31.1c-43.3,0-86.7,0-130.2,0
	c0-40.9,0-81.6,0-122.7C668.8,337.4,682.1,337.4,696,337.4z"/>
<path style="fill:#FFFFFF;" d="M416.1,619.5c0-15.3,0-29.9,0-45.1c4.1,0,8,0,12,0c13,0,26,0,39.1,0c14.3,0,16.4,3.9,17.6,15.2
	c0.7,6.7-0.1,13.7-1.1,20.4c-0.8,5.4-5.7,8.9-11.6,9.5c-0.8,0.1-1.5,0-2.3,0C452,619.5,434.3,619.5,416.1,619.5z"/>
<path style="fill:#FFFFFF;" d="M385.4,865.8c-4,7.9-9.9,13.2-16.8,17.4c-1.4,0.9-3.8,0.2-5.7,0.2c0.2-1.7-0.1-3.8,0.8-5
	C369,871.3,376.5,867.7,385.4,865.8z"/>
<path style="fill:#FFFFFF;" d="M301.7,620.4c-5.5,0-11,0-16.6,0c-9.3-0.1-12.8-1.9-13.9-10.9c-1.1-9.1-0.4-18.4,0.2-27.7
	c0.3-5.1,4.5-7.1,9-7.3c13.6-0.5,27.2-1,40.7-0.9c11.7,0.1,15.7,4.6,15.6,16.5c-0.1,7.1-0.2,14.3-1,21.4c-0.6,5.5-4.7,7.7-9.8,8
	c-8,0.5-16.1,0.9-24.2,1.4C301.8,620.7,301.8,620.6,301.7,620.4z"/>
<path style="fill:#FFFFFF;" d="M705.7,572.1c6.8,11.9,13.4,23.2,20.2,35.2c-13.7,0-26.7,0-40.5,0
	C692.2,595.5,698.8,584.1,705.7,572.1z"/>
<path style="fill:#FFFFFF;" d="M873.6,369.1c-6.6,0-12.7,0-19.3,0c0-11.7-0.1-23.3,0-34.8c0-3.1,0.1-6.4,1-9.4
	c0.6-1.8,2.5-3.9,4.4-4.6c7.6-2.7,13.7,1.1,13.8,8.9C873.8,342.3,873.6,355.5,873.6,369.1z"/>
<path style="fill:#FFFFFF;" d="M892.1,452.2c0,4.3,0,8.6,0,12.9c0,10.1-3,13.5-13,13.6c-5.9,0.1-11.9-0.3-17.7-0.9
	c-5.2-0.5-6.6-5-6.7-8.9c-0.2-12,0.3-24,0.6-36.1c0.1-4.9,3.2-7.6,7.6-7.9c7.2-0.4,14.4-0.7,21.5,0c5.6,0.6,7.6,4.1,7.7,10.8
	C892.1,441.2,892.1,446.7,892.1,452.2z"/>
<path style="fill:#FFFFFF;" d="M618.8,782.1c3.7-9,7.1-18.2,15.8-23.6c2.7-1.7,6.3-1.7,9.6-2.4c0,3.5,1.1,7.3-0.1,10.4
	C641.4,774,629.3,782.2,618.8,782.1z"/>
<path style="fill:#FFFFFF;" d="M261.1,781.2c-0.6,5-1.2,10.1-1.9,15.5c-3.8,1-7.8,2.1-11.8,3.1c-0.3-0.2-0.5-0.5-0.8-0.7
	c4.5-6.2,9.1-12.4,13.6-18.6C260.5,780.8,260.8,781,261.1,781.2z"/>
<path style="fill:#FFFFFF;" d="M580.9,849.3c1.5,7.2,3.1,14.5,4.8,22.5c-3.5-2.6-6.4-4.7-9.1-7c-0.7-0.6-1.2-2.2-0.9-3.1
	c1.3-4.2,2.9-8.4,4.3-12.6C580.2,849.3,580.6,849.3,580.9,849.3z"/>
<path style="fill:#FFFFFF;" d="M747.6,799.8c-2.8-0.4-5-0.4-6.8-1.1c-6.4-2.5-7.1-0.7-7.1-9.1c0-2.8-0.7-5.6,0-8.9
	C738.1,786.9,742.6,793,747.6,799.8z"/>
</svg>
