<?xml version="1.0" encoding="utf-8"?>
<!-- Generator: Adobe Illustrator 24.3.0, SVG Export Plug-In . SVG Version: 6.00 Build 0)  -->
<svg version="1.1" id="Capa_1" xmlns="http://www.w3.org/2000/svg" xmlns:xlink="http://www.w3.org/1999/xlink" x="0px" y="0px"
	 viewBox="0 0 1789.9 291.1" style="enable-background:new 0 0 1789.9 291.1;" xml:space="preserve">
<g>
	<g>
		<g>
			<g>
				<path style="fill:#FFFFFF;" d="M273.1,7.5H59.6c-28.2,0-51.2,23-51.2,51.2v172.5c0,28.2,23,51.2,51.2,51.2h213.5
					c28.2,0,51.2-23,51.2-51.2V58.7C324.3,30.1,301.2,7.5,273.1,7.5z"/>
			</g>
		</g>
		<g>
			<g>
				<path style="fill:#FFFFFF;" d="M438.5,35.7c-3.1,0.5-6.1,2-8.7,3.6l-79.9,46.1v118.8l80.4,46.1c14.8,8.7,33.3,3.6,42-11.3
					c2.6-4.6,4.1-9.7,4.1-15.4V65.4C476.3,46.5,458.4,31.1,438.5,35.7z"/>
			</g>
		</g>
	</g>
	<g>
		<path style="fill:#FFFFFF;" d="M581.2,230.8c-4.2,0-6.1-2-7.3-6.1L530,71.1c-1.2-3.9,0.2-6.1,4.5-6.1h22.3c4,0,5.6,2.2,6.8,6.1
			l22.8,82.9c3.5,13.2,5.6,35.4,5.6,35.4s2.8-22.2,6.3-35.1l22.8-83.1c1.2-3.9,2.8-6.1,7-6.1h20.4c4,0,5.4,2.2,4.2,6.1l-43.7,153.6
			c-1.2,4.1-3.3,6.1-7.5,6.1H581.2z"/>
		<path style="fill:#FFFFFF;" d="M698.6,224.5c0,4.4-1.4,6.3-5.6,6.3h-20.4c-4.2,0-5.6-2-5.6-6.3V71.3c0-4.4,1.4-6.3,5.6-6.3H693
			c4.2,0,5.6,2,5.6,6.3V224.5z M698.4,46.2c0,4.4-1.4,5.9-5.6,5.9h-20c-4.2,0-5.6-1.5-5.6-5.9v-20c0-4.1,1.4-6.1,5.6-6.1h20
			c4.2,0,5.6,2,5.6,6.1V46.2z"/>
		<path style="fill:#FFFFFF;" d="M730.3,230.8c-3.8,0-4.9-2.2-4.9-6.3V71.3c0-4.4,1.4-6.3,5.6-6.3h51.2c42.5,0,57.3,19.3,57.3,39.7
			V191c0,20.5-14.8,39.7-57.3,39.7H730.3z M757.1,92.3v111.2h25.1c16,0,25.6-6.1,25.6-18.3v-74.6c0-12.2-9.6-18.3-25.6-18.3H757.1z"
			/>
		<path style="fill:#FFFFFF;" d="M869.6,230.8c-4.2,0-5.6-2-5.6-6.3V71.3c0-4.4,1.4-6.3,5.6-6.3H950c4,0,5.9,1.5,5.9,5.9v15.4
			c0,4.4-1.9,6.1-5.9,6.1h-54.3v39.5H946c4.2,0,6.1,1.5,6.1,5.9v14.6c0,4.1-1.9,5.9-6.1,5.9h-50.3v45.4h56.6c4.2,0,5.9,1.5,5.9,5.9
			v15.4c0,4.4-1.6,6.1-5.9,6.1H869.6z"/>
		<path style="fill:#FFFFFF;" d="M975.8,102.8c0-20.5,14.6-39.7,57.1-39.7s57.1,19.3,57.1,39.7V193c0,20.5-14.6,39.7-57.1,39.7
			s-57.1-19.3-57.1-39.7V102.8z M1058.3,108.6c0-12.2-9.6-18.3-25.4-18.3c-15.7,0-25.1,6.1-25.1,18.3v78.5
			c0,12.2,9.4,18.3,25.1,18.3c15.7,0,25.4-6.1,25.4-18.3V108.6z"/>
		<path style="fill:#FFFFFF;" d="M1186.1,172v52.4c0,4.4-1.4,6.3-5.6,6.3H1160c-4.2,0-5.6-2-5.6-6.3V71.3c0-4.4,1.4-6.3,5.6-6.3
			h49.3c42.5,0,56.8,19.3,56.8,39.7v27.6c0,20.5-14.3,39.7-56.8,39.7H1186.1z M1186.1,92.3v52.4h23.3c15.7,0,25.4-6.1,25.4-18v-16.1
			c0-12.2-9.6-18.3-25.4-18.3H1186.1z"/>
		<path style="fill:#FFFFFF;" d="M1282.1,102.8c0-20.5,14.6-39.7,57.1-39.7s57.1,19.3,57.1,39.7V193c0,20.5-14.6,39.7-57.1,39.7
			s-57.1-19.3-57.1-39.7V102.8z M1364.6,108.6c0-12.2-9.6-18.3-25.4-18.3c-15.7,0-25.1,6.1-25.1,18.3v78.5
			c0,12.2,9.4,18.3,25.1,18.3c15.7,0,25.4-6.1,25.4-18.3V108.6z"/>
		<path style="fill:#FFFFFF;" d="M1538.4,224.7c2.1,2.9,1.2,6.1-3.1,6.1h-26.1c-4,0-6.3-3.2-8.5-6.1l-44.2-63.9h-4v63.9
			c0,4.1-1.4,6.1-5.6,6.1h-20.4c-4.2,0-5.6-2-5.6-6.1V71.1c0-4.1,1.4-6.1,5.6-6.1h20.4c4.2,0,5.6,2,5.6,6.1v65.6h3.8l41.8-65.6
			c2.1-3.4,5.2-6.1,9.4-6.1h21.8c4.2,0,4.9,2.9,2.8,6.1l-49.1,75.3L1538.4,224.7z"/>
		<path style="fill:#FFFFFF;" d="M1557.9,230.8c-4.2,0-5.6-2-5.6-6.3V71.3c0-4.4,1.4-6.3,5.6-6.3h80.3c4,0,5.9,1.5,5.9,5.9v15.4
			c0,4.4-1.9,6.1-5.9,6.1H1584v39.5h50.3c4.2,0,6.1,1.5,6.1,5.9v14.6c0,4.1-1.9,5.9-6.1,5.9H1584v45.4h56.6c4.2,0,5.9,1.5,5.9,5.9
			v15.4c0,4.4-1.6,6.1-5.9,6.1H1557.9z"/>
		<path style="fill:#FFFFFF;" d="M1698.4,167.6v56.8c0,4.4-1.4,6.3-5.6,6.3h-20.4c-4.2,0-5.6-2-5.6-6.3V71.3c0-4.4,1.4-6.3,5.6-6.3
			h49.3c42.5,0,56.8,19.3,56.8,39.7v23.2c0,14.4-7,28-25.8,35.1l25.4,61.4c1.6,3.9-1.2,6.3-5.4,6.3h-20.7c-3.3,0-4.2-2.4-5.9-6.3
			l-23-56.8h-1.4H1698.4z M1698.4,92.3v48h23.3c15.7,0,25.4-6.1,25.4-18.3v-11.5c0-12.2-9.6-18.3-25.4-18.3H1698.4z"/>
	</g>
</g>
</svg>
