<?xml version="1.0" encoding="utf-8"?>
<!-- Generator: Adobe Illustrator 26.1.0, SVG Export Plug-In . SVG Version: 6.00 Build 0)  -->
<svg version="1.1" id="Layer_1" xmlns="http://www.w3.org/2000/svg" xmlns:xlink="http://www.w3.org/1999/xlink" x="0px" y="0px"
	 viewBox="0 0 1056.6 202" style="enable-background:new 0 0 1056.6 202;" xml:space="preserve">
<g id="Livello_1_1_">
</g>
<g id="Layer_1_00000121280000816817959920000000882230360127541942_">
</g>
<path style="fill:#FFFFFF;" d="M237.5,112.2v24.1h-20.1V58.7h34c16.8,0,28.2,9.4,28.2,26.7s-11.5,26.7-28.2,26.7L237.5,112.2
	L237.5,112.2z M249.3,75.8h-11.8v19.4h11.8c7.3,0,10.6-3.9,10.6-9.7S256.6,75.8,249.3,75.8L249.3,75.8z"/>
<path style="fill:#FFFFFF;" d="M308.3,136.3h-19.8v-82h19.8L308.3,136.3L308.3,136.3z"/>
<path style="fill:#FFFFFF;" d="M349.3,102.1c0-4.4-4.1-7.5-12.2-7.5c-5.4,0-11,1.3-15.5,4.1V82.7c4.7-2.5,12.2-4.4,20.3-4.4
	c16.8,0,26.4,8,26.4,23v35.1h-19.1v-2.9c-1.9,1.9-7.3,3.9-13.4,3.9c-11.2,0-20.8-6.3-20.8-18.4c0-11,9.6-18,21.8-18
	c4.8,0,10.1,1.5,12.4,3.1V102.1L349.3,102.1z M349.3,117c-1.3-2.4-4.4-3.9-8-3.9c-3.9,0-7.8,1.6-7.8,5.4c0,3.8,3.9,5.6,7.8,5.6
	c3.5,0,6.7-1.5,8-3.8V117L349.3,117z"/>
<path style="fill:#FFFFFF;" d="M386,156.3l8.3-21.5l-21.2-55.4h20.5l10.8,32.3l10.6-32.3h19.7l-29.3,76.9L386,156.3L386,156.3z"/>
<path style="fill:#FFFFFF;" d="M491.1,119.7L471.2,92v44.4h-19.8V58.9h18.7l21.2,31.6l21.3-31.6h18.7v77.5h-19.9V92l-19.8,27.8
	L491.1,119.7L491.1,119.7z"/>
<path style="fill:#FFFFFF;" d="M573.7,101.7c0-4.4-4.1-7.5-12.2-7.5c-5.4,0-11,1.3-15.5,4.1V82.3c4.7-2.5,12.2-4.4,20.3-4.4
	c16.8,0,26.4,8,26.4,23v35.1h-19.1V133c-1.9,1.9-7.3,3.9-13.4,3.9c-11.2,0-20.8-6.3-20.8-18.4c0-11,9.6-18,21.8-18
	c4.8,0,10.1,1.5,12.4,3.1L573.7,101.7L573.7,101.7z M573.7,116.7c-1.3-2.4-4.4-3.9-8-3.9c-3.9,0-7.8,1.6-7.8,5.4
	c0,3.8,3.9,5.6,7.8,5.6c3.5,0,6.7-1.5,8-3.8V116.7L573.7,116.7z"/>
<path style="fill:#FFFFFF;" d="M628.5,136.4h-19.7V95h-9.9V79.6h9.9V64h19.7v15.6h11.1V95h-11.1V136.4z"/>
<path style="fill:#FFFFFF;" d="M686,98.5c-2.4-1.3-5.1-1.8-8.2-1.8c-5.4,0-9.1,2.4-10.1,6.4v33.3h-19.8V79.6h19.8v5.1
	c2.8-3.8,7.2-6.3,12.9-6.3c2.5,0,4.5,0.5,5.4,1L686,98.5L686,98.5z"/>
<path style="fill:#FFFFFF;" d="M703.9,74.9c-6,0-11.2-4.2-11.2-10.6s5.2-10.7,11.2-10.7s11.2,4.2,11.2,10.7S709.9,74.9,703.9,74.9z
	 M713.8,136.4h-19.8V79.6h19.8L713.8,136.4L713.8,136.4z"/>
<path style="fill:#FFFFFF;" d="M761.1,107.4l19.9,29h-21.5l-9.7-14.7l-9.7,14.7h-20.5l19.8-28.9l-18.9-27.9h21.3l8.9,13.6l9-13.6
	h20.5L761.1,107.4L761.1,107.4z"/>
<path style="fill:#FFFFFF;" d="M105.1,9.8c-51,0-92.2,41.3-92.2,92.2s41.3,92.2,92.2,92.2s92.2-41.3,92.2-92.2S156,9.8,105.1,9.8
	 M76.6,176.7c-14.2,7-36.5-9.2-49.7-36.1s-12.5-54.4,1.6-61.4s36.5,9.2,49.7,36.1S90.8,169.8,76.6,176.7 M50.1,45.6
	c0-17.3,24.6-31.4,55.1-31.4s55.1,14,55.1,31.4S135.7,77,105.2,77S50.1,62.9,50.1,45.6 M118.6,177.3c-15.1-10.6-13.4-39.1,3.8-63.6
	s43.4-35.8,58.6-25.3s13.4,39.1-3.8,63.6S133.7,187.9,118.6,177.3"/>
<path style="fill:#FFFFFF;" d="M142.1,39.1c2.2,1.5,1.7,3.9-1.1,5.4c-2.8,1.5-7,1.6-9.3,0.1c-0.2-0.2-0.4-0.3-0.5-0.5l0,0l-14.8,0.1
	c-0.7,0.8-1.7,1.6-3,2.3c-1.2,0.6-2.5,1.1-3.8,1.4l-2.2,9.1c0.2,0.1,0.5,0.2,0.7,0.4c2.4,1.6,1.8,4.2-1.3,5.8s-7.7,1.8-10,0.2
	c-2.4-1.6-1.7-4.2,1.5-5.9c0.3-0.2,0.6-0.3,0.9-0.4l0,0l2.2-9c-1.3-0.3-2.7-0.8-3.7-1.4c-0.9-0.6-1.6-1.3-2-2l-16.2,0.1
	c-0.2,0.2-0.5,0.3-0.9,0.5c-3.3,1.6-8,1.6-10.4,0.1c-2.4-1.6-1.6-4.2,1.6-5.8s7.9-1.6,10.3,0c0.2,0.2,0.4,0.3,0.6,0.5h15.8
	c0.8-0.9,1.8-1.6,3.1-2.3c1.3-0.6,2.5-1.1,3.9-1.3l2.1-8.7c-0.2-0.1-0.5-0.2-0.7-0.4c-2.3-1.5-1.6-3.9,1.3-5.4
	c3-1.4,7.2-1.3,9.5,0.2c2.2,1.5,1.7,3.9-1.3,5.3c-0.2,0.2-0.5,0.2-0.9,0.4l0,0l-2,8.5c1.3,0.3,2.5,0.8,3.5,1.4c0.9,0.6,1.5,1.3,2,2
	h15c0.2-0.2,0.5-0.3,0.8-0.5C135.8,37.6,139.9,37.6,142.1,39.1L142.1,39.1z"/>
</svg>
