<?xml version="1.0" encoding="utf-8"?>
<!-- Generator: Adobe Illustrator 22.0.0, SVG Export Plug-In . SVG Version: 6.00 Build 0)  -->
<svg version="1.1" id="Layer_1" xmlns="http://www.w3.org/2000/svg" xmlns:xlink="http://www.w3.org/1999/xlink" x="0px" y="0px"
	 viewBox="0 0 1056.6 202" style="enable-background:new 0 0 1056.6 202;" xml:space="preserve">
<g id="Trophy">
	<path style="fill:#FFFFFF;" d="M146.8,157.8H64.4c-4.3,0-7.8,3.2-7.8,7.2v7.2c0,1.2,1,2.2,2.3,2.2c0,0,0,0,0,0h93.3
		c1.3,0,2.3-1,2.3-2.2v-7.2C154.6,161.1,151.1,157.8,146.8,157.8C146.8,157.8,146.8,157.8,146.8,157.8z"/>
	<path style="fill:#FFFFFF;" d="M166.4,40.1h-12.9v-3.9c0-2.6-2.2-4.7-5-4.7H63.6c-2.8,0-5,2.1-5,4.7c0,0,0,0,0,0v3.9H45.1
		c-6.4,0-11.5,4.8-11.5,10.8v7c-0.2,11.4,6.2,22,16.6,27.9c4.5,2.4,9.5,3.8,14.6,4.2c0.1,0,0.2,0,0.3,0c0.2,0,0.4,0,0.5,0
		c4.9,7.5,12.2,13.5,20.8,17.1c6.4,2.8,10.5,8.9,10.4,15.5v8c0,3-2.6,5.4-5.8,5.4h-12c-3.9,0-7,2.9-7,6.6v9H140v-9
		c0-3.6-3.1-6.6-7-6.6h-12c-3.2,0-5.8-2.4-5.8-5.4v-8c-0.1-6.6,4-12.7,10.4-15.5c8.6-3.7,15.8-9.6,20.7-17.1c0.1,0,0.2,0,0.3,0
		c5.1-0.3,10.1-1.7,14.6-4.2c10.5-5.9,16.8-16.5,16.6-27.9v-7C177.9,44.9,172.7,40.1,166.4,40.1z M54.7,78.5
		C47,74.1,42.4,66.3,42.5,57.9v-7c0-1.3,1.2-2.4,2.6-2.4h13.5v18.2c0,4.8,0.9,9.6,2.5,14.2C58.9,80.4,56.7,79.6,54.7,78.5z
		 M124,68.8l-5.4,3.7c-1.3,0.9-1.8,2.4-1.3,3.8l2.1,6c0.6,1.8-0.4,3.7-2.3,4.3c-1.1,0.3-2.3,0.2-3.3-0.5l-5.4-3.7
		c-1.3-0.9-3-0.9-4.3,0l-5.4,3.7c-1.6,1.1-3.9,0.8-5.1-0.8c-0.7-0.9-0.9-2-0.5-3.1l2.1-6c0.5-1.4,0-2.9-1.3-3.8l-5.4-3.7
		c-1.6-1.1-2-3.2-0.8-4.8c0.7-0.9,1.8-1.4,3-1.4H97c1.6,0,3-1,3.5-2.4l2.1-6c0.6-1.8,2.7-2.8,4.6-2.2c1.1,0.3,2,1.2,2.3,2.2l2.1,6
		c0.5,1.4,1.9,2.4,3.5,2.4h6.7c2,0,3.7,1.5,3.7,3.4C125.5,67.1,124.9,68.1,124,68.8z M169,57.9c0.2,8.4-4.5,16.3-12.2,20.6
		c-1.8,1-3.8,1.7-5.8,2.2c1.6-4.5,2.5-9.3,2.5-14.1V48.5h12.9c1.4,0,2.6,1.1,2.6,2.4V57.9z"/>
</g>
<g>
	<path style="fill:#FFFFFF;" d="M240.9,67.5c1,0,1.5,0.4,1.5,1.5v3.1c0,1.1-0.5,1.5-1.5,1.5h-17.3v60.7c0,1-0.4,1.5-1.4,1.5h-4.3
		c-1.1,0-1.5-0.5-1.5-1.5V73.6h-17.3c-1.1,0-1.5-0.4-1.5-1.5V69c0-1.1,0.4-1.5,1.5-1.5H240.9z"/>
	<path style="fill:#FFFFFF;" d="M259.9,120.8c0,5.8,3.9,9.6,14.5,9.6c10.7,0,14.8-3.8,14.8-9.6V69c0-1,0.4-1.5,1.4-1.5h4.2
		c1.1,0,1.4,0.5,1.4,1.5v52.9c0,8-5.1,14.7-21.8,14.7c-16.5,0-21.6-6.6-21.6-14.7V69c0-1,0.4-1.5,1.4-1.5h4.3c1,0,1.4,0.5,1.4,1.5
		V120.8z"/>
	<path style="fill:#FFFFFF;" d="M320.9,108v26.3c0,1-0.3,1.5-1.4,1.5h-4.2c-1,0-1.4-0.5-1.4-1.5V69c0-1,0.4-1.5,1.3-1.5h19.9
		c16.7,0,21.8,6.6,21.8,14.7v11.3c0,6.2-3.1,11.7-12.5,13.7l13.1,27.2c0.4,0.9-0.3,1.5-1.4,1.5h-4.2c-1.1,0-1.3-0.6-1.8-1.5
		L337.6,108h-2.5H320.9z M320.9,73.6v28.3h14.2c10.7,0,14.7-3.8,14.7-9.7v-8.9c0-5.8-3.9-9.6-14.7-9.6H320.9z"/>
	<path style="fill:#FFFFFF;" d="M416.4,134.3c0,1-0.3,1.5-1.4,1.5h-3.8c-0.7,0-1.1-0.2-1.4-0.7l-26.6-47.2c-2.2-3.8-3.3-6.2-3.4-6.5
		v52.9c0,1-0.4,1.5-1.4,1.5h-3.8c-1.1,0-1.5-0.5-1.5-1.5V69c0-1,0.4-1.5,1.5-1.5h3.8c0.7,0,1,0.2,1.2,0.6l27.2,47.9c0.8,1.4,3,6,3,6
		V69c0-1,0.4-1.5,1.4-1.5h3.8c1.1,0,1.4,0.5,1.4,1.5V134.3z"/>
	<path style="fill:#FFFFFF;" d="M441.3,120.8c0,5.8,3.9,9.6,14.5,9.6c10.7,0,14.8-3.8,14.8-9.6V69c0-1,0.4-1.5,1.4-1.5h4.2
		c1.1,0,1.4,0.5,1.4,1.5v52.9c0,8-5.1,14.7-21.8,14.7c-16.5,0-21.6-6.6-21.6-14.7V69c0-1,0.4-1.5,1.4-1.5h4.3c1,0,1.4,0.5,1.4,1.5
		V120.8z"/>
	<path style="fill:#FFFFFF;" d="M508.5,134.3l-20-65.3c-0.3-1,0.1-1.5,1.1-1.5h4.6c1,0,1.4,0.5,1.7,1.5l14.4,47.1
		c1,3.4,2.1,9.6,2.3,10.5c0.1-0.5,1.1-6.2,2.4-10.3L529.5,69c0.3-1,0.7-1.5,1.7-1.5h4.2c1.1,0,1.5,0.5,1.2,1.5l-20.1,65.3
		c-0.3,1-0.8,1.5-1.8,1.5h-4.3C509.3,135.8,508.8,135.3,508.5,134.3z"/>
	<path style="fill:#FFFFFF;" d="M564.1,69l20.1,65.3c0.3,1-0.1,1.5-1.2,1.5h-4.3c-1,0-1.5-0.5-1.8-1.5l-5.5-17.9h-23l-5.4,17.9
		c-0.3,1-0.7,1.5-1.7,1.5h-4c-1,0-1.4-0.5-1.1-1.5l20-65.3c0.3-1,0.8-1.5,1.9-1.5h4.3C563.3,67.5,563.8,68,564.1,69z M562.5,87.2
		c-1-3.2-2.3-11.1-2.5-12.2c-0.1,0.7-1.3,8.1-2.5,12l-7.4,23.7h19.8L562.5,87.2z"/>
	<path style="fill:#FFFFFF;" d="M617,81.3c0-8,5.2-14.7,21.7-14.7c16.7,0,21.8,6.6,21.8,14.7v40.6c0,8-5.1,14.7-21.8,14.7
		c-16.5,0-21.7-6.6-21.7-14.7V81.3z M653.3,82.4c0-5.8-4-9.6-14.7-9.6c-10.5,0-14.6,3.8-14.6,9.6v38.4c0,5.8,4,9.6,14.6,9.6
		c10.6,0,14.7-3.8,14.7-9.6V82.4z"/>
	<path style="fill:#FFFFFF;" d="M691.6,98.1c0.9,1.9,1.4,3.6,1.5,3.8c0-0.2,0.9-2.6,1.5-3.8L709.9,69c0.4-0.8,0.8-1.5,1.8-1.5h4.2
		c1,0,1.5,0.5,1,1.5l-20.2,39v26.3c0,1-0.4,1.5-1.5,1.5H691c-1,0-1.5-0.5-1.5-1.5v-25.5L669.2,69c-0.5-1,0-1.5,1-1.5h4.8
		c1,0,1.4,0.6,1.8,1.5L691.6,98.1z"/>
	<path style="fill:#FFFFFF;" d="M734.7,120.8c0,5.8,3.9,9.6,14.5,9.6c10.7,0,14.8-3.8,14.8-9.6V69c0-1,0.4-1.5,1.4-1.5h4.2
		c1.1,0,1.4,0.5,1.4,1.5v52.9c0,8-5.1,14.7-21.8,14.7c-16.5,0-21.6-6.6-21.6-14.7V69c0-1,0.4-1.5,1.4-1.5h4.3c1,0,1.4,0.5,1.4,1.5
		V120.8z"/>
	<path style="fill:#FFFFFF;" d="M831.9,134.3c0,1-0.3,1.5-1.4,1.5h-3.8c-0.7,0-1.1-0.2-1.4-0.7l-26.6-47.2c-2.2-3.8-3.3-6.2-3.4-6.5
		v52.9c0,1-0.4,1.5-1.4,1.5H790c-1.1,0-1.5-0.5-1.5-1.5V69c0-1,0.4-1.5,1.5-1.5h3.8c0.7,0,1,0.2,1.2,0.6l27.2,47.9c0.8,1.4,3,6,3,6
		V69c0-1,0.4-1.5,1.4-1.5h3.8c1.1,0,1.4,0.5,1.4,1.5V134.3z"/>
	<path style="fill:#FFFFFF;" d="M857.3,129.6h28.1c1,0,1.4,0.4,1.4,1.4v3.2c0,1.1-0.4,1.5-1.4,1.5h-34.1c-0.8,0-1.2-0.5-1.2-1.5V69
		c0-1,0.4-1.5,1.4-1.5h4.3c1,0,1.4,0.5,1.4,1.5V129.6z"/>
	<path style="fill:#FFFFFF;" d="M920.7,69l20.1,65.3c0.3,1-0.1,1.5-1.2,1.5h-4.3c-1,0-1.5-0.5-1.8-1.5l-5.5-17.9h-23l-5.4,17.9
		c-0.3,1-0.7,1.5-1.7,1.5h-4c-1,0-1.4-0.5-1.1-1.5l20-65.3c0.3-1,0.8-1.5,1.9-1.5h4.3C919.9,67.5,920.4,68,920.7,69z M919.1,87.2
		c-1-3.2-2.3-11.1-2.5-12.2c-0.1,0.7-1.3,8.1-2.5,12l-7.4,23.7h19.8L919.1,87.2z"/>
	<path style="fill:#FFFFFF;" d="M959.3,108v26.3c0,1-0.3,1.5-1.4,1.5h-4.2c-1,0-1.4-0.5-1.4-1.5V69c0-1,0.4-1.5,1.3-1.5h19.9
		c16.7,0,21.8,6.6,21.8,14.7v11.3c0,6.2-3.1,11.7-12.5,13.7l13.1,27.2c0.4,0.9-0.3,1.5-1.4,1.5h-4.2c-1.1,0-1.3-0.6-1.8-1.5L976,108
		h-2.5H959.3z M959.3,73.6v28.3h14.2c10.7,0,14.7-3.8,14.7-9.7v-8.9c0-5.8-3.9-9.6-14.7-9.6H959.3z"/>
	<path style="fill:#FFFFFF;" d="M1018.6,134.3c0,1-0.3,1.5-1.4,1.5h-4.2c-1,0-1.4-0.5-1.4-1.5V69c0-1,0.4-1.5,1.4-1.5h4.2
		c1.1,0,1.4,0.5,1.4,1.5V134.3z"/>
</g>
</svg>
