<?xml version="1.0" encoding="utf-8"?>
<!-- Generator: Adobe Illustrator 24.1.2, SVG Export Plug-In . SVG Version: 6.00 Build 0)  -->
<svg version="1.1" id="Layer_1" xmlns="http://www.w3.org/2000/svg" xmlns:xlink="http://www.w3.org/1999/xlink" x="0px" y="0px"
	 viewBox="0 0 800 243" style="enable-background:new 0 0 800 243;" xml:space="preserve">
<style type="text/css">
	.st0{fill:#FFFFFF;}
</style>
<path class="st0" d="M237.5,148.2c0,6,0,12.1,0,18.1c0.1,9.8-4.3,17-12.8,21.7c-26,14.3-52,28.7-77.9,43.1
	c-8.7,4.8-17.2,4.7-25.7-0.4c-25.6-15.1-51.3-30.1-77-45.2c-5-3-5.7-6.4-2.1-11c9.4-12.3,26.8-15.5,39.9-7.2
	c10.2,6.4,20.4,12.6,31.9,16.4c18.1,6,35.5,4.4,51.5-6.1c12.1-8,17.1-19.8,15.6-34.1c-0.9-8.5-6.1-14.5-13.9-17.9
	c-11.1-4.9-22.3-9.5-33.5-14.3c-8.4-3.6-14-9.6-15.4-18.9c-1.8-11.7,6.9-23.6,18.7-25.5c5-0.8,9.8-0.2,14.4,2
	c23.6,11.5,47.3,22.7,70.7,34.4c9.5,4.8,14.8,13.1,15.5,23.8c0.5,7,0.1,14,0.1,21C237.4,148.2,237.4,148.2,237.5,148.2z"/>
<path class="st0" d="M131.7,171.4c-2.9-0.8-6.3-1.3-9.4-2.7C99.1,158,75.9,147.2,52.9,136c-10.1-4.9-15.4-13.6-15.6-25
	c-0.2-11.6-0.1-23.3,0-34.9c0.1-9,4-16,11.9-20.4C76,40.8,102.8,26,129.6,11.3c7.4-4.1,15.2-4,22.5,0.3c24.3,14.2,48.4,28.6,72.6,43
	c3.2,1.9,4.3,4.6,3,8.2c-5.6,15.6-23.3,22.3-37.5,12.7c-8.7-5.8-17.6-11.2-27.4-14.9c-7.9-3-15.9-5.1-24.4-4.9
	c-12.7,0.3-24.5,3.9-34.5,12c-6.9,5.6-10.2,13.2-11.4,21.9c-0.9,6.5,0.1,12.5,4.2,17.8c2.6,3.4,5.8,5.8,9.8,7.4
	c11.3,4.6,22.6,9.2,33.9,13.9c7.6,3.2,12.7,8.5,14.5,16.9c2.1,10.3-4.7,21.1-15,24.3C137.4,170.6,134.8,170.8,131.7,171.4z"/>
<g>
	<path class="st0" d="M762.8,62.9c-4.7,0-9.4,0-14.5,0c0,15.3,0,30.2,0,45.4c-5.1,0-9.8,0-15.1,0c0-15.1,0-30.1,0-45.5
		c-5,0-9.6,0-14.4,0c0-4.6,0-8.9,0-13.8c14.8,0,29.4,0,43.9,0C762.8,53.7,762.8,58.3,762.8,62.9z"/>
	<path class="st0" d="M376.5,108.5c-5.1,0-9.9,0-15.2,0c0-8.7,0-17.4,0-26.2c-3.7,3.5-7.3,6.5-10.5,9.9c-2.4,2.6-4,2.9-6.4,0.1
		c-3-3.5-6.3-6.7-10.1-10.7c0,9.4,0,18,0,26.9c-5.4,0-10.3,0-15.5,0c0-19.7,0-39.4,0-59c3.3-1,5.7-0.1,8,2.5
		c6.7,7.7,13.8,15.1,20.9,22.8c7.1-7.7,14.1-15.1,20.8-22.8c2.3-2.7,4.7-3.5,8.1-2.5C376.5,69,376.5,88.5,376.5,108.5z"/>
	<path class="st0" d="M636.8,109.7c-18.2-0.1-30.6-12.6-30.4-31c0.1-18.1,12.9-30.7,31-30.6c17.8,0.1,30.3,13,30.1,31
		C667.4,97.2,654.8,109.8,636.8,109.7z M651.8,79c0-9.4-6-16.1-14.7-16.1c-8.9,0-15,6.6-15,16.2c0.1,9.4,6.2,16,14.9,16
		C645.6,95,651.8,88.3,651.8,79z"/>
	<path class="st0" d="M487.8,87.6c4,6.6,8,13.2,12.6,20.8c-6.4,0-11.6,0.1-16.7-0.1c-0.8,0-1.7-1.2-2.2-2.1c-2.1-3.6-4-7.2-6-10.8
		c-3.4-6.2-3.4-6.2-11.1-5c0,5.8,0,11.7,0,17.9c-5.3,0-10.2,0-15.3,0c0-19.7,0-39.2,0-58.5c10.6,0,21.1-0.7,31.4,0.2
		c7.8,0.7,12.8,6.2,15,13.7c2.4,8.1,0.7,15.4-5.2,21.6C489.6,86.1,488.8,86.8,487.8,87.6z M464.5,77.4c3.3,0,6.2,0,9.1,0
		c0.6,0,1.2,0,1.8-0.1c3.9-0.5,6.1-3.4,5.9-7.8c-0.1-4.1-2.3-6.5-6.2-6.6c-3.5-0.1-7,0-10.6,0C464.5,67.7,464.5,72.3,464.5,77.4z"/>
	<path class="st0" d="M551.8,90.4c4.3,0,8.7-0.1,13,0.1c0.6,0,1.4,0.8,1.8,1.4c3.3,5,12,6.2,16.5,2.3c2.6-2.3,2.2-6.3-1.1-7.8
		c-2-0.9-4.4-1.1-6.7-1.5c-3.9-0.8-8-1.1-11.8-2.3c-6.1-1.9-10.3-6-11.2-12.7c-0.8-6.9,1.2-12.8,6.8-17.1c8.7-6.7,24-6.4,32.5,0.5
		c4.3,3.5,6.4,8.1,6.4,14.1c-4.4,0-8.6,0.1-12.9-0.1c-0.6,0-1.4-0.7-1.8-1.2c-2.8-4.5-9.4-6.1-13.6-3c-1.2,0.9-2.3,3.1-2.1,4.5
		c0.2,1.4,1.9,3.3,3.3,3.7c3.4,1,6.9,1.2,10.4,1.8c2.6,0.5,5.3,1,7.8,1.8c13.7,4.4,13.1,21.1,6.4,27.8c-9.3,9.2-29.6,9.7-39,0.6
		C553.1,99.9,551.4,95.6,551.8,90.4z"/>
	<path class="st0" d="M306.9,67.1c-4.8,0-9.4,0-14,0c-2.7-5.1-7.7-7.1-13-4.7c-1.5,0.7-3.3,3-3.3,4.5c0,1.5,1.8,3.8,3.3,4.3
		c3.3,1.1,6.9,1.2,10.4,1.8c2.4,0.4,4.8,0.9,7.1,1.6c5.8,1.9,10,5.5,11.2,11.8c1.3,7-0.3,13.1-5.9,17.7c-9.2,7.6-26.6,7.7-35.9,0.2
		c-4.3-3.5-6.5-8-6.4-14c4.5,0,8.7-0.1,12.9,0.1c0.7,0,1.6,0.6,2,1.2c3.6,5,10.6,6.5,15.7,3.2c3.5-2.2,3.5-6.7-0.3-8.4
		c-2-0.9-4.4-1.1-6.7-1.5c-3.9-0.8-8-1.1-11.8-2.3c-6.1-1.9-10.3-6.1-11.1-12.7c-0.8-7,1.3-13,7.2-17.3c8.7-6.4,23.4-6.1,31.9,0.5
		C304.7,56.6,306.9,61.2,306.9,67.1z"/>
	<path class="st0" d="M443.6,108.6c-5.4,0-10.2,0.2-15-0.2c-1.1-0.1-2.4-2.2-2.9-3.6c-1.1-2.8-2.7-3.8-5.8-3.6
		c-4.7,0.3-9.5,0.2-14.2,0c-3-0.1-4.9,0.6-5.7,3.6c-0.7,3.1-2.6,4.1-5.9,3.9c-3.9-0.3-7.9-0.1-12.5-0.1c0.6-1.9,0.9-3.1,1.4-4.3
		c8.3-17.7,16.7-35.4,24.9-53.1c1.1-2.4,2.7-2.7,4.9-2.7c2.1,0,3.8,0.1,4.9,2.6c8.1,17.8,16.5,35.5,24.8,53.2
		C443,105.5,443.1,106.8,443.6,108.6z M412.7,74.1c-2.1,4.9-4,9.3-6,13.9c4.2,0,7.8,0,12,0C416.7,83.3,414.9,79,412.7,74.1z"/>
	<path class="st0" d="M692.6,89.3c0,6.8,0,12.8,0,19.1c-5.2,0-10.1,0-15.3,0c0-19.7,0-39.2,0-59c12.2,0,24.3,0,36.6,0
		c0,4.5,0,8.8,0,13.4c-7.1,0-14,0-21.1,0c0,4.4,0,8.5,0,13c6.1,0,12.3,0,18.6,0c0,4.6,0,8.8,0,13.5
		C705.3,89.3,699.2,89.3,692.6,89.3z"/>
	<path class="st0" d="M532.1,108.5c-5.4,0-9.9,0-15,0c0-15.1,0-30.1,0-45.5c-5,0-9.6,0-14.4,0c0-4.6,0-8.9,0-13.5
		c14.3,0,28.8,0,43.5,0c0,4.3,0,8.6,0,13.2c-4.5,0-9,0-14.1,0C532.1,78.1,532.1,93.1,532.1,108.5z"/>
	<path class="st0" d="M396.4,201.8c-2.5,0-4.6,0-7,0c0-19.7,0-39.3,0-60.1c1.9,1.4,3.5,2.1,4.4,3.3c7,9.2,13.8,18.6,20.7,27.8
		c0.6,0.9,1.3,1.7,2.2,2.8c6.2-8.4,12.3-16.6,18.3-24.8c1.6-2.2,3.1-4.4,4.8-6.4c0.8-0.9,2.1-1.5,3.8-2.7c0,20.7,0,40.3,0,60.1
		c-2.3,0-4.5,0-7,0c0-13.8,0-27.5,0-41.2c-0.2-0.1-0.5-0.2-0.7-0.3c-6.3,8.6-12.6,17.3-19.4,26.4c-6.7-9.2-13-17.8-19.4-26.4
		c-0.3,0.1-0.5,0.2-0.8,0.3C396.4,174.3,396.4,187.9,396.4,201.8z"/>
	<path class="st0" d="M319.1,170.9c2.1,15.6-7.8,29.4-22.4,31.6c-17.5,2.6-32-7-34.9-23.2c-3.2-18.1,6.4-33.6,22.7-36.7
		c15.4-2.9,29.7,4.5,32.3,16.8c-3.6,0.7-6.1,0.8-8.6-3.2c-4.9-7.9-13.2-8.6-21.5-7.3c-12.5,2-20.2,13.9-18.2,27.3
		c2.4,15.7,15.9,24,31,18.8c8.3-2.8,12.3-9,13.3-17.9c-7,0-13.8,0-20.9,0c0-2.1,0-3.9,0-6.1c4.5,0,9,0,13.5,0
		C310,170.9,314.5,170.9,319.1,170.9z"/>
	<path class="st0" d="M609.1,159.3c-4,0.8-6.7,0.7-9-3.4c-4-7-15.3-9.5-24.8-6.4c-9.4,3.1-15.4,12.4-15,23.5
		c0.3,11.5,6.4,19.8,16.3,22.4c13.5,3.6,25.5-3.4,27.9-16.1c0.1-0.7,0.1-1.4,0.1-2.4c-6.9,0-13.7,0-20.8,0c0-2,0-3.8,0-5.8
		c9.1,0,18,0,27,0c3.2,13-6.2,27.4-20.2,30.9c-14.4,3.6-28.5-2.7-34.5-15.3c-6.5-13.8-2.6-30.9,8.8-39.2c9.5-6.9,23.9-7.5,33.9-1.4
		C604,149,607.4,153.3,609.1,159.3z"/>
	<path class="st0" d="M540,202.5c-1.2-1-2.5-1.9-3.5-3c-11.3-13-22.5-26-33.7-38.9c-0.6-0.7-1.3-1.4-2.3-2.6c0,14.8,0,29.1,0,43.7
		c-2.3,0-4.4,0-6.7,0c0-19.6,0-39.2,0-59.8c1.7,1.1,3.1,1.7,4.1,2.8c11.3,12.9,22.5,26,33.7,38.9c0.8,0.9,1.6,1.8,2.7,3.1
		c0-14.9,0-29.3,0-44c2.1,0,4.2,0,6.6,0c0,19.7,0,39.3,0,58.9C540.6,202,540.3,202.3,540,202.5z"/>
	<path class="st0" d="M380.5,201.4c-6.6,1.4-7.7,1.4-9.4-4.2c-2.6-8.4-7.5-11.3-16-10c-5,0.7-10.2,0.3-15.3,0.1
		c-2.5-0.1-3.8,0.8-4.6,3c-0.9,2.3-2.1,4.4-3.1,6.6c-2.8,5.8-2.8,5.8-9.8,4.7c0.4-1.2,0.8-2.2,1.3-3.3c8.3-17.7,16.7-35.4,25.1-53
		c0.5-1.1,2-2.7,2.7-2.6c1.2,0.2,2.6,1.5,3.1,2.7c8.3,17.5,16.5,35.2,24.7,52.8C379.7,199.2,380.1,200.3,380.5,201.4z M351.4,153.7
		c-4.3,9.6-8.3,18.4-12.3,27.3c8.4,0,16.3,0,24.6,0C359.6,171.9,355.7,163.1,351.4,153.7z"/>
	<path class="st0" d="M481.7,142.8c0,1.9,0,3.4,0,5.4c-3,0-6,0-9.2,0c0,16.2,0,31.9,0,48.1c3.3,0,6.5,0,9.8,0c0,2,0,3.5,0,5.3
		c-9.1,0-18,0-27.3,0c0-1.5,0-3.2,0-5.3c3.2,0,6.4,0,9.8,0c0-16.2,0-32,0-48c-3.1,0-5.9,0-9.1,0c0-2,0-3.7,0-5.6
		C464.4,142.8,472.8,142.8,481.7,142.8z"/>
</g>
</svg>
