<?xml version="1.0" encoding="UTF-8"?> <!-- Generator: Adobe Illustrator 25.0.1, SVG Export Plug-In . SVG Version: 6.00 Build 0) --> <svg xmlns="http://www.w3.org/2000/svg" xmlns:xlink="http://www.w3.org/1999/xlink" version="1.1" x="0px" y="0px" viewBox="0 0 1000 1000" style="enable-background:new 0 0 1000 1000;" xml:space="preserve"> <g id="Layer_1"> <g> <path style="fill:#FFFFFF;" d="M197,565.7l78.7,2.2c2.7-31.3,11.7-61.2,26.4-88.3l-66.9-41.5C213.7,476.3,200.2,519.5,197,565.7 L197,565.7z"></path> <path style="fill:#FFFFFF;" d="M249.1,415.8l66.9,41.5c7.4-10.5,15.8-20.5,25.1-29.7c12.9-12.9,27-24,42.2-33.3l-37-69.5 C307.6,347.6,274.4,378.8,249.1,415.8L249.1,415.8z"></path> <path style="fill:#FFFFFF;" d="M487.8,361.7v-78.8c-42.2,1.8-82.3,12.2-118.3,29.5l37,69.5C431.8,370.2,459.3,363.3,487.8,361.7 L487.8,361.7z"></path> <path style="fill:#FFFFFF;" d="M514.1,361.7c31.4,1.8,61.6,10,89,23.9l39.6-68c-38.7-20.4-82.3-32.7-128.6-34.6V361.7L514.1,361.7 z"></path> <path style="fill:#FFFFFF;" d="M660.8,427.5c11.3,11.3,21.3,23.7,29.9,36.8l68.4-38.9c-23.9-38-56-70.4-93.7-94.6l-39.6,68.1 C638.3,407.1,650,416.7,660.8,427.5L660.8,427.5z"></path> <path style="fill:#FFFFFF;" d="M772.1,448.2l-68.4,38.9c13.7,27.6,21.6,57.8,23.1,89.3l78.7,0.7 C804,530.8,792.1,487.1,772.1,448.2L772.1,448.2z"></path> <path style="fill:#FFFFFF;" d="M310.6,748.5c11.5,0,20.9,9.3,20.9,20.9c0,11.5-9.3,20.9-20.9,20.9c-11.5,0-20.9-9.3-20.9-20.9 C289.8,757.9,299.1,748.5,310.6,748.5L310.6,748.5z M331.8,840.8l40.8-67.3c-11.2-7.7-21.7-16.5-31.5-26.3 c-12.4-12.4-23.1-25.9-32.2-40.4l-69.1,37.6C263,783,294.5,815.9,331.8,840.8L331.8,840.8z"></path> <path style="fill:#FFFFFF;" d="M756,754.2L688.3,714c-8,11.8-17.2,22.9-27.5,33.2c-11.9,11.9-24.8,22.2-38.6,31l38.3,68.8 C698.8,823.5,731.4,791.7,756,754.2L756,754.2z"></path> <path style="fill:#FFFFFF;" d="M296.4,683.8c-13.1-27.8-20.4-58.2-21.4-89.7l-78.7-2.2c0.7,46.4,11.7,90.3,31,129.5L296.4,683.8 L296.4,683.8z"></path> <path style="fill:#FFFFFF;" d="M637.6,859.8l-38.3-68.8c-27.6,13.4-57.9,21-89.3,22.2l-0.6,78.7 C555.4,890.7,598.9,879.3,637.6,859.8L637.6,859.8z"></path> <path style="fill:#FFFFFF;" d="M726.5,602.6c-2.1,31.3-10.5,61.4-24.7,88.8l67.7,40.2c20.7-38.5,33.4-82,35.8-128.3L726.5,602.6 L726.5,602.6z"></path> <path style="fill:#FFFFFF;" d="M401.1,457.4c13.6,0,24.6,11,24.6,24.6c0,2-0.2,4-0.7,5.8l67.6,68.1c3.7-1.2,7.7-1.9,11.8-1.9 c4.3,0,8.4,0.7,12.3,2l65.9-66.3c-0.4-1.8-0.6-3.6-0.6-5.5c0-13.6,11-24.6,24.6-24.6c13.6,0,24.6,11,24.6,24.6 c0,13.6-11,24.6-24.6,24.6c-1.8,0-3.6-0.2-5.4-0.6l-64.2,64.6c3.2,5.5,5,12,5,18.8c0,4.2-0.7,8.3-2,12l60.1,60.5 c2-0.6,4.2-0.8,6.4-0.8c13.6,0,24.6,11,24.6,24.6c0,13.6-11,24.6-24.6,24.6c-13.6,0-24.6-11-24.6-24.6c0-1.5,0.1-3,0.4-4.5 l-58.9-59.3c-5.6,3.3-12.1,5.1-19,5.1c-6.8,0-13.1-1.8-18.6-4.9l-59.5,59.9c0.4,1.8,0.6,3.6,0.6,5.5c0,13.6-11,24.6-24.6,24.6 c-13.6,0-24.6-11-24.6-24.6c0-13.6,11-24.6,24.6-24.6c1.8,0,3.6,0.2,5.4,0.6l61.3-61.7c-1.4-3.9-2.1-8.1-2.1-12.5 c0-7,1.9-13.6,5.3-19.2l-65.9-66.4c-1.6,0.4-3.3,0.5-5.1,0.5c-13.6,0-24.6-11-24.6-24.6C376.5,468.5,387.5,457.4,401.1,457.4 L401.1,457.4z M501,787.2c110.2,0,199.8-89.6,199.8-199.8c0-110.2-89.6-199.8-199.8-199.8c-110.2,0-199.8,89.6-199.8,199.8 C301.2,697.6,390.8,787.2,501,787.2L501,787.2z"></path> <path style="fill:#FFFFFF;" d="M483.2,891.6l0.6-78.8c-31.4-2.3-61.4-11.1-88.7-25.6l-40.8,67.3 C392.8,875.8,436.6,888.9,483.2,891.6L483.2,891.6z"></path> </g> <g> <path style="fill:#FFFFFF;" d="M190.6,373.3l-11.3,25.4l-82.1-37.6l-0.3,0.6l70.6,63.3l-10.9,24.6l-94.2-10.4l-0.3,0.6l82.9,35.8 l-11.2,25.2L28.7,454l18.1-40.7l87.8,11.4l0.2-0.5l-67.3-57.5l17.9-40.2L190.6,373.3z"></path> <path style="fill:#FFFFFF;" d="M257.4,304.8l-57.1,62.5l-85-77.7l56-61.3l16.6,15.2L151.8,283l17.1,15.7l33.7-36.9l15.8,14.4 l-33.7,36.9l18.5,16.9l37.3-40.8L257.4,304.8z"></path> <path style="fill:#FFFFFF;" d="M303.8,275.4c-33.8,21.3-47.7,18-69.4-16.3l-9.2-14.6c-21-33.2-18.1-47.5,15.4-68.6l2.7-1.7 c30.1-19,44.9-18.1,58.9,4.1l2.1,3.3l-24.2,15.3l-1.3-2c-5.2-8.3-10.1-9.4-23.3-1.1l-1.7,1.1c-14.6,9.2-15.1,14.7-2.9,34.1 l8.9,14.2c11.7,18.6,17.6,21.3,32.4,12l1.9-1.2c13.9-8.8,14.8-14.3,8.5-24.4l-1.9-3l-20.3,12.8l-11.4-18.1l44-27.7l11.6,18.5 c18.1,28.7,14.4,41.2-18.2,61.7L303.8,275.4z"></path> <path style="fill:#FFFFFF;" d="M456.7,215l-30.2,8.5l-12.2-19.8l-40.6,11.4l-0.2,23.3l-29.2,8.2l5.1-121l39.6-11.1L456.7,215z M402.2,184.6L375,140.3l-0.8,0.2l-0.5,52L402.2,184.6z"></path> <path style="fill:#FFFFFF;" d="M594.6,225.7l-28.9-3.5l2-16.1c2.1-17.1-0.6-20-19.4-22.4l-15.5-1.9l-4.4,35.8l-28.7-3.5l14-114.3 l55.5,6.8c32.4,4,38.2,14.2,35.2,38.5l-0.3,2.7c-2.2,17.8-7.7,26.2-20.1,27.2l-0.1,0.7c13.5,4.2,15.7,9.9,13,31.6L594.6,225.7z M555.7,162.9c13.5,1.7,17.2-1.1,18.8-14.1l0.4-3.5c1.6-13.1-1.5-15.9-15.1-17.6l-20.2-2.5l-4.3,35.1L555.7,162.9z"></path> <path style="fill:#FFFFFF;" d="M647.5,248.7c-36.9-16.2-41-27.1-27.8-57.2l30.3-69l27.1,11.9L648,200.8 c-7.1,16.1-6.1,19.9,9.2,26.6l2.3,1c15.5,6.8,18.9,5,26-11.2l29.1-66.4l27.1,11.9l-30.3,69c-13.2,30.1-23.8,34.5-61,18.1 L647.5,248.7z"></path> <path style="fill:#FFFFFF;" d="M763.5,323l-59.3-47.1l71.7-90.2l23.2,18.4l-57.2,72l36.1,28.7L763.5,323z"></path> <path style="fill:#FFFFFF;" d="M819.7,393.6L767.4,327l90.5-71.2l51.3,65.2L891.5,335l-33.1-42.1l-18.2,14.3l30.9,39.3l-16.8,13.2 l-30.9-39.3L803.7,336l34.1,43.4L819.7,393.6z"></path> <path style="fill:#FFFFFF;" d="M845.2,449.7l-12.1-27l84.1-37.7l-12.9-28.7l21-9.4l37.8,84.4l-21,9.4l-12.8-28.6L845.2,449.7z"></path> </g> </g> <g id="Labels"> </g> </svg> 