<?xml version="1.0" encoding="UTF-8"?> <!-- Generator: Adobe Illustrator 23.0.3, SVG Export Plug-In . SVG Version: 6.00 Build 0) --> <svg xmlns="http://www.w3.org/2000/svg" xmlns:xlink="http://www.w3.org/1999/xlink" version="1.1" id="Ñëîé_1" x="0px" y="0px" viewBox="0 0 300 300" style="enable-background:new 0 0 300 300;" xml:space="preserve"> <g> <path style="fill:#FFFFFF;" d="M128.7,85.6L91.9,240.7c-0.9,3.6,1.4,7.3,5,8.1L252,285.5c3.6,0.9,7.3-1.4,8.1-5l36.7-155.1 c0.9-3.6-1.4-7.3-5-8.1l-155-36.7C133.2,79.7,129.5,82,128.7,85.6z M206.5,224.6c2.4-10,12.3-16.1,22.3-13.8 c10,2.4,16.1,12.3,13.8,22.3c-2.4,10-12.3,16.1-22.3,13.8S204.1,234.6,206.5,224.6z M224.9,147c2.4-10,12.3-16.1,22.3-13.8 c10,2.4,16.1,12.3,13.8,22.3c-2.4,10-12.3,16.1-22.3,13.8S222.5,157,224.9,147z M128.9,206.2c2.4-10,12.3-16.1,22.3-13.8 c10,2.4,16.1,12.3,13.8,22.3c-2.4,10-12.3,16.1-22.3,13.8S126.6,216.2,128.9,206.2z M147.3,128.7c2.4-10,12.3-16.1,22.3-13.8 c10,2.4,16.1,12.3,13.8,22.3c-2.4,10-12.3,16.1-22.3,13.8C151.1,148.6,144.9,138.6,147.3,128.7z"></path> <path style="fill:#FFFFFF;" d="M128.7,85.6L91.9,240.7c-0.9,3.6,1.4,7.3,5,8.1L252,285.5c3.6,0.9,7.3-1.4,8.1-5l36.7-155.1 c0.9-3.6-1.4-7.3-5-8.1l-155-36.7C133.2,79.7,129.5,82,128.7,85.6z M206.5,224.6c2.4-10,12.3-16.1,22.3-13.8 c10,2.4,16.1,12.3,13.8,22.3c-2.4,10-12.3,16.1-22.3,13.8S204.1,234.6,206.5,224.6z M224.9,147c2.4-10,12.3-16.1,22.3-13.8 c10,2.4,16.1,12.3,13.8,22.3c-2.4,10-12.3,16.1-22.3,13.8S222.5,157,224.9,147z M128.9,206.2c2.4-10,12.3-16.1,22.3-13.8 c10,2.4,16.1,12.3,13.8,22.3c-2.4,10-12.3,16.1-22.3,13.8S126.6,216.2,128.9,206.2z M147.3,128.7c2.4-10,12.3-16.1,22.3-13.8 c10,2.4,16.1,12.3,13.8,22.3c-2.4,10-12.3,16.1-22.3,13.8C151.1,148.6,144.9,138.6,147.3,128.7z"></path> <path style="fill:#FFFFFF;" d="M3.1,58.2l35.6,155.4c0.8,3.6,4.5,5.9,8.1,5.1l47.6-10.9l29.2-123.4c1.3-5.4,6.1-9.2,11.7-9.2 c0.9,0,1.9,0.1,2.8,0.3l49,11.5l-15.5-67.5c-0.8-3.6-4.5-5.9-8.1-5.1L8.1,50.1C4.5,50.9,2.2,54.6,3.1,58.2z M131.3,37 c10-2.3,19.9,3.9,22.2,13.9s-3.9,19.9-13.9,22.2s-19.9-3.9-22.2-13.9C115.1,49.2,121.4,39.3,131.3,37z M70.7,159.9 c10-2.3,19.9,3.9,22.2,13.9c2.3,10-3.9,19.9-13.9,22.2s-19.9-3.9-22.2-13.9S60.7,162.2,70.7,159.9z M58.8,108.2 c10-2.3,19.9,3.9,22.2,13.9s-3.9,19.9-13.9,22.2s-19.9-3.9-22.2-13.9S48.8,110.5,58.8,108.2z M46.9,56.4c10-2.3,19.9,3.9,22.2,13.9 s-3.9,19.9-13.9,22.2c-10,2.3-19.9-3.9-22.2-13.9C30.7,68.6,37,58.7,46.9,56.4z"></path> </g> </svg> 