<?xml version="1.0" encoding="UTF-8"?> <!-- Generator: Adobe Illustrator 23.0.3, SVG Export Plug-In . SVG Version: 6.00 Build 0) --> <svg xmlns="http://www.w3.org/2000/svg" xmlns:xlink="http://www.w3.org/1999/xlink" version="1.1" id="katman_1" x="0px" y="0px" viewBox="0 0 1000 1000" style="enable-background:new 0 0 1000 1000;" xml:space="preserve"> <g> <g> <rect x="254" y="606" style="fill:#FFFFFF;" width="88.1" height="320.1"></rect> <path style="fill:#FFFFFF;" d="M773.9,622.6c-13.2-15.4-35.2-16.5-46.3-16.5H588.8c6.6-77.1,8.8-136.6-14.3-163 c-7.7-8.8-16.5-13.2-27.5-14.3c-30.8,0-34.1,29.7-39.6,55.1c-8.8,43-22,102.4-121.2,127.8v258.8h14.3c44.1,0,58.4,9.9,78.2,22 c23.1,14.3,49.6,31.9,123.4,31.9c166.3,0,169.6-40.8,182.8-213.7l3.3-37.4C789.3,652.3,784.9,633.6,773.9,622.6z"></path> </g> <path style="fill:#FFFFFF;" d="M596.8,74.3l-35.3-20.9l0,0l0,0c-5.5-3.3-12.1-4.4-18.7-4.4c-25.3,0-55.1,23.1-76,58.4 c-12.1,20.9-18.7,43-19.8,61.7c-1.1,22,6.6,38.6,20.9,46.3l35.3,20.9c5.5,3.3,12.1,4.4,18.7,4.4c9.9,0,20.9-3.3,31.9-9.9 c16.5-9.9,31.9-27.5,44.1-47.4s18.7-43,19.8-61.7C617.7,99.7,610,83.1,596.8,74.3z M595.1,120.6c0,11-3.3,22-7.7,34.1l-16.5-9.9 c6.6-15.4,9.9-30.8,11-44.1c0-3.3,0-6.6,0-8.8l4.4,2.2C591.8,97.5,596.2,107.4,595.1,120.6z M568.1,187.8l-16.5-9.9 c3.3-4.4,5.5-8.8,8.8-13.2l16.5,9.9C574.8,179,571.5,183.4,568.1,187.8z M548.3,207.6l-15.4-8.8c1.1-1.1,3.3-2.2,4.4-3.3l15.4,8.8 C551.6,205.4,550.5,206.5,548.3,207.6z M485.5,118.4C503.2,87.6,527.4,71,542.8,71c3.3,0,5.5,1.1,7.7,2.2 c6.6,3.3,9.9,13.2,9.9,26.4c0,15.4-6.6,34.1-16.5,51.8c-17.6,30.8-41.9,47.4-57.3,47.4c-3.3,0-5.5-1.1-7.7-2.2 c-6.6-3.3-9.9-13.2-9.9-26.4C469,153.7,474.5,136,485.5,118.4z M514.2,217.5l-4.4-2.2c1.1-1.1,2.2-1.1,4.4-2.2l11,6.6 C520.8,219.7,516.4,218.6,514.2,217.5z"></path> </g> </svg> 