<?xml version="1.0" encoding="UTF-8"?> <!-- Generator: Adobe Illustrator 23.0.3, SVG Export Plug-In . SVG Version: 6.00 Build 0) --> <svg xmlns="http://www.w3.org/2000/svg" xmlns:xlink="http://www.w3.org/1999/xlink" version="1.1" id="katman_1" x="0px" y="0px" viewBox="0 0 1000 1000" style="enable-background:new 0 0 1000 1000;" xml:space="preserve"> <image style="display:none;overflow:visible;enable-background:new ;" width="512" height="512" transform="matrix(1.9531 0 0 1.9531 0 0)"> </image> <polygon style="fill:#FFFFFF;" points="579,49 537,376 479,376 437,49 "></polygon> <rect x="475" y="410" style="fill:#FFFFFF;" width="67" height="66"></rect> <path style="fill:#FFFFFF;" d="M808.2,663.8C713.9,572.7,565.1,561.9,488,563.1c-28.3,0.5-56.6,3.7-84.3,9.6 c-162.9,34.7-198.9,87.6-206.7,112c-2.6,8.2-1,17.2,4.3,24C245.4,765.5,435,778,435,778c223.9,10.8,323.2-21.8,366.7-49.5 C824.3,714.2,827.4,682.4,808.2,663.8z M662,688c-8-26-53-52-162-54s-146,54-146,54c-50-31,12-61,12-61c27-25,144-30,179-25 s124,21,136,50S662,688,662,688z"></path> <path style="fill:#FFFFFF;" d="M152,700c0,0-7,109,348,119s364-119,364-119s89,48,56,133S650,961,590,960S182,978,91,819 C91,819,54,754,152,700z"></path> </svg> 