<?xml version="1.0" encoding="UTF-8"?> <!-- Generator: Adobe Illustrator 22.0.0, SVG Export Plug-In . SVG Version: 6.00 Build 0) --> <svg xmlns="http://www.w3.org/2000/svg" xmlns:xlink="http://www.w3.org/1999/xlink" version="1.1" id="Layer_1" x="0px" y="0px" viewBox="0 0 500 500" style="enable-background:new 0 0 500 500;" xml:space="preserve"> <g transform="translate(0.000000,1080.000000) scale(0.100000,-0.100000)"> <path style="fill:#FFFFFF;" d="M2449.7,10312.9c-54.3-15.9-116.1-47.6-531.2-276.5c-174.6-96.9-480.3-265.6-679.9-375.9 C841,9441.7,809.3,9419.1,755,9317.2c-50.1-95.2-51.8-110.3-51.8-520.4c0-414.3,0.8-421.8,56-534.6c41.8-85.2,132-175.4,223.9-223 c36.8-19.2,211.3-102.7,388.4-186.3s360.8-171.2,409.3-193.8c230.5-110.3,446-208,492.8-223.9c59.3-20,169.6-24.2,236.4-9.2 c106.9,25.1,214.7,110.3,263.9,210.5c72.7,148.7,48.4,305.7-67.7,430.2c-54.3,57.6-112.8,91.9-259.8,151.2 c-105.2,42.6-264.8,106.9-406.8,165.4c-137,56-167.9,73.5-223.9,124.5c-116.9,109.4-152,265.6-101.1,461.9 c29.2,114.4,106.9,236.4,196.3,306.5c105.2,82.7,292.3,163.7,437.7,189.6c86.9,15,271.5,13.4,359.2-3.3 c198-38.4,441-146.2,657.4-289c162-106.9,200.5-121.1,328.3-121.1c76.8,0,106.1,4.2,144.5,17.5c104.4,39.3,204.6,132.8,258.1,243.9 c32.6,68.5,30.9,122.8-6.7,159.5c-20,20-531.2,326.6-1208.6,726.7c-174.6,102.7-215.5,118.6-310.7,121.9 C2519.9,10324.6,2479.8,10321.2,2449.7,10312.9z"></path> <path style="fill:#FFFFFF;" d="M2430.5,9265.4c-147-48.4-258.9-177.9-284-329.9c-25.1-149.5,46.8-309.9,178.7-400.1 c24.2-16.7,119.4-62.6,211.3-101.9c91.9-39.3,187.9-81,213-91.9c25.1-11.7,104.4-45.1,175.4-75.2 c145.3-61.8,202.1-96.9,250.6-154.5c95.2-113.6,122.8-269,79.4-442.7c-19.2-73.5-78.5-194.6-124.5-251.4 c-85.2-105.2-243.1-198.8-426.8-252.3c-333.3-97.7-674.1-15.9-1125.9,269c-169.6,106.9-212.2,121.1-356.7,121.9 c-132.8,0-191.3-15-289.8-76c-68.5-42.6-163.7-141.2-177.9-183.8c-12.5-36.8-5-76,19.2-105.2c10-11.7,120.3-81,243.9-152.9 c124.5-72.7,452.7-265.6,730.9-428.5c278.1-163.7,523.7-304.9,547.1-313.2c60.1-23.4,177.1-28.4,245.6-10.9 c58.5,15,63.5,17.5,831.9,443.5c266.5,147.8,542.1,299.9,612.3,339.1c144.5,79.4,207.1,132.8,250.6,214.7 c51,96.1,53.5,118.6,50.1,568.8c-3.3,451-1.7,437.7-63.5,556.3c-20.9,39.3-52.6,80.2-97.7,126.1c-74.3,75.2,0,34.2-680.7,369.2 c-286.5,140.3-608.9,294.8-714.2,342.5c-61.8,27.6-73.5,30.1-158.7,32.6C2497.4,9280.5,2468.1,9278,2430.5,9265.4z"></path> </g> </svg> 