<svg class="S" xmlns="http://www.w3.org/2000/svg" xmlns:xlink="http://www.w3.org/1999/xlink" xml:space="preserve" id="design" x="0" y="0" version="1.1" viewBox="0 0 126 126"><style>.st1{fill:#fff}.st3{fill:#4e5585}.st4{enable-background:new}.st7{opacity:.2}</style><path fill="#292433" d="M10.3 93.1V32.9L63 2.4l52.7 30.5v60.2L63 123.6z"/><path d="m63 3 52.2 30.2v59.7L63 123 10.8 92.8V33.1L63 3m0-1.2-.5.3-52.2 30.2-.5.3v60.9l.5.3L62.5 124l.5.3.5-.3 52.2-30.2.5-.3V32.6l-.5-.3L63.5 2.1l-.5-.3z" class="st1"/><path fill="#bcae00" d="M115.2 40.3v-7.2L63 3 10.8 33.2v46.1s25.6-11.8 50-13.3c24.3-1.5 54.4-25.7 54.4-25.7z"/><path d="m109.3 63-21.9-5.2c-2.5-.6-4.5-1.7-6.1-3.2l.6-.6L107 31.6l-28.9 16c-.2.1-.3.2-.5.2-.4-2.2-.3-4.7.3-7.4L86.4 5 66.2 40.5c-1.6 2.8-3.7 5.5-6.1 7.8-.1-.1-.2-.2-.3-.2L48.1 37.9l3.7 15.8c0 .2.1.4.1.6-3 1.6-6.1 2.8-9.2 3.5l-26 5.2 21.9 5.2c2.5.6 4.5 1.7 6.1 3.2l-.6.6-25.2 22.4 28.9-16c.2-.1.3-.2.5-.2.4 2.2.3 4.7-.3 7.4L39.5 121l20.3-35.4c1.6-2.8 3.7-5.5 6.1-7.8.1.1.2.2.3.2l11.7 10.2-3.7-15.8c0-.2-.1-.4-.1-.6 3-1.6 6.1-2.8 9.2-3.5l26-5.3z" class="st3"/><path d="M73.3 110.2c-8 0-16-3.3-21.3-8.9l-1.4-1.5L62 86.9h3.8l.6.6.3.3.1.1.2.2.2.2.1.1c.1.1.2.2.3.2.1.1.2.1.3.2l.1.1c.1 0 .1.1.2.1l.2.1c.1 0 .1.1.2.1l.1.1c.1 0 .1.1.2.1l.2.1c.1 0 .1.1.2.1l.1.1c.1 0 .1.1.2.1.1.1.3.2.4.3h.1c.1.1.3.2.4.2l.1.1c.2.1.3.2.5.2h.1c.1.1.3.1.4.2l.1.1c.1 0 .2.1.3.1l.1.1c.1.1.3.1.4.2.1.1.3.1.4.2h.1c.1 0 .2.1.3.1.1 0 .1 0 .2.1.1 0 .1 0 .2.1.1 0 .1 0 .2.1.1 0 .1 0 .2.1h2.4c2.9-.2 3-1.2 3-1.7 0-.2 0-.5-.6-1-.7-.5-1.8-1-3.8-1.9-.4-.2-.7-.3-1.1-.5l-6.5-3c-3.4-1.5-6.1-3.8-8-6.6-2.2-3.3-3-7.2-2.6-11.6.5-5.5 3.3-10.5 7.8-14.3C69.1 48.1 75 46 81.2 46H87c.1 0 .2 0 .3.1.1 0 .2 0 .3.1.1 0 .2 0 .3.1.1 0 .2 0 .3.1.1 0 .2 0 .3.1.1 0 .2.1.3.1h.3c.1 0 .2.1.3.1.1 0 .2.1.3.1.1 0 .2.1.3.1.1 0 .2.1.3.1.1 0 .2.1.3.1.1 0 .2.1.3.1.1 0 .2.1.3.1h.2c.1 0 .2.1.3.1.1 0 .2.1.3.1.1 0 .2.1.3.1.1 0 .2.1.3.1.1 0 .2.1.3.1.1 0 .2.1.3.1.1.1.2.1.3.2h.1s.1 0 .1.1h.1c.1.1.2.1.4.2h.1c.1 0 .1.1.2.1.1.1.3.1.4.2h.1l.1.1.6.3c.2.1.4.2.6.4 0 0 .1 0 .1.1.2.1.3.2.5.3.1 0 .1.1.2.1.1.1.3.2.4.3l.2.2c.1.1.3.2.4.3h.1l.1.1c.2.2.4.3.6.5.1.1.3.3.5.4l.1.1c.2.1.3.3.4.4l.1.1.4.4.1.1.4.4.1.1c.2.2.3.3.4.5l1.3 1.5L93 67.9h-3.8l-.6-.5c-2.9-2.4-5.3-3.4-8-3.6h-1.3c-.1 0-.1 0-.2.1h-.3s-.1 0-.1.1c0 0-.1 0-.1.1h-.4v.6l.1.1.1.1s.1 0 .1.1h.1s.1 0 .1.1h.1s.1 0 .1.1h.1c.1 0 .1.1.2.1s.1.1.2.1.1.1.2.1.1.1.2.1h.1c.1 0 .2.1.2.1l.2.1c.1 0 .2.1.3.1h.1c.1.1.3.1.4.2h.1c.1 0 .2.1.3.1l.1.1.4.2c.1.1 1.6.7 1.6.7.2.1.4.2.5.2l6.3 2.7.6.3.2.1c.1 0 .1.1.2.1l.2.1c.1 0 .1.1.2.1.1.1.3.1.4.2h.1s.1 0 .1.1c.2.1.4.2.5.3.2.1.4.2.5.3l.1.1.1.1c.1.1.2.1.3.2.1 0 .1.1.2.1l.1.1c.1.1.2.1.3.2.1 0 .1.1.2.1l.1.1c.1.1.2.1.3.2.1 0 .1.1.2.2l.1.1.1.1.2.2c.2.1.3.3.4.4l.1.1.4.4.1.1.4.4.1.1c.1.2.3.3.4.5.1.1.1.2.2.3 0 0 0 .1.1.1.1.1.1.2.2.3.1.1.1.2.2.3.1.1.1.2.2.3.1.1.1.2.2.3.1.1.1.2.2.3 0 .1.1.2.1.3.1.1.1.2.2.3v.1c0 .1.1.2.1.2.1.1.1.2.1.3v.1c0 .1.1.2.1.2 0 .1.1.2.1.3v.1c0 .1.1.2.1.2 0 .1.1.2.1.3v.1c0 .1.1.2.1.2 0 .1.1.2.1.3v.1c0 .1 0 .1.1.2v.2c.1.2.1.4.1.6v.1c0 .2.1.4.1.6v.1c0 .2.1.4.1.6v.1c0 .2.1.4.1.6v3.7c0 .3 0 .5-.1.7 0 .2 0 .4-.1.6v.2c0 .1 0 .2-.1.4v1.2c0 .1 0 .2-.1.2 0 .1 0 .2-.1.2 0 .1 0 .1-.1.2v.5c0 .1 0 .2-.1.3v.3c0 .1-.1.2-.1.2l-.1.2c0 .1-.1.2-.1.3v.2c0 .1-.1.2-.1.4v.1c-.1.2-.1.3-.2.5l-.1.2c0 .1-.1.2-.1.3l-.1.2c0 .1-.1.1-.1.2v.1s0 .1-.1.1l-.1.1c0 .1-.1.1-.1.2s-.1.1-.1.2v.1c0 .1-.1.1-.1.2s-.1.1-.1.2l-.1.1c0 .1-.1.1-.1.2s-.1.1-.1.2l-.1.1s0 .1-.1.1v.1c-.1.1-.1.2-.2.3 0 0 0 .1-.1.1-.1.1-.2.3-.2.4v.1c-.1.1-.2.3-.3.5 0 0 0 .1-.1.1-.1.1-.1.2-.2.3 0 0 0 .1-.1.1-.1.1-.2.3-.3.4 0 .1-.1.1-.1.2-.1.1-.2.3-.3.4l-.1.1c-.1.2-.3.3-.4.5l-.1.1c-.1.1-.2.2-.3.4 0 0 0 .1-.1.1l-.1.1-.2.2-.1.1-.3.3-.1.1c-.1.1-.2.2-.4.3h-.1l-.4.4-.1.1-.3.3-.2.1c-.1.1-.2.2-.3.2-.1 0-.1.1-.2.1-.1.1-.2.1-.3.2-.1 0-.1.1-.2.1-.1.1-.2.1-.3.2-.1 0-.1.1-.2.1-.1.1-.2.1-.3.2 0 0-.1.1-.2.1-.1.1-.3.2-.4.3l-.1.1c-.2.1-.3.2-.5.3l-.2.1c-.1.1-.3.1-.4.2 0 0-.1 0-.1.1h-.1c-.1.1-.2.1-.3.2-.1 0-.1.1-.2.1-.1.1-.2.1-.3.2-.1 0-.2.1-.2.1-.1.1-.2.1-.3.2-.1 0-.1.1-.2.1-.1.1-.2.1-.4.2h-.1s-.1 0-.2.1-.3.1-.4.2H86c-.2.1-.4.1-.6.2h-.1c-.2.1-.3.1-.5.2-.1 0-.1 0-.2.1h-.1c-.1 0-.3.1-.4.1-.1 0-.1 0-.2.1-.1 0-.3.1-.4.1-.1 0-.2 0-.3.1-.1 0-.3.1-.4.1-.1 0-.2 0-.3.1-.1 0-.3.1-.4.1h-.3c-.2 0-.3.1-.5.1h-.2c-.2 0-.4.1-.7.1h-.1c-.2 0-.4.1-.6.1h-.3c-.1 0-.3 0-.4.1h-5.7z" class="st3"/><path d="m28.1 88.5-11.2-62h21.9l.4 2.3c.8 4.7 2.6 15.9 4 24.9l9.6-27.2h21.5l-23.4 62H28.1z" class="st3"/><path d="M19.8 28.8h17-1.9z" class="st1"/><g class="st4"><defs><path id="SVGID_1_" d="M34.9 28.8h1.8c.3 1.6 5.2 31.9 6.1 38H41c-.9-6.1-5.8-36.4-6.1-38z" class="st4"/></defs><use xlink:href="#SVGID_1_" fill="#fff" overflow="visible"/><clipPath id="SVGID_2_"><use xlink:href="#SVGID_1_" overflow="visible"/></clipPath><g clip-path="url(#SVGID_2_)"><path d="M34.9 28.8h1.8c.3 1.6 5.2 31.9 6.1 38H41c-.9-6.1-5.8-36.4-6.1-38" class="st1"/></g></g><path d="M69 28.8h1.9L49.2 86.2h-1.8zm-14.6 0h16.5H69z" class="st1"/><path fill="#aa050e" d="M69 28.8 47.4 86.2H30.1L19.8 28.8h15.1c.3 1.6 5.2 31.9 6.1 38l13.4-38H69z"/><path d="m30.8 85.3-10-55.6h13.4c1.6 9.6 6.4 40.8 6.4 40.8L55 29.7h12.9l-21 55.6H30.8z" class="st1"/><path d="m31.8 32-6.9 1.5 2 19.5-3.8-21zm32.4 0-7.1 1.5-10 24 9-25.5z" class="st1"/><path d="m32.5 84-4.9-27.4c1.9-.3 3.7-.5 5.4-.5 1.3 0 2.5.1 3.7.3l2.9 21.8 6.2-18.3c2.4 1.6 4.6 3.7 6.6 6.4L45.6 84H32.5z" class="st7"/><path d="M72.7 94.5h4.1-2.9c-.1 0-.1 0-.2-.1-.1 0-.1 0-.2-.1-.1 0-.1 0-.2-.1-.1 0-.1 0-.2-.1-.1 0-.1 0-.2-.1-.1 0-.1 0-.2-.1-.1 0-.1 0-.2-.1-.1 0-.1 0-.2-.1-.1 0-.2-.1-.3-.1 0 0-.1 0-.1-.1-.1-.1-.3-.1-.4-.2-.1-.1-.3-.1-.4-.2 0 0-.1 0-.1-.1-.1 0-.2-.1-.3-.1 0 0-.1 0-.1-.1-.3.2-.4.2-.6.1h-.1c-.2-.1-.3-.2-.5-.3 0 0-.1 0-.1-.1-.1-.1-.3-.2-.4-.3h-.1c-.2-.1-.3-.2-.5-.3-.1 0-.1-.1-.2-.1s-.1-.1-.2-.1-.1-.1-.2-.1-.1-.1-.2-.1-.1-.1-.2-.1-.1-.1-.2-.1l-.2-.2-.1-.1c-.1-.1-.2-.1-.2-.2l-.1-.1c-.1-.1-.2-.2-.3-.2l-.3-.3-.1-.1c-.1-.1-.2-.1-.2-.2-.1-.1-.2-.1-.2-.2l-.1-.1-.3-.3h-2l.3.3.1.1c.1.1.2.1.2.2l.2.2.1.1.3.3c.1.1.2.2.3.2l.1.1c.1.1.2.1.2.2l.1.1.2.2c.1 0 .1.1.2.1s.1.1.2.1.1.1.2.1.1.1.2.1.1.1.2.1l.1.1c.2.1.3.2.5.3h.1c.1.1.3.2.4.3 0 0 .1 0 .1.1.2.1.3.2.5.3h.1c.2.1.3.2.5.2h.2c.1 0 .2.1.3.1 0 0 .1 0 .1.1.1.1.3.1.4.2.1.1.3.1.4.2 0 0 .1 0 .1.1.1 0 .2.1.3.1h.2c.1 0 .1 0 .2.1.1 0 .1 0 .2.1.1 0 .1 0 .2.1.1 0 .1 0 .2.1.1 0 .1 0 .2.1.1 0 .1 0 .2.1.1 0 .1 0 .2.1h.4c.4-.1.4-.1.5-.1zm9-46.1h3.2c.1 0 .2 0 .3.1.1 0 .2 0 .3.1.1 0 .2 0 .3.1.1 0 .2 0 .3.1.1 0 .2 0 .3.1.1 0 .2 0 .3.1.1 0 .2.1.3.1.1 0 .2 0 .3.1.1 0 .2.1.3.1.1 0 .2.1.3.1.1 0 .2.1.3.1.1 0 .2.1.3.1.1 0 .2.1.3.1.1 0 .2.1.3.1.1 0 .2.1.3.1.1 0 .2.1.3.1.1 0 .2.1.3.1.1 0 .2.1.3.1.1 0 .2.1.3.1.1 0 .2.1.3.1.1 0 .2.1.3.1.1 0 .2.1.3.1.1.1.2.1.3.2.1 0 .2.1.2.1.1.1.3.1.4.2.1 0 .1.1.2.1.2.1.4.2.5.3.2.1.4.2.5.3l.1.1c.2.1.3.2.5.3.1 0 .1.1.2.1.1.1.3.2.4.3.1 0 .1.1.2.1.1.1.3.2.4.3.1 0 .1.1.2.1.2.1.4.3.5.5.1.1.3.2.4.4l.1.1c.1.1.3.2.4.4l.1.1.4.4.1.1.4.4.1.1.4.4-8.1 9.5H92l8.1-9.5-.4-.4-.1-.1-.4-.4-.1-.1-.4-.4-.1-.1-.4-.4-.1-.1c-.1-.1-.3-.2-.4-.4-.2-.2-.4-.3-.5-.5-.1 0-.1-.1-.2-.1-.1-.1-.3-.2-.4-.3-.1-.1-.1-.1-.2-.1-.1-.1-.3-.2-.4-.3-.1 0-.1-.1-.2-.1-.2-.1-.3-.2-.5-.3 0 0-.1 0-.1-.1-.2-.1-.4-.2-.5-.3-.2-.1-.4-.2-.5-.3-.1 0-.1-.1-.2-.1-.1-.1-.2-.1-.4-.2-.1 0-.2-.1-.2-.1-.1-.1-.2-.1-.3-.2H93c-.1 0-.1-.1-.2-.1s-.2-.1-.3-.1c-.1 0-.2-.1-.3-.1-.1 0-.2-.1-.3-.1-.1 0-.2-.1-.3-.1-.1 0-.2-.1-.3-.1-.1 0-.2-.1-.3-.1-.1 0-.2-.1-.3-.1h-.1c-.1 0-.1 0-.2-.1-.1 0-.2-.1-.3-.1-.1 0-.2-.1-.3-.1-.1 0-.2-.1-.3-.1-.1 0-.2-.1-.3-.1-.1 0-.2-.1-.3-.1-.1 0-.2-.1-.3-.1-.1 0-.2-.1-.3-.1H88c-.1 0-.2 0-.3-.1-.1 0-.2 0-.3-.1-.1 0-.2 0-.3-.1-.1 0-.2 0-.3-.1-.1 0-.2 0-.3-.1H81h.6c0-.1.1-.1.1-.1z" class="st1"/><path d="M97.9 91.8V90c0-.2 0-.3.1-.5 0-.2 0-.5.1-.7v-3.7c0-.2 0-.4-.1-.5v-.1c0-.2-.1-.4-.1-.5v-.1c0-.2-.1-.4-.1-.5v-.1c0-.2-.1-.3-.1-.5v-.2c0-.1 0-.1-.1-.2 0-.1-.1-.2-.1-.3 0-.1-.1-.2-.1-.3 0-.1-.1-.2-.1-.3 0-.1-.1-.2-.1-.3 0-.1-.1-.2-.1-.3 0-.1-.1-.2-.1-.2 0-.1-.1-.2-.1-.3 0-.1-.1-.2-.1-.2 0-.1-.1-.2-.1-.3 0-.1-.1-.2-.1-.2-.1-.1-.1-.2-.2-.3 0-.1-.1-.2-.1-.2-.1-.1-.1-.2-.2-.3 0 .2-.1.1-.1 0-.1-.1-.1-.2-.2-.2 0 0 0-.1-.1-.1-.1-.1-.1-.2-.2-.2-.1-.1-.2-.3-.3-.4 0 0 0-.1-.1-.1-.1-.1-.2-.2-.3-.4l-.1-.1-.3-.3c-.1-.1-.2-.2-.4-.3 0 0-.1 0-.1-.1l-.1-.1c-.1 0-.1-.1-.2-.1l-.2-.2c-.1-.1-.2-.1-.3-.2 0-.1 0-.1-.1-.2s-.2-.1-.3-.2c-.1 0-.1-.1-.2-.1-.1-.1-.2-.1-.3-.2-.1 0-.1-.1-.2-.1-.2-.1-.3-.2-.5-.3-.2-.1-.3-.2-.5-.3-.1 0-.1-.1-.2-.1-.1-.1-.2-.1-.4-.2-.1 0-.1-.1-.2-.1s-.2-.1-.3-.1h-.1s-.1 0-.1-.1c-.2-.1-.4-.2-.5-.2l-6.3-2.7c-.2-.1-.4-.2-.5-.2-.1 0-.1 0-.2-.1s-.2-.1-.4-.2c-.1-.1-.3-.1-.4-.2-.1 0-.1 0-.2-.1-.2-.1-.3-.1-.5-.2 0 0-.1 0-.1-.1-.1 0-.2-.1-.3-.1 0 0-.1 0-.1-.1-.1-.1-.2-.1-.3-.2h-.1c-.1-.1-.3-.1-.4-.2h-.1c-.1 0-.2-.1-.3-.1-.1 0-.1-.1-.2-.1h-.1c-.1 0-.2-.1-.3-.1h-.1c-.1 0-.1-.1-.2-.1H78c-.1 0-.2-.1-.2-.1-.1 0-.1-.1-.2-.1h-.1c-.1 0-.1-.1-.2-.1h-.1c-.1 0-.1-.1-.2-.1 0 0-.1 0-.1-.1l-.1-.1s-.1 0-.1-.1l-.1-.1-.1-.1-.1-.1-.1-.1-.1-.1c-.1-.1-.1-.1-.1-.2l-.1-.1-.1-.1v-.1c0-.1-.1-.1-.1-.2v-.1c0-.1-.1-.1-.1-.2v-2.1s0-.1.1-.1c0-.1.1-.1.1-.2 0 0 0-.1.1-.1v-.1s0-.1.1-.1v-.1l.1-.1v-.1l.1-.1.1-.1.1-.1.1-.1.1-.1.1-.1.1-.1s.1-.1.2-.1l.2-.2h.1c.1 0 .1-.1.2-.1h.1c.1 0 .1-.1.2-.1h.1c.1 0 .2-.1.3-.1.1 0 .2-.1.2-.1h.1c.1 0 .1 0 .2-.1h.1c.1 0 .2-.1.2-.1.1 0 .2-.1.3-.1h2.4-4.2c-.1 0-.2 0-.3.1-.1 0-.2 0-.2.1H77c-.1 0-.1 0-.2.1h-.1c-.1 0-.2.1-.2.1-.1 0-.2.1-.3.1h-.1c-.1 0-.1.1-.2.1h-.1c-.1 0-.1.1-.2.1h-.1l-.2.2c-.1 0-.1.1-.2.1l-.1.1-.1.1-.1.1-.1.1-.1.1v.2l-.1.1v.3s0 .1-.1.1c0 .1 0 .1-.1.2v2.3c0 .1 0 .1.1.2v.1c0 .1.1.1.1.2v.1l.1.1.1.1c0 .1.1.1.1.2l.1.1.1.1s.1 0 .1.1l.1.1.1.1s.1 0 .1.1l.1.1s.1 0 .1.1c0 0 .1.1.2.1h.1c.1 0 .1.1.2.1h.1c.1 0 .1.1.2.1s.2.1.2.1h.1c.1 0 .1.1.2.1h.1c.1 0 .2.1.3.1h.1s.1 0 .1.1h.1c.1 0 .2.1.3.1h.1c.1.1.3.1.4.2h.1c.1 0 .2.1.3.1 0 0 .1 0 .1.1.1 0 .2.1.3.1 0 0 .1 0 .1.1.1.1.3.1.5.2.1 0 .1.1.2.1.1.1.3.1.4.2.1.1.2.1.4.2.1 0 .1 0 .2.1.2.1.3.1.5.2l6.3 2.7c.2.1.4.2.5.2 0 0 .1 0 .1.1.1.1.2.1.4.2.1 0 .1.1.2.1.1.1.2.1.4.2.1 0 .1.1.2.1.2.1.3.2.5.3.2.1.3.2.5.3.1 0 .1.1.2.1.1.1.2.1.3.2.1 0 .1.1.2.1.1.1.2.1.3.2.1 0 .1.1.2.1.1.1.2.1.3.2l.2.2c.1.1.2.1.3.2 0 0 .1 0 .1.1.1.1.3.2.4.3l.3.3.1.1c.1.1.2.2.3.4 0 0 0 .1.1.1.1.1.2.3.3.4l.3.3c.1.1.1.2.2.2l.2.2c.1.1.1.2.2.3 0 .1.1.2.1.2.1.1.1.2.2.3 0 .1.1.2.1.2 0 .1.1.2.1.3 0 .1.1.2.1.2 0 .1.1.2.1.3 0 .1.1.2.1.2 0 .1.1.2.1.3 0 .1.1.2.1.3 0 .1.1.2.1.3 0 .1.1.2.1.3 0 .1.1.2.1.3 0 .1.1.2.1.3v.1c0 .2.1.3.1.5v.1c0 .2.1.3.1.5v.1c0 .2.1.4.1.5v.1c0 .2 0 .3.1.5v3.6c0 .2 0 .4-.1.7 0 .2 0 .3-.1.5v1.7c0 .1 0 .1-.1.2 0 .1 0 .1-.1.2 0 .1 0 .2-.1.2 0 .1 0 .1-.1.2 0 .1 0 .2-.1.2 0 .1 0 .1-.1.2 0 .1-.1.2-.1.3 0 .1 0 .1-.1.2 0 .1-.1.2-.1.3 0 .1 0 .1-.1.2 0 .1-.1.2-.1.3v.1c-.1.1-.1.3-.2.4v.1c0 .1-.1.2-.1.3 0 .1 0 .1-.1.2 0 .1-.1.2-.1.3 0 .1-.1.1-.1.2s-.1.1-.1.2-.1.1-.1.2-.1.1-.1.2-.1.1-.1.2-.1.1-.1.2-.1.1-.1.2-.1.1-.1.2c-.1.1-.1.2-.2.3l-.1.1c-.1.1-.1.2-.2.4v.1c-.1.1-.2.3-.3.4l-.1.1c-.1.1-.1.2-.2.3l-.1.1c-.1.1-.2.2-.3.4l-.1.1c-.1.1-.2.2-.3.4 0 0 0 .1-.1.1-.1.1-.2.3-.4.4l-.1.1-.3.3-.1.1c-.1.1-.1.2-.2.2l-.1.1-.2.2-.1.1-.3.3c-.1.1-.3.2-.4.3l-.1.1c-.1.1-.2.2-.3.2-.1 0-.1.1-.2.1-.1.1-.2.1-.3.2-.1 0-.1.1-.2.1-.1.1-.2.1-.3.2-.1 0-.1.1-.2.1-.1.1-.2.1-.3.2-.1 0-.1.1-.2.1-.1.1-.2.1-.3.2-.1 0-.1.1-.2.1-.1.1-.2.2-.4.2 0 0-.1 0-.1.1-.2.1-.3.2-.5.3 0 0-.1 0-.1.1-.1.1-.2.1-.3.2-.1 0-.1.1-.2.1-.1.1-.2.1-.3.2-.1 0-.1.1-.2.1-.1.1-.2.1-.3.1-.1 0-.1.1-.2.1s-.2.1-.3.1c-.1 0-.1.1-.2.1s-.2.1-.3.1c-.1 0-.1.1-.2.1-.1.1-.3.1-.4.2 0 0-.1 0-.1.1-.2.1-.4.1-.5.2h-.1c-.1 0-.3.1-.4.1-.1 0-.1 0-.2.1-.1 0-.2.1-.4.1-.1 0-.2 0-.2.1-.1 0-.2.1-.3.1-.1 0-.2 0-.2.1-.1 0-.2.1-.4.1-.1 0-.2 0-.2.1-.1 0-.2.1-.4.1-.1 0-.1 0-.2.1-.1 0-.3.1-.4.1h-.2c-.2 0-.4.1-.6.1h-.1c-.2 0-.3.1-.5.1h-.2c-.1 0-.3 0-.4.1h-3.7 5.5c.1 0 .3 0 .4-.1h.2c.2 0 .4-.1.5-.1h.1c.2 0 .4-.1.6-.1h.2c.1 0 .3-.1.4-.1.1 0 .2 0 .2-.1.1 0 .2-.1.4-.1.1 0 .2 0 .2-.1.1 0 .2-.1.4-.1.1 0 .2 0 .2-.1.1 0 .2-.1.3-.1.1 0 .2 0 .2-.1.1 0 .2-.1.4-.1.1 0 .1 0 .2-.1.1 0 .3-.1.4-.1h.1c.2-.1.4-.1.5-.2 0 0 .1 0 .1-.1.1-.1.3-.1.4-.2.1 0 .1-.1.2-.1s.2-.1.3-.1c.1 0 .1-.1.2-.1s.2-.1.3-.1c.1 0 .1-.1.2-.1s.2-.1.3-.1c.1 0 .1-.1.2-.1.1-.1.2-.1.3-.2.1 0 .1-.1.2-.1.1-.1.2-.1.3-.2 0 0 .1 0 .1-.1.2-.1.3-.2.5-.3 0 0 .1 0 .1-.1.1-.1.2-.2.4-.2.1 0 .1-.1.2-.1.1-.1.2-.1.3-.2.1 0 .1-.1.2-.1.1-.1.2-.1.3-.2.1 0 .1-.1.2-.1.1-.1.2-.1.3-.2.1 0 .1-.1.2-.1.1-.1.2-.1.3-.2.1 0 .1-.1.2-.1.1-.1.2-.2.3-.2l.1-.1c.1-.1.3-.2.4-.3l.3-.3.1-.1.2-.2.1-.1c.1-.1.1-.2.2-.2l.1-.1.1-.1.3-.3.1-.1.4-.4s0-.1.1-.1c.1-.1.2-.2.3-.4l.1-.1c.1-.1.2-.2.3-.4l.1-.1c.1-.1.1-.2.2-.3l.1-.1c.1-.1.2-.3.3-.4v-.1c.1-.1.2-.2.2-.4l.1-.1c.1-.1.1-.2.2-.3 0-.1.1-.1.1-.2s.1-.1.1-.2.1-.1.1-.2.1-.1.1-.2.1-.1.1-.2.1-.1.1-.2.1-.1.1-.2.1-.1.1-.2.1-.1.1-.2 0-.1.1-.2c0-.1.1-.2.1-.3 0 0 0-.1.1-.1.1-.1.1-.3.2-.4v-.1c0-.1.1-.2.1-.3 0-.1 0-.1.1-.2 0-.1.1-.2.1-.3 0-.1 0-.1.1-.2 0-.1.1-.2.1-.3 0-.1 0-.1.1-.2 0-.1 0-.2.1-.2 0-.1 0-.1.1-.2V92c0-.1 0-.1.1-.2-.6.2-.6.1-.6 0z" class="st1"/><path fill="#045faa" d="M81 48.4c6.2 0 12.7 2.5 17.2 7.7l-8.1 9.5c-3.4-2.7-6.4-4.1-10.4-4.1-3.5 0-5.8 1.3-6 3.9-.3 2.7 2.7 3.7 7.4 5.7l6.3 2.7c6.5 2.8 9.8 7.8 9 15.7-1 9.7-9.5 18.3-23 18.3-6.8 0-14.4-2.6-19.7-8.2L63 89.2c3.5 3.3 8.1 5.6 12.1 5.6 4.3 0 6.3-1.5 6.6-4.1.3-2.7-2.4-3.6-6.8-5.6l-6.4-3c-5.6-2.5-10.1-7.7-9.3-16 .9-9.7 10-17.7 21.8-17.7z"/><path d="M73.6 107c-7 0-13.9-2.8-18.6-7.4l8-9.1c3.7 3.3 8.2 5.2 12 5.2 5.8 0 7.3-2.7 7.5-4.9.3-3.1-2.2-4.2-6.1-5.9-.4-.2-.7-.3-1.1-.5l-6.5-3c-2.9-1.3-5.2-3.2-6.7-5.5-1.8-2.7-2.5-6-2.1-9.7.5-4.6 2.8-8.8 6.5-11.9 3.9-3.2 9-5 14.4-5 6.2 0 12.2 2.6 16.2 6.9l-7 8.3c-3.5-2.7-6.5-3.8-10.3-3.8-1.9 0-3.5.4-4.7 1.1-1.3.8-2.1 2.1-2.3 3.6-.3 3.1 2.4 4.2 6.6 6 .4.2.8.4 1.3.5l6.3 2.7c6.5 2.8 9.3 7.7 8.6 14.9-.5 4.7-2.8 9-6.4 12.2-4.1 3.5-9.5 5.3-15.6 5.3z" class="st1"/><path d="M64 74.5c-1.5-2.3-2.1-5.1-1.8-8.3.4-3.9 2.4-7.6 5.6-10.3 3.4-2.9 8-4.4 12.9-4.4h1.4c-2.9.5-22 4-18.1 23z" class="st1"/><path d="M73.7 105.4c-5.9 0-11.7-2.1-16.1-5.8l5.4-6.1c3.8 2.8 8 4.4 11.7 4.4 8.1 0 9.4-4.8 9.6-6.8.1-.8 0-1.6-.2-2.2 2.9-.6 6-1.8 9.2-3.8.3 1.4.3 3 .2 4.8-.4 4.2-2.4 8-5.7 10.8-3.5 3-8.4 4.7-14.1 4.7z" class="st7"/></svg>