<?xml version="1.0" encoding="utf-8"?>
<!-- Generator: Adobe Illustrator 24.1.2, SVG Export Plug-In . SVG Version: 6.00 Build 0)  -->
<svg version="1.1" id="Layer_1" xmlns="http://www.w3.org/2000/svg" xmlns:xlink="http://www.w3.org/1999/xlink" x="0px" y="0px"
	 viewBox="0 0 451.4 155" style="enable-background:new 0 0 451.4 155;" xml:space="preserve">
<style type="text/css">
	.st0{fill:#FFFFFF;}
	.st1{fill:#01A3FB;}
</style>
<g>
	<g>
		<path class="st0" d="M273.1,48.3c-1.5-4.2-3.7-7.8-6.6-10.6c-2.8-2.9-6.4-5.2-10.6-6.8c-4.2-1.6-8.9-2.4-14.3-2.4
			c-2.3,0-4.5,0.1-7,0.3c-2.4,0.2-4.8,0.5-7.1,0.8c-2.4,0.3-4.5,0.7-6.7,1.1c-2.1,0.5-4.1,0.9-5.7,1.4v78.6l18.3-0.1V93.2
			c2,0.9,4.2,1.6,6.4,2.1c2.3,0.5,4.6,0.7,7.1,0.7c4.6,0,8.7-0.8,12.2-2.5c3.5-1.6,6.4-4,8.8-6.9c2.4-2.9,4.2-6.4,5.4-10.6
			c1.2-4.1,1.8-8.7,1.8-13.7C275.5,57.3,274.7,52.5,273.1,48.3z M243.7,80.6c-1.9,0-3.7-0.2-5.7-0.8c-1.8-0.5-3.4-1.1-4.5-1.8V44.8
			c0.9-0.1,2-0.3,3.4-0.5c1.4-0.1,2.9-0.2,4.5-0.2c5,0,8.8,1.7,11.3,5.1c2.5,3.4,3.8,7.9,3.8,13.6C256.7,74.7,252.3,80.6,243.7,80.6
			z"/>
		<path class="st0" d="M287.4,74.6c0,3.4,0.3,6.6,1,9.3c0.7,2.7,2,5.1,4,7c1.9,1.9,4.5,3.4,7.9,4.5c1.6,0.5,3.4,0.9,5.4,1.1V3.3
			h-18.3V74.6L287.4,74.6z"/>
		<path class="st0" d="M372.3,43.9c-0.9-3.3-2.5-6.1-4.6-8.5c-2.1-2.3-5.1-4.1-8.7-5.3c-3.6-1.2-8.1-1.8-13.6-1.8
			c-2.1,0-4.3,0.1-6.3,0.3c-2.1,0.2-4.1,0.5-6,0.7c-1.9,0.3-3.6,0.6-5.2,1c-1.6,0.3-2.9,0.7-4.1,1l2.4,14.8c2.3-0.8,4.9-1.5,7.9-1.9
			s6.1-0.7,9.3-0.7c4.8,0,8,0.9,10,2.8c1.5,1.5,2.4,3.4,2.7,5.8c-0.6-0.1-1.2-0.2-1.9-0.2c-2-0.2-4.3-0.3-6.8-0.3
			c-3.8,0-7.5,0.3-11.1,1.1c-3.5,0.8-6.7,1.9-9.4,3.6c-2.7,1.7-5,4-6.6,6.8c-1.7,2.8-2.5,6.2-2.5,10.3c0,4.3,0.7,7.8,2.1,10.7
			c1.5,2.9,3.5,5.3,6.1,7.1c2.7,1.8,5.8,3.2,9.5,4c3.2,0.7,6.6,1,10.3,1.1l0,0h0.8c0.5,0,0.8,0,1.1,0c1.4,0,2.7-0.1,4-0.1
			c4.2-0.1,7.9-0.6,11.1-1c4.8-0.8,8.4-1.5,11.1-2V55C373.7,50.9,373.2,47.2,372.3,43.9z M356,81.1c-0.5,0-0.9,0.1-1.5,0.1
			c-1.8,0.1-3.6,0.1-5.5,0.1c-3.6,0-6.4-0.6-8.6-1.8c-2-1.2-3.2-3.4-3.2-6.4c0-1.6,0.3-2.9,1-4c0.7-1,1.7-1.9,2.9-2.5
			c1.2-0.6,2.7-1,4.3-1.2c1.6-0.2,3.4-0.3,5.2-0.3c1.4,0,2.8,0.1,4.4,0.2c0.2,0,0.6,0,0.8,0.1v15.7H356z"/>
		<path class="st0" d="M445.7,30c-3.7,12.4-7.6,24.2-11.7,35.1c-4.1,11-8.5,21.5-13.2,31.8c-0.1,0.2-0.2,0.5-0.3,0.8
			c-2.6,5.7-4.9,10-6.8,13.1h-18.1c2.4-4.1,5.4-10,9.2-18.3c0.1-0.1,0.1-0.3,0.2-0.5c-4.2-8.1-8.4-17.4-12.6-27.6
			s-8.1-21.7-11.9-34.4H400c0.8,3.2,1.8,6.7,2.9,10.4c1.1,3.7,2.3,7.6,3.5,11.3c1.2,3.8,2.5,7.6,3.7,11.2c1.1,3.2,2.3,6.1,3.3,8.8
			c4.3-11.3,7.7-22.1,10.1-30.2c0.1-0.3,0.2-0.7,0.3-1c0.8-2.8,1.5-5.3,2.1-7.8c0.2-0.9,0.5-1.8,0.6-2.5l0,0c0,0,0,0,0-0.1h19.1V30z
			"/>
	</g>
	<g>
		<path class="st1" d="M7.9,62.9c0-5.8,0.9-10.7,2.6-15c1.8-4.3,4.1-7.9,7-10.7c2.8-2.8,6.2-5.1,10-6.6S35,28.3,39,28.3
			c9.2,0,16.5,2.8,21.8,8.5s8,13.9,8,24.8c0,1,0,2.3-0.1,3.5c-0.1,1.2-0.1,2.4-0.2,3.4H26.7c0.5,3.7,2.1,6.8,5.3,9.1
			c3.2,2.3,7.4,3.3,12.6,3.3c3.4,0,6.7-0.3,10-0.9c3.3-0.6,5.9-1.4,7.9-2.3L65,92.6c-1,0.5-2.3,1-4,1.5c-1.7,0.5-3.5,0.9-5.4,1.2
			c-2,0.3-4.2,0.7-6.4,0.9c-2.3,0.2-4.6,0.3-6.9,0.3c-5.9,0-10.9-0.9-15.3-2.6c-4.3-1.7-7.9-4.1-10.7-7.1c-2.8-3.1-5-6.6-6.3-10.6
			S7.9,67.7,7.9,62.9z M51,55.9c-0.1-1.6-0.3-3.1-0.8-4.5c-0.5-1.5-1.1-2.8-2.1-4c-0.9-1.1-2.1-2.1-3.6-2.8
			c-1.5-0.8-3.3-1.1-5.3-1.1s-3.8,0.3-5.3,1c-1.5,0.7-2.7,1.6-3.7,2.8c-1,1.1-1.7,2.5-2.3,4s-0.9,3.1-1.1,4.6H51z"/>
		<path class="st1" d="M97.5,94.8C93.3,86.6,89,77,84.7,66c-4.3-11-8.5-23-12.3-36h19.5c0.8,3.2,1.8,6.7,2.9,10.4
			c1.1,3.7,2.3,7.5,3.5,11.3c1.2,3.8,2.4,7.6,3.6,11.2c1.2,3.6,2.4,6.9,3.5,9.8c1-2.9,2.3-6.2,3.5-9.8c1.2-3.6,2.5-7.4,3.6-11.2
			c1.2-3.8,2.4-7.6,3.5-11.3c1.1-3.7,2-7.2,2.9-10.4h19c-3.8,13-7.9,25-12.3,36c-4.3,11-8.6,20.6-12.8,28.9H97.5z"/>
		<path class="st1" d="M204.1,62.2c0,5.1-0.8,9.7-2.3,14c-1.5,4.2-3.6,7.8-6.4,10.9s-6.1,5.3-10.1,7c-4,1.7-8.3,2.5-13.1,2.5
			c-4.8,0-9.1-0.8-13-2.5c-4-1.7-7.2-4-10.1-7s-5-6.6-6.6-10.9c-1.6-4.2-2.4-8.9-2.4-14s0.8-9.7,2.4-13.9c1.6-4.2,3.8-7.8,6.7-10.7
			c2.8-2.9,6.2-5.2,10.1-6.9c3.8-1.7,8.1-2.5,12.8-2.5s8.9,0.8,12.9,2.5c3.8,1.7,7.2,4,10.1,6.9c2.8,2.9,5,6.6,6.6,10.7
			C203.3,52.5,204.1,57.2,204.1,62.2z M185.4,62.2c0-5.7-1.1-10.1-3.4-13.4c-2.3-3.3-5.4-4.9-9.7-4.9c-4.2,0-7.5,1.6-9.7,4.9
			c-2.3,3.3-3.5,7.7-3.5,13.4s1.1,10.2,3.5,13.5c2.3,3.3,5.5,5,9.7,5c4.2,0,7.5-1.7,9.7-5C184.3,72.4,185.4,68,185.4,62.2z"/>
	</g>
	<g>
		<g>
			<path class="st0" d="M60.1,143.1h7.7v-2.6h-7.7v-4.3h8.7v-2.8H56.6V151h12.8v-2.7h-9.3C60.1,148.2,60.1,143.1,60.1,143.1z
				 M94.5,145.1c-0.6-0.9-1.4-1.9-2.1-2.9c-0.8-1-1.6-2.1-2.5-3.2c-0.8-1-1.7-2-2.5-3.1c-0.8-1-1.6-1.8-2.4-2.5h-2.8V151h3.4v-12.6
				c0.8,0.8,1.6,1.8,2.4,2.8s1.7,2.1,2.5,3.3c0.8,1.1,1.6,2.3,2.4,3.3c0.8,1.1,1.5,2.1,2,3.1h2.9v-17.4h-3.4v11.7H94.5z
				 M110.4,136.2h5.8v14.8h3.4v-14.8h5.8v-2.8h-14.9V136.2z M141.1,143.1h7.7v-2.6h-7.7v-4.3h8.7v-2.8h-12.1V151h12.8v-2.7h-9.3
				v-5.1H141.1z M175.8,147c-0.5-0.7-0.9-1.2-1.4-1.8c-0.5-0.6-0.8-1-1.1-1.4c2.5-0.8,3.7-2.5,3.7-4.9c0-1.9-0.7-3.3-2.1-4.3
				c-1.5-0.9-3.5-1.4-6.2-1.4c-0.8,0-1.6,0-2.5,0.1c-0.9,0.1-1.8,0.2-2.7,0.3v17.3h3.4v-6.7h2.1c0.2,0,0.3,0,0.7,0
				c0.3,0.5,0.7,0.9,1.1,1.4c0.5,0.6,0.8,1,1.2,1.7c0.5,0.6,0.8,1.1,1.2,1.8c0.5,0.6,0.8,1.2,1.1,1.8h3.8c-0.3-0.7-0.7-1.4-1.1-2
				C176.7,148.2,176.2,147.6,175.8,147z M173.2,140.3c-0.2,0.3-0.6,0.7-1,0.9c-0.5,0.2-0.9,0.3-1.6,0.5c-0.7,0.1-1.4,0.1-2.1,0.1
				h-1.5v-5.7c0.6,0,1.2-0.1,2-0.1c0.7,0,1.2,0,1.8,0.1c0.6,0.1,1,0.2,1.5,0.5c0.5,0.2,0.7,0.6,0.9,0.9s0.3,0.8,0.3,1.4
				C173.4,139.4,173.3,140,173.2,140.3z M188.7,136.2h5.8v14.8h3.4v-14.8h5.8v-2.8h-15v2.8H188.7z M226.9,141.3
				c-0.6-1.5-1.2-2.7-1.8-4.1c-0.6-1.2-1.2-2.5-1.8-3.8H220c-0.7,1.2-1.2,2.5-1.8,3.8c-0.6,1.2-1.2,2.6-1.8,4.1
				c-0.6,1.5-1.2,2.9-1.8,4.5c-0.7,1.6-1.4,3.3-2,5.2h3.5c0.2-0.7,0.6-1.4,0.8-2c0.2-0.7,0.6-1.4,0.8-2h7.9c0.2,0.7,0.6,1.4,0.8,2
				c0.2,0.7,0.6,1.4,0.8,2h3.7c-0.7-1.9-1.4-3.6-2-5.2C228.2,144.2,227.5,142.7,226.9,141.3z M218.4,144.3c0.6-1.5,1.1-2.9,1.7-4.2
				s1-2.4,1.5-3.3c0.5,0.9,0.9,1.9,1.4,3.3c0.6,1.2,1.1,2.7,1.7,4.2H218.4z M242.9,151h3.4v-17.5h-3.4V151z M272.9,145.1
				c-0.6-0.9-1.4-1.9-2.1-2.9c-0.8-1-1.6-2.1-2.5-3.2c-0.8-1-1.7-2-2.5-3.1c-0.8-1-1.6-1.8-2.4-2.5h-2.8V151h3.4v-12.6
				c0.8,0.8,1.6,1.8,2.4,2.8c0.8,1,1.7,2.1,2.5,3.3c0.8,1.1,1.6,2.3,2.4,3.3c0.8,1.1,1.5,2.1,2,3.1h2.9v-17.4h-3.4v11.7H272.9z
				 M310,141.9c-0.1-1.5-0.2-2.9-0.5-4.4c-0.1-1.5-0.3-2.8-0.5-4.1H306c-0.5,0.7-0.8,1.5-1.4,2.4c-0.5,0.9-1,1.9-1.5,2.9
				c-0.5,1-1,2-1.5,3.1c-0.5,1-0.9,2-1.4,2.9c-0.5-0.9-0.9-1.8-1.4-2.9c-0.5-1-1-2-1.5-3.1c-0.5-1-1-2-1.5-2.9
				c-0.5-0.9-0.9-1.7-1.4-2.4h-3.2c-0.1,1.2-0.3,2.5-0.5,4s-0.2,2.9-0.5,4.4c-0.1,1.5-0.2,3.1-0.3,4.6c-0.1,1.6-0.2,3.1-0.2,4.5h3.4
				c0.1-2,0.1-4.2,0.2-6.3s0.2-4.3,0.5-6.2c0.2,0.3,0.5,0.8,0.7,1.4c0.2,0.6,0.6,1.1,0.9,1.8c0.3,0.7,0.6,1.2,0.9,1.9
				c0.3,0.7,0.7,1.4,0.9,1.9c0.3,0.7,0.6,1.2,0.8,1.8c0.2,0.6,0.5,1,0.7,1.4h2.6c0.2-0.3,0.5-0.9,0.7-1.4c0.2-0.6,0.6-1.1,0.8-1.8
				c0.3-0.7,0.6-1.2,0.9-1.9s0.7-1.4,0.9-1.9c0.3-0.7,0.6-1.2,0.9-1.8c0.2-0.6,0.5-1,0.7-1.4c0.2,2,0.3,4.1,0.5,6.2s0.2,4.3,0.2,6.3
				h3.4c-0.1-1.5-0.1-2.9-0.2-4.4C310.2,145,310.1,143.5,310,141.9z M327.7,143.1h7.7v-2.6h-7.7v-4.3h8.7v-2.8h-12.1V151h12.8v-2.7
				h-9.3v-5.1H327.7z M362.2,145.1c-0.6-0.9-1.4-1.9-2.1-2.9c-0.8-1-1.6-2.1-2.5-3.2c-0.8-1-1.7-2-2.5-3.1c-0.8-1-1.6-1.8-2.4-2.5
				h-2.8V151h3.4v-12.6c0.8,0.8,1.6,1.8,2.4,2.8s1.7,2.1,2.5,3.3c0.8,1.1,1.6,2.3,2.4,3.3c0.8,1.1,1.5,2.1,2,3.1h2.9v-17.4h-3.4
				v11.7H362.2z M378,133.4v2.7h5.8V151h3.4v-14.8h5.8v-2.7H378z"/>
		</g>
	</g>
</g>
</svg>
