<?xml version="1.0" encoding="utf-8"?>
<!-- Generator: Adobe Illustrator 24.1.2, SVG Export Plug-In . SVG Version: 6.00 Build 0)  -->
<svg version="1.1" id="Layer_1" xmlns="http://www.w3.org/2000/svg" xmlns:xlink="http://www.w3.org/1999/xlink" x="0px" y="0px"
	 viewBox="0 0 192 34.7" style="enable-background:new 0 0 192 34.7;" xml:space="preserve">
<style type="text/css">
	.st0{fill:#FFFFFF;}
</style>
<g>
	<path class="st0" d="M33.4,18.2C33,13,28.7,8.9,23.5,8.9C21.8,3,15.7-0.3,9.8,1.5S0.7,9.3,2.4,15.2c0.9,3.1,3.1,5.6,6,6.9
		c-1,0.6-2,1.2-2.9,2l-1.5,1.4C3.5,26,3.4,27,4,27.7c0.1,0.1,0.1,0.1,0.2,0.2l0,0l1.7,1.3c2.4,1.8,5.4,2.8,8.4,2.8h1.5
		c3,0,6-1,8.4-2.8l0.6-0.4c4.9-0.7,8.6-4.9,8.6-9.9c0-0.1,0-0.3,0-0.4C33.4,18.3,33.4,18.2,33.4,18.2z M31.3,22.8
		c-0.1-0.2-0.3-0.3-0.5-0.3h-3.5l-1.2-1.2l0.9-3.2l1.6-0.7l2.9,1.9c0.2,0.1,0.4,0.1,0.5,0l0.3-0.1c0,1.3-0.4,2.6-1,3.8L31.3,22.8z
		 M25.6,25l-1-0.9c-0.9-0.8-1.9-1.5-3-2.1h3.8l1.2,1.2L25.6,25z M5.6,5.4l6.7,6.7l-1.7,1.7C8.8,12,6.4,11,4,10.8l-0.8-0.1
		C3.4,8.8,4.2,6.9,5.6,5.4z M11.8,3C12,5.4,13,7.8,14.6,9.6L13,11.3L6.3,4.6c1.5-1.4,3.4-2.2,5.4-2.5L11.8,3z M20.4,5.4
		c0.9,1,1.6,2.2,2.1,3.6c-1.7,0.2-3.4,0.8-4.8,1.8c-0.5-0.3-1.1-0.7-1.5-1.1L20.4,5.4z M25.9,10.3l0.1,0.4l-2.5,1.8L21,10.7l0.1-0.4
		C22.6,9.8,24.3,9.8,25.9,10.3L25.9,10.3z M26,18C26,18,26,18,26,18C26,18,26,18,26,18l-0.8,3h-3.4L20.9,18l2.5-1.7L26,18z
		 M20.3,17.2l-2.2-0.9l-1-2.4c0-0.1-0.1-0.2-0.3-0.3l-0.5-0.2c0.9-1.2,2.1-2.1,3.4-2.7c-0.1,0.2,0,0.5,0.2,0.6l2.9,2v2.1L20.3,17.2z
		 M15.8,14.3l0.4,0.2l0.8,2.1L15,18.7l-0.4-0.2C14.6,17,15.1,15.6,15.8,14.3L15.8,14.3z M16.8,11.4c-0.6,0.5-1.1,1.1-1.5,1.7
		c-0.1,0-0.1,0.1-0.1,0.2c0,0,0,0,0,0.1L13.7,12l1.7-1.7C15.8,10.8,16.3,11.1,16.8,11.4L16.8,11.4z M13,12.8l1.6,1.6
		c-0.6,1.2-0.9,2.5-1,3.8c-0.5-1.4-1.2-2.6-2.2-3.7L13,12.8z M14.7,20.4c0-0.2-0.1-0.5-0.1-0.7l0.2,0.1c0.2,0.1,0.4,0.1,0.6-0.1
		l2.4-2.4l2.1,0.8l1,3.4c0,0,0,0.1,0,0.1c-1.8-0.8-3.8-1.3-5.8-1.3C15,20.4,14.8,20.4,14.7,20.4L14.7,20.4z M30.7,13.6
		c0.9,1.3,1.5,2.8,1.7,4.4l-0.4,0.2l-2.6-1.7l0.8-2.9H30.7z M29.8,12.5L29.8,12.5c-0.2,0-0.5,0.2-0.5,0.4l-1,3.4l-1.7,0.8L24,15.4
		v-2.1l2.9-2c0.2-0.1,0.3-0.4,0.2-0.6C28.1,11.1,29,11.8,29.8,12.5z M19.6,4.6l-4.2,4.2c-1.5-1.6-2.4-3.7-2.5-6l-0.1-0.8
		C15.3,2,17.8,2.9,19.6,4.6z M3,11.8l0.8,0.1c2.2,0.2,4.3,1,6,2.5l-4.3,4.3C3.9,16.8,3,14.4,3,11.8z M6.3,19.4l4.3-4.3
		c1.4,1.5,2.2,3.4,2.5,5.4c-1.1,0.2-2.2,0.5-3.3,0.9C8.5,21,7.3,20.3,6.3,19.4z M23.6,28.3c-2.2,1.7-5,2.6-7.8,2.6h-1.5
		c-2.8,0-5.5-0.9-7.8-2.6L4.9,27c-0.2-0.2-0.3-0.5-0.1-0.7c0,0,0,0,0.1-0.1l1.5-1.4c1.1-1,2.3-1.8,3.6-2.3c0.1,0,0.2,0,0.2-0.1
		c4.6-1.9,10-1,13.7,2.4l1.5,1.4c0.2,0.2,0.2,0.5,0,0.7c0,0,0,0-0.1,0.1L23.6,28.3z M26.4,27.2c0.2-0.5,0.2-1-0.1-1.4l1.1-2.3h3
		l0.2,0.5C29.7,25.5,28.2,26.6,26.4,27.2L26.4,27.2z"/>
	<path class="st0" d="M19.8,25.7h-0.5v-0.5c0-0.3-0.2-0.5-0.5-0.5c-0.3,0-0.5,0.2-0.5,0.5v0.5h-1v-0.5c0-0.3-0.2-0.5-0.5-0.5
		c-0.3,0-0.5,0.2-0.5,0.5v0.5h-1v-0.5c0-0.3-0.2-0.5-0.5-0.5c-0.3,0-0.5,0.2-0.5,0.5v0.5h-1v-0.5c0-0.3-0.2-0.5-0.5-0.5
		c-0.3,0-0.5,0.2-0.5,0.5v0.5h-1v-0.5c0-0.3-0.2-0.5-0.5-0.5s-0.5,0.2-0.5,0.5v0.5H9.3c-0.3,0-0.5,0.2-0.5,0.5
		c0,0.3,0.2,0.5,0.5,0.5h0.5v0.5c0,0.3,0.2,0.5,0.5,0.5s0.5-0.2,0.5-0.5v-0.5h1v0.5c0,0.3,0.2,0.5,0.5,0.5c0.3,0,0.5-0.2,0.5-0.5
		v-0.5h1v0.5c0,0.3,0.2,0.5,0.5,0.5c0.3,0,0.5-0.2,0.5-0.5v-0.5h1v0.5c0,0.3,0.2,0.5,0.5,0.5c0.3,0,0.5-0.2,0.5-0.5v-0.5h1v0.5
		c0,0.3,0.2,0.5,0.5,0.5c0.3,0,0.5-0.2,0.5-0.5v-0.5h0.5c0.3,0,0.5-0.2,0.5-0.5C20.3,25.9,20.1,25.7,19.8,25.7z"/>
</g>
<g>
	<path class="st0" d="M45.2,15.2c0-1.3-0.9-1.9-2.5-1.9c-1.7,0-2.5,0.6-2.5,1.9v0.4c0,0.9,0.6,1.2,1.1,1.4l4.5,1.6
		c1.8,0.6,3.1,1.8,3.1,3.7v2c0,2.2-1.5,4.2-6.2,4.2c-4.6,0-6.2-2-6.2-4.2v-1.6c0-0.5,0.2-0.7,0.6-0.7h2.2c0.5,0,0.6,0.2,0.6,0.7v1.2
		c0,1.3,1,1.9,2.7,1.9c1.7,0,2.7-0.6,2.7-1.9V23c0-1.1-1-1.5-2.2-1.9l-4-1.5c-1.2-0.5-2.4-1.8-2.4-3.3v-1.5c0-2.2,1.3-4.2,5.9-4.2
		s6,2,6,4.2v1.1c0,0.4-0.2,0.6-0.6,0.6h-2.2c-0.4,0-0.6-0.2-0.6-0.6V15.2z"/>
	<path class="st0" d="M54.6,22.1v5.6c0,0.5-0.2,0.7-0.6,0.7h-2.3c-0.5,0-0.6-0.2-0.6-0.7V11.4c0-0.5,0.2-0.7,0.6-0.7h5.4
		c4.7,0,6.3,2,6.3,4.2v2.9c0,2.2-1.6,4.2-6.3,4.2H54.6z M54.6,13.6v5.6h2.6c1.7,0,2.8-0.6,2.8-1.9v-1.7c0-1.3-1.1-1.9-2.8-1.9H54.6z
		"/>
	<path class="st0" d="M65.2,14.7c0-2.2,1.6-4.2,6.3-4.2s6.3,2,6.3,4.2v9.6c0,2.2-1.6,4.2-6.3,4.2s-6.3-2-6.3-4.2V14.7z M74.3,15.3
		c0-1.3-1.1-1.9-2.8-1.9s-2.8,0.6-2.8,1.9v8.3c0,1.3,1,1.9,2.8,1.9s2.8-0.6,2.8-1.9V15.3z"/>
	<path class="st0" d="M84,21.6v6c0,0.5-0.2,0.7-0.6,0.7h-2.3c-0.5,0-0.6-0.2-0.6-0.7V11.4c0-0.5,0.2-0.7,0.6-0.7h5.4
		c4.7,0,6.3,2,6.3,4.2v2.5c0,1.5-0.8,3-2.8,3.7l2.8,6.5c0.2,0.4-0.1,0.7-0.6,0.7h-2.3c-0.4,0-0.5-0.3-0.6-0.7l-2.5-6h-0.2H84z
		 M84,13.6v5.1h2.6c1.7,0,2.8-0.6,2.8-1.9v-1.2c0-1.3-1.1-1.9-2.8-1.9H84z"/>
	<path class="st0" d="M108,15.2c0-1.3-0.9-1.9-2.5-1.9c-1.7,0-2.5,0.6-2.5,1.9v0.4c0,0.9,0.6,1.2,1.1,1.4l4.5,1.6
		c1.8,0.6,3.1,1.8,3.1,3.7v2c0,2.2-1.5,4.2-6.2,4.2c-4.6,0-6.2-2-6.2-4.2v-1.6c0-0.5,0.2-0.7,0.6-0.7h2.2c0.5,0,0.6,0.2,0.6,0.7v1.2
		c0,1.3,1,1.9,2.7,1.9c1.7,0,2.7-0.6,2.7-1.9V23c0-1.1-1-1.5-2.2-1.9l-4-1.5c-1.2-0.5-2.4-1.8-2.4-3.3v-1.5c0-2.2,1.3-4.2,5.9-4.2
		s6,2,6,4.2v1.1c0,0.4-0.2,0.6-0.6,0.6h-2.2c-0.4,0-0.6-0.2-0.6-0.6V15.2z"/>
	<path class="st0" d="M117.4,25.4h5.8c0.4,0,0.6,0.2,0.6,0.6v1.6c0,0.5-0.2,0.6-0.6,0.6h-8.7c-0.4,0-0.5-0.2-0.5-0.7V11.4
		c0-0.5,0.2-0.7,0.6-0.7h2.3c0.5,0,0.6,0.2,0.6,0.7V25.4z"/>
	<path class="st0" d="M125,14.7c0-2.2,1.6-4.2,6.3-4.2s6.3,2,6.3,4.2v9.6c0,2.2-1.6,4.2-6.3,4.2s-6.3-2-6.3-4.2V14.7z M134.1,15.3
		c0-1.3-1.1-1.9-2.8-1.9s-2.8,0.6-2.8,1.9v8.3c0,1.3,1,1.9,2.8,1.9s2.8-0.6,2.8-1.9V15.3z"/>
	<path class="st0" d="M150.2,10.7c0.4,0,0.6,0.2,0.6,0.6V13c0,0.5-0.2,0.6-0.6,0.6h-3.7v14c0,0.5-0.2,0.7-0.6,0.7h-2.3
		c-0.5,0-0.6-0.2-0.6-0.7v-14h-3.7c-0.5,0-0.6-0.2-0.6-0.6v-1.6c0-0.5,0.2-0.6,0.6-0.6H150.2z"/>
	<path class="st0" d="M155.9,25.4h5.8c0.4,0,0.6,0.2,0.6,0.6v1.6c0,0.5-0.2,0.6-0.6,0.6h-8.7c-0.4,0-0.5-0.2-0.5-0.7V11.4
		c0-0.5,0.2-0.7,0.6-0.7h2.3c0.5,0,0.6,0.2,0.6,0.7V25.4z"/>
	<path class="st0" d="M170.5,10.7c0.5,0,0.7,0.2,0.8,0.6l4.8,16.3c0.1,0.4,0,0.6-0.5,0.6h-2.3c-0.4,0-0.6-0.2-0.8-0.6l-0.9-3.2h-4.8
		l-0.9,3.2c-0.1,0.4-0.3,0.6-0.8,0.6h-2.1c-0.5,0-0.6-0.2-0.5-0.6l4.8-16.3c0.1-0.4,0.3-0.6,0.8-0.6H170.5z M170.1,18.9
		c-0.3-1.1-0.7-4.4-0.8-4.7c-0.1,0.3-0.5,3.6-0.8,4.7l-0.9,2.9h3.3L170.1,18.9z"/>
	<path class="st0" d="M181.2,21.6v6c0,0.5-0.2,0.7-0.6,0.7h-2.3c-0.5,0-0.6-0.2-0.6-0.7V11.4c0-0.5,0.2-0.7,0.6-0.7h5.4
		c4.7,0,6.3,2,6.3,4.2v2.5c0,1.5-0.8,3-2.8,3.7l2.8,6.5c0.2,0.4-0.1,0.7-0.6,0.7h-2.3c-0.4,0-0.5-0.3-0.6-0.7l-2.5-6h-0.2H181.2z
		 M181.2,13.6v5.1h2.6c1.7,0,2.8-0.6,2.8-1.9v-1.2c0-1.3-1.1-1.9-2.8-1.9H181.2z"/>
</g>
</svg>
