<?xml version="1.0" encoding="UTF-8"?> <svg xmlns="http://www.w3.org/2000/svg" id="Layer_1" data-name="Layer 1" version="1.1" viewBox="0 0 1000 1000"><g><path d="M455.4,527.1c3.4,25,10,48.4,19.6,71.6-19.2-4.5-38.2-4.5-57.5,0,9.7-23.1,16.2-46.7,19.7-71.5-3.4,2.7-6.3,5.3-9.4,7.6-39.4,28.4-95.2,5.7-102.7-42.1-5.5-35.2,5.1-65.4,31.9-89.3,15.2-13.6,30.9-26.7,46.2-40.2,13.5-12,26.4-24.6,36.6-39.7,2.3-3.4,4.3-6.9,6-9.8,4.7,6.8,9.1,14.2,14.4,20.8,9.8,12.4,21.6,23,33.6,33.2,14.1,12.1,28.3,24.2,42.4,36.2,18.7,16,28.8,36.6,32,60.7,2.3,17.2.9,34.1-8.1,49.3-13.9,23.6-35.2,34.4-62.5,32.8-15.5-.9-28.8-7.4-40.1-17.9-.5-.4-1-.8-2.1-1.7Z" style="fill: #fdc440; stroke-width: 0px;"></path><path d="M674.2,186.6c4.5-.7,9.1-1.4,13.6-2.1-1.1-9.4-4.5-17.9-10.8-25.5-10-11.9-22.9-17.8-38.4-17.8H253.3c-28.1,0-49.5,21.4-49.5,49.6v411.6c4.9-.7,9.3-1.2,13.8-1.8,0-1.5,0-2.7-.1-3.7V189.5c0-18.7,15.7-34.5,34.3-34.5,129.4-.1,258.7-.1,388,0,3.1,0,6.4.5,9.4,1.4,14,4.1,23.3,15.7,25,30.2Z" style="fill: #fdc440; stroke-width: 0px;"></path><path d="M143.2,620.6c-2.3-8.4-4.5-16.5-6.7-24.7-12.7-47.4-25.4-94.8-38.2-142.2-10.7-39.8-21.3-79.6-31.9-119.3-1.9-7-4.1-14.1-4.9-21.2-2.8-23.7,12.3-45.7,35.5-52,26.4-7.2,52.8-14.2,79.3-21.3,3.1-.8,6-.8,8.2,1.8,1.7,2,2.2,4.4,1.2,6.9s-2.9,3.7-5.5,4.4c-26.3,7-52.7,14.1-79,21.2-19.1,5.1-30.3,23.9-25.3,43,15.8,59.4,31.8,118.7,47.7,178.1,9.9,37,19.8,74.1,29.7,111.2.6,2.4,1.2,4.8,1.9,7.1.4,1.2.3,2-1.1,2.5-3.3,1.3-6.9,2.9-10.9,4.5Z" style="fill: #fdc440; stroke-width: 0px;"></path><path d="M261.8,252.1c2.9,5.4,8,9,12.5,13,3.4,3,6.8,5.8,8.1,10.6,1.7,6.2.7,11.7-3.4,15-4.4,3.5-9,3.5-15.8-.3,1.1,4.1,2,7.8,3,11.6h-9.4c1-3.8,2-7.5,3.1-11.7-3.6,2.3-6.8,3.7-10.5,3-7.3-1.4-11.3-9-9.1-16.5,1.5-5.2,4.9-8.5,8.7-11.8,2.3-1.9,4.6-3.8,6.8-6,2.2-2.2,4-4.6,6-6.9Z" style="fill: #fdc440; stroke-width: 0px;"></path><path d="M150.8,410.1c-3.1.8-6,1.6-9.2,2.5v-11.7c-2.1,1.5-3.6,3.1-5.5,3.9-8.3,3.6-16.3-1.8-17-11.3-.3-4.3.8-8.3,3.3-11.8,2.1-3,4.2-5.9,6.1-9.1,1.8-2.9,3.2-6.1,4.9-9.3,5.6,5.4,13.3,7.6,20.2,11.5,5.5,3,8.3,7.9,8.6,14,.5,7.6-7.1,13.5-14.6,11.6-.8-.2-1.5-.5-3.1-1,2.4,4,4.3,7.2,6.3,10.7Z" style="fill: #fdc440; stroke-width: 0px;"></path><path d="M264.4,180.6c4.9,13.2,9.7,26.4,14.5,39.5.5,1.3,1.1,2.5,1.5,3.8,1.3,3.7,3.2,6.6,7.7,6.5v3.1h-22.8v-2.9c.7-.2,1.4-.3,2.1-.5,1.8-.5,2.6-1.6,2-3.5-1-2.9-2-5.9-3.1-8.7-.2-.6-1.3-1.2-2-1.2-3.9-.1-7.8-.1-11.8,0-.8,0-1.9.9-2.2,1.6-1,2.3-1.8,4.8-2.5,7.2-.8,2.8-.3,3.8,2.7,4.4,2.1.4,2.9,1.2,2.1,3.5h-17.7v-3.1c5.6.3,7.1-3.8,8.7-7.9,5-12.7,10.2-25.3,15.1-38,1.2-2.6,2.7-3.9,5.7-3.8ZM252.4,212h11.9c-1.9-5.5-3.7-10.8-5.5-16.1h-.6c-1.8,5.3-3.7,10.5-5.8,16.1Z" style="fill: #fdc440; stroke-width: 0px;"></path><path d="M126.9,291.8c.3,1.1.5,1.9.7,2.6,0,.2-.2.4-.3.5-5,2.4-5.1,2.6-3.8,7.9,2.8,10.8,5.8,21.6,8.4,32.5,2.4,10-1.5,19.2-9.8,24.5-.5.3-1.1.6-1.8,1-.6-.8-1.2-1.6-2-2.6,6.3-4.6,5.3-10.9,3.8-17-2.9-12-6.1-24-9.4-35.9-1.3-4.8-2.1-5.1-8.2-4.4-.2-.9-.5-1.8-.8-2.8,7.8-2.2,15.4-4.2,23.2-6.3Z" style="fill: #fdc440; stroke-width: 0px;"></path><g><path d="M96.6,672.7h-31.5l5.2-20.7h89.7l-5.2,20.7h-31.5l-21.7,86.6h-26.8l21.8-86.6h0Z" style="fill: #fdc440; stroke-width: 0px;"></path><path d="M158.2,749.8c-7-7.4-8.7-17.9-5.3-31.4l16.6-66.4h26.8l-16,63.9c-1.9,7.4-1.4,13,1.5,16.7s8.1,5.5,15.4,5.5,13.4-1.9,18.1-5.5c4.7-3.7,8-9.2,9.9-16.7l16-63.9h26.8l-16.6,66.4c-3.4,13.5-10.4,24-21,31.4-10.7,7.4-23.6,11.1-38.8,11.1-15.3,0-26.4-3.7-33.4-11.1ZM199.2,622.3h19.7l-4.5,18.1h-19.7l4.5-18.1ZM233.5,622.3h19.7l-4.5,18.1h-19.7l4.5-18.1Z" style="fill: #fdc440; stroke-width: 0px;"></path><path d="M284.1,652.1h53.6c12.3,0,20.7,3.2,25.3,9.7,4.5,6.5,5.4,15.5,2.5,27.1-1.8,7.2-5.2,13.5-10.2,19-4.9,5.4-11,9.4-18.1,12.2,1.1,1.2,2,2.6,2.6,4s1.1,3.6,1.7,6.3l5.4,28.9h-28l-5.2-27.2c-.4-2.5-1.3-4.2-2.5-5.2-1.3-1-3.4-1.5-6.3-1.5h-12.3l-8.5,34h-26.8l26.8-107.3ZM317.6,704.7c5.4,0,9.8-1.4,13.3-4,3.6-2.6,6-6.6,7.3-11.8,2.7-10.7-1.1-16.2-11.4-16.2h-20.9l-8,32h19.7Z" style="fill: #fdc440; stroke-width: 0px;"></path><path d="M388.3,652.1h26.8l-10.4,41.6,47.3-41.6h30.6l-49.2,43.7,24.7,63.4h-28.5l-17-46.3-16.1,13.8-8.1,32.4h-26.8l26.7-107h0Z" style="fill: #fdc440; stroke-width: 0px;"></path><path d="M126.5,776.7h53.9l-3.5,14h-35.6l-3.8,15.3h31.4l-3.6,14.3h-31.4l-3.8,15.3h35.5l-3.5,14h-53.9l18.3-72.9Z" style="fill: #fdc440; stroke-width: 0px;"></path><path d="M214.7,776.7h19.7l9.7,73h-19.1l-2.4-16.5h-24.4l-10.6,16.5h-19.1l46.2-73ZM223.4,819.7l-3.4-25.4-16,25.4h19.4Z" style="fill: #fdc440; stroke-width: 0px;"></path><path d="M271.5,776.7h18.2l-14.7,59h34.5l-3.5,14h-52.7l18.2-73Z" style="fill: #fdc440; stroke-width: 0px;"></path><path d="M329.6,776.7h53.9l-3.5,14h-35.6l-3.8,15.3h31.4l-3.6,14.3h-31.4l-3.8,15.3h35.6l-3.5,14h-53.9l18.2-72.9Z" style="fill: #fdc440; stroke-width: 0px;"></path><path d="M392.1,776.7h36.5c8.4,0,14.1,2.2,17.2,6.6,3.1,4.4,3.7,10.6,1.7,18.4-1.2,4.9-3.5,9.2-6.9,12.9s-7.5,6.5-12.4,8.3c.8.9,1.4,1.7,1.8,2.7s.8,2.4,1.1,4.3l3.7,19.7h-19.1l-3.5-18.5c-.3-1.7-.8-2.8-1.8-3.5-.9-.7-2.3-1-4.3-1h-8.4l-5.8,23.1h-18.2l18.4-73h0ZM414.9,812.5c3.7,0,6.6-.9,9.1-2.7,2.4-1.8,4.1-4.5,5-8.1,1.8-7.3-.7-11-7.8-11h-14.3l-5.4,21.8h13.4Z" style="fill: #fdc440; stroke-width: 0px;"></path><path d="M54.3,776.8h31.7c11.4,0,19.3,2.9,23.5,8.8,4.3,5.8,4.8,15.2,1.5,28.2-3.1,12.3-8.3,21.4-15.4,27.2-7.2,5.9-16.5,8.8-27.9,8.8h-31.6l18.2-73ZM68.7,835.7c4.3,0,7.8-.6,10.7-1.8,2.9-1.2,5.4-3.4,7.5-6.6,2.1-3.1,4-7.7,5.4-13.6,1.5-6,2.1-10.6,1.6-13.9-.4-3.3-1.7-5.6-4-7s-5.6-2-10-2h-10.9l-11.2,44.9h10.9Z" style="fill: #fdc440; stroke-width: 0px;"></path></g><g><path d="M717.3,652.1l-141.2,206.8h-47.3l-37.5-206.8h51.7l26,147.7,100.8-147.7h47.5Z" style="fill: #fff; stroke-width: 0px;"></path><path d="M719.1,652.1h47.9l-51.7,206.8h-47.9l51.7-206.8Z" style="fill: #fff; stroke-width: 0px;"></path><path d="M935.6,661.2c12,6.1,20.2,14.8,24.7,26s4.8,24.5,1,39.9c-3.8,15.2-10.8,28.4-20.9,39.7-10.1,11.3-22.7,20-37.7,26s-31.7,9-50,9h-41.7l-14.3,57h-47.9l51.7-206.8h89.5c18.5,0,33.6,3.1,45.6,9.2ZM894.9,753.6c9-6.2,15-15,17.8-26.4,2.9-11.6,1.4-20.5-4.5-26.7s-16.1-9.3-30.5-9.3h-39l-18,71.8h39c14.5,0,26.2-3.2,35.2-9.4Z" style="fill: #fff; stroke-width: 0px;"></path></g></g><path d="M862.6,186.4h41.2l-77,280h44l-16.9,62.5h-43.9l-26.8,96.8h-82.7l26.8-96.8h-158.2l18.9-66.9,274.6-275.6ZM744.2,466.4l49.3-180-179.3,180h130.1Z" style="fill: #fff; stroke-width: 0px;"></path></svg> 