<?xml version="1.0" encoding="UTF-8"?> <svg xmlns="http://www.w3.org/2000/svg" id="Layer_1" data-name="Layer 1" version="1.1" viewBox="0 0 100 100"><defs><style> .cls-1 { fill: #fdcd37; } .cls-1, .cls-2 { stroke-width: 0px; } .cls-2 { fill: #fff; } </style></defs><g><path class="cls-2" d="M23.2,54.9v5.2h-2.6v-12.9h2.6v5.2h2.4v-5.2h2.6v12.9h-2.6v-5.2h-2.4Z"></path><path class="cls-2" d="M32.2,57.5l-.5,2.6h-2.6l2.5-12.9h3.4l2.5,12.9h-2.6l-.5-2.6h-2.2ZM32.6,55.2h1.2l-.6-5.5-.6,5.5Z"></path><path class="cls-2" d="M38.1,47.3h6.8v2.4h-4.3v2.9h3.5v2.4h-3.5v5.2h-2.6v-12.9Z"></path><path class="cls-2" d="M47.1,49.7h-2.5v-2.4h7.5v2.4h-2.5v10.5h-2.5v-10.5Z"></path><path class="cls-2" d="M54.7,57.5l-.5,2.6h-2.6l2.5-12.9h3.4l2.5,12.9h-2.6l-.5-2.6h-2.2ZM55.2,55.2h1.2l-.6-5.5-.6,5.5Z"></path><path class="cls-2" d="M60.7,60.2v-12.9h2.6v10.5h3.5v2.4h-6.1Z"></path><path class="cls-2" d="M67.4,60.2v-12.9h2.6v12.9h-2.6Z"></path><path class="cls-2" d="M74.2,54.9v5.2h-2.6v-12.9h2.6v5.2h1l1.6-5.2h2.6l-1.9,6.4,1.9,6.4h-2.6l-1.6-5.2h-1Z"></path></g><g><path class="cls-1" d="M32.1,65.6h-4v3.4c0,.9.7,1.4,2,1.4s3.2.5,4.4,1.4c1.3,1,1.9,2.3,1.9,4v4.4c0,.8-.3,1.5-1,2.1-.6.6-1.4.9-2.2.9h-6.3c-.9,0-1.6-.3-2.2-.9s-.9-1.3-.9-2.1v-4.3h4.3v3.3h4v-3.4c0-.9-.7-1.4-2-1.4s-3.2-.5-4.4-1.4c-1.3-1-1.9-2.3-1.9-4v-4.4c0-.8.3-1.5.9-2.1.6-.6,1.4-.8,2.2-.8h6.3c.9,0,1.6.3,2.2.8.6.6,1,1.3,1,2.1v4.3h-4.3v-3.3Z"></path><path class="cls-1" d="M38.7,83.2v-21.5h4.3v17.5h5.9v4h-10.2Z"></path><path class="cls-1" d="M59.3,61.6c.9,0,1.6.3,2.2.8.6.6,1,1.3,1,2.1v15.6c0,.8-.3,1.5-1,2.1-.6.6-1.4.9-2.2.9h-6.3c-.9,0-1.6-.3-2.2-.9s-.9-1.3-.9-2.1v-15.6c0-.8.3-1.5.9-2.1.6-.6,1.4-.8,2.2-.8h6.3ZM54.1,65.6v13.6h4v-13.6h-4Z"></path><path class="cls-1" d="M67.8,65.6h-4.2v-4h12.6v4h-4.2v17.5h-4.3v-17.5Z"></path></g><g><path class="cls-2" d="M5.6,86.4h-1.8v-1.7h5.5v1.7h-1.8v7.7h-1.9v-7.7Z"></path><path class="cls-2" d="M11.4,92.3h1.8v-7.7h1.9v8.1c0,.4-.1.7-.4.9-.3.2-.6.4-1,.4h-2.7c-.4,0-.7-.1-1-.4s-.4-.6-.4-.9v-8.1h1.9v7.7Z"></path><path class="cls-2" d="M18.2,90.7v3.4h-1.9v-9.4h4.1c.4,0,.7.1,1,.4.3.3.4.6.4.9v2.4c0,.6-.2,1.1-.7,1.5.5.4.7.9.7,1.5v2.7h-1.9v-2.7c0-.2,0-.3-.2-.4-.1-.1-.3-.2-.5-.2h-1.1ZM19.3,89c.2,0,.3,0,.5-.2.1-.1.2-.3.2-.4v-2h-1.8v2.6h1.1Z"></path><path class="cls-2" d="M24.9,88v6.1h-1.9v-9.4h2.6l1.5,6.1v-6.1h1.9v9.4h-2.6l-1.5-6.1Z"></path><path class="cls-2" d="M32.1,92.3h1.8v-7.7h1.9v8.1c0,.4-.1.7-.4.9-.3.2-.6.4-1,.4h-2.7c-.4,0-.7-.1-1-.4s-.4-.6-.4-.9v-8.1h1.9v7.7Z"></path><path class="cls-2" d="M40.6,84.6h1.9l-1.8,9.4h-2.5l-1.8-9.4h1.9c.3,1.7.7,4.3,1.2,7.6.4-3.4.8-5.9,1.2-7.6Z"></path><path class="cls-2" d="M44,92.2l-.4,1.9h-1.9l1.8-9.4h2.5l1.8,9.4h-1.9l-.4-1.9h-1.6ZM44.3,90.4h.9l-.5-4-.5,4Z"></path><path class="cls-2" d="M54.8,84.6c.4,0,.7.1,1,.4.3.3.4.6.4.9v6.8c0,.4-.1.7-.4.9-.3.2-.6.4-1,.4h-2.7c-.4,0-.7-.1-1-.4s-.4-.6-.4-.9v-6.8c0-.4.1-.7.4-.9.3-.2.6-.4,1-.4h2.7ZM52.5,86.4v5.9h1.8v-5.9h-1.8Z"></path><path class="cls-2" d="M60.4,90.8v3.2h-1.9v-3.2l-2-6.2h1.9c.3.9.6,2.4,1,4.5.4-2.1.7-3.6,1-4.5h1.9l-2,6.2Z"></path><path class="cls-2" d="M64.5,92.3h1.8v-7.7h1.9v8.1c0,.4-.1.7-.4.9-.3.2-.6.4-1,.4h-2.7c-.4,0-.7-.1-1-.4s-.4-.6-.4-.9v-8.1h1.9v7.7Z"></path><path class="cls-2" d="M71.3,88v6.1h-1.9v-9.4h2.6l1.5,6.1v-6.1h1.9v9.4h-2.6l-1.5-6.1Z"></path><path class="cls-2" d="M76.6,94.1v-9.4h1.9v7.7h2.6v1.7h-4.5Z"></path><path class="cls-2" d="M83.3,92.2l-.4,1.9h-1.9l1.8-9.4h2.5l1.8,9.4h-1.9l-.4-1.9h-1.6ZM83.6,90.4h.9l-.5-4-.5,4Z"></path><path class="cls-2" d="M89.5,90.7v3.4h-1.9v-9.4h4.1c.4,0,.7.1,1,.4.3.3.4.6.4.9v2.4c0,.6-.2,1.1-.7,1.5.5.4.7.9.7,1.5v2.7h-1.9v-2.7c0-.2,0-.3-.2-.4-.1-.1-.3-.2-.5-.2h-1.1ZM90.6,89c.2,0,.3,0,.5-.2.1-.1.2-.3.2-.4v-2h-1.8v2.6h1.1Z"></path><path class="cls-2" d="M94.3,94.1v-9.4h1.9v9.4h-1.9Z"></path></g><path class="cls-2" d="M60.2,40.5c-.3-.9-1-1.4-1.9-1.4h-4.1c-.2,0-.3,0-.4-.3-.3-1.2-.8-2.3-1.2-3.5,0-.2,0-.3.2-.4,3.5-1,6-3.1,7.7-6.4.8-1.4,1.1-3.1,1.1-4.7s0-.6.6-.7c3.7-.8,6.5-3.6,7.1-7.2v-6.7c-.2-.5-.4-1-1-1.3-.3-.2-.8-.2-1.1-.2h-5.2c-.2,0-.4,0-.4-.3v-1.3c0-.2,0-.3-.3-.3h-22.7c-.3,0-.5,0-.4.4v1.1c0,.2,0,.3-.3.3h-6c-.8.2-1.4.8-1.4,1.6v4.6c0,.6,0,1.2.2,1.9.6,3.7,2.9,6,6.4,7,.3,0,.7.2,1,.2.2,0,.3,0,.3.3,0,1.2.2,2.3.5,3.4,1.4,4.1,4.1,6.7,8.2,7.9.3,0,.4.2.3.5-.4,1.1-.8,2.2-1.1,3.3,0,.3-.2.4-.6.4h-3.8c-1.1,0-1.7.4-2.1,1.4-.5,1.4-1,2.7-1.4,4.1,0,0,0,.2,0,.3h23.3c0-.5-.2-1-.4-1.4-.3-1-.7-2.1-1.1-3.1h0v.2h0ZM62.2,11.7h3.2c.2,0,.4,0,.3.3v3.1c-.3,2-1.4,3.4-3.4,4.1-.4.2-.4,0-.4-.3v-6.8q0-.3.4-.3h0ZM38,19.3c-2.1-.8-3.6-2.7-3.6-4.9v-2.1c0-.2,0-.3.3-.3h3.3c.2,0,.3,0,.3.3v7c0,.2,0,.3-.3.2,0,0,0-.2,0-.2ZM49.7,23.5c-1,.6-2.1,1.2-3.2,1.8,0,0-.2,0-.4.2.2-1,.4-2,.8-2.9.2-.7,0-1.2-.3-1.8-.8-1-1.5-2-2.3-3,.2,0,.2,0,.4,0h3.3c.3,0,.4,0,.6-.3.5-1.1,1-2.3,1.5-3.4.2,0,.2.2.2.2.5,1,1,2.1,1.4,3.2,0,.2.2.3.6.3h3.7c0,.2,0,.2-.2.3-.9,1.1-1.6,2.2-2.5,3.3-.2.2-.2.4,0,.6.3,1.1.6,2.3.9,3.6-1.3-.7-2.4-1.4-3.6-2-.2-.2-.4-.2-.7,0h-.2Z"></path></svg> 