<?xml version="1.0" encoding="UTF-8"?> <svg xmlns="http://www.w3.org/2000/svg" xmlns:xlink="http://www.w3.org/1999/xlink" version="1.1" id="Layer_1" x="0px" y="0px" viewBox="0 0 1000 1000" style="enable-background:new 0 0 1000 1000;" xml:space="preserve"> <path style="fill:#FFFFFF;" d="M962.1,521.9c-229.6,0-459.1,0-689.8,0c4.8-5,8.8-9.4,13-13.7c11.4-11.5,22.9-22.9,34.3-34.4 c7.1-7.1,15.7-10.3,25.6-10.4c204.2-0.1,408.3-0.2,612.5-0.3c1.5,0,2.9,0.1,4.4,0.1C962.1,482.9,962.1,502.4,962.1,521.9z M379.4,487.3c0.4-0.1,0.7-0.3,1.1-0.4c5.1,6.7,10.2,13.4,15.4,19.9c1.1,1.4,3,2.3,5.3,3.9c0-12.6,0-23.7,0-34.7c-2,0-3.7,0-5.9,0 c0,7,0,13.7,0,21.6c-5.5-7-10.1-13.2-15.1-19.1c-1.3-1.6-3.7-2.3-6.4-4c0,12.6,0,23.7,0,34.8c2,0,3.6,0,5.6,0 C379.4,501.8,379.4,494.6,379.4,487.3z M563.5,498.7c5-1.5,8.2-0.2,10.7,3.5c1,1.6,2.6,2.8,3.6,4.4c2.2,3.3,5,3.7,8.8,2.5 c-3.3-3.9-6.4-7.5-9.7-11.2c1-0.5,1.6-0.9,2.3-1.2c4.7-2.2,7.1-6.4,6.4-11.2c-0.8-4.8-4.4-8.9-9.1-9.2c-6.1-0.4-12.2-0.1-18.4-0.1 c0,11.2,0,22.3,0,33.3c1.9,0,3.4,0,5.3,0C563.5,505.7,563.5,502.3,563.5,498.7z M521.7,495.5c0-2,0-3.6,0-5.6c-6.3,0-12.4,0-18.5,0 c0-3,0-5.4,0-8.3c6.4,0,12.6,0,19.1,0c0-2.1,0-3.8,0-5.6c-8.4,0-16.5,0-24.6,0c0,11.4,0,22.5,0,33.3c8.5,0,16.6,0,24.9,0 c-0.1-1.9-0.2-3.4-0.2-5.5c-6.6,0-12.8,0-19,0c0-3.1,0-5.6,0-8.3C509.6,495.5,515.4,495.5,521.7,495.5z M922.9,481.5 c6.4,0,12.5,0,18.5,0c0-2.2,0-3.8,0-5.4c-8.3,0-16.2,0-24.1,0c0,11.3,0,22.3,0,33.3c8.3,0,16.2,0,24.2,0c0-1.8,0-3.3,0-5.4 c-6.3,0-12.4,0-18.4,0c0-3.1,0-5.6,0-8.6c6.1,0,11.9,0,17.8,0c0-1.9,0-3.4,0-5.6c-6.1,0-12,0-18,0 C922.9,486.9,922.9,484.6,922.9,481.5z M617.7,509.2c4.2,1.2,6.4,0.2,7.7-3.4c0.5-1.2,2.7-2.4,4.1-2.5c4.1-0.3,8.2,0,12.3-0.2 c2.4-0.1,4,0.6,4.6,3c0.9,4.1,3.6,4.1,7.3,3.2c-4.7-10.8-9.3-21.3-14-31.7c-1.2-2.7-6.6-2.6-7.9,0 C627,487.9,622.4,498.5,617.7,509.2z M882.4,476.3c-4.2-1.2-6.7-0.3-8,3.8c-1.5,4.7-3.4,9.3-5.2,13.8c-1.1,2.7-2.2,5.4-3.8,9.3 c-3.3-8.6-6.3-15.8-8.8-23.2c-1.4-4.1-3.7-4.8-7.8-3.7c4.3,10.6,8.4,21,12.7,31.3c0.4,1,2.4,2,3.6,1.9c1.4,0,3.7-0.8,4.2-1.9 C873.8,497.3,878,486.9,882.4,476.3z M714.1,480.3c-7.8-6.9-18.8-6.5-24.9,0.3c-6.3,7-5.9,19,0.8,25.4c6.5,6.2,18.2,6,24.4-0.5 c-2.9-3.2-2.9-3.2-6.7-1.6c-5.3,2.2-11.1,1.2-14.6-2.6c-3.1-3.4-3.7-11-1.2-15.3c2.5-4.3,7.6-6.4,13.3-5.2c1.9,0.4,3.8,1.4,6,2.2 C712.1,482.3,713,481.4,714.1,480.3z M452.7,480.6c3.8,0,7,0,10.5,0c-0.1-1.8-0.2-3.1-0.2-4.5c-9.2,0-18,0-26.9,0c0,1.6,0,2.9,0,4.7 c3.4,0,6.7,0,10.4,0c0,9.9,0,19.3,0,28.7c2.3,0,4.1,0,6.2,0C452.7,499.9,452.7,490.6,452.7,480.6z M757.6,480.7c0,9.8,0,19.2,0,28.6 c2.1,0,3.7,0,5.8,0c0-9.7,0-19,0-28.8c3.9,0,7.3,0,11.1,0c-0.1-1.8-0.3-3.2-0.4-4.5c-9.4,0-18.4,0-27.5,0c0,1.6,0,3,0,4.8 C750.3,480.7,753.7,480.7,757.6,480.7z M336.3,509.4c0-11.3,0-22.4,0-33.4c-1.9,0-3.5,0-5.2,0c0,11.2,0,22.2,0,33.4 C332.9,509.4,334.5,509.4,336.3,509.4z M813.6,509.5c0-11.4,0-22.5,0-33.8c-1.9,0.1-3.4,0.2-4.9,0.2c0,11.5,0,22.5,0,33.6 C810.5,509.5,811.9,509.5,813.6,509.5z"></path> <path style="fill:#FFFFFF;" d="M36.9,448.5c6.9-8,13.7-16,20.8-23.8c4.6-5,8.9-11.4,14.8-13.9c5.7-2.4,13.2-0.4,19.9-0.8 c10.8-0.6,21.6-1,32.2-2.8c13.3-2.3,22.3-11.2,24.7-22.9c-16.6,0-33.2,0-50.6,0c1-1.5,1.3-2.4,1.9-3c17.3-17.3,34.5-34.7,52-52 c7.9-7.8,16.2-8.2,23.9-0.6c17.8,17.4,35.3,35.2,52.9,52.9c0.4,0.4,0.6,0.9,1.5,2.4c-6.9,0-13.1-0.2-19.3,0 c-9.9,0.3-19.9,0.1-29.7,1.6c-19.9,3-30.5,15.2-30.9,35.2c-0.4,21.4-0.5,42.8,0,64.2c0.5,22.1,14.8,35.2,38.4,36.1 c12.7,0.5,25.4,0.6,38.1,0.9c0.8,0,1.7,0.1,3.6,0.2c-5.5,5.7-10.3,10.8-15.3,15.8c-12.7,12.7-25.3,25.5-38.2,37.9 c-3,2.8-7.3,4.3-11,6.4c-2,0-4.1,0-6.1,0c-4.9-4.1-10.1-7.9-14.6-12.4c-31.6-31.7-63.1-63.5-94.4-95.4c-5.4-5.5-12.1-10.2-14.7-18.1 C36.9,453.7,36.9,451.1,36.9,448.5z"></path> <path style="fill:#FFFFFF;" d="M225.7,410c9.5,0,19-0.1,28.5,0.1c1.7,0,3.8,0.6,5,1.7c9.5,9.3,18.9,18.6,28,28.3 c7.9,8.3,7.8,16.7,0,25.1c-9.2,9.8-18.6,19.3-28.1,28.8c-1.2,1.2-3.2,2.1-4.9,2.1c-18.8,0-37.7-0.1-56.5-0.4 c-11.3-0.2-16.8-4.9-17.2-16c-0.6-17.7-0.5-35.5,0-53.2c0.3-10.9,5.4-15.4,16.3-15.9c9.6-0.4,19.3-0.1,28.9-0.1 C225.7,410.3,225.7,410.2,225.7,410z M225.3,446.9c0,7.7,0,15,0,22.3c2.1,0,3.9,0,5.8,0c0-7.6,0-14.9,0-22.3 C229.1,446.9,227.4,446.9,225.3,446.9z M225.2,434c0,2.1,0,3.8,0,5.5c2.1,0,4.1,0,5.9,0c0-2,0-3.7,0-5.5 C229.1,434,227.4,434,225.2,434z"></path> <path style="fill:#FFFFFF;" d="M687.4,403c0,13.5,0,27,0,40.9c-5.7,0-11.2,0-17.1,0c0-19.7,0-39.6,0-60c8.6,0,17.5-0.1,26.3,0.1 c0.8,0,1.8,1.6,2.3,2.7c4.8,10.3,9.5,20.6,14.2,30.9c1,2.1,2,4.1,3.4,6.9c1-1.8,1.8-3.1,2.5-4.4c5.1-11,10.2-21.9,15.1-32.9 c1.1-2.4,2.3-3.5,5.2-3.5c8,0.2,16,0.1,24.3,0.1c0,20.2,0,40.1,0,60.4c-5.5,0-11.1,0-17.4,0c0-13.5,0-27.1,0-40.6 c-0.4-0.1-0.9-0.2-1.3-0.3c-2.2,4.4-4.5,8.8-6.7,13.2c-4,8.4-7.9,16.9-12.1,25.2c-0.6,1.2-2.7,1.8-4.1,2.6c-0.2,0.1-0.6-0.1-0.9,0 c-10.2,2.3-14.9-2.8-18.4-11.9c-3.9-10.2-9.4-19.9-14.1-29.8C688.2,402.8,687.8,402.9,687.4,403z"></path> <path style="fill:#FFFFFF;" d="M821.5,399.6c0,15.6,0,29.9,0,44.4c-6,0-11.3,0-17.1,0c0-19.8,0-39.7,0-60c7.8,0,15.7-0.1,23.7,0.1 c1.2,0,2.5,1.8,3.4,3c8.9,12.2,17.8,24.5,26.7,36.8c0.9,1.3,1.9,2.5,3.8,3.4c0-14.3,0-28.6,0-43.2c6.1,0,11.5,0,17.3,0 c0,19.7,0,39.6,0,59.9c-8.1,0-16.4,0.1-24.6-0.1c-1,0-2.2-1.7-3-2.8c-8.9-12.4-17.8-24.9-26.7-37.3 C824.2,402.7,823.3,401.7,821.5,399.6z"></path> <path style="fill:#FFFFFF;" d="M942.9,428.2c0-4.8,0-9.2,0-14.1c5.3,0,10.3,0,15.7,0c0,9.8,0,19.7,0,30.2c-2.9,0-5.8,0-8.7,0 c-14.2,0-28.3,0.1-42.5-0.2c-11.8-0.2-19.4-7.7-19.9-19.4c-0.3-7-0.3-13.9,0-20.9c0.5-11.5,7.4-19.2,18.8-19.6 c17.3-0.6,34.7-0.1,52.3-0.1c0,4.8,0,9.6,0,14.9c-1.5,0.1-3.1,0.2-4.6,0.2c-13.6,0.2-27.1,0.3-40.7,0.5c-6,0.1-8.1,2.1-8.2,8.2 c-0.1,4.4-0.1,8.7,0,13.1c0.1,4.4,2.3,7.2,6.5,7.3C921.9,428.3,932.1,428.2,942.9,428.2z"></path> <path style="fill:#FFFFFF;" d="M576,383.9c0,5.2,0,10,0,15.5c-7.6,0-15,0-22.4,0c-7.7,0-15.5,0-23.2,0.2c-5.8,0.1-7.8,2.2-7.8,8 c0,4.5-0.1,9,0,13.5c0.1,4.4,2.2,6.9,6.7,7c10.2,0.2,20.4,0.1,31.1,0.1c0-4.7,0-9.4,0-14.3c5.4,0,10.3,0,15.5,0 c0,10.1,0,20.1,0,30.4c-2.6,0-5.4,0-8.1,0c-14.5,0-28.9-0.1-43.4-0.1c-10,0-18.5-6.8-19.3-16.6c-0.7-9.1-0.6-18.3,0.1-27.4 c0.6-7.9,7.2-14.1,15.1-15.5c3-0.5,6.1-0.7,9.1-0.7C545,383.9,560.3,383.9,576,383.9z"></path> <path style="fill:#FFFFFF;" d="M400.7,384c0,5.1,0,10,0,15.4c-1.8,0-3.4,0-4.9,0c-13.3,0-26.6,0-39.9,0.2c-7,0.1-8.8,1.9-9,8.8 c-0.1,3.8-0.1,7.5,0,11.3c0.1,6.3,2.2,8.5,8.4,8.5c13.4,0.2,26.9,0.2,40.3,0.3c1.6,0,3.2,0,5,0c0,5.4,0,10.4,0,15.7 c-4.1,0-8.1,0-12.1,0c-12.1,0-24.2-0.1-36.3-0.2c-14.5-0.1-21.8-6.4-22.9-20.7c-0.6-7.6-0.3-15.4,0.7-23c1.2-10,9.1-16.4,19-16.4 c16.2-0.1,32.4-0.1,48.6-0.2C398.6,383.8,399.6,383.9,400.7,384z"></path> <path style="fill:#FFFFFF;" d="M607.8,444c2.8-5,5.3-9.6,8.1-13.9c0.6-0.9,2.4-1.4,3.7-1.4c6-0.1,12-0.1,19-0.1 c-5.2-8.8-10-17-15.1-25.8c-1.8,2.7-3.1,4.4-4.2,6.2c-6.2,10.7-12.5,21.4-18.6,32.2c-1.3,2.3-2.8,3.3-5.5,3.2 c-4.5-0.2-9-0.1-14.1-0.1c1-2,1.7-3.4,2.4-4.7c10-17.4,20-34.8,29.8-52.4c1.7-3,3.6-3.7,6.9-3.9c7.5-0.6,12,1.9,15.6,8.9 c8.2,15.9,17.5,31.2,26.4,46.8c0.8,1.5,1.6,3,2.6,5C645.8,444,627.1,444,607.8,444z"></path> <path style="fill:#FFFFFF;" d="M478.7,384c0,5.2,0,9.9,0,15c-8.6,0-17,0-25.9,0c0,15.1,0,29.9,0,44.9c-5.9,0-11.4,0-17.4,0 c0-14.7,0-29.4,0-44.7c-9.2,0-17.8,0-26.8,0c0-5.4,0-10.3,0-15.3C432,384,455.1,384,478.7,384z"></path> <path style="fill:#FFFFFF;" d="M792.4,444c-5.6,0-11.1,0-16.8,0c0-20,0-39.8,0-59.9c5.6,0,11.1,0,16.8,0 C792.4,404,792.4,423.9,792.4,444z"></path> <path style="fill:#FFFFFF;" d="M564,492.6c0-4,0-7.6,0-11.8c4.1,0.3,8,0.4,11.9,0.8c3.6,0.4,4.4,3,4.1,6c-0.3,3.1-1.7,5.2-5.3,5.1 C571.3,492.6,567.8,492.6,564,492.6z"></path> <path style="fill:#FFFFFF;" d="M628.7,497.5c2.3-5.2,4.3-9.9,6.8-15.7c2.5,5.7,4.6,10.4,6.9,15.7 C637.7,497.5,633.6,497.5,628.7,497.5z"></path> </svg> 