<?xml version="1.0" encoding="UTF-8"?> <svg xmlns="http://www.w3.org/2000/svg" version="1.1" viewBox="0 0 100 100"><g><g id="Layer_1"><g><path d="M12.2,46.6c-1.4,0-2.6-.5-3.9-1-.4-.1-.7-.3-1.1-.4-1.3-.5-1.9-1.6-2.3-2.8-.2-.4,0-.6.5-.5,2.6.8,5.2,1.7,7.8,2.5.3.1.7.2,1,.3.1,0,.2.2.3.2,0,0-.2.1-.2.2-.1.2-.3.4-.4.6-.3.7-.9.9-1.6.8Z" style="fill: #fff;"></path><path d="M59,46.5c.3.3.5.5.6.9,0,.3.4.6.7.9,0,0-.1,0-.2,0,0,0,0,0,0,0,0,0,.2,0,.3,0,0,0,0-.2,0-.3-.2-1-.4-2-.5-3-.1-.8,0-1,.9-1,.3,0,.6,0,.9,0,.4,0,.6.2.6.6,0,.8,0,1.6-.2,2.3-.2.8-.5,1.6-.5,2.4,0,0-.2.2-.3.3-.8,0-1.5,0-2.1-.7-.4-.5-.9-.8-1.4-1.1-.2-.2-.4-.3-.6-.5,0,.1,0,.2,0,.3-.1.6-.2,1.1-.3,1.7,0,.1-.3.2-.5.2-.2,0-.4,0-.4-.3,0-.6,0-1.2-.3-1.7-.2-.5-.2-1.1-.3-1.6-.2-.7,0-1.3.5-1.6.6-.3,1.3-.2,1.8.4.5.6.9,1.2,1.4,1.9-.2-.2-.4-.4-.6-.6-.4-.4-.8-.8-1.2-1.3-.6-.6-1.5-.4-1.7.4,0,.4,0,.8,0,1.2.1,0,.2,0,.2,0,.8-.4,1.7-.4,2.5,0,.3.1.6.2.9.3ZM62.1,46.4c0-.7,0-1.2,0-1.8,0,0-.2-.2-.3-.2-.4,0-.8,0-1.2,0-.1,0-.3.2-.3.3,0,.4,0,.9,0,1.3,0,.3.1.3.4.2.2,0,.5-.1.7-.1.2,0,.4.1.7.3Z" style="fill: #fff;"></path><path d="M18.8,47.4c.2.7.4,1.4.6,2.1,0,0-.1,0-.2,0,.2.6.5,1.2.8,1.9-1,.1-2,.2-3,.4,0,0,0,0,0,0,.3,0,.5,0,.8,0,.5,0,.7-.3.6-.8,0-.2-.2-.4-.2-.6,0-.1-.2-.3-.3-.5,0,.2,0,.3,0,.4,0,0,0,0,0-.1-.2-.4-.4-.8-.6-1.1,0-.1-.3-.3-.4-.3-.1,0-.3.2-.4.3-.3.5-.5,1-.8,1.5,0-.1,0-.2.1-.3,0,0,0,0,0,0-.2.4-.4.7-.5,1.1-.2.7-.6,1.1-1.5,1,0-.2,0-.4.1-.6.1-.3.3-.6.3-.9,0-.3,0-.7.1-1,0-.3.4-.7.2-1,0,0,0,0,0-.1.4-1.1.7-2.1,1.1-3.2.3-.8,1-1.1,1.8-.9.5.1.7.4.9.8.3.7.5,1.5.7,2.2-.1-.2-.3-.4-.4-.6-.3-.6-.6-1.3-.9-1.8-.4-.6-1.1-.6-1.5,0-.6.7-.8,1.5-1,2.4.3,0,.4-.3.6-.3.8,0,1.6-.4,2.5,0,.2.1.5.2.8.4Z" style="fill: #fff;"></path><path d="M26.5,50.7c1.3-.4,1.6-.7,1.4-1.5-1.2-.3-2.4,0-3.7,0-.8,0-1.3-.2-1.8-1-.6-1-.5-1.9-.1-2.8.3-.8,1-1.1,1.8-1.1,1.7,0,3.3,0,5,0,.4,0,.6.4.4.7-.4.6-.8,1.2-1.2,1.8,0,0-.2.1-.3.1-1.2,0-2.5,0-3.7,0,.1,0,.3,0,.4-.1.5,0,.9,0,1.4,0,.7,0,1.3,0,2-.2.1,0,.3-.1.3-.2.3-.5.6-1,.9-1.5.2-.3.1-.4-.3-.4-1.5,0-3,0-4.5,0-1.3,0-2,.7-2.2,1.9,0,.1,0,.3,0,.4.1,0,.3,0,.4-.2.4-.3,1-.3,1.4,0,0,0,0,0,0,.1,0,.5.2.6.6.5.8,0,1.6,0,2.4-.1.1,0,.2,0,.3,0,1.1,0,1.3.4,1.8,1.3,0,0,0,.2,0,.2-.3.3-.1.8-.2,1.1,0,.2-.2.4-.4.5-.7.1-1.4.2-2.1.3Z" style="fill: #fff;"></path><path d="M43.7,49.6c-.7,0-1.3.2-1.6-.4,0-.1-.3-.2-.5-.2-.7,0-1.3,0-2,0-.3,0-.5.1-.5.4,0,.5-.4.4-.7.4-.3,0-.3-.3-.3-.5,0-.4,0-.7-.2-1,0,0,0-.3,0-.5.7,0,1.4,0,2.1,0,.8,0,1.7,0,2.5,0,.3,0,.6,0,.7-.4,0-.5-.2-.8-.7-.8-1.4,0-2.8,0-4.2,0-.6,0-.7-.2-.5-.8.2-.4.4-.9.7-1.3,0-.2.3-.3.5-.3,1.5,0,3.1,0,4.6.1,1.3.2,2,1.3,1.7,2.6,0,.4-.4.8-.7,1.2-.1.2-.4.2-.7.3-.6.3-.6.4-.2.9,0,0,0,.1.2.3ZM44.9,46.3c0-.5-.2-.8-.6-1.1-.6-.5-1.3-.7-2-.7-1.1,0-2.2,0-3.3,0-.1,0-.3,0-.4.2-.3.4-.6.9-.9,1.4,0,0,0,.3,0,.3,0,0,.2,0,.3,0,.3,0,.5,0,.8,0,1.2,0,2.3,0,3.5,0,.3,0,.7,0,.8-.1.2-.3.4-.2.6-.2.4,0,.8.1,1.3.2Z" style="fill: #fff;"></path><path d="M68.3,50.2c.2,0,.7-.1.8-.3.2-.4-.2-.8-.5-1.2,0,.1,0,.2,0,.3,0,0,0-.1,0-.1-.2-.4-.4-.8-.6-1.1-.2-.4-.6-.4-.8,0-.2.3-.4.6-.6.9,0,0,0-.1,0-.2,0,0,0,0,0,0-.3.4-.5.8-.8,1.2-.2.4-.9.5-1.2.2,0,0,0-.3,0-.4.2-.3.3-.7.6-1.1-.2,0-.2,0-.3.1,0,0,0,0,0,0,.4-1,.8-2.1,1.2-3.1.3-.7.7-1.2,1.5-1.2.7,0,1.2.2,1.5.9.3.8.7,1.5.9,2.3.1.4.4.9.3,1.2-.1.6.4,1,.5,1.5,0,.2,0,.3-.2.3-.7,0-1.5-.1-2.1-.2ZM69.3,46.6s0,0,0,0c-.3-.5-.5-1-.8-1.5-.5-.7-1.4-.8-1.9-.1-.4.5-.7,1.1-1,1.7,1.3-.6,2.5-.6,3.7,0Z" style="fill: #fff;"></path><path d="M48.8,49.6c-.5,0-1,0-1.6,0-.1,0-.3-.2-.4-.4-.4-.7-.7-1.4-.7-2.1,0-.8.2-1.6.8-2.1.5-.4,1.1-.6,1.7-.7,1.2-.2,2.3-.2,3.5.1,1.2.3,2,1.4,2,2.6-.4.4,0,1.1-.5,1.5-.1.1-.1.3-.2.5-.1.4-.4.6-.8.6-.4,0-.7,0-1.2,0,.3-.2.5-.3.7-.4.2-.2.6-.4.3-.8,0,0,0-.1,0-.2.2-.9-.6-1.8-1.5-1.7-.6,0-1.1,0-1.7,0-.8,0-1.3.7-1.3,1.5,0,.2-.2.3-.1.4,0,.2,0,.5.2.6.2.2.5.4.8.6ZM53.9,46.4c-.1-.2-.2-.4-.3-.5-.4-.6-.9-1-1.6-1.2-1.3-.4-2.6-.4-3.9,0-.5.2-1,.5-1.4.9-.2.2-.3.5-.4.7,0,0,0,0,0,.1.1,0,.2-.1.4-.1.4,0,.9-.2,1.3,0,.4.2.7.2,1,.2.7,0,1.4,0,2.1,0,.2,0,.6,0,.7-.1.3-.3.6-.2.8-.2.4,0,.7.2,1.2.3Z" style="fill: #fff;"></path><path d="M21.5,53.2c.3,0,.6.1.9,0,1.5-.2,3-.4,4.5-.6.4,0,.8-.1,1.2-.2.1.5-.1.9-.7,1-.9.2-1.9.4-2.8.5-.8,0-1.6,0-2.3.1-.8.1-1.6.3-2.4.5-.9.2-1.7.4-2.6.2-.2,0-.4,0-.6.1-.9.2-1.8.5-2.6.7-.2,0-.5,0-.7-.2-.3-.3-.3-.5.2-.6,1-.3,2-.4,3-.5,1.5-.2,3-.5,4.5-.7.2,0,.4-.2.6-.4,0,0,0,0,0,0Z" style="fill: #fff;"></path><path d="M90.5,46.5c0-.2.2-.3.3-.5-.7-.4-1.5-.8-1.8-1.7.3-.1.7-.3,1-.4,1.6-.5,3.1-1,4.7-1.5.2,0,.4,0,.5,0,0,0,0,.4,0,.5-.5,1.3-1.3,2.4-2.7,2.9-.7.2-1.3.5-2,.7,0,0,0,0,0-.1Z" style="fill: #fff;"></path><path d="M84.2,44.3c1.2,0,2.3,0,3.5,0,.4,0,.6.4.6.8,0,.2-.1.4-.2.6-.3.6-.6,1.1-1,1.7,0,.1-.3.3-.5.3-.4,0-.7,0-1.1,0-.1,0-.3.2-.3.3-.2.8-.4,1.5-.5,2.3,0,.4,0,.7,0,1.1,0,.2,0,.5-.3.4-.3,0-.7.1-.7-.4,0-.4,0-.8,0-1.1-.1-.7-.3-1.3-.5-1.9,0-.1,0-.2,0-.3,0-.5-.2-.6-.6-.6-.5,0-.9,0-1.4,0-.4,0-.6-.2-.5-.6.3-.7.6-1.4.9-2.1,0-.2.4-.3.6-.3.7,0,1.5,0,2.2,0,0,0,0,0,0,0ZM83.2,47.3c.5-.6.9-.7,1.6-.1.1,0,.3.2.4.2.4,0,.8,0,1.2.1.3,0,.5,0,.6-.3.3-.7.6-1.3.9-2,.1-.3,0-.5-.3-.5-1.8,0-3.7,0-5.5,0-.1,0-.3,0-.4.2-.3.6-.6,1.2-.9,1.8-.1.3,0,.5.3.5.3,0,.6,0,.9,0,.4,0,.7,0,1.2.1Z" style="fill: #fff;"></path><path d="M77.2,51.1c.3-.4.6-.7.8-1,0-.1.3-.4-.1-.5,0,0,0-.2,0-.3,0-.4.1-.9-.3-1.3,0,0,0-.1,0-.2,0-.9-.1-1.8-.2-2.6,0-.6.1-.8.7-.8.3,0,.7,0,1,0,.6,0,.8.2.8.8,0,.5,0,1.1-.1,1.6,0,.3,0,.6,0,.9-.1.6-.3,1.3-.5,1.9,0,.3-.1.6-.2.9-.1.5-.3.6-.8.6-.4,0-.7,0-1.1,0ZM77.7,47.1c.7-.6,1.3-.5,1.9,0,0-.9,0-1.5,0-2.2,0,0-.2-.2-.3-.2-.5,0-.9,0-1.4,0,0,0-.2.1-.2.2,0,.7,0,1.4,0,2.3Z" style="fill: #fff;"></path><path d="M89.5,48.3c0,.2,0,.4,0,.5,0-.7.6-.6,1-.6,1,0,2-.1,3-.2.2,0,.4,0,.5.2,0,0,0,.3-.1.4-1.1,1.5-2.7,1.9-4.5,1.7.1-.4.3-.8.4-1.1,0,0,0,0,0,0-.2.3-.3.7-.5,1,0,0-.1,0-.2,0,0-.3,0-.5-.1-.8,0-.2,0-.5,0-.7,0-.5.3-.3.6-.4Z" style="fill: #fff;"></path><path d="M82.6,47.9c0,1.7,0,3.3,0,5,0,1,.2,1.2,1.1,1.4.4,0,.7.2,1.1.2-.3.6-.7.8-1.2.7-1.4-.2-1.7-.4-1.7-1.8,0-1.1,0-2.3,0-3.4,0-.8.2-.8-.9-1-.3,0-.6,0-1,0v-1.7c.2.6.7.5,1.2.6.4,0,.8,0,1.3,0Z" style="fill: #fff;"></path><path d="M74.9,50.8c-.5,0-1,0-1.4-.2-.2,0-.3-.3-.4-.5-.2-.7-.4-1.4-.6-2.1-.2-.8-.2-1.7-.4-2.5,0-.2,0-.4,0-.6,0-.5.2-.7.6-.7.4,0,.8,0,1.2,0,.5,0,.7.2.7.7,0,.9-.1,1.8-.2,2.7,0,.4-.1.8-.3,1.1-.4.9,0,1.5.7,2ZM74.3,46.9c0-.8,0-1.4,0-2,0,0-.2-.3-.3-.3-.4,0-.9,0-1.3,0-.1,0-.3.1-.3.2,0,.6,0,1.2,0,2,.7-.5,1.3-.5,1.9,0Z" style="fill: #fff;"></path><path d="M20.9,52c.5.5.6.7,1.2,0,0,.1-.1.3-.2.4-.1.3,0,.5.3.4,1.6-.2,3.2-.4,4.9-.6.8-.1,1.1-.3,1.9-1-.1.6-.5.9-1,1-.6.2-1.3.3-1.9.4-1.2.2-2.4.3-3.6.5-.3,0-.7,0-1-.1,0,0-.2,0-.3,0-.3.5-.9.4-1.4.5-1.6.3-3.2.5-4.8.8-.9.2-1.8.3-2.7.5-.5,0-.8-.2-.7-.8,0,0,0-.1,0-.2.1-.2.2-.4.4-.6,0,.2-.2.5-.2.7,0,.4,0,.5.4.4,0,0,0,0,0,0,1.8-.3,1.8-.3,2.6-2.2.3-.9.7-1.8,1.1-2.7,0,0,0,0,.1,0,0,.2-.1.4-.2.6,0,.2,0,.4,0,.4.2,0,.5,0,.7,0,.1,0,.2-.3.2-.4,0-.2,0-.4,0-.7.2.4.4.9.7,1.4-.6,0-1.1.1-1.6.2-.3,0-.4.1-.6.4-.3.7-.6,1.3-.8,2-.2.4,0,.6.4.5,1.8-.3,3.7-.6,5.5-.8.5,0,.6-.2.4-.7,0-.1,0-.2-.1-.3Z" style="fill: #fff;"></path><path d="M45.9,49.3c.5,1.2,1.5,1.9,2.7,2,1,.1,2,.1,2.9,0,1.3-.1,2.3-.7,2.9-2,0,1.4-1.3,2.9-2.9,3-.9,0-1.9,0-2.9,0-1,0-1.7-.6-2.3-1.3-.4-.4-.4-1.1-.6-1.7,0,0,0,0,.1,0Z" style="fill: #fff;"></path><path d="M4.6,43.5c.5,1.8,2,2.6,3.6,3.3-.7.4-1.3.1-2.1.2.3-.5,0-.7-.2-1-.5-.5-1-1.1-1.4-1.7-.2-.4-.4-.9-.4-1.3,0-.3.2-.5.3-.9,0,.1.1.2.2.3.7,2,2.2,3.2,4.2,3.7.9.2,1.8.5,2.7.8,0,0,.1,0,.2.2-.4,0-.8,0-1.2,0-1.1-.4-2.3-.8-3.4-1.2-1-.4-1.7-1.1-2.2-2.1,0-.1-.1-.2-.2-.3Z" style="fill: #fff;"></path><path d="M39,47.1c-.6,0-1.1.1-1.7.2-.1,0-.2,0-.3.1-.3.5-.9.7-1.4.8-.8.2-.8.2-.8.9,0,.9,0,1.9,0,2.8,0,.6-.3.9-.9.9-.4,0-.7,0-1.1-.1-.1,0-.2-.2-.4-.3,0,0,0,0,0-.1.4,0,.8-.1,1.2-.2.7,0,1-.3.9-1.1,0-1.1,0-2.3,0-3.4,0-.2,0-.3,0-.5.4,0,.7,0,1,0,.4,0,.7-.1.9-.5.3-.5.6-1,1-1.5,0,0,0,0,.1,0,0,.1,0,.3-.1.4,0,.2-.2.4-.3.6-.2.5,0,.9.6.9.4,0,.7,0,1.1,0,0,0,0,0,0,0Z" style="fill: #fff;"></path><path d="M33.9,48.7s0,0,0,0c0,0,0,0,0,0,0,.4,0,.7,0,1.1,0,.4-.1.5-.7.5-.4,0-.3-.3-.3-.5,0-.8-.3-1.5-.5-2.2-.2-.5.3-1.2.8-1.3.5,0,.9,0,1.2.5,0,.2.1.4,0,.6,0,.5-.2.9-.3,1.4Z" style="fill: #fff;"></path><path d="M9.9,49.5c-1.5.5-3.1-.8-3.6-1.6-.2-.2,0-.5.3-.5.9,0,1.7,0,2.6.2.1,0,.2.2.3.3.1.2.2.5.3.6.3.3.4.6.1,1h0Z" style="fill: #fff;"></path><path d="M72.1,52.7c-.8.8-1.7.9-2.7.7-.9-.1-1.7-.2-2.6-.4-.2,0-.4-.1-.6-.3-.1,0-.1-.3-.1-.5,0,0,.2-.1.4-.1,1.7.2,3.4.3,5.2.5.2,0,.4,0,.6,0h0Z" style="fill: #fff;"></path><path d="M45.8,51.4c0,.7-.2.9-.9,1-.4,0-.8,0-1.2.1-.5,0-1-.2-1.2-.6-.4-.5-.9-.9-1.5-1-.2,0-.4-.2-.4-.3-.2-.4,0-.5.3-.6.6-.1.9,0,1.2.6.8,1.2.5,1.1,2,1,.6,0,1.2,0,1.8-.1Z" style="fill: #fff;"></path><path d="M62.5,51.3c-.2.4-.3.9-.6,1.1-.5.3-1.2.5-1.8,0-.4-.4-.8-.8-1.2-1.1-.2-.2-.4-.4-.6-.5-.4-.2-.5-.6-.5-1,0-.3,0-.5,0-.8,0,0,.2,0,.2.1.6.6,1.2,1.3,1.8,1.9.9,1.1,1.6,1.1,2.6.2,0,0,0,0,.1,0Z" style="fill: #fff;"></path><path d="M71.9,51.3c0,0,.2.2.2.2,0,.2.2.4,0,.6,0,.1-.4.2-.5.2-1.4-.1-2.8-.3-4.2-.4-1.3-.1-2.6-.2-4-.3,0,0,0,0,0,0-.2-.1-.6-.2-.6-.4,0-.2.2-.4.3-.6q-.2.8.6.8c.3,0,.5,0,.8,0,.5.1.8-.1,1.1-.6.5-.9,1-1.8,1.6-2.8,0,.4-.5.7,0,1,.2.1.6.2.8,0,.4-.2,0-.6,0-1,.2.5.5.9.7,1.4-.6,0-1.1,0-1.6,0-.3,0-.5,0-.6.3-.2.4-.5.8-.7,1.2-.2.4-.2.5.3.6,1.3.1,2.5.2,3.8.3.6,0,1.2.1,1.8.2.6,0,.6,0,.4-.6,0,0,0-.1,0-.2,0,0,0,0,0,0Z" style="fill: #fff;"></path><path d="M34.3,46.5c.3,0,.5,0,.8,0,.7.1,1.1-.2,1.4-.8.1-.3.3-.5.5-.8,0-.1,0-.3.1-.4-.1,0-.3-.1-.4-.1-1.3,0-2.7,0-4,0-.5,0-.9,0-1.4,0-.2,0-.4.1-.5.3-.3.5-.6,1-.8,1.4-.2.3-.1.5.2.4.4,0,.8,0,1.2-.1.3,0,.5,0,.8,0,0,.1,0,.2,0,.2-.7,0-1.4,0-2.1.1-.3,0-.4-.3-.3-.5.3-.6.5-1.2.9-1.8,0-.2.4-.3.6-.3,1.8,0,3.6,0,5.5,0,.1,0,.2,0,.3,0,.5,0,.7.4.4.7-.4.5-.8,1-1.2,1.5,0,0-.2.1-.3.1-.5,0-1,0-1.6,0,0,0,0,0,0-.1Z" style="fill: #fff;"></path><path d="M51.6,48.1c-1-.6-1.9-.4-2.9,0-.4-.8-.1-1.4.7-1.5.5,0,.9,0,1.4,0,.9,0,1.2.6.8,1.4Z" style="fill: #fff;"></path><path d="M8,50.7c.4,0,1,0,1.4.4,0,0,.2.2.3.2-.1,0-.3.2-.4.3-.2.2-.4.3-.6.5-.2.2-.4.4-.6.7,0-.4,0-.7-.2-.9-.2-.2-.5-.3-.8-.5.4-.6,0-1.1-.4-1.6.4.3.8.6,1.3,1Z" style="fill: #fff;"></path><path d="M90.1,47.2c.4-.2.8-.3,1.2-.5.3-.1.6-.2.8-.3,1.7-.5,2.7-1.7,3.3-3.2,0-.2.1-.3.2-.5.2.4,0,.7,0,1-.6,1.6-1.7,2.6-3.3,3.1-.5.2-1.1.4-1.6.6-.2,0-.4,0-.6,0,0,0,0-.1,0-.2Z" style="fill: #fff;"></path><path d="M22.5,51c.1-.3.2-.6.3-.9.2-.3.2-.5,0-.8-.2-.2-.3-.3-.4-.6.6.9,1.6.8,2.5.7.7,0,1.4-.1,2.1-.2.2,0,.5-.1.5.2,0,.3-.2.3-.4.3-1.1,0-2.2.2-3.3.3-.5,0-.8.2-1,.6,0,0,0,.1-.1.2,0,0,0,0,0,0Z" style="fill: #fff;"></path><path d="M88,52.2c1,.2,2,.3,3,.5,0,.1-.1.2-.1.3-.7.5-1.5.9-2.4.8-.1,0-.3-.1-.4-.3,0-.4,0-.8-.1-1.3Z" style="fill: #fff;"></path><path d="M88,56.5c0-.2-.1-.3-.2-.5-.2-.5,0-.8.5-1,.8-.2,1.6-.4,2.4-.7.2,0,.4-.2.6-.4.5-.4.5-.6.3-1.3.5.2.6.9.2,1.2-.5.4-1.1.7-1.6,1-.4.2-.8.3-1.2.4-.6.2-.7.4-.7,1,0,0,0,0,0,.1,0,.5.2,1-.2,1.3-.4.4-1.5.5-2.1.3.4,0,.7,0,1-.1.5,0,1-.3,1.2-.8,0-.2,0-.4-.1-.6h0Z" style="fill: #fff;"></path><path d="M84.5,56.6c.5-.4.8-.8,1.1-1.1,0,0,.2,0,.3,0,.4.2.9.4,1.3.6.3.1.3.4,0,.5-.3.1-.7.3-1.1.3-.5,0-1-.1-1.7-.2Z" style="fill: #fff;"></path><path d="M94.5,48.4c.2.3,0,.5-.1.8-1,1.3-2.4,1.9-4.1,1.8-.3,0-.6,0-.8,0,0,0,0,0,0-.1.2,0,.4,0,.6,0,1.1,0,2.1-.2,3-.9.6-.4,1-1,1.5-1.5Z" style="fill: #fff;"></path><path d="M55,51.3c.8.4,1.7.2,2.5.3,0,.6-.3,1-.9,1-.2,0-.4,0-.6,0-.8,0-1.2-.4-1.1-1.3Z" style="fill: #fff;"></path><path d="M62.4,51.6c.4,0,.7.2,1,.2.3,0,.7,0,1,0,.4,0,.5.3.2.6,0,0-.2.2-.3.2-.5,0-1,.1-1.4,0-.7-.2-.8-.5-.4-1.2Z" style="fill: #fff;"></path><path d="M95.7,44.6c-.2.6-.4,1.2-.9,1.7-.4.4-.8.8-.6,1.4h-1.8s0,0,0-.1c.2-.1.4-.3.6-.4,1.1-.5,2-1.2,2.5-2.3,0,0,.1-.1.2-.2Z" style="fill: #fff;"></path><path d="M72.2,52.7c.5-.5.5-.7.2-1.3-.2-.4-.4-.9-.7-1.3-.2-.4-.2-.7,0-1.1,0-.2,0-.4,0-.5,0-.9,0-1.9,0-2.8,0,0,.1,0,.2,0,0,.8,0,1.5,0,2.3,0,1.6.1,3.1,1.5,4.4-.5.1-.9.3-1.2.4,0,0,0,0,0,0Z" style="fill: #fff;"></path><path d="M5.7,47.7c1,1.6,2.4,2.5,4.3,2.6-1.6.2-3.1-.2-4.1-1.5-.2-.3-.3-.6-.2-1Z" style="fill: #fff;"></path><path d="M79.1,51.9c-.3,1.1-1.2,1.2-2,1.2-1.1,0-2.2-.2-3.2-.8-.3-.2-.5-.5-.8-.8,2.4,1.7,4.4,1.9,6,.5Z" style="fill: #fff;"></path><path d="M46.9,50.3c2.1,1.2,4.2,1.1,6.3.2-.3.2-.5.4-.8.5-1.5.5-3,.4-4.5,0-.4-.1-.8-.4-1-.7Z" style="fill: #fff;"></path><path d="M37.4,51.8h1.8c.1.5,0,.7-.6.9-.5.1-1.1-.2-1.2-.9Z" style="fill: #fff;"></path><path d="M74.5,48.6c.3,1.1.4,1.1,1.4,1.3,0,0,0,0,.1,0,1.1.2,1.2,0,1.6-.9.2.9-.1,1.4-1,1.3-.3,0-.7,0-1,0-1-.2-1.2-.5-1.1-1.6Z" style="fill: #fff;"></path><path d="M88.6,54.2c1.2-.2,2.1-.6,2.9-1.3.2.2.2.5,0,.6-.8.6-1.6,1-2.6.8,0,0,0,0-.3-.1Z" style="fill: #fff;"></path><path d="M83,52.4c.1,1.3,0,1.1,1.1,1.3.3,0,.6.2.9,0,.2,0,.1-.5.2-.9,0,.3.1.5.1.6,0,.6-.2.8-.7.7-.3,0-.7-.1-1-.2-.6-.1-.8-.4-.7-1,0-.2,0-.3.1-.6Z" style="fill: #fff;"></path><path d="M52.1,47.8c0,.7-.2,1.1-.8,1.1-.8,0-1.5,0-2.3,0-.6,0-.8-.4-.8-1.1.1.9.8,1,1.5,1,.4,0,.7,0,1.1,0,.7,0,1.2-.2,1.3-1Z" style="fill: #fff;"></path><path d="M85.5,48.1c.5,0,.9,0,1.4.1-.3.6-.7.9-1.3,1.1,0-.4,0-.8,0-1.2Z" style="fill: #fff;"></path><path d="M9.3,52.1c.4,0,.8,0,1.2,0,.1,0,.3.2.3.3,0,.2,0,.4.1.6-.7,0-1.2-.3-1.7-.6v-.2Z" style="fill: #fff;"></path><path d="M45.3,50.4c0,.2.3.4.2.5,0,.1-.3.3-.5.3-.7,0-1.3,0-2,0-.6,0-.7-.5-.9-1,0,0,0,0,0,0,.3.7.9.9,1.7.7.3,0,.6,0,.9,0,.5,0,.6-.1.3-.6,0,0,0,0,.1,0Z" style="fill: #fff;"></path><path d="M45.1,49.6c-.2-.2-.4-.4-.5-.5.3-.6.6-1.1.9-1.6.2.5,0,1.3-.4,2.1Z" style="fill: #fff;"></path><path d="M57.4,49.6v-1.6s0,0,0,0c.5.6,1,1.1,1.5,1.7,0,0,0,0,0,0-.3-.2-.5-.4-.8-.7-.1,0-.3-.2-.4-.2,0,.1-.1.3-.2.4,0,.1,0,.3-.1.4,0,0,0,0,0,0,0,0,0,0,0,0Z" style="fill: #fff;"></path><path d="M86.5,53.6c.1-.2.2-.4.2-.4.1-.1.4-.3.5-.3.2,0,.5.3.6.5.1.2,0,.4-.3.4-.3,0-.7,0-1.1-.1Z" style="fill: #fff;"></path><path d="M34.2,50.7c.3.8.2,1.1-.7,1.2-.3,0-.6,0-.9,0-.7,0-.9-.2-.7-.8,0,0,0-.2,0-.3q.1.9,1,.8c0,0,.1,0,.2,0q.9,0,1-1Z" style="fill: #fff;"></path><path d="M39.6,50.5c.3.7,0,.9-.5,1-.3,0-.7,0-1,0-.8,0-1-.2-.7-1,0,.2,0,.3,0,.4,0,.3.2.4.4.4.3,0,.6,0,.9,0q.7,0,.9-.8Z" style="fill: #fff;"></path><path d="M55.4,50.3q0,.8.8.8c.1,0,.2,0,.3,0q.7,0,.9-.6c0,.2.1.5,0,.6,0,.1-.4.2-.6.2-.3,0-.6,0-.9,0-.7,0-.9-.3-.6-1Z" style="fill: #fff;"></path><path d="M78.8,53.1c-.4.2-.7.5-1.1.7-.1,0-.3,0-.4,0,0,0-.2-.1-.2-.2,0,0,.1-.2.2-.2.5-.1.9-.3,1.4-.4,0,0,0,0,0,.1Z" style="fill: #fff;"></path><path d="M91.2,51.4c-.3.2-.7.4-.5.8-.3,0-.6-.1-.9-.2-.1,0-.2-.2-.2-.2,0,0,.2-.2.3-.2.4,0,.8-.1,1.3-.2Z" style="fill: #fff;"></path><path d="M62.2,50.5c0,.7-.2,1-.8,1.1-.8.1-1.4-.3-1.6-.9.4.2.8.6,1.2.7.6.2.9-.3,1.2-.9Z" style="fill: #fff;"></path><path d="M8.8,52.4c.6.3,1.1.7,1.6,1-.8.1-1.8-.4-1.6-1Z" style="fill: #fff;"></path><path d="M12.7,52.2c0-1,.5-1.7,1-2.5-.3.8-.7,1.7-1,2.5Z" style="fill: #fff;"></path><path d="M20.7,51.5c-.4-.8-.8-1.6-1.2-2.4.6.7,1.1,1.4,1.2,2.4Z" style="fill: #fff;"></path><path d="M85.1,51.8v-2.2s0,0,.1,0v2.2s0,0-.1,0Z" style="fill: #fff;"></path><path d="M88,56.5c0,.4-.2.7-.6.8-.3.1-.7.1-1,.1.4-.1.7-.3,1.1-.5.2-.1.4-.3.5-.4,0,0,0,0,0,0Z" style="fill: #fff;"></path><path d="M63.4,50.1c0-.9.6-1.4,1.2-2-.4.6-.8,1.3-1.2,2Z" style="fill: #fff;"></path><path d="M44.6,49.7c-.2-.2-.4-.5-.6-.6.3-.3.7-.6.9-.8,0,.3-.9.8-.3,1.5Z" style="fill: #fff;"></path><path d="M79.5,51.3c.1-.7.2-1.4.3-2.2.2.8.2,1.5-.3,2.2Z" style="fill: #fff;"></path><path d="M70.5,48.4c.4.7.7,1.4,1.1,2,0,0-.1,0-.2,0-.4-.7-.7-1.4-1.1-2.1,0,0,0,0,.1,0Z" style="fill: #fff;"></path><path d="M42.5,47h-1.9s0,0,0,0h1.9s0,0,0,0Z" style="fill: #fff;"></path><path d="M29.5,50.3c0-.7,0-1.3,0-1.9.3.6.5,1.3,0,1.9Z" style="fill: #fff;"></path><path d="M72.6,50.5c-.4-.6-.5-1.3-.3-2,.1.7.2,1.3.3,2Z" style="fill: #fff;"></path><path d="M32.1,50.1c-.3-.5-.2-1.1,0-1.6v1.6Z" style="fill: #fff;"></path><path d="M62.2,49.7v-1.5s0,0,.1,0v1.5s0,0-.1,0Z" style="fill: #fff;"></path><path d="M54.3,47.9c.2.6,0,1.2-.4,1.7.1-.6.3-1.1.4-1.7Z" style="fill: #fff;"></path><path d="M46,47.9c.2.6.3,1.2.5,1.7-.5-.5-.6-1-.5-1.7Z" style="fill: #fff;"></path><path d="M82.9,51.6v-2.1s0,0,.1,0v2.1s0,0-.1,0Z" style="fill: #fff;"></path><path d="M37.3,49.8v-1.6s0,0,.1,0v1.6h-.1Z" style="fill: #fff;"></path><path d="M10.8,47.8c-.4.2-.8.3-1.1-.2.4,0,.7.2,1.1.2Z" style="fill: #fff;"></path><path d="M34.2,50v-1.7s0,0,.1,0v1.7s0,0-.1,0Z" style="fill: #fff;"></path><path d="M39.6,49.6c.7,0,1.5-.2,2.2.1h-2.2s0,0,0-.1Z" style="fill: #fff;"></path><path d="M9.9,49.5c.1,0,.3-.2.5-.3.1,0,.2.2.4.4-.3,0-.5,0-.8.1,0,0,0-.1-.1-.2,0,0,0,0,0,0Z" style="fill: #fff;"></path><path d="M55.3,49.5v-1.5h.1v1.5h-.1Z" style="fill: #fff;"></path><path d="M17,50.3h-.6c0-.2.2-.4.3-.7.1.3.2.5.3.7Z" style="fill: #fff;"></path><path d="M93.5,50.5l.7-.6c0,0,0,.1.1.2-.3.2-.5.4-.8.6,0,0,0,0-.1-.1Z" style="fill: #fff;"></path><path d="M67.5,48.4c.1.3.2.4.3.7-.2,0-.4,0-.7,0,.1-.2.2-.4.3-.6Z" style="fill: #fff;"></path><path d="M87.2,52.3c.2,0,.4,0,.4,0,0,.1.2.3.2.5,0,0,0,0-.1,0-.1-.2-.3-.3-.5-.6Z" style="fill: #fff;"></path></g></g></g></svg> 