<?xml version="1.0" encoding="UTF-8"?> <svg xmlns="http://www.w3.org/2000/svg" version="1.1" viewBox="0 0 500 500"><g><g id="Layer_1"><g><path d="M351.9,99.6c-3.9,0-7.1,2.4-9.4,5.4-11-2.4-28.2-3.9-35.9-4.7h-25c-3.2-3.2-7.1-4.7-12.5-6.2,0-.8,0-1.5-.8-2.4,3.9-3.2,6.2-7.8,6.2-13.3,0-10.1-7.8-18-18-18s-18,7.8-18,18,2.4,10.1,6.2,14v2.4c-4.7,1.5-9.4,3.9-12.5,6.2h-25c-7.8.8-24.3,2.4-35.9,3.9-1.5-3.2-5.4-5.4-9.4-5.4s-10.1,4.7-10.1,10.1,4.7,10.1,10.1,10.1,7.1-2.4,9.4-5.4c11.8,1.5,29,3.2,35.9,3.9h25c1.5,1.5,4.7,3.2,7.1,4.7-2.4,14.8-4.7,29.7-5.4,38.3-1.5,21.1,0,83.7,0,83.7h44.5s1.5-63.4,0-83.7c-.8-8.6-3.2-23.5-5.4-38.3,3.2-1.5,5.4-3.2,7.1-4.7h25c7.8-.8,24.3-2.4,35.9-3.9,1.5,3.2,5.4,5.4,9.4,5.4s10.1-4.7,10.1-10.1c2.3-5.3-2.4-10.1-8.6-10.1Z" style="fill: #f7cf57;"></path><path d="M416,317.8c-42.2,19.6-98.5,29.7-158.7,29.7s-115.7-11-158.7-29.7c-30.5-14-51.6-31.2-61.8-50.8v32.1c0,55.5,98.5,100.9,220.5,100.9s220.5-45.4,220.5-100.9v-32.1c-10.2,19.5-31.3,36.7-61.8,50.8Z" style="fill: #f7cf57;"></path><path d="M419.9,263.8c-2.4-6.2-6.2-11-11.8-14-.8,0-.8-.8-1.5-.8-1.5-.8-3.2-.8-4.7-1.5-1.5,0-3.2-.8-4.7-.8-13.3,0-25,11-25,25s.8,5.4,1.5,7.8c0,.8.8,2.4,1.5,3.2,0,0,0,.8.8.8,3.9,7.8,12.5,12.5,21.1,12.5s10.1-1.5,14-4.7c6.2-4.7,11-11.8,11-20.4-.8-1.7-1.5-4-2.3-7.2ZM405,290.4c-2.4.8-4.7,1.5-7.8,1.5-7.1,0-13.3-3.9-17.2-10.1,0-.8-.8-.8-.8-1.5-.8-.8-.8-2.4-1.5-3.2s-.8-3.2-.8-4.7c0-11,8.6-19.6,19.6-19.6h3.2c1.5,0,3.2.8,4.7,1.5.8,0,.8.8,1.5.8,3.2,1.5,6.2,4.7,7.8,8.6,1.5,2.4,2.4,5.4,2.4,9.4.7,7.2-4,14.2-11.1,17.3Z" style="fill: #f7cf57;"></path><path d="M284.6,141.8c1.5,8.6,2.4,15.7,2.4,19.6s.8,7.8.8,12.5c5.4.8,11,.8,16.4,1.5,14.8,2.4,29,5.4,41.5,9.4s24.3,9.4,32.9,14.8c9.4,5.4,16.4,11.8,21.1,18.7,4.7,6.2,7.1,14,7.1,21.1s-.8,5.4-1.5,8.6c.8,0,.8.8,1.5.8.8-3.2,1.5-5.4,1.5-8.6h44.5c0,8.6-3.2,17.2-9.4,25.8l-25-3.9c.8,2.4,1.5,5.4,1.5,8.6,0,8.6-3.9,15.7-11,20.4l4.7,1.5c-11.8,7.1-25,13.3-40.7,18.7l-26.6-16.4c10.1-3.2,18.7-7.8,27.3-11.8,0,0,0-.8-.8-.8-6.2,5.4-16.4,10.1-27.3,13.3-12.5,3.9-26.6,7.8-41.5,9.4-14.8,2.4-30.5,3.2-46.2,3.2h0c-16.4,0-32.1-1.5-46.2-3.2-14.8-2.4-29-5.4-41.5-9.4-12.5-3.9-24.3-9.4-32.9-14.8-9.4-5.4-16.4-12.5-21.1-18.7-4.7-6.2-7.1-14-7.1-21.1s2.4-14,7.1-21.1c4.7-7.1,12.5-13.3,21.1-18.7,9.4-5.4,20.4-11,32.9-14.8,12.5-3.9,26.6-7.8,41.5-9.4,5.4-.8,11-1.5,16.4-1.5v-.8c-5.4.8-10.1.8-15.7,1.5l-14-19.6c10.1-1.5,20.4-2.4,30.5-3.2.8-3.2.8-7.1,1.5-11-108.7,4.7-194,46.9-194,98.5s98.5,100,220.5,100,220.5-44.5,220.5-100c.1-51.4-84.4-93.6-193-99.2ZM345.6,184.8c-11.8-3.9-25-7.1-39.1-9.4l14-19.6c18,3.2,35.9,7.1,51.6,11.8l-26.6,17.2ZM401.1,218.4c-4.7-6.2-11.8-12.5-20.4-18l35.9-11.8c11,7.1,20.4,14.8,26.6,23.5l-42.1,6.2ZM140,169.2l26.6,16.4c-11.8,3.9-21.9,8.6-31.2,14l-35.9-11.8c11.6-7.1,25.7-13.3,40.6-18.7ZM69.5,213.8l42.2,6.2c-4.7,6.2-7.1,13.3-7.1,19.6h-44.5c.8-8.6,3.9-17.2,9.4-25.8ZM113.4,263.1c4.7,6.2,11.8,12.5,20.4,18l-35.9,11.8c-11-7.1-20.4-14.8-26.6-23.5l42.1-6.2ZM194.7,325.5c-18-3.2-35.9-7.1-51.6-11.8l26.6-16.4c11.8,3.9,25,7.1,39.1,9.4l-14,18.8ZM259.6,330.3v-20.4c14.8,0,29-.8,43-3.2l14,19.6c-18.7,2.3-37.4,3.9-57,3.9Z" style="fill: #f7cf57;"></path></g></g></g></svg> 