<?xml version="1.0" encoding="UTF-8"?> <svg xmlns="http://www.w3.org/2000/svg" version="1.1" viewBox="0 0 500 500"><g><g id="Layer_1"><g><path d="M325.3,168.8H117c-3.9,0-7.1,3.2-7.1,7.1v104.1c0,3.9,3.2,7.1,7.1,7.1h208.3c3.9,0,7.1-3.2,7.1-7.1v-104.1c0-3.9-3.2-7.1-7.1-7.1ZM124.1,183h55.3v90h-55.3v-90ZM193.6,183h55.2v90h-55.2v-90ZM318.2,272.9h-55.2v-90h55.2v90Z" style="fill: #f7cf57;"></path><path d="M326.3,81.4H117c-3.9,0-7.1,3.2-7.1,7.1v52.5c0,3.9,3.2,7.1,7.1,7.1h209.2c3.9,0,7.1-3.2,7.1-7.1v-52.5c0-3.9-3.2-7.1-7.1-7.1ZM319.2,134H124.1v-38.4h195.1v38.4Z" style="fill: #f7cf57;"></path><path d="M351.7,395c-3.9,0-7.1,3.2-7.1,7.1v37H89.3v-37c0-3.9-3.2-7.1-7.1-7.1s-7.1,3.2-7.1,7.1v44.1c0,3.9,3.2,7.1,7.1,7.1h269.4c3.9,0,7.1-3.2,7.1-7.1v-44.1c0-3.9-3.2-7.1-7.1-7.1Z" style="fill: #f7cf57;"></path><path d="M430.4,195h-2.3v-64.4c15-3.3,26.3-16.7,26.3-32.7s-15-33.4-33.4-33.4-33.4,15-33.4,33.4,11.3,29.4,26.3,32.7v64.4h-45.9V53.9c0-3.9-3.2-7.1-7.1-7.1H82.2c-3.9,0-7.1,3.2-7.1,7.1v232.6l-24.1,24.1c-1.3,1.3-2.1,3.1-2.1,5v69.5c0,3.9,3.2,7.1,7.1,7.1h330.3c3.9,0,7.1-3.2,7.1-7.1v-69.5c0-1.8-.7-3.6-2-4.9l-23.4-24.2v-24.8h62.4c12.6,0,23.6-10.6,24.9-24.1,0-.2,0-.5,0-.7v-16.9c0-13.8-11.2-25-25-25ZM401.8,98c0-10.6,8.6-19.2,19.2-19.2s19.2,8.6,19.2,19.2-7,17.5-16.2,19c-.9-.4-1.9-.7-3-.7s-2.1.3-3,.7c-9.2-1.5-16.2-9.4-16.2-19ZM379.2,318.5v59.5H63.1v-59.4l24.1-24.1c1.3-1.3,2.1-3.1,2.1-5V61h264.5v228.5c0,1.8.7,3.6,2,4.9l23.4,24.2ZM441.2,236.5c-.8,6.1-5.5,11.1-10.8,11.1h-62.4v-38.4h62.4c5.2,0,10.8,4.1,10.8,10.8v16.5Z" style="fill: #f7cf57;"></path></g></g></g></svg> 