<?xml version="1.0" encoding="UTF-8"?> <svg xmlns="http://www.w3.org/2000/svg" id="Layer_1" data-name="Layer 1" version="1.1" viewBox="0 0 100 100"><path d="M26.9,47.3c1.6-1.4,3.2-2.8,4.7-4.2,5.3-5,9.8-10.6,13.2-17.1.3-.5.5-1.1.8-1.7.5-1,.8-1.9.5-3.2-.6-2.6.9-5.1,3.3-6,2.4-.9,5.2,0,6.5,2.3,2.5,4.2,4.9,8.5,7.4,12.7.2.3.3.5.5.8,1.9-1.3,3.9-1.7,6-.9,1.6.6,2.7,1.6,3.5,3.1,1.3,2.6.9,6.7-3.2,8.8.1.3.3.5.4.8,2.4,4.2,4.9,8.4,7.3,12.6,1.8,3.2.4,6.9-2.9,8-2.1.7-3.9.1-5.5-1.3-.4-.3-.9-.6-1.4-.7-7.9-1-15.6.1-23.2,2.2-2.2.6-4.3,1.4-6.4,2.1-.5.2-.7.2-1-.3-3.4-6-6.9-12-10.4-18,0,0,0-.1,0-.2Z" style="fill: #fff; stroke-width: 0px;"></path><path d="M23.5,48.3c3.8,6.7,7.6,13.2,11.5,19.9-.1.1-.2.2-.4.3-2.9,1.7-5.8,3.4-8.8,5-3.9,2.1-7.9,2-11.6-.3-3.7-2.3-5.6-5.8-5.4-10.2.1-4,1.9-7.1,5.3-9.3,3-1.9,6.2-3.6,9.4-5.5Z" style="fill: #fff; stroke-width: 0px;"></path><path d="M29.8,75.2c2.4-1.4,4.8-2.8,7.2-4.2.2.2.4.5.6.7,2.4,3.1,4.8,6.2,7.1,9.3,1.1,1.4,1,2.5-.3,3.7-.8.7-1.6,1.5-2.4,2.2-1,.9-2.4.9-3.2-.2-3-3.8-5.9-7.6-9-11.5Z" style="fill: #fff; stroke-width: 0px;"></path><path d="M69.4,24.2c-2.1,0-3.2-1.8-2.4-3.5.6-1.2,1.3-2.4,2-3.6.7-1.1,1.3-2.3,2-3.4.8-1.3,2.1-1.7,3.3-1,1.1.7,1.5,2,.8,3.3-1.3,2.3-2.6,4.6-4,6.9-.5.8-1.1,1.2-1.7,1.2Z" style="fill: #fff; stroke-width: 0px;"></path><path d="M84.8,39.7c1.3,0,2.6,0,3.9,0,1.4,0,2.4.9,2.4,2.2,0,1.3-.9,2.4-2.3,2.4-2.7,0-5.4,0-8.1,0-1.4,0-2.4-1.1-2.3-2.4,0-1.3,1-2.2,2.5-2.3,1.3,0,2.6,0,3.9,0Z" style="fill: #fff; stroke-width: 0px;"></path><path d="M79.3,31.8c-1.1,0-2-.7-2.3-1.8-.3-1,0-2,1-2.6,1.4-.9,2.9-1.7,4.4-2.6.7-.4,1.5-.9,2.2-1.3,1.3-.7,2.7-.3,3.3.8.7,1.2.3,2.5-.9,3.2-2.2,1.3-4.3,2.5-6.5,3.8-.4.2-.8.3-1.2.4Z" style="fill: #fff; stroke-width: 0px;"></path></svg> 