<?xml version="1.0" encoding="UTF-8"?> <svg xmlns="http://www.w3.org/2000/svg" id="Layer_1" data-name="Layer 1" version="1.1" viewBox="0 0 100 100"><path d="M50,11.1c6.3,0,12.6,0,18.9,0,1.9,0,2.5.6,2.5,2.5,0,8.9-1.2,17.6-4.1,26-1.7,5-4,9.7-7.8,13.6-2.3,2.4-5,4.1-8.4,4.5-3.9.4-7-1.1-9.8-3.6-3.5-3.1-5.7-7-7.5-11.2-2.6-6.2-4.1-12.7-4.7-19.3-.3-3.3-.4-6.6-.6-9.9,0-2,.6-2.6,2.5-2.6,6.3,0,12.6,0,18.9,0Z" style="fill: #fff; stroke-width: 0px;"></path><path d="M28.6,79.1c0-2.7,0-5.2,0-7.8,0-1.1.7-1.7,1.8-1.8.2,0,.5,0,.7,0,12.6,0,25.2,0,37.8,0,.2,0,.5,0,.7,0,1.1,0,1.8.8,1.8,1.8,0,2.6,0,5.2,0,7.8H28.6Z" style="fill: #fff; stroke-width: 0px;"></path><path d="M50,88.9c-7.6,0-15.2,0-22.8,0-2,0-2.6-.6-2.6-2.6,0-.4,0-.7,0-1.1,0-1.3.8-2,2.1-2.1.2,0,.4,0,.6,0,15.1,0,30.1,0,45.2,0,2.2,0,2.8.6,2.8,2.8,0,.4,0,.7,0,1.1,0,1.2-.8,2-2,2-1.1,0-2.2,0-3.3,0-6.7,0-13.4,0-20,0Z" style="fill: #fff; stroke-width: 0px;"></path><path d="M67.3,49.4c.9-2,1.8-3.9,2.8-5.9.2-.3.5-.6.9-.8,3.6-2.5,7-5.2,9.6-8.9,1.4-2,2.5-4.2,2.6-6.8.1-4.2-3.4-7-7.5-6-.2,0-.3,0-.6.1,0-1.4.2-2.7.2-4,2.1-.5,4.2-.2,6.1.7,4.5,2.1,6.5,6.8,5.2,12-.8,3.1-2.4,5.8-4.5,8.2-4.1,4.8-9.2,8.4-14.7,11.4,0,0-.1,0-.1,0Z" style="fill: #fff; stroke-width: 0px;"></path><path d="M32.6,49.5c-2.1-1.3-4.3-2.6-6.3-4.1-4-2.8-7.7-5.9-10.4-10-2-3.1-3.3-6.4-2.8-10.2.7-5.4,6.6-9.5,11.7-8,0,1.3.2,2.6.2,3.8-1.1,0-2.1-.3-3.1-.1-3.5.5-5.5,3.7-4.8,7.4.7,3.5,2.6,6.3,5.1,8.7,2.2,2.1,4.7,3.9,7,5.8.4.3.8.8,1,1.2.9,1.8,1.7,3.6,2.6,5.4,0,0,0,.1,0,.2Z" style="fill: #fff; stroke-width: 0px;"></path><path d="M46.2,61.2c2.6.7,5.1.7,7.7,0v4.3h-7.7v-4.3Z" style="fill: #fff; stroke-width: 0px;"></path></svg> 