<?xml version="1.0" encoding="UTF-8"?>
<svg id="Layer_1" xmlns="http://www.w3.org/2000/svg" xmlns:xlink="http://www.w3.org/1999/xlink" version="1.1" viewBox="0 0 792 202">
  <!-- Generator: Adobe Illustrator 29.2.1, SVG Export Plug-In . SVG Version: 2.1.0 Build 116)  -->
  <defs>
    <style>
      .st0 {
        fill: #fff;
      }

      .st1 {
        fill: #fcd500;
      }
    </style>
  </defs>
  <path class="st1" d="M738.6,101.2c-.6-1.8-2.1-3.2-4.1-3.5l-19.2-2.8-8.6-18.3c-.8-1.8-2.7-3-4.7-3s-3.8,1.1-4.7,3l-8.6,18.3-19.3,2.8c-1.8.3-3.5,1.6-4.1,3.5-.6,1.8,0,3.9,1.3,5.4l14,14.4-3.2,20.2c-.3,2,.4,3.9,2.1,5.2,1.6,1.1,3.7,1.3,5.4.3l17.1-9.6,17.4,9.6c1.7,1,3.7.8,5.4-.3s2.4-3.1,2.1-5.2l-3.4-20.2,14-14.2c1.4-1.6,1.8-3.7,1.3-5.5h-.2Z"/>
  <path class="st1" d="M126.6,101.2c-.6-1.8-2.1-3.2-4.1-3.5l-19.2-2.8-8.6-18.3c-.8-1.8-2.7-3-4.7-3s-3.8,1.1-4.7,3l-8.6,18.3-19.3,2.8c-1.8.3-3.5,1.6-4.1,3.5-.6,1.8,0,3.9,1.3,5.4l14,14.4-3.2,20.2c-.3,2,.4,3.9,2.1,5.2,1.6,1.1,3.7,1.3,5.4.3l17.1-9.6,17.4,9.6c1.7,1,3.7.8,5.4-.3s2.4-3.1,2.1-5.2l-3.4-20.2,14-14.2c1.4-1.6,1.8-3.7,1.3-5.5h-.2Z"/>
  <g>
    <path class="st0" d="M170.3,171.7c-3.1,0-6.4-.1-9.9-.4-3.5-.3-6.8-.6-10-1-3.2-.4-5.9-.9-8.2-1.4l3.4-25.4c2.6.3,5.1.6,7.7.9,2.5.3,4.9.5,7.1.6,2.2.1,4.1.2,5.7.2s3.5,0,4.8,0c1.2,0,2.3-.2,3-.4.8-.2,1.3-.5,1.8-.8.2-.2.4-.5.6-1,.2-.4.4-.9.6-1.4.2-.5.3-1.1.5-1.8.1-.7.2-1.4.3-2.2,0-.7.1-1.5.1-2.2s-.1-1.7-.4-2.2c-.3-.5-1-.9-2.3-1.4-1.2-.4-3.3-1-6.1-1.8l-12.1-3c-2.9-.7-4.9-2.6-6-5.4-1.1-2.9-1.7-6.8-1.7-11.6s.1-5.3.4-8.4c.2-3,.6-6.2,1.1-9.7,1.1-7,2.6-12.7,4.5-16.9,1.9-4.3,4.3-7.5,7.1-9.7,2.8-2.2,6.1-3.7,9.9-4.5s7.9-1.2,12.5-1.2,6.1.2,9.2.5c3.1.3,6.1.7,8.8,1.2,2.8.5,5,1,6.8,1.7l-3.6,25.1c-1.7-.3-3.8-.6-6.2-.9-2.4-.3-4.9-.5-7.4-.6-2.6-.2-5-.2-7.3-.2s-2.5,0-3.4.2c-.9.1-1.7.3-2.4.5-.6.2-1.2.6-1.6,1.1-.4.4-.7.9-1,1.4-.3.5-.5,1.1-.6,1.8-.1.6-.3,1.3-.3,2.1,0,.7-.1,1.5-.1,2.4,0,1.3.4,2.1,1.1,2.6.8.4,2.1.9,4.1,1.4l10.9,2.7c2.1.4,4.1,1.2,5.9,2.3,1.9,1.1,3.4,3,4.7,5.7,1.2,2.7,1.8,6.6,1.8,12s0,2.7-.1,4.2c0,1.5-.2,3.2-.4,4.9-.2,1.7-.4,3.6-.7,5.6-1.2,7.9-2.8,14.1-4.7,18.8-1.9,4.7-4.2,8.2-6.8,10.5-2.6,2.3-5.7,3.8-9.2,4.5-3.5.7-7.5,1.1-12,1.1Z"/>
    <path class="st0" d="M205.2,170.4l15.6-109.8h25.1l-15.8,109.8h-25ZM226.1,50.1l2.9-19.8h17.6l-2.9,19.8h-17.6Z"/>
    <path class="st0" d="M237.9,170.4l3.8-25.7,34.6-57.4h-25.4l3.9-26.6h57.1l-3.6,24.9-35.3,58.2h26.9l-3.9,26.6h-58.1Z"/>
    <path class="st0" d="M305.1,170.4l15.6-109.8h54l-3.9,26.6h-29l-2,14.7h24l-3.8,26h-24l-2.3,15.8h29l-3.9,26.6h-53.9Z"/>
    <path class="st0" d="M428.6,171.7c-7.6,0-13.7-.8-18.1-2.4-4.4-1.6-7.5-4.2-9.3-7.7-1.8-3.6-2.7-8.4-2.7-14.4s.4-8.8,1.1-14.3c.7-5.5,1.5-11.8,2.5-18.9,1.1-8.8,2.2-16.4,3.3-22.7,1-6.3,2.3-11.5,3.9-15.6,1.6-4.1,3.6-7.3,6.2-9.7,2.5-2.4,5.8-4.1,9.9-5,4.1-1,9.2-1.4,15.3-1.4s13.6.8,17.9,2.4c4.3,1.6,7.3,4.2,9.1,7.7,1.8,3.6,2.7,8.4,2.7,14.6s-.3,8.9-.9,14.4c-.6,5.4-1.4,11.6-2.5,18.7-1.4,8.9-2.6,16.6-3.8,22.9-1.1,6.3-2.5,11.5-4,15.6-1.5,4.1-3.5,7.3-5.9,9.7-2.5,2.3-5.7,4-9.6,4.9-4,1-9,1.4-15.1,1.4ZM423.2,50.1l2.9-19.8h17.7l-2.9,19.8h-17.7ZM430.2,145c1.5,0,2.8-.1,3.8-.3,1-.2,1.8-.8,2.5-1.8.7-1,1.3-2.5,1.8-4.5.5-2.1,1.1-5,1.7-8.7.6-3.7,1.3-8.5,2.1-14.2.9-6.1,1.5-11,2-14.8.5-3.8.7-6.8.7-8.8s-.2-3.3-.6-4.1c-.4-.9-1.1-1.4-2-1.5-.9-.2-2.1-.2-3.5-.2s-2.7.1-3.7.3c-1,.2-1.8.8-2.5,1.8-.7,1-1.3,2.5-1.8,4.5-.5,2.1-1.1,5-1.7,8.7-.6,3.7-1.3,8.5-2,14.2-.6,4.1-1.1,7.8-1.6,10.9-.5,3.1-.8,5.7-1,7.8-.2,2.1-.3,3.9-.3,5.3s.2,3.1.6,3.9c.4.8,1.1,1.3,2,1.4.9.2,2.1.2,3.5.2ZM447.2,50.1l2.9-19.8h17.6l-2.9,19.8h-17.6Z"/>
    <path class="st0" d="M466.4,170.4l3.8-25.7,34.6-57.4h-25.4l3.9-26.6h57.1l-3.6,24.9-35.3,58.2h26.9l-3.9,26.6h-58.1Z"/>
    <path class="st0" d="M533.6,170.4l15.6-109.8h54l-3.9,26.6h-29l-2,14.7h24l-3.8,26h-24l-2.3,15.8h29l-3.9,26.6h-53.9Z"/>
    <path class="st0" d="M596.1,170.4l15.6-109.8h25.1l-11.7,81.7h24.7l-4.1,28.1h-49.6Z"/>
  </g>
</svg>