<?xml version="1.0" encoding="utf-8"?>
<!-- Generator: Adobe Illustrator 26.1.0, SVG Export Plug-In . SVG Version: 6.00 Build 0)  -->
<svg version="1.1" id="Layer_1" xmlns="http://www.w3.org/2000/svg" xmlns:xlink="http://www.w3.org/1999/xlink" x="0px" y="0px"
	 viewBox="0 0 1056.6 202" style="enable-background:new 0 0 1056.6 202;" xml:space="preserve">
<g id="Livello_1_1_">
</g>
<g id="Layer_1_00000121280000816817959920000000882230360127541942_">
</g>
<g>
	<g>
		<path style="fill:#FFFFFF;" d="M63.2,52.9l-37-25.7c-1.1-0.7-2.1-1-2.8-0.7c-0.5,0.2-0.9,0.8-1.2,1.5c-0.1,0.3-0.2,0.6-0.2,1
			l-7.8,51.2c-0.5,3.4,1.5,8.1,4.3,10l37,25.7c0,0,0,0,0,0c1,0.7,2.1,1,2.8,0.7c0.7-0.3,1.2-1.2,1.4-2.5l7.8-51.2
			C68,59.5,66,54.8,63.2,52.9z M31,83.4c-0.4,2.7-2,4.4-4.1,4.4c-0.9,0-1.9-0.3-2.8-1c-3-2.1-5-6.8-4.4-10.7c0.4-2.7,2-4.4,4.1-4.4
			c0.9,0,1.9,0.3,2.8,1C29.6,74.8,31.6,79.6,31,83.4z M46,74.8c-0.4,2.7-2,4.3-4.1,4.3c-0.9,0-1.9-0.3-2.8-1c-3-2.1-5-6.8-4.4-10.7
			c0.4-2.7,2-4.3,4.1-4.3c0.9,0,1.9,0.3,2.8,1C44.6,66.1,46.6,70.9,46,74.8z M61,66.1c-0.4,2.7-2,4.4-4.1,4.4c-0.9,0-1.9-0.3-2.8-1
			c-3-2.1-5-6.8-4.4-10.7c0.4-2.7,2-4.3,4.1-4.3c0.9,0,1.9,0.3,2.8,1C59.6,57.5,61.6,62.3,61,66.1z"/>
		<path style="fill:#FFFFFF;" d="M100,91.5C100,91.5,100,91.5,100,91.5C100,91.5,100,91.5,100,91.5c2.1-4.2,6.9-7.5,11.6-8.1
			c0.1,0,0.2,0,0.3,0c0.4,0,0.8-0.1,1.2-0.1l6.4,0l5.9-38.5c0-0.3,0.1-0.6,0.1-1c0-0.8-0.3-1.4-0.7-1.8c-0.6-0.5-1.6-0.6-2.8-0.2
			l-43,13.5c-3.3,1-6.6,4.9-7.1,8.3L64,114.8c-0.2,1.3,0,2.3,0.6,2.8c0.6,0.5,1.5,0.6,2.7,0.2c0,0,0.1,0,0.1,0l23.4-7.3L100,91.5z
			 M103.6,61.9c0.6-3.9,4-7.9,7.5-9c1.9-0.6,3.7-0.2,4.7,1c0.9,1,1.2,2.6,0.9,4.3c-0.6,3.9-4,7.9-7.5,9c-0.6,0.2-1.2,0.3-1.7,0.3
			c-1.2,0-2.3-0.4-3-1.3C103.7,65.2,103.3,63.7,103.6,61.9z M86.9,97.9c-0.6,3.9-4,7.9-7.5,9c-0.6,0.2-1.2,0.3-1.7,0.3
			c-1.2,0-2.3-0.4-3-1.3c-0.9-1-1.2-2.6-0.9-4.3c0.6-3.9,4-7.9,7.5-9c1.9-0.6,3.7-0.2,4.7,1C86.8,94.6,87.2,96.1,86.9,97.9z"/>
		<path style="fill:#FFFFFF;" d="M28.6,23.6l37,25.7c2.9,2,8.5,2.9,11.9,1.8l43-13.5c1.3-0.4,1.8-1,1.9-1.2c0-0.2-0.2-0.6-0.6-1
			c-0.3-0.2-0.5-0.5-0.8-0.7L84,9.1c-2-1.4-5.3-2.3-8.4-2.3c-1.3,0-2.5,0.2-3.5,0.5l-43,13.4c0,0,0,0,0,0c0,0,0,0,0,0
			c-0.3,0.1-0.6,0.2-0.9,0.4c-0.6,0.3-0.9,0.6-0.9,0.8C27.2,22.2,27.5,22.8,28.6,23.6z M65.8,26.2c0.2-1.3,1.4-2.4,3.2-3
			c1.1-0.3,2.3-0.5,3.6-0.5c3,0,6.2,0.9,8.2,2.3c1.6,1.1,2.4,2.5,2.2,3.8c-0.2,1.3-1.4,2.4-3.2,3c-1.1,0.3-2.3,0.5-3.6,0.5l0,0
			c-3,0-6.2-0.9-8.2-2.3C66.4,28.9,65.6,27.5,65.8,26.2z"/>
		<path style="fill:#FFFFFF;" d="M136.3,128.4l-18.6-23.8l-1.4-1.7l-1.4-1.7l-6.5-8.3c-0.8-1-1.7-1.5-2.5-1.5
			c-0.6,0.1-1.1,0.5-1.6,1.1c-0.2,0.3-0.4,0.6-0.5,0.8l-7.4,15.2l-1.3,2.7l-1.3,2.7l-12.6,26c-1.5,3.1-1,8.2,1.2,10.9l27.8,35.5
			c0,0,0,0,0,0c0.1,0.1,0.2,0.3,0.4,0.4c0.1,0.1,0.2,0.2,0.3,0.3c0.6,0.6,1.3,0.8,1.8,0.8c0.8-0.1,1.5-0.8,2.1-1.9l22.6-46.6
			C138.9,136.2,138.4,131.1,136.3,128.4z M96.3,148.1c-0.9,1.9-2.4,3-3.9,3c-1.2,0-2.4-0.7-3.3-1.8c-2.2-2.8-2.7-7.9-1.1-11.3
			c0.9-1.9,2.4-3,3.9-3c1.2,0,2.4,0.7,3.3,1.8C97.5,139.5,98,144.6,96.3,148.1z M102.3,109.1c0.2-0.8,0.4-1.6,0.7-2.3
			c0-0.1,0.1-0.2,0.1-0.3c0.9-1.8,2.3-2.8,3.8-2.8c0.8,0,1.6,0.3,2.3,0.9c0.4,0.3,0.7,0.6,1,1c0.2,0.2,0.4,0.5,0.5,0.8
			c0.4,0.6,0.7,1.3,0.9,2c0.9,2.7,0.8,6.1-0.4,8.6c-0.9,1.9-2.4,3-3.9,3c-1.2,0-2.4-0.7-3.3-1.8c-1.4-1.7-2-4.2-2-6.7
			C102.1,110.7,102.1,109.9,102.3,109.1z M104.9,134c0.9-1.9,2.4-3,3.9-3c1.2,0,2.4,0.7,3.3,1.8c2.2,2.8,2.7,7.9,1.1,11.3
			c-0.9,1.9-2.4,3-3.9,3c-1.2,0-2.4-0.7-3.3-1.8C103.7,142.6,103.2,137.5,104.9,134z M115,171.4c-0.9,1.9-2.4,3-3.9,3
			c-1.2,0-2.4-0.7-3.3-1.8c-2.2-2.8-2.7-7.9-1.1-11.3c0.9-1.9,2.4-3,3.9-3c1.2,0,2.4,0.7,3.3,1.8C116.2,162.9,116.7,168,115,171.4z
			 M130.1,140.3c-0.9,1.9-2.4,3-3.9,3c-1.2,0-2.4-0.7-3.3-1.9c-2.2-2.8-2.7-7.9-1.1-11.3c0.9-1.9,2.4-3,3.9-3c1.2,0,2.4,0.7,3.3,1.8
			C131.3,131.8,131.7,136.9,130.1,140.3z"/>
		<path style="fill:#FFFFFF;" d="M198.3,136.2c-0.4-0.7-1.4-1-2.6-1c0,0,0,0,0,0l-45.1,0.2c-3.4,0-7.7,2.7-9.2,5.8l-22.6,46.6
			c-0.6,1.1-0.6,2.2-0.2,2.8c0.4,0.7,1.4,1,2.6,1c0,0,0,0,0,0l45.1-0.1c3.4,0,7.7-2.7,9.2-5.8l22.6-46.6c0.1-0.3,0.2-0.6,0.3-0.9
			C198.6,137.4,198.6,136.7,198.3,136.2z M143.5,179.4c-1.7,3.4-5.9,6.2-9.5,6.2c-3.6,0-5.2-2.8-3.5-6.3c1.7-3.4,5.9-6.2,9.5-6.2
			C143.6,173.1,145.1,175.9,143.5,179.4z M151.1,163.6c-1.7,3.4-5.9,6.2-9.5,6.2c-3.6,0-5.2-2.8-3.5-6.3c1.7-3.4,5.9-6.2,9.5-6.1
			C151.2,157.4,152.7,160.2,151.1,163.6z M149.2,154.1c-3.6,0-5.2-2.8-3.5-6.3c1.7-3.4,5.9-6.2,9.5-6.1c3.6,0,5.2,2.8,3.5,6.3
			C157,151.4,152.8,154.1,149.2,154.1z M172.1,179.6c-1.7,3.4-5.9,6.2-9.5,6.1c-3.6,0-5.2-2.8-3.5-6.3c1.7-3.4,5.9-6.2,9.5-6.2
			C172.2,173.4,173.7,176.2,172.1,179.6z M179.7,163.9c-1.7,3.4-5.9,6.2-9.5,6.2c-3.6,0-5.2-2.8-3.5-6.3c1.7-3.4,5.9-6.2,9.5-6.1
			C179.8,157.7,181.4,160.5,179.7,163.9z M187.3,148.2c-1.7,3.4-5.9,6.2-9.5,6.1c-3.6,0-5.2-2.8-3.5-6.3c1.7-3.4,5.9-6.2,9.5-6.1
			C187.4,141.9,189,144.7,187.3,148.2z"/>
		<polygon style="fill:#FFFFFF;" points="153.2,124.5 153.2,124.5 153.2,124.5 		"/>
		<path style="fill:#FFFFFF;" d="M121.1,87.6l-2.2,0l-5.7,0c-0.3,0-0.7,0-1.1,0.1c-0.6,0.1-1,0.3-1.1,0.5c-0.1,0.2,0,1,0.9,2.1
			l5.4,6.9l1.5,2l1.5,1.9l19.4,24.7c2.2,2.8,7.3,5.3,10.9,5.3c0,0,0,0,0,0l45.1-0.2c1.4,0,2-0.4,2.1-0.6c0.1-0.2,0-0.6-0.3-1.2
			c-0.2-0.3-0.4-0.6-0.6-0.9l-27.8-35.5c-2.2-2.9-7.2-5.3-10.9-5.3l-35,0.1L121.1,87.6z M170.9,116.6c0.5-1,1.7-1.6,3.5-1.6
			c3.6,0,8.2,2.2,10.3,5c1.1,1.4,1.4,2.7,0.9,3.7c-0.5,1-1.7,1.6-3.5,1.6h0c-3.5,0-8.1-2.2-10.3-5
			C170.7,118.9,170.4,117.6,170.9,116.6z M152.5,94.3c0.5-1,1.7-1.6,3.5-1.6c3.6,0,8.2,2.2,10.3,5c1.1,1.4,1.4,2.7,0.9,3.7
			c-0.5,1-1.7,1.6-3.5,1.6h0c-3.5,0-8.1-2.2-10.3-5C152.4,96.6,152.1,95.3,152.5,94.3z M142,116c0.5-1,1.7-1.6,3.5-1.6
			c3.6,0,8.2,2.2,10.3,5c1.1,1.4,1.4,2.7,0.9,3.7c-0.5,1-1.7,1.6-3.5,1.6h0c-3.5,0-8.1-2.2-10.3-5C141.9,118.3,141.5,117,142,116z
			 M123.7,93.7c0.5-1,1.7-1.6,3.5-1.6h0c3.5,0,8.1,2.2,10.3,5c1.1,1.4,1.4,2.7,0.9,3.7c-0.5,1-1.7,1.6-3.5,1.6h0
			c-3.5,0-8.1-2.2-10.3-5C123.5,96,123.2,94.7,123.7,93.7z"/>
	</g>
</g>
<g>
	<path style="fill:#FFFFFF;" d="M229.2,117.5l31.6-35.2h-23.2l3.5-16.4h52.2L290,81.2l-32.2,35.7h24.6l-3.5,16.4h-53.1L229.2,117.5z
		"/>
	<path style="fill:#FFFFFF;" d="M315.8,65.9h31.8l4.3,67.4h-22l-0.3-10.1h-19.5l-4.5,10.1h-22.8L315.8,65.9z M329.1,107.5l-0.6-23.2
		h-0.9l-10.5,23.2H329.1z"/>
	<path style="fill:#FFFFFF;" d="M370.6,65.9h33.5c14.9,0,19.2,4.3,19.2,13c0,2.9-0.5,6.5-1.4,10.5c-2,8.7-3.2,15.1-11.7,18.7
		l3.8,25.2h-23l-2-22.4h-1.8H384l-4.8,22.4h-22.8L370.6,65.9z M391.3,95.6c5.6,0,6.5-0.3,7.8-6.9c0.4-2,0.7-3.4,0.7-4.4
		c0-2.2-1.3-2.5-5.7-2.5h-4l-2.9,13.8H391.3z"/>
	<path style="fill:#FFFFFF;" d="M449.7,119c0-5,1.6-11.7,3.2-20.4c5.2-27.2,7.1-33.5,35.2-33.5c20.9,0,27.1,3.9,27.1,15.2
		c0,5.1-1.2,11.7-3.1,20.3c-6.3,27.4-7.2,33.5-35.1,33.5C456,134,449.7,130.1,449.7,119z M489.4,99.6c1.6-7.4,2.4-11.9,2.4-14.5
		c0-3.5-1.7-3.6-5.6-3.6c-6.9,0-7,0.4-10.7,18.1c-1.7,7.7-2.6,12.1-2.6,14.7c0,3.3,1.7,3.4,5.6,3.4
		C485.4,117.7,485.6,117.3,489.4,99.6z"/>
	<path style="fill:#FFFFFF;" d="M534.8,111.5l-11.6-45.6h22.8l3.9,25.1h0.7l14.7-25.1h23.3l-30.9,45.6l-4.7,21.7h-22.9L534.8,111.5z
		"/>
	<path style="fill:#FFFFFF;" d="M583.4,119.4c0-4.3,0.8-10.1,2.3-17.1l7.7-36.4h22.9l-8.5,40.1c-1,4.4-1.5,7-1.5,8.7
		c0,2.4,1.2,2.6,4.2,2.6c5.1,0,5.3-0.6,7.5-11.4l8.5-40.1h22.9l-7.7,36.4c-5.6,26-6.8,31.7-33.8,31.7
		C588.5,134,583.4,130.1,583.4,119.4z"/>
	<path style="fill:#FFFFFF;" d="M659.5,65.9h23.9l7.5,26h0.7l5.6-26h21.3l-14.4,67.4h-21.5l-8.8-31.4h-0.6l-6.8,31.4h-21.2
		L659.5,65.9z"/>
	<path style="fill:#FFFFFF;" d="M728.1,65.9H751L740.4,116h22.5l-3.7,17.2h-45.3L728.1,65.9z"/>
	<path style="fill:#FFFFFF;" d="M792.5,65.9h31.8l4.3,67.4h-22l-0.3-10.1h-19.5l-4.5,10.1h-22.8L792.5,65.9z M805.9,107.5l-0.6-23.2
		h-0.9l-10.5,23.2H805.9z"/>
	<path style="fill:#FFFFFF;" d="M847.4,65.9h33.5c14.9,0,19.2,4.3,19.2,13c0,2.9-0.5,6.5-1.4,10.5c-2,8.7-3.2,15.1-11.8,18.7
		l3.8,25.2h-23l-2-22.4H864h-3.3l-4.8,22.4h-22.8L847.4,65.9z M868,95.6c5.6,0,6.5-0.3,7.8-6.9c0.4-2,0.7-3.4,0.7-4.4
		c0-2.2-1.3-2.5-5.7-2.5h-4l-2.9,13.8H868z"/>
	<path style="fill:#FFFFFF;" d="M911.4,65.9h22.9l-14.4,67.4h-22.8L911.4,65.9z"/>
</g>
</svg>
