<?xml version="1.0" encoding="UTF-8"?> <svg xmlns="http://www.w3.org/2000/svg" xmlns:xlink="http://www.w3.org/1999/xlink" version="1.1" id="Layer_1" x="0px" y="0px" viewBox="0 0 1000 1000" style="enable-background:new 0 0 1000 1000;" xml:space="preserve"> <path style="fill:#FFFFFF;" d="M519.2,86.8c0,19.7,0,39.4,0,60.3c-9.8-2.8-18.1-5-26.3-7.4c-33.9-10.1-67.8-20.3-101.8-30.5 c-16.4-4.9-16.4-4.9-17.4-22.4C422.2,86.8,470.7,86.8,519.2,86.8z"></path> <path style="fill:#FFFFFF;" d="M519.2,178.3c-14.2,9.1-28.5,18-42.6,27.3c-31.4,20.5-62.6,41.1-93.9,61.7c-3,2-6,4-9,6 c17,47.7,33.5,94.9,50.7,141.9c3.1,8.6,2.9,15.3-1.8,23.2c-14.7,24.4-28.6,49.2-44.4,76.6c-2.3-10.5-4.1-18-5.6-25.5 c-11.9-58.4-23.7-116.9-35.9-175.3c-1.8-8.4,0.1-13.6,7-18.4c9.7-6.8,18.9-14.4,28.6-21.9c-7.8-21-15.5-41.8-23.6-63.3 c4.1-1.3,7.4-2.6,10.8-3.5c43-12.3,86.3-23.8,129-37.1c13.5-4.2,22,0,30.5,8.7L519.2,178.3z"></path> <path style="fill:#FFFFFF;" d="M156.6,465.1c-4.6-12.9-8.9-23.3-11.9-34.1c-0.9-3.4,0.9-8.2,2.9-11.6c26.2-44.6,52.6-89.1,79-133.6 c2-3.4,3.9-6.8,7-12.3c-16.2,3.7-18.2-8.2-22.5-17.4c-4.6-9.9-9.1-19.9-13-30.1c-1.1-2.8-0.9-7.6,0.9-9.6 c10.8-12.4,22.3-24.2,35-37.8c0,32.9,0,63.5,0,95.2c28.2,0,55.8,0,86,0C264.8,338.2,211.4,400.9,156.6,465.1z"></path> <path style="fill:#FFFFFF;" d="M551.3,727.8c2.3-5.9,3.5-9.2,4.9-12.5c19.1-44.8,38.3-89.6,57.2-134.5c2.6-6.1,5.6-8.5,12.4-8.3 c18.9,0.6,37.8,0.2,56.7,0.4c3.8,0,7.7,0.6,13.1,1.1c-2.5,4.5-4,7.7-5.8,10.7c-26.4,45.2-53,90.4-79.2,135.7 c-3.3,5.7-6.9,7.7-13.4,7.5C582.8,727.4,568.2,727.8,551.3,727.8z"></path> <path style="fill:#FFFFFF;" d="M383.4,780.2c-15.1-40.6-29.2-78.5-43.2-116.3c-5.4-14.6-11-29.1-15.8-43.9 c-1.3-3.9-1.1-9.3,0.7-12.9c5.2-10.6,11.6-20.5,18.2-31.9c2.2,2.9,3.5,4.3,4.4,5.9c25.4,43.5,51.1,86.8,76.2,130.5 c11.5,20.1,10.2,16-4.2,31.7C408.6,755.4,396.6,766.8,383.4,780.2z"></path> <path style="fill:#FFFFFF;" d="M726.1,574.5c-19.6,2.9-32.4-2.9-42.5-22.2c-21.1-40.6-45.7-79.3-68.4-119.1 c-2.2-3.9-2.8-10.2-1.4-14.5c6.4-19.9,13.7-39.5,20.7-59.1c0.9-2.6,2.2-5.2,4.4-10.4c29.6,76.8,58.2,151.2,86.9,225.6L726.1,574.5z"></path> <path style="fill:#FFFFFF;" d="M666.8,88.4c3.8,2.3,6.7,3.8,9.4,5.6c40.3,26,80.6,52.2,121.1,78c5.1,3.2,7.2,6.8,7.1,12.8 c-0.3,17.4-0.1,34.9-0.1,54.8c-5.6-3.4-8.1-4.8-10.5-6.5c-45.2-32.5-90.2-65.2-135.6-97.3c-7.6-5.4-8.6-10.1-4.6-17.9 C658.4,108.5,662.3,98.6,666.8,88.4z"></path> <path style="fill:#FFFFFF;" d="M518.9,178.6c2.1,0.8,4.4,1.3,6.3,2.5c46.1,29.4,92.2,59,138.2,88.5c1.1,0.7,2,1.6,3.7,2.9 c-4.4,9.9-8.7,19.8-13.3,30.2c-32-10.5-63.2-20.7-94.3-31c-11-3.6-21.9-7.9-33.1-10.8c-7.5-1.9-9.9-5.4-9.5-13.1 c1.2-23.2,1.6-46.4,2.3-69.6C519.2,178.3,518.9,178.6,518.9,178.6z"></path> <path style="fill:#FFFFFF;" d="M196.9,573.3c24.4,0,47.8,0,73.2,0c-18.6,55.5-36.8,110-55,164.4c-15.3-4.1-18.1-7.6-18.1-20.9 c0-44.1,0-88.1-0.1-132.2C196.9,581,196.9,577.4,196.9,573.3z"></path> <path style="fill:#FFFFFF;" d="M429.3,427.7c60.7,0,119.7,0,180.7,0c-3.5,8.3-6.4,15.5-9.5,22.6c-4.2,9.4-8.8,18.6-12.7,28.1 c-2.3,5.7-5.8,7.3-11.5,6.2c-42.7-7.9-85.5-15.7-128.2-23.7c-2.5-0.5-5.4-2.7-6.5-5C437.3,447.1,433.7,437.9,429.3,427.7z"></path> <path style="fill:#FFFFFF;" d="M617.7,913c8.5-9.8,15-17.6,21.8-25.2c17.5-19.5,34.9-39,52.7-58.2c2.4-2.6,6.4-5.4,9.7-5.4 c31.8-0.3,63.6-0.1,95.4,0.1c0.8,0,1.7,0.6,3.6,1.3c-3.3,2.4-5.8,4.3-8.5,6c-38,24.7-76.2,49.3-114,74.3c-7.5,5-14.9,7.7-24,7.2 C643.3,912.5,632,913,617.7,913z"></path> <path style="fill:#FFFFFF;" d="M699,821.9c-18.3-19.2-36.1-37.8-54.2-56.8c64.1-12.3,129.1-24.9,194.2-37.4c0.3,0.6,0.6,1.3,0.9,1.9 C793.2,760.1,746.6,790.7,699,821.9z"></path> <path style="fill:#FFFFFF;" d="M87.7,426.8c12-33,23.3-63.8,34.5-94.6c6.1-16.8,12-33.7,18.6-50.4c1.2-3.1,4.8-7.3,7.5-7.4 c15.1-0.7,30.3-0.3,47.2-0.3c-2.3,5-3.8,8.6-5.6,12c-22.3,43-45,85.7-66.7,129c-4.6,9.3-10.2,12.8-19.9,11.9 C98.7,426.4,94.2,426.8,87.7,426.8z"></path> <path style="fill:#FFFFFF;" d="M951.9,572.9c-1.9,5.8-3.2,10.2-4.8,14.5c-15.8,43.6-31.9,87.2-47.2,130.9c-2.7,7.8-6.5,10-14.3,9.6 c-13.1-0.6-26.2-0.2-41.4-0.2c2.7-5.6,4.1-8.8,5.7-11.9c22.7-43.5,45.8-86.8,68-130.5c4.7-9.2,10-14,20.4-12.6 C942.1,573.3,946.1,572.9,951.9,572.9z"></path> <path style="fill:#FFFFFF;" d="M841,274.2c18.5,0,35-0.2,51.5,0.2c2.1,0.1,5.4,2.7,6.2,4.8c17.6,48.2,34.9,96.6,52.3,144.9 c0.1,0.2-0.1,0.6-0.2,0.9c-13.9,4.8-18.3,3.3-25.5-8.8c-25.6-43-51.2-86-76.8-129.1C846.3,283.6,844.2,279.9,841,274.2z"></path> <path style="fill:#FFFFFF;" d="M725.8,574.8c38.3,0,76.7,0,115.8,0c0,24.9,0,49.1,0,74.6c-5.4-1.9-9.7-3.4-14-5 c-26.3-9.9-52.7-19.7-78.8-30.1c-3.8-1.5-7.6-5.2-9.4-8.8c-5-10.1-8.9-20.6-13.3-31C726.1,574.5,725.8,574.8,725.8,574.8z"></path> <path style="fill:#FFFFFF;" d="M609.3,912.6c-50.1,0-98.7,0-149.1,0c4.9-18.9,9.5-36.9,14.5-55.9c3.9,0.8,7.1,1.4,10.2,2.2 c32,8.5,63.8,18.1,96.1,25.2C597.2,887.7,603.2,898.4,609.3,912.6z"></path> <path style="fill:#FFFFFF;" d="M844.3,572.3c2.5-7.5,4.1-12.8,6-18.1c13.6-37.7,27.3-75.3,41-112.9c5.6-15.5,7.5-16.4,26-12.4 c-1.9,14.2-3.7,28.5-5.6,42.8c-4.1,30.8-8.1,61.7-12.6,92.5c-0.4,2.9-4,7.6-6.3,7.7C877.3,572.6,861.8,572.3,844.3,572.3z"></path> <path style="fill:#FFFFFF;" d="M144.2,728.3c18.5-0.4,34.4-2.3,49.9,10c32.5,25.7,66.7,49.2,100.2,73.6c2.9,2.1,5.7,4.3,11,8.3 c-9.2,0.6-15.9,1.3-22.5,1.5c-16.2,0.5-34.2,5.4-48.1-0.1c-13.5-5.4-22.8-21.4-33.8-32.9c-16.5-17.2-32.9-34.6-49.4-51.9 C149.4,734.5,147.4,732,144.2,728.3z"></path> <path style="fill:#FFFFFF;" d="M685.3,220c38.5,10.1,76,19.9,113.3,30.2c2.5,0.7,5,4.7,5.7,7.6c1,4,0.2,8.5,0.2,13.5 c-45.7,0-90.6,0-137.1,0C673.5,254.1,679.3,237.4,685.3,220z"></path> <path style="fill:#FFFFFF;" d="M345.1,822.7c13.1-14.3,25.4-27.6,38.6-42c3.6,6.9,6.7,12.6,9.7,18.4c12.4,24.2,24.7,48.4,37.1,72.6 c9.8,19.1,9.8,19.1-2.3,39.5C400.6,881.9,373.2,852.7,345.1,822.7z"></path> <path style="fill:#FFFFFF;" d="M139.9,717.1c-17-47.1-34-94.1-51.6-142.6c12.1,0,22.9-0.3,33.6,0.2c1.9,0.1,5.1,3.3,5.3,5.3 c5.1,45.5,9.8,91,14.6,136.6C141.3,716.8,140.6,717,139.9,717.1z"></path> </svg> 