<?xml version="1.0" encoding="UTF-8"?> <svg xmlns="http://www.w3.org/2000/svg" xmlns:xlink="http://www.w3.org/1999/xlink" version="1.1" id="Layer_1" x="0px" y="0px" viewBox="0 0 100 100" style="enable-background:new 0 0 100 100;" xml:space="preserve"> <g> <rect x="46.9" y="18.2" style="fill:#FFFFFF;" width="3.2" height="10.9"></rect> <polygon style="fill:#FFFFFF;" points="48.5,45.9 50.4,45.9 49.5,37.8 "></polygon> <path style="fill:#FFFFFF;" d="M97.4,12.4c0-3.3-1.7-5-5-5.1c-4.2,0-8.5,0-12.7,0c-0.4,0-0.7,0-1.2,0c0-1.6,0-3.2,0-4.8 c-19,0-38,0-57.1,0c0,1.5,0,3.1,0,4.8c-0.4,0-0.7,0-1.1,0c-4,0-8.1,0-12.1,0c-3.5,0-4.4,0.6-5.7,3.8c0,4.8,0,9.5,0,14.3 c0.4,1.6,0.6,3.3,1.1,4.8c2.8,8,8.6,12.7,16.9,14.4c0.8,0.2,1,0.4,1,1.2c0.1,4.4,1.1,8.7,3.1,12.6c3.9,7.4,9.9,12.3,18,14.6 c0.3,0.1,0.6,0.2,1,0.3c0,0.2-0.1,0.5-0.1,0.7c-1,2.9-1.9,5.7-2.9,8.6c-0.2,0.5-0.4,0.7-1,0.7c-3.2,0-6.4,0-9.6,0 c-2.5,0-4,1.1-4.9,3.5c-1.1,3.3-2.3,6.5-3.4,9.8c-0.1,0.3-0.2,0.6-0.3,0.9c18.9,0,37.8,0,56.8,0c-0.1-0.3-0.2-0.6-0.3-0.9 c-1.2-3.3-2.3-6.6-3.5-10c-0.8-2.2-2.3-3.3-4.7-3.3c-3.1,0-6.3,0-9.4,0c-0.3,0-0.7,0-1,0c-1.1-3.3-2.2-6.6-3.3-9.8 c2-0.7,3.9-1.3,5.7-2.1c8.5-4.1,13.8-10.7,15.8-19.9c0.4-1.9,0.5-3.9,0.7-5.9c0.1-0.6,0.2-0.8,0.8-0.9c8.6-1.6,14.4-6.5,17.2-14.8 c0.7-2,0.9-4.3,1-6.5C97.5,19.7,97.4,16.1,97.4,12.4z M21.4,35.3c-2.8-0.8-5.1-2.3-6.8-4.6c-1.8-2.3-2.6-5-2.6-7.9 c0-1.9,0-3.9,0-5.9c3.2,0,6.3,0,9.4,0C21.4,23,21.4,29.1,21.4,35.3z M30.8,15h3.4v7h3.2v-7h3.4v17.3h-3.4v-7h-3.2v7h-3.4V15z M41.8,40.7H38v-2.9h-3.6v12H38v-3.3h-1.8V43h5.6v7.7c0,0.7-0.3,1.3-0.8,1.8c-0.5,0.5-1.2,0.8-2,0.8h-5.6c-0.8,0-1.4-0.3-2-0.8 c-0.6-0.5-0.8-1.1-0.8-1.8V36.8c0-0.7,0.3-1.3,0.8-1.8c0.5-0.5,1.2-0.8,2-0.8H39c0.8,0,1.4,0.3,2,0.8c0.6,0.5,0.8,1.1,0.8,1.8V40.7 z M43.5,17.4c0-0.7,0.3-1.2,0.8-1.7c0.5-0.5,1.1-0.7,1.8-0.7h5c0.7,0,1.3,0.2,1.8,0.7c0.5,0.5,0.8,1,0.8,1.7v12.6 c0,0.7-0.3,1.2-0.8,1.7c-0.5,0.5-1.1,0.7-1.8,0.7h-5c-0.7,0-1.3-0.2-1.8-0.7c-0.5-0.5-0.8-1-0.8-1.7V17.4z M51.8,53.3l-0.7-3.9 h-3.2l-0.8,3.9h-3.8l3.7-19h5l3.7,19H51.8z M66.2,11.5h2.9v2.2h-2.9V11.5z M56.3,15h3.4v14.1h4.8v3.2h-8.2V15z M69.3,53.3h-5.2 L61,41v12.3h-3.8v-19h5.2l3.1,12.3V34.2h3.8V53.3z M69.3,32.3h-3.4V15h3.4V32.3z M87.3,27.3c-1.4,3.8-3.9,6.5-7.7,7.8 c-0.3,0.1-0.6,0.2-1,0.2c0-6.2,0-12.2,0-18.4c3.1,0,6.2,0,9.4,0c0,1.1,0,2.2,0,3.3C87.9,22.6,88.1,25,87.3,27.3z"></path> </g> </svg> 