<?xml version="1.0" encoding="UTF-8"?> <svg xmlns="http://www.w3.org/2000/svg" xmlns:xlink="http://www.w3.org/1999/xlink" version="1.1" id="Layer_1" x="0px" y="0px" viewBox="0 0 1000 1000" style="enable-background:new 0 0 1000 1000;" xml:space="preserve"> <path style="fill:#FFFFFF;" d="M81.1,601.9C49.6,591.5,25,574,15.4,540.9c-12.7-44.1,12.3-90.1,56.4-103.7 c42.9-13.2,89.5,9.2,105.3,50.5c16.4,43-4.6,90.2-47.9,107.9c-4.6,1.9-9.1,4.1-13.6,6.2C104.1,601.9,92.6,601.9,81.1,601.9z M97.5,442.3c-42.4-0.1-76.6,33.4-76.7,75.2c-0.1,41.7,34.1,75.6,76.3,75.7c42.3,0.1,76.8-33.7,76.9-75.2 C174.2,476.4,139.7,442.4,97.5,442.3z"></path> <path style="fill:#FFFFFF;" d="M881.7,601.9c-33.3-11.4-58.4-30.6-66.1-66.5c-9.4-43.6,17.1-87.2,60.1-98.8 c43.8-11.8,88.7,11.4,103.6,53.6c14.9,42.1-5.8,87.8-47.5,105.2c-5.2,2.2-10.3,4.4-15.5,6.5C904.7,601.9,893.2,601.9,881.7,601.9z M822.4,518c0.1,42,34.1,75.4,76.5,75.2c42.4-0.2,76.2-33.8,76.1-75.7c-0.1-41.9-34.1-75.2-76.6-75.1 C855.9,442.4,822.3,475.8,822.4,518z"></path> <path style="fill:#FFFFFF;" d="M488.3,601.9c-3.7-1.2-7.4-2.6-11.2-3.6c-41.2-10.7-69-49.9-64.1-90.5c5.1-42.7,40.7-74.8,83.6-75.3 c42.2-0.5,78.7,29.2,85.2,69.2c7.1,43.8-17.8,83.5-60.2,96c-4.3,1.3-8.4,2.9-12.6,4.3C502.1,601.9,495.2,601.9,488.3,601.9z M574.6,515.9c-0.2-41.6-35-75.3-77.2-74.8c-42.5,0.4-76,34.1-75.6,76.2c0.3,42,34.3,75,77,74.7 C540.9,591.7,574.8,557.7,574.6,515.9z"></path> <path style="fill:#FFFFFF;" d="M681.5,601.9c-33.4-11.2-58.4-30.5-66.3-66.3c-9.4-42.7,16-85.7,58.2-98.4 c43.2-13,89.1,9.5,104.8,51.2c15.7,41.6-4.1,88.3-45.1,106.3c-5.7,2.5-11.4,4.8-17.1,7.2C704.5,601.9,693,601.9,681.5,601.9z M622.1,516.7c-0.5,42.2,32.6,75.8,75.2,76.5c42.2,0.7,77.1-32.9,77.5-74.5c0.3-42-33.2-76-75.4-76.4 C656.7,441.9,622.6,474.7,622.1,516.7z"></path> <path style="fill:#FFFFFF;" d="M281.2,601.9c-32.2-10.5-56.9-28.7-65.9-62.7c-11.6-43.8,13.5-88.6,57-101.9 c43-13.1,89.3,9.2,105.1,50.7c16.1,42.2-4.4,89.4-46.4,107.2c-5.1,2.2-10.2,4.5-15.4,6.7C304.2,601.9,292.7,601.9,281.2,601.9z M221.3,517.2c-0.3,41.9,33.4,75.7,75.9,76c42.1,0.3,76.9-33.5,77.2-75c0.2-41.6-34-75.7-76.1-75.9 C255.6,442.1,221.6,475.2,221.3,517.2z"></path> <path style="fill:#FFFFFF;" d="M110.3,480.3c-17.3-1-31.6-1.8-45.9-2.6c0.2-2.2,0.4-4.4,0.5-6.5c20.4,0,40.7,0,63.4,0 c-16.6,27-33,53.7-50.8,82.7c18.3,1,34.6,1.8,51,2.7c-0.1,2.2-0.3,4.3-0.4,6.5c-22.1,0-44.1,0-68.5,0 C76.1,536.1,92.5,509.4,110.3,480.3z"></path> <path style="fill:#FFFFFF;" d="M949.7,517.4c0,26.9-22.9,49.6-50.5,50.1c-28.2,0.5-52-22.6-51.9-50.2c0.1-26.9,22.9-49.7,50.4-50.2 C925.5,466.5,949.8,490,949.7,517.4z M938.1,517.4c0.1-22.2-17.9-40.3-39.9-40.1c-21.2,0.2-39.2,17.8-39.8,38.9 c-0.7,21.3,17.9,40.6,39.5,41C919.7,557.7,938,539.5,938.1,517.4z"></path> <path style="fill:#FFFFFF;" d="M492.5,481.4c-9.8-2.2-16.7-3.7-23.6-5.2c0.3-1.7,0.5-3.4,0.8-5c18.9,0,37.8,0,56.6,0 c0.4,1.6,0.8,3.2,1.2,4.9c-7.1,1.6-14.1,3.3-23.8,5.5c0,16.9,0.6,34.7-0.2,52.4c-0.5,10.4-3.3,20.6-5,30.9 c-2-10.6-5.2-21.1-5.8-31.7C491.8,515.8,492.5,498.5,492.5,481.4z"></path> <path style="fill:#FFFFFF;" d="M674.8,470.1c31.6-2.3,43.9,2.1,48.6,16.1c5,15.2-1.1,26.8-20.8,38.2c9,12.9,17.9,25.8,27.2,39.1 c-16.1,5.6-17.6-8.3-23.6-15.1c-6.2-7.1-11.1-15.4-20.6-22.5c0,10.4,0.4,20.7-0.3,31c-0.2,2.7-3.8,5.2-5.8,7.8 c-1.5-2.5-4.4-5.1-4.4-7.6C674.7,528.5,674.8,499.8,674.8,470.1z M686.8,480.3c0,12,0,22.2,0,32.9c14,0.2,26.5-0.5,26.3-17.2 C712.9,479,700.4,478.9,686.8,480.3z"></path> <path style="fill:#FFFFFF;" d="M304.3,517.1c0,12.3,0.4,24.7-0.2,37c-0.2,3.6-3.2,7.1-5,10.7c-2.1-3.2-5.8-6.5-5.9-9.8 c-0.5-25.2-0.5-50.5,0-75.7c0.1-3.3,3.8-6.5,5.8-9.8c1.8,3.5,4.9,7,5.1,10.6C304.7,492.4,304.3,504.8,304.3,517.1z"></path> </svg> 