<?xml version="1.0" encoding="utf-8"?>
<!-- Generator: Adobe Illustrator 24.1.2, SVG Export Plug-In . SVG Version: 6.00 Build 0)  -->
<svg version="1.1" id="Layer_1" xmlns="http://www.w3.org/2000/svg" xmlns:xlink="http://www.w3.org/1999/xlink" x="0px" y="0px"
	 viewBox="0 0 257 57.5" style="enable-background:new 0 0 257 57.5;" xml:space="preserve">
<style type="text/css">
	.st0{fill:#FFFFFF;}
	.st1{fill:#EC008C;}
	.st2{fill:#ED1C24;}
	.st3{fill:#00AEEF;}
	.st4{fill:#02B5A5;}
	.st5{fill:#FFE800;}
	.st6{fill:#FCB040;}
</style>
<g>
	<path class="st0" d="M1,8.6h19.8c1.3,0,2.5,0.5,3.4,1.4s1.4,2.1,1.4,3.4v6.7c0,1.3-0.5,2.4-1.4,3.4c-0.9,0.9-2.1,1.4-3.4,1.4H5.6
		H5.5v8.5H1V8.6z M21.1,20.1v-6.7c0-0.2-0.1-0.2-0.2-0.2H5.8c-0.2,0-0.2,0.1-0.2,0.2v6.7c0,0.2,0.1,0.2,0.2,0.2h15.1
		C21.1,20.4,21.1,20.3,21.1,20.1z"/>
	<path class="st0" d="M28.1,33.4V8.6h4.5v20.3h20.1v4.5H28.1z"/>
	<path class="st0" d="M61.5,8.6h15.1c1.3,0,2.5,0.5,3.4,1.4s1.4,2.1,1.4,3.4v20h-4.6V25H61.3v8.4h-4.5v-20c0-1.3,0.5-2.5,1.4-3.4
		C59.1,9.1,60.2,8.6,61.5,8.6z M61.3,20.5h15.6v-7.1c0-0.2-0.1-0.2-0.2-0.2H61.5c-0.2,0-0.2,0.1-0.2,0.2V20.5z"/>
	<path class="st0" d="M104,8.6h5.4L98,24.2v9.2h-4.5v-9.3L82.1,8.6h5.4l8.3,10.6L104,8.6z"/>
	<path class="st0" d="M134.7,13.4v1.9h-4.6v-1.9c0-0.2-0.1-0.2-0.2-0.2h-15.1c-0.2,0-0.2,0.1-0.2,0.2v5.1c0,0.2,0.1,0.2,0.2,0.2H130
		c1.3,0,2.4,0.5,3.4,1.4c0.9,0.9,1.4,2.1,1.4,3.4v5.1c0,1.3-0.5,2.5-1.4,3.4c-0.9,0.9-2.1,1.4-3.4,1.4h-15.1c-1.3,0-2.4-0.5-3.4-1.4
		c-0.9-0.9-1.4-2.1-1.4-3.4v-1.9h4.5v1.9c0,0.2,0.1,0.2,0.2,0.2H130c0.1,0,0.2-0.1,0.2-0.2v-5.1c0-0.2-0.1-0.2-0.2-0.2h-15.1
		c-1.3,0-2.4-0.5-3.4-1.4c-0.9-0.9-1.4-2.1-1.4-3.4v-5.1c0-1.3,0.5-2.5,1.4-3.4s2-1.4,3.4-1.4H130c1.3,0,2.4,0.5,3.4,1.4
		C134.3,10.9,134.7,12.1,134.7,13.4z"/>
	<path class="st0" d="M142.9,8.6H158c1.3,0,2.4,0.5,3.4,1.4c0.9,0.9,1.4,2.1,1.4,3.4v15.3c0,1.3-0.5,2.5-1.4,3.4
		c-0.9,0.9-2.1,1.4-3.4,1.4h-15.1c-1.3,0-2.4-0.5-3.4-1.4c-0.9-0.9-1.4-2.1-1.4-3.4V13.4c0-1.3,0.5-2.5,1.4-3.4
		C140.5,9.1,141.6,8.6,142.9,8.6z M142.9,28.9H158c0.1,0,0.2-0.1,0.2-0.2V13.4c0-0.2-0.1-0.2-0.2-0.2h-15.1c-0.2,0-0.2,0.1-0.2,0.2
		v15.3C142.7,28.8,142.8,28.9,142.9,28.9z"/>
	<path class="st0" d="M185.8,26.8V8.6h4.6v24.8h-4.9l-15.2-18.2v18.2h-4.5V8.6h4.9L185.8,26.8z"/>
	<g>
		<path class="st0" d="M42.8,47.2v-4.9h-1.4v5.6c0,1.4,0.8,2.2,2,2.2c0.8,0,1.5-0.5,1.8-1.2v-0.1h0.3v1.1H47v-7.7h-1.4v4.9
			c0,0.8-0.6,1.4-1.4,1.4C43.4,48.6,42.8,48,42.8,47.2z"/>
		<path class="st0" d="M52.9,42.1c-0.9,0-1.6,0.5-1.9,1.3v0.1h-0.3v-1.2h-1.4V50h1.4v-4.9c0-0.8,0.6-1.5,1.5-1.5
			c0.8,0,1.4,0.6,1.4,1.5V50H55v-5.6C55,43,54.2,42.1,52.9,42.1z"/>
		<rect x="57.1" y="42.3" class="st0" width="1.4" height="7.7"/>
		<path class="st0" d="M57.8,38.8c-0.6,0-0.9,0.4-0.9,1s0.4,1,0.9,1c0.6,0,0.9-0.4,0.9-1S58.4,38.8,57.8,38.8z"/>
		<path class="st0" d="M62.7,42.1c-1.3,0-2.2,1-2.2,2.5v3.1c0,1.5,0.9,2.5,2.2,2.5c0.9,0,1.6-0.5,1.9-1.3v-0.1h0.3v4h1.4V42.3h-1.4
			v1.2h-0.3v-0.1C64.3,42.6,63.5,42.1,62.7,42.1z M64.9,45.1v2c0,0.9-0.6,1.5-1.5,1.5s-1.5-0.6-1.5-1.5v-2c0-0.9,0.6-1.5,1.5-1.5
			S64.9,44.2,64.9,45.1z"/>
		<path class="st0" d="M69.9,47.2v-4.9h-1.4v5.6c0,1.4,0.8,2.2,2,2.2c0.8,0,1.5-0.5,1.8-1.2v-0.1h0.3v1.1H74v-7.7h-1.4v4.9
			c0,0.8-0.6,1.4-1.4,1.4C70.4,48.6,69.9,48,69.9,47.2z"/>
		<path class="st0" d="M79,42.1c-1.8,0-2.9,1.2-2.9,3v2.1c0,1.8,1.2,3,3,3c1.7,0,2.8-0.9,2.9-2.3h-1.4c-0.1,0.6-0.6,1-1.4,1
			c-0.9,0-1.5-0.6-1.5-1.5v-0.6h4.4v-1.6C81.9,43.3,80.7,42.1,79,42.1z M80.4,45.5h-3V45c0-0.9,0.6-1.5,1.5-1.5s1.5,0.6,1.5,1.5
			V45.5z"/>
		<path class="st0" d="M88.4,42.1c-1.3,0-2.2,1-2.2,2.5v2.7c0,1.5,0.9,2.5,2.2,2.5c0.9,0,1.6-0.5,1.9-1.2v-0.1h0.3v1.9
			c0,0.9-0.6,1.5-1.5,1.5c-0.8,0-1.4-0.5-1.4-1.1h-1.4l0,0c0,1.4,1.1,2.3,2.8,2.3c1.8,0,2.9-1,2.9-2.6v-8.1h-1.4v1.2h-0.3v-0.1
			C90,42.6,89.3,42.1,88.4,42.1z M90.7,45.1v1.6c0,0.9-0.6,1.5-1.5,1.5s-1.5-0.6-1.5-1.5v-1.6c0-0.9,0.6-1.5,1.5-1.5
			C90,43.6,90.7,44.2,90.7,45.1z"/>
		<path class="st0" d="M96.9,42.1c-1.7,0-2.8,0.9-2.8,2.3v0.2h1.4l0,0c0-0.6,0.6-1.1,1.3-1.1c0.9,0,1.4,0.5,1.4,1.4v0.9H96
			c-1.4,0-2.2,0.9-2.2,2.3c0,1.3,0.9,2.2,2.2,2.2c0.9,0,1.6-0.4,1.9-1.2V49h0.3v1.1h1.4v-5.3C99.7,43.1,98.6,42.1,96.9,42.1z
			 M98.3,47.7c0,0.7-0.7,1.2-1.6,1.2c-0.8,0-1.4-0.4-1.4-1.1c0-0.6,0.4-1,1.1-1h1.9V47.7z"/>
		<path class="st0" d="M109.6,42.1c-0.9,0-1.7,0.5-2,1.4v0.1h-0.3v-0.1c-0.3-0.9-1-1.4-1.9-1.4c-0.8,0-1.5,0.5-1.8,1.2v0.1h-0.3
			v-1.1h-1.4V50h1.4v-4.9c0-0.8,0.6-1.4,1.4-1.4s1.3,0.6,1.3,1.4V50h1.4v-4.9c0-0.8,0.6-1.4,1.4-1.4s1.3,0.6,1.3,1.4V50h1.4v-5.6
			C111.6,43,110.8,42.1,109.6,42.1z"/>
		<rect x="113.7" y="42.3" class="st0" width="1.4" height="7.7"/>
		<path class="st0" d="M114.4,38.8c-0.6,0-0.9,0.4-0.9,1s0.4,1,0.9,1c0.6,0,0.9-0.4,0.9-1S115,38.8,114.4,38.8z"/>
		<path class="st0" d="M121,42.1c-0.9,0-1.6,0.5-1.9,1.3v0.1h-0.3v-1.2h-1.4V50h1.4v-4.9c0-0.8,0.6-1.5,1.5-1.5
			c0.8,0,1.4,0.6,1.4,1.5V50h1.4v-5.6C123.1,43,122.3,42.1,121,42.1z"/>
		<path class="st0" d="M127.2,42.1c-1.3,0-2.2,1-2.2,2.5v2.7c0,1.5,0.9,2.5,2.2,2.5c0.9,0,1.6-0.5,1.9-1.2v-0.1h0.3v1.9
			c0,0.9-0.6,1.5-1.5,1.5c-0.8,0-1.4-0.5-1.4-1.1h-1.4l0,0c0,1.4,1.1,2.3,2.8,2.3c1.8,0,2.9-1,2.9-2.6v-8.1h-1.4v1.2h-0.3v-0.1
			C128.8,42.6,128,42.1,127.2,42.1z M129.4,45.1v1.6c0,0.9-0.6,1.5-1.5,1.5c-0.9,0-1.5-0.6-1.5-1.5v-1.6c0-0.9,0.6-1.5,1.5-1.5
			C128.8,43.6,129.4,44.2,129.4,45.1z"/>
		<path class="st0" d="M137.8,45.3c-0.8-0.2-1.5-0.4-1.5-1.1c0-0.5,0.5-0.9,1.2-0.9s1.2,0.4,1.2,0.9h1.5c0-1.3-1.1-2.2-2.7-2.2
			c-1.6,0-2.6,0.9-2.6,2.3c0,1.7,1.3,2.1,2.4,2.4c0.8,0.2,1.5,0.4,1.5,1.1c0,0.6-0.5,0.9-1.3,0.9s-1.3-0.4-1.3-1.1l0,0h-1.5l0,0
			c0,1.4,1.1,2.4,2.8,2.4s2.7-0.9,2.7-2.4C140.2,46,138.9,45.7,137.8,45.3z"/>
		<path class="st0" d="M144.8,42.1c-1.8,0-2.9,1.2-2.9,3v2.1c0,1.8,1.2,3,2.9,3c1.8,0,2.9-1.2,2.9-3v-2.1
			C147.8,43.3,146.6,42.1,144.8,42.1z M146.3,47.1c0,0.9-0.6,1.5-1.5,1.5s-1.5-0.6-1.5-1.5V45c0-0.9,0.6-1.5,1.5-1.5
			s1.5,0.6,1.5,1.5V47.1z"/>
		<path class="st0" d="M150.8,47.5v-8.4h-1.4V48c0,1.2,0.8,2,1.9,2h0.7v-1.5h-0.3C151.1,48.5,150.8,48.1,150.8,47.5z"/>
		<path class="st0" d="M155,47.2v-4.9h-1.4v5.6c0,1.4,0.8,2.2,2,2.2c0.8,0,1.5-0.5,1.8-1.2v-0.1h0.3v1.1h1.4v-7.7h-1.4v4.9
			c0,0.8-0.6,1.4-1.4,1.4C155.5,48.6,155,48,155,47.2z"/>
		<path class="st0" d="M163.4,40.2h-1.3v1.3c0,0.5-0.2,0.7-0.7,0.7h-0.7v1.4h1.2v4.2c0,1.2,0.8,2,2,2h1.1v-1.5h-0.6
			c-0.6,0-1-0.4-1-1v-3.7h1.7v-1.4h-1.7V40.2z"/>
		<path class="st0" d="M167.6,38.8c-0.6,0-0.9,0.4-0.9,1s0.4,1,0.9,1c0.6,0,0.9-0.4,0.9-1C168.6,39.2,168.2,38.8,167.6,38.8z"/>
		<rect x="166.9" y="42.3" class="st0" width="1.4" height="7.7"/>
		<path class="st0" d="M173.2,42.1c-1.8,0-2.9,1.2-2.9,3v2.1c0,1.8,1.2,3,2.9,3c1.8,0,2.9-1.2,2.9-3v-2.1
			C176.1,43.3,175,42.1,173.2,42.1z M174.7,47.1c0,0.9-0.6,1.5-1.5,1.5s-1.5-0.6-1.5-1.5V45c0-0.9,0.6-1.5,1.5-1.5s1.5,0.6,1.5,1.5
			V47.1z"/>
		<path class="st0" d="M181.7,42.1c-0.9,0-1.6,0.5-1.9,1.3v0.1h-0.3v-1.2H178V50h1.4v-4.9c0-0.8,0.6-1.5,1.5-1.5
			c0.8,0,1.4,0.6,1.4,1.5V50h1.4v-5.6C183.8,43,183,42.1,181.7,42.1z"/>
		<path class="st0" d="M188.5,45.3c-0.8-0.2-1.5-0.4-1.5-1.1c0-0.5,0.5-0.9,1.2-0.9s1.2,0.4,1.2,0.9h1.5c0-1.3-1.1-2.2-2.7-2.2
			c-1.6,0-2.6,0.9-2.6,2.3c0,1.7,1.3,2.1,2.4,2.4c0.8,0.2,1.5,0.4,1.5,1.1c0,0.6-0.5,0.9-1.3,0.9s-1.3-0.4-1.3-1.1l0,0h-1.5l0,0
			c0,1.4,1.1,2.4,2.8,2.4s2.7-0.9,2.7-2.4C191,46,189.7,45.7,188.5,45.3z"/>
	</g>
	<polygon class="st1" points="218.4,11.4 208.6,15.9 198.8,20.5 198.8,11.4 198.8,2.2 208.6,6.8 	"/>
	<polygon class="st2" points="218.4,28.9 208.6,33.5 198.8,38.1 198.8,28.9 198.8,19.7 208.6,24.3 	"/>
	<polygon class="st3" points="237.2,20.1 227.4,24.7 217.6,29.3 217.6,20.1 217.6,11 227.4,15.5 	"/>
	<polygon class="st4" points="237.2,37.7 227.4,42.3 217.6,46.8 217.6,37.7 217.6,28.5 227.4,33.1 	"/>
	<polygon class="st5" points="256,28.9 246.5,33.3 237,37.8 237,28.9 237,20 246.5,24.5 	"/>
	<polygon class="st6" points="218.4,46.4 208.6,51 198.8,55.6 198.8,46.4 198.8,37.3 208.6,41.9 	"/>
</g>
</svg>
