<?xml version="1.0" encoding="utf-8"?>
<!-- Generator: Adobe Illustrator 24.1.2, SVG Export Plug-In . SVG Version: 6.00 Build 0)  -->
<svg version="1.1" id="Layer_1" xmlns="http://www.w3.org/2000/svg" xmlns:xlink="http://www.w3.org/1999/xlink" x="0px" y="0px"
	 viewBox="0 0 158.2 42.3" style="enable-background:new 0 0 158.2 42.3;" xml:space="preserve">
<style type="text/css">
	.st0{enable-background:new    ;}
	.st1{fill:#FFFFFF;}
</style>
<g>
	<g class="st0">
		<path class="st1" d="M35.9,35.1c-0.4,0-0.5-0.2-0.5-0.6V19.6c0-0.4,0.1-0.6,0.6-0.6h5.2c4.3,0,5.8,1.9,5.8,3.9v8.4
			c0,2-1.5,3.9-5.8,3.9H35.9z M38.6,21.6v10.8h2.5c1.6,0,2.6-0.6,2.6-1.8v-7.3c0-1.2-1-1.8-2.6-1.8H38.6z"/>
		<path class="st1" d="M52.6,29v5.5c0,0.4-0.1,0.6-0.6,0.6H50c-0.4,0-0.6-0.2-0.6-0.6V19.6c0-0.4,0.1-0.6,0.6-0.6h5
			c4.3,0,5.7,1.9,5.7,3.9v2.3c0,1.4-0.7,2.7-2.6,3.4l2.6,6c0.2,0.4-0.1,0.6-0.5,0.6h-2.1c-0.3,0-0.4-0.2-0.6-0.6L55.1,29H55H52.6z
			 M52.6,21.6v4.7H55c1.6,0,2.6-0.6,2.6-1.8v-1.1c0-1.2-1-1.8-2.6-1.8H52.6z"/>
		<path class="st1" d="M62.8,22.6c0-2,1.5-3.9,5.8-3.9s5.8,1.9,5.8,3.9v8.8c0,2-1.5,3.9-5.8,3.9s-5.8-1.9-5.8-3.9V22.6z M71.2,23.2
			c0-1.2-1-1.8-2.6-1.8s-2.5,0.6-2.5,1.8v7.6c0,1.2,1,1.8,2.5,1.8s2.6-0.6,2.6-1.8V23.2z"/>
		<path class="st1" d="M80.1,29.4v5.1c0,0.4-0.1,0.6-0.6,0.6h-2.1c-0.4,0-0.6-0.2-0.6-0.6V19.6c0-0.4,0.1-0.6,0.6-0.6h5
			c4.3,0,5.7,1.9,5.7,3.9v2.7c0,2-1.4,3.9-5.7,3.9H80.1z M80.1,21.6v5.1h2.4c1.6,0,2.6-0.6,2.6-1.8v-1.6c0-1.2-1-1.8-2.6-1.8H80.1z"
			/>
		<path class="st1" d="M103.3,25.7c0.3,0,0.5,0.1,0.5,0.5v1c0,0.3-0.1,0.5-0.5,0.5h-1.6v4c0,1.9-1.4,3.6-5.7,3.6
			c-4.4,0-5.7-1.6-5.7-3.6v-2.4c0-1.3,0.5-2.3,2.1-2.7c-1.5-0.4-1.9-1.3-1.9-2.6v-1.7c0-1.9,1-3.6,4.9-3.6c4,0,5,1.7,5,3.6V23
			c0,0.3-0.1,0.5-0.4,0.5h-1.4c-0.3,0-0.4-0.1-0.4-0.5v-0.3c0-1.3-0.7-2-2.7-2c-2,0-2.7,0.7-2.7,2v1c0,1.3,0.6,2,2.8,2H103.3z
			 M99.4,31.4v-3.7h-4.1c-2.1,0-2.8,0.7-2.8,2v1.7c0,1.3,1,2,3.4,2C98.3,33.4,99.4,32.6,99.4,31.4z"/>
		<path class="st1" d="M117.8,27.6c0.2,0.8,0.4,2.1,0.4,2.4c0-0.2,0.2-1.3,0.4-2.3l2-8.1c0.1-0.4,0.3-0.6,0.7-0.6h1.8
			c0.4,0,0.5,0.2,0.5,0.6l-3.8,15c-0.1,0.4-0.3,0.6-0.7,0.6h-2c-0.4,0-0.6-0.2-0.7-0.6l-2.1-8.3c-0.1-0.5-0.3-1.9-0.3-2.2
			c0,0.2-0.2,1.7-0.3,2.2l-2.1,8.3c-0.1,0.4-0.3,0.6-0.7,0.6h-2c-0.4,0-0.6-0.2-0.7-0.6l-3.8-15c-0.1-0.4,0-0.6,0.5-0.6h2.1
			c0.4,0,0.6,0.2,0.7,0.6l2,8.1c0.2,0.9,0.4,2,0.4,2s0.1-0.8,0.4-2l2-8.1c0.1-0.4,0.3-0.6,0.7-0.6h1.9c0.4,0,0.6,0.2,0.7,0.6
			L117.8,27.6z"/>
		<path class="st1" d="M128.2,34.5c0,0.4-0.1,0.6-0.6,0.6h-2.1c-0.4,0-0.6-0.2-0.6-0.6V19.6c0-0.4,0.1-0.6,0.6-0.6h2.1
			c0.4,0,0.6,0.2,0.6,0.6V34.5z"/>
		<path class="st1" d="M142.5,34.5c0,0.4-0.1,0.6-0.6,0.6H140c-0.3,0-0.4-0.1-0.5-0.3l-4.6-7.9c-0.6-1.1-0.9-1.9-1-1.9v9.5
			c0,0.4-0.1,0.6-0.6,0.6h-1.9c-0.4,0-0.6-0.2-0.6-0.6v-15c0-0.4,0.1-0.6,0.6-0.6h1.9c0.3,0,0.4,0.1,0.5,0.2l4.8,8.2
			c0.4,0.7,0.8,1.7,0.8,1.7v-9.5c0-0.4,0.1-0.6,0.6-0.6h1.9c0.4,0,0.6,0.2,0.6,0.6V34.5z"/>
		<path class="st1" d="M152.7,23.1c0-1.2-0.8-1.7-2.3-1.7c-1.5,0-2.3,0.5-2.3,1.7v0.4c0,0.8,0.6,1.1,1,1.3l4.1,1.5
			c1.6,0.6,2.8,1.7,2.8,3.4v1.8c0,2-1.4,3.9-5.7,3.9c-4.2,0-5.7-1.9-5.7-3.9v-1.5c0-0.4,0.2-0.6,0.6-0.6h2c0.4,0,0.6,0.2,0.6,0.6V31
			c0,1.2,0.9,1.7,2.5,1.7c1.6,0,2.5-0.5,2.5-1.7v-0.8c0-1-1-1.4-2-1.8l-3.7-1.4c-1.1-0.4-2.2-1.6-2.2-3.1v-1.4c0-2,1.2-3.9,5.4-3.9
			c4.2,0,5.5,1.9,5.5,3.9v1c0,0.4-0.2,0.6-0.6,0.6h-2c-0.4,0-0.5-0.2-0.5-0.6V23.1z"/>
	</g>
	<path class="st1" d="M17.4,41.5C8.9,41.5,2,35.2,2,27.3S8.9,13,17.3,13c8.5,0,15.4,6.4,15.4,14.3C32.7,35.1,25.9,41.5,17.4,41.5z
		 M3.7,27.2C3.7,34.3,9.8,40,17.4,40c7.5,0,13.8-5.7,13.8-12.7S25,14.5,17.5,14.5C9.8,14.5,3.7,20.2,3.7,27.2z"/>
	<path class="st1" d="M3.5,7c2.6,0.1,4.5,1.4,6,3.4C9,7.1,8.4,4,8.7,0.8c2.2,2.6,3.7,5.4,5.1,8.4c0-2.4,0.9-4.5,2.9-5.9
		c-0.4,1.2-0.8,2.3-0.9,3.6c-0.1,1.5,0,2.9,0.4,4.3c0.1,0.3,0,0.4-0.3,0.4c-2.3,0.1-4.6,0.7-6.6,1.8c-0.3,0.2-0.4,0.1-0.5-0.3
		C7.7,10.6,6,8.5,3.5,7z"/>
	<path class="st1" d="M21.6,22.3c-1.7-0.1-3.2-0.6-4.2-1.9c-0.2-0.3-0.4-0.7-0.5-0.9c-0.4-1.3,0.2-2.4,1.6-2.8
		c2-0.5,4.3,0.2,5.6,1.8c0.2,0.2,0.4,0.5,0.5,0.8c0.7,1.3,0.1,2.4-1.4,2.9C22.7,22.2,22.1,22.3,21.6,22.3z"/>
</g>
</svg>
