<?xml version="1.0" encoding="utf-8"?>
<!-- Generator: Adobe Illustrator 24.1.2, SVG Export Plug-In . SVG Version: 6.00 Build 0)  -->
<svg version="1.1" id="Layer_1" xmlns="http://www.w3.org/2000/svg" xmlns:xlink="http://www.w3.org/1999/xlink" x="0px" y="0px"
	 viewBox="0 0 216.9 60.6" style="enable-background:new 0 0 216.9 60.6;" xml:space="preserve">
<style type="text/css">
	.st0{fill:#FFFFFF;}
</style>
<g>
	<path class="st0" d="M114.3,45.6c1.4-4.2,2.7-8.2,4.1-12.1c1.4-4.2,2.8-8.4,4.2-12.6c0.2-0.7,0.5-1,1.3-0.9c1.9,0.1,3.9,0,5.9,0
		c2.1,12.3,4.1,24.5,6.2,36.9c-2.2,0-4.3,0-6.4,0c-0.2,0-0.5-0.5-0.5-0.8c-1.2-6.7-2.3-13.3-3.4-20c-0.1-0.6-0.2-1.3-0.5-1.9
		c-2.5,7.6-5.1,15.1-7.7,22.8c-1.9,0-3.8,0-5.7,0c-0.3,0-0.7-0.5-0.8-0.8c-2.3-6.9-4.6-13.7-6.9-20.6c-0.1-0.4-0.3-0.8-0.6-1.2
		c-1.3,7.5-2.6,15.1-3.9,22.6c-2.3,0-4.6,0-6.9,0c0.6-3.7,1.2-7.4,1.9-11.1c1.4-8.2,2.9-16.5,4.3-24.7c0.2-1,0.5-1.2,1.4-1.1
		c1.4,0.1,2.8,0.1,4.2,0c1.2-0.1,1.6,0.3,2,1.4c2.5,7.8,5.2,15.6,7.8,23.4C114.1,45,114.2,45.1,114.3,45.6z"/>
	<path class="st0" d="M194.8,44.1c-2.2,3.3-4.5,6.4-6.3,9.7c-1.4,2.5-3.1,3.7-5.9,3.2c-1.3-0.2-2.7,0-4.2,0c1-1.6,1.9-2.9,2.8-4.3
		c3-4.6,6-9.3,9.1-13.9c0.4-0.7,0.4-1.1,0-1.7c-3.6-5.4-7.1-10.8-10.6-16.2c-0.1-0.2-0.3-0.4-0.5-0.8c2.6,0,5.1,0,7.6,0
		c0.3,0,0.7,0.4,0.9,0.7c2.2,3.3,4.4,6.6,6.5,10c0.2,0.3,0.4,0.6,0.7,1c1.8-2.7,3.5-5.2,5.1-7.8c0.6-0.9,1.3-1.7,1.7-2.7
		c0.5-1.1,1.3-1.3,2.4-1.2c2.1,0.1,4.1,0,6.4,0c-0.9,1.3-1.6,2.5-2.4,3.7c-2.9,4.5-5.8,8.9-8.8,13.4c-0.4,0.6-0.3,1,0,1.6
		c3.7,5.7,7.5,11.4,11.2,17c0.2,0.3,0.4,0.6,0.7,1.1c-2.7,0-5.2,0-7.6,0c-0.3,0-0.6-0.4-0.8-0.7C200.2,52.2,197.5,48.2,194.8,44.1z"
		/>
	<path class="st0" d="M161.8,20.1c-4.4,10-8.7,19.9-13.1,30c4.2,0,8.1,0,12.2,0c0,2.3,0,4.5,0,6.8c-7.5,0-14.9,0-22.5,0
		c4.4-10,8.7-19.9,13.1-30c-4.1,0-7.9,0-11.9,0c0-2.3,0-4.5,0-6.8C146.9,20.1,154.3,20.1,161.8,20.1z"/>
	<path class="st0" d="M173.8,56.9c-2.3,0-4.6,0-6.9,0c0-12.3,0-24.5,0-36.8c2.3,0,4.6,0,6.9,0C173.8,32.3,173.8,44.6,173.8,56.9z"/>
	<path class="st0" d="M89.6,56.1c-4.5-11.8-9-23.5-13.5-35.3C75.8,20.2,75.6,20,75,20c-1.8,0-3.7,0.1-5.5,0c-0.9,0-1.2,0.3-1.5,1
		c-3.2,8.3-6.4,16.6-9.6,25c-1.4,3.6-2.8,7.2-4.2,10.9c2.4,0,4.5,0,6.7,0c0.3,0,0.8-0.4,0.9-0.7c0.9-2,1.7-4.1,2.4-6.2
		c0.2-0.7,0.6-0.9,1.3-0.9c4.3,0,8.6,0,13,0c0.7,0,1.1,0.2,1.3,0.9c0.7,2,1.5,4.1,2.3,6.1c0.1,0.3,0.5,0.8,0.8,0.8
		c2.2,0.1,4.5,0,6.8,0C89.7,56.6,89.7,56.3,89.6,56.1z M67.3,42.2c1.6-4.1,3.1-8.1,4.8-12.4c1.7,4.3,3.2,8.3,4.8,12.4
		C73.6,42.2,70.6,42.2,67.3,42.2z"/>
	<g>
		<path class="st0" d="M47.6,52.3l-0.3,0.2c-1,0.9-2.1,1.7-3.4,2.4C45.2,54.2,46.4,53.3,47.6,52.3z"/>
		<path class="st0" d="M47.3,52.5c0.2-0.2,0.5-0.4,0.7-0.6c0.5-0.5,0.9-1,1.4-1.5c0.4-0.6,0.9-1.1,1.3-1.7c0,0,0,0,0,0
			s0.4-0.3,1-1.1c3.7-5.5,4.6-11.3,4.7-14.4c0-0.1,0-0.1,0-0.2c0-0.7,0-1.3,0-2c-8.5,0-16.9,0-25.3,0c0,3.1,0,6,0,9.1
			c4.8,0,9.6,0,14.5,0c-1.4,3-3.3,5.4-6.2,6.9c-6.3,3.2-14.5,1.9-20.2-3.1c-8.3-7.4-7.2-21.2,2.3-27c7.1-4.4,16.6-3.3,23,2.6
			c0.5,0.5,1.1,1,1.7,1.6c2.3-2.3,4.4-4.6,6.7-6.9c-1.2-1.1-2.3-2.3-3.6-3.3c-1.2-1-2.6-2-4-2.7c-5.6-3-11.5-3.8-17.7-3.2
			c-7.5,0.7-13.6,4-18.1,9.9c-5.1,6.7-6.7,14-5.1,21.5l0,0c0,0,2,20.4,24.2,21.4c2.8,0.3,5.7,0.1,8.5-0.5c2.4-0.5,4.7-1.3,6.8-2.4
			L47.3,52.5z"/>
	</g>
	<path class="st0" d="M164.2,19.1c0,0,1.6-5.9,6.8-5.3c5.2,0.6,5.6,5.3,5.6,5.3S170.3,14.6,164.2,19.1z"/>
</g>
</svg>
