<?xml version="1.0" encoding="utf-8"?>
<!-- Generator: Adobe Illustrator 26.1.0, SVG Export Plug-In . SVG Version: 6.00 Build 0)  -->
<svg version="1.1" id="Layer_1" xmlns="http://www.w3.org/2000/svg" xmlns:xlink="http://www.w3.org/1999/xlink" x="0px" y="0px"
	 viewBox="0 0 1056.6 202" style="enable-background:new 0 0 1056.6 202;" xml:space="preserve">
<g id="Livello_1_1_">
</g>
<g id="Layer_1_00000121280000816817959920000000882230360127541942_">
</g>
<g>
	<path style="fill:#FFFFFF;" d="M256.2,110.2c0-3.6,0.6-8.1,2-13.8c5.2-21.7,7.6-25.6,26.9-25.6c4.7,0,10.3,0.6,13.5,1.4l-2.4,11.3
		c-5.8-0.4-8-0.6-9.4-0.6c-9.4,0-9,1.2-11.6,13.4c-0.9,4.6-1.7,7.6-1.7,9.6c0,3.4,2,3.9,7.5,3.9c2.9,0,7-0.2,10-0.6l-2.5,11.6
		c-3.4,0.7-9.3,1.2-14,1.2C262.1,122,256.2,119,256.2,110.2z"/>
	<path style="fill:#FFFFFF;" d="M295.1,113.2c0-2.6,0.3-6,1.2-10.2c3.1-15.1,7-19.2,14.4-19.2c4,0,7.7,0.5,9.6,4.2h0.7l1.2-3.7h15.1
		l-7.8,37.1h-15l0.7-4.1h-0.8c-2.6,3.9-6,4.7-9.3,4.7C298.3,122,295.1,120,295.1,113.2z M316.6,108.1c0.7-2,2.3-9,2.3-10.8
		c0-1.5-0.5-1.6-2.4-1.6c-3,0-3.1,0.1-4.6,7.1c-0.7,2.9-0.9,4.6-0.9,5.7c0,1.4,0.7,1.5,2.5,1.5C315.5,110,316,109.8,316.6,108.1z"/>
	<path style="fill:#FFFFFF;" d="M337.6,113.2c0-2.6,0.3-6,1.2-10.2c3.1-15.1,7-19.2,14.4-19.2c4,0,7.7,0.5,9.6,4.2h0.7l4.4-20.6
		h15.6l-11.5,54h-15l0.7-4.1h-0.8c-2.6,3.9-6,4.7-9.3,4.7C340.8,122,337.6,120,337.6,113.2z M359,108.1c0.7-2,2.3-9,2.3-10.8
		c0-1.5-0.5-1.6-2.4-1.6c-3,0-3.1,0.1-4.6,7.1c-0.7,2.9-0.9,4.6-0.9,5.7c0,1.4,0.7,1.5,2.5,1.5C357.9,110,358.4,109.8,359,108.1z"/>
	<path style="fill:#FFFFFF;" d="M386.3,84.3h15.8l-7.8,37.1h-15.8L386.3,84.3z"/>
	<path style="fill:#FFFFFF;" d="M412.1,67.4h15.8l-11.4,54h-15.8L412.1,67.4z"/>
	<path style="fill:#FFFFFF;" d="M424.5,113.2c0-2.6,0.3-6,1.2-10.2c3.1-15.1,7-19.2,14.4-19.2c4,0,7.7,0.5,9.6,4.2h0.7l1.2-3.7h15.1
		l-7.8,37.1h-15l0.7-4.1h-0.8c-2.6,3.9-6,4.7-9.3,4.7C427.7,122,424.5,120,424.5,113.2z M445.9,108.1c0.7-2,2.3-9,2.3-10.8
		c0-1.5-0.5-1.6-2.4-1.6c-3,0-3.1,0.1-4.6,7.1c-0.7,2.9-0.9,4.6-0.9,5.7c0,1.4,0.7,1.5,2.5,1.5C444.9,110,445.4,109.8,445.9,108.1z"
		/>
	<path style="fill:#FFFFFF;" d="M473.2,84.3h15l-1,6.2h0.7c3.2-5.5,5.9-6.8,12.6-6.8l-2.9,13.5c-9.7,0-12,1.8-14.1,11.7l-2.7,12.4
		h-15.5L473.2,84.3z"/>
	<path style="fill:#FFFFFF;" d="M527.1,71.4h26c8.2,0,13.2,3.3,13.2,9.6c0,1.1-0.1,2.3-0.4,3.6c-1.6,7-5.2,9.8-11.5,11.2V96
		c4.3,1.2,7,2.8,7,8.2c0,1.2-0.1,2.7-0.5,4.4c-1.9,8.5-5.9,12.8-17.8,12.8h-26.5L527.1,71.4z M539.1,109.7c3.9,0,4.4-0.4,5.2-4.2
		c0.2-1.1,0.4-1.9,0.4-2.5c0-1.6-0.9-1.9-3.8-1.9h-3.5l-1.8,8.6H539.1z M543,91.1c3.9,0,4.4-0.4,5.2-4c0.2-1,0.4-1.7,0.4-2.3
		c0-1.5-1-1.7-3.9-1.7h-3.5l-1.7,8.1H543z"/>
	<path style="fill:#FFFFFF;" d="M564.8,113.2c0-2.6,0.3-6,1.2-10.2c3.1-15.1,7-19.2,14.4-19.2c4,0,7.7,0.5,9.6,4.2h0.7l1.2-3.7H607
		l-7.8,37.1h-15l0.7-4.1H584c-2.6,3.9-6,4.7-9.3,4.7C568,122,564.8,120,564.8,113.2z M586.3,108.1c0.7-2,2.3-9,2.3-10.8
		c0-1.5-0.5-1.6-2.4-1.6c-3,0-3.1,0.1-4.6,7.1c-0.7,2.9-0.9,4.6-0.9,5.7c0,1.4,0.7,1.5,2.5,1.5C585.2,110,585.7,109.8,586.3,108.1z"
		/>
	<path style="fill:#FFFFFF;" d="M605.9,135.3l2-9.8h9.6c8,0,8.2,0,9.4-5.6c0.3-1.2,0.5-2.5,0.8-3.8H627c-3.1,3.9-6.8,4.7-9.5,4.7
		c-7.2,0-9.4-2.8-9.4-7.8c0-1.9,0.3-4.1,0.9-6.6l4.7-22h15.6l-3.9,18.4c-0.5,2.4-0.8,3.9-0.8,4.7c0,1.3,0.6,1.3,2,1.3
		c2.5,0,2.7-0.1,4-6l3.9-18.4H650l-7,33.1c-2.6,12.4-3.6,19-23.8,19C614.3,136.3,608.8,135.9,605.9,135.3z"/>
	<path style="fill:#FFFFFF;" d="M656.6,84.3h15l-1,6.2h0.7c3.2-5.5,5.9-6.8,12.6-6.8L681,97.2c-9.7,0-12,1.8-14.1,11.7l-2.7,12.4
		h-15.5L656.6,84.3z"/>
	<path style="fill:#FFFFFF;" d="M682.2,113.2c0-2.6,0.3-6,1.2-10.2c3.1-15.1,7-19.2,14.4-19.2c4,0,7.7,0.5,9.6,4.2h0.7l1.2-3.7h15.1
		l-7.8,37.1h-15l0.7-4.1h-0.8c-2.6,3.9-6,4.7-9.3,4.7C685.3,122,682.2,120,682.2,113.2z M703.6,108.1c0.7-2,2.3-9,2.3-10.8
		c0-1.5-0.5-1.6-2.4-1.6c-3,0-3.1,0.1-4.6,7.1c-0.7,2.9-0.9,4.6-0.9,5.7c0,1.4,0.7,1.5,2.5,1.5C702.5,110,703,109.8,703.6,108.1z"/>
	<path style="fill:#FFFFFF;" d="M730.8,84.3h15l-0.6,4.1h0.7c3.1-3.9,7.2-4.7,10-4.7c5.8,0,8.3,1.6,9.1,4.7h0.7
		c3.2-3.9,7.6-4.7,10.6-4.7c6.8,0,8.7,2.5,8.7,7.6c0,2-0.6,5.6-1.3,9.1l-4.6,21h-15.5l4-18.6c0.5-2.3,0.9-4.6,0.9-5.5
		c0-1.4-0.4-1.5-1.5-1.5c-2.8,0-3,0.4-4.2,6l-4.2,19.6h-15.5l4-18.6c0.5-2.3,0.9-4.6,0.9-5.5c0-1.4-0.4-1.5-1.5-1.5
		c-2.8,0-3,0.4-4.2,6l-4.2,19.6H723L730.8,84.3z"/>
	<path style="fill:#FFFFFF;" d="M793.7,84.3h15.8l-7.8,37.1h-15.8L793.7,84.3z"/>
</g>
<g id="XMLID_1_">
	<path id="XMLID_2_" style="fill:#FFFFFF;" d="M139.9,42.8c-2.9,0-5.7,0.3-8.5,0.7c-1.7-18.5-17.2-33.2-36.2-33.2
		c-2.2,0-4.1,1.8-4.1,4.1v16.2c0,2.2,1.8,4.1,4.1,4.1c6.1,0,11.2,4.6,12,10.5c-5.2-1.5-10.6-2.4-16.1-2.4c-35.8,0-64.9,32.8-64.9,73
		s29.1,73,64.9,73h48.7c35.8,0,64.9-32.8,64.9-73S175.7,42.8,139.9,42.8z M59.3,105.6c-0.7-1.3-0.7-2.9,0.1-4.1L79.7,69
		c1.5-2.4,5.4-2.4,6.9,0l20.3,32.5c0.8,1.2,0.8,2.8,0.1,4.1c-0.7,1.3-2.1,2.1-3.6,2.1H62.8C61.3,107.7,60,106.9,59.3,105.6z
		 M138.8,157.8l-0.4-3c-0.2-1.1-0.7-2-1.6-2.7c-0.9-0.6-1.9-0.9-3-0.8l-16.1,2.3c-2.2,0.3-3.8,2.4-3.4,4.6l0.9,6.3
		c-3.6,0-7-0.5-10.5-1.4l2.1-3.8c1.1-2,0.3-4.4-1.7-5.5l-14.3-7.7c-0.9-0.5-2.1-0.6-3.1-0.3c-1,0.3-1.9,1-2.4,2l-1.5,2.8
		c-4.6-5.2-7.5-11.3-8.4-17.8h80.4C154.3,142.8,148.1,151.9,138.8,157.8z M168.5,107.7c-0.1,0-0.1,0-0.2,0h-40.6
		c-1.5,0-2.8-0.8-3.6-2.1c-0.7-1.3-0.7-2.9,0.1-4.1L144.6,69c1.5-2.4,5.4-2.4,6.9,0l19.8,31.6c0.8,0.7,1.3,1.8,1.3,3
		C172.5,105.9,170.7,107.7,168.5,107.7z"/>
</g>
</svg>
