<?xml version="1.0" encoding="UTF-8"?> <svg xmlns="http://www.w3.org/2000/svg" xmlns:xlink="http://www.w3.org/1999/xlink" version="1.1" id="Layer_1" x="0px" y="0px" viewBox="0 0 1000 1000" style="enable-background:new 0 0 1000 1000;" xml:space="preserve"> <path style="fill:#FFFFFF;" d="M373.8,550.8c-0.7,0.9-1.3,2-2.2,2.9c-12,13-23.8,26.2-36,39c-12.1,12.7-31.2,15.2-45.8,6.6 c-15.8-9.4-23.3-27.2-17.8-44.2c1.6-5.1,4.6-10,8-14.2c6.1-7.6,13-14.5,19.6-21.7c1.1-1.2,2.2-2.5,3.7-4.1c-3.9-2.5-7.4-4.9-11-7.2 c-24.3-15.5-48.6-31-72.8-46.6c-10.2-6.6-15.2-16.6-16.9-28.5c-1.2-8.5-0.3-16.9,1.8-25.2c0.4-1.4,1.5-3,2.8-3.8 c21.6-12.6,43.2-25,64.9-37.5c25-14.4,50-28.8,74.9-43.2c25.1-14.5,50.2-28.9,75.2-43.4c25.4-14.7,50.8-29.4,76.2-44 c25.3-14.6,50.7-29.1,76-43.6c6.2-3.6,12.4-7.3,18.8-10.4c11.9-5.6,24.4-7.5,37.4-4.5c0.5,0.1,1,0.1,1.5,0.1c0.1,0,0.2-0.1,0.1,0 c-1.5-6.7-3.7-13.2-4.2-19.8c-2.3-26.5,7.8-47.6,30.2-61.8c21.4-13.6,43.9-13.8,66.3-1.7c2.6,1.4,3.6,0.3,5-1.3 c14.1-15.8,28.3-31.4,42.4-47.2c9.3-10.4,20.6-15.1,34.1-10.6c13.7,4.6,22.8,14.2,24.6,29.1c1.2,9.6-2.3,17.8-8.7,24.9 c-14.5,16-28.8,32-43.3,48c-7.1,7.9-14.3,15.8-21.3,23.8c-1.5,1.7-2.6,3.8-3.3,5.9c-6,19.6-18.2,33.8-36.8,42.5 c-2.2,1-4.4,2.7-5.9,4.6c-9.4,11.4-18.7,22.8-27.7,34.5c-2.7,3.5-4.6,7.7-6.5,11.7c-7.1,14.5-14,29-21.2,44c0.4,0.3,1.2,1.1,2.1,1.8 c12.6,10.4,15.4,28.2,6.8,42.9c-8.1,13.7-24.7,19.5-39.7,13.7c-3.9-1.5-7.7-3.4-11.7-4.7c-1.2-0.4-3.4,0-4.3,0.8 c-8.2,8.1-16.2,16.4-24.3,24.6c-2.5,2.5-5.3,4.6-8.1,6.7c-2.2,1.6-2.8,3.6-2.7,6.3c1.1,24.2,2.1,48.4,3.1,72.7 c0.9,22.4,1.8,44.9,2.8,67.3c0.8,17.4-11.4,34.1-29,37.7c-10.7,2.1-21.8,2.4-32.8,3.2c-33.7,2.2-67.4,4.1-101,6.3 c-15.6,1-28.3-3.9-36.9-17.3C377.7,561.5,376.2,556.4,373.8,550.8z M503.8,508.4c-4.1,0.3-7.6,0.6-11.2,0.8 c-27.2,1.6-54.3,3.2-81.5,5c-1.8,0.1-4.1,1-5.3,2.3c-7.7,7.9-15.1,16-22.6,24.2c-0.7,0.8-1.3,2-1.3,3c-0.8,17.8,12.7,33.1,31.3,32.1 c36.2-1.9,72.4-4.2,108.6-6.7c10.1-0.7,20.4,0,30.3-3.7c8.1-3.1,14.2-7.9,17.9-15.8c3.1-6.7,2.5-13.6,2.2-20.7 c-1.8-39.3-3.3-78.7-4.9-118c-0.3-6.2-0.2-12.4-1-18.4c-0.3-2.5,0.5-3.6,2-5c11.2-10.7,22.4-21.5,33.5-32.3c0.6-0.5,0.8-1.4,1.2-2.3 c-22.3-9.2-44.3-18.1-66.1-27.5c-11.2-4.8-23.9-7.3-32.2-18.2c-3.8,4.1-7.4,7.8-10.9,11.7c-44.9,48.8-89.8,97.5-134.6,146.3 c-24.3,26.4-48.5,52.9-72.8,79.3c-6,6.6-9,14.2-8.7,23.1c0.5,11.9,9,23.3,20.4,27.4c12.5,4.5,24.5,1.2,34-9.2 c13.2-14.5,26.4-29,39.7-43.4c40.5-43.9,80.9-87.9,121.4-131.8c4.8-5.2,9.6-10.4,14.8-16.1c0.8,4.3,4.1,7.8-0.3,11.3 c-0.8,0.6-0.7,2.6-0.6,4c0.5,14,1.1,27.9,1.7,41.9c0.7,16,1.5,32,2.1,48c0.2,5.9,0,11.9,0,18c-2.1-0.4-4.2-0.7-6.4-1.1 C504.4,514.1,504.1,511.5,503.8,508.4z M629,185.1c-0.6-0.4-0.9-0.8-1.2-0.9c-1-0.2-2-0.4-3-0.5c-12-1.4-23.1,1.5-33.5,7.4 c-38.5,22.1-77,44.2-115.5,66.4c-40.8,23.5-81.6,46.9-122.4,70.4c-44.7,25.7-89.3,51.7-134.1,77.2c-6.1,3.5-9.3,7.3-9.6,14.4 c-0.5,13.6,1.2,26.2,13.1,35c2.6,1.9,5.4,3.5,8,5.2c24.9,15.9,49.8,31.8,74.6,47.9c3,1.9,4.2,1.2,6.2-1c15.6-17,31.3-33.9,46.9-50.9 c46.7-50.8,93.3-101.6,140-152.3c1.8-1.9,2.1-3.5,1.4-6.1c-4.3-14.7,0.7-28.6,13.3-37.4c27.6-19.2,55.3-38.4,83-57.5 c6.7-4.6,13.5-9.3,20.6-13.3C620.4,187,624.7,186.4,629,185.1z M566.4,274.2c5.7-1.3,11.2-4.3,17-0.7c1.6,1,3.6,1.3,5.3,2.2 c2,1.1,3.4,0.7,5.2-0.6c17.1-11.9,34.3-23.7,51.4-35.7c7.3-5.1,10.8-12.4,10.4-21.1c-0.5-10.4-5.7-18.3-15.1-22.9 c-9.2-4.5-18.1-2.7-26.4,3.1c-18.9,13.2-37.9,26.2-56.8,39.4c-14.1,9.8-28.5,19.2-41.8,29.8c-15.1,12.1-12.4,35.8,5.6,43.4 c35.4,14.9,71,29.5,106.5,44.2c5.4,2.2,11,2.6,16.5,0.7c11.4-3.8,18.2-13.3,18.4-25.2c0.1-10.3-6.4-19.5-16.9-23.8 C619.2,296.2,592.8,285.2,566.4,274.2z M731.7,109c-16.4-17.2-48.9-23.4-74.5-3.7c-23.6,18.2-29.3,53.5-12.2,77.9 c17.7,25.2,51.2,31.7,77.6,14.9c22.2-14.1,29.9-41.8,25.1-56.4c-22.4,33.6-54,23.2-69.3-1C696.1,130.2,713.8,119.7,731.7,109z M733.2,100c15.2,13.4,23.1,29.9,23.2,50.5c1.4-1.3,2-1.8,2.5-2.3c19.4-21.6,39-43.2,58.3-64.9c9.8-11,8.4-25.1-3.1-35.3 c-11.3-10.1-25.4-9.6-35.4,1.4c-6.8,7.5-13.6,15-20.3,22.6C750.1,81.1,741.8,90.4,733.2,100z M415.7,506.1c1.6,0.1,2.5,0.2,3.3,0.2 c27-1.7,54.1-3.4,81.1-5c3.2-0.2,3.5-1.5,3.3-4c-1.1-23.7-2-47.4-3.1-71.1c-0.2-3.5-0.5-7-0.8-11.4 C471.3,445.5,443.8,475.5,415.7,506.1z M599.8,279.8c0.9,0.7,1.2,1,1.5,1.1c15,6.2,29.9,12.5,44.9,18.6c0.9,0.4,3-0.5,3.5-1.3 c3.5-6,7.1-11.9,9.9-18.2c9.9-22.6,21-44.4,37.2-63.3c0.4-0.5,0.5-1.3,0.9-2.4c-12.9,1-24.8-1.4-36.7-7.2c0.5,1.7,0.7,2.6,0.9,3.4 c3.3,13.3-1.5,27.1-12.3,34.7c-11.5,8.1-23.1,16-34.7,24C610,272.6,605.2,276.1,599.8,279.8z"></path> <path style="fill:#FFFFFF;" d="M652.2,794.1c-14.2,16.5-28.1,32.5-41.9,48.5c-1.7,2-3.5,3-6.2,2.9c-13.8-0.1-27.7-0.1-41.5-0.1 c-1.2,0-2.5-0.1-4.5-0.2c5.5-6.1,10.5-11.7,15.6-17.2c19.8-21.8,39.7-43.7,59.6-65.4c2.3-2.5,2.3-4.4,0.9-7.3 c-11.8-25-23.5-50.1-35.2-75.2c-0.5-1-0.8-2.1-1.4-3.4c1.5-0.1,2.6-0.2,3.7-0.2c14.6,0,29.2,0.1,43.9-0.1c2.6,0,3.8,0.8,4.9,3.1 c6.8,15.1,13.9,30,20.8,45c0.3,0.7,0.7,1.3,1.3,2.4c3-3.5,5.9-6.7,8.7-9.9c11-12.7,21.9-25.5,33-38.1c1.2-1.3,3.4-2.4,5.1-2.4 c11.9-0.2,23.9-0.2,35.8,0c1.7,0,3.9,0.8,5,2c2.1,2.4,0.1,4.4-1.5,6.2c-22.8,25-45.5,50.1-68.3,75.2c-0.5,0.6-1,1.2-1.5,1.8 c12.9,27.7,25.8,55.3,38.9,83.3c-1.6,0.1-2.7,0.3-3.8,0.3c-14.5,0-29-0.1-43.5,0.1c-2.9,0-4.3-1-5.5-3.5 c-6.4-14-12.9-27.9-19.4-41.9C654.2,798.3,653.3,796.5,652.2,794.1z"></path> <path style="fill:#FFFFFF;" d="M231.8,824.8c2.5-10.6,4.8-20.5,7.2-30.5c11.2-47.2,22.5-94.3,33.7-141.5c0.7-3.1,1.8-4.1,5-4 c37.6,0.3,75.2,0.3,112.7,0.5c1.3,0,2.5,0.1,4.2,0.2c-0.8,3.5-1.5,6.7-2.3,9.9c-1.6,6.9-3.5,13.7-4.9,20.6c-0.6,3-1.9,3.8-4.9,3.8 c-22.6-0.1-45.1,0-67.7-0.1c-3,0-4.2,0.8-4.9,3.8c-2.4,10.8-5.1,21.6-7.8,33c18.8,0,37.3,0,56.1,0c-0.2,1.5-0.2,2.6-0.5,3.5 c-2.1,8.8-4.5,17.6-6.4,26.5c-0.6,2.8-1.9,3.4-4.4,3.4c-16.4-0.1-32.8,0.1-49.2-0.1c-2.9,0-3.9,0.8-4.6,3.6 c-5,21.2-10.2,42.3-15.2,63.4c-0.7,3-1.8,4.1-5.1,4.1c-12.2-0.2-24.4-0.1-36.6-0.1C234.9,824.8,233.6,824.8,231.8,824.8z"></path> <path style="fill:#FFFFFF;" d="M425.9,882c6.1-8.6,11.7-16.4,17.3-24.2c8.4-11.7,16.8-23.3,25-35c0.9-1.3,1.3-3.6,1-5.2 c-6.7-33.5-13.6-67.1-20.5-100.6c-0.8-4.1-1.6-8.3-2.6-13c1.7,0,2.9,0,4.1,0c11.9,0,23.8,0.1,35.8-0.1c3,0,4.2,0.7,4.6,3.8 c3.1,22.2,6.5,44.4,9.8,66.5c0.2,1.3,0.4,2.5,0.8,4.8c2.7-4.2,4.9-7.7,7.1-11.2c12.8-20.4,25.6-40.8,38.6-61.2 c0.8-1.3,2.9-2.6,4.4-2.7c11-0.2,22-0.1,32.8-0.1c1.1,1.9,1.9,3.4,3.1,5.5c-3.5,5.1-7.4,10.8-11.3,16.5 c-35.2,50.9-70.4,101.9-105.5,152.9c-1.6,2.4-3.3,3.4-6.2,3.3C451.8,881.8,439.4,882,425.9,882z"></path> <path style="fill:#FFFFFF;" d="M729.9,865.2c4,8.3,8,16.6,12.2,25.2c-1.1,0.6-2.2,1.2-3.3,1.7c-33,14.3-67.4,23.7-102.9,29.1 c-43.7,6.7-87.6,7.2-131.6,3c-35.8-3.4-71-9.8-105.6-19.9c-1-0.3-2-0.8-2.9-1.2c0.1-0.3,0.1-0.6,0.2-0.9c5.9,0.6,11.7,1.1,17.6,1.7 c46.8,4.7,93.6,6,140.6,3c42.9-2.8,85.1-9.3,126.2-22c16.6-5.1,32.8-11,48.1-19.3C728.8,865.5,729.2,865.4,729.9,865.2z"></path> <path style="fill:#FFFFFF;" d="M369.1,824.5c2.3-9.8,4.5-19.2,6.8-28.6c10.1-42.2,20.4-84.4,30.4-126.7c0.9-3.8,2.4-4.8,6.1-4.7 c10,0.3,20,0.1,30,0.1c1.3,0,2.5,0,4.3,0c-1.9,8.2-3.7,15.8-5.6,23.5c-10.7,44.3-21.4,88.7-32.1,133c-0.7,2.8-1.7,3.7-4.6,3.7 c-10.5-0.2-21-0.1-31.5-0.1C371.8,824.7,370.6,824.6,369.1,824.5z"></path> <path style="fill:#FFFFFF;" d="M609.5,961.8c-88.6,5.5-171.9-8.1-247.7-55c0.1-0.5,0.2-0.9,0.3-1.4c0.9,0.3,1.7,0.5,2.6,0.8 c42.6,17.1,86.7,28,132.2,33.7c29.6,3.7,59.2,5.1,89,3.8c3.8-0.2,7.7-0.7,11.5-0.7c1.2,0,3.1,0.8,3.6,1.8 C603.9,950.1,606.4,955.5,609.5,961.8z"></path> <path style="fill:#FFFFFF;" d="M294.3,437.5c-7.2,3.1-14,6-20.8,8.8c-1.3,0.5-3.4,0.7-4.5,0c-4.8-3.1-9.4-6.5-14.7-10.2 c6.5-2.6,12.4-5,18.3-7.4c6.4-2.5,12.8-5.2,19.3-7.5c2.2-0.8,2.5-1.9,2.5-4c-0.1-12.9,0-25.9,0-39.5c1.7,1.2,3.1,2.2,4.4,3.1 c3.5,2.4,7,4.7,10.3,7.3c1.1,0.8,2,2.6,2,3.9c0.3,6.4,0.2,12.8,0.3,19.2c0,1.4,0.2,2.7,0.3,4.7c6.8-3,13.2-5.5,19.4-8.4 c2.9-1.4,4.9-1.3,7.5,0.8c4,3.3,8.5,6,13.1,9.2c-11.7,4.6-23,9.2-34.4,13.2c-4.2,1.5-5.9,3.4-5.7,8.2c0.5,11.3,0.3,22.6,0.3,33.8 c0,0.8-0.1,1.7-0.2,3.4c-5.7-4-10.9-7.6-15.9-11.4c-0.8-0.6-0.9-2.3-0.9-3.5c-0.1-6.4-0.1-12.8-0.2-19.2 C294.7,440.7,294.5,439.3,294.3,437.5z"></path> </svg> 