<?xml version="1.0" encoding="UTF-8"?> <!-- Generator: Adobe Illustrator 24.1.2, SVG Export Plug-In . SVG Version: 6.00 Build 0) --> <svg xmlns="http://www.w3.org/2000/svg" xmlns:xlink="http://www.w3.org/1999/xlink" version="1.1" id="Layer_1" x="0px" y="0px" viewBox="0 0 100 100" style="enable-background:new 0 0 100 100;" xml:space="preserve"> <style type="text/css"> .st0{fill:#FFFFFF;} </style> <g> <path class="st0" d="M30,32.8c0,0-3.3-8.1-13.5-2.1c0,0-4.9,4.7,1.6,11.7l7.2,1.7c0,0-0.9,1.5-3.8,0c0,0-5.2-2.9-6.1,1 c0,0-1.4,7.3,10.7,6.9c0,0,9.4-2.2,4.8-11.7c0,0-2.3-3.8-8.8-4.9c0,0,0.9-1,3.5,0.2c0,0,3.3,2.3,4.7,0.6 C30.3,36.1,30.7,35.2,30,32.8z"></path> <path class="st0" d="M35.3,33c0,0-3.6-0.2-2.4,15.7c0,0,1.2,4.6,3.8,1.5l2-3.8c0,0,0.4-1.6,0.8-0.4c0,0,1.2,4,3.9,4.2 c0,0,3.6-0.8,3.5-8.8c0,0,0.5-8.6-2-8.5c0,0-3.3,0.7-2.5,7.5l-2.1-2c0,0-1.1-0.8-1.8,0.2l-1.8,1.9C36.6,40.7,37.6,32.9,35.3,33z"></path> <path class="st0" d="M48.5,34.2c0,0-2.6,9.3-1,15.2c0,0,2.4,2.4,9.2,0.9c0,0,1.6-5.3-0.9-5.7L52.1,45c0,0-1.3-0.9,1.4-1.2 c0,0,3,0.2,3.2-0.9c0,0,0.6-3.1-1.2-3.4c-0.4-0.1-3-0.2-3-0.2s-1.6-0.3,0.9-0.8c0.3-0.1,5.4,0.8,5.4-0.2c0,0,1.5-3.9-3.1-4.9 C55.5,33.5,48.4,31.3,48.5,34.2z"></path> <path class="st0" d="M58.9,35.6c0,0-0.5,9.7,2.4,15c0,0,2.8,1.8,9.2-1.1c0,0,0.4-5.5-2.2-5.4l-3.5,1.2c0,0-1.5-0.6,1.1-1.5 c0,0,3-0.5,2.9-1.6c0,0-0.1-3.2-2-3c-0.4,0-3,0.5-3,0.5s-1.6,0.1,0.7-0.9c0.3-0.1,5.4-0.4,5.2-1.4c0,0,0.6-4.1-4.1-4 C65.7,33.3,58.3,32.7,58.9,35.6z"></path> <path class="st0" d="M70.3,30.9c0,0-0.5-2.7,7-2.2c0,0,7.7-0.7,7.9,4s-1.9,5.1-1.9,5.1s-3.7-0.8-3.6,2l-1.1,9.8c0,0-0.9,5-3,2.5 c-2.1-2.5-1.5-12-1.5-12v-3.4C74.2,36.8,69,37.7,70.3,30.9z"></path> </g> <g> <path class="st0" d="M12.6,57l-0.1-3.5c0,0,0.5-5.2-8.7-4.2c0,0-4.5,0.3-3.6,4.6C0.2,54.2,0,65.6,0,65.6s0.1,5.9,6.9,4.8 c6.8-1.1,8.5-5.2,8.5-5.2S18.3,59,12.6,57z M5.3,53.3c1.6-0.5,1.9,0.9,1.9,0.9c0.4,2.4-1.4,1.8-1.4,1.8C4.4,55.7,5.3,53.3,5.3,53.3 z M8.5,63.3c-3.1,0.8-2.4-1.9-2.4-1.9c0.6-2.1,3-1.6,3-1.6C12.2,62.5,8.5,63.3,8.5,63.3z"></path> <path class="st0" d="M27.2,54.7c0,0-2.2-1.4-4.1-0.9c0,0-7,0.2-6.2,9.7c0,0,2,9.3,11.1,3.9C28,67.4,34.4,59.1,27.2,54.7z M24.6,63.7c-2.6-1.2-1.8-4.8-1.8-4.8c0.9-1.7,1.8,0.9,1.8,0.9C26.5,63.3,24.6,63.7,24.6,63.7z"></path> <path class="st0" d="M34.9,53.3c0,0-4.7,2-3.7,14.4c0,0,1.5,2.8,3.7,0.4c0,0,1-3.3,0.6-7c0,0,2,8.4,6,9s3.3-15.4,3.3-15.4 s-1.8-2.4-3.5,1.1c0,0-0.8,2.1-0.6,3.3C40.7,59,37.4,51.4,34.9,53.3z"></path> <path class="st0" d="M60.1,54c0,0-4.2,2.9-0.7,14.8c0,0,2.1,2.4,3.7-0.4c0,0,0.3-3.4-0.8-6.9c0,0,3.6,7.9,7.8,7.6 s0.1-15.7,0.1-15.7s-2.2-2-3.2,1.8c0,0-0.3,2.2,0.1,3.3C67,58.5,62.2,51.7,60.1,54z"></path> <path class="st0" d="M50.7,53.4c0,0-4.3,1.7-5.9,13c0,0-1.2,3.2,2.1,3.2c0,0,1.6-0.6,3-3c0,0,0.6-1.1,1.3-0.2c0,0,1.7,3,3.1,3.2 c0,0,3-0.3,2.7-4.3C56.8,61.3,55,51.9,50.7,53.4z M52.1,60.7c-0.1,0.7-1,0.6-1,0.6c-0.8-1.3,0-3.7,0-3.7 C52.2,57.5,52.2,59.9,52.1,60.7z"></path> <path class="st0" d="M92.8,49.5c0,0-5.4,1.9-8.1,15.8c0,0-1.6,4,2.5,4.1c0,0,2-0.6,3.9-3.6c0,0,0.8-1.4,1.6-0.2 c0,0,1.9,3.8,3.7,4.2c0,0,3.7-0.2,3.6-5.2C99.9,59.7,98.3,47.9,92.8,49.5z M94.1,58.6c-0.1,0.9-1.3,0.6-1.3,0.6 c-1-1.7,0.2-4.6,0.2-4.6C94.5,54.6,94.3,57.7,94.1,58.6z"></path> <path class="st0" d="M73.5,54.1c0.3-0.3,1.2-2,7.9,0c0,0,3.5,0.2,2.1,3.1C82.2,60,78.7,63,78.7,63s-1.2,1.2,0,1.4H83 c0,0,2.8,2.7-3.1,5c0,0-6.2,0.4-7.1-1.2c-0.9-1.6,0.5-4.6,0.5-4.6l3.7-4.2c0,0,1.3-0.8-0.7-0.9C76.2,58.5,70.2,57.9,73.5,54.1z"></path> </g> </svg> 