<?xml version="1.0" encoding="UTF-8"?> <svg xmlns="http://www.w3.org/2000/svg" xmlns:xlink="http://www.w3.org/1999/xlink" version="1.1" id="Layer_1" x="0px" y="0px" viewBox="0 0 100 100" style="enable-background:new 0 0 100 100;" xml:space="preserve"> <path style="fill:#FFFFFF;" d="M96.7,40c-0.3,1.8-1.1,3.5-2.4,4.8c-0.5,0.5-1,1-1.5,1.6c0.2,0,0.4,0.1,0.6,0.1 c0.1,1.2-0.5,2-1.3,2.7c-1.6,1.6-3.3,3-5,4.6c-0.6,0.5-1.2,1-1.5,1.7c-0.2,0.5-0.2,1.3,0.1,1.8c0.2,0.5,0.9,1,1.4,1.1 c1.1,0.2,2.2,0.1,3.6,0.1c-0.7,0.5-1.3,0.8-1.8,1.2c-2.3,2.1-5.1,3-8,3.6c-0.9,0.2-1.8,0.6-2.7,0.6c-1.9,0-3.8-0.1-5.7-0.2 c-0.9-0.1-1.4,0.5-1.8,1.2c-0.1,0.2-0.1-0.3,0-0.2c1.3,1.5-1.4-1.1-0.2,0.2c-2.9,0.7-1.9,1.1-5,0.1c-1.2-0.4-2.4-0.5-3.6-0.8 c-1.9-0.5-3.5,3.5-4.7,2c-1.4-1.6-3.1-2.2-5.1-2.3c-2.5,0-5-0.1-7.5-0.2c-1.5,0-2.6,0.6-3.6,1.8c-2,2.2-4.4-1.2-7.5-0.9 c-1,0.1-2,0.3-3,0.6c-1.9,0.6,0.3,0.5-1.5,0c-0.7-0.2-1.5-0.2-2.2-0.3c0.1,0.1,0.3,0.2,0.4,0.4c0.9-1.2-1.1,0.7-0.2-0.5 c0.3-0.5-0.4,0.9-0.5,0.4c-0.1-0.7-0.8-1-1.6-1.1c-1.9,0-3.8,0.1-5.6-0.4c-2.7-0.8-5.3-2.1-7.5-4c-0.6-0.5-1.3-0.9-2.2-1.5 c1.1-0.3,2-0.5,2.8-0.7c0.7-0.2,1.9-0.1,1.9-1c0-0.7-0.8-1.5-1.5-1.9C10.5,53,8.4,51.1,6.6,49c-0.5-0.5-0.7-1.3-0.9-1.9 c-0.1-0.1,0.2-0.4,0.4-0.8c-1.6-1.8-3.7-3.6-3.6-6.7c4,1.7,8.1,2.8,12.4,3.6c-1-1.2-2-2.4-3.1-3.7c1,0.2,1.8,0.3,2.6,0.5 c-2.4-1.6-4.6-3.4-5-6.5c0.6,0.1,1.2,0.3,1.8,0.4c-3-3-2.6-6.3-1.4-9.9c3,1.9,5.1,4.6,7.1,7.4c0.1,0,0.2-0.1,0.2-0.1 c-0.1-0.4-0.1-0.7-0.2-1.2c0.5,0.2,0.9,0.3,1.3,0.4c-0.1-0.7-0.3-1.3-0.3-1.9c0-1.3-0.1-2.7,0-4c0.1-1.4,0.4-2.7,0.6-4.4 c0.4,0.4,0.6,0.6,0.7,0.8c1.6,3,3.9,5.2,6.9,6.7c0.7,0.3,1,0.8,1.2,1.5s0.4,1.4,0.6,2.2c-0.4,0-0.7,0-1-0.1 c-2.2-0.7-4.5,1.2-4.7,3.5c-0.1,1.5,0,2.9,0.5,4.4c0.1,0.3,0,0.6-0.1,0.9c-0.2,0.7-0.5,1.3-0.6,2c-0.1,0.8,0,1.6-0.3,2.3 c-0.1,0.4-0.8,0.7-1.2,0.8c-0.8,0.2-1.7,0.3-2.5,0.5c-0.2,0-0.4-0.1-0.6-0.2c-0.4-0.2-0.7-0.5-1.1-0.7c-0.1,0-0.2,0.1-0.3,0.1 c0.2,0.4,0.3,0.8,0.5,1.1c0.2,0.4,0.5,0.9,0.5,1.3c0,3-0.1,5.9-0.1,8.9c0,0.9,0,1.7,0.1,2.6c0.2,1.6,1.1,2.2,2.8,2.1 c1.3-0.1,2.2-1,2.3-2.4c0-0.7,0-1.3,0-1.9c1.6-0.4,3.1-0.7,4.6-1.1c0,0.8,0,1.8,0,2.8c0,1.6,0.9,2.5,2.5,2.6c1.6,0,2.5-0.9,2.6-2.5 c0-1.5,0-3,0-4.5c0.7,0,1.3,0,2,0c-0.2,1.4,0.5,2.8-0.5,4c0.2,0.3,0.4,0.5,0.5,0.7c0.3,2.1,2,2.9,4,2c0.3-0.1,0.7-0.2,0.9-0.1 c2,0.9,3.1,0.3,3.9-0.8c0.9,0.4,1.8,1,2.7,1.2c1.1,0.2,2-0.5,2.4-1.5c1.1,0.5,2.2,1.1,3.3,1.5c1.6,0.6,3,0,4.3-0.9 c0.6-0.4,0.9-0.4,1.4,0c2,1.4,4.7,1.4,6.7,0.1c0.5-0.3,0.8-0.4,1.3-0.1c2.5,1.5,5,1.5,7.5-0.4c1.7,1.1,3.7,1.9,5.8,1.2 c1.1-0.4,2.4-1.1,3.1-2c0.5-0.6,0.5-2,0.1-2.8c-0.5-1.3-0.4-2.5-0.2-3.7c0.3-1.5-0.7-2.9-1.9-3.2c-0.8-0.2-1.7-0.4-2.6-0.6 c0.2-0.4,0.3-0.7,0.5-1.1c0.2,0.3,0.3,0.4,0.4,0.7c0.2-1.2,0.3-2.2,0.5-3.2c-1.1,0-1.9,1.5-2.9,0.2c0.1-1.4,0.1-2.7,0.3-4 c0.2-1.5,0.5-2.9,0.7-4.4c0.2-1.8-1.6-4.1-3.2-4.1c-0.9,0-1.4,0.4-1.7,1.1c-0.2,0.3-0.3,0.6-0.4,0.9c-0.2,0-0.3-0.1-0.5-0.1 c0.1-0.6,0.1-1.3,0.3-1.9c0.4-1.2,0.8-2.4,1.2-3.6c0.2-0.4,0.5-0.8,0.8-1c3.1-1.7,5.7-3.8,7.4-7c0-0.1,0.2-0.1,0.5-0.3 c0.9,3.3,0.8,6.5,0.4,9.7c0.3,0.6,1.6-0.4,1.2,1.2c2.1-3,4.3-5.5,7.1-7.4c1.4,2.1,1.8,7.5-1.3,9.8c0.6-0.1,1.1-0.2,1.7-0.3 c-0.1,3.3-2.6,4.8-4.9,6.5c0.8-0.1,1.5-0.2,2.5-0.4c-1,1.2-1.9,2.3-2.8,3.4c0,0.1,0.1,0.2,0.1,0.2c0.5-0.1,0.9,0,1.4-0.2 c3.3-1.1,6.7-2.2,10-3.3c0.2-0.1,0.5-0.1,0.7-0.1C96.7,39.6,96.7,39.8,96.7,40z"></path> <path style="fill:#FFFFFF;" d="M49.3,12c0.5,0.4,1.1,0.8,0.7,1.6c-0.1,0.1,0.2,0.5,0.4,0.6c1.4,1.1,2.9,2.1,4.4,3.1 c0.3,0.2,0.9,0.2,1.2,0c0.8-0.5,1.9-0.7,2.2-1.8c0-0.1,0.5-0.2,0.7-0.2c0.2,0.1,0.4,0.5,0.4,0.7c-0.1,1.5,0.6,2.1,2,1.6 c0.4-0.2,0.9-0.3,1.3-0.5c0.7-0.2,1.4-0.4,1.4-1.3c0-0.2,0.5-0.6,0.8-0.6c0.3,0,0.8,0.3,0.9,0.5c0.1,0.3,0,0.9-0.1,1 c-1.4,0.6-1.1,2-1.4,3.1c-0.5,1.8-0.8,3.7-1.2,5.6c-0.1,0.3-0.4,0.6-0.7,1c0.5,1.2,0,2-1.6,2.2c-5.6,0.9-11.2,0.8-16.9,0.7 c-2,0-4.1-0.3-6.1-0.6c-1.2-0.2-2.3-0.4-2.1-2.2c0.1-0.9-0.6-1.8-0.9-2.8c-0.4-1.7-0.8-3.4-1.2-5.1c-0.1-0.4-0.5-0.7-0.8-1.1 c-0.2-0.4-0.5-0.8-0.5-1.2c0-0.3,0.4-0.6,0.7-0.9c0.4,0.3,0.8,0.7,1.3,1c0.2,0.2,0.4,0.6,0.7,0.7c0.9,0.3,1.8,0.6,2.6,0.8 c0.5,0.1,1.2-0.9,1.2-1.6c0-0.3,0.2-0.6,0.3-1c0.3,0.2,0.6,0.3,0.9,0.5c0.9,0.7,1.9,1.4,2.8,2c1.7-1.2,3.2-2.4,4.8-3.6 c0.2-0.2,0.5-0.5,0.4-0.7c-0.2-0.7,0.2-1.2,0.6-1.7C48.8,12,49,12,49.3,12z M46.4,20.1C47.2,21,48,22,49,23.2c0.9-1,1.8-2,2.7-3 c-0.9-1.1-1.7-2.2-2.5-3.3C48.2,17.9,47.3,19,46.4,20.1z"></path> <path style="fill:#FFFFFF;" d="M18.2,52.7c0-1.6,0.1-3.2,0-4.8c-0.1-1,0.4-1.5,1.3-1.5c1.5-0.1,2.9-0.1,4.4,0.1c2,0.3,3.5,2,3.5,3.8 c0,2.2-1.5,4-3.6,4.3c-0.8,0.1-1.6,0.1-2.4,0.1c-0.5,0-0.7,0.1-0.7,0.8c0.1,0.8,0,1.5,0,2.3c0,1.1-0.4,1.6-1.3,1.5s-1.2-0.7-1.2-1.5 C18.2,56.1,18.2,54.4,18.2,52.7z M20.8,48.8c0,0.4,0,0.6,0,0.9c-0.1,2.9-0.5,2.3,2.4,2.4c1,0,1.6-0.7,1.7-1.7s-0.6-1.4-1.5-1.5 C22.5,48.8,21.7,48.8,20.8,48.8z"></path> <path style="fill:#FFFFFF;" d="M61.2,42.2c-1.9,1.2-3.7,1-4.8-0.5c-1.2-1.5-1.1-4.5,0.2-5.8c1.2-1.2,3.1-1.4,4.3-0.6 c0.8-0.2,1.3-0.5,1.8-0.4c0.3,0.1,0.6,0.8,0.6,1.2c0,2.3,0,4.7-0.1,7c-0.1,1.2-0.9,2.1-2,2.5c-1.5,0.6-3,0.4-4.4-0.3 c-0.4-0.2-0.8-0.9-0.7-1.2c0.2-0.7,0.8-0.6,1.4-0.3c0.6,0.3,1.3,0.4,2,0.4C60.7,44.2,61.3,43.6,61.2,42.2z M57.7,38.8 c0,0.2-0.1,0.5,0,0.7c0.2,0.8,0.6,1.6,1.5,1.6c1,0.1,1.5-0.6,1.8-1.4c0.1-0.2,0.1-0.4,0.1-0.6c0.2-1.2-0.5-2.2-1.5-2.3 C58.6,36.6,57.7,37.6,57.7,38.8z"></path> <path style="fill:#FFFFFF;" d="M57.9,55c0.6,2.3,2.5,2.8,3.9,1.7c0.5-0.4,1.3-0.7,1.8-0.1s0.1,1.2-0.4,1.7c-1.3,1.2-2.8,1.5-4.4,1 c-1.8-0.5-2.7-1.8-3-3.5c-0.1-1,0-2,0.1-3c0.2-1.6,1.5-2.5,2.9-2.9c1.7-0.4,3.4,0,4.4,1.5c0.5,0.7,0.5,1.8,0.5,2.7 c0,0.6-0.6,0.9-1.2,0.8C60.9,54.9,59.5,55,57.9,55z M61.2,53.5c0.1-1.2-0.4-1.7-1.4-1.7c-1.1,0-1.6,0.6-1.5,1.7 C59.2,53.5,60.2,53.5,61.2,53.5z"></path> <path style="fill:#FFFFFF;" d="M26.4,43.2c-0.8-0.3-1.7-0.5-2.4-0.8c-0.7-0.3-1.1-1-0.7-1.7c0.4-0.8,1.1-0.5,1.8-0.3 c0.5,0.2,1.1,0.4,1.7,0.3c0.3,0,0.8-0.5,0.9-0.8s-0.2-0.9-0.5-1.1c-0.6-0.5-1.3-0.7-2-1.1c-1.2-0.7-2-1.6-1.9-3.1 c0.1-1.3,0.8-2.1,2-2.6c1.4-0.5,2.7-0.3,3.8,0.6c0.6,0.4,0.7,1,0.3,1.6c-0.4,0.6-1,0.7-1.6,0.3c-0.3-0.2-0.8-0.4-1.1-0.4 c-0.3,0-0.9,0.3-0.9,0.4c0,0.4,0.2,0.9,0.4,1c0.6,0.4,1.4,0.7,2,1.1c1.7,0.9,2.4,2.2,2,3.5C29.7,42,28.4,43,26.4,43.2z"></path> <path style="fill:#FFFFFF;" d="M41.6,50.8c0.3-0.2,0.6-0.3,0.9-0.5c1.7-0.9,3.8,0.2,3.9,2.1c0.1,1.9,0,3.8,0,5.7 c0,0.8-0.4,1.2-1.2,1.2s-1.1-0.5-1.2-1.2c0-1,0-1.9,0-2.9c0-0.8-0.1-1.5-0.2-2.3c-0.1-0.8-0.6-1-1.3-1c-0.8,0-1.2,0.5-1.2,1.2 c-0.1,1.5,0,3,0,4.5c0,0.8-0.1,1.6-1.1,1.6S39,58.4,39,57.6c0-2.2,0-4.5,0-6.7c0-0.9,1-1.3,1.9-0.9C41.1,50.3,41.3,50.5,41.6,50.8z"></path> <path style="fill:#FFFFFF;" d="M75.3,52.3c0.4,0.3,0.7,0.7,1.1,1c0.8,0.5,1.6,0.8,2.4,1.3c1.6,0.9,1.8,2.9,0.3,4.1 c-1.4,1.2-4.5,1.2-5.8-0.2c-0.3-0.3-0.5-0.9-0.4-1.3c0.1-0.3,0.7-0.5,1.1-0.5s0.8,0.2,1.2,0.4c0.4,0.1,0.8,0.4,1.3,0.4 c0.3,0,0.9-0.2,0.9-0.4c0.1-0.3-0.1-0.9-0.4-1c-0.8-0.6-1.7-1-2.6-1.5c-1.1-0.6-1.6-1.5-1.4-2.7c0.2-1.1,1.1-1.8,2-2 c1.2-0.2,2.5,0,3.7,0.2c0.6,0.1,1.2,0.6,0.9,1.4c-0.3,0.7-0.8,1-1.6,0.6c-0.4-0.2-0.9-0.3-1.3-0.4c-0.5,0-1,0.1-1.4,0.2 C75.3,52,75.3,52.2,75.3,52.3z"></path> <path style="fill:#FFFFFF;" d="M68.1,49.7c1,0.2,2,0.3,3,0.7c0.3,0.1,0.6,0.9,0.5,1.1c-0.3,0.3-0.9,0.7-1.3,0.7 c-0.6,0-1.3-0.4-1.9-0.5c-0.3,0-0.6,0.3-0.9,0.4c0.2,0.3,0.2,0.7,0.5,0.8c1,0.6,2.1,1.2,3.1,1.8c1.5,1,1.4,2.9,0,4 c-1.5,1.2-4.3,1.1-5.6-0.2c-0.3-0.3-0.6-1-0.4-1.4c0.1-0.3,0.8-0.5,1.3-0.5c0.3,0,0.7,0.2,1.1,0.4c0.4,0.1,0.7,0.4,1.1,0.4 s0.7-0.3,1-0.4c-0.1-0.3-0.2-0.8-0.5-1c-0.8-0.6-1.8-1-2.7-1.6c-1.1-0.8-1.5-1.9-1.2-2.8c0.3-1,1.3-1.6,2.7-1.6c0.1,0,0.2,0,0.3,0 C68,49.9,68,49.8,68.1,49.7z"></path> <path style="fill:#FFFFFF;" d="M66.3,35.5c0.4-0.2,0.6-0.3,0.8-0.4c1.7-0.9,3.4,0.2,3.5,2.1c0,1.5,0,3,0,4.5c0,0.7-0.2,1.3-1,1.3 s-1.1-0.5-1.1-1.3c0-1.2,0-2.4,0-3.6c0-0.7-0.3-1.4-1.1-1.3c-0.8,0-1,0.6-1,1.4c0,1.2,0,2.4,0,3.6c0,0.7-0.3,1.2-1.1,1.3 c-0.8,0-1.1-0.5-1.1-1.2c0-3,0-6,0-9c0-0.7,0.3-1.1,1-1.1c0.7,0,1.2,0.4,1.1,1.2C66.3,33.6,66.3,34.4,66.3,35.5z"></path> <path style="fill:#FFFFFF;" d="M39.8,35.3c0.6-0.2,1-0.4,1.4-0.5c0.6-0.1,1,0.2,1,0.9c0,2,0,4,0,6.1c0,0.4-0.5,1-0.9,1.2 c-0.3,0.1-0.8-0.4-1.3-0.7c-1.6,1.1-2.9,1.1-4.3-0.4c-1.3-1.4-1.5-4.4-0.4-5.8S38.3,34.4,39.8,35.3z M36.6,39c0,1.1,0.6,2,1.4,2.2 c0.8,0.1,1.6-0.4,1.9-1.3c0.1-0.2,0.1-0.5,0.2-0.7c0.2-1.2-0.5-2.3-1.5-2.4C37.4,36.7,36.6,37.7,36.6,39z"></path> <path style="fill:#FFFFFF;" d="M52.1,49.7c0.8,0.2,1.5,0.4,2.2,0.7c0.3,0.2,0.5,0.8,0.4,1.1c-0.1,0.6-0.6,1-1.3,0.9 c-0.2,0-0.5-0.1-0.7-0.2c-1.1-0.3-1.9,0-2.5,1c-0.6,0.9-0.3,2.4,0.5,3.3c0.8,0.8,1.6,0.7,2.6,0.4c0.4-0.2,1.2,0,1.4,0.3 s0.1,1.1-0.2,1.4c-1.1,1.3-3.6,1.3-5.1,0c-1.2-1.1-1.8-2.4-1.8-4.1c0-1.9,0.6-3.2,2.2-4.1C50.5,50,51.3,49.9,52.1,49.7z"></path> <path style="fill:#FFFFFF;" d="M30.3,50.6c0.7-0.2,1.6-0.6,2.4-0.7c0.6-0.1,1.3,0.4,1.2,1.1c-0.1,0.8-0.5,1.1-1.3,1.2 c-2.2,0-2.4,0.3-2.3,2.5c0,1.1,0,2.2,0,3.3c0,0.7-0.4,1.1-1.1,1.2c-0.7,0-1.1-0.4-1.1-1.1c0-1.8,0-3.7-0.1-5.5c0-0.5,0-0.9,0-1.4 c-0.1-0.7,0.1-1.3,0.8-1.3C29.3,50,29.8,50.4,30.3,50.6z"></path> <path style="fill:#FFFFFF;" d="M51.3,37.1c0,1.5,0,3,0,4.5c0,0.7-0.2,1.3-1,1.3c-0.9,0.1-1.2-0.5-1.2-1.2c0-3,0-6.1,0-9.1 c0-0.7,0.4-1.2,1.2-1.1c0.8,0,1.1,0.5,1,1.2C51.3,34.2,51.3,35.7,51.3,37.1z"></path> <path style="fill:#FFFFFF;" d="M45.6,35.2c0.4-0.1,1.1-0.4,1.7-0.5c0.6,0,1.2,0.3,1.2,1c0,0.8-0.5,1.2-1.3,1.2c-1.7,0-1.7,0-1.7,1.8 c0,1,0,1.9,0,2.9c0,0.7-0.3,1.3-1.1,1.3c-0.9,0-1-0.6-1-1.4c0-1.8,0-3.6,0-5.4c0-0.4,0.2-1.1,0.5-1.2C44.3,34.8,44.8,35,45.6,35.2z"></path> <path style="fill:#FFFFFF;" d="M31.1,39.4c0-0.6,0-1.1,0-1.7c0-0.5,0.1-1.1-0.6-1.4c-0.2-0.1-0.1-0.9,0.1-1.3 c0.1-0.3,0.3-0.7,0.5-0.9c0.3-0.3,0.7-0.7,1.1-0.8c0.5-0.1,1,0.2,1.1,0.9c0,0.3,0.3,0.6,0.5,0.8c0.6,0.5,0.7,1.1,0,1.4 c-0.6,0.3-0.6,0.7-0.6,1.2c0,1.3,0,2.6,0,4c0,0.8-0.2,1.3-1.1,1.4c-0.8,0-1.1-0.5-1.1-1.3C31.1,40.9,31.1,40.1,31.1,39.4z"></path> <path style="fill:#FFFFFF;" d="M71.9,39.5c0-0.6,0-1.2,0-1.8c0-0.5,0.2-1.1-0.6-1.4c-0.2-0.1-0.4-0.5-0.3-0.7 c0.4-0.8,0.8-1.7,1.5-2.3c0.6-0.6,1.5,0,1.7,0.8c0.1,0.3,0.2,0.6,0.4,0.7c0.7,0.5,0.7,1,0.1,1.6c-0.3,0.2-0.5,0.6-0.5,1 c-0.1,1.5-0.1,3-0.1,4.4c0,0.7-0.3,1.1-1,1.1S72,42.5,72,41.8C72,41,72,40.3,71.9,39.5C72,39.5,72,39.5,71.9,39.5z"></path> <path style="fill:#FFFFFF;" d="M37.4,54.6c0,1.1,0,2.2,0,3.3c0,0.8-0.3,1.3-1.2,1.3c-0.8,0-1.2-0.5-1.2-1.3c0-2.3,0-4.7,0-7 c0-0.8,0.5-0.9,1.1-1c0.7,0,1.2,0.3,1.3,1.1C37.4,52.3,37.4,53.5,37.4,54.6z"></path> <path style="fill:#FFFFFF;" d="M52.7,38.8c0-1,0-1.9,0-2.9c0-0.8,0.4-1,1.1-1c0.7,0,1,0.3,1,1c0,2,0,4,0,6c0,0.7-0.4,1.2-1,1 c-0.4-0.1-1-0.6-1.1-1C52.6,40.9,52.7,39.8,52.7,38.8L52.7,38.8z"></path> <path style="fill:#FFFFFF;" d="M52.4,34.7c0.2-1.1,0-2-0.7-2.4c0.8-0.5,1.5-1,2.2-1.5c0.4,0.6,0.8,1.6,2.3,0.9 c-0.7,1.1-1.9,1.6-0.9,3C54.2,34.2,53.3,33.7,52.4,34.7z"></path> <path style="fill:#FFFFFF;" d="M37.6,47.4c-0.1,0.8-0.5,1.4-1.3,1.4s-1.3-0.4-1.4-1.2c0-0.8,0.5-1.4,1.3-1.4 C37,46.2,37.4,46.7,37.6,47.4z"></path> <path style="fill:#FFFFFF;" d="M65.9,89.7c-1,0-1.9,0-2.9,0c-2.7-1.8-3.2-4.6-3.5-7.5c-0.5,0.5-0.8,0.9-1.1,1.4 c-1.1,1.9-2.2,3.7-4.1,4.9c-0.9,0.6-2.1,0.8-3.2,1.3c-0.1,0-0.1,0-0.2,0c-0.7-0.2-1.5-0.4-2.1-0.8c-1.2-0.9-1.8-2.1-2-3.6 c-0.2-1.1-0.4-2.2-0.6-3.5c-0.3,0.4-0.5,0.5-0.6,0.7c-0.7,1.2-1.4,2.3-2.2,3.5c-1.1,1.6-2.5,2.8-4.3,3.7c-0.9,0-1.8,0-2.7,0 c-1.5-1.1-2.6-2.5-3-4.4c-0.6-2.8-0.2-5.5,0.7-8.1c1.1-3.2,2.3-6.2,5.4-8.2c2.7-1.8,6.8-1.6,7.5,2.3c0.3,1.6,0.4,3.1,0.6,4.5 c0.5-0.8,1-1.8,1.5-2.7c1.1-2,2.6-3.7,4.8-4.7c2.6-1.2,5.1-0.2,5.9,1.5c0.5,1.1,0.7,2.4,0.9,3.6c0.1,0.8,0,1.7,0,2.6 c0.5-0.6,0.9-1.1,1.2-1.7c1-1.9,2.1-3.8,3.9-5.1c1.4-1.1,3-1.6,4.9-1.3c2,0.4,3.1,2.6,3.3,4.8c0.3,3.6-0.4,7.1-2.1,10.4 C70.7,85.9,68.8,88.2,65.9,89.7z M70.5,77.6c-0.1-0.5-0.1-1-0.2-1.5c-0.2-1.8-2.2-1.8-3.1-0.9c-2.1,2.3-3.3,5.1-3,8.2 c0.1,1.6,0.6,1.9,2.3,1.8c1.2-0.1,1.6-0.9,2.2-1.8C69.9,81.7,70.3,79.8,70.5,77.6z M57.2,77.5c-0.1-0.4,0-0.9-0.2-1.3 c-0.3-0.6-0.5-1.3-1-1.6c-0.9-0.4-1.7,0-2.3,0.7C51.8,77.6,50.7,80,51,83c0.1,1.4,0.4,2,1.5,2.2c0.8,0.1,1.5-0.2,2.1-0.9 C56.4,82.4,56.9,80,57.2,77.5z M43.8,77.7c-0.1-0.5-0.1-1.2-0.3-1.9c-0.4-1.4-1.5-1.7-2.6-0.8c-2.6,2.3-3.5,5.3-3.1,8.6 c0.2,1.6,1.8,2.2,3.2,1.3c0.3-0.2,0.3-0.6,0.6-0.9C43.2,82.3,43.6,80.1,43.8,77.7z"></path> <path style="fill:#FFFFFF;" d="M27.1,89.2c0.1-1.2,0.2-2.5,0.2-3.7c0-0.8,0.2-1.6,0.3-2.5c0.1-0.6,0.2-1.2,0.3-1.8 c0.3-1.4,0.6-2.8,0.8-4.2c0.1-0.5-0.1-1-0.2-1.7c-0.7,0.1-1.4,0.2-2,0.3c-0.6,0.1-1-0.1-0.9-0.7c0.1-1.3,0.3-2.6,0.4-3.9 c0.1-0.5,0.3-0.8,0.9-0.9c2.3-0.4,4.6-0.9,6.9-1.3c0.1,0,0.3,0,0.5,0c-0.4,2.2-0.5,4.5-1.1,6.5c-1.2,3.7-1.2,7.6-1.8,11.3 c-0.2,1.4-0.9,2-2.9,2.2C28.2,89,27.7,89.1,27.1,89.2z"></path> </svg> 