<?xml version="1.0" encoding="UTF-8"?> <svg xmlns="http://www.w3.org/2000/svg" xmlns:xlink="http://www.w3.org/1999/xlink" version="1.1" id="Layer_1" x="0px" y="0px" viewBox="0 0 100 100" style="enable-background:new 0 0 100 100;" xml:space="preserve"> <g> <g> <path style="fill:#FFFFFF;" d="M33.3,52.4c-0.7,1-1.2,0-1.2,0l-1.7-4.2h-3.6l4.6,8.8l0.2,8.8l2.8-2.1V57l4.3-8.8h-3.4L33.3,52.4z"></path> <path style="fill:#FFFFFF;" d="M22.1,60.1v-12h-2.9v15.3h7.7l0.8-2.5h-4.6C22,61.2,22.1,60.1,22.1,60.1z"></path> <path style="fill:#FFFFFF;" d="M6.5,48.2C1.6,50.4,3.7,57,3.7,57s3.9,11,9.7,5.7s3.2-11.9,3.2-11.9C14.5,46.2,6.5,48.2,6.5,48.2z M12.9,58.6c0,0-3.4,6.2-5.6-1S9,50.5,9,50.5C16.8,48.9,12.9,58.6,12.9,58.6z"></path> <path style="fill:#FFFFFF;" d="M49.2,52.6c-0.2,0.7-0.9,0-0.9,0l-3.1-4.4h-3.4v15.3H45V54c0.6-1.1,1.1-0.1,1.1-0.1l2.7,3.4 l2.7-3.6c1.2-0.9,1.4,0.3,1.4,0.3v9.4H56V48.2h-3.2L49.2,52.6z"></path> <path style="fill:#FFFFFF;" d="M67.7,48.2h-8.1L59,50.5h6.9c4.8,2-1.9,5.7-1.9,5.7c-1,1-1.2-0.4-1.2-0.4v-3.7h-3.2v11.4H63v-3.7 l1.3-0.6c0,0,5.7-1.7,6.6-6.1C71.7,48.7,67.7,48.2,67.7,48.2z"></path> <path style="fill:#FFFFFF;" d="M81.8,59.5c0,0,0.1,1.3-0.6,1.4c0,0-10.2,1.6-2.5-12.8h-3.4c0,0-6.2,10,0.4,14.7c0,0,2,0.8,5,0.7 h4.2V48.2h-3L81.8,59.5L81.8,59.5z"></path> <path style="fill:#FFFFFF;" d="M95.9,57.8l-4.5-5c0,0-1.5-1.9,1.1-2.1h3.7l-0.8-2.5H90c0,0-4.1,0.5-2,5.2l4,4.8c0,0,3.1,2.8-2,2.7 h-2.6l1,2.7h5.7C94.1,63.5,98.5,62.6,95.9,57.8z"></path> </g> <g> <path style="fill:#FFFFFF;" d="M64.3,37L64.3,37C62,38.1,63,41.2,63,41.2s1.9,5.3,4.6,2.7c2.6-2.4,1.6-5.4,1.5-5.7l0,0 C68.2,36.2,64.7,36.9,64.3,37z M67.4,41.9C67.4,41.9,67.4,42,67.4,41.9c-0.2,0.3-1.7,2.8-2.7-0.4c-1-3.4,0.8-3.4,0.8-3.4 C69,37.4,67.5,41.6,67.4,41.9z"></path> <path style="fill:#FFFFFF;" d="M33.8,43.9v-5.8c0-0.2-0.1-0.3-0.3-0.3h-2.2c-0.2,0-0.3,0.1-0.3,0.3v0.6c0,0.2,0.2,0.3,0.3,0.3 c0.4,0,1,0.1,0.9,0.8v1.9c0,0,0,0,0,0.1c0,0.2,0.2,1.4-1.6,0.9l0,0c-0.3-0.1-4.5-2.1-2.3-6.5c0,0,0-0.1,0.1-0.1 c0.2-0.2,0.8-0.7,2.2-0.5l0,0h2.7c0.2,0,0.4-0.2,0.3-0.4l-0.3-0.7c0-0.1-0.2-0.2-0.3-0.2h-4.3h-0.1c-0.5,0.2-5.7,1.9-0.8,8.3 c0,0,1.1,1.8,5.7,1.6C33.6,44.2,33.8,44.1,33.8,43.9z"></path> <path style="fill:#FFFFFF;" d="M41.4,44v-6.5c0-0.2-0.1-0.3-0.3-0.3h-3.4l0,0c-2.9,0.3-2.5,2.7-2.5,2.7c0.4,4.8,4.8,4.6,6,4.5 C41.3,44.3,41.4,44.2,41.4,44z M37.9,38.9h1c0.2,0,0.3,0.1,0.3,0.3v2.7c0,0.2-0.2,0.4-0.4,0.3c-0.7-0.2-2.1-0.9-1.2-3.1 C37.7,39,37.8,38.9,37.9,38.9z"></path> <path style="fill:#FFFFFF;" d="M45.9,44.1l0.2-0.5c0.1-0.2-0.1-0.4-0.3-0.4c-0.5,0-1.2-0.3-1.1-1.7l0,0v-2.8 c0-0.1,0.1-0.2,0.1-0.3l0.2-0.2c0.1,0,0.1-0.1,0.2-0.1h0.6c0.2,0,0.3-0.1,0.3-0.3v-0.4c0-0.2-0.1-0.3-0.3-0.3h-0.4 c-0.1,0-0.2,0-0.2-0.1l-0.4-0.4c-0.1-0.1-0.1-0.1-0.1-0.2v-1.3c0-0.2-0.2-0.4-0.4-0.3l-0.9,0.4c-0.1,0-0.2,0.2-0.2,0.3v1.2 c0,0.1-0.1,0.3-0.2,0.3l0,0c-0.1,0-0.2,0.2-0.2,0.3V38c0,0.1,0.1,0.2,0.2,0.3l0.1,0.1c0.1,0.1,0.2,0.2,0.2,0.3v4.1 c0,0-0.1,1.8,2.4,1.5C45.8,44.3,45.9,44.2,45.9,44.1z"></path> <path style="fill:#FFFFFF;" d="M52.9,44.1l0.2-0.5c0.1-0.2-0.1-0.4-0.3-0.4c-0.8,0.1-2.3,0-1.9-1c0-0.1,0.1-0.1,0.2-0.2 c0.6-0.3,3.9-2.1,2.3-4.5c0-0.1-0.1-0.1-0.1-0.1c-0.3-0.1-1.4-0.5-3.6-0.2c0,0,0,0-0.1,0c-0.3,0-2.9,0-1.6,4.7l0,0 c0.1,0.2,1.2,2.9,4.7,2.4C52.8,44.3,52.9,44.2,52.9,44.1z M51.4,39.1c0,1.1-0.8,1.4-1.2,1.5c-0.2,0-0.3-0.1-0.3-0.3 c-0.2-1.7,0.9-1.6,1.4-1.5C51.3,38.9,51.4,39,51.4,39.1z"></path> <path style="fill:#FFFFFF;" d="M57.7,38.2h0.7c0.2,0,0.4-0.2,0.3-0.4l-0.1-0.4c0-0.1-0.2-0.2-0.3-0.2h-1.9h-0.1 c-0.3,0.1-1.6,0.7-0.8,2.4c0,0,0,0,0,0.1l1.8,2.2V42c0.1,0.2,0.5,1.4-1.7,1.3c-0.2,0-0.4,0.2-0.3,0.4l0.2,0.5 c0,0.1,0.1,0.2,0.2,0.2c0.6,0.1,2.8,0.4,3.4-1.3c0,0,0.5-0.9-1.3-2.7l0,0c-0.2-0.1-1.6-1.3-0.4-2.1C57.6,38.2,57.6,38.2,57.7,38.2 z"></path> <path style="fill:#FFFFFF;" d="M72.3,44.3c0.2,0,0.3-0.1,0.3-0.3v-5.2c0,0-0.1-0.6,0.7-0.6H74c0.2,0,0.3-0.1,0.3-0.3v-0.4 c0-0.2-0.1-0.3-0.3-0.3h-0.8c-0.1,0-0.2-0.1-0.3-0.2c-0.1-0.3-0.3-0.9,0.1-1.3c0.1-0.1,0.1-0.1,0.2-0.1H74c0.2,0,0.4-0.2,0.3-0.4 l-0.2-0.6c0-0.1-0.2-0.2-0.3-0.2h-1.3c0,0-1.5-0.2-1.3,2.4c0,0.1-0.1,0.3-0.2,0.3l-0.2,0.1c-0.1,0-0.2,0.2-0.2,0.3v0.7 c0,0.1,0.1,0.2,0.1,0.3l0.3,0.2c0.1,0.1,0.1,0.2,0.1,0.3v5c0,0.2,0.1,0.3,0.3,0.3H72.3z"></path> </g> </g> </svg> 