<?xml version="1.0" encoding="UTF-8"?> <svg xmlns="http://www.w3.org/2000/svg" xmlns:xlink="http://www.w3.org/1999/xlink" version="1.1" id="Layer_1" x="0px" y="0px" viewBox="0 0 1000 1000" style="enable-background:new 0 0 1000 1000;" xml:space="preserve"> <path style="fill:#FFFFFF;" d="M969.1,506.6c-7.1,0-14.3,0-21.6,0c1.7,13.7,3.3,26.9,5,40.1c1.7,13,3.8,26,5.3,39.1 c0.2,1.8-1.4,4.4-3,5.7c-12.7,10.7-25.5,21.2-38.3,31.7c-2.3,1.9-4.6,3.7-8.3,6.6c-5.5-44.6-10.8-87.6-16.1-131.2 c-42.7,0-85.2,0-127.9,0c25.7-53.2,51.1-105.9,76.9-159.3c12.8,0,26.1,0,40.9,0c-15.6,41.3-30.8,81.6-46.1,122.1 c18.7,0,37.8,0,57.4,0c-1.9-13.6-3.8-27.1-5.7-40.7c15.3,0,29.7,0,45,0c1.7,14.7,3.4,29.4,5,43.7c8.4,0,16.2,0,24.9,0 c0.7,4.8,1.5,10.6,2.5,16.4c1.3,7.9,2.7,15.8,4,23.7C969.1,505.2,969.1,505.9,969.1,506.6z"></path> <path style="fill:#FFFFFF;" d="M308.7,547.4c5.5,6.5,10.8,12.8,16.2,18.9c1.9,2.2,2.8,4,2.2,7.1c-0.7,3.4-0.3,7-0.2,10.5 c0.1,2.7-0.8,4-3.7,4c-11.1-0.1-22.2,0.1-33.3-0.1c-1.7,0-3.7-1.5-4.9-2.9c-9-10.7-17.9-21.7-26.9-32.4c-1.2-1.4-3.6-2.4-5.4-2.6 c-5.4-0.3-10.8,0-16.1-0.2c-3.1-0.1-4.4,0.8-4.6,4.2c-0.8,10.9-1.9,21.9-3,33.1c-14.2,0-28.1,0-42,0c2.2-21.7,4.4-43,6.5-64.4 c1.8-18.4,3.7-36.8,5.1-55.3c0.4-5.8,3.6-4.2,7.1-4.2c16.1,0.2,32.2,0.2,48.3,0.1c14.3-0.1,28.5-0.5,42.8-0.7 c12.9-0.2,24.5,2.8,31.4,14.9c2.8,4.8,3,10,2.5,16c-0.4,5.1-1.6,10.4-0.6,16.1C333,526.8,325.6,538.8,308.7,547.4z M237,499.7 c-0.3,4-0.7,7.7-1,11.6c18,0,35.2,0,52.8,0c-0.5-4.1-1-7.8-1.5-11.6C270.5,499.7,254.1,499.7,237,499.7z"></path> <path style="fill:#FFFFFF;" d="M571.1,462.4c12.3,0,23.8-0.1,35.4,0.2c1.8,0,3.7,1.9,5.2,3.4c17.1,17.5,34,35.1,51,52.7 c1.2,1.2,2.3,2.4,4.6,4.8c-1.1-21-2-40.7-3-60.7c13.5,0,26.8,0,40.5,0c2.7,41.4,5.5,82.7,8.3,124.8c-2.9,0-5.5,0-8.1,0 c-4.4,0-8.9-0.6-13.1,0.1c-13.2,2.3-22.1-3.3-30.5-13.2c-12.8-15.1-27.1-28.8-40.7-43.3c-2-2.1-3.5-4.7-5.9-8 c-0.8,2.1-1.9,3.7-1.9,5.3c0.5,16,1.2,32,2,47.9c0.2,3.3,0.7,6.6,1,10.2c-14.2,0-28.1,0-42.1,0C572.9,545.4,572,504.3,571.1,462.4z"></path> <path style="fill:#FFFFFF;" d="M66.9,337.5c9.7,0,19.4-0.7,28.8,0.4c3.9,0.4,7.8,4.4,10.9,7.5c5.2,5.3,9.7,11.3,14.6,16.9 c3.3,3.7,6.8,7.3,10.5,11.3c8.3-7.8,16.2-15.1,24-22.4c5-4.7,10.1-9.4,15.2-14c0.4-0.4,1.2-0.5,1.9-0.6c11.4,0,22.8,0,34.6,0 c-3.9,38.4-7.7,76.3-11.6,114.4c-13.4,0-26.5,0-40,0c2.2-19.3,4.4-38.3,6.8-58.7c-13.1,12.3-25.3,23.6-37.7,35.2 c-9.4-11.3-18.8-22.5-28.9-34.7c-1.9,14.3-3.6,27.4-5.3,40.5c-0.7,5.1-1.2,10.2-2.2,15.2c-0.2,1.1-2.1,2.6-3.3,2.6 C73.1,451.1,61,451,48.3,451C54.5,413.2,60.6,375.6,66.9,337.5z"></path> <path style="fill:#FFFFFF;" d="M280.1,451.2c-11.4,0-22.9,0.1-34.3,0c-9-0.1-17.3-2.6-23.4-9.5c-5.1-5.7-7.2-12.3-5.9-20.3 c1.4-8.5,1.6-17.1,2.3-25.7c1-11.6,1.6-23.3,3.4-34.9c1.7-11.6,9.9-18.2,20.5-22c3.7-1.3,7.8-2.2,11.7-2.2 c22.9-0.1,45.7-0.1,68.6,0.2c9.5,0.1,26.3,8.7,27.4,19c0.7,6.9,0.5,14,0.5,20.9c0,2.1-0.6,4.3-0.7,6.4c-0.7,14-0.8,28-2.2,41.9 c-1.3,12.7-11.7,22.8-26,25.1c-6.9,1.1-14,0.8-21.1,1C293.9,451.3,287,451.1,280.1,451.2z M260.4,369.8c-0.4,4.9-0.8,9-1.1,13.2 c-0.7,9.4-0.9,19-2.3,28.3c-0.8,5,0.8,5.9,5,5.8c13.8-0.2,27.6-0.2,41.5-0.4c3.5,0,5.3-1.4,5.4-5.4c0.3-10.6,1.3-21.2,1.9-31.9 c0.6-9.6,0.5-9.6-9.5-9.6C287.8,369.8,274.4,369.8,260.4,369.8z"></path> <path style="fill:#FFFFFF;" d="M497.1,336.8c0,38.1,0,75.9,0,114.4c-6.3,0-13-0.5-19.6,0.1c-11.2,1.1-19.6-1.5-27.3-11 c-13.2-16.3-28.4-31.1-43.7-47.6c-0.8,20-1.5,38.8-2.2,58c-13.3,0-26.3,0-39.7,0c1.7-38,3.4-75.8,5.1-114.3c8.6,0,17.4,0.5,26-0.2 c6.7-0.5,11.5,1.6,15.8,6.6c8.6,9.8,17.8,19.1,26.7,28.8c6.2,6.8,12.2,13.8,18.3,20.7c0.7-0.3,1.3-0.6,2-0.9c0-18.1,0-36.2,0-54.6 C472,336.8,484.5,336.8,497.1,336.8z"></path> <path style="fill:#FFFFFF;" d="M435.7,462.4c22.6,41.2,45.4,82.7,68.2,124.3c-35.3,0-71,0-107.2,0c4.8-8.4,10-16.4,14.1-24.8 c2.8-5.8,6.4-7.7,12.7-7.2c7.3,0.7,14.7,0.2,23.4,0.2c-1.5-3-2.6-5.3-3.7-7.5c-5.3-9.9-10.6-19.8-16.1-29.6c-2.3-4.1-5.6-4-8,0 c-12.6,21.4-25.2,42.7-37.6,64.2c-2.2,3.8-4.4,5.4-8.9,5.3c-12.7-0.4-25.4-0.1-38.9-0.1c7.5-12.5,14.6-24.2,21.7-36 c17.1-28.4,34.3-56.8,51.4-85.2c1.4-2.3,2.8-3.6,5.9-3.5C420.1,462.7,427.5,462.4,435.7,462.4z"></path> <path style="fill:#FFFFFF;" d="M177.5,499.7c-16,0-31.3,0-47,0c-1.1,9.1-2.4,17.9-3.4,26.8c-2.1,18.9-4,37.8-6.3,56.6 c-0.2,1.5-2.3,3.9-3.6,4c-12.6,0.4-25.2,0.3-37.8,0.3c-0.5,0-0.9-0.4-1.5-0.7c4-28.9,7.9-57.8,12-87.5c-16,0-31.5,0-47.2,0 c1.6-11.7,3.1-22.7,4.8-33.6c0.2-1,1.7-2.5,2.6-2.5c16.8-0.4,33.6-0.8,50.4-0.8c25.8-0.1,51.6,0,77.5,0.2c1.2,0,3.6,2.2,3.5,3.2 C180.3,477,178.9,488.1,177.5,499.7z"></path> <path style="fill:#FFFFFF;" d="M726.3,371.5c8.8-10.5,17.5-20.8,26.1-31.3c2.1-2.5,4.1-3.8,7.5-3.8c13.9,0.2,27.9,0.1,42.9,0.1 c-4.5,6.1-8.6,11.6-12.7,17c-13.2,17.3-26.5,34.5-39.7,51.8c-1.1,1.4-1.6,3.7-1.5,5.5c0.9,12.1,2,24.2,3,36.2c0.1,1.3,0,2.6,0,4.2 c-13.5,0-26.8,0-40.5,0c-0.6-8.9-1.2-17.7-1.8-26.5c-0.3-5.2-0.5-10.4-1.1-15.5c-0.2-1.4-1.3-2.9-2.3-4.1 c-19.3-21.4-38.7-42.7-58-64.1c-1.1-1.2-2-2.5-3.7-4.6c10.5,0,20.1,0.8,29.5-0.2c12.1-1.3,21.2,2.1,28.6,11.8 c5.3,6.9,11.9,12.8,18,19.1C722.2,368.7,724.2,369.9,726.3,371.5z"></path> <path style="fill:#FFFFFF;" d="M640,450.9c-41.8,0-82.8,0-124,0c0-22.6,0-44.9,0-67.6c30.4,0,60.8,0,91.9,0 c-3.4,6.4-6.4,12.5-9.8,18.2c-0.7,1.2-3.1,1.8-4.7,1.9c-11.1,0.1-22.2,0.1-33.3,0c-2.9,0-5.2-0.4-5.3,3.8c-0.1,7.5,0.9,9.9,5.2,9.9 c16,0,31.9-0.2,47.9-0.2c6.7,0,13.4,0.2,20.1,0.1c2.1,0,4.1-1,6.2-1.5c2.6-0.6,4.1-0.1,4.2,3C639,429.1,639.5,439.8,640,450.9z"></path> <path style="fill:#FFFFFF;" d="M555.9,586.8c-14,0-27.7,0-41.8,0c0-41.3,0-82.6,0-124.2c13.1,0,26.2,0,39.7,0 C554.5,503.8,555.2,545,555.9,586.8z"></path> <path style="fill:#FFFFFF;" d="M515.3,370.6c0-12.1,0-22.9,0-33.9c39.8,0,79.5,0,120.6,0c0,7.2-0.1,14.5,0,21.7c0,3,0.1,6,0.6,9 c0.6,3.3-0.7,4.3-3.7,4.2c-2.9-0.1-5.7,0-8.6,0c-27.9,0-55.9,0.1-83.8,0C532.1,371.5,523.9,371,515.3,370.6z"></path> </svg> 