<?xml version="1.0" encoding="UTF-8"?> <svg xmlns="http://www.w3.org/2000/svg" xmlns:xlink="http://www.w3.org/1999/xlink" version="1.1" id="Layer_1" x="0px" y="0px" viewBox="0 0 1000 1000" style="enable-background:new 0 0 1000 1000;" xml:space="preserve"> <path style="fill:#FFFFFF;" d="M80.4,516.6h34l-9.6,34c0,0,15.4,7.7,24.4-4.5c9-12.2,38.5-91.7,38.5-91.7l-4.8-5.8h52.9 c0,0-9.6,3.2-12.8,8.3c-3.2,5.1-36.6,96.1-36.6,96.1s-3.8,16.2-18.3,16.2s-83.7,0-83.7,0L80.4,516.6z"></path> <path style="fill:#FFFFFF;" d="M230.6,448.6l-4.5,10.9H321l-37.9,105.9c0,0,35.9-19.9,44.9-35.3c9-15.4,26.9-69.9,26.9-69.9h347.1 l14.8-11.5H230.6z"></path> <path style="fill:#FFFFFF;" d="M392.9,471.7l-23.7,63.5c0,0-2.6,7.1,6.4,7.1s35.9,0,35.9,0s10.9-1.9,13.5-7.1H380l19.9-51.3 C399.9,483.9,404.4,471.1,392.9,471.7z"></path> <path style="fill:#FFFFFF;" d="M458.2,471.7l-23,61c0,0-3.2,9.6,3.2,9.6s40.4,0,40.4,0s9.6-1.9,12.8-9s24.4-61.6,24.4-61.6 s-9.6-1.3-13.1,6.4c-3.5,7.7-21.5,54.5-21.5,54.5h-35.3l19.9-49.4C466,483.3,470.9,470.4,458.2,471.7z"></path> <path style="fill:#FFFFFF;" d="M535.3,471.6c0,0-5.1-3.7-10.3,9.7c-5.1,13.5-22.1,53.9-22.1,53.9s-2.3,7.1,8,7.1 c10.3,0,40.4,0,40.4,0s6.4-1.9,7.1-8.3h-44.9l22.5-53.2h39.1c0,0,6.4-4.4,8.3-9.6L535.3,471.6z"></path> <path style="fill:#FFFFFF;" d="M595.6,471.7l-25.7,66.7c0,0,4.5,9,7.1,3.8s6.4-18.6,6.4-18.6l25.7-14.8l3.2,23.1 c0,0,3.2,9.6,9.6,10.3l-5.1-36.7l32.7-21.7c0,0,4.5-9.7,3.8-12.2l-61.6,36.1l9.6-24.5C601.4,483.3,607.8,472.3,595.6,471.7z"></path> <path style="fill:#FFFFFF;" d="M660.4,471.1c0,0,9,0,10.9,0c1.9,0,19.2,23,19.2,23l18.6-23h10.3l-23.1,31.4l-16,39.8h-14.1 l15.4-36.7L660.4,471.1z"></path> <path style="fill:#FFFFFF;" d="M172.2,438.3h538.2c0,0,14.1-2.2,24.4-12.3H195.9C195.9,426,175.4,428.1,172.2,438.3z"></path> <path style="fill:#FFFFFF;" d="M758.5,426l-9.6,22.6h87.9c0,0,7.1,13.5,0,17.3h-87.9c0,0-5.8,1.3-10.3,12.8 c-4.5,11.5-15.4,46.2-15.4,46.2s-3.2,14.1,11.5,14.8c14.8,0.6,95.6,0,95.6,0l9.6-18.6h-82c0,0-12.8-22.5,5.8-29.5h89.8l18-43 c0,0,5.8-19.2-5.8-19.2C854.1,429.4,758.5,426,758.5,426z"></path> <path style="fill:#FFFFFF;" d="M292.8,468.5h-68c-7.1,0-9,4.5-9,4.5l-34,92.4l89.8-26.3l3.8-12.8c-8.3,5.8-48.1,12.8-48.1,12.8 l9.6-26.3c0,0,27.6,0,37.9,0c10.3,0,9.6-7.1,9.6-7.1s10.9-23,13.5-28.1C300.5,472.4,292.8,468.5,292.8,468.5z M250,500.6h-9.8 l9.8-23.1c7.8-5.1,9.5,0,9.5,0L250,500.6z"></path> <path style="fill:#FFFFFF;" d="M950.4,452.5h-50c7.1-14.8,0-26.4,0-26.4c-7.1-25.1-28.5-19.4-31.4-22.3c-2.9-2.9-676.8,0-676.8,0 c-52.6,0-77,88.5-77,88.5H36.7c0,0,20.7,13.4,12.4,33.4c-26.3,41.1,11.5,71.5,11.5,71.5s73.8,0,87.9,0c14.1,0,14.4-4.7,14.4-4.7 c8.4,8.9,33.7,2.6,33.7,2.6l59-25.7l-5.8,25.7c66.7,0.6,94.3-42.3,94.3-42.3c4.7,9.5,18,12.8,18,12.8s35.9,0,46.2,0 s13.4-5.1,13.4-5.1c-1.4,3.2,7.1,5.1,7.1,5.1s34,0,46.4,0c12.4,0,20.3-8.3,18.4-5.8c-1.9,2.6,7.4,5.8,7.4,5.8s27.9,0,42.1,0 c14.2,0,18.5-5.8,18.5-5.8c-0.6,3.2,10.9,5.8,10.9,5.8s10.3,0,16,0c5.8,0,7.1-13.5,7.1-13.5c1.8,11.8,21.2,13.5,21.2,13.5 s56.5,0,67.4,0s21.8-23.1,21.8-23.1c-1.3,12.8,17,23.1,17,23.1h140.8l9.1-16h30.6c18-2.6,25-28.2,25-28.2 c18.6-3.8,21.8-33.2,21.8-33.2c9.6-1.8,15.4-19.4,15.4-19.4C971.5,457,950.4,452.5,950.4,452.5z M849.6,551.3H725.2 c0,0-16-11.1-10.9-45.6c0,0-20.5,40.5-30.8,45.6c-10.3,5.1-10.9,5.1-23.1,5.1s-44.3,0-44.3,0s-20.7-9.3-18.6-25.7 c0,0-7.7,22.5-14.1,23.1c-6.4,0.6-19.2,3.2-19.2-4.5c0,0-7.1,7.1-15.4,7.1c-8.3,0-45.9,0-45.9,0s-8.7-2.6-8-7.7c0,0-3.8,9.3-9.3,9.3 c-5.5,0-55.5,0-55.5,0s-7.7-4.8-5.1-9.3c0,0-6.4,9.3-10.9,9.3s-45.2,0-45.2,0s-22.8-5.5-18.3-18l-7.1-2.9c0,0-28.2,48.1-84,49.4 l10.3-31.4l-78.9,31.4c0,0-21.8,5.6-24.4-10.9c0,0-6.4,11.8-40.4,11.8s-49.4,0-49.4,0s-28.9-4.1-23.1-32.3s20.5-31.6,3.8-49.5h65.8 l2.8-5l26.3-57.1c0,0,16-25.7,29.5-26.3c13.5-0.6,698.6,0,698.6,0s15.4,8.3,10.3,31.4S849.6,551.3,849.6,551.3z M898.7,540h-30.5 l8-18.2h38.8C914.8,537.1,898.7,540,898.7,540z M920.2,512.4h-41.7l9-20.5h52C938.8,513.4,920.2,512.4,920.2,512.4z M947.2,480 h-55.4l7-19.2l57.7,1.6C962.6,472.4,947.2,480,947.2,480z"></path> </svg> 