<?xml version="1.0" encoding="UTF-8"?> <svg xmlns="http://www.w3.org/2000/svg" xmlns:xlink="http://www.w3.org/1999/xlink" version="1.1" id="Layer_1" x="0px" y="0px" viewBox="0 0 1000 1000" style="enable-background:new 0 0 1000 1000;" xml:space="preserve"> <path style="fill:#FFFFFF;" d="M460.4,742.1c4.3-16.5,8.3-33.1,12.8-49.6c13-47.5,26.3-94.8,39.1-142.3c1.8-6.9,4.7-9.2,11.9-9 c19,0.5,37.9,0.2,58.3,0.2c-7.1,26.1-14,51.3-21.3,77.8c14.6,0,28.3,0.2,41.9-0.3c1.8-0.1,4.3-3.6,5-6c6.2-21.4,12.2-42.9,17.9-64.5 c1.4-5.4,3.8-7.2,9.4-7.1c19.6,0.4,39.1,0.1,60,0.1c-2.6,9.7-4.8,18.4-7.2,27.1c-15.2,55.1-30.4,110.2-45.7,165.3 c-0.8,2.9-2.3,5.6-3.5,8.4c-21.5,0-43,0-64.5,0c0.3-3.5,0.1-7.2,1-10.5c6.2-23.3,12.7-46.5,19.4-70.9c-12.5,0-24.1,0.5-35.7-0.2 c-7.4-0.4-10.6,1.8-12.5,9.3c-6.2,24.2-13.4,48.2-20.2,72.3C504.6,742.1,482.5,742.1,460.4,742.1z"></path> <path style="fill:#FFFFFF;" d="M265.2,742.1c4.8-18.3,9.3-36.7,14.3-54.9c12.7-46.3,25.7-92.5,38.3-138.9c1.3-4.8,2.8-7.3,8.4-7.3 c55.9,0.1,111.7,0,167.6,0c1.2,0,2.3,0.4,5.1,0.8c-8.7,13.5-16.7,26.4-25.4,38.8c-1.2,1.8-5.5,1.9-8.4,1.9 c-29.1,0.1-58.3,0.1-88.6,0.1c-10.7,38.5-21.3,77-32.4,116.9c13.2,0,25.6,0.1,37.9-0.2c1.4,0,3.6-2.3,4.1-3.9 c3.3-11.1,6.2-22.3,9.5-34.4c-7.9,0-15.1,0-24.7,0c9.4-14.5,17.7-27.5,26.3-40.3c0.8-1.1,3.3-1.6,4.9-1.6 c23.9-0.1,47.8-0.1,73.1-0.1c-3.4,12.6-6.6,24.3-9.8,35.9c-7.1,25.7-14.1,51.3-21.3,76.9c-1,3.5-2.6,6.8-3.9,10.2 C381.8,742.1,323.5,742.1,265.2,742.1z"></path> <path style="fill:#FFFFFF;" d="M981.6,269.6c-6.8,10.2-14.1,20-20.1,30.6c-4.2,7.5-9.5,9.7-17.7,9.4c-17.8-0.6-35.6,0.1-53.4-0.3 c-5.7-0.1-8.2,1.7-9.3,7.2c-1.8,8.6-4.4,17-7,26.5c19.8,0,38.7,0,59.7,0c-9,13.9-16.8,26.5-25.2,38.7c-1.1,1.7-4.8,2.2-7.3,2.3 c-10.7,0.2-21.5-0.2-32.2,0.3c-2.6,0.1-6.6,2.2-7.3,4.3c-4,12.4-7.3,25.1-11.1,38.7c33.7,0,66.4,0,100.7,0 c-8.8,13.7-16.5,26-24.6,38.1c-1.1,1.6-4.1,2.6-6.2,2.6c-48.5,0.1-97,0.1-145.5,0c-0.6,0-1.1-0.4-2.6-0.9 c4.6-16.6,9.2-33.4,13.8-50.1c12.9-46.8,25.9-93.6,38.6-140.5c1.7-6.4,4.5-8.5,11.3-8.5c48.5,0.2,97-0.1,145.4-0.2 C981.6,268.4,981.6,269,981.6,269.6z"></path> <path style="fill:#FFFFFF;" d="M16.5,742.1c4.3-16.8,8.3-33.8,12.8-50.5c13.5-49.9,27.2-99.7,40.9-149.9c51.7,0,103,0,156.1,0 c-8.7,13.6-16.6,26.2-25,38.4c-1.2,1.8-5.4,2.2-8.2,2.2c-19.6,0.2-39.3,0.3-58.9,0c-5.5-0.1-8.1,1.4-9.4,7.1 c-2.5,11-5.9,21.7-9.3,34.1c21.5,0,42.1,0,63.8,0c-3.7,13.5-6.7,25.7-10.6,37.5c-0.6,1.9-5.1,3.7-7.8,3.7c-16.2,0.3-32.5,0.5-48.8,0 c-6.6-0.2-9,2.3-10.5,8.2c-5.2,20.1-10.9,40.1-16.6,60.1c-0.9,3.1-2.7,6-4,9C59.5,742.1,38,742.1,16.5,742.1z"></path> <path style="fill:#FFFFFF;" d="M698,742.1c10.6-38.9,21.1-77.8,31.7-116.7c3.8-13.8,7.6-27.6,11.8-42.7c-13.7,0-26.3,0-39.9,0 c3.6-13.1,6.6-24.9,10.3-36.5c0.7-2.1,4-4.9,6.1-4.9c52.7-0.3,105.4-0.2,160.5-0.2c-9.1,14.2-17.1,27-25.7,39.5 c-1.1,1.6-4.9,1.9-7.4,2c-9.2,0.2-18.4,0.6-27.6-0.1c-6.7-0.5-8.9,2.3-10.5,8.2c-12.8,47.2-25.9,94.3-39,141.4 c-1,3.5-2.6,6.7-3.9,10.1C742.2,742.1,720.1,742.1,698,742.1z"></path> <path style="fill:#FFFFFF;" d="M180.4,742.1c0.1-2.9-0.4-6,0.4-8.8c16.9-61.3,34-122.5,50.7-183.8c1.8-6.6,4.6-8.6,11.3-8.4 c19.2,0.4,38.5,0.2,59,0.2c-4.4,16.4-8.5,31.7-12.7,46.9c-13.4,48.3-26.8,96.6-40.3,144.9c-0.9,3.2-2.6,6.1-3.9,9.1 C223.4,742.1,201.9,742.1,180.4,742.1z"></path> <path style="fill:#FFFFFF;" d="M462.7,391.9c2.3,25.7,4.4,50.3,6.7,75.6c-21.6,0-43,0-65.5,0c-2.2-24.5-4.5-49.3-6.9-75.6 c-3.9,0-7.8,0.3-11.6-0.1c-5.8-0.6-8.6,1.2-10.1,7.4c-5.1,20.4-11.2,40.6-16.5,61c-1.6,6-4.1,8.3-10.7,8.1 c-19.3-0.5-38.6-0.2-58.9-0.2c6.9-25.2,13.6-49.6,20.3-73.9c10.9-39.4,21.9-78.8,32.8-118.3c1.2-4.5,2.1-7.7,8.1-7.7 c56.7,0.2,113.5,0.1,170.2,0.2c0.9,0,1.8,0.4,3.7,0.9c-4.8,17.6-9.5,35.2-14.3,52.7c-5.7,20.6-11.8,41.1-17,61.8 c-1.7,6.9-5,8.7-11.4,8.2C475.5,391.5,469.4,391.9,462.7,391.9z M388.8,350.7c14.6,0,28.3,0.1,42-0.2c1.7,0,4.4-2.3,4.9-4 c3.6-11.9,6.6-23.9,10.1-36.5c-15.7,0-30.5,0-45.7,0C396.3,323.5,392.7,336.6,388.8,350.7z"></path> <path style="fill:#FFFFFF;" d="M573.5,467.5c5.4-19.8,10.6-39,15.9-58.1c12.2-44.2,24.4-88.4,36.6-132.6c1.3-4.7,1.9-8.9,9.1-8.9 c56.5,0.3,112.9,0.2,169.4,0.2c1.2,0,2.4,0.3,4.7,0.7c-2.2,8.5-4.2,16.7-6.5,24.8c-8.4,30.4-16.8,60.7-25.3,91 c-1.1,3.8-2.7,7.5-4.8,10.8c-14.1,22.2-28.1,44.5-42.7,66.4c-2,3-6.4,6.3-9.7,6.3c-47.6,0.4-95.1,0.2-142.7,0.2 C576.7,468.3,575.8,468,573.5,467.5z M652.7,426.7c13,0,24.3-0.4,35.6,0.1c7,0.3,10.2-1.7,12.1-8.9c6.8-26.3,14.3-52.5,21.5-78.7 c2.6-9.5,5.2-19.1,8.1-29.5c-14.1,0-26.6-0.3-39.2,0.3c-2.6,0.1-6.3,3.3-7.2,5.8c-3.4,9.8-5.8,19.9-8.6,29.9 C667.7,372.3,660.4,398.8,652.7,426.7z"></path> <path style="fill:#FFFFFF;" d="M912.6,486.9c-7.5,11.6-13.8,21.7-20.5,31.4c-1.1,1.7-3.6,2.9-5.7,3.4c-2.3,0.6-4.9,0.2-7.3,0.2 c-264,0-527.9,0-791.9,0c-3.3,0-6.6,0-11.1,0c3-11.2,5.7-21.5,8.7-31.6c0.4-1.4,2.9-2.9,4.6-3.2c3-0.5,6.1-0.2,9.2-0.2 c267.6,0,535.3,0,802.9,0C904.5,486.9,907.5,486.9,912.6,486.9z"></path> <path style="fill:#FFFFFF;" d="M158.5,468c-22.5,0-44.2,0-67.2,0c1.1-4.9,2-9.2,3.2-13.4c16.3-59.2,32.7-118.4,49.1-177.6 c1.3-4.7,1.8-9,9-9c56.2,0.3,112.3,0.2,168.5,0.2c1.5,0,2.9,0.3,5.6,0.7c-4.6,16.6-9,32.7-13.4,48.8c-6.2,22.4-12.5,44.7-18.4,67.2 c-1.4,5.2-3.5,7.4-9.4,7.4c-31.9-0.3-63.8,0.2-95.7-0.2c-7.7-0.1-11.1,1.9-13,9.7C171.1,424,164.6,445.9,158.5,468z M247.6,309.8 c-10.3,0-18.8,0-27.4,0c-17.8,0-17.9,0-22.7,17.3c-2.1,7.6-4,15.2-6.1,23.6c14.4,0,26.9,0.2,39.5-0.2c2.3-0.1,5.8-2.3,6.5-4.3 C241,334.6,244,322.8,247.6,309.8z"></path> <path style="fill:#FFFFFF;" d="M487,468.2c3.5-12.9,6.8-24.9,10.1-36.9c14.2-51.5,28.5-103,42.5-154.7c1.7-6.4,4.4-8.7,11.2-8.6 c19.2,0.5,38.4,0.2,58.7,0.2c-7.1,25.7-13.7,50.1-20.4,74.5c-10.8,39.2-21.9,78.3-32.5,117.5c-1.7,6.1-4,8.3-10.5,8.1 C526.9,467.9,507.6,468.2,487,468.2z"></path> </svg> 