<?xml version="1.0" encoding="utf-8"?>
<!-- Generator: Adobe Illustrator 26.1.0, SVG Export Plug-In . SVG Version: 6.00 Build 0)  -->
<svg version="1.1" id="Layer_1" xmlns="http://www.w3.org/2000/svg" xmlns:xlink="http://www.w3.org/1999/xlink" x="0px" y="0px"
	 viewBox="0 0 1000 1000" style="enable-background:new 0 0 1000 1000;" xml:space="preserve">
<path style="fill:#FFFFFF;" d="M620,157.4c4.5,0.4,9,0.8,13.5,1.2c26.7,2.1,52.4,8.3,76.9,19.5c2.1,0.9,4.1,2.8,6.7,0.7
	c0.5-0.4,2,0.4,3,0.8c1.3,0.6,2.4,1.4,3.6,2.1c2.8,1.6,5.4,2.9,9,2.4c4.9-0.7,9.4,0.7,12.6,4.9c0.7,0.9,1.8,1.4,2.4,1.8
	c0.4,3,0.8,5.5,1.3,8.3c-0.3,0.1-1,0.4-1.8,0.7c3.9,3.3,7.6,6.5,11.8,10c0-1.5,0-2.4,0-4.2c2.6,2.3,4.7,4.1,7.3,6.5
	c-2.1,0.6-3.1,0.9-4.4,1.3c3.8,4.4,7.6,8.7,11.2,13c20.5,24.6,33.1,53.1,41,83.9c8.1,31.2,9.5,62.9,8.3,94.9
	c-0.1,3.3-0.5,6.6-1.4,9.9c-0.1-1.5-0.3-3-0.5-5.3c-5.9,0.4-11.7,0.7-18,1.1c0-2-0.1-4.6,0-7.1c1.1-20.4,1.2-40.8-1.7-61
	c-2.1-14.4-5.4-28.6-8.3-43.7c-42.9,20.5-84.8,40.6-126.6,60.6c-1.8-9-3.3-18.1-5.6-26.9c-2.1-8-5.1-15.7-8.1-23.4
	c-1-2.6-1-3.8,1.5-5.4c33.8-22.1,67.6-44.3,101.3-66.5c1.2-0.8,2.3-1.5,3.9-2.6c-13.6-17-28.7-32-48-42.4c-0.3,0.6-1,1.3-0.8,1.7
	c1.4,3.3-1.3,4.5-3.1,6c-26.7,22.3-53.4,44.6-80.2,66.9c-0.6,0.5-1.2,0.9-1.9,1.4c-2.5-2.3-4.9-4.5-7.2-6.5c0.4-1.3,1-2.3,1-3.3
	c0.3-9.4,0.4-18.9,0.7-28.4c0.1-2.8-0.8-5-2.7-6.8c-1.8-1.6-1.7-2.9,0.1-4.7c14.1-14.2,28.1-28.6,42.2-42.9c0.8-0.8,1.5-1.6,2.7-2.9
	c-6.2-1.2-11.8-2.8-17.6-3.3c-15.5-1.2-31.1-2.7-46.6-2.5c-13.2,0.2-26.5,2.7-39.7,4c-2.8,0.3-3.4,2.3-4.4,4
	c-1.7,3.1-3.7,4.1-7.4,3.3c-16-3.2-31.1-0.7-45.6,7.1c-7.8,4.2-16.5,6.6-24.7,9.9c-5.2,2.1-10.3,4.2-15.3,6.6
	c-1.6,0.8-3.1,2.4-3.8,4c-4.5,9.9-8.9,19.9-13.3,29.8c-0.6,1.5-1.4,2.9-2,4.2c-9.9-2.9-19.7-5.8-29.6-8.8c0.3-1.2,0.7-2.8,1.4-5.2
	c-4.2,2.7-7.8,5-11.5,7.3c-8.7,5.3-17.6,10.5-26.2,16c-1.3,0.8-2.5,2.6-2.9,4.2c-2.4,10-4.4,20.1-6.7,30.2c-0.3,1.2-1.1,2.6-2.1,3.3
	c-10.2,7.1-20.4,14-30.6,21c-0.1,0.1-0.4,0.1-1.1,0.1c1-9.6,1.9-19.2,2.9-29.5c-6,4.8-11.5,9-16.8,13.4c-5.4,4.5-10.7,9.2-16,14
	c-0.9,0.8-1.6,2.2-1.6,3.3c0.1,7.2,0.5,14.4,0.6,21.7c0,1.2-0.4,2.8-1.2,3.6c-8.8,8.2-17.7,16.3-26.6,24.4c-0.3,0.3-0.7,0.4-1.5,0.9
	c-1.5-7.4-2.9-14.4-4.3-21.6c-4.1,4-8,7.6-11.7,11.5c-3.8,4-7.4,8.2-11.2,12.4c-2,2.2-4.1,4.4-6,6.7c-0.5,0.6-0.6,1.7-0.3,2.4
	c1.8,4.8,3.8,9.6,5.6,14.3c0.7,1.9,3.7,1.8,3.4,4.8c-0.2,2.2,1.4,4.6,2.4,6.8c0.9,2.2,2,4.2,3,6.2c7.1-7,14.3-13.8,21.1-21
	c1.1-1.1,1.4-3.6,1.2-5.3c-0.4-3.7-1.5-7.4-2.1-11.1c-0.1-0.7,0.1-1.8,0.5-2.2c8.7-8,17.5-16,26.3-23.9c0.1-0.1,0.4-0.1,1.1-0.3
	c0,6.1,0,12.2,0,18.7c6.3-4.7,12-9,17.6-13.2c1-0.8,2-1.6,3-2.2c4.2-2.4,6.5-6.1,7.2-10.9c0.6-4.1,1.8-8.2,2.2-12.4
	c0.4-4.2,2.3-6.8,5.7-9c7.7-5.1,15.3-10.5,22.9-15.7c0.8-0.5,1.6-0.9,3.2-1.8c-3,9.7-5.8,18.7-8.7,28.3c1.3-0.5,1.8-0.7,2.5-1
	c0.3,0.8,0.5,1.5,0.8,2.5c-35.2,20.7-66.8,45.9-94.3,76.2c4-3.7,7.9-7.5,12-11.1c13.8-11.9,27.6-23.9,41.6-35.6
	c6.5-5.4,13.6-10,20.4-15c14.1-10.3,29.7-17.8,45.2-25.5c2.5-1.3,5.2-2.3,8.4-3.7c-2-0.4-4-0.5-2.4-3.1c-1.3,0.5-2.2,0.8-3.5,1.2
	c0.2-0.9,0.3-1.5,0.5-2c4.4-10.1,8.8-20.1,13.3-30.2c0.5-1.2,1.4-2.6,2.5-3.1c10.1-4.8,20.3-9.4,30.5-14c0.3-0.1,0.6,0,1.4-0.1
	c-7,12.7-13.9,25.1-20.9,37.8c5.8-1.1,11.2-2.2,16.5-3.2c2.6-0.5,5.3-0.8,7.9-1.6c1.4-0.4,3-1.3,3.8-2.5
	c8.4-12.2,16.7-24.5,24.9-36.8c0.3-0.4,0.4-1,0.7-1.6c-1.2-0.4-2.4-0.7-3.9-1.2c2.3-4.4,4.1-9,10.2-9.3c2.1-0.1,3.7-1.3,4.6-3.4
	c0.7-1.6,1.7-3,2.5-4.5c8.3-16.6,23.3-23,40.4-25.6c3.8-0.6,7.9,0.7,12.8,1.2c-6,9-11.4,16.9-17,25.3c4.5,0,8.6-0.2,12.6,0
	c8.5,0.5,17.1,1,25.6,2.1c3,0.4,5.7,2.9,8.7,3.6c3.4,0.7,4.5,2.7,5.5,6c-2.4-0.5-4.3-0.9-6.1-1.4c-6-1.6-10.8,1-14.7,4.8
	c-10.1,9.9-19.8,20.1-29.6,30.2c-4.9,5-9.6,10.1-14.5,15.1c-1.6,1.6-1.8,2.5,0.4,3.7c3,1.6,6,3.3,8.6,5.5
	c12.4,10.8,24.1,22.3,31.2,37.5c3.1,6.7,5.4,13.7,8.2,20.5c1.1,2.8,2.6,5.5,4.2,7.9c0.4,0.6,2.3,0.1,4.2,0.1
	c-9.9-15.8-11.5-31.8-6-49c-4.5,3.1-8.9,6.2-13,9.1c-6.2-6.7-12.2-13.3-18.1-19.8c16.9-14.6,33.8-29.1,51.3-44.2
	c0,6.8,0.5,12.4-0.1,17.9c-0.6,5.4-2.3,10.6-3.5,16.3c1.3-0.9,2.4-1.6,3.4-2.3c31.5-21.4,74.8-4.1,82.3,33
	c4.1,20.2-4.8,41.2-22.2,52.9c-10.4,7-21.6,11-34.2,9.5c-4-0.5-7.1,0.6-10.5,2c-9.2,3.6-18.5,7.2-27.8,10.6
	c-1.9,0.7-2.6,1.7-2.7,3.7c-0.3,6-1,12-1.2,18c-0.1,2.2-0.9,3.3-2.8,4.1c-1.7,0.7-3.3,1.7-5.3,2.8c0.2-3.8,0.3-7.1,0.5-10.4
	c1.3-23.4-1.7-46.1-10.7-67.8c-8.6-20.5-22.1-36.9-42.9-46c-12.8-5.6-26.3-7.4-40.3-6.6c-25.8,1.6-49.4,11-72.5,21.4
	c-52,23.4-95.8,58-133.7,100.2c-5.9,6.6-11.5,13.4-17.3,20.1c-0.5,0.6-1.2,1.2-1.7,1.8c-2.9-2.3-4.1-8.5-2.8-11.6
	c0.4-0.9,0.1-2.5-0.5-3.2c-1.8-2.2-3.9-4-5.8-6c-3.2-3.2-3.4-4.3-1-8.1c1.4-2.2,2.9-4.4,4.4-6.6c-2.9-3-5.2-6-8.1-8.3
	c-1.4-1.1-4.7-1.6-5.7-0.8c-2.7,2.3-4.4,1.9-6.3-0.6c-0.2-0.2-0.8-0.2-1.9-0.4c9.8-11.6,19-23.1,28.8-34.1
	C280,310.4,335,263.2,397.9,225.6c35.2-21,71.7-39.4,110.9-51.7c21.5-6.7,43.4-11.8,65.8-14c12.3-1.2,24.7-1.5,37.1-2.2
	c1.1-0.1,2.1-0.3,3.2-0.4C616.5,157.4,618.2,157.4,620,157.4z M547.9,239.2c-0.5-0.4-0.7-0.6-0.8-0.6c-10.5-1.7-21-1.9-31.5-0.8
	c-1,0.1-2,1.2-2.7,2c-6.7,8-13.3,15.9-19.8,24c-6.7,8.2-13.3,16.4-20.1,24.9c1.2,0.3,2.1,0.5,3,0.7c5.6,1.2,11.2,2.1,16.7,3.6
	c2.3,0.6,3.6,0.3,5.2-1.4c8.6-9.1,17.2-18.1,25.8-27.1c7.5-7.8,15-15.4,22.5-23.2C546.7,240.6,547.2,239.9,547.9,239.2z
	 M559.1,399.6c9.6-3.4,19-6.8,29-10.4c-4.6-2-8.3-3.6-12-5.2c-1.7-0.8-3.6-2.6-5-2.3c-5.2,1.1-9.2-0.4-13-4.8
	C558.4,384.9,558.8,392.1,559.1,399.6z"/>
<path style="fill:#FFFFFF;" d="M20.9,598.9c0.2-9.8,0.6-19.6,0.7-29.4c0.1-18.2,0-36.4,0-54.7c0-9,0-9,8.9-9c15.1,0,30.2-0.1,45.3,0
	c14.9,0.1,27.9,5.1,38.2,16c7.8,8.2,13.7,17.7,15.2,29.1c2,15.3-1.5,29.5-11.3,41.8c-3.7,4.6-7.5,9.1-11.9,14.3
	c3.8,8.6,8.6,19.3,13.3,29.9c0.9,2.1,0.6,3.3-2,3.3c-8.8,0-17.7,0.1-26.5-0.1c-1,0-2.4-1.2-2.8-2.2c-3.1-7.5-6.1-15-9-22.6
	c-0.7-1.7-1.5-2.3-3.3-2.2c-8.2,0.1-16.3,0-24.6,0c0,8.3-0.2,15.8,0.1,23.3c0.1,3-0.5,4-3.6,3.9c-7.6-0.2-15.3,0-23-0.1
	c-1.2,0-2.4-0.8-3.7-1.2C20.9,625.6,20.9,612.2,20.9,598.9z M97.5,570.5c-0.3,0-0.7-0.1-1-0.1c0-1.9-0.3-3.8,0-5.6
	c1.7-8.1-1-15.5-4.4-22.3c-2.7-5.5-8.9-7.2-14.7-7.5c-8.8-0.4-17.6-0.1-26.5-0.1c0,16.5,0,33,0,49.7c8,0,15.8,0.1,23.6,0
	C84.9,584.5,93.2,580.7,97.5,570.5z"/>
<path style="fill:#FFFFFF;" d="M262.2,830c-2-0.4-3.9-0.8-5.9-1.1c-16.1-2.6-16.9-16.4-11.3-26c3-5.2,8-9.4,12.6-13.5
	c1.6-1.5,4.5-1.9,6.9-2c4.1-0.2,6.4,3.9,4.1,7.4c-1.3,2-3.5,3.4-5.3,5c-3.9,3.5-8,6.8-8.4,12.7c-0.3,3.6,0.5,5.6,4.1,5.8
	c5.5,0.4,11.1,0.8,16.5,0c9.9-1.4,19.8-3.3,29.5-5.8c26.3-6.8,49.9-19.2,71.4-35.8c12.5-9.7,23.6-20.8,31.8-34.4
	c5.9-9.9,10-20.3,9.8-32.2c-0.3-16-8.1-26-22.7-32.2c-9.9-4.2-20.3-5.9-30.9-6.5c-1.9-0.1-3.9-0.3-5.8-0.6c-3.4-0.7-5.7,1-7.6,3.5
	c-10.6,13.6-19.4,28.2-26.7,43.8c-11.2,23.7-21.4,47.8-29.1,72.9c-1,3.2-1.5,6.4-2.5,9.6c-0.9,3.1-3.5,4.7-6.6,4.3
	c-2.8-0.4-5.3-3-5-6c0.3-3.4,0.9-6.8,1.9-10c7.5-24.5,15.4-48.9,27.1-71.8c7.9-15.4,16.5-30.3,26.7-44.2c0.2-0.2,0.2-0.6,0.6-1.4
	c-4.6,0.3-9,0.3-13.3,0.9c-16.8,2.4-33.5,5.7-49.5,11.6c-13.9,5.1-26.7,12.3-37,23.1c-10.6,11.1-15.2,24.1-10.7,39.3
	c2.2,7.4,6.6,12.9,14.4,15.2c3.8,1.1,5.3,3.3,4.7,6.2c-0.7,3.4-3.4,5.3-7.2,4.8c-9.3-1.2-15.8-6.7-20.1-14.6
	c-9.7-18-8-35.4,3.8-51.8c10.8-15.1,26.2-24.2,42.9-31.3c13.8-5.8,28.3-9.2,42.9-11.5c12.5-1.9,25.2-2.8,37.8-3.8
	c3.2-0.2,4.7-1.8,6.2-4.1c2.4-3.6,7.9-3.8,10.1-0.4c0.8,1.2,0.9,2.8,1.3,4.3c5.7,0.8,11.6,1.5,17.5,2.6c11.4,2.1,22.2,5.7,31.7,12.5
	c12.9,9.3,18.2,22.3,17.8,38c-0.4,16.4-7.2,30.4-16.6,43.2c-13.6,18.6-31.2,32.8-50.7,44.8c-21,12.8-43.8,21.2-67.7,26.4
	c-6.6,1.5-13.5,1.9-20.2,2.8c-0.7,0.1-1.4,0.4-2.1,0.6C269.6,830,265.9,830,262.2,830z"/>
<path style="fill:#FFFFFF;" d="M246,633.5c0.8,0.3,1.3,0.5,2.9,1c-4.4,2.2-7.9,4.3-11.7,5.8c-26.2,10.3-50.3,6.2-72.3-11.1
	c-13.2-10.4-21.2-24.2-25.1-40.5c-0.2-1,0.5-2.3,1.3-3.4c-3.4-29.5,8.2-62.5,44-76.5c34-13.4,69.4,2.9,84.9,28.9
	C288.3,568.4,280.4,610,246,633.5z M250.1,573.5c-0.1-22-18.1-39.9-39.7-40c-22.3-0.2-39.9,17.2-40.6,38.6
	c-0.8,23.6,17.6,39.8,38.4,41C231.4,614.3,250.2,594,250.1,573.5z"/>
<path style="fill:#FFFFFF;" d="M560.1,772.7c3.7-3.3,7.8-6.3,11-10.1c16-18.4,28.8-39.2,41.4-60c2.4-3.9,5.1-6.8,10.1-6.7
	c5.9,0.1,9.1,3.8,6.6,9.2c-3.4,7.7-7.4,15.1-11.5,22.5c-6.6,12-11.5,24.6-14.9,37.7c-0.6,2.4-0.1,5-0.1,8.4c2.1-1.2,3.7-2,5.1-3
	c3.3-2.4,6.6-2.3,8.9,0.4c2.3,2.7,2,6.3-1.2,9.1c-4.9,4.2-10.5,6.1-17,4.5c-5.1-1.3-8.6-5-8.7-10.3c0-6.1,0.6-12.2,0.8-17
	c-4.2,4.7-9.1,10.8-14.7,16.2c-4,3.8-8.6,7.2-13.6,9.6c-7.9,3.9-14.6,0.8-16.9-7.6c-0.1-0.3-0.4-0.5-0.6-0.8
	c-2.9,2.6-5.6,5.4-8.7,7.6c-6.8,4.9-14.3,7.1-22.7,5.6c-6-1.1-9.3-5.1-11.5-10.2c-1.2-2.9-1.9-6.1-2.8-9.3c-2,2.8-4,5.8-6.4,8.6
	c-8,9.4-17.1,17.5-30,18.9c-6.3,0.7-12.9,1.5-18.8-2.3c-6.6-4.3-9.5-10.9-10.8-18.2c-2.4-13.6,2-26.1,7.4-38.2
	c4.8-10.7,11.4-20.1,21.5-26.7c4.4-2.9,9.4-4.3,14.6-4.5c10-0.5,16.5,7.3,16.1,17.7c-0.8,20.3-21.8,41.1-41.6,42.9
	c-1.8,0.2-3.6,0.6-5.5,0.9c-0.6,5.3,0.7,10.1,3.8,14.3c2,2.7,5.3,3.3,8.4,3.1c7.5-0.6,13.7-4,19.1-9.1c8.9-8.3,14.7-18.9,20.8-29.2
	c5.3-8.9,6.1-19,9-28.6c7-23.2,16-45.6,30.1-65.5c5.9-8.3,13.7-14.4,23.8-17c11.7-3,20,5.5,17.1,17.2c-2.5,10-8,18.3-13.8,26.5
	c-9.1,12.8-19.5,24.4-31.2,34.9c-4.8,4.3-8.9,9.3-13.4,14c-4.3,4.4-5,10.2-6,15.9c-1.4,8.3-2.5,16.6-1,25c1.5,8.2,6.5,11.1,13.6,6.7
	c4.8-3,9.2-7.5,12.6-12.2c9-12.3,16.2-25.6,20.9-40.2c1.9-5.8,4.7-11.2,7.5-16.6c1-1.9,3.1-3.5,5-4.5c2.6-1.2,5.3,0.1,6.7,2.3
	c0.9,1.4,1.1,4,0.5,5.6c-2.9,8.4-6.2,16.6-9.4,24.8c-3.7,9.9-7.6,19.7-11.1,29.7c-0.8,2.2-0.4,4.8-0.5,7.2
	C559.1,772.2,559.6,772.5,560.1,772.7z M566.4,646.1c-5.1-0.3-8.2,2.5-11.4,5.2c-9.5,8.1-15.2,18.9-20.7,29.8
	c-0.4,0.8-1.2,2.4-1.4,2.4c-2.7-1.1-2.4,1.6-2.9,2.6c-3.1,7.1-5.9,14.2-8.8,21.4c-0.6,1.6-1.1,3.2-1.6,4.9c-0.5,1.6-1,3.2-1.4,4.7
	c0.2,0.1,0.4,0.2,0.6,0.3c9.7-9.9,19.4-19.9,29.1-29.8c-0.4-0.2-0.8-0.5-1.3-0.7c0.2-0.9,0.2-2,0.6-2.7c4.4-6.8,9.1-13.5,13.3-20.5
	C563.8,658.4,566,652.8,566.4,646.1z M445.7,757.1c2.2-0.4,3.7-0.8,5.2-0.9c14.3-0.7,32.5-19.1,30.7-35.3c-0.4-3.3-1.8-5-5-4.6
	c-1.5,0.2-2.9,0.7-4.3,1c-6.5,1.5-10.2,6.4-13.6,11.5C453.1,737.4,448.8,746.5,445.7,757.1z"/>
<path style="fill:#FFFFFF;" d="M886.6,506.2c1.3,0,2.3,0,3.4,0c28.1,0,56.3,0,84.4-0.1c2.8,0,4.1,0.6,4,3.7
	c-0.2,8.4-0.1,16.8-0.1,25.2c-21,0-42,0-63.2,0c0,7.7,0,15.3,0,23c12.9,0,25.8,0.1,38.7-0.1c2.9,0,4,0.7,4,3.8
	c-0.2,8.5-0.1,17-0.1,25.6c-13.9,0-28.2,0-42.4,0c0,7.4,0,14.7,0,22.5c3.5,0,6.5,0,9.6,0c16.6,0,33.2,0,49.8,0c3,0,4.4,0.7,4.3,4.1
	c-0.3,8.6-0.1,17.2-0.1,26.3c-1.3,0-2.4,0-3.6,0c-28.8,0-57.6,0-86.3,0.1c-2.9,0-3.8-0.5-3.7-3.7c0.3-19.3,0.4-38.6,0.4-57.9
	c0.1-21.3,0-42.7,0-64C885.9,512,886.3,509.4,886.6,506.2z"/>
<path style="fill:#FFFFFF;" d="M630.1,640.1c-1.2,0.1-2.3,0.2-3.3,0.2c-15.1,0-30.2,0-45.3,0c-1.3,0-2.8-0.4-3.7-1.2
	c-6.4-5.8-15-7.2-23.2-3.5c-1.3,0.6-2.6,1.1-3.7,1.9c-3.2,2.6-6.9,3-10.9,2.8c-2.1-0.1-2.8-0.7-2.8-2.9c0.2-21.6,0.5-43.3,0.5-64.9
	c0.1-21,0.1-42.1,0-63.1c0-2.7,0.5-3.7,3.5-3.7c28.2,0.1,56.5,0.1,84.7,0.1c4,0,4.3,0.2,4.3,4.2c0,7.4,0,14.9,0.2,22.3
	c0,2.1-0.5,2.7-2.7,2.7c-20.4-0.1-40.7-0.1-61.1-0.1c0,7.7,0,15.2,0,23.2c3.1,0,6.4,0,9.6,0c9.9,0,19.8,0,29.8,0
	c2.5,0,3.7,0.7,3.6,3.5c-0.1,8.4,0,16.8,0,25.5c-14.4,0-28.7,0-43.2,0c0,8,0,15.7,0,23.6c21.1,0,42.2,0,63.6,0
	C630.1,620.4,630.1,630.1,630.1,640.1z"/>
<path style="fill:#FFFFFF;" d="M339.4,607.6c12.4,7.3,28.8-0.3,33.4-13.4c1.2-3.5,1.9-7.5,1.9-11.2c0-18.3-0.4-36.7-0.5-55
	c0-6.4,0.7-12.9,0.9-19.3c0.1-2.1,0.9-2.8,2.9-2.8c7.5,0.1,15.1,0.1,22.6,0c2.2,0,3.1,0.8,3.1,3c0.2,22.2,0.6,44.4,0.4,66.6
	c-0.1,8.3,0.5,16.7-2.1,24.9c-3.5,11-9.4,20-18.1,27.6c-6.7,5.7-14,9.7-22.6,11.3c-15.8,3-30.4,0.7-43.3-9.8
	c-9.5-7.7-16.8-17-19.8-29c-1.2-4.9-2.3-10-2.3-15c-0.3-20.3-0.2-40.6-0.1-60.8c0-5.5,0.3-10.9,0.7-16.4c0.1-0.8,1.5-2.1,2.3-2.2
	c7.9-0.2,15.7-0.1,23.6-0.1c2,0,2.5,1,2.5,2.8c0.1,23.9,0.3,47.9,0.4,71.8c0,2.9,1,5.3,2.3,8c1.6,3.5,3.4,6.8,5.6,9.8
	c1.8,2.3,3.8,4.4,5.7,6.7C339.4,605.4,339.2,606.3,339.4,607.6z"/>
<path style="fill:#FFFFFF;" d="M802.3,535.1c-13.2,0-26.1,0-39.1,0c0-9.4,0-19,0-28.9c1.7,0,2.8,0,4,0c33.1,0,66.2,0,99.3-0.1
	c2.9,0,3.9,0.6,3.8,3.7c-0.2,8.4-0.1,16.8-0.1,25.3c-12.4,0-25.4,0-38.3,0c0,17.8,0,35.8,0,53.8c0,7.3-0.4,14.6-0.4,21.9
	c0,8.8,0.3,17.6,0.6,26.4c0.1,1.9-0.2,3.1-2.5,3.1c-8.4-0.1-16.8-0.1-25.2,0c-2.1,0-2.4-0.9-2.5-2.8c-0.2-12.9-0.8-25.8-0.7-38.7
	c0.2-20.2,0.8-40.4,1.2-60.6C802.4,537.2,802.3,536.3,802.3,535.1z"/>
<path style="fill:#FFFFFF;" d="M682.3,535.1c-13,0-25.8,0-39.1,0c-0.1-1.1-0.2-2.2-0.2-3.3c0.1-7.5,0.3-15.1,0.1-22.6
	c0-2.8,1.1-3.2,3.5-3.2c21.8,0.1,43.5,0,65.3,0c11.6,0,23.3,0.1,34.9-0.1c2.8,0,3.7,0.8,3.7,3.7c-0.2,8.5-0.1,17-0.1,25.5
	c-13,0-25.8,0-39.3,0c0,28.4,0,56.7,0,85.1c0,5.6,0.2,11.2,0.5,16.8c0.1,2.3-0.5,3.3-3,3.3c-8-0.1-16-0.1-23.9,0
	c-1.8,0-2.7-0.4-2.7-2.5c0.1-33.7,0.1-67.5,0.1-101.2C682.2,536.1,682.3,535.7,682.3,535.1z"/>
<path style="fill:#FFFFFF;" d="M428.1,505.2c9.5,0,18.9,0,28.5,0c2.2,35,0,70.1,0.4,105.2c2.8-1.1,62.7-0.6,65.6,0.4
	c0,9.7,0,19.3,0,29.5c-0.8,0-1.8,0-2.8,0c-29.6,0-59.3,0-88.9,0c-2.4,0-3.7-0.2-3.7-3.3c0.2-14.7,0.2-29.5,0.2-44.2
	c0-22.6-0.1-45.3,0-67.9C427.3,518.5,427.8,512,428.1,505.2z"/>
<path style="fill:#FFFFFF;" d="M705.4,749c-5.2,6.2-10.2,12.7-15.7,18.5c-3.7,3.9-8.2,6.8-14.2,6.9c-6,0.1-9.9-2.7-12-7.8
	c-2.1-5.1-3.5-10.5-5.2-15.7c-5.1,7.7-10.3,15.7-15.5,23.6c-2.7,4-5.5,7.9-8.2,11.8c-4.4,6.5-8.7,13.2-13.3,19.7
	c-2.8,4-6.1,7.7-9.2,11.4c-1.5,1.8-4.9,2.1-6.7,0.7c-3-2.3-4.1-6-2.2-8.6c2.8-3.9,5.9-7.5,8.7-11.4c11.8-16.5,23.4-33.1,35.1-49.6
	c0.9-1.3,1.4-2.9,2.5-4.1c5.2-5.6,4.8-11.9,2.8-18.6c-1.5-5.3-2.6-10.7-4.4-15.8c-1.1-3.1-3.2-6-5.2-8.7c-1.8-2.5-2.2-4.9-0.8-7.5
	c1.3-2.3,5-3.2,7.8-2.2c4.3,1.5,6.3,5.2,7.9,8.9c2.5,5.9,4.5,12,6.8,18.3c3.6-6.3,7.3-12.6,10.8-19.1c4.2-7.7,8.1-15.6,12.4-23.2
	c1.1-2,3.1-3.5,5-4.9c0.6-0.5,2.9,0,3.1,0.5c0.6,1.9,3.4,3,1.9,5.8c-2.8,5.2-5.3,10.6-7.9,15.9c-3.4,7-6.6,14.1-10.2,21.1
	c-2.9,5.7-6,11.3-9.6,16.6c-2.6,4-4.4,7.6-2.8,12.6c1.6,5,2.1,10.4,4.1,15.3c2.8,7.1,7.5,7.9,12.7,2.2c4.9-5.3,9.5-11,13.3-17.2
	c5.1-8.4,9-17.5,13.6-26.2c5.8-11.1,11.9-22.1,22.4-29.6c4.2-3,8.9-4.8,14.1-4.9c9.5-0.2,15,6,14.2,15.4
	c-0.9,11.9-6.1,21.6-14.8,29.5c-8.5,7.7-18.5,12-30.1,12.1c-0.4,0-0.8,0.1-1.2,0.1c-2,6.6,1.2,19.7,10.6,21c5,0.7,9.5-0.9,13.8-3.1
	c9.8-5,16.4-13.5,22.1-22.5c3.6-5.7,6.6-11.9,10.1-17.7c0.9-1.5,2.6-3.3,4.2-3.7c4-0.8,6.1,2.5,4.2,6.5
	c-4.8,10.2-10.1,20.1-17.2,28.9c-5.9,7.3-12.5,13.8-21.6,17.1c-7,2.5-14.1,3.1-21.4,1.8c-7.6-1.4-10.6-7.2-13.1-13.5
	C706.5,753.4,706,751,705.4,749z M718.7,730c12.3-1,20.5-7.1,26.8-16.3c3.5-5.1,5.7-10.6,5-16.9c-0.3-2.6-1.8-3.9-4.1-3
	c-3,1-6.2,2.1-8.6,4.1C727.8,706.1,723.1,717.6,718.7,730z"/>
<path style="fill:#FFFFFF;" d="M322.9,451.1c0,8.9,0,17.8,0,27c-3.7,0-7.2,0-10.9,0c0-16.5,0-32.8,0-49.4c2.9,0,5.5-0.2,8,0.1
	c1,0.1,2.2,1.2,2.8,2.2c5.7,9.2,11.3,18.5,17.1,28.2c2.5-4.2,4.9-8.2,7.2-12.2c3.1-5.2,6.2-10.3,9.2-15.5c1.1-2,2.5-3,4.9-2.7
	c1.9,0.2,3.8,0,6.2,0c0,16.5,0,32.9,0,49.4c-3.4,0-6.8,0-10.5,0c0-9.3,0-18.6,0-27.9c-0.2-0.1-0.5-0.2-0.7-0.2
	c-2.9,4.8-5.8,9.6-8.7,14.4c-1.2,2-2.4,4.1-3.6,6.1c-2.3,3.9-6,3.8-8.3-0.1c-4-6.5-7.9-13-11.9-19.5
	C323.3,451,323.1,451.1,322.9,451.1z"/>
<path style="fill:#FFFFFF;" d="M425.2,478.1c0-9.4,0-18.7,0-28.7c-0.9,1.3-1.4,1.9-1.8,2.5c-3.8,6.4-7.6,12.8-11.4,19.1
	c-1.9,3.1-5.8,3.1-7.7,0c-4.1-6.7-8.2-13.4-12.7-20.9c0,9.8,0,18.7,0,27.9c-3.9,0-7.4,0-11,0c0-16.4,0-32.6,0-49.3
	c2.9,0,5.6-0.2,8.2,0.1c1,0.1,2,1.4,2.7,2.4c5.6,9.2,11.1,18.4,16.9,28c3.1-5.3,6.2-10.4,9.2-15.6c2.3-4,4.8-7.9,7-11.9
	c1.2-2.2,2.7-3.4,5.3-3c1.8,0.3,3.6,0,5.9,0c0,16.6,0,32.9,0,49.4C432.2,478.1,428.8,478.1,425.2,478.1z"/>
<path style="fill:#FFFFFF;" d="M497.7,429.2c9.4,0,18.4-0.6,27.2,0.2c7.1,0.6,12.9,4.5,14.9,11.9c1.8,6.8,0.7,13-4.7,18
	c-1.3,1.1-2.8,2-4.5,3.2c3.5,5,7,10.1,10.9,15.8c-4.5,0-8.3,0.1-12-0.1c-0.6,0-1.3-1-1.8-1.6c-2.2-3.1-4.4-6.1-6.4-9.3
	c-1.2-2-2.6-2.8-4.9-2.6c-2.2,0.2-4.5,0-7.1,0c0,4.6,0,8.9,0,13.4c-4,0-7.6,0-11.6,0C497.7,461.8,497.7,445.5,497.7,429.2z
	 M509.6,438.2c0,6,0,11.4,0,17.3c4.5-0.3,8.8-0.3,13-1c4.2-0.7,6.1-3.7,5.9-7.9c-0.2-4.2-2.4-7-6.5-7.5
	C518,438.5,513.9,438.4,509.6,438.2z"/>
<path style="fill:#FFFFFF;" d="M686,448.6c7.5,0,14.8,0,22.3,0c0,3.1,0,5.9,0,9.1c-7.5,0-14.8,0-22.4,0c0,3.8,0,7.3,0,11.1
	c8.8,0,17.4,0,26.3,0c0,3.2,0,6,0,9.2c-12.5,0-25.1,0-37.9,0c0-16.4,0-32.7,0-49.2c12.5,0,24.6,0,37.1,0c0,3,0,6,0,9.4
	c-8.3,0-16.7,0-25.4,0C686,441.8,686,445,686,448.6z"/>
<path style="fill:#FFFFFF;" d="M487.1,468.8c0,3.3,0,6.1,0,9.2c-12.6,0-25.1,0-37.9,0c0-16.3,0-32.6,0-49c12.3,0,24.5,0,37,0
	c0,3,0,5.9,0,9.2c-8.3,0-16.6,0-25.3,0c-0.2,3.6-0.3,6.8-0.5,10.4c7.7,0,15.1,0,22.7,0c0,3.1,0,5.9,0,9.1c-7.5,0-14.9,0-22.5,0
	c0,3.8,0,7.3,0,11.2C469.4,468.8,478.2,468.8,487.1,468.8z"/>
<path style="fill:#FFFFFF;" d="M582.8,440.7c-5.2-1.1-10-2.3-14.8-2.9c-1.9-0.3-4.1,0.4-5.8,1.4c-1.1,0.6-2.2,2.5-2.2,3.8
	c0,1.1,1.2,2.9,2.3,3.3c3.5,1.3,7.2,2,10.7,3.2c3.4,1.2,7.1,2.2,10,4.3c8.2,5.9,6.5,17.6-2.9,22.9c-8.5,4.8-25.4,3.1-33.3-3.3
	c1.2-2.7,2.5-5.5,3.8-8.4c3,1.2,5.8,2.9,8.8,3.4c4.4,0.7,8.9,0.7,13.3,0.4c1.2-0.1,2.9-2.1,3.4-3.6c0.8-2.2-0.8-3.7-2.9-4.3
	c-3.5-1.1-7-1.9-10.5-3c-2.8-0.9-5.7-1.9-8.3-3.2c-8.2-4.3-9.3-15.4-2.1-21.4c7.5-6.2,16.3-5.9,25.2-4.3c2.1,0.4,4,1.4,6.1,2
	c2.3,0.7,2.7,2.1,1.8,4.2C584.3,437.1,583.5,439.2,582.8,440.7z"/>
<path style="fill:#FFFFFF;" d="M614.6,428.6c4.2,0,7.8-0.2,11.3,0.1c1,0.1,2.1,1.5,2.6,2.6c4.3,9.9,8.5,19.9,12.8,29.9
	c0.2,0.6,0.5,1.1,1,2.2c3.1-7.3,5.9-14.2,8.8-21c1.7-4,3.4-7.9,5.3-11.7c0.5-0.9,2-1.8,3.1-1.9c2.9-0.3,5.8-0.1,9.3-0.1
	c-1.5,3.7-2.8,7-4.2,10.3c-5.4,12.5-10.9,25-16.3,37.6c0,0.1-0.1,0.3-0.1,0.3c-1.4,0.5-2.8,1.6-4.1,1.4c-2.9-0.4-7,2-8.5-1.4
	C628.4,461.1,621.7,445.1,614.6,428.6z"/>
<path style="fill:#FFFFFF;" d="M299.1,478c-4.2,0-7.8,0-11.5,0c0-16.4,0-32.6,0-49.2c3.3,0,6.4-0.2,9.5,0.1c0.7,0.1,1.8,1.6,1.9,2.5
	c0.2,7,0.1,14,0.2,21C299.1,460.8,299.1,469.2,299.1,478z"/>
<path style="fill:#FFFFFF;" d="M608.5,429c0,16.4,0,32.7,0,49.3c-3.4,0-6.8,0.1-10-0.1c-0.6,0-1.5-1.8-1.5-2.8
	c-0.1-9.6,0-19.2,0.1-28.8c0-5.8,0-11.6,0-17.6C601,429,604.4,429,608.5,429z"/>
<path style="fill:#FFFFFF;" d="M400,266.2c2.9-8.9,5.7-17.5,8.8-26c0.3-0.7,2.7-1.3,3.7-1c6.5,2.3,12.8,4.8,19.2,7.3
	c1.9,0.7,3.7,1.7,6.2,2.9C424.8,255.3,412.6,260.7,400,266.2z"/>
</svg>
