<?xml version="1.0" encoding="utf-8"?>
<!-- Generator: Adobe Illustrator 26.2.1, SVG Export Plug-In . SVG Version: 6.00 Build 0)  -->
<svg version="1.1" id="Layer_1" xmlns="http://www.w3.org/2000/svg" xmlns:xlink="http://www.w3.org/1999/xlink" x="0px" y="0px"
	 viewBox="0 0 233.2 60.6" style="enable-background:new 0 0 233.2 60.6;" xml:space="preserve">
<style type="text/css">
	.st0{fill:#FFFFFF;}
</style>
<g>
	<g>
		<path class="st0" d="M50.3,52c0-4.2,0.8-5.4,4.8-5.4c1.8,0,3.5,0.3,3.6,0.4v2c-0.1,0-1.7-0.2-2.7-0.2c-2.8,0-3,0.1-3,3.3
			c0,2.9,0.2,3.4,2.2,3.4c0.2,0,0.7,0,1.1,0v-2.2h-1.5v-2h4v6c-1.1,0.2-2.6,0.4-3.7,0.4C51.1,57.5,50.3,56.6,50.3,52z"/>
		<path class="st0" d="M78,46.7h3.6L85,57.3h-2.7l-0.6-2.1h-3.8l-0.6,2.1h-2.7L78,46.7z M81,53.1L79.8,49h-0.1l-1.2,4.1H81z"/>
		<path class="st0" d="M100.9,46.7h3.7l2.1,6.3h0.1l2.1-6.3h3.7v10.6H110v-6.9h-0.1l-2.3,6.9h-1.8l-2.3-6.9h-0.1v6.9h-2.5V46.7z"/>
		<path class="st0" d="M129.4,46.7h2.7v10.6h-2.7V46.7z"/>
		<path class="st0" d="M149,46.7h2.8l3.4,5.7h0.1v-5.7h2.6v10.6h-2.5l-3.7-6.2h-0.1v6.2H149V46.7z"/>
		<path class="st0" d="M174.5,52c0-4.2,0.8-5.4,4.8-5.4c1.8,0,3.5,0.3,3.6,0.4v2c-0.1,0-1.7-0.2-2.7-0.2c-2.8,0-3,0.1-3,3.3
			c0,2.9,0.2,3.4,2.2,3.4c0.2,0,0.7,0,1.1,0v-2.2h-1.5v-2h4v6c-1.1,0.2-2.6,0.4-3.7,0.4C175.3,57.5,174.5,56.6,174.5,52z"/>
	</g>
	<g>
		<path class="st0" d="M226.8,43.4c-5.4-6.2-10.9-12.4-17-19.4c0,4.4,0,8.1,0,12c-2.6,0-4.6,0-6.9,0c0-10.1,0-20,0-31
			c5.8,6.9,11,13,16.8,19.9c0-4.5,0-8.1,0-12.2c2.7-0.1,4.9-0.2,7.1-0.3C226.8,22.7,226.8,33,226.8,43.4z"/>
		<path class="st0" d="M35.5,8.4c4.1,9.2,7.8,17.6,11.7,26.4c-2,0.9-3.8,1.8-6.1,2.8c-1.9-4-3.6-7.7-5.7-12.3
			c-3,6.5-5.6,12.3-8.6,19.1c-3-6.6-5.6-12.4-8.6-19c-2,4.4-3.8,8.1-5.7,12.2c-2.2-1-4.1-1.8-6.1-2.7c3.9-8.7,7.6-17.1,11.7-26.4
			c3,6.7,5.7,12.6,8.7,19.1C29.8,21,32.4,15.1,35.5,8.4z"/>
		<path class="st0" d="M143.1,39.1c-4.2-9.4-7.9-17.7-11.7-26.3c2.1-1,3.9-1.8,6-2.8c1.9,4,3.6,7.7,5.7,12.2c3-6.5,5.6-12.3,8.6-19
			c3,6.6,5.6,12.4,8.6,19c2-4.3,3.8-8,5.7-12c2,0.8,3.8,1.6,6.1,2.6c-3.8,8.6-7.5,17-11.7,26.5c-3-6.7-5.6-12.5-8.7-19.2
			C148.8,26.6,146.2,32.4,143.1,39.1z"/>
		<path class="st0" d="M87,36c-2,1.3-3.6,2.3-5.1,3.2c-5.8-4.4-18.6-4.4-23,0.3c-1.7-1-3.4-2.1-5.6-3.4c5.5-8.9,11-17.6,16.8-27
			C75.9,18.2,81.3,26.9,87,36z M70.3,22.3c-1.6,2.6-2.8,4.5-4.1,6.6c2.9,0,5.2,0,7.9,0C72.8,26.6,71.8,24.8,70.3,22.3z"/>
		<path class="st0" d="M122.2,34.1c-1.4,1.3-2.7,2.6-4.6,4.4c-3-3.2-5.9-6.4-9.2-10c-3.3,3.7-6.2,6.9-9.2,10.1
			c-2.2-1.9-3.7-3.3-6-5.3c3.8-3,7.1-5.5,11.6-9c-4.6-3.3-8-5.9-12.2-8.9c2.9-2.4,4.5-3.7,6.2-5.2c2.8,3,5.6,6,9,9.6
			c3-3.9,5.7-7.2,8.6-10.9c2.7,2.7,4.2,4.2,6,6c-3.3,2.8-6.3,5.4-10.6,9c4.5,2.9,8.2,5.3,11.9,7.6C123.3,32.4,122.8,33.3,122.2,34.1
			z"/>
		<path class="st0" d="M189.2,36c-2.1,0-4,0-6.3,0c0-7.6,0-15.3,0-23.3c1.9,0,3.9,0,6.3,0C189.2,20.2,189.2,27.8,189.2,36z"/>
		<circle class="st0" cx="186.1" cy="7.3" r="3.1"/>
	</g>
</g>
</svg>
