<?xml version="1.0" encoding="utf-8"?>
<!-- Generator: Adobe Illustrator 24.1.2, SVG Export Plug-In . SVG Version: 6.00 Build 0)  -->
<svg version="1.1" id="Layer_1" xmlns="http://www.w3.org/2000/svg" xmlns:xlink="http://www.w3.org/1999/xlink" x="0px" y="0px"
	 viewBox="0 0 1056.6 130" style="enable-background:new 0 0 1056.6 130;" xml:space="preserve">
<style type="text/css">
	.st0{fill:#FFFFFF;}
</style>
<path class="st0" d="M116.5,14.4h70.6l1.7,23.9h-4.2c-1.7-9.8-1.9-11.8-5.4-15.7c-3.5-3.9-10.8-3.5-16.5-3.5h-18
	c-1.2,0-2.4,0.3-3.4,1.2c-0.8,1-1.2,2.4-1.2,3.5v30.3h7.9c3.9,0.2,7.8-1.5,10.3-4.6c3-4,4.6-8.9,4.2-14h4.4v42.8h-4.4
	c-0.2-7.1-1.7-12.1-4.4-15.2c-2.7-3-6.7-4.7-11-4.6h-7.2v34.4c0,1.2,0.5,2.4,1.3,3c1.3,0.8,2.9,1.2,4.4,1H160
	c15.5,0,24.4-5.1,26.8-24.9h4.6l-1.5,29.7h-73.7V97h3.9c1.9,0.2,3.7-0.3,5.2-1.3c1-1,1.5-2.4,1.5-3.7V23.6c0.2-1.3-0.3-2.7-1.3-3.5
	c-1.2-0.8-2.7-1.3-4-1.2h-5.2L116.5,14.4z M186,43.3h32v4.2c-2.5-0.2-5.1,0.2-7.4,1c-1,0.5-1.7,1.5-1.5,2.7c0,0.8,0.2,1.9,0.7,2.7
	l15.5,34.6L239.5,55c0.2-0.5,0.3-1.2,0.3-1.7c0-3-3-4.9-8.9-5.7v-4.2h24.3v4.2c-2,0.2-4,0.8-5.9,2c-1.5,1.2-2.7,2.7-3.4,4.4
	l-21.4,49.7H221l-23.3-51.2c-0.7-1.5-1.7-2.9-3-3.9c-2.9-0.8-5.7-1.2-8.8-1.2v-4.1H186z M277.3,41.5c7.6-0.2,14.8,3,19.9,8.6
	c5.6,6.1,8.4,14.2,8.1,22.4c0.2,5.7-1,11.3-3.5,16.4c-2.4,4.4-5.9,8.1-10.3,10.8c-4.4,2.5-9.3,3.9-14.3,3.9
	c-7.4,0.2-14.5-3-19.2-8.6c-10.6-13.1-10.6-31.7,0-44.8C262.7,44.5,269.9,41.5,277.3,41.5z M277.3,46c-4.7,0-8.9,2.4-11.5,6.4
	c-3,4.2-4.6,11-4.6,20.1s1.5,15.8,4.6,20.4c2.5,4,6.7,6.4,11.5,6.4c4.7,0,9.3-2.4,11.8-6.4c3-4.2,4.6-11.3,4.6-20.9
	c0-9.1-1.5-15.5-4.6-19.6C286.6,48.2,282,45.9,277.3,46L277.3,46z M324.7,13.2v80.1c0,1,0.3,2,1,2.7c1,0.8,2.4,1.3,3.9,1.2h3.7v4.7
	H305v-4.6h3.5c1.5,0.2,3-0.3,4.2-1.3c1-1,1.5-2.5,1.3-3.9V25.7c0.2-1.7-0.5-3.4-1.7-4.6c-1.5-1.3-3.5-2-5.7-2h-5.2v-4.7L324.7,13.2z
	 M354.4,42.3v38.8c-0.2,4,1,7.9,3.5,11c2.4,2.5,5.7,4,9.3,3.9c4.6,0,8.9-2,12-5.7c3.4-3.9,5.1-8.9,4.9-14.2V54.2
	c0.2-1.9-0.7-3.5-2.2-4.7c-2.5-1.3-5.4-2-8.3-1.9v-4.4l20.6-1v48c-0.2,1.9,0.5,3.7,1.9,5.1c1.5,1.2,3.4,1.9,5.2,1.9h3.7v4l-19.7,0.5
	l-1.2-11.5c-3,3.7-6.6,6.7-10.5,9.3c-3.2,2-6.9,3-10.8,3c-4.9,0.2-9.8-1.7-13.3-5.2s-5.4-9.4-5.4-17.9V54c0.2-2-0.8-4-2.7-5.2
	c-2.4-1-5.1-1.5-7.8-1.3V43L354.4,42.3z M416.7,19.4h4.2v23.9h35.6V49h-35.6v37.6c-0.2,2.7,0.7,5.4,2.4,7.4c1.5,1.7,3.5,2.7,5.9,2.7
	c2.9,0,5.6-1.5,7.2-3.9c2.4-3.9,3.5-8.4,3.5-13.1h4.2c-0.2,7.8-2,13.5-5.2,17.4c-3.2,3.7-7.9,5.7-12.8,5.7
	c-4.2,0.2-8.3-1.2-11.3-3.9c-2.9-2.7-4.2-6.6-4-10.5V49.3h-10.1V45c4-0.5,7.9-2.7,10.5-5.7C414.9,33.1,416.9,26.3,416.7,19.4z
	 M444,43.3l23.3-0.7V93c-0.2,1,0.3,2.2,1,2.9c1,0.8,2.4,1.3,3.5,1.2h4.2v4.7h-28.5v-4.7h3.7c1.5,0.2,2.9-0.3,4-1.3
	c0.8-1,1.3-2.5,1.3-3.9V56.2c0.2-2-0.7-3.9-2-5.2c-1.7-1.3-3.9-2-5.9-1.9h-4.9v-5.7L444,43.3L444,43.3z M460.2,15.7
	c1.9,0,3.7,0.8,4.9,2.2c1.3,1.3,2.2,3.2,2.2,5.1s-0.7,3.5-2,4.9c-2.7,2.7-7.2,2.7-9.9-0.2c-2.7-2.7-2.7-7.2,0.2-9.9
	C456.8,16.4,458.5,15.7,460.2,15.7L460.2,15.7z M505.6,41.5c7.6-0.2,14.8,3,19.9,8.6c5.6,6.1,8.4,14.2,8.1,22.4
	c0.2,5.7-1,11.3-3.5,16.4c-2.4,4.4-5.9,8.1-10.3,10.8c-4.4,2.5-9.3,3.9-14.3,3.9c-7.4,0.2-14.5-3-19.2-8.6
	c-10.6-13.1-10.6-31.7,0-44.8C491.1,44.5,498.1,41.5,505.6,41.5z M505.6,46c-4.7,0-8.9,2.4-11.5,6.4c-3,4.2-4.6,11-4.6,20.1
	s1.5,15.8,4.6,20.4c2.5,4,6.7,6.4,11.5,6.4c4.7,0,9.3-2.4,11.8-6.4c3-4.2,4.6-11.3,4.6-20.9c0-9.1-1.5-15.5-4.6-19.6
	C514.8,48.2,510.4,45.9,505.6,46L505.6,46z M532.2,43.3l19.4-1.2c0.8,4.2,1.5,8.6,1.7,12.8c2.2-3.9,5.4-7.2,9.3-9.6
	c3.7-2.2,7.9-3.2,12.1-3.2c3.4-0.2,6.7,0.7,9.8,2.4c2.9,1.7,5.1,4.2,6.2,7.2c1.7,3.4,2.4,7.2,2.4,11.1v28.5
	c-0.2,1.7,0.3,3.2,1.5,4.6c1.3,1,3,1.5,4.9,1.3h1.7v4.7h-26v-4.7h0.5c2,0.2,4-0.3,5.7-1.3c1.2-1,1.7-2.4,1.7-3.9V66.9
	c0.2-4.2-0.7-8.4-2.7-12.1c-2.2-3.7-6.2-5.9-10.6-5.6c-4.6,0-8.9,2-11.8,5.7c-3.4,4.2-4.9,9.4-4.7,14.8v21.7
	c-0.2,1.7,0.3,3.4,1.5,4.6c1.3,1,3.2,1.5,4.9,1.3h1.7v4.7h-26.1v-4.7h1.7c1.7,0.2,3.4-0.3,4.7-1.2c1-0.7,1.5-1.9,1.5-3V55.3
	c0.2-2-0.7-4.2-2-5.7c-1.7-1.3-3.7-2-5.9-1.9h-3L532.2,43.3z M676.8,21.6l5.2-9.3h4.2l2.4,36.9h-4c-3.2-10.6-6.7-18.2-11.1-23.1
	c-4.6-5.6-11.3-8.9-18.5-9.1c-5.2-0.2-10.5,1.5-14.7,4.6c-4.6,3.5-7.9,8.3-9.8,13.7c-2.7,7.4-3.7,15.3-3.4,23.3
	c-0.3,7.8,0.8,15.3,3.4,22.8c1.7,5.2,5.1,9.9,9.4,13.3c4,2.9,9.1,4.4,14,4.2c6.2,0.3,12.3-1.9,16.9-6.1c4-4.2,6.2-9.9,5.9-15.7v-8.8
	c0-1.3-0.5-2.5-1.5-3.2c-1.5-0.8-3.4-1.3-5.2-1.2h-8v-4.4h36.4v4.4h-2.9c-1.7-0.2-3.5,0.3-5.1,1.2c-1,0.8-1.5,2.2-1.5,3.5v35.1h-4
	c-1.5-5.6-3-10.8-4.7-15.7c-2.7,4.7-6.6,8.6-11.1,11.5c-4.4,2.5-9.4,3.9-14.7,3.9c-7.6,0-15.2-2-21.6-6.1
	c-20.7-13.1-27.6-40.1-15.7-61.5c3.7-7.1,9.1-13.1,15.8-17.4c6.1-4,13.1-6.2,20.4-6.4c3.9,0,7.6,0.7,11.1,2
	C669.1,16,673.1,18.6,676.8,21.6z M760.8,97.3l1,1.7c0,3.4-4,2.9-7.8,2.9c-2.9,0-8.4-0.2-10.5-1.7c-2-1.5-2.7-3.2-4.2-7.1
	c-3,3.4-6.6,6.2-10.5,8.4c-3.4,1.5-7.1,2.2-10.8,2c-4.9,0.3-9.8-1-13.7-3.9c-3-2.4-4.7-6.1-4.7-9.9c0-6.1,3.5-11.1,10.8-15.2
	c8.9-4.6,18.5-7.2,28.5-8.1v-8.9c0-3.2-1.3-6.1-3.9-8.1c-2.7-2.4-6.1-3.5-9.6-3.4c-3.2-0.2-6.6,0.7-9.4,2.2
	c-1.9,1.2-2.9,2.2-2.9,3.4c0.2,1.2,0.7,2.2,1.5,2.9c1,1.2,1.7,2.9,1.9,4.4c0,1.7-0.7,3.4-1.9,4.6c-1.3,1.2-3,1.9-4.7,1.9
	c-2,0-3.9-0.7-5.2-2.2s-2.2-3.4-2-5.4c0-4,2.4-7.9,6.9-11.3c5.4-3.7,11.8-5.6,18.4-5.2c5.7-0.3,11.3,1.2,16,4.6
	c3.5,2.7,5.6,6.7,5.6,11.1v32c-0.2,1.9,0.3,3.9,1.3,5.6c0.7,1.2,1.9,2,3.2,2.4C756.2,97.1,758.4,97.3,760.8,97.3z M738.8,70.8
	c-10.6,1.5-18,3.9-22.4,7.1c-3.4,2.5-5.1,6.6-4.9,10.6c-0.2,2.7,0.8,5.4,2.7,7.6c1.7,1.9,4.2,2.7,6.7,2.7c4.9,0,9.4-2,12.8-5.6
	c3.5-3.7,5.6-8.8,5.4-14L738.8,70.8z M758.6,43.3l16.7-1c0.8,4,1.5,8.3,1.9,12.5c2.5-3.9,5.7-7.1,9.4-9.6c3.2-1.9,6.7-2.9,10.5-2.9
	c3.5-0.2,7.1,1,9.9,3.2c3,2.7,5.1,6.4,6.1,10.3c2.4-4,5.6-7.4,9.3-10.1c3.4-2.2,7.2-3.4,11.1-3.4c4.6-0.3,8.9,1.3,12,4.7
	c3.5,4.6,5.4,10.3,5.2,16.2v29c-0.2,1.3,0.3,2.7,1.3,3.5c1.5,1,3.4,1.5,5.2,1.5h2.7v4.7h-29.5v-4.7h2.9c1.9,0.2,3.7-0.3,5.2-1.2
	c1-1,1.7-2.4,1.5-3.7v-29c0.2-3.7-0.8-7.2-3.2-10.1c-2.2-2.4-5.2-3.7-8.4-3.5c-2.5,0-5.1,0.7-7.1,2c-2.2,1.5-3.9,3.5-5.1,5.9
	c-1.5,2.9-2.5,6.1-2.7,9.4v25.3c-0.2,1.3,0.3,2.9,1.3,3.9c1.2,0.8,2.7,1.3,4.2,1.2h4v4.7h-30v-4.7h3.5c1.7,0.2,3.4-0.3,4.7-1.2
	c1-0.7,1.5-2,1.5-3.2V66c0.3-4.4-0.7-8.8-3-12.5c-1.9-2.5-5.1-4-8.1-3.9c-3.9-0.2-7.8,1.5-10.1,4.6c-3.4,4.2-5.2,9.4-5.1,14.8v23.4
	c-0.2,1.3,0.3,2.7,1.2,3.7c1.5,1,3.4,1.5,5.2,1.3h3v4.7h-29.5v-4.7h4.4c1.3,0.2,2.7-0.3,3.9-1.2c0.8-0.8,1.3-2,1.3-3.2V54.6
	c0.2-1.7-0.5-3.4-1.7-4.7c-1.9-1.3-4.2-2-6.6-2v-4.7h1V43.3z M861.4,43.3l20.9-0.7V93c-0.2,1,0.2,2.2,1,2.9c1,0.8,2.4,1.3,3.5,1.2
	h6.6v4.7h-35.7v-4.7h8.6c1.5,0.2,2.9-0.3,4-1.3c0.8-1,1.3-2.5,1.3-3.9V55c0.2-2-0.7-3.9-2-5.2c-1.7-1.3-3.9-2-5.9-1.9h-2.4
	L861.4,43.3z M875.4,15.7c1.9,0,3.7,0.8,4.9,2.2c1.3,1.3,2.2,3,2.2,5.1c0,1.9-0.7,3.5-2,4.9c-2.7,2.7-7.2,2.7-9.9-0.2
	c-2.7-2.7-2.7-7.2,0.2-9.9C871.8,16.4,873.5,15.7,875.4,15.7L875.4,15.7z M891.9,43.3l19.4-1.2c0.8,4.2,1.5,8.6,1.7,12.8
	c2.2-3.9,5.4-7.2,9.3-9.6c3.7-2.2,7.9-3.2,12.1-3.2c3.4-0.2,6.7,0.7,9.8,2.4c2.9,1.7,5.1,4.2,6.2,7.2c1.7,3.5,2.4,7.2,2.4,11.1v28.5
	c-0.2,1.7,0.3,3.2,1.5,4.6c1.3,1,3,1.5,4.9,1.3h1.7v4.7h-26.1v-4.7h0.5c2,0.2,4-0.3,5.7-1.3c1.2-1,1.7-2.4,1.7-3.9V66.9
	c0.2-4.2-0.7-8.4-2.7-12.1c-2.2-3.7-6.2-5.9-10.6-5.6c-4.6,0-8.9,2-11.8,5.7c-3.4,4.2-4.9,9.4-4.7,14.8v21.7
	c-0.2,1.7,0.3,3.4,1.5,4.6c1.3,1,3.2,1.5,4.9,1.3h1.7v4.7h-28.5v-4.7h4c1.7,0.2,3.4-0.3,4.7-1.2c1-0.7,1.7-1.9,1.5-3.2V55.1
	c0.2-2-0.7-4.2-2-5.7c-1.7-1.3-3.7-2-5.9-1.9h-3L891.9,43.3z M1005.2,46.5c4.2-4.2,15.7-10.5,19.6-10.5c2.2-0.3,4.2,0.3,5.9,1.7
	c1.3,1.3-1.2,4.4-1.2,6.2c0,1.3-0.5,2.9-1.3,3.9s-2,1.5-3.2,1.5c-2.4,0-4-1.5-4.9-4.4c-0.3-1.2-0.8-1.9-1.7-1.9
	c-3.7,1.3-7.2,3.4-10.3,5.9c1.5,2,2.7,4,3.7,6.4c0.7,1.9,1,3.9,1,5.9c0,3.4-0.8,6.7-2.7,9.6c-2.2,3.2-5.2,5.7-8.8,7.4
	c-3.5,2-7.6,3-11.6,3.2H983c-3.2-0.3-6.6,0.2-9.6,1.5c-1.5,1-2.4,2.7-2.4,4.6c0,1.5,0.7,2.9,1.9,3.7c2.4,1,4.7,1.5,7.2,1.3l15.5-0.3
	c7.8,0,13.3,1.3,16.9,3.9c3.4,2.5,5.4,6.6,5.2,10.8c0,4.9-2,9.4-5.9,12.6c-5.4,4.9-13.7,7.2-24.4,7.2c-8.9,0-15.7-1.7-19.9-4.9
	c-3-1.9-5.1-5.1-5.2-8.8c0-2.7,1.2-5.1,3.2-6.7c3.2-2.5,7.1-4,11-4.6c-3.4-0.7-6.6-2.2-9.3-4.4c-2-1.9-3.2-4.6-3-7.2
	c0-2.5,0.8-5.1,2.7-6.9c2.4-2.4,5.4-4.2,8.8-5.1c-3.2-1.7-5.9-4-7.9-7.1c-1.9-2.9-2.7-6.2-2.7-9.6c0-5.6,2.4-10.8,6.7-14.3
	c4.9-4,11.1-6.1,17.4-5.7c2.9,0,5.7,0.3,8.4,1.2C1000.3,43.7,1002.8,45,1005.2,46.5z M992.5,102c-7.6,0-13.1,1-16.4,3.2
	c-2.9,1.5-4.7,4.4-4.9,7.8c0,2.7,1.3,5.2,3.7,6.7c4.2,2.4,9.1,3.5,13.8,3.2c5.6,0.3,11.3-0.8,16.2-3.5c3.7-2.4,5.4-5.1,5.4-7.9
	c0-1.7-0.7-3.4-1.7-4.7c-1.3-1.7-3.2-2.9-5.4-3.4C999.8,102.2,996.1,101.8,992.5,102L992.5,102z M988.8,45.5c-3.5,0-6.9,1.3-9.3,4
	c-2.5,3.2-3.9,7.2-3.5,11.5c-0.3,4.4,1,8.8,3.5,12.3c4.4,5.1,12,5.7,17,1.3c0.5-0.5,1-0.8,1.3-1.3c2.5-3.5,3.9-7.8,3.5-12.1
	c0.2-4.2-1-8.3-3.7-11.6C995.7,47.1,992.4,45.5,988.8,45.5L988.8,45.5z M1026.9,36.4c1.9,0,3.7,0.8,4.9,2.2c1.3,1.3,2.2,3,2.2,5.1
	c0,1.9-0.7,3.5-2,4.9c-2.7,2.7-7.2,2.7-9.9-0.2c-2.7-2.7-2.7-7.2,0.2-9.9C1023.4,37.3,1025.1,36.6,1026.9,36.4L1026.9,36.4z"/>
<path class="st0" d="M91.6,102.5h-1.3v-2h0.5c0.5,0,0.8,0,1.3,0.2c0.3,0.2,0.5,0.5,0.5,0.8C92.7,102,92.2,102.5,91.6,102.5
	L91.6,102.5 M93.9,101.3c0-0.7-0.3-1.2-0.8-1.7c-0.7-0.3-1.3-0.5-2-0.5h-2.2v6.7h1.3v-2.5h1.2l1.3,2.5h1.5l-1.5-2.7
	C93.4,103.2,94.1,102.3,93.9,101.3 M91.4,108.1c-2.9,0-5.2-2.4-5.2-5.2s2.4-5.2,5.2-5.2c2.9,0,5.2,2.4,5.2,5.2
	S94.3,108.1,91.4,108.1 M91.4,96.4c-3.5,0-6.6,2.9-6.6,6.6s2.9,6.6,6.6,6.6c3.5,0,6.6-2.9,6.6-6.6S94.9,96.4,91.4,96.4L91.4,96.4"/>
<path class="st0" d="M22.8,11.3C54-5.4,94.1,12.1,97.1,54.5C39.3,59.2,32.4,33.1,22.8,11.3z"/>
<path class="st0" d="M22.8,102.2C54,118.9,94.1,101.4,97.1,59C39.3,54.3,32.4,80.4,22.8,102.2z"/>
<path class="st0" d="M86.3,24.6C71.3,5,44.2-0.5,22.6,11.5c8.6,19.6,15.2,42.3,57.8,43.7C85.7,45.9,87.7,35.3,86.3,24.6L86.3,24.6z
	 M33.1,80.6c1.2,0,2.5,0.2,3.7,0.2c16.7,0,32.4-8.3,41.5-22.3C52.8,59.9,40.7,69.1,33.1,80.6L33.1,80.6z"/>
</svg>
