<?xml version="1.0" encoding="UTF-8"?> <svg xmlns="http://www.w3.org/2000/svg" id="Layer_1" data-name="Layer 1" version="1.1" viewBox="0 0 1000 1000"><g><path d="M222.1,94.3h-67.4V29.5h211.5v64.8h-67.5v164.4h-76.6V94.3Z" style="fill: #fff; stroke-width: 0px;"></path><path d="M368.5,144.7v-.7c0-66.5,54.7-119.5,125.4-119.5s124.7,52.5,124.7,118.9v.7c0,66.5-54.7,119.5-125.4,119.5s-124.7-52.4-124.7-118.9ZM541.3,144.7v-.7c0-27.2-18.7-51.7-48.1-51.7-29.1,0-47.5,24.3-47.5,51.1v.7c0,27.2,18.7,51.7,48.1,51.7s47.5-24.2,47.5-51.1Z" style="fill: #fff; stroke-width: 0px;"></path><path d="M639.7,29.5h103.1c60.9,0,102.5,27.2,102.5,81.5v.7c0,55.3-42.2,84.8-104.1,84.8h-24.9v62.2h-76.6V29.5ZM736.8,141.8c19.6,0,32.7-8.8,32.7-25.2v-.7c0-16.7-12.1-25.2-32.4-25.2h-21v51.1h20.7Z" style="fill: #fff; stroke-width: 0px;"></path></g><g><path d="M164,748.9v-.5c0-44.5,34.7-77.7,79.2-77.7s54.9,16,67.5,38.7l-41.1,24c-5.5-10.6-13.4-18.1-27-18.1s-27.9,14.7-27.9,32.6v.4c0,19.4,11.5,33,27.9,33s21.9-7.7,28.1-18.7l41.1,23.2c-12.6,22.1-33.4,40.2-70.4,40.2-41.4,0-77.4-31-77.4-77.1Z" style="fill: #fff; stroke-width: 0px;"></path><path d="M370.7,672.9h49.4l62.8,150h-54.1l-7.9-20h-52.1l-7.7,20h-53.2l62.8-150ZM408.5,767.6l-13.6-36.2-13.6,36.2h27.2Z" style="fill: #fff; stroke-width: 0px;"></path><path d="M489,673.9h46.6l53,65.8v-65.8h49.4v149h-44.3l-55.3-68.7v68.7h-49.4v-149h0Z" style="fill: #fff; stroke-width: 0px;"></path><path d="M655,673.9h49.8v106.5h70v42.6h-119.8v-149.1Z" style="fill: #fff; stroke-width: 0px;"></path><path d="M786.2,673.9h49.8v149h-49.8v-149Z" style="fill: #fff; stroke-width: 0px;"></path></g><g><path d="M152.7,912.9v-.3c0-36,28.1-63,64.2-63s44.5,12.9,54.7,31.4l-33.3,19.5c-4.5-8.6-10.9-14.7-21.9-14.7s-22.6,11.9-22.6,26.4v.3c0,15.7,9.3,26.7,22.6,26.7s17.8-6.2,22.8-15.2l33.3,18.8c-10.2,17.9-27.1,32.6-57.1,32.6-33.5,0-62.7-25.1-62.7-62.5Z" style="fill: #fff; stroke-width: 0px;"></path><path d="M320.2,851.3h40l50.9,121.6h-43.8l-6.4-16.2h-42.3l-6.2,16.2h-43.1l50.9-121.6ZM350.9,928l-11-29.3-11,29.3h22Z" style="fill: #fff; stroke-width: 0px;"></path><path d="M404.4,954.8l21.6-25.7c13.1,10,28.1,14.1,42.3,14.1s10.3-1.9,10.3-5.2v-.3c0-3.5-3.8-5.3-16.7-7.9-27.1-5.5-50.9-13.3-50.9-38.8v-.3c0-22.9,17.9-40.7,51.2-40.7s40.5,5.5,54.5,16.6l-19.7,27.2c-11.4-8.3-25-11.9-36.2-11.9s-8.8,2.1-8.8,5v.3c0,3.3,3.3,5.3,16,7.8,30.9,5.7,51.6,14.7,51.6,39v.3c0,25.4-20.9,40.9-53.3,40.9-24.5,0-46.6-7-61.9-20.4Z" style="fill: #fff; stroke-width: 0px;"></path><path d="M529.2,852.2h40.4v120.7h-40.4v-120.7Z" style="fill: #fff; stroke-width: 0px;"></path><path d="M583.7,852.2h37.8l42.9,53.3v-53.3h40v120.7h-35.9l-44.8-55.7v55.7h-40v-120.7Z" style="fill: #fff; stroke-width: 0px;"></path><path d="M715.5,912.9v-.3c0-35,28.8-63,66.1-63s65.7,27.6,65.7,62.6v.3c0,35-28.8,63-66.1,63s-65.7-27.6-65.7-62.6ZM806.6,912.9v-.3c0-14.3-9.8-27.3-25.4-27.3s-25,12.8-25,26.9v.3c0,14.3,9.8,27.2,25.4,27.2,15.3,0,25-12.7,25-26.8Z" style="fill: #fff; stroke-width: 0px;"></path></g><g><path d="M454.6,460.3c14.8,17.8,22.2,39.3,22.2,64.5s-5.9,41.4-17.6,59.9c-11.7,18.5-29.8,33.6-54.3,45.1-24.5,11.5-54.9,17.3-91.2,17.3s-50.2-2.7-75.2-8.2c-25-5.4-46.8-13.4-65.5-24l40.8-88.7c14.6,8.5,30.3,15,47.1,19.4,16.8,4.4,33,6.6,48.7,6.6s25.1-2.4,33.6-7.1c8.5-4.8,12.7-11.5,12.7-20.4,0-16.3-14.1-24.5-42.3-24.5h-47.4v-73.9l52.5-53.5h-127.4v-90.7h266v73.9l-66.3,67.3c27.5,6.8,48.7,19.1,63.5,36.9Z" style="fill: #fff; stroke-width: 0px;"></path><path d="M581.5,624.9c-24.3-14.8-43.3-36.2-57.1-64.2-13.8-28-20.6-61.4-20.6-100.1s6.9-72.1,20.6-100.1c13.8-28,32.8-49.4,57.1-64.2,24.3-14.8,52.2-22.2,83.8-22.2s59.5,7.4,83.8,22.2c24.3,14.8,43.3,36.2,57.1,64.2,13.8,28,20.6,61.4,20.6,100.1s-6.9,72.1-20.6,100.1c-13.8,28-32.8,49.4-57.1,64.2-24.3,14.8-52.2,22.2-83.8,22.2s-59.6-7.4-83.8-22.2ZM706.2,460.6c0-60.1-13.6-90.2-40.8-90.2s-40.8,30.1-40.8,90.2,13.6,90.2,40.8,90.2,40.8-30.1,40.8-90.2Z" style="fill: #fff; stroke-width: 0px;"></path></g></svg> 