<?xml version="1.0" encoding="UTF-8"?> <svg xmlns="http://www.w3.org/2000/svg" xmlns:xlink="http://www.w3.org/1999/xlink" version="1.1" id="Layer_1" x="0px" y="0px" viewBox="0 0 1000 1000" style="enable-background:new 0 0 1000 1000;" xml:space="preserve"> <g> <g> <path style="fill:#FDC440;" d="M455.4,527.1c3.4,25,10,48.4,19.6,71.6c-19.2-4.5-38.2-4.5-57.5,0c9.7-23.1,16.2-46.7,19.7-71.5 c-3.4,2.7-6.3,5.3-9.4,7.6c-39.4,28.4-95.2,5.7-102.7-42.1c-5.5-35.2,5.1-65.4,31.9-89.3c15.2-13.6,30.9-26.7,46.2-40.2 c13.5-12,26.4-24.6,36.6-39.7c2.3-3.4,4.3-6.9,6-9.8c4.7,6.8,9.1,14.2,14.4,20.8c9.8,12.4,21.6,23,33.6,33.2 c14.1,12.1,28.3,24.2,42.4,36.2c18.7,16,28.8,36.6,32,60.7c2.3,17.2,0.9,34.1-8.1,49.3c-13.9,23.6-35.2,34.4-62.5,32.8 c-15.5-0.9-28.8-7.4-40.1-17.9C457,528.4,456.5,528,455.4,527.1z"></path> <path style="fill:#FDC440;" d="M674.2,186.6c4.5-0.7,9.1-1.4,13.6-2.1c-1.1-9.4-4.5-17.9-10.8-25.5c-10-11.9-22.9-17.8-38.4-17.8 H253.3c-28.1,0-49.5,21.4-49.5,49.6v411.6c4.9-0.7,9.3-1.2,13.8-1.8c0-1.5,0-2.7-0.1-3.7V189.5c0-18.7,15.7-34.5,34.3-34.5 c129.4-0.1,258.7-0.1,388,0c3.1,0,6.4,0.5,9.4,1.4C663.2,160.5,672.5,172.1,674.2,186.6z"></path> <path style="fill:#FDC440;" d="M143.2,620.6c-2.3-8.4-4.5-16.5-6.7-24.7c-12.7-47.4-25.4-94.8-38.2-142.2 C87.6,413.9,77,374.1,66.4,334.4c-1.9-7-4.1-14.1-4.9-21.2c-2.8-23.7,12.3-45.7,35.5-52c26.4-7.2,52.8-14.2,79.3-21.3 c3.1-0.8,6-0.8,8.2,1.8c1.7,2,2.2,4.4,1.2,6.9s-2.9,3.7-5.5,4.4c-26.3,7-52.7,14.1-79,21.2c-19.1,5.1-30.3,23.9-25.3,43 c15.8,59.4,31.8,118.7,47.7,178.1c9.9,37,19.8,74.1,29.7,111.2c0.6,2.4,1.2,4.8,1.9,7.1c0.4,1.2,0.3,2-1.1,2.5 C150.8,617.4,147.2,619,143.2,620.6z"></path> <path style="fill:#FDC440;" d="M261.8,252.1c2.9,5.4,8,9,12.5,13c3.4,3,6.8,5.8,8.1,10.6c1.7,6.2,0.7,11.7-3.4,15 c-4.4,3.5-9,3.5-15.8-0.3c1.1,4.1,2,7.8,3,11.6c-3.1,0-6.1,0-9.4,0c1-3.8,2-7.5,3.1-11.7c-3.6,2.3-6.8,3.7-10.5,3 c-7.3-1.4-11.3-9-9.1-16.5c1.5-5.2,4.9-8.5,8.7-11.8c2.3-1.9,4.6-3.8,6.8-6C258,256.8,259.8,254.4,261.8,252.1z"></path> <path style="fill:#FDC440;" d="M150.8,410.1c-3.1,0.8-6,1.6-9.2,2.5c0-3.8,0-7.6,0-11.7c-2.1,1.5-3.6,3.1-5.5,3.9 c-8.3,3.6-16.3-1.8-17-11.3c-0.3-4.3,0.8-8.3,3.3-11.8c2.1-3,4.2-5.9,6.1-9.1c1.8-2.9,3.2-6.1,4.9-9.3c5.6,5.4,13.3,7.6,20.2,11.5 c5.5,3,8.3,7.9,8.6,14c0.5,7.6-7.1,13.5-14.6,11.6c-0.8-0.2-1.5-0.5-3.1-1C146.9,403.4,148.8,406.6,150.8,410.1z"></path> <path style="fill:#FDC440;" d="M264.4,180.6c4.9,13.2,9.7,26.4,14.5,39.5c0.5,1.3,1.1,2.5,1.5,3.8c1.3,3.7,3.2,6.6,7.7,6.5 c0,1.2,0,2.1,0,3.1c-7.6,0-15.1,0-22.8,0c0-0.9,0-1.9,0-2.9c0.7-0.2,1.4-0.3,2.1-0.5c1.8-0.5,2.6-1.6,2-3.5c-1-2.9-2-5.9-3.1-8.7 c-0.2-0.6-1.3-1.2-2-1.2c-3.9-0.1-7.8-0.1-11.8,0c-0.8,0-1.9,0.9-2.2,1.6c-1,2.3-1.8,4.8-2.5,7.2c-0.8,2.8-0.3,3.8,2.7,4.4 c2.1,0.4,2.9,1.2,2.1,3.5c-5.8,0-11.7,0-17.7,0c0-1,0-1.8,0-3.1c5.6,0.3,7.1-3.8,8.7-7.9c5-12.7,10.2-25.3,15.1-38 C259.9,181.8,261.4,180.5,264.4,180.6z M252.4,212c4.1,0,7.8,0,11.9,0c-1.9-5.5-3.7-10.8-5.5-16.1c-0.2,0-0.4,0-0.6,0 C256.4,201.2,254.5,206.4,252.4,212z"></path> <path style="fill:#FDC440;" d="M126.9,291.8c0.3,1.1,0.5,1.9,0.7,2.6c-0.1,0.2-0.2,0.4-0.3,0.5c-5,2.4-5.1,2.6-3.8,7.9 c2.8,10.8,5.8,21.6,8.4,32.5c2.4,10-1.5,19.2-9.8,24.5c-0.5,0.3-1.1,0.6-1.8,1c-0.6-0.8-1.2-1.6-2-2.6c6.3-4.6,5.3-10.9,3.8-17 c-2.9-12-6.1-24-9.4-35.9c-1.3-4.8-2.1-5.1-8.2-4.4c-0.2-0.9-0.5-1.8-0.8-2.8C111.5,295.9,119.1,293.9,126.9,291.8z"></path> <g> <path style="fill:#FDC440;" d="M96.6,672.7H65.1l5.2-20.7H160l-5.2,20.7h-31.5l-21.7,86.6H74.8L96.6,672.7L96.6,672.7z"></path> <path style="fill:#FDC440;" d="M158.2,749.8c-7-7.4-8.7-17.9-5.3-31.4l16.6-66.4h26.8l-16,63.9c-1.9,7.4-1.4,13,1.5,16.7 s8.1,5.5,15.4,5.5c7.3,0,13.4-1.9,18.1-5.5c4.7-3.7,8-9.2,9.9-16.7l16-63.9H268l-16.6,66.4c-3.4,13.5-10.4,24-21,31.4 c-10.7,7.4-23.6,11.1-38.8,11.1C176.3,760.9,165.2,757.2,158.2,749.8z M199.2,622.3h19.7l-4.5,18.1h-19.7L199.2,622.3z M233.5,622.3h19.7l-4.5,18.1H229L233.5,622.3z"></path> <path style="fill:#FDC440;" d="M284.1,652.1h53.6c12.3,0,20.7,3.2,25.3,9.7c4.5,6.5,5.4,15.5,2.5,27.1c-1.8,7.2-5.2,13.5-10.2,19 c-4.9,5.4-11,9.4-18.1,12.2c1.1,1.2,2,2.6,2.6,4s1.1,3.6,1.7,6.3l5.4,28.9h-28l-5.2-27.2c-0.4-2.5-1.3-4.2-2.5-5.2 c-1.3-1-3.4-1.5-6.3-1.5h-12.3l-8.5,34h-26.8L284.1,652.1z M317.6,704.7c5.4,0,9.8-1.4,13.3-4c3.6-2.6,6-6.6,7.3-11.8 c2.7-10.7-1.1-16.2-11.4-16.2h-20.9l-8,32H317.6L317.6,704.7z"></path> <path style="fill:#FDC440;" d="M388.3,652.1h26.8l-10.4,41.6l47.3-41.6h30.6l-49.2,43.7l24.7,63.4h-28.5l-17-46.3l-16.1,13.8 l-8.1,32.4h-26.8L388.3,652.1L388.3,652.1z"></path> <path style="fill:#FDC440;" d="M126.5,776.7h53.9l-3.5,14h-35.6l-3.8,15.3h31.4l-3.6,14.3h-31.4l-3.8,15.3h35.5l-3.5,14h-53.9 L126.5,776.7z"></path> <path style="fill:#FDC440;" d="M214.7,776.7h19.7l9.7,73H225l-2.4-16.5h-24.4l-10.6,16.5h-19.1L214.7,776.7z M223.4,819.7 l-3.4-25.4l-16,25.4H223.4z"></path> <path style="fill:#FDC440;" d="M271.5,776.7h18.2l-14.7,59h34.5l-3.5,14h-52.7L271.5,776.7z"></path> <path style="fill:#FDC440;" d="M329.6,776.7h53.9l-3.5,14h-35.6l-3.8,15.3H372l-3.6,14.3H337l-3.8,15.3h35.6l-3.5,14h-53.9 L329.6,776.7z"></path> <path style="fill:#FDC440;" d="M392.1,776.7h36.5c8.4,0,14.1,2.2,17.2,6.6c3.1,4.4,3.7,10.6,1.7,18.4c-1.2,4.9-3.5,9.2-6.9,12.9 s-7.5,6.5-12.4,8.3c0.8,0.9,1.4,1.7,1.8,2.7s0.8,2.4,1.1,4.3l3.7,19.7h-19.1l-3.5-18.5c-0.3-1.7-0.8-2.8-1.8-3.5 c-0.9-0.7-2.3-1-4.3-1h-8.4l-5.8,23.1h-18.2L392.1,776.7L392.1,776.7z M414.9,812.5c3.7,0,6.6-0.9,9.1-2.7c2.4-1.8,4.1-4.5,5-8.1 c1.8-7.3-0.7-11-7.8-11h-14.3l-5.4,21.8H414.9L414.9,812.5z"></path> <path style="fill:#FDC440;" d="M54.3,776.8H86c11.4,0,19.3,2.9,23.5,8.8c4.3,5.8,4.8,15.2,1.5,28.2c-3.1,12.3-8.3,21.4-15.4,27.2 c-7.2,5.9-16.5,8.8-27.9,8.8H36.1L54.3,776.8z M68.7,835.7c4.3,0,7.8-0.6,10.7-1.8c2.9-1.2,5.4-3.4,7.5-6.6 c2.1-3.1,4-7.7,5.4-13.6c1.5-6,2.1-10.6,1.6-13.9c-0.4-3.3-1.7-5.6-4-7s-5.6-2-10-2H69l-11.2,44.9L68.7,835.7L68.7,835.7z"></path> </g> <g> <path style="fill:#FFFFFF;" d="M717.3,652.1L576.1,858.9h-47.3l-37.5-206.8H543l26,147.7l100.8-147.7H717.3z"></path> <path style="fill:#FFFFFF;" d="M719.1,652.1H767l-51.7,206.8h-47.9L719.1,652.1z"></path> <path style="fill:#FFFFFF;" d="M935.6,661.2c12,6.1,20.2,14.8,24.7,26s4.8,24.5,1,39.9c-3.8,15.2-10.8,28.4-20.9,39.7 c-10.1,11.3-22.7,20-37.7,26s-31.7,9-50,9H811l-14.3,57h-47.9L800.5,652H890C908.5,652.1,923.6,655.1,935.6,661.2z M894.9,753.6 c9-6.2,15-15,17.8-26.4c2.9-11.6,1.4-20.5-4.5-26.7s-16.1-9.3-30.5-9.3h-39l-18,71.8h39C874.2,762.9,885.9,759.8,894.9,753.6z"></path> </g> </g> <g> <path style="fill:#FFFFFF;" d="M621.6,387.4l4.2-13.8c29.8-4.3,53.8-10.6,72-19c24.4-10.7,42.2-23.3,53.4-37.6 c11.1-14.4,16.7-29.8,16.7-46.3c0-14.1-5-26.3-15.1-36.3c-10.1-10.1-22.6-15.1-37.6-15.1c-11.8,0-22.7,3.1-32.8,9.3 c-10.1,6.2-21,17-32.8,32.5l-12.9-6.4c18-27,36.1-46.3,54.2-57.9c18.1-11.6,38.4-17.4,60.9-17.4c28.3,0,51.2,8,68.8,24 c17.6,16,26.4,35.1,26.4,57.4c0,17.6-4.3,32.9-12.9,46c-8.6,13.1-21.2,24.4-37.9,34.1c-12.2,7.1-31.4,14.3-57.6,21.5 c23.8,10.3,40.5,21.9,50.2,34.7c14.4,19.1,21.5,42.1,21.5,69.1c0,50.6-21.9,92.4-65.6,125.4c-36.7,27.9-79.1,41.8-127.3,41.8 c-25.7,0-45.1-4.8-58.2-14.5c-9-6.6-13.5-15.4-13.5-26.4c0-9.9,3.4-18,10.3-24.4c6.9-6.4,15.3-9.6,25.4-9.6 c5.1,0,10.1,1.1,14.8,3.2c8.1,3.4,20.4,10.7,36.7,21.7c16.3,11,29.8,16.6,40.5,16.6c13.3,0,25-6.8,35-20.3 c14.8-19.9,22.2-44.9,22.2-74.9c0-23.4-4.7-43.8-14.1-61.4c-9.4-17.6-21.5-30.6-36.3-39.1C665.4,395.9,645.8,390.2,621.6,387.4z"></path> </g> </g> </svg> 