<?xml version="1.0" encoding="utf-8"?>
<!-- Generator: Adobe Illustrator 24.1.2, SVG Export Plug-In . SVG Version: 6.00 Build 0)  -->
<svg version="1.1" id="Layer_1" xmlns="http://www.w3.org/2000/svg" xmlns:xlink="http://www.w3.org/1999/xlink" x="0px" y="0px"
	 viewBox="0 0 268.7 47.3" style="enable-background:new 0 0 268.7 47.3;" xml:space="preserve">
<style type="text/css">
	.st0{fill:#C8197B;}
	.st1{fill:#FFFFFF;}
</style>
<g>
	<path class="st0" d="M18.4,3.3c0.7,0.7,1.3,1.5,1.8,2.3c1.9,3.2,1.2,6.3-0.5,9.2c-1.5,2.6-3.6,4.6-5.8,6.7c-1.5,1.4-2.7,3.1-3.6,5
		c-1.7,3.7-0.4,7.9,2.9,10.2c4.9,3.5,10.6,0.7,12.7-2.6c1.5-2.2,1.4-4.6,0.4-7c-0.1-0.1-0.1-0.3-0.2-0.4c-0.6-1.3-0.7-1.3-2.1-0.9
		c-1.1,0.4-2.1,0.9-2.9,1.8c-0.6,0.7-1,1.5-1.1,2.3c-0.1,0.3-0.1,0.5-0.4,0.6c-0.3,0-0.5-0.2-0.7-0.4c-0.3-0.5-0.4-1.1-0.4-1.7
		c-0.1-3,0.2-6,1.8-8.6c0.9-1.5,2.1-2.7,3.4-3.9c0.5-0.4,0.9-0.8,1.4-1.3c0.1-0.1,0.2-0.2,0.3-0.1c0.1,0,0.1,0.2,0.1,0.3
		c0,2,1.2,3.3,2.9,4.2c1.2,0.6,2.4,1.1,3.5,1.8c1.8,1,3.1,2.4,3.6,4.4c0.1,0.4,0.1,0.9,0.1,1.3c0,2.7,0,5.4,0,8.1
		c0,1.9-0.9,3.2-2.4,4.3c-2.7,1.8-5.6,3.4-8.4,5c-1.4,0.8-2.7,1.6-4.1,2.2c-1.7,0.7-3.4,0.7-5-0.2c-1.9-1-3.8-2.2-5.7-3.3
		c-2-1.1-3.9-2.3-5.8-3.4c-1.9-1.1-2.8-2.7-2.9-4.9c0-4.5,0-9,0-13.5c0-2.3,1.3-3.9,3.2-5c3.7-2.1,7.4-4.2,11-6.4
		c0.5-0.3,1-0.6,1.4-1c1.3-1.1,1.9-2.5,1.6-4.2c-0.1-0.3-0.1-0.7-0.1-1C18.4,3.3,18.4,3.3,18.4,3.3z"/>
	<path class="st1" d="M83,30.6c0-2.5,0-5.1,0-7.6c0-1.5,0-1.5,1.5-1.5c0.5,0,1.1,0,1.6,0c0.8,0,1.5-0.1,1.4,1.1
		c-0.1,0.6,0.3,0.4,0.6,0.2c2.3-2,5-2,7.7-1.2c1,0.3,1.9,0.9,2.6,1.8c0.4,0.5,0.6,0.6,1,0.1c1.7-2.4,6.9-2.9,9.3-1.6
		c1.7,0.9,2.7,2.4,3.2,4.2c0.3,1.3,0.4,2.6,0.4,3.9c0,2.9,0,5.9,0,8.8c0,0.7-0.2,0.9-0.9,0.9c-0.9,0-1.8,0-2.7,0
		c-0.7,0-0.9-0.3-0.9-0.9c0-3,0-6.1,0-9.1c0-0.5,0-0.9-0.1-1.4c-0.3-2-1.5-3-3.3-3.2c-2.1-0.2-3.6,0.8-4.3,2.6
		c-0.3,0.7-0.3,1.4-0.3,2.2c0,2.9,0,5.9,0,8.8c0,0.8-0.2,1.1-1,1c-0.8-0.1-1.6-0.1-2.3,0c-0.8,0.1-1.1-0.2-1.1-1
		c0.1-2.7,0-5.4,0-8.2c0-0.7,0-1.3-0.1-2c-0.2-2.1-1.3-3.2-3.2-3.4c-2.3-0.2-4,0.9-4.5,2.8c-0.2,0.7-0.2,1.4-0.2,2.1
		c0,2.9,0,5.8,0,8.7c0,0.7-0.2,1-1,1c-1.1-0.1-2.5,0.4-3.2-0.2c-0.7-0.6-0.2-2.1-0.2-3.1C83,34.4,83,32.5,83,30.6z"/>
	<path class="st1" d="M56.8,30.7c0,2.3-0.1,4.7,0,7c0.2,6-4.4,9.7-10.4,8.8c-3.7-0.5-6.2-2.8-7-6c-0.2-0.7,0-1,0.7-0.9
		c0.4,0,0.8,0,1.2,0c1.3-0.1,2.3,0.1,3.1,1.4c1.1,1.8,3.1,1.9,4.9,1.5c1.8-0.4,2.8-1.7,3.2-3.4c0.1-0.2,0.1-0.5,0.1-0.7
		c0-0.5,0.3-1.3-0.2-1.6c-0.4-0.2-0.8,0.4-1.2,0.7c-4.6,2.3-12,0.4-12.3-7.4c-0.1-3.3,1-6.1,4-7.8c3-1.7,6.1-1.7,9,0.2
		c0.6,0.4,0.8,0.3,0.7-0.4c0-0.6,0.3-0.7,0.8-0.7c0.8,0,1.6,0,2.4,0c0.8,0,1,0.3,1,1C56.8,25.2,56.8,28,56.8,30.7z M43,29.8
		c0,2.8,2.1,4.9,4.9,4.8c2.7,0,4.8-2.2,4.8-4.9c0-2.8-2.1-4.9-4.8-4.9C45.1,24.8,43,26.9,43,29.8z"/>
	<path class="st1" d="M163.3,30.8c0,2.7,0.1,5.4,0,8.1c-0.1,4-2.8,6.9-6.6,7.6c-4.7,0.8-8.7-1-10.3-4.6c0-0.1-0.1-0.1-0.1-0.2
		c-0.8-1.9-0.7-2,1.3-2c0.3,0,0.6,0,0.8,0c1-0.1,1.7,0.1,2.3,1.2c0.9,1.7,2.6,2,4.4,1.9c1.8-0.2,3-1.1,3.7-2.7
		c0.2-0.4,0.3-0.9,0.3-1.3c0.1-0.6,0.3-1.4-0.1-1.7c-0.5-0.4-0.9,0.4-1.4,0.6c-3.1,1.3-6.1,1.3-8.9-0.7c-2.9-2-3.7-5-3.3-8.4
		c0.8-6.4,7.4-9.5,12.9-6c0.4,0.3,0.7,0.4,0.7-0.3c0-0.6,0.2-0.8,0.8-0.8c1.1,0.1,2.4-0.4,3.1,0.2c0.7,0.6,0.2,2,0.3,3
		C163.4,26.7,163.4,28.7,163.3,30.8C163.3,30.8,163.3,30.8,163.3,30.8z M154.4,34.6c2.7,0,4.8-2.1,4.8-4.8c0-2.8-2.1-5-4.8-5
		c-2.9,0-4.9,2-4.9,5C149.6,32.6,151.7,34.6,154.4,34.6z"/>
	<path class="st1" d="M231.7,34.4c0-3.9,0-7.9,0-11.8c0-0.9,0.3-1.2,1.1-1.1c0.6,0.1,1.3,0,1.9,0c0.8,0,1.5-0.1,1.4,1.1
		c0,0.6,0.4,0.2,0.6,0.1c1.9-1.4,4-1.8,6.2-1.5c3.9,0.5,6.7,3.2,7.3,7.4c0.6,3.5-0.1,6.8-2.9,9.3c-2.9,2.6-7.5,2.8-10.6,0.6
		c-0.2-0.1-0.3-0.5-0.6-0.3c-0.2,0.1-0.1,0.4-0.1,0.7c0,2.5,0,5,0,7.4c0,0.8-0.2,1.1-1,1c-0.8-0.1-1.6-0.1-2.4,0c-0.7,0-1-0.2-1-1
		c0-2,0-4,0-6.1C231.7,38.3,231.7,36.3,231.7,34.4z M235.9,31.2c0,1.5,0.8,3.4,3,4.4c2.2,1,4.8,0.2,6.2-1.7c1.5-2.1,1.3-5.5-0.4-7.3
		c-1.4-1.5-3.7-2.1-5.6-1.3C237.1,26.1,235.9,28,235.9,31.2z"/>
	<path class="st1" d="M78.7,30.6c0,2.7,0,5.3,0,8c0,0.8-0.2,1.1-1,1c-0.8-0.1-1.6,0-2.3,0c-0.7,0-1.1-0.1-1-0.9
		c0.1-0.5-0.1-0.7-0.6-0.4c-6.4,3.8-13,0.5-13.6-6.8c-0.3-4,0.8-7.4,4.6-9.4c3-1.6,6-1.5,8.8,0.5c0.6,0.4,0.9,0.5,0.8-0.4
		c0-0.7,0.3-0.7,0.8-0.8c3.5-0.2,3.5-0.2,3.5,3.3C78.7,26.8,78.7,28.7,78.7,30.6z M64.5,31.2c0,1.6,0.8,3.5,2.9,4.4
		c2.6,1.2,5.4,0.1,6.5-2.4c1.3-2.9,0.3-6.5-2.3-7.8c-0.5-0.2-1-0.4-1.6-0.5C66.7,24.8,64.5,27,64.5,31.2z"/>
	<path class="st1" d="M202.9,40.1c-5.6,0-9.6-4-9.5-9.6c0-5.5,4.1-9.4,9.6-9.4c5.6,0,9.6,4,9.6,9.5
		C212.5,36.2,208.5,40.1,202.9,40.1z M208.1,30.6c0-3.2-2.1-5.6-5.1-5.6c-3,0-5.3,2.3-5.3,5.6c0,3.2,2.2,5.6,5.1,5.6
		C205.9,36.2,208.1,33.8,208.1,30.6z"/>
	<path class="st1" d="M129.7,23.1c2.1-2.1,4.6-2.3,7.3-1.8c2.9,0.6,5,3,5.1,6.4c0.2,3.7,0.1,7.5,0.1,11.2c0,0.5-0.2,0.7-0.7,0.7
		c-1,0-1.9,0-2.9,0c-0.7,0-0.9-0.3-0.9-0.9c0-3.2,0-6.4,0-9.6c0-3.4-3-5.2-6-3.7c-1.6,0.8-2.2,2.2-2.2,3.9c0,3-0.1,6,0,9
		c0,1.1-0.3,1.4-1.3,1.3c-1-0.1-2.3,0.4-2.9-0.3c-0.6-0.6-0.2-1.9-0.2-2.9c0-4.6,0-9.2,0-13.8c0-1,0.3-1.3,1.2-1.2
		c0.5,0.1,1,0,1.5,0C129.4,21.5,129.4,21.5,129.7,23.1z"/>
	<path class="st1" d="M184.5,21.1c2.3,0.1,4.6,0.8,6.6,2.4c0.5,0.4,0.5,0.7,0.2,1.2c-0.5,0.7-1,1.4-1.4,2.1
		c-0.4,0.6-0.7,0.5-1.1,0.1c-0.8-0.9-1.9-1.4-3-1.6c-2.2-0.4-4.2-0.2-5.6,1.8c-1.4,2-1.4,4.3-0.2,6.4c1.5,2.6,5.2,3.1,8.1,1.2
		c0.5-0.3,0.9-1.2,1.6-1c0.5,0.2,0.8,1,1.1,1.5c1.2,1.8,1.2,1.9-0.7,3.1c-4.3,2.7-10.4,1.9-13.2-1.8c-2.5-3.3-2.7-7-1-10.6
		C177.1,22.7,180.2,21.1,184.5,21.1z"/>
	<path class="st1" d="M259.2,40c-2.4-0.1-4.6-0.7-6.3-2.5c-0.5-0.6-0.7-1,0-1.6c0.6-0.5,1.1-1.1,1.7-1.6c0.4-0.4,0.6-0.4,0.9,0.1
		c0.9,1.3,2.2,1.9,3.7,1.9c1.3,0,2.2-0.7,2.4-1.7c0.2-1-0.3-1.7-1.5-2.3c-0.9-0.4-1.9-0.7-2.9-1c-3.1-1.2-4.5-3.9-3.5-6.6
		c0.7-2,2.3-3,4.3-3.3c2.5-0.3,4.7,0.2,6.5,2.1c0.4,0.5,0.5,0.8-0.1,1.2c-0.2,0.1-0.4,0.3-0.6,0.5c-0.5,0.4-1,1.1-1.5,1.3
		c-0.7,0.2-0.9-0.8-1.5-1c-0.3-0.1-0.5-0.3-0.8-0.3c-1.1-0.3-2.2,0-2.5,0.8c-0.3,0.8,0.2,1.5,1.5,2c1,0.4,2,0.7,3,1.1
		c2.9,1.3,4.2,3.4,3.7,6.2c-0.4,2.5-2.5,4.5-5.5,4.9C260,40,259.5,40,259.2,40z"/>
	<path class="st1" d="M220.3,22.9c1.1-1.3,2.4-1.8,3.9-1.8c2.9-0.1,5.3,2.8,4.7,5.6c-0.1,0.4-0.3,0.5-0.7,0.5c-1,0-2,0-3,0
		c-0.5,0-0.6-0.3-0.8-0.7c-0.3-1-0.9-1.5-1.9-1.5c-1,0-1.6,0.5-2,1.3c-0.3,0.8-0.4,1.6-0.4,2.4c0,3.3,0,6.6,0,10c0,0.7-0.2,1-1,1
		c-1.1-0.1-2.5,0.4-3.2-0.2c-0.8-0.7-0.2-2.1-0.2-3.1c0-4.6,0-9.1,0-13.7c0-0.8,0.2-1.2,1.1-1.1c0.6,0.1,1.1,0,1.7,0
		C219.5,21.4,220.5,21.3,220.3,22.9z"/>
	<path class="st1" d="M120.7,30.6c0,2.7,0,5.4,0,8.1c0,0.7-0.2,1-0.9,0.9c-0.9,0-1.8,0-2.8,0c-0.5,0-0.8-0.1-0.8-0.7
		c0-5.5,0-11.1,0-16.6c0-0.6,0.3-0.8,0.8-0.8c0.9,0,1.8,0,2.6,0c0.8,0,1,0.3,0.9,1C120.7,25.2,120.7,27.9,120.7,30.6z"/>
	<path class="st1" d="M118.6,12.1c1.5,0.1,2.6,1.3,2.6,2.8c-0.1,1.5-1.3,2.6-2.8,2.5c-1.5-0.1-2.6-1.2-2.5-2.7
		C115.9,13.2,117.1,12,118.6,12.1z"/>
</g>
</svg>
