<?xml version="1.0" encoding="utf-8"?>
<!-- Generator: Adobe Illustrator 24.3.0, SVG Export Plug-In . SVG Version: 6.00 Build 0)  -->
<svg version="1.1" id="Layer_1" xmlns="http://www.w3.org/2000/svg" xmlns:xlink="http://www.w3.org/1999/xlink" x="0px" y="0px"
	 viewBox="0 0 236.8 57.4" style="enable-background:new 0 0 236.8 57.4;" xml:space="preserve">
<g>
	<path style="fill:#FFFFFF;" d="M25.5,27.1l23.2-13.4L25.5,0.3L2.3,13.7L25.5,27.1z"/>
	<path style="fill:#FFFFFF;" d="M23.8,30L0.6,16.6v26.8l23.2,13.4V30z"/>
	<path style="fill:#FFFFFF;" d="M27.2,30v26.8l23.2-13.4V16.6L27.2,30z"/>
</g>
<g>
	<path style="fill:#FFFFFF;" d="M63.8,24.4c2.4,0,3.6-0.9,3.6-2.7v-1c0-1.8-0.9-2.7-3.3-2.7c-2.4,0-3.4,0.9-3.4,2.7v0.5
		c0,0.6-0.3,0.9-0.9,0.9h-3c-0.7,0-0.8-0.3-0.8-0.9V20c0-3.1,1.7-5.9,8.2-5.9c6.4,0,8.1,2.8,8.1,5.8v2.6c0,1.9-0.7,3.1-2.7,3.8
		c2.3,0.8,3.1,2.3,3.1,4.1v3.2c0,3-1.9,5.8-8.4,5.8c-6.5,0-8.4-2.9-8.4-5.9v-1.2c0-0.6,0.2-0.9,0.9-0.9h3c0.7,0,0.9,0.3,0.9,0.9v0.5
		c0,1.8,1.2,2.7,3.6,2.7c2.4,0,3.6-0.9,3.6-2.7v-1.8c0-1.8-1.1-2.7-3.6-2.7h-2.8c-0.7,0-0.9-0.3-0.9-0.9v-2.1c0-0.7,0.3-0.9,0.9-0.9
		H63.8z"/>
	<path style="fill:#FFFFFF;" d="M76.8,39c-0.6,0-0.8-0.3-0.8-0.9V15.3c0-0.7,0.2-0.9,0.9-0.9h7.9c6.6,0,8.9,2.9,8.9,5.9v12.9
		c0,3-2.3,5.9-8.9,5.9H76.8z M80.9,18.4V35h3.9c2.5,0,4-0.9,4-2.7V21.1c0-1.8-1.5-2.7-4-2.7H80.9z"/>
	<path style="fill:#FFFFFF;" d="M115.2,20.6c0-1.8-1.2-2.6-3.5-2.6c-2.4,0-3.6,0.8-3.6,2.6v0.5c0,1.3,0.9,1.7,1.5,2l6.3,2.3
		c2.5,0.9,4.3,2.5,4.3,5.2v2.8c0,3.1-2.1,5.9-8.6,5.9c-6.5,0-8.7-2.9-8.7-5.9v-2.3c0-0.7,0.3-0.9,0.9-0.9h3.1c0.7,0,0.9,0.3,0.9,0.9
		v1.6c0,1.8,1.4,2.6,3.9,2.6c2.4,0,3.8-0.8,3.8-2.6v-1.2c0-1.5-1.5-2.1-3.1-2.7l-5.6-2.1c-1.7-0.7-3.3-2.5-3.3-4.7V20
		c0-3.1,1.9-5.9,8.2-5.9s8.4,2.9,8.4,5.9v1.5c0,0.6-0.3,0.9-0.9,0.9h-3c-0.6,0-0.8-0.3-0.8-0.9V20.6z"/>
	<path style="fill:#FFFFFF;" d="M128.4,35h8.1c0.6,0,0.9,0.2,0.9,0.9v2.3c0,0.7-0.3,0.9-0.9,0.9h-12.2c-0.5,0-0.8-0.3-0.8-0.9V15.3
		c0-0.7,0.2-0.9,0.9-0.9h3.2c0.7,0,0.9,0.3,0.9,0.9V35z"/>
	<path style="fill:#FFFFFF;" d="M139.1,20c0-3.1,2.3-5.9,8.8-5.9s8.8,2.9,8.8,5.9v13.4c0,3.1-2.3,5.9-8.8,5.9s-8.8-2.9-8.8-5.9V20z
		 M151.9,20.9c0-1.8-1.5-2.7-3.9-2.7c-2.4,0-3.9,0.9-3.9,2.7v11.7c0,1.8,1.5,2.7,3.9,2.7c2.4,0,3.9-0.9,3.9-2.7V20.9z"/>
	<path style="fill:#FFFFFF;" d="M174.5,14.4c0.6,0,0.9,0.2,0.9,0.9v2.3c0,0.7-0.3,0.9-0.9,0.9h-5.2v19.7c0,0.7-0.2,0.9-0.9,0.9h-3.2
		c-0.7,0-0.9-0.3-0.9-0.9V18.4h-5.2c-0.7,0-0.9-0.3-0.9-0.9v-2.3c0-0.7,0.3-0.9,0.9-0.9H174.5z"/>
	<path style="fill:#FFFFFF;" d="M182.4,35h8.1c0.6,0,0.9,0.2,0.9,0.9v2.3c0,0.7-0.3,0.9-0.9,0.9h-12.2c-0.5,0-0.8-0.3-0.8-0.9V15.3
		c0-0.7,0.2-0.9,0.9-0.9h3.2c0.7,0,0.9,0.3,0.9,0.9V35z"/>
	<path style="fill:#FFFFFF;" d="M203,14.4c0.7,0,1,0.3,1.2,0.9l6.8,22.9c0.2,0.6,0,0.9-0.7,0.9H207c-0.6,0-0.9-0.3-1.1-0.9l-1.3-4.4
		h-6.8l-1.3,4.4c-0.2,0.6-0.4,0.9-1.1,0.9h-2.9c-0.7,0-0.9-0.3-0.7-0.9l6.8-22.9c0.2-0.6,0.5-0.9,1.1-0.9H203z M202.4,25.8
		c-0.5-1.5-1-6.1-1.1-6.6c-0.1,0.5-0.7,5-1.1,6.6l-1.2,4.1h4.6L202.4,25.8z"/>
	<path style="fill:#FFFFFF;" d="M218,29.6v8.5c0,0.7-0.2,0.9-0.9,0.9h-3.2c-0.7,0-0.9-0.3-0.9-0.9V15.3c0-0.7,0.2-0.9,0.9-0.9h7.6
		c6.6,0,8.8,2.9,8.8,5.9v3.5c0,2.1-1.1,4.2-4,5.2l3.9,9.2c0.3,0.6-0.2,0.9-0.8,0.9h-3.2c-0.5,0-0.7-0.4-0.9-0.9l-3.6-8.5h-0.2H218z
		 M218,18.4v7.2h3.6c2.4,0,3.9-0.9,3.9-2.7v-1.7c0-1.8-1.5-2.7-3.9-2.7H218z"/>
</g>
</svg>
