<?xml version="1.0" encoding="UTF-8"?> <!-- Generator: Adobe Illustrator 22.0.0, SVG Export Plug-In . SVG Version: 6.00 Build 0) --> <svg xmlns="http://www.w3.org/2000/svg" xmlns:xlink="http://www.w3.org/1999/xlink" version="1.1" id="Layer_1" x="0px" y="0px" viewBox="0 0 1000 1000" style="enable-background:new 0 0 1000 1000;" xml:space="preserve"> <path style="fill:#FFFFFF;" d="M877.5,501.9c13.2-1.1,23,6.9,34,11.2c7.5,2.9,14.6,6.8,21.9,10c6.1,2.7,9.1,7.7,9.9,13.8 c2.3,17.3,6,34.5,5.2,52.1c-0.2,4.2,0.6,8.1,2.3,12.3c2.4,6,2.7,12.8,3.7,19.3c2,13.6,4,27.3,5.7,41c0.8,6.1,0.7,12.2,1.3,18.3 c1.1,11.3,2.3,22.5,3.5,34c-29.8,0-59.7,0-90.8,0c-1.3-12.5-2.7-25.1-4-37.7c-0.2,0-0.4,0-0.6,0c0,12.4,0,24.8,0,37.6 c-69.4,0-138.5,0-208.2,0c-0.6-6.1-1.5-12.2-1.7-18.4c-0.5-13-0.9-25.9-1-38.9c-0.1-5.4,1-10.9,0.9-16.3c-0.5-15.7-1.2-31.4-2-47.2 c-0.1-2.8-0.9-5.5-1.4-8.6c-2.2,0-4.6,0-7,0c0,43.1,0,86.1,0,129.7c-1.5,0-3.2,0-4.8,0c-26.5,0-53-0.1-79.5,0.1 c-4.8,0-6.4-1.4-6.4-6.1c-0.2-29.8-0.6-59.6-0.9-89.4c-0.1-11.3,0-22.5,0-34.2c-3.9,0-6.6,0-9.5,0c0,43,0,86,0,129.4 c-1.5,0.1-3.1,0.2-4.7,0.2c-21.8,0-43.7-0.1-65.5,0.1c-3.9,0-5.7-1.4-7.6-4.6c-6-10.5-12.4-20.7-19.6-30.9 c-0.5,11.6-1,23.2-1.5,35.1c-28.6,0-57.2,0-86.4,0c0-5,0-10.1,0-16.3c-8.5,5.2-16.1,10-23.8,14.6c-1.6,0.9-3.5,1.9-5.2,1.9 c-24.5,0.1-49,0.6-73.5-0.3c-5.8-0.2-11.6-4.7-17.2-7.6c-6.7-3.5-13.2-7.4-20.3-11.4c-1.5,5.4-3.1,10.3-4.2,15.4 c-0.6,3-1.8,4.1-4.9,4.1C155.9,714,98.1,714,39,714c0.6-6.8,1.1-13.4,1.8-19.9c0.8-7.7,1.8-15.4,2.7-23c1.1-9,2.1-18,3.4-26.9 c1.8-12.7,3.8-25.3,5.6-38c2-14.2,3.9-28.4,5.8-42.6c1.5-10.9,2.7-21.8,4.2-32.7c0.8-6,1.7-12,3.1-17.9c1.6-6.6,8.3-10.9,16.4-10.9 c13.7,0,27.3,0,41,0c1.6,0,3.3,0,5.5,0c0-8.5-0.3-16.6,0.1-24.7c0.2-3.6,1.2-7.5,3.1-10.5c25.2-41.4,50.6-82.5,75.7-123.9 c3.2-5.3,7.3-7.6,13.2-7.5c13.7,0.1,27.3,0,41,0c9.6,0,12.8,2.4,14.8,11.5c6.1,28.6,12.1,57.2,18.1,85.8c0.2,0.8,0.2,1.6,1.1,2.4 c0.6-3.5,1.4-6.9,1.8-10.4c2.1-15.8,4-31.6,6.1-47.4c1.5-11,3.1-22.1,5.1-33.1c0.8-4.6,3.1-8.4,8.7-8.4c11.5,0,22.9-0.5,34.4,0 c6.4,0.3,8.9,3.2,8.8,9.5c-0.4,18.1-1,36.1-1.9,54.2c-0.6,10.9-2.1,21.7-3.2,33.5c37.9,0,75.3,0,113,0c0-3.5,0-6.4,0-10.1 c-5.3,0-10.7,0.1-16.1,0c-6.1-0.2-12.2-0.6-18.3-0.8c-5.4-0.2-7.2-4.2-7.2-8.4c0-19.1,0.5-38.2,0.8-57.4c0-2.7,0.1-5.3,0.1-8 c0.1-9.6,3.5-13.1,13-13.1c32.8,0,65.7,0,98.5,0c6.1,0,12.2,0.2,18.3,0.8c2.1,0.2,4,1.7,5.6,1.8c5.9-0.9,11.8-2.5,17.7-2.5 c36.8-0.2,73.7-0.1,110.5-0.1c13.9,0,27.8,0.3,41.7-0.1c7.3-0.2,13.4,1.2,17.8,7.4c0.7,1,1.9,1.7,3,2.6c1.9-7.5,4.5-9.8,12-9.8 c22.3-0.1,44.7-0.4,67,0.1c9,0.2,9.8,1.2,11.9,9.4c6.8,26.3,13.6,52.5,20.3,78.8c4.2,16.2,8.2,32.4,12.3,48.5 c0.4,1.7,0.3,3.6,0.3,5.5C877.5,485.6,877.5,493.6,877.5,501.9z M301.1,496.8c0,0.6,0,1.3,0,1.9c4.7,0,9.4,0,14.2,0 c2.2,0,3.8,0.1,4.9,2.9c1.5,4.1,11.2,5.6,13.6,2.2c3.9-5.6,9.1-5,15-3.8c-0.7,1.6-1.2,2.8-2.4,5.5c4.6-4.4,8.3-7.5,13.8-4.2 c-0.8,1.8-1.5,3.5-2.7,6.3c5.3-2.6,10.8,1.6,14.6-3.8c0.3-0.5,2.2-0.1,3.3,0.2c3.6,1.1,7,3,10.6,3.3c10.5,0.8,21,1.1,31.4,1.3 c2.7,0.1,5.5-1.4,8.1-1.1c4.2,0.4,8.4,1.6,12.6,2.6c20.4,5.1,40.9,8.6,62,9c15.5,0.3,30.9-1.5,46.1-4.3c13.8-2.6,27.3-6.6,41.6-7 c21.8-0.6,43.5-2.6,65.2-4.1c1.8-0.1,3.6-1.5,5.4-2.1c2.3-0.9,4.5-2.1,6.8-2.3c4.5-0.4,9-0.4,13.5-0.4c11.1,0,22.1,0,33.2,0 c0-0.8,0-1.7,0-2.5c-15.1,0-30.2,0-45.4,0c0-0.4,0-0.9,0-1.3c3.6-0.4,7.2-0.8,10.7-1.2c0-0.1,0-0.3,0-0.4 c-8.6-0.4-17.2-0.8-26.2-1.2c0.6-1.3,1-2.2,1.2-2.6c-3.1-1-6.1-1.9-9.4-2.9c0.8,1.9,1.6,3.6,2.1,4.8c-7.6,0-15.1,0.4-22.5-0.2 c-3-0.2-6.1-2.1-8.7-3.9c-3.7-2.5-6.9-5.7-10.3-8.6c-0.1,0.1-0.2,0.3-0.3,0.4c2.9,3.3,5.8,6.5,9.4,10.5c-7.2,0.9-10.2-3.6-13.4-6.7 c-3.1-2.9-5.9-4.2-10.1-4.1c-7.1,0.3-14.1,0.1-21.3,0.1c-0.3,1.3-0.7,3.3-1.2,5.5c-6.6-0.8-5-5.7-5.2-8.6 c-10.4,1.6-19.6-3.2-29.4-3.2c0-0.4,0-0.9,0-1.3c9.8,0,19.5,0,29.9,0c-0.7-11.6-1.3-22.4-1.9-33.8c-15.4,0-30.1,0-45.3,0 c0-21.6,0-42.5,0-63.8c13.2,0,25.7-0.2,38.2,0.1c4.5,0.1,5.4-1.7,4.8-5.7c-0.6-3.6-0.6-7.2-0.8-10.9c-0.3-5.7-0.5-11.4-0.7-17.1 c-40.6,0-80.2,0-120,0c-0.4,10.4-1,20.4-1.1,30.4c0,1,2,2.8,3.2,3c3.8,0.4,7.6,0.2,11.5,0.2c9.2,0,18.5,0,27.2,0 c0,21.8,0,42.8,0,64.2c-15.8,0-30.7,0-45.8,0c-0.6,11.4-1.3,22.3-1.9,33.2c3.7,0,7-0.1,10.3,0c3.3,0.1,6.5,0.3,9.7,0.4 c-1.3,4.5-3.3,7.6-8,7.9c-3.8,0.3-7.6,1-12.4,1.7c-0.8,1.3,2.2,7.2-5.2,6.6c0-16.6,0-33.1,0-50.1c-27.3,0-54.4,0-82,0 c3.7-32.8,7.3-65.1,10.9-97.6c-12.5,0-23.8,0-35.4,0c-1.1,8.3-2.1,16.4-3.3,24.5c-2.2,15.3-4.7,30.5-6.8,45.7 c-2.2,15.3-4,30.7-6.2,46c-1.4,9.7,3.4,15.5,13.3,15.5c11.6,0,23.1,0,34.7,0c14,0,28,0.1,42,0c8-0.1,16-0.7,24-0.9 c2.3,0,4.6,0.7,6.5,1c0,2.3,0.1,3.8,0,5.2c-0.5,8.8-0.4,9.4-8.9,10.4c-16.2,2-32.4,3.2-48.7,4.6c-1,0.1-2.2-1.2-2.6-1.4 c-5,0.9-10,1.8-16.1,2.9c1.2-2.7,1.7-3.8,2.3-5.2c-4.1,0.3-7.7,0.4-11.2,1c-4.3,0.8-9.5,1.1-12.5,3.7c-4,3.4-7.9,3.5-12.3,3.6 C307.6,496.9,304.3,496.8,301.1,496.8z M501.9,602.4c0.2,0,0.4-0.1,0.5-0.1c1,22.9,2.1,45.7,3.1,68.6c0.4,0,0.7,0,1.1,0 c1.1-21.9,2.2-43.9,3.3-65.8c0.3,0,0.5,0,0.8,0c1,21.8,2.1,43.6,3.1,65.4c0.4,0,0.8,0,1.2,0.1c1-22.5,2-44.9,3-67.4 c0.3,0,0.5-0.1,0.8-0.1c1.2,22.5,2.4,45,3.6,67.5c0.3,0,0.7,0,1,0c0.9-21.8,1.9-43.6,2.8-65.4c0.3,0,0.7,0,1,0.1 c0.9,17.7,1.8,35.4,2.6,53.2c0.1,0,0.2,0,0.3,0c0-45,0-90.1,0-135c-18.9,0-37.5,0-56.6,0c0,23.1,0,45.9,0,69.8 c-1.1-1.6-1.6-2.2-2-2.9c-10.4-21.3-20.8-42.5-31.1-63.9c-1.2-2.4-2.3-3.5-5.1-3.4c-5.5,0.3-11,0.1-16.5,0.1c-11.3,0-22.6,0-34.3,0 c-1.7,49.5-3.3,98.5-5,147.5c0.3,0,0.7,0,1,0.1c2-22.4,3.9-44.7,5.9-67.1c0.4,0,0.7,0,1.1,0.1c0,22.3,0,44.6,0,66.9 c0.3,0,0.6,0,1,0.1c1.8-21.5,3.6-43,5.4-64.5c0.4,0,0.8,0,1.1,0c0,21.5,0,43.1,0,64.6c0.4,0,0.9,0,1.3,0c1.8-21.9,3.6-43.8,5.4-65.8 c0.2,0,0.3,0,0.5,0c0.5,21.9,1,43.8,1.5,65.7c0.2,0,0.3,0,0.5,0c1.8-22.5,3.6-45,5.4-67.5c0.5,0,0.9,0,1.4,0c0,22.5,0,45,0,67.5 c0.4,0,0.8,0,1.2,0c1.6-21.3,3.2-42.7,4.8-64c0.7,0,1.3,0.1,2,0.1c0,20.8,0,41.7,0,62.5c0.5,0,0.9,0,1.4,0c1.5-21.1,3-42.1,4.5-63.2 c0.6,0,1.1,0,1.7,0.1c0,20.6,0,41.2,0,61.8c0.5,0,1,0,1.5,0c1.6-21.3,3.1-42.6,4.7-64c0.5,0,0.9,0,1.4,0c0,11.2,0,22.5,0,33.7 c0.5,0,1,0,1.5,0c0-11,0-22.1,0-34.5c1.9,2.9,3.1,4.7,4.5,6.9c0.5-2.9,0.9-5,1.3-7.1c0.4-2,0.9-4,1.3-5.8c1.7,8.6,3.5,17.1,5.2,25.6 c0.6-0.1,1.3-0.1,1.9-0.2c0.8-7.9,1.7-15.8,2.5-23.7c2.8,12.5-0.7,25.7,6.9,37.3c0.7-10.7,1.4-21.5,2.2-32.2 c1.5,15.3,0.8,30.7,3.5,45.8c0.6,0,1.2,0,1.7,0c1-15.8,2-31.7,3-47.5c0.9,7,0.8,14,1,20.9c0.1,6.8,0.5,13.6,0.9,20.4 c0.4,6.7-1.2,13.6,2.7,19.8c1.1-20.3,2.2-40.7,3.3-61c0.2,0,0.4,0,0.6,0c0.9,22.7,1.8,45.4,2.6,68.2c0.3,0,0.6,0,0.9,0.1 c1.3-22.1,2.6-44.2,3.9-66.3c0.2,0,0.4,0,0.7,0c1,22,2,44.1,3,66.1c0.3,0,0.5,0,0.8,0c1.2-22.6,2.4-45.3,3.6-67.9c0.2,0,0.4,0,0.6,0 c1.1,22.7,2.2,45.4,3.2,68.1c0.3,0,0.6,0,0.9,0C499.6,647.8,500.7,625.1,501.9,602.4z M152.7,669.3c0.3,0.1,0.6,0.2,1,0.3 c3.4-22.2,6.9-44.4,10.3-66.6c0.2,0,0.5,0,0.7,0c-1.3,22.2-2.7,44.4-4,66.5c0.3,0,0.7,0.1,1,0.1c3.4-22.2,6.8-44.5,10.1-66.7 c0.2,0,0.5,0.1,0.7,0.1c-1.4,21.8-2.7,43.7-4.1,65.5c0.5,0,0.9,0.1,1.4,0.1c3.3-21.9,6.5-43.7,9.8-65.6c0.3,0,0.6,0.1,0.9,0.1 c-1.4,21.6-2.7,43.2-4.1,64.8c0.4,0,0.8,0.1,1.1,0.1c3.2-21.6,6.4-43.3,9.6-64.9c0.3,0,0.5,0,0.8,0.1c-1.2,21.5-2.3,43.1-3.5,64.6 c0.3,0,0.7,0,1,0.1c3.2-21.6,6.4-43.3,9.5-64.9c0.2,0,0.5,0,0.7,0.1c-1.1,21.7-2.3,43.3-3.4,65c0.4,0,0.7,0.1,1.1,0.1 c3.1-21.7,6.3-43.4,9.4-65.1c0.3,0,0.5,0.1,0.8,0.1c-1.2,22.2-2.3,44.4-3.5,66.6c0.3,0,0.6,0.1,0.9,0.1c3.1-22,6.3-44.1,9.4-66.1 c0.3,0,0.6,0.1,0.9,0.1c-0.6,10.9-1.2,21.7-1.8,32.6c0.2,0,0.5,0,0.7,0c3.5-37.7,7.1-75.4,10.6-113.2c-18.8,0-36.8,0-55.1,0 c-2.2,20.3-4.3,40.4-6.5,60.5c-6.6,0-13,0-19.5,0c2.4-20.4,4.8-40.4,7.2-60.5c-22.8,0-44.8,0-67,0c-6.1,45.8-12.2,91.5-18.3,137.1 c0.3,0,0.6,0.1,0.9,0.1c3.6-19.4,7.2-38.8,10.8-58.2c0.3,0,0.7,0.1,1,0.1c-1.9,22.3-3.8,44.6-5.7,67c0.5,0.1,0.9,0.1,1.4,0.2 c4.3-22.8,8.6-45.6,12.9-68.4c0.2,0,0.4,0.1,0.5,0.1c-1.8,23.1-3.6,46.2-5.4,69.2c0.5,0.1,0.9,0.1,1.4,0.2 c4.2-22.6,8.3-45.2,12.5-67.9c0.3,0,0.5,0.1,0.8,0.1c-1.8,22.2-3.6,44.4-5.4,66.6c0.5,0.1,1.1,0.2,1.6,0.2c4-22.5,8.1-45,12.1-67.6 c0.3,0,0.6,0.1,0.9,0.1c-1.7,22.5-3.4,44.9-5.1,67.4c0.4,0.1,0.8,0.1,1.2,0.2c4-22,8.1-44.1,12.1-66.1c0.3,0,0.6,0,0.8,0.1 c-1.5,21.8-3,43.6-4.4,65.4c0.4,0,0.8,0.1,1.3,0.1c4-22.6,8-45.1,12.1-67.7c0.3,0,0.5,0.1,0.8,0.1c-1.6,22.5-3.2,45.1-4.9,67.6 c0.5,0.1,0.9,0.1,1.4,0.2c3.9-22.4,7.9-44.9,11.8-67.3c0.3,0,0.6,0.1,0.9,0.1c-1.5,22.3-2.9,44.5-4.4,66.8c0.4,0,0.8,0.1,1.2,0.1 c3.5-20.5,7.1-41.1,10.7-62.4c0.3,2.4,0.5,4.1,0.7,5.8c1.6,0,2.9,0,4.2,0c0.6-3,1.2-5.9,1.8-8.7c0.2,0,0.4,0.1,0.7,0.1 c-0.2,2.7-0.3,5.5-0.5,8.4c5.6,2.2,4.5-3.3,6.2-6.2c0.2,2.6,0.4,4.5,0.5,6.4c6.6,1.2,3.3-5,6.1-7.7 C155.5,627,154.1,648.2,152.7,669.3z M868.3,471c0.1-1.1,0.2-1.6,0.1-2.1c-4.8-19-9.7-38-14.6-57c-5.7-22.4-11.7-44.7-17.1-67.1 c-1-4-2.5-4.9-6.2-4.8c-21,0.1-42,0.1-63,0.1c-1.6,0-3.2,0-5.6,0c0.9,1.4,1.3,2.1,1.8,2.7c7.2,7.5,14.8,14.7,21.4,22.7 c4.8,5.9,9.6,10.1,17.7,8.4c4.5-0.9,5.8,2,6.6,5.8c1.1,5.6,2.6,11.1,3.8,16.7c1.6,7.5,3.1,15,4.7,22.4c-7.3-6.1-13.8-12.7-20.3-19.3 c-8.5-8.7-17-17.4-25.4-26.1c-8.4-8.7-16.9-17.2-25.1-26.1c-4.2-4.5-8-8.1-15.1-7.4c-8.1,0.9-16.3,0.2-24.5,0.2c-1.9,0-3.8,0-6.5,0 c6.7,44,13.2,87.2,19.8,131.1c12.9,0,25.7,0,39,0c-4.5-25.1-8.8-49.3-13.4-75.1c7,7.4,12.7,14,18.9,20.1 c9.4,9.4,19.1,18.5,28.6,27.8c8.2,8,16.1,16.3,24.4,24.2c1.8,1.7,4.5,3.4,6.8,3.5c10.8,0.1,21.6-0.4,32.3-0.6 C861.1,470.9,864.7,471,868.3,471z M919.5,669.8c0.4,0,0.8-0.1,1.2-0.1c-0.7-8.9-1.5-17.8-2.2-26.7c-0.7-9.6-1.5-19.1-2-28.7 c-0.4-8.8-1.3-17.1-12.1-19.3c-0.2,0-0.3-0.4-0.6-0.9c9.4-4.4,18.7-8.8,28.2-13.3c-1.2-10.4-2.5-20.5-3.5-30.7c-0.5-5-2.7-8-7.6-10 c-10.2-4.3-20.1-9.1-30-13.8c-4.8-2.3-9.8-3.3-15.2-3.3c-28.8,0.2-57.7,0.1-86.5,0.1c-1.8,0-3.6,0-5.5,0 c4.1,44.7,8.2,88.7,12.2,132.8c0.2,0,0.4,0,0.6,0c-1-18-1.9-35.9-2.9-53.9c0.4,0,0.7-0.1,1.1-0.1c2.9,22.1,5.8,44.1,8.7,66.2 c0.5-0.1,0.9-0.1,1.4-0.2c-1.1-22.2-2.2-44.5-3.2-66.7c0.3,0,0.5,0,0.8-0.1c3.1,22.8,6.2,45.6,9.2,68.5c0.4,0,0.8-0.1,1.3-0.1 c-1.1-22.7-2.3-45.4-3.4-68.1c0.2,0,0.5,0,0.7,0c3.2,22.8,6.3,45.6,9.5,68.3c0.4,0,0.7-0.1,1.1-0.1c-1.2-22.7-2.3-45.4-3.5-68.1 c0.3,0,0.5,0,0.8,0c3.2,22.7,6.4,45.4,9.6,68.1c0.4,0,0.8-0.1,1.1-0.1c-1.3-22.8-2.6-45.7-4-68.5c0.3,0,0.5-0.1,0.8-0.1 c3.3,22.8,6.5,45.7,9.8,68.5c0.4-0.1,0.9-0.1,1.3-0.2c-1.4-23-2.7-46.1-4.1-69.1c0.2,0,0.4,0,0.6-0.1c3.4,23.3,6.8,46.6,10.2,69.8 c0.3,0,0.5-0.1,0.8-0.1c-1.3-23.2-2.5-46.3-3.8-69.5c0.2,0,0.4,0,0.7,0c3.4,23.2,6.9,46.4,10.3,69.6c0.3,0,0.6-0.1,0.9-0.1 c-1.3-22.1-2.6-44.3-3.9-66.4c0.3,0,0.6-0.1,1-0.1c0.6,3.2,1.1,6.4,1.7,9.4c1.9,0,3.6,0,5.7,0c0-2.8,0-5.3,0-7.7c0.1,0,0.3,0,0.4,0 c0.6,2.7,1.2,5.3,1.8,7.8c2,0,3.6,0,5.7,0c-1-10.7-2-21.1-3-31.7c-2.1,0-3.5,0-4.8,0c-3.5,0-8.1,1.2-10.2-0.5 c-2.1-1.8-1.6-6.5-2.3-10c-0.1-0.5-0.4-0.9-0.5-1.4c-0.6-6.2-1.1-12.4-1.7-19.1c9.5,0,18.3-0.1,27.1,0.2c1.1,0,2.8,2.1,3.1,3.5 c1,5.7,1.5,11.4,2.1,17.2c1,9.8,0.9,9.8-7,10.4c-0.3,0-0.5,0.4-0.7,0.5c1.3,10.3,2.7,20.5,4,31c1.9,0,3.6,0,5.8,0c0-3.1,0-5.8,0-8.6 c0.2,0,0.5,0,0.7,0c3.4,21.2,6.7,42.5,10.1,63.7c0.4-0.1,0.9-0.1,1.3-0.2c-1.7-22.6-3.4-45.1-5.1-67.7c0.2,0,0.5-0.1,0.7-0.1 c3.8,23.2,7.5,46.5,11.3,69.7c0.4,0,0.7-0.1,1.1-0.1c-1.7-23.2-3.4-46.4-5.1-69.5c0.2,0,0.4,0,0.6-0.1c3.8,23.3,7.6,46.5,11.4,69.8 c0.4,0,0.7-0.1,1.1-0.1c-1.8-23-3.6-46-5.4-69c0.3,0,0.5,0,0.8,0c3.8,22.8,7.6,45.5,11.4,68.3c0.4-0.1,0.8-0.1,1.2-0.2 c-2-23.2-3.9-46.3-5.9-69.5c0.3,0,0.6-0.1,0.9-0.1C911.6,622.6,915.5,646.2,919.5,669.8z M294.8,471.4 c-9.8-43.9-19.5-87.4-29.3-131.3c-14.4,0-29.2,0.1-44-0.1c-3.9-0.1-5.9,1.2-7.9,4.5c-18.8,31.3-37.6,62.4-56.6,93.6 c-6.6,10.9-13.7,21.6-20.9,33c14.9,0,29.1,0,43.3-0.1c0.8,0,1.9-1,2.4-1.8c15-26.2,29.9-52.4,44.8-78.6c2.6-4.5,5.2-9,8-14.1 c3.2,20.9,6.2,40.8,9.4,61.3c-1.6,0.1-3.2,0.4-4.8,0.4c-5.2,0.1-10.4-0.3-15.5,0.2c-1.8,0.2-4.1,1.8-5.1,3.3 c-2.4,3.5-4.2,7.4-6.2,11.1c-3.3,6-6.6,11.9-10.3,18.7C233.6,471.4,264.1,471.4,294.8,471.4z M694.5,602.4c0.2,0,0.4,0,0.6,0 c2.4,22.7,4.7,45.4,7.1,68.1c0.2,0,0.5-0.1,0.7-0.1c0-23.4,0-46.8,0-70.2c0.1,0,0.2,0,0.3,0c2.5,23.4,5.1,46.8,7.6,70.1 c0.1,0,0.1,0,0.2,0c0-23,0-45.9,0-68.9c0.2,0,0.4,0,0.6-0.1c2.6,23.1,5.1,46.1,7.8,70.5c0-24.9,0-48.5,0-72.8 c2.8,24.3,5.5,47.9,8.3,71.4c0.1,0,0.1,0,0.2,0c0-23.4,0-46.8,0-70.8c2.8,24,5.6,47.4,8.3,70.8c0.3,0,0.6-0.1,0.9-0.1 c-0.5-22.7-1-45.4-1.6-69.3c1.2,2.6,1.8,4,2.3,5.1c2.1-0.2,3.7-0.3,5.5-0.4c0.1-2,0.3-3.7,0.4-5.5c0.2,0,0.3,0,0.5,0 c0.6,2.5,1.2,5,1.7,7.1c4.4,0.2,8.4,0.4,12.5,0.6c0.2-1.8,0.3-3.2,0.6-5.8c0.8,7.4,5.2,5.7,9.1,5.6c0.2-2,0.4-3.7,0.5-5.1 c1,1.9,2,3.8,3,5.7c0.8-0.2,1.5-0.5,2.3-0.7c-0.5-10.4-1-20.9-1.4-31.7c-12.8,0-24.7,0-37,0c-0.4-7-0.1-13.7-1.4-20.1 c-1.2-6,1.5-6,5.9-6c12.6,0.2,25.2,0.1,38.7,0.1c-0.8-9.3-1.5-18.1-2.2-26.7c-36.1,0-71.4,0-107,0c0,4.7-0.2,9.2,0,13.6 c1.2,19.8,2.7,39.7,3.8,59.5c0.9,15.4,1.3,30.8,2.1,46.3c0.3,6.3,1,12.6,1.4,18.9c0.2,0,0.5,0,0.7,0c0-20,0-40,0-60 c0.2,0,0.4,0,0.7,0c2.3,22.9,4.7,45.8,7,68.7c0.2,0,0.4-0.1,0.6-0.1c0-23,0-46.1,0-69.1c0.2,0,0.4-0.1,0.6-0.1 c2.3,22.3,4.6,44.6,6.9,66.9c0.3,0,0.7-0.1,1-0.1C694.5,646,694.5,624.2,694.5,602.4z M713.8,471c-1.6-11.2-3.1-21.8-4.8-33.2 c-23.3,0-46.5,0-69.7,0c-10.7,0-21.3,0.2-32,0.1c-0.9,0-2.6-1.2-2.7-2c-0.6-4.5-0.9-9-1.3-14.1c27.5,0,54.2,0,81.3,0 c-1.4-9.9-3-19.1-3.9-28.4c-0.4-4-2.2-4.5-5.5-4.5c-23.3,0.1-46.7,0.1-70,0.1c-13.5,0-27,0-41,0c0,1.5,0,2.8,0,4.1 c0.4,8.8,0.8,17.6,1.2,26.3c0.3,5.4,0.6,10.7,0.9,16.1c0.3,6.1,0.6,12.2,1,18.3c0.1,2.4,0,4.9,0.8,7c1.1,2.8,2.4,5.2-0.9,6.1 c4.1,1.5,8.4,3.1,12.8,4.5c1.2,0.4,2.6,0.3,4,0.3c6-0.2,11.9-0.8,17.9-0.7c19.3,0.2,38.6,0.8,57.8,0.8c12.9,0,25.8-0.6,38.7-0.9 C703.4,470.9,708.2,471,713.8,471z M631.9,627.1c0.2,0,0.5,0.1,0.7,0.1c-0.8-24.6-1.7-49.3-2.5-74.3c11.4,0,21.9,0,31.7,0 c0-10.1,0-19.8,0-29.6c-42.2,0-83.6,0-124.4,0c0,10.1,0,19.8,0,29.8c11.5,0,22.1,0,32.4,0c2.7,39.4,5.4,78.4,8.1,117.3 c0.4,0,0.8-0.1,1.1-0.1c0.5-22.7,1.1-45.5,1.6-68.2c0.2,0,0.4,0,0.6,0c1.5,22.5,3.1,44.9,4.6,67.4c0.5,0,0.9,0,1.4,0 c0.5-22.1,1-44.2,1.5-66.3c0.2,0,0.4,0,0.6,0c1.7,22.5,3.3,45,5,67.5c0.6,0,1.2,0,1.8-0.1c0-22,0-44,0-65.9c0.5,0,1.1,0,1.6,0 c1.6,21.9,3.3,43.8,4.9,65.7c0.5,0,0.9,0,1.4,0c0-22.5,0-44.9,0-67.4c0.5,0,1,0,1.6,0c1.8,22.1,3.5,44.2,5.3,66.4 c0.4,0,0.9,0,1.3-0.1c0.6-21.1-0.3-42.2,0.7-63.3c0.4,0,0.8,0,1.2,0.1c1.7,21.5,3.4,42.9,5.1,64.4c0.6,0,1.3,0,1.9-0.1 c0-22.4,0-44.8,0-67.2c0.3,0,0.6,0,0.9,0c1.8,22.5,3.7,45,5.5,67.5c0.2,0,0.4,0,0.6,0c0.5-21.9,1-43.7,1.6-65.6c0.2,0,0.4,0,0.6,0 C630.9,612.3,631.4,619.7,631.9,627.1z M307.5,669.1c0.6,0,1.2,0.1,1.8,0.1c2.5-22,4.9-44.1,7.4-66.1c0.1,0,0.3,0,0.4,0.1 c0,22.4,0,44.8,0,67.1c0.1,0,0.3,0,0.4,0c2.4-22.5,4.9-44.9,7.3-67.4c0.2,0,0.4,0,0.6,0c0,22,0,44,0,66c0.2,0,0.5,0,0.7,0 c2.3-22.2,4.5-44.4,6.8-66.7c0.2,0,0.4,0,0.6,0c0,22.6,0,45.3,0,67.9c0.3,0,0.6,0,0.9,0.1c2.3-22.8,4.7-45.6,7-68.4 c0.2,0,0.4,0.1,0.6,0.1c0,22.2,0,44.5,0,66.7c0.3,0,0.6,0.1,0.9,0.1c2.2-21.6,4.3-43.2,6.5-64.8c0.4,0,0.8,0.1,1.3,0.1 c0,20,0,40.1,0,60.1c0.4,0,0.9,0.1,1.3,0.1c2-20.5,3.9-41,5.9-61.5c0.2,0,0.5,0,0.7,0c0,18.9,0,37.8,0,57c1-0.3,1.8-0.4,1.8-0.6 c2-17.6,3.9-35.2,5.8-52.8c0.2,0,0.3,0,0.5,0c0,16,0,32.1,0,48.5c1.1-0.3,2.2-0.4,2.2-0.6c2-16.5,4-33.1,6-50.3 c0.6,1.3,0.9,1.9,1.2,2.7c1.3-28,2.5-55.8,3.7-83.6c-21.1,0-41.6,0-62.4,0c-0.3,3.6-0.7,7.1-0.9,10.5c-0.4,9.1-0.6,18.3-1.1,27.4 c-1.2,20.2-2.6,40.4-3.9,60.5c-0.6,9.2-0.4,18.4-2.9,27.6C307,655.6,307.8,662.5,307.5,669.1z M223.2,654.7c0.9,0.1,1.7,0.2,2.6,0.3 c2.7-17,4.2-34.2,7.3-51.1c-0.1,18.5-2.1,37-1.4,55.5c0.5,0,1,0,1.5,0.1c2.4-18.3,4.8-36.7,7.2-55c0.3,0,0.7,0.1,1,0.1 c-0.7,19.3-1.5,38.6-2.2,57.9c0.5,0,1,0.1,1.5,0.1c2.4-18.9,4.8-37.8,7.2-56.8c0.3,0,0.5,0,0.8,0c-0.6,20.6-1.2,41.2-1.8,61.8 c0.4,0,0.8,0,1.2,0.1c2.6-20.6,5.2-41.1,7.8-61.7c0.3,0,0.6,0,0.9,0.1c-0.7,21.4-1.4,42.8-2.1,64.2c0.3,0,0.6,0.1,0.9,0.1 c2.7-21.6,5.4-43.1,8.2-64.7c0.3,0,0.6,0.1,0.9,0.1c-0.7,21.5-1.3,42.9-2,64.4c0.4,0,0.7,0.1,1.1,0.1c2.7-22.4,5.4-44.8,8.2-67.2 c0.2,0,0.4,0,0.6,0c-0.5,22.5-1.1,45.1-1.6,67.6c0.3,0,0.6,0.1,0.9,0.1c2.7-22.6,5.3-45.2,8.1-69.1c0,13.8,0,26.3,0,38.7 c0,0,0.1,0,0.1,0c2.9-39,5.7-78.1,8.6-117.2c-20.2,0-39.6,0-59.3,0c-3.1,35.9-6.1,71.6-9.2,107.2c0.3,0,0.6,0.1,0.9,0.1 c1.2-9.1,2.5-18.2,3.7-27.3c0.3,0,0.5,0,0.8,0.1C224.8,620.5,224,637.6,223.2,654.7z M564,373.6c45.1,0,90.2,0,135.6,0 c-0.2-1.7-0.4-3-0.6-4.3c-1.2-7.8-2.7-15.5-3.4-23.3c-0.4-4.2-1.3-6-6.1-6c-37.4,0.2-74.9,0.1-112.3,0.1c-9.1,0-15.2,6.4-14.7,15.3 C562.9,361.3,563.5,367.2,564,373.6z M769.3,472.2c0,10,0,19.7,0,30c10.3,0,19.8,0,28.8,0C788.5,492.1,778.9,482.1,769.3,472.2z M556.3,423.4c-11.2,0-21.9,0-32.5,0c0,3.3,0,6.3,0,9.3c11,0,21.7,0,32.5,0C556.3,429.5,556.3,426.5,556.3,423.4z M916.3,604.6 c3.8,21.4,7.5,42.7,11.3,64c0.7-1.9,0.8-3.8,0.7-5.6c-1.3-16.3-2.7-32.6-3.8-48.9C924.1,609,922.7,605.1,916.3,604.6z M925.2,608.8 c3.7,20.5,7.4,40.8,11.1,61.2c0.7-1.6,0.2-3,0.1-4.5c-1-14.5-1.6-29.1-3.2-43.6C932.7,617,935.4,609.2,925.2,608.8z M769.3,647.6 c-0.4-0.4-0.8-0.7-1.3-1.1c-0.8,0.9-2.4,2-2.3,2.8c1,7.3,2.2,14.6,3.4,21.9c0.4,0,0.9-0.1,1.3-0.1 C770,663.3,769.6,655.4,769.3,647.6z M298.8,670.4c0.2,0,0.4,0,0.5,0.1c1-6.7,2.2-13.5,3.1-20.2c0.4-2.7-0.1-3-3.6-2.4 C298.8,655.3,298.8,662.8,298.8,670.4z M780.1,646.2c1.3,8.9,2.3,16.6,3.4,24.3C785.1,652.8,784.7,649.4,780.1,646.2z M759.5,647.7 c-0.6-0.4-1.1-0.8-1.7-1.1c-0.7,1.2-2.2,2.5-2,3.7c0.9,6.8,2.1,13.6,3.2,20.4c0.2,0,0.4-0.1,0.6-0.1 C759.5,662.9,759.5,655.3,759.5,647.7z M693.9,423.2c-0.9,10.1-0.7,10.4,6.4,9.2c-0.4-3-0.8-6-1.3-9.2 C697.5,423.2,695.9,423.2,693.9,423.2z M288.7,647.4c0,7.9,0,15.5,0,23.2c1.4-6.6,2.5-13.2,3.6-19.8 C292.7,648.2,292.4,646.3,288.7,647.4z M743.5,646.7c-0.7,0.2-1.4,0.4-2.1,0.6c1.1,7.7,2.2,15.5,3.3,23.2c0.7-6.4,0.8-12.7,0.6-19 C745.2,649.9,744.1,648.3,743.5,646.7z M936.2,612.5c-0.7,0.1-1.3,0.2-2,0.3c1.9,11.2,3.8,22.5,5.7,33.7c0.3,0,0.6-0.1,1-0.1 C939.3,635.1,937.7,623.8,936.2,612.5z M278.7,668.9c0.5,0.1,0.9,0.1,1.4,0.2c0.5-3.7,1-7.5,1.4-11.2c0.4-3.5,0.7-7.1,1-10.6 c-0.8-0.1-1.6-0.1-2.5-0.2C279.6,654.3,279.1,661.6,278.7,668.9z M731.9,497.7c8.5,0,15.9,0,23.2,0c0-0.5,0-0.9-0.1-1.4 C747.7,496.9,740.2,495,731.9,497.7z M253.2,497.1c-0.1,0.4-0.2,0.7-0.3,1.1c4.6,0,9.3,0,13.9,0c0-0.4,0-0.7,0.1-1.1 C262.4,497.1,257.8,497.1,253.2,497.1z M570,473.4c-0.1,0.1-0.1,0.2-0.2,0.3c8.4,0,16.9,0,25.3,0c0-0.1,0-0.2,0-0.3 C586.7,473.4,578.3,473.4,570,473.4z"></path> </svg> 