<?xml version="1.0" encoding="UTF-8"?> <!-- Generator: Adobe Illustrator 24.3.0, SVG Export Plug-In . SVG Version: 6.00 Build 0) --> <svg xmlns="http://www.w3.org/2000/svg" xmlns:xlink="http://www.w3.org/1999/xlink" version="1.1" id="Layer_1" x="0px" y="0px" viewBox="0 0 500 500" style="enable-background:new 0 0 500 500;" xml:space="preserve"> <path style="fill:#FFFFFF;" d="M210.2,193.1c-39.5-1.9-83.8-13.5-132-44.3c0,0,13.5,99.2,49.1,153.2l-1,34.7c0,0-62.6-80-63.6-224.5 l3.9-3.9c0,0,60.7,59.7,142.6,62.6c35.6,1,76.1-8.7,117.5-38.5c8.7-6.7,18.3-14.5,27-23.1c0,0,9.6-13.5,11.6,6.7 c0,0,20.2,304.5-219.7,327.6c0,0-10.6-3.9-13.5-41.4c0,0,210,31.8,216.8-247.6c0,0-3.9,2.9-10.6,6.7 C320,172.9,272.8,196,210.2,193.1z"></path> <polygon style="fill:#FFFFFF;" points="249.7,28.4 272.8,47.6 301.7,39 291.1,66.9 308.4,92 278.6,90 260.3,114.1 252.6,85.2 223.6,75.6 248.7,59.2 "></polygon> </svg> 