<?xml version="1.0" encoding="UTF-8"?> <svg xmlns="http://www.w3.org/2000/svg" xmlns:xlink="http://www.w3.org/1999/xlink" version="1.1" id="Layer_1" x="0px" y="0px" viewBox="0 0 100 100" style="enable-background:new 0 0 100 100;" xml:space="preserve"> <style type="text/css"> .st0{fill:#FFFFFF;} </style> <g> <g> <path class="st0" d="M21.4,59.4c0-1.8,0.4-2.3,2.1-2.3c0.8,0,1.5,0.1,1.6,0.2V58c0,0-0.8-0.1-1.1-0.1c-1.2,0-1.3,0-1.3,1.4 c0,1.2,0.1,1.5,0.9,1.5c0.1,0,0.3,0,0.5,0v-1h-0.6V59h1.7v2.6c-0.5,0.1-1.1,0.2-1.6,0.2C21.8,61.7,21.4,61.3,21.4,59.4z"></path> <path class="st0" d="M33.4,57.1h1.6l1.5,4.6h-1.2l-0.3-0.9h-1.6L33,61.6h-1.2L33.4,57.1z M34.7,59.8l-0.5-1.8h0l-0.5,1.8H34.7z"></path> <path class="st0" d="M43.2,57.1h1.6l0.9,2.7h0l0.9-2.7h1.6v4.6h-1.1v-3h0l-1,3h-0.8l-1-3h0v3h-1.1V57.1z"></path> <path class="st0" d="M55.5,57.1h1.2v4.6h-1.2V57.1z"></path> <path class="st0" d="M64,57.1h1.2l1.5,2.5h0v-2.5h1.1v4.6h-1.1L65.1,59h0v2.7H64V57.1z"></path> <path class="st0" d="M74.9,59.4c0-1.8,0.4-2.3,2.1-2.3c0.8,0,1.5,0.1,1.6,0.2V58c0,0-0.8-0.1-1.1-0.1c-1.2,0-1.3,0-1.3,1.4 c0,1.2,0.1,1.5,0.9,1.5c0.1,0,0.3,0,0.5,0v-1h-0.6V59h1.7v2.6c-0.5,0.1-1.1,0.2-1.6,0.2C75.3,61.7,74.9,61.3,74.9,59.4z"></path> </g> <g> <path class="st0" d="M97.5,55.6c-2.3-2.7-4.7-5.3-7.3-8.3c0,1.9,0,3.5,0,5.1c-1.1,0-2,0-3,0c0-4.3,0-8.6,0-13.3 c2.5,3,4.7,5.6,7.2,8.6c0-1.9,0-3.5,0-5.3c1.2-0.1,2.1-0.1,3-0.1C97.5,46.7,97.5,51.2,97.5,55.6z"></path> <path class="st0" d="M15.1,40.6c1.8,4,3.4,7.6,5,11.4c-0.9,0.4-1.6,0.8-2.6,1.2c-0.8-1.7-1.5-3.3-2.4-5.3 c-1.3,2.8-2.4,5.3-3.7,8.2c-1.3-2.8-2.4-5.3-3.7-8.2c-0.9,1.9-1.6,3.5-2.4,5.2c-1-0.4-1.8-0.8-2.6-1.2c1.7-3.8,3.3-7.4,5.1-11.4 c1.3,2.9,2.4,5.4,3.7,8.2C12.6,46,13.7,43.5,15.1,40.6z"></path> <path class="st0" d="M61.4,53.8c-1.8-4.1-3.4-7.6-5-11.3c0.9-0.4,1.7-0.8,2.6-1.2c0.8,1.7,1.6,3.3,2.5,5.3 c1.3-2.8,2.4-5.3,3.7-8.2c1.3,2.8,2.4,5.3,3.7,8.2c0.9-1.9,1.6-3.4,2.4-5.2c0.9,0.4,1.7,0.7,2.6,1.1c-1.6,3.7-3.2,7.3-5.1,11.4 c-1.3-2.9-2.4-5.4-3.7-8.3C63.9,48.4,62.7,50.9,61.4,53.8z"></path> <path class="st0" d="M37.3,52.5c-0.8,0.5-1.5,1-2.2,1.4c-2.5-1.9-8-1.9-9.9,0.1c-0.7-0.4-1.5-0.9-2.4-1.5 c2.4-3.8,4.7-7.6,7.2-11.6C32.5,44.8,34.8,48.5,37.3,52.5z M30,46.6c-0.7,1.1-1.2,1.9-1.8,2.8c1.2,0,2.2,0,3.4,0 C31.1,48.4,30.7,47.7,30,46.6z"></path> <path class="st0" d="M52.4,51.6c-0.6,0.6-1.2,1.1-2,1.9c-1.3-1.4-2.5-2.7-4-4.3c-1.4,1.6-2.7,3-4,4.4c-0.9-0.8-1.6-1.4-2.6-2.3 c1.6-1.3,3.1-2.4,5-3.9c-2-1.4-3.5-2.5-5.2-3.8c1.3-1,1.9-1.6,2.7-2.2c1.2,1.3,2.4,2.6,3.9,4.1c1.3-1.7,2.4-3.1,3.7-4.7 c1.2,1.2,1.8,1.8,2.6,2.6c-1.4,1.2-2.7,2.3-4.6,3.9c1.9,1.2,3.5,2.3,5.1,3.3C52.9,50.9,52.7,51.3,52.4,51.6z"></path> <path class="st0" d="M81.3,52.5c-0.9,0-1.7,0-2.7,0c0-3.3,0-6.6,0-10c0.8,0,1.7,0,2.7,0C81.3,45.7,81.3,48.9,81.3,52.5z"></path> <circle class="st0" cx="80" cy="40.1" r="1.3"></circle> </g> </g> </svg> 