<?xml version="1.0" encoding="UTF-8"?> <svg xmlns="http://www.w3.org/2000/svg" xmlns:xlink="http://www.w3.org/1999/xlink" version="1.1" id="Layer_1" x="0px" y="0px" viewBox="0 0 100 100" style="enable-background:new 0 0 100 100;" xml:space="preserve"> <style type="text/css"> .st0{fill:#FFFFFF;} </style> <g> <path class="st0" d="M44.5,62.5c0.8,0,1.6,0,2.5,0c0.1,0,0.2-0.1,0.2-0.2c0-0.4-0.1-0.7-0.2-1.1c0-0.1,0-0.2-0.1-0.2 c-0.1-0.3-0.1-0.6-0.2-0.9c-0.1-0.3-0.1-0.6-0.2-0.9c-0.1-0.5-0.2-1.1-0.3-1.6c-0.1-0.5-0.2-0.9-0.2-1.4c-0.1-0.3-0.2-0.6-0.2-0.8 c0-0.2-0.1-0.4-0.1-0.6c-0.1-0.7-0.3-1.4-0.4-2c-0.1-0.4-0.1-0.9-0.2-1.3c-0.1-0.2-0.2-0.5-0.2-0.7c-0.1-0.2-0.1-0.3-0.1-0.5 c-0.1-0.6-0.2-1.1-0.4-1.7c-0.1-0.5-0.3-1.1-0.4-1.6c-0.1-0.5-0.3-1.1-0.4-1.6c-0.1-0.5-0.3-1-0.4-1.5c-0.1-0.3-0.1-0.6-0.2-1 c-0.1-0.4-0.2-0.7-0.3-1.1c-0.1-0.4-0.2-0.7-0.3-1.1c-0.1-0.5-0.3-1-0.4-1.5c-0.2-0.6-0.3-1.2-0.5-1.9c-0.2-0.7-0.4-1.4-0.6-2.1 c-0.2-0.7-0.5-1.5-0.7-2.2c-0.1-0.4-0.2-0.9-0.4-1.3c-0.2-0.6-0.4-1.2-0.6-1.8c-0.1-0.4-0.2-0.8-0.4-1.2c-0.1-0.3-0.2-0.5-0.3-0.7 c-0.2-0.5-0.3-1-0.5-1.5c-0.2-0.5-0.4-1-0.5-1.5c-0.2-0.5-0.3-1-0.5-1.4c-0.1-0.3-0.2-0.5-0.3-0.8c-0.1-0.3-0.2-0.6-0.3-1 c-0.1-0.4-0.2-0.7-0.4-1.1c-0.3-0.8-0.6-1.7-1-2.5c-0.2-0.6-0.5-1.1-0.7-1.7c-0.2-0.4-0.3-0.8-0.5-1.1c-0.3-0.6-0.6-1.3-0.9-1.9 c-0.4-0.9-0.8-1.8-1.2-2.6c-0.2-0.5-0.5-1-0.7-1.4c-0.4-0.9-0.9-1.7-1.3-2.6c-0.1-0.2-0.2-0.3-0.3-0.5C28.9,6,29,5.9,29.3,5.8 c0.5-0.2,1.1-0.4,1.6-0.7c0.7-0.3,1.4-0.5,2-0.8c0.5-0.2,0.9-0.4,1.4-0.5c0.4-0.1,0.9-0.3,1.4-0.4C36.1,3.3,36.6,3.2,37,3 c0.2-0.1,0.5-0.2,0.7-0.3c0.1,0.4,0.2,0.7,0.2,1c0.1,0.7,0.3,1.4,0.4,2.1c0.1,0.5,0.2,1,0.3,1.5c0.1,0.6,0.3,1.3,0.4,1.9 c0.1,0.5,0.1,0.9,0.2,1.4c0.1,0.3,0.2,0.6,0.2,0.8c0.1,0.2,0.1,0.4,0.1,0.6c0.1,0.7,0.3,1.5,0.4,2.2c0.1,0.5,0.2,1,0.2,1.4 c0.1,0.3,0.2,0.6,0.2,0.8c0,0.2,0.1,0.4,0.1,0.6c0.1,0.5,0.1,0.9,0.2,1.4c0.1,0.6,0.3,1.3,0.4,1.9c0.1,0.5,0.2,0.9,0.2,1.4 c0.1,0.3,0.1,0.5,0.2,0.8c0.1,0.2,0.1,0.5,0.2,0.7c0.1,0.7,0.3,1.5,0.4,2.2c0.1,0.5,0.2,0.9,0.2,1.4c0.1,0.3,0.1,0.5,0.2,0.8 c0.1,0.2,0.1,0.5,0.2,0.7c0.1,0.7,0.3,1.4,0.4,2.1c0.1,0.5,0.2,0.9,0.2,1.4c0,0.3,0.1,0.5,0.2,0.8c0.1,0.2,0.1,0.5,0.2,0.7 c0.1,0.7,0.3,1.5,0.4,2.2c0.1,0.5,0.2,0.9,0.2,1.4c0,0.2,0.1,0.5,0.2,0.7c0.1,0.5,0.2,0.9,0.3,1.4c0.1,0.5,0.2,1,0.3,1.5 c0,0.2,0.1,0.5,0.1,0.7c0,0.3,0.1,0.5,0.1,0.8c0.1,0.4,0.2,0.9,0.3,1.3c0.1,0.2,0.1,0.4,0.1,0.6c0.1,0.7,0.2,1.4,0.4,2 c0.1,0.4,0.1,0.7,0.2,1.1c0.1,0.6,0.3,1.2,0.4,1.8c0.1,0.4,0.2,0.9,0.2,1.3c0.1,0.5,0.2,1,0.3,1.5c0.1,0.5,0.2,1,0.3,1.5 c0.1,0.6,0.3,1.3,0.4,1.9c0.1,0.5,0.2,0.9,0.2,1.4c0.1,0.3,0.2,0.6,0.2,0.9c0,0.2,0.1,0.4,0.1,0.6c0.1,0.7,0.3,1.4,0.4,2.2 c0.1,0.5,0.2,1,0.2,1.4c0,0.2,0.1,0.3,0.1,0.5c0.8,0,1.7,0,2.5,0c0,0,0.1-0.1,0.1-0.2c0-0.3-0.1-0.6-0.1-0.9c0-0.2-0.1-0.5-0.2-0.7 c-0.1-0.3-0.1-0.6-0.1-0.9c-0.1-0.4-0.2-0.9-0.3-1.3c-0.1-0.2-0.1-0.4-0.1-0.7c-0.1-0.7-0.3-1.5-0.4-2.2c-0.1-0.3-0.1-0.6-0.1-0.8 c0-0.2-0.1-0.5-0.2-0.7c-0.1-0.3-0.1-0.5-0.2-0.8c-0.1-0.7-0.2-1.3-0.3-2c-0.1-0.6-0.2-1.1-0.3-1.7c-0.2-0.6-0.3-1.1-0.4-1.7 c-0.1-0.8-0.3-1.5-0.4-2.3c-0.1-0.4-0.1-0.7-0.2-1.1c-0.1-0.6-0.3-1.3-0.5-1.9c-0.1-0.5-0.2-1-0.2-1.4c-0.1-0.5-0.2-0.9-0.3-1.4 c-0.1-0.5-0.2-0.9-0.3-1.4c-0.1-0.7-0.3-1.3-0.4-2c-0.1-0.4-0.1-0.8-0.2-1.3c-0.1-0.3-0.2-0.7-0.3-1c0-0.2-0.1-0.4-0.1-0.6 c-0.1-0.5-0.2-0.9-0.2-1.4c-0.1-0.5-0.2-0.9-0.3-1.4c-0.1-0.4-0.2-0.9-0.2-1.3c-0.1-0.3-0.1-0.6-0.2-0.9c-0.1-0.2-0.1-0.5-0.2-0.7 c-0.1-0.7-0.2-1.3-0.3-2c-0.1-0.6-0.2-1.1-0.3-1.7c-0.1-0.5-0.2-0.9-0.3-1.3c-0.1-0.2-0.1-0.4-0.1-0.7c-0.1-0.7-0.2-1.3-0.3-2 c-0.1-0.4-0.1-0.8-0.2-1.1c-0.3-0.7-0.3-1.5-0.5-2.2c-0.1-0.8-0.3-1.5-0.4-2.3c-0.1-0.6-0.3-1.3-0.4-1.9c-0.1-0.5-0.2-0.9-0.2-1.4 c-0.1-0.5-0.2-0.9-0.3-1.4c-0.1-0.3-0.1-0.5-0.1-0.8c-0.1-0.3-0.1-0.5-0.2-0.8c-0.1-0.5-0.2-1-0.3-1.5c-0.1-0.5-0.2-1-0.3-1.4 c0-0.2-0.1-0.5-0.1-0.7c-0.1-0.5-0.1-0.9-0.2-1.4c-0.1-0.3-0.2-0.5-0.2-0.8c0-0.1,0-0.2,0-0.4C41,2.2,41.5,2.1,42.1,2 c0.4-0.1,0.8-0.1,1.2-0.2c0.1,0,0.1,0,0.2,0c0.6,0,1.1-0.1,1.7-0.1c0.9,0,1.8-0.1,2.6-0.1c0.4,0,0.8-0.1,1.2-0.1c0,0.2,0,0.3,0,0.4 c0,2.4,0,4.9,0,7.3c0,1.3,0.1,2.5,0.1,3.8c0,0.9,0.1,1.7,0.1,2.6c0,0.8,0.1,1.6,0.1,2.3c0,0.7,0.1,1.3,0.1,2c0,0.6,0.1,1.3,0.1,1.9 c0,0.6,0.1,1.1,0.1,1.7c0,0.5,0.1,1.1,0.1,1.6c0,0.5,0,1,0.1,1.5c0.2,0.9,0.2,1.8,0.3,2.8c0.1,0.8,0.1,1.7,0.2,2.5 c0.1,0.8,0.1,1.5,0.2,2.3c0.1,0.7,0.1,1.4,0.2,2.1c0,0.3,0,0.7,0.1,1c0.2,0.7,0.2,1.3,0.3,2c0.1,0.6,0.1,1.1,0.2,1.7 c0.1,0.9,0.2,1.8,0.3,2.7c0.1,0.5,0.1,1,0.2,1.5c0.1,0.6,0.2,1.2,0.3,1.8c0,0.3,0.1,0.5,0.1,0.8c0,0.4,0.1,0.7,0.1,1.1 c0.1,0.6,0.2,1.1,0.3,1.6c0,0.2,0.1,0.5,0.1,0.7c0.1,0.6,0.2,1.1,0.3,1.7c0.1,0.5,0.2,1,0.3,1.5c0,0.2,0.1,0.5,0.1,0.7 c0.1,0.7,0.2,1.3,0.3,2c0.1,0.4,0.2,0.9,0.3,1.3c0.1,0.4,0.2,0.9,0.2,1.3c0.1,0.4,0.2,0.8,0.2,1.1c0.1,0.3,0.1,0.5,0.2,0.8 c0.1,0.3,0.2,0.7,0.3,1c0,0.1,0.2,0.1,0.3,0.1c0.7,0,1.5,0,2.2,0c0.2,0,0.3,0.1,0.3,0.3c0.1,0.5,0.2,1,0.2,1.5c0,0.3,0.1,0.6,0.1,1 c0.1,0.7,0.1,1.3,0.2,2c0.1,0.7,0.2,1.5,0.3,2.2c0.1,0.7,0.3,1.5,0.4,2.2c0.1,0.5,0.2,1.1,0.2,1.6c0.1,0.5,0.2,1,0.3,1.4 c0,0.2,0.1,0.4,0.1,0.6c0.1,0.5,0.2,0.9,0.3,1.4c0.1,0.4,0.2,0.9,0.3,1.3c0.1,0.4,0.1,0.9,0.2,1.3c0.1,0.4,0.2,0.8,0.3,1.3 c0,0.2,0.1,0.4,0.1,0.5c0.2,0.7,0.4,1.5,0.5,2.2c0.1,0.4,0.1,0.8,0.2,1.2c0.1,0.3,0.2,0.6,0.3,0.9c0.1,0.2,0.1,0.4,0.2,0.7 c-8.4,0-16.9,0-25.3,0c0.1-0.2,0.2-0.5,0.3-0.7c0.1-0.3,0.2-0.6,0.3-0.9c0.1-0.5,0.3-1.1,0.4-1.6c0.1-0.3,0.2-0.7,0.2-1 c0.1-0.4,0.2-0.8,0.3-1.2c0.1-0.2,0.1-0.5,0.2-0.7c0.1-0.5,0.2-1,0.3-1.5c0.1-0.5,0.2-1,0.2-1.5c0-0.3,0.1-0.5,0.2-0.8 c0.1-0.3,0.1-0.6,0.2-0.9c0.1-0.4,0.1-0.7,0.1-1.1c0.1-0.7,0.2-1.3,0.3-1.9c0-0.3,0.1-0.6,0.1-0.9c0-0.5,0.1-1,0.1-1.5 c0.1-0.5,0.2-1,0.2-1.5c0,0,0-0.1,0-0.1c0-0.6,0.1-1.3,0.1-1.9c0-0.7,0.1-1.4,0.1-2.2c0-0.6,0.1-1.1,0.1-1.7c0-2.3,0.1-4.6,0.1-6.9 c0-1.1-0.1-2.2-0.1-3.2c0-0.6-0.1-1.1-0.1-1.7c-0.1-0.9-0.1-1.8-0.2-2.6c0-0.4-0.1-0.7-0.1-1.1c-0.1-0.7-0.2-1.4-0.3-2.1 c-0.1-0.3-0.1-0.7-0.1-1c0-0.2-0.1-0.4-0.1-0.6c0-0.2,0-0.3,0-0.5c0.1,0.3,0.2,0.6,0.3,0.9c0.1,0.4,0.2,0.8,0.3,1.2 c0.1,0.4,0.2,0.7,0.3,1.1c0.1,0.4,0.2,0.8,0.3,1.2c0.1,0.4,0.2,0.7,0.2,1.1c0.1,0.3,0.2,0.6,0.2,0.8c0,0.2,0.1,0.4,0.1,0.5 c0.2,0.7,0.3,1.5,0.5,2.2c0.1,0.5,0.2,1,0.3,1.5c0.2,0.8,0.4,1.6,0.6,2.4c0.1,0.4,0.2,0.9,0.2,1.4c0.1,0.4,0.1,0.8,0.2,1.2 c0.2,0.6,0.3,1.2,0.4,1.8c0.1,0.7,0.2,1.3,0.3,2C44.4,62.2,44.5,62.3,44.5,62.5z"></path> <path class="st0" d="M71.8,92.9c-0.2-0.5-0.3-0.9-0.5-1.4c-0.2-0.6-0.4-1.1-0.6-1.7c-0.2-0.6-0.4-1.2-0.7-1.8 c-0.1-0.4-0.3-0.8-0.4-1.3c-0.2-0.5-0.4-1-0.6-1.5c0-0.1,0-0.2,0.1-0.3c0.3-0.2,0.6-0.3,0.9-0.5c0.5-0.3,0.9-0.6,1.3-0.9 c0.4-0.3,0.9-0.6,1.3-1c0.3-0.2,0.5-0.4,0.7-0.6c0.6-0.5,1.1-1,1.7-1.5c0.5-0.5,1-1,1.4-1.4c0.4-0.4,0.7-0.8,1-1.2 c0.3-0.4,0.7-0.7,1-1.1c0.4-0.5,0.8-1.1,1.2-1.6c0.3-0.4,0.6-0.9,0.9-1.3c0.3-0.5,0.7-1,1-1.5c0.4-0.7,0.8-1.5,1.2-2.2 c0.2-0.3,0.3-0.6,0.5-1c0.2-0.4,0.3-0.9,0.5-1.3c0.2-0.4,0.4-0.8,0.5-1.3c0.2-0.5,0.3-1,0.5-1.5c0.1-0.3,0.2-0.6,0.3-0.9 c0.1-0.3,0.2-0.7,0.3-1c0.1-0.4,0.2-0.8,0.3-1.2c0-0.2,0.1-0.4,0.1-0.5c0.1-0.5,0.2-1,0.3-1.5c0.1-0.7,0.2-1.3,0.3-2 c0,0,0-0.1,0-0.1c0-0.7,0.1-1.3,0.1-2c0-1,0.1-2,0.1-3.1c0-0.7,0-1.4-0.1-2.1c-0.1-0.7-0.1-1.4-0.2-2c-0.1-0.7-0.2-1.3-0.3-2 c-0.1-0.4-0.2-0.9-0.3-1.3c-0.1-0.4-0.2-0.8-0.2-1.2c-0.1-0.3-0.2-0.6-0.2-0.9C85.1,43.1,85,43,85,42.8c-0.2-0.5-0.3-1-0.5-1.5 c-0.2-0.5-0.3-0.9-0.5-1.4c-0.1-0.2-0.2-0.4-0.3-0.5c-0.3-0.6-0.5-1.2-0.8-1.7c-0.3-0.5-0.6-1.1-0.8-1.6c-0.4-0.6-0.7-1.3-1.1-1.9 c-0.2-0.3-0.5-0.7-0.7-1c-0.4-0.6-0.9-1.2-1.3-1.9c-0.3-0.4-0.7-0.8-1-1.2c-0.4-0.4-0.7-0.9-1.1-1.3c-0.2-0.3-0.5-0.5-0.8-0.7 c-0.7-0.7-1.5-1.4-2.3-2.1c-0.4-0.3-0.8-0.6-1.2-1c-0.3-0.2-0.5-0.4-0.8-0.7c-0.1-0.1-0.1-0.2-0.1-0.3c0.1-0.4,0.2-0.8,0.3-1.2 c0.1-0.5,0.3-0.9,0.4-1.4c0.1-0.3,0.2-0.7,0.3-1c0.1-0.3,0.2-0.7,0.3-1c0.1-0.5,0.3-0.9,0.4-1.4c0.1-0.2,0.1-0.4,0.1-0.6 c0-0.1,0.1-0.3,0.2-0.4c0.1-0.3,0.1-0.6,0.2-0.8c0-0.1,0.1-0.1,0.1-0.2c4.2,2.7,7.9,5.9,10.9,9.8c7,8.9,10.3,19.1,9.8,30.5 c-0.2,3.9-0.9,7.6-2.1,11.3c-1.2,3.6-2.7,7-4.8,10.2c-2,3.2-4.4,6-7.1,8.6C78,88.8,75,91,71.8,92.9z"></path> <path class="st0" d="M25.9,15.9c0.1,0.3,0.1,0.5,0.2,0.7c0.2,0.5,0.3,1,0.5,1.4c0.1,0.5,0.2,0.9,0.4,1.4c0.1,0.3,0.2,0.6,0.3,1 c0.1,0.3,0.2,0.6,0.2,0.9c0.2,0.6,0.3,1.2,0.5,1.8c0.1,0.3,0.2,0.5,0.3,0.8c0,0.1,0,0.2-0.1,0.3c-0.2,0.2-0.4,0.3-0.7,0.5 c-0.3,0.2-0.5,0.4-0.8,0.6c-0.5,0.5-1,0.9-1.6,1.4c-0.3,0.3-0.7,0.6-1,0.9c-0.3,0.3-0.7,0.7-1,1c-0.3,0.3-0.5,0.5-0.7,0.8 c-0.4,0.5-0.9,1.1-1.3,1.6c-0.4,0.5-0.7,0.9-1.1,1.4c-0.3,0.5-0.7,0.9-1,1.4c-0.4,0.6-0.7,1.2-1.1,1.8c-0.4,0.6-0.7,1.3-1,1.9 c-0.2,0.4-0.4,0.9-0.6,1.3c-0.2,0.4-0.3,0.9-0.5,1.3c-0.1,0.2-0.2,0.4-0.3,0.6c-0.2,0.5-0.3,1-0.5,1.5c-0.1,0.3-0.3,0.7-0.4,1 c-0.1,0.3-0.2,0.6-0.2,0.9c-0.1,0.4-0.2,0.8-0.3,1.2c0,0.2-0.1,0.4-0.1,0.6c-0.1,0.5-0.1,1-0.2,1.5c-0.2,0.9-0.3,1.7-0.4,2.6 c0,0.3-0.1,0.7-0.1,1c0,1.1-0.1,2.1-0.1,3.2c0,0.9,0.1,1.7,0.1,2.6c0,0.6,0.1,1.3,0.2,1.9c0,0.3,0.1,0.5,0.1,0.8 c0.1,0.6,0.3,1.3,0.4,1.9c0.1,0.4,0.2,0.8,0.2,1.2c0.1,0.3,0.2,0.6,0.3,0.9c0.2,0.6,0.4,1.1,0.5,1.7c0.1,0.4,0.3,0.9,0.5,1.3 c0.3,0.8,0.6,1.6,1,2.3c0.3,0.6,0.5,1.1,0.8,1.7c0.4,0.7,0.8,1.5,1.3,2.2c0.4,0.6,0.8,1.2,1.2,1.8c0.3,0.5,0.7,0.9,1,1.4 c0.2,0.2,0.4,0.5,0.6,0.7c0.5,0.6,0.9,1.1,1.4,1.7c0.5,0.5,1,1,1.5,1.5c0.4,0.4,0.8,0.7,1.1,1.1c0.5,0.4,0.9,0.9,1.4,1.3 c0.4,0.3,0.8,0.6,1.1,0.8c0.2,0.2,0.5,0.4,0.7,0.5c0.2,0.1,0.4,0.2,0.6,0.4c0.4,0.3,0.9,0.5,1.3,0.8c0.1,0,0.1,0.2,0.1,0.3 c-0.2,0.5-0.3,1-0.5,1.5c-0.2,0.5-0.4,1-0.5,1.4c-0.2,0.5-0.3,1-0.5,1.5c-0.1,0.2-0.2,0.5-0.3,0.7c-0.2,0.5-0.3,1-0.5,1.5 c-0.1,0.3-0.3,0.7-0.4,1c-0.1-0.1-0.2-0.1-0.3-0.1c-0.6-0.3-1.2-0.7-1.7-1c-0.6-0.4-1.2-0.8-1.8-1.2c-0.3-0.2-0.7-0.5-1.1-0.7 c-0.4-0.3-0.7-0.5-1.1-0.8c-0.2-0.2-0.5-0.4-0.7-0.6c-0.3-0.2-0.5-0.4-0.8-0.6c-0.4-0.3-0.8-0.7-1.1-1c-0.5-0.4-0.9-0.9-1.3-1.3 c-0.3-0.3-0.6-0.6-0.9-0.9c-0.5-0.5-0.9-1-1.3-1.5c-0.4-0.4-0.7-0.8-1.1-1.3c-0.4-0.5-0.7-1-1.1-1.5c-0.2-0.3-0.5-0.5-0.6-0.8 c-0.5-0.7-0.9-1.5-1.4-2.2c-0.2-0.3-0.4-0.6-0.6-1c-0.5-0.9-1-1.8-1.4-2.7c-0.4-0.7-0.7-1.5-1-2.3c-0.3-0.8-0.6-1.6-0.9-2.4 c-0.2-0.5-0.4-0.9-0.5-1.4c-0.1-0.4-0.2-0.8-0.4-1.2c-0.1-0.4-0.3-0.8-0.4-1.2c-0.1-0.3-0.2-0.7-0.2-1c-0.1-0.5-0.2-0.9-0.3-1.4 C6,62.4,6,62.2,5.9,62c-0.1-0.6-0.1-1.1-0.2-1.7c-0.1-0.4-0.2-0.8-0.2-1.2c0,0,0-0.1,0-0.1c0-0.6-0.1-1.2-0.1-1.8 c0-2-0.1-3.9-0.1-5.9c0-0.9,0.1-1.9,0.2-2.8c0-0.3,0.1-0.5,0.1-0.8c0.1-0.6,0.2-1.2,0.3-1.7c0-0.2,0.1-0.5,0.1-0.7 c0.2-0.8,0.3-1.6,0.5-2.4c0.1-0.5,0.3-0.9,0.4-1.4C7,41,7.1,40.5,7.3,40.1c0.1-0.4,0.3-0.8,0.5-1.2c0.1-0.3,0.2-0.7,0.3-1 c0.2-0.5,0.3-1,0.6-1.5c0.3-0.8,0.7-1.5,1-2.2c0.3-0.7,0.7-1.3,1-2c0.3-0.6,0.7-1.2,1-1.8c0.3-0.5,0.6-1,1-1.5 c0.4-0.5,0.7-1.1,1.1-1.6c0.4-0.5,0.8-1,1.2-1.5c0.3-0.3,0.5-0.7,0.8-1c0.4-0.5,0.8-0.9,1.2-1.4c0.6-0.6,1.2-1.2,1.7-1.8 c0.4-0.4,0.8-0.7,1.2-1.1c0.7-0.6,1.4-1.3,2.1-1.9c0.5-0.4,1.1-0.8,1.7-1.2c0.5-0.4,1-0.7,1.5-1C25.3,16.3,25.6,16.1,25.9,15.9z"></path> <path class="st0" d="M49.9,98.6c-5.5,0-11,0-16.5,0c-0.1,0-0.2,0-0.2,0c-0.1,0-0.2,0-0.1-0.2c0.1-0.3,0.2-0.5,0.3-0.8 c0.1-0.2,0.2-0.5,0.3-0.7c0.2-0.5,0.3-1,0.5-1.5c0.2-0.6,0.4-1.1,0.6-1.7c0.2-0.5,0.3-0.9,0.5-1.4c0.2-0.5,0.4-1,0.6-1.5 c0.1-0.1,0.1-0.3,0.1-0.4c0-0.2,0.1-0.3,0.4-0.3c5,0,10.1,0,15.1,0c4,0,8.1,0,12.1,0c0.3,0,0.4,0.1,0.4,0.4c0.1,0.3,0.3,0.7,0.4,1 c0.2,0.5,0.3,1,0.5,1.5c0.2,0.4,0.3,0.9,0.4,1.3c0.3,0.8,0.6,1.6,0.9,2.3c0.2,0.5,0.4,1,0.6,1.5c0.1,0.3,0.1,0.4-0.3,0.4 C61,98.6,55.5,98.6,49.9,98.6z"></path> <path class="st0" d="M60.1,2.4c-3.9,19.8-4.5,39.7-2.2,59.7c0,0-0.1,0-0.1,0c-0.1-0.4-0.2-0.7-0.3-1.1c-0.1-0.4-0.2-0.8-0.3-1.2 c-0.1-0.2-0.1-0.4-0.1-0.7c-0.1-0.5-0.2-0.9-0.4-1.4c-0.1-0.2-0.1-0.4-0.1-0.7c-0.1-0.6-0.2-1.3-0.3-1.9c-0.1-0.4-0.1-0.8-0.2-1.2 c-0.1-0.5-0.2-0.9-0.3-1.4c-0.1-0.2-0.1-0.5-0.1-0.7c-0.1-0.5-0.2-1.1-0.2-1.6c-0.1-0.7-0.2-1.4-0.3-2c-0.2-0.7-0.3-1.4-0.4-2.1 c-0.1-0.7-0.2-1.5-0.3-2.2c-0.1-0.8-0.1-1.6-0.3-2.4c-0.2-0.7-0.2-1.4-0.3-2.1c-0.1-0.3-0.1-0.6-0.1-1c0-0.5-0.1-1-0.1-1.5 c-0.1-0.8-0.2-1.6-0.3-2.4c0-0.4-0.1-0.7-0.1-1.1c-0.1-0.6-0.1-1.2-0.2-1.8c-0.1-0.9-0.2-1.8-0.2-2.6c0-0.4-0.1-0.7-0.1-1.1 c-0.1-1.1-0.2-2.2-0.2-3.3c0-0.4-0.1-0.9-0.1-1.3c0-0.7-0.1-1.4-0.1-2.1c0-0.6,0-1.2-0.1-1.8c-0.2-0.9-0.1-1.7-0.2-2.6 c0-0.4-0.1-0.7-0.1-1.1c-0.1-2-0.1-4-0.1-6c0-2.6-0.1-5.3-0.1-7.9c0-0.3,0-0.3,0.3-0.3c0.3,0,0.6,0.1,0.8,0.1 c0.8,0,1.7,0.1,2.5,0.1c0.7,0.1,1.4,0.1,2.1,0.2c0.7,0.2,1.5,0.2,2.2,0.4C59.7,2.3,59.9,2.4,60.1,2.4z"></path> <path class="st0" d="M59,49.8c0-0.1,0-0.2,0-0.3c0-1.7-0.1-3.4-0.1-5.2c0-2.6-0.1-5.1-0.1-7.7c0-1.4,0.1-2.8,0.1-4.1 c0-0.9,0.1-1.7,0.1-2.6c0-0.7,0-1.4,0.1-2.1c0.2-1.1,0.2-2.2,0.3-3.3c0-0.8,0.1-1.7,0.2-2.5c0.1-0.8,0.1-1.6,0.2-2.4 c0.1-0.6,0.1-1.3,0.2-1.9c0-0.3,0-0.7,0.1-1c0.2-0.6,0.2-1.2,0.3-1.8c0.1-0.5,0.1-1.1,0.2-1.6c0.1-0.6,0.2-1.2,0.3-1.8 c0-0.3,0.1-0.6,0.1-1c0.1-0.4,0.2-0.8,0.2-1.1c0-0.2,0.1-0.5,0.1-0.7c0.1-0.5,0.1-1.1,0.2-1.6c0.1-0.5,0.2-1,0.3-1.4 C62,5.5,62,5.2,62,5c0.1-0.5,0.2-1,0.4-1.6c0-0.1,0-0.2,0-0.3c0-0.2,0.2-0.2,0.3-0.2c0.2,0.1,0.4,0.2,0.6,0.2 c0.6,0.2,1.3,0.4,2,0.5c0.3,0.1,0.6,0.1,0.9,0.2c0.4,0.1,0.7,0.3,1.1,0.4c0.5,0.2,0.9,0.3,1.4,0.5c0.3,0.1,0.5,0.3,0.8,0.4 c0.5,0.2,0.9,0.4,1.4,0.6C71,5.9,71,6.1,70.9,6.2c-0.3,0.6-0.6,1.2-0.8,1.8c-0.2,0.4-0.3,0.8-0.5,1.3c-0.2,0.6-0.5,1.2-0.7,1.8 c-0.1,0.2-0.2,0.5-0.3,0.7c-0.3,0.8-0.7,1.7-1,2.5c-0.3,0.7-0.5,1.4-0.8,2.1c-0.2,0.6-0.4,1.1-0.6,1.7c-0.2,0.5-0.3,1-0.5,1.5 c-0.1,0.3-0.2,0.6-0.3,0.9c-0.1,0.4-0.2,0.8-0.4,1.2c-0.2,0.5-0.3,1.1-0.5,1.6c0,0.1-0.1,0.3-0.1,0.4c-0.2,0.6-0.4,1.1-0.5,1.7 c-0.2,0.7-0.4,1.3-0.5,2c-0.2,0.8-0.5,1.5-0.7,2.3c-0.1,0.5-0.2,1-0.4,1.5c-0.1,0.4-0.2,0.7-0.3,1.1c-0.1,0.4-0.2,0.8-0.3,1.2 c-0.1,0.4-0.2,0.9-0.3,1.3c0,0.2-0.1,0.5-0.1,0.7c-0.1,0.5-0.2,1-0.4,1.5c-0.1,0.4-0.2,0.9-0.2,1.3c-0.1,0.5-0.2,1.1-0.3,1.6 c0,0.2-0.1,0.5-0.1,0.7c-0.1,0.6-0.2,1.2-0.3,1.8c-0.1,0.6-0.2,1.2-0.3,1.8c0,0.3-0.1,0.6-0.1,0.9c0,0.5-0.1,0.9-0.1,1.4 c-0.1,0.8-0.1,1.5-0.2,2.3C59.2,49.1,59.1,49.4,59,49.8z"></path> </g> </svg> 